<svg width="395" height="18" viewBox="0 0 395 18" fill="none" xmlns="http://www.w3.org/2000/svg">
<path d="M8.814 9.346C8.814 10.0653 8.72733 10.7197 8.554 11.309C8.38067 11.8897 8.125 12.3923 7.787 12.817C7.449 13.2417 7.02867 13.5667 6.526 13.792C6.02333 14.0173 5.44267 14.13 4.784 14.13C4.09933 14.13 3.50133 14.0173 2.99 13.792C2.48733 13.558 2.067 13.233 1.729 12.817C1.39967 12.3923 1.15267 11.8853 0.988 11.296C0.823333 10.7067 0.741 10.0523 0.741 9.333C0.741 8.37967 0.888333 7.54767 1.183 6.837C1.47767 6.12633 1.924 5.57167 2.522 5.173C3.12867 4.77433 3.887 4.575 4.797 4.575C5.67233 4.575 6.409 4.77433 7.007 5.173C7.605 5.563 8.05567 6.11767 8.359 6.837C8.66233 7.54767 8.814 8.384 8.814 9.346ZM1.963 9.346C1.963 10.126 2.06267 10.7977 2.262 11.361C2.46133 11.9243 2.769 12.3577 3.185 12.661C3.60967 12.9643 4.14267 13.116 4.784 13.116C5.434 13.116 5.967 12.9643 6.383 12.661C6.799 12.3577 7.10233 11.9243 7.293 11.361C7.49233 10.7977 7.592 10.126 7.592 9.346C7.592 8.176 7.36667 7.26167 6.916 6.603C6.474 5.93567 5.76767 5.602 4.797 5.602C4.147 5.602 3.60967 5.75367 3.185 6.057C2.769 6.35167 2.46133 6.78067 2.262 7.344C2.06267 7.89867 1.963 8.566 1.963 9.346ZM14.8914 7.032V9.931H18.3754V7.032H19.5064V14H18.3754V10.893H14.8914V14H13.7604V7.032H14.8914ZM24.0643 6.915C24.8617 6.915 25.4553 7.10133 25.8453 7.474C26.244 7.84667 26.4433 8.44033 26.4433 9.255V14H25.6243L25.4033 13.012H25.3513C25.1607 13.2633 24.9657 13.4757 24.7663 13.649C24.5757 13.8137 24.3503 13.935 24.0903 14.013C23.839 14.091 23.527 14.13 23.1543 14.13C22.7643 14.13 22.4133 14.0563 22.1013 13.909C21.7893 13.7617 21.5423 13.5363 21.3603 13.233C21.1783 12.921 21.0873 12.531 21.0873 12.063C21.0873 11.3697 21.343 10.8367 21.8543 10.464C22.3657 10.0827 23.1543 9.87467 24.2203 9.84L25.3253 9.801V9.385C25.3253 8.80433 25.2083 8.40133 24.9743 8.176C24.749 7.95067 24.424 7.838 23.9993 7.838C23.6613 7.838 23.3363 7.89433 23.0243 8.007C22.721 8.111 22.4307 8.23233 22.1533 8.371L21.8023 7.513C22.097 7.34833 22.4393 7.20967 22.8293 7.097C23.2193 6.97567 23.631 6.915 24.0643 6.915ZM24.3763 10.633C23.579 10.6677 23.0243 10.8063 22.7123 11.049C22.409 11.2917 22.2573 11.634 22.2573 12.076C22.2573 12.466 22.3657 12.752 22.5823 12.934C22.799 13.116 23.0807 13.207 23.4273 13.207C23.9647 13.207 24.4153 13.0467 24.7793 12.726C25.1433 12.3967 25.3253 11.894 25.3253 11.218V10.594L24.3763 10.633ZM31.1006 14.13C30.5112 14.13 29.9912 14.0043 29.5406 13.753C29.0899 13.5017 28.7346 13.1117 28.4746 12.583C28.2232 12.0543 28.0976 11.3783 28.0976 10.555C28.0976 9.697 28.2319 8.99933 28.5006 8.462C28.7692 7.92467 29.1332 7.53033 29.5926 7.279C30.0606 7.02767 30.5892 6.902 31.1786 6.902C31.5166 6.902 31.8416 6.941 32.1536 7.019C32.4742 7.08833 32.7342 7.175 32.9336 7.279L32.5826 8.228C32.3832 8.15 32.1492 8.07633 31.8806 8.007C31.6206 7.93767 31.3779 7.903 31.1526 7.903C30.7279 7.903 30.3769 8.00267 30.0996 8.202C29.8222 8.40133 29.6142 8.696 29.4756 9.086C29.3369 9.476 29.2676 9.96133 29.2676 10.542C29.2676 11.0967 29.3369 11.569 29.4756 11.959C29.6142 12.349 29.8179 12.6437 30.0866 12.843C30.3639 13.0423 30.7019 13.142 31.1006 13.142C31.4559 13.142 31.7722 13.103 32.0496 13.025C32.3269 12.947 32.5826 12.8517 32.8166 12.739V13.753C32.5912 13.8743 32.3442 13.9653 32.0756 14.026C31.8069 14.0953 31.4819 14.13 31.1006 14.13Z" fill="#090F24"/>
<path d="M60.814 9.346C60.814 10.0653 60.7273 10.7197 60.554 11.309C60.3807 11.8897 60.125 12.3923 59.787 12.817C59.449 13.2417 59.0287 13.5667 58.526 13.792C58.0233 14.0173 57.4427 14.13 56.784 14.13C56.0993 14.13 55.5013 14.0173 54.99 13.792C54.4873 13.558 54.067 13.233 53.729 12.817C53.3997 12.3923 53.1527 11.8853 52.988 11.296C52.8233 10.7067 52.741 10.0523 52.741 9.333C52.741 8.37967 52.8883 7.54767 53.183 6.837C53.4777 6.12633 53.924 5.57167 54.522 5.173C55.1287 4.77433 55.887 4.575 56.797 4.575C57.6723 4.575 58.409 4.77433 59.007 5.173C59.605 5.563 60.0557 6.11767 60.359 6.837C60.6623 7.54767 60.814 8.384 60.814 9.346ZM53.963 9.346C53.963 10.126 54.0627 10.7977 54.262 11.361C54.4613 11.9243 54.769 12.3577 55.185 12.661C55.6097 12.9643 56.1427 13.116 56.784 13.116C57.434 13.116 57.967 12.9643 58.383 12.661C58.799 12.3577 59.1023 11.9243 59.293 11.361C59.4923 10.7977 59.592 10.126 59.592 9.346C59.592 8.176 59.3667 7.26167 58.916 6.603C58.474 5.93567 57.7677 5.602 56.797 5.602C56.147 5.602 55.6097 5.75367 55.185 6.057C54.769 6.35167 54.4613 6.78067 54.262 7.344C54.0627 7.89867 53.963 8.566 53.963 9.346ZM68.1636 7.032V14H67.0326V8.007H63.7176V14H62.5866V7.032H68.1636ZM75.2991 14H74.1551V7.981H72.2441C72.1661 9.08167 72.0621 10.022 71.9321 10.802C71.8108 11.5733 71.6548 12.2017 71.4641 12.687C71.2821 13.1723 71.0611 13.5277 70.8011 13.753C70.5411 13.9783 70.2335 14.091 69.8781 14.091C69.7655 14.091 69.6528 14.0823 69.5401 14.065C69.4361 14.0563 69.3495 14.0347 69.2801 14V13.142C69.3321 13.1593 69.3885 13.1723 69.4491 13.181C69.5098 13.1897 69.5705 13.194 69.6311 13.194C69.8045 13.194 69.9605 13.116 70.0991 12.96C70.2465 12.804 70.3765 12.5657 70.4891 12.245C70.6105 11.9243 70.7188 11.5213 70.8141 11.036C70.9095 10.542 70.9918 9.96133 71.0611 9.294C71.1391 8.62667 71.2085 7.87267 71.2691 7.032H75.2991V14ZM79.8602 6.915C80.6576 6.915 81.2512 7.10133 81.6412 7.474C82.0399 7.84667 82.2392 8.44033 82.2392 9.255V14H81.4202L81.1992 13.012H81.1472C80.9566 13.2633 80.7616 13.4757 80.5622 13.649C80.3716 13.8137 80.1462 13.935 79.8862 14.013C79.6349 14.091 79.3229 14.13 78.9502 14.13C78.5602 14.13 78.2092 14.0563 77.8972 13.909C77.5852 13.7617 77.3382 13.5363 77.1562 13.233C76.9742 12.921 76.8832 12.531 76.8832 12.063C76.8832 11.3697 77.1389 10.8367 77.6502 10.464C78.1616 10.0827 78.9502 9.87467 80.0162 9.84L81.1212 9.801V9.385C81.1212 8.80433 81.0042 8.40133 80.7702 8.176C80.5449 7.95067 80.2199 7.838 79.7952 7.838C79.4572 7.838 79.1322 7.89433 78.8202 8.007C78.5169 8.111 78.2266 8.23233 77.9492 8.371L77.5982 7.513C77.8929 7.34833 78.2352 7.20967 78.6252 7.097C79.0152 6.97567 79.4269 6.915 79.8602 6.915ZM80.1722 10.633C79.3749 10.6677 78.8202 10.8063 78.5082 11.049C78.2049 11.2917 78.0532 11.634 78.0532 12.076C78.0532 12.466 78.1616 12.752 78.3782 12.934C78.5949 13.116 78.8766 13.207 79.2232 13.207C79.7606 13.207 80.2112 13.0467 80.5752 12.726C80.9392 12.3967 81.1212 11.894 81.1212 11.218V10.594L80.1722 10.633ZM88.8595 7.994H86.7145V14H85.5965V7.994H83.4775V7.032H88.8595V7.994ZM92.6571 6.915C93.4544 6.915 94.0481 7.10133 94.4381 7.474C94.8368 7.84667 95.0361 8.44033 95.0361 9.255V14H94.2171L93.9961 13.012H93.9441C93.7534 13.2633 93.5584 13.4757 93.3591 13.649C93.1684 13.8137 92.9431 13.935 92.6831 14.013C92.4318 14.091 92.1198 14.13 91.7471 14.13C91.3571 14.13 91.0061 14.0563 90.6941 13.909C90.3821 13.7617 90.1351 13.5363 89.9531 13.233C89.7711 12.921 89.6801 12.531 89.6801 12.063C89.6801 11.3697 89.9358 10.8367 90.4471 10.464C90.9584 10.0827 91.7471 9.87467 92.8131 9.84L93.9181 9.801V9.385C93.9181 8.80433 93.8011 8.40133 93.5671 8.176C93.3418 7.95067 93.0168 7.838 92.5921 7.838C92.2541 7.838 91.9291 7.89433 91.6171 8.007C91.3138 8.111 91.0234 8.23233 90.7461 8.371L90.3951 7.513C90.6898 7.34833 91.0321 7.20967 91.4221 7.097C91.8121 6.97567 92.2238 6.915 92.6571 6.915ZM92.9691 10.633C92.1718 10.6677 91.6171 10.8063 91.3051 11.049C91.0018 11.2917 90.8501 11.634 90.8501 12.076C90.8501 12.466 90.9584 12.752 91.1751 12.934C91.3918 13.116 91.6734 13.207 92.0201 13.207C92.5574 13.207 93.0081 13.0467 93.3721 12.726C93.7361 12.3967 93.9181 11.894 93.9181 11.218V10.594L92.9691 10.633ZM101.294 11.283C101.294 11.361 101.29 11.4737 101.281 11.621C101.281 11.7597 101.277 11.9113 101.268 12.076C101.26 12.232 101.251 12.3837 101.242 12.531C101.234 12.6697 101.225 12.7823 101.216 12.869L104.7 7.032H106.078V14H105.025V9.892C105.025 9.75333 105.025 9.57133 105.025 9.346C105.034 9.12067 105.043 8.89967 105.051 8.683C105.06 8.45767 105.069 8.28867 105.077 8.176L101.632 14H100.228V7.032H101.294V11.283ZM116.277 7.032V13.038H117.226V16.418H116.147V14H111.597V16.418H110.518V13.038H111.051C111.424 12.4833 111.731 11.881 111.974 11.231C112.217 10.5723 112.399 9.88767 112.52 9.177C112.65 8.45767 112.719 7.74267 112.728 7.032H116.277ZM113.729 7.929C113.694 8.51833 113.608 9.12933 113.469 9.762C113.339 10.386 113.166 10.984 112.949 11.556C112.741 12.128 112.498 12.622 112.221 13.038H115.172V7.929H113.729ZM124.217 10.503C124.217 11.0837 124.143 11.5993 123.996 12.05C123.857 12.492 123.654 12.869 123.385 13.181C123.116 13.493 122.791 13.7313 122.41 13.896C122.029 14.052 121.604 14.13 121.136 14.13C120.703 14.13 120.3 14.052 119.927 13.896C119.563 13.7313 119.242 13.493 118.965 13.181C118.696 12.869 118.488 12.492 118.341 12.05C118.194 11.5993 118.12 11.0837 118.12 10.503C118.12 9.73167 118.241 9.08167 118.484 8.553C118.735 8.01567 119.091 7.60833 119.55 7.331C120.009 7.045 120.551 6.902 121.175 6.902C121.773 6.902 122.297 7.045 122.748 7.331C123.207 7.60833 123.567 8.01567 123.827 8.553C124.087 9.08167 124.217 9.73167 124.217 10.503ZM119.29 10.503C119.29 11.049 119.355 11.5257 119.485 11.933C119.615 12.3317 119.819 12.6393 120.096 12.856C120.373 13.0727 120.729 13.181 121.162 13.181C121.595 13.181 121.951 13.0727 122.228 12.856C122.505 12.6393 122.709 12.3317 122.839 11.933C122.978 11.5257 123.047 11.049 123.047 10.503C123.047 9.94833 122.978 9.476 122.839 9.086C122.709 8.696 122.505 8.397 122.228 8.189C121.951 7.97233 121.591 7.864 121.149 7.864C120.499 7.864 120.027 8.098 119.732 8.566C119.437 9.034 119.29 9.67967 119.29 10.503ZM128.537 14.13C127.948 14.13 127.428 14.0043 126.977 13.753C126.526 13.5017 126.171 13.1117 125.911 12.583C125.66 12.0543 125.534 11.3783 125.534 10.555C125.534 9.697 125.668 8.99933 125.937 8.462C126.206 7.92467 126.57 7.53033 127.029 7.279C127.497 7.02767 128.026 6.902 128.615 6.902C128.953 6.902 129.278 6.941 129.59 7.019C129.911 7.08833 130.171 7.175 130.37 7.279L130.019 8.228C129.82 8.15 129.586 8.07633 129.317 8.007C129.057 7.93767 128.814 7.903 128.589 7.903C128.164 7.903 127.813 8.00267 127.536 8.202C127.259 8.40133 127.051 8.696 126.912 9.086C126.773 9.476 126.704 9.96133 126.704 10.542C126.704 11.0967 126.773 11.569 126.912 11.959C127.051 12.349 127.254 12.6437 127.523 12.843C127.8 13.0423 128.138 13.142 128.537 13.142C128.892 13.142 129.209 13.103 129.486 13.025C129.763 12.947 130.019 12.8517 130.253 12.739V13.753C130.028 13.8743 129.781 13.9653 129.512 14.026C129.243 14.0953 128.918 14.13 128.537 14.13ZM136.403 7.994H134.258V14H133.14V7.994H131.021V7.032H136.403V7.994ZM140.201 6.915C140.998 6.915 141.592 7.10133 141.982 7.474C142.381 7.84667 142.58 8.44033 142.58 9.255V14H141.761L141.54 13.012H141.488C141.297 13.2633 141.102 13.4757 140.903 13.649C140.712 13.8137 140.487 13.935 140.227 14.013C139.976 14.091 139.664 14.13 139.291 14.13C138.901 14.13 138.55 14.0563 138.238 13.909C137.926 13.7617 137.679 13.5363 137.497 13.233C137.315 12.921 137.224 12.531 137.224 12.063C137.224 11.3697 137.48 10.8367 137.991 10.464C138.502 10.0827 139.291 9.87467 140.357 9.84L141.462 9.801V9.385C141.462 8.80433 141.345 8.40133 141.111 8.176C140.886 7.95067 140.561 7.838 140.136 7.838C139.798 7.838 139.473 7.89433 139.161 8.007C138.858 8.111 138.567 8.23233 138.29 8.371L137.939 7.513C138.234 7.34833 138.576 7.20967 138.966 7.097C139.356 6.97567 139.768 6.915 140.201 6.915ZM140.513 10.633C139.716 10.6677 139.161 10.8063 138.849 11.049C138.546 11.2917 138.394 11.634 138.394 12.076C138.394 12.466 138.502 12.752 138.719 12.934C138.936 13.116 139.217 13.207 139.564 13.207C140.101 13.207 140.552 13.0467 140.916 12.726C141.28 12.3967 141.462 11.894 141.462 11.218V10.594L140.513 10.633ZM149.915 8.787C149.915 9.22033 149.794 9.55833 149.551 9.801C149.309 10.0437 148.992 10.2083 148.602 10.295V10.347C149.01 10.4077 149.365 10.5637 149.668 10.815C149.972 11.0577 150.123 11.439 150.123 11.959C150.123 12.2537 150.071 12.5267 149.967 12.778C149.872 13.0293 149.716 13.246 149.499 13.428C149.283 13.61 149.005 13.753 148.667 13.857C148.329 13.9523 147.922 14 147.445 14H144.598V7.032H147.432C147.909 7.032 148.334 7.08833 148.706 7.201C149.079 7.305 149.374 7.487 149.59 7.747C149.807 7.99833 149.915 8.345 149.915 8.787ZM148.953 11.959C148.953 11.5603 148.81 11.2743 148.524 11.101C148.247 10.9277 147.84 10.841 147.302 10.841H145.729V13.077H147.328C147.848 13.077 148.247 12.9947 148.524 12.83C148.81 12.6567 148.953 12.3663 148.953 11.959ZM148.771 8.93C148.771 8.60067 148.659 8.36233 148.433 8.215C148.217 8.059 147.866 7.981 147.38 7.981H145.729V9.892H147.172C147.701 9.892 148.1 9.814 148.368 9.658C148.637 9.502 148.771 9.25933 148.771 8.93ZM155.595 7.032H156.83L154.048 10.386L157.064 14H155.751L152.813 10.464V14H151.682V7.032H152.813V10.412L155.595 7.032ZM160.729 6.915C161.527 6.915 162.12 7.10133 162.51 7.474C162.909 7.84667 163.108 8.44033 163.108 9.255V14H162.289L162.068 13.012H162.016C161.826 13.2633 161.631 13.4757 161.431 13.649C161.241 13.8137 161.015 13.935 160.755 14.013C160.504 14.091 160.192 14.13 159.819 14.13C159.429 14.13 159.078 14.0563 158.766 13.909C158.454 13.7617 158.207 13.5363 158.025 13.233C157.843 12.921 157.752 12.531 157.752 12.063C157.752 11.3697 158.008 10.8367 158.519 10.464C159.031 10.0827 159.819 9.87467 160.885 9.84L161.99 9.801V9.385C161.99 8.80433 161.873 8.40133 161.639 8.176C161.414 7.95067 161.089 7.838 160.664 7.838C160.326 7.838 160.001 7.89433 159.689 8.007C159.386 8.111 159.096 8.23233 158.818 8.371L158.467 7.513C158.762 7.34833 159.104 7.20967 159.494 7.097C159.884 6.97567 160.296 6.915 160.729 6.915ZM161.041 10.633C160.244 10.6677 159.689 10.8063 159.377 11.049C159.074 11.2917 158.922 11.634 158.922 12.076C158.922 12.466 159.031 12.752 159.247 12.934C159.464 13.116 159.746 13.207 160.092 13.207C160.63 13.207 161.08 13.0467 161.444 12.726C161.808 12.3967 161.99 11.894 161.99 11.218V10.594L161.041 10.633Z" fill="#090F24"/>
<path d="M191.814 9.346C191.814 10.0653 191.727 10.7197 191.554 11.309C191.381 11.8897 191.125 12.3923 190.787 12.817C190.449 13.2417 190.029 13.5667 189.526 13.792C189.023 14.0173 188.443 14.13 187.784 14.13C187.099 14.13 186.501 14.0173 185.99 13.792C185.487 13.558 185.067 13.233 184.729 12.817C184.4 12.3923 184.153 11.8853 183.988 11.296C183.823 10.7067 183.741 10.0523 183.741 9.333C183.741 8.37967 183.888 7.54767 184.183 6.837C184.478 6.12633 184.924 5.57167 185.522 5.173C186.129 4.77433 186.887 4.575 187.797 4.575C188.672 4.575 189.409 4.77433 190.007 5.173C190.605 5.563 191.056 6.11767 191.359 6.837C191.662 7.54767 191.814 8.384 191.814 9.346ZM184.963 9.346C184.963 10.126 185.063 10.7977 185.262 11.361C185.461 11.9243 185.769 12.3577 186.185 12.661C186.61 12.9643 187.143 13.116 187.784 13.116C188.434 13.116 188.967 12.9643 189.383 12.661C189.799 12.3577 190.102 11.9243 190.293 11.361C190.492 10.7977 190.592 10.126 190.592 9.346C190.592 8.176 190.367 7.26167 189.916 6.603C189.474 5.93567 188.768 5.602 187.797 5.602C187.147 5.602 186.61 5.75367 186.185 6.057C185.769 6.35167 185.461 6.78067 185.262 7.344C185.063 7.89867 184.963 8.566 184.963 9.346ZM198.189 7.994H196.044V14H194.926V7.994H192.807V7.032H198.189V7.994ZM201.258 6.902C201.752 6.902 202.181 6.97567 202.545 7.123C202.918 7.26167 203.208 7.46967 203.416 7.747C203.624 8.01567 203.728 8.345 203.728 8.735C203.728 9.15967 203.616 9.49767 203.39 9.749C203.174 9.99167 202.875 10.1693 202.493 10.282V10.334C202.753 10.412 202.992 10.5203 203.208 10.659C203.434 10.7977 203.611 10.9797 203.741 11.205C203.88 11.4303 203.949 11.7207 203.949 12.076C203.949 12.4573 203.85 12.804 203.65 13.116C203.451 13.428 203.139 13.675 202.714 13.857C202.298 14.039 201.765 14.13 201.115 14.13C200.803 14.13 200.504 14.1127 200.218 14.078C199.941 14.0433 199.685 13.9913 199.451 13.922C199.226 13.8527 199.027 13.7703 198.853 13.675V12.648C199.131 12.7867 199.46 12.9123 199.841 13.025C200.223 13.1377 200.639 13.194 201.089 13.194C201.419 13.194 201.713 13.155 201.973 13.077C202.233 12.999 202.441 12.8777 202.597 12.713C202.753 12.5397 202.831 12.3057 202.831 12.011C202.831 11.7423 202.762 11.5257 202.623 11.361C202.485 11.1877 202.277 11.0577 201.999 10.971C201.731 10.8843 201.384 10.841 200.959 10.841H200.101V9.905H200.803C201.367 9.905 201.817 9.827 202.155 9.671C202.493 9.50633 202.662 9.229 202.662 8.839C202.662 8.50967 202.532 8.26267 202.272 8.098C202.021 7.93333 201.657 7.851 201.18 7.851C200.825 7.851 200.504 7.89 200.218 7.968C199.941 8.03733 199.642 8.14567 199.321 8.293L198.918 7.383C199.274 7.21833 199.646 7.097 200.036 7.019C200.426 6.941 200.834 6.902 201.258 6.902ZM205.52 14V7.032H206.651V9.892H208.289C208.87 9.892 209.346 9.96567 209.719 10.113C210.092 10.2603 210.369 10.4813 210.551 10.776C210.733 11.062 210.824 11.426 210.824 11.868C210.824 12.3013 210.733 12.6783 210.551 12.999C210.378 13.3197 210.1 13.5667 209.719 13.74C209.346 13.9133 208.857 14 208.25 14H205.52ZM208.146 13.077C208.605 13.077 208.978 12.9947 209.264 12.83C209.55 12.6567 209.693 12.3577 209.693 11.933C209.693 11.5083 209.559 11.2223 209.29 11.075C209.03 10.919 208.653 10.841 208.159 10.841H206.651V13.077H208.146ZM211.903 14V7.032H213.034V14H211.903ZM220.409 8.787C220.409 9.22033 220.288 9.55833 220.045 9.801C219.803 10.0437 219.486 10.2083 219.096 10.295V10.347C219.504 10.4077 219.859 10.5637 220.162 10.815C220.466 11.0577 220.617 11.439 220.617 11.959C220.617 12.2537 220.565 12.5267 220.461 12.778C220.366 13.0293 220.21 13.246 219.993 13.428C219.777 13.61 219.499 13.753 219.161 13.857C218.823 13.9523 218.416 14 217.939 14H215.092V7.032H217.926C218.403 7.032 218.828 7.08833 219.2 7.201C219.573 7.305 219.868 7.487 220.084 7.747C220.301 7.99833 220.409 8.345 220.409 8.787ZM219.447 11.959C219.447 11.5603 219.304 11.2743 219.018 11.101C218.741 10.9277 218.334 10.841 217.796 10.841H216.223V13.077H217.822C218.342 13.077 218.741 12.9947 219.018 12.83C219.304 12.6567 219.447 12.3663 219.447 11.959ZM219.265 8.93C219.265 8.60067 219.153 8.36233 218.927 8.215C218.711 8.059 218.36 7.981 217.874 7.981H216.223V9.892H217.666C218.195 9.892 218.594 9.814 218.862 9.658C219.131 9.502 219.265 9.25933 219.265 8.93ZM222.176 14V7.032H223.307V9.892H224.945C225.526 9.892 226.003 9.96567 226.375 10.113C226.748 10.2603 227.025 10.4813 227.207 10.776C227.389 11.062 227.48 11.426 227.48 11.868C227.48 12.3013 227.389 12.6783 227.207 12.999C227.034 13.3197 226.757 13.5667 226.375 13.74C226.003 13.9133 225.513 14 224.906 14H222.176ZM224.802 13.077C225.262 13.077 225.634 12.9947 225.92 12.83C226.206 12.6567 226.349 12.3577 226.349 11.933C226.349 11.5083 226.215 11.2223 225.946 11.075C225.686 10.919 225.309 10.841 224.815 10.841H223.307V13.077H224.802ZM228.559 14V7.032H229.69V14H228.559Z" fill="#090F24"/>
<path d="M251.34 14H250.183V4.718H255.071V5.745H251.34V9.034H254.837V10.061H251.34V14ZM261.775 14L260.761 11.127H257.316L256.315 14H255.132L258.512 4.679H259.604L262.971 14H261.775ZM259.461 7.279C259.444 7.20967 259.405 7.084 259.344 6.902C259.292 6.72 259.236 6.53367 259.175 6.343C259.123 6.14367 259.08 5.992 259.045 5.888C259.002 6.06133 258.954 6.239 258.902 6.421C258.859 6.59433 258.815 6.75467 258.772 6.902C258.729 7.04933 258.69 7.175 258.655 7.279L257.693 10.087H260.423L259.461 7.279ZM271.55 9.346C271.55 10.1 271.455 10.7847 271.264 11.4C271.074 12.0153 270.792 12.5353 270.419 12.96C270.055 13.3847 269.596 13.6967 269.041 13.896L271.134 16.21H269.496L267.806 14.117C267.763 14.117 267.715 14.117 267.663 14.117C267.611 14.1257 267.564 14.13 267.52 14.13C266.836 14.13 266.238 14.0173 265.726 13.792C265.224 13.558 264.803 13.233 264.465 12.817C264.136 12.3923 263.889 11.8853 263.724 11.296C263.56 10.7067 263.477 10.0523 263.477 9.333C263.477 8.37967 263.625 7.54767 263.919 6.837C264.214 6.12633 264.66 5.57167 265.258 5.173C265.865 4.77433 266.623 4.575 267.533 4.575C268.409 4.575 269.145 4.77433 269.743 5.173C270.341 5.563 270.792 6.11767 271.095 6.837C271.399 7.54767 271.55 8.384 271.55 9.346ZM264.699 9.346C264.699 10.126 264.799 10.7977 264.998 11.361C265.198 11.9243 265.505 12.3577 265.921 12.661C266.346 12.9643 266.879 13.116 267.52 13.116C268.17 13.116 268.703 12.9643 269.119 12.661C269.535 12.3577 269.839 11.9243 270.029 11.361C270.229 10.7977 270.328 10.126 270.328 9.346C270.328 8.176 270.103 7.26167 269.652 6.603C269.21 5.93567 268.504 5.602 267.533 5.602C266.883 5.602 266.346 5.75367 265.921 6.057C265.505 6.35167 265.198 6.78067 264.998 7.344C264.799 7.89867 264.699 8.566 264.699 9.346Z" fill="#090F24"/>
<path d="M292.183 14V4.718H297.396V5.745H293.34V8.644H294.588C295.463 8.644 296.139 8.761 296.616 8.995C297.101 9.22033 297.439 9.53233 297.63 9.931C297.829 10.321 297.929 10.7717 297.929 11.283C297.929 11.8463 297.821 12.3317 297.604 12.739C297.396 13.1463 297.058 13.4583 296.59 13.675C296.122 13.8917 295.502 14 294.731 14H292.183ZM294.627 12.999C295.398 12.999 295.94 12.8603 296.252 12.583C296.573 12.297 296.733 11.8637 296.733 11.283C296.733 10.8843 296.655 10.568 296.499 10.334C296.352 10.0913 296.109 9.918 295.771 9.814C295.433 9.71 294.991 9.658 294.445 9.658H293.34V12.999H294.627ZM304.651 14H303.507V7.981H301.596C301.518 9.08167 301.414 10.022 301.284 10.802C301.162 11.5733 301.006 12.2017 300.816 12.687C300.634 13.1723 300.413 13.5277 300.153 13.753C299.893 13.9783 299.585 14.091 299.23 14.091C299.117 14.091 299.004 14.0823 298.892 14.065C298.788 14.0563 298.701 14.0347 298.632 14V13.142C298.684 13.1593 298.74 13.1723 298.801 13.181C298.861 13.1897 298.922 13.194 298.983 13.194C299.156 13.194 299.312 13.116 299.451 12.96C299.598 12.804 299.728 12.5657 299.841 12.245C299.962 11.9243 300.07 11.5213 300.166 11.036C300.261 10.542 300.343 9.96133 300.413 9.294C300.491 8.62667 300.56 7.87267 300.621 7.032H304.651V14ZM312.436 10.503C312.436 11.0837 312.362 11.5993 312.215 12.05C312.076 12.492 311.872 12.869 311.604 13.181C311.335 13.493 311.01 13.7313 310.629 13.896C310.247 14.052 309.823 14.13 309.355 14.13C308.921 14.13 308.518 14.052 308.146 13.896C307.782 13.7313 307.461 13.493 307.184 13.181C306.915 12.869 306.707 12.492 306.56 12.05C306.412 11.5993 306.339 11.0837 306.339 10.503C306.339 9.73167 306.46 9.08167 306.703 8.553C306.954 8.01567 307.309 7.60833 307.769 7.331C308.228 7.045 308.77 6.902 309.394 6.902C309.992 6.902 310.516 7.045 310.967 7.331C311.426 7.60833 311.786 8.01567 312.046 8.553C312.306 9.08167 312.436 9.73167 312.436 10.503ZM307.509 10.503C307.509 11.049 307.574 11.5257 307.704 11.933C307.834 12.3317 308.037 12.6393 308.315 12.856C308.592 13.0727 308.947 13.181 309.381 13.181C309.814 13.181 310.169 13.0727 310.447 12.856C310.724 12.6393 310.928 12.3317 311.058 11.933C311.196 11.5257 311.266 11.049 311.266 10.503C311.266 9.94833 311.196 9.476 311.058 9.086C310.928 8.696 310.724 8.397 310.447 8.189C310.169 7.97233 309.81 7.864 309.368 7.864C308.718 7.864 308.245 8.098 307.951 8.566C307.656 9.034 307.509 9.67967 307.509 10.503ZM318.16 7.032V7.994H315.248V14H314.117V7.032H318.16Z" fill="#090F24"/>
<path d="M344.605 14H343.227L339.34 9.294V14H338.183V4.718H339.34V9.216L343.136 4.718H344.436L340.692 9.229L344.605 14ZM351.364 10.503C351.364 11.0837 351.291 11.5993 351.143 12.05C351.005 12.492 350.801 12.869 350.532 13.181C350.264 13.493 349.939 13.7313 349.557 13.896C349.176 14.052 348.751 14.13 348.283 14.13C347.85 14.13 347.447 14.052 347.074 13.896C346.71 13.7313 346.39 13.493 346.112 13.181C345.844 12.869 345.636 12.492 345.488 12.05C345.341 11.5993 345.267 11.0837 345.267 10.503C345.267 9.73167 345.389 9.08167 345.631 8.553C345.883 8.01567 346.238 7.60833 346.697 7.331C347.157 7.045 347.698 6.902 348.322 6.902C348.92 6.902 349.445 7.045 349.895 7.331C350.355 7.60833 350.714 8.01567 350.974 8.553C351.234 9.08167 351.364 9.73167 351.364 10.503ZM346.437 10.503C346.437 11.049 346.502 11.5257 346.632 11.933C346.762 12.3317 346.966 12.6393 347.243 12.856C347.521 13.0727 347.876 13.181 348.309 13.181C348.743 13.181 349.098 13.0727 349.375 12.856C349.653 12.6393 349.856 12.3317 349.986 11.933C350.125 11.5257 350.194 11.049 350.194 10.503C350.194 9.94833 350.125 9.476 349.986 9.086C349.856 8.696 349.653 8.397 349.375 8.189C349.098 7.97233 348.738 7.864 348.296 7.864C347.646 7.864 347.174 8.098 346.879 8.566C346.585 9.034 346.437 9.67967 346.437 10.503ZM354.177 7.032V9.931H357.661V7.032H358.792V14H357.661V10.893H354.177V14H353.046V7.032H354.177ZM365.442 7.994H363.297V14H362.179V7.994H360.06V7.032H365.442V7.994ZM369.24 6.915C370.037 6.915 370.631 7.10133 371.021 7.474C371.42 7.84667 371.619 8.44033 371.619 9.255V14H370.8L370.579 13.012H370.527C370.336 13.2633 370.141 13.4757 369.942 13.649C369.751 13.8137 369.526 13.935 369.266 14.013C369.015 14.091 368.703 14.13 368.33 14.13C367.94 14.13 367.589 14.0563 367.277 13.909C366.965 13.7617 366.718 13.5363 366.536 13.233C366.354 12.921 366.263 12.531 366.263 12.063C366.263 11.3697 366.519 10.8367 367.03 10.464C367.541 10.0827 368.33 9.87467 369.396 9.84L370.501 9.801V9.385C370.501 8.80433 370.384 8.40133 370.15 8.176C369.925 7.95067 369.6 7.838 369.175 7.838C368.837 7.838 368.512 7.89433 368.2 8.007C367.897 8.111 367.606 8.23233 367.329 8.371L366.978 7.513C367.273 7.34833 367.615 7.20967 368.005 7.097C368.395 6.97567 368.807 6.915 369.24 6.915ZM369.552 10.633C368.755 10.6677 368.2 10.8063 367.888 11.049C367.585 11.2917 367.433 11.634 367.433 12.076C367.433 12.466 367.541 12.752 367.758 12.934C367.975 13.116 368.256 13.207 368.603 13.207C369.14 13.207 369.591 13.0467 369.955 12.726C370.319 12.3967 370.501 11.894 370.501 11.218V10.594L369.552 10.633ZM377.55 7.032H378.785L376.003 10.386L379.019 14H377.706L374.768 10.464V14H373.637V7.032H374.768V10.412L377.55 7.032ZM384.777 7.994H382.632V14H381.514V7.994H379.395V7.032H384.777V7.994ZM386.066 14V7.032H387.197V9.892H388.835C389.416 9.892 389.892 9.96567 390.265 10.113C390.638 10.2603 390.915 10.4813 391.097 10.776C391.279 11.062 391.37 11.426 391.37 11.868C391.37 12.3013 391.279 12.6783 391.097 12.999C390.924 13.3197 390.646 13.5667 390.265 13.74C389.892 13.9133 389.403 14 388.796 14H386.066ZM388.692 13.077C389.151 13.077 389.524 12.9947 389.81 12.83C390.096 12.6567 390.239 12.3577 390.239 11.933C390.239 11.5083 390.105 11.2223 389.836 11.075C389.576 10.919 389.199 10.841 388.705 10.841H387.197V13.077H388.692ZM392.449 14V7.032H393.58V14H392.449Z" fill="#090F24"/>
</svg>
