<svg width="162" height="40" viewBox="0 0 162 40" fill="none" xmlns="http://www.w3.org/2000/svg">
<mask id="mask0_1_434" style="mask-type:alpha" maskUnits="userSpaceOnUse" x="0" y="5" width="34" height="35">
<circle cx="17" cy="22.051" r="17" fill="#E4E7EE"/>
</mask>
<g mask="url(#mask0_1_434)">
<circle cx="17" cy="21.8348" r="17" fill="#74CCD8"/>
<path d="M12.7582 29.213C12.4342 29.213 12.1942 29.159 12.0382 29.051C11.8942 28.955 11.7982 28.823 11.7502 28.655C11.7142 28.487 11.6962 28.307 11.6962 28.115V17.675C11.6962 17.495 11.7202 17.327 11.7682 17.171C11.8162 17.015 11.9182 16.889 12.0742 16.793C12.2422 16.697 12.4882 16.649 12.8122 16.649C13.1722 16.649 13.4182 16.691 13.5502 16.775C13.6942 16.847 13.8262 16.955 13.9462 17.099L19.9582 25.505V17.675C19.9582 17.495 19.9822 17.327 20.0302 17.171C20.0782 17.015 20.1802 16.889 20.3362 16.793C20.4922 16.697 20.7322 16.649 21.0562 16.649C21.3922 16.649 21.6322 16.703 21.7762 16.811C21.9322 16.907 22.0282 17.039 22.0642 17.207C22.1122 17.375 22.1362 17.561 22.1362 17.765V28.133C22.1362 28.325 22.1062 28.505 22.0462 28.673C21.9982 28.829 21.8902 28.955 21.7222 29.051C21.5662 29.159 21.3202 29.213 20.9842 29.213C20.7202 29.213 20.5102 29.189 20.3542 29.141C20.2102 29.093 20.0782 28.991 19.9582 28.835L13.8562 20.447V28.133C13.8562 28.325 13.8322 28.505 13.7842 28.673C13.7482 28.829 13.6522 28.955 13.4962 29.051C13.3402 29.159 13.0942 29.213 12.7582 29.213Z" fill="white"/>
</g>
<path d="M70.6445 13.051H70.6523C72.5572 13.0361 74.3386 13.9943 75.376 15.592L76.21 16.8772L77.0508 15.5969C78.0967 14.0046 79.8752 13.0471 81.7803 13.051C84.7966 13.0659 87.2561 15.4317 87.4209 18.4104L87.4297 18.7014C87.4281 20.0781 86.7961 21.5432 85.7139 23.0237C84.6375 24.4961 83.1802 25.8952 81.6885 27.1164C80.2017 28.3336 78.7097 29.3501 77.5869 30.0637C77.0265 30.4199 76.5608 30.6996 76.2363 30.8889C76.2305 30.8923 76.2244 30.8953 76.2188 30.8987C76.2122 30.8948 76.2049 30.8909 76.1982 30.8869C75.8736 30.6951 75.4071 30.4129 74.8467 30.0529C73.7233 29.3315 72.2308 28.305 70.7432 27.0813C69.2505 25.8533 67.792 24.4499 66.7148 22.9807C65.6298 21.5006 65.0001 20.0472 65 18.6965C65 15.5791 67.5271 13.0512 70.6445 13.051Z" stroke="#B7B8C5" stroke-width="2"/>
<path d="M146.655 13.6303C146.457 14.4021 146.243 15.1665 146.052 15.9383C145.2 19.3342 144.354 22.7374 143.502 26.1332C143.487 26.2067 143.458 26.2729 143.436 26.3537C138.555 26.3537 133.682 26.3537 128.757 26.3537C128.977 27.2284 129.183 28.0737 129.404 28.9558C129.514 28.9558 129.624 28.9558 129.727 28.9558C133.329 28.9558 136.931 28.9558 140.532 28.9558C142.061 28.9558 143.274 29.926 143.59 31.3814C143.95 33.0352 142.826 34.6964 141.135 34.9978C139.481 35.2918 137.857 34.1304 137.607 32.4839C137.519 31.918 137.599 31.374 137.798 30.8154C135.556 30.8154 133.336 30.8154 131.08 30.8154C131.469 31.9327 131.359 32.9838 130.609 33.9246C130.139 34.5126 129.514 34.8728 128.772 35.0051C127.28 35.2697 125.824 34.3656 125.346 32.9103C124.942 31.6828 125.383 29.6982 127.515 29.0219C126.008 22.9946 124.501 16.9673 122.994 10.9253C121.458 10.9253 119.944 10.9253 118.43 10.9253C118.43 10.3006 118.43 9.67578 118.43 9.05099C118.54 9.05835 118.65 9.07305 118.76 9.07305C120.569 9.07305 122.377 9.0804 124.185 9.0657C124.376 9.0657 124.457 9.1245 124.501 9.30826C124.604 9.76398 124.722 10.2197 124.832 10.6681C125.067 11.6089 125.302 12.5498 125.545 13.5053C132.586 13.5053 139.621 13.5053 146.655 13.5053C146.655 13.5568 146.655 13.5935 146.655 13.6303ZM126.045 15.3576C126.045 15.4238 126.03 15.4532 126.037 15.4752C126.317 16.6072 126.596 17.7318 126.883 18.8564C126.897 18.9225 127.037 19.0034 127.118 19.0034C127.698 19.0181 128.272 19.0107 128.853 19.0107C129.117 19.0107 129.382 19.0107 129.661 19.0107C129.514 17.8126 129.374 16.6439 129.22 15.4826C129.213 15.4311 129.11 15.3576 129.058 15.3576C128.059 15.3576 127.059 15.3576 126.045 15.3576ZM136.107 15.3723C136.107 16.5925 136.107 17.7906 136.107 19.0034C137.019 19.0034 137.915 19.0034 138.827 19.0034C138.981 17.7906 139.128 16.5925 139.283 15.3723C138.21 15.3723 137.173 15.3723 136.107 15.3723ZM131.102 15.3797C131.087 15.4164 131.08 15.4311 131.08 15.4458C131.219 16.5851 131.359 17.7244 131.506 18.8637C131.513 18.9225 131.646 19.0181 131.726 19.0181C132.27 19.0328 132.807 19.0254 133.351 19.0254C133.645 19.0254 133.932 19.0254 134.233 19.0254C134.233 17.7906 134.233 16.5925 134.233 15.3797C133.182 15.3797 132.138 15.3797 131.102 15.3797ZM140.679 19.0181C141.576 19.0181 142.414 19.0254 143.259 19.0107C143.318 19.0107 143.414 18.8784 143.436 18.7976C143.583 18.2389 143.715 17.6803 143.855 17.1217C143.994 16.5484 144.141 15.975 144.288 15.3797C143.222 15.3797 142.186 15.3797 141.135 15.3797C140.988 16.5778 140.834 17.7759 140.679 19.0181ZM130.352 24.5088C130.198 23.2666 130.043 22.0685 129.896 20.8704C129.051 20.8704 128.235 20.8704 127.382 20.8704C127.676 22.0538 127.963 23.2151 128.264 24.3838C128.279 24.4427 128.375 24.5088 128.441 24.5088C129.058 24.5162 129.683 24.5088 130.352 24.5088ZM136.093 20.8704C136.093 22.0538 136.093 23.2078 136.1 24.3618C136.1 24.4132 136.21 24.5015 136.269 24.5015C136.835 24.5088 137.408 24.5088 137.974 24.5015C138.033 24.5015 138.143 24.4132 138.151 24.3544C138.305 23.2004 138.445 22.0464 138.592 20.8704C137.761 20.8704 136.945 20.8704 136.093 20.8704ZM131.756 20.863C131.91 22.0979 132.065 23.296 132.212 24.4868C132.91 24.4868 133.579 24.4868 134.233 24.4868C134.233 23.2666 134.233 22.0685 134.233 20.863C133.41 20.863 132.601 20.863 131.756 20.863ZM140.451 20.863C140.297 22.0832 140.15 23.2813 139.996 24.5088C140.613 24.5088 141.201 24.5015 141.782 24.5162C141.973 24.5235 142.032 24.4427 142.068 24.2736C142.304 23.296 142.554 22.3184 142.796 21.3408C142.833 21.1864 142.87 21.0321 142.906 20.863C142.076 20.863 141.282 20.863 140.451 20.863ZM129.463 32.0062C129.463 31.3373 128.926 30.8007 128.257 30.8007C127.588 30.8007 127.052 31.352 127.059 32.0135C127.066 32.6677 127.596 33.1969 128.25 33.2043C128.919 33.2043 129.455 32.6751 129.463 32.0062ZM141.811 32.0135C141.811 31.3446 141.282 30.8007 140.613 30.8007C139.944 30.8007 139.408 31.3373 139.408 32.0062C139.408 32.6677 139.937 33.1969 140.591 33.2043C141.267 33.2043 141.804 32.6824 141.811 32.0135Z" fill="#B7B8C5"/>
<g filter="url(#filter0_d_1_434)">
<circle cx="147.155" cy="12.5255" r="10.5255" fill="url(#paint0_linear_1_434)"/>
<path d="M148.14 9.25277V16.5255H147.26V10.1761H147.217L145.442 11.355V10.4602L147.26 9.25277H148.14Z" fill="white"/>
</g>
<g filter="url(#filter1_d_1_434)">
<circle cx="91.284" cy="12.5255" r="10.5255" fill="url(#paint1_linear_1_434)"/>
<path d="M89.2422 9.25277V16.5255H88.3615V10.1761H88.3189L86.5433 11.355V10.4602L88.3615 9.25277H89.2422ZM91.3338 16.5255V15.8863L93.7343 13.2585C94.0161 12.9507 94.2481 12.6832 94.4304 12.4559C94.6127 12.2263 94.7476 12.0108 94.8352 11.8096C94.9252 11.606 94.9701 11.3929 94.9701 11.1704C94.9701 10.9147 94.9086 10.6933 94.7855 10.5063C94.6647 10.3193 94.499 10.1749 94.2883 10.0731C94.0776 9.97128 93.8409 9.92038 93.5781 9.92038C93.2987 9.92038 93.0549 9.97839 92.8466 10.0944C92.6406 10.208 92.4808 10.3678 92.3672 10.5738C92.2559 10.7798 92.2003 11.0212 92.2003 11.2982H91.3622C91.3622 10.8721 91.4604 10.498 91.6569 10.1761C91.8534 9.8541 92.1209 9.60315 92.4595 9.42322C92.8004 9.2433 93.1827 9.15334 93.6065 9.15334C94.0326 9.15334 94.4102 9.2433 94.7393 9.42322C95.0684 9.60315 95.3264 9.84581 95.5135 10.1512C95.7005 10.4566 95.794 10.7963 95.794 11.1704C95.794 11.4379 95.7455 11.6995 95.6484 11.9552C95.5537 12.2085 95.388 12.4914 95.1512 12.8039C94.9169 13.114 94.5913 13.4928 94.1747 13.9403L92.5412 15.6874V15.7442H95.9218V16.5255H91.3338Z" fill="white"/>
</g>
<defs>
<filter id="filter0_d_1_434" x="132.63" y="0" width="29.051" height="29.051" filterUnits="userSpaceOnUse" color-interpolation-filters="sRGB">
<feFlood flood-opacity="0" result="BackgroundImageFix"/>
<feColorMatrix in="SourceAlpha" type="matrix" values="0 0 0 0 0 0 0 0 0 0 0 0 0 0 0 0 0 0 127 0" result="hardAlpha"/>
<feOffset dy="2"/>
<feGaussianBlur stdDeviation="2"/>
<feComposite in2="hardAlpha" operator="out"/>
<feColorMatrix type="matrix" values="0 0 0 0 0.929412 0 0 0 0 0.607843 0 0 0 0 0.756863 0 0 0 0.2 0"/>
<feBlend mode="normal" in2="BackgroundImageFix" result="effect1_dropShadow_1_434"/>
<feBlend mode="normal" in="SourceGraphic" in2="effect1_dropShadow_1_434" result="shape"/>
</filter>
<filter id="filter1_d_1_434" x="76.7585" y="0" width="29.051" height="29.051" filterUnits="userSpaceOnUse" color-interpolation-filters="sRGB">
<feFlood flood-opacity="0" result="BackgroundImageFix"/>
<feColorMatrix in="SourceAlpha" type="matrix" values="0 0 0 0 0 0 0 0 0 0 0 0 0 0 0 0 0 0 127 0" result="hardAlpha"/>
<feOffset dy="2"/>
<feGaussianBlur stdDeviation="2"/>
<feComposite in2="hardAlpha" operator="out"/>
<feColorMatrix type="matrix" values="0 0 0 0 0.929412 0 0 0 0 0.607843 0 0 0 0 0.756863 0 0 0 0.2 0"/>
<feBlend mode="normal" in2="BackgroundImageFix" result="effect1_dropShadow_1_434"/>
<feBlend mode="normal" in="SourceGraphic" in2="effect1_dropShadow_1_434" result="shape"/>
</filter>
<linearGradient id="paint0_linear_1_434" x1="147.155" y1="2" x2="147.155" y2="23.051" gradientUnits="userSpaceOnUse">
<stop stop-color="#ED9BC1"/>
<stop offset="1" stop-color="#ED9BB9"/>
</linearGradient>
<linearGradient id="paint1_linear_1_434" x1="91.284" y1="2" x2="91.284" y2="23.051" gradientUnits="userSpaceOnUse">
<stop stop-color="#ED9BC1"/>
<stop offset="1" stop-color="#ED9BB9"/>
</linearGradient>
</defs>
</svg>
