<svg width="1280" height="70" viewBox="0 0 1280 70" fill="none" xmlns="http://www.w3.org/2000/svg">
<rect x="-0.5" y="0.5" width="1281" height="69" fill="#F4F5F9" stroke="#E4E7EE"/>
<rect x="82.5" y="0.503948" width="355" height="68.9921" fill="#F4F5F9" stroke="#E4E7EE"/>
<mask id="mask0_1_431" style="mask-type:alpha" maskUnits="userSpaceOnUse" x="1040" y="18" width="35" height="34">
<circle cx="1057.32" cy="35" r="17" fill="#E4E7EE"/>
</mask>
<g mask="url(#mask0_1_431)">
<circle cx="1057.32" cy="34.7838" r="17" fill="#74CCD8"/>
<path d="M1053.08 42.162C1052.75 42.162 1052.51 42.108 1052.36 42C1052.21 41.904 1052.12 41.772 1052.07 41.604C1052.03 41.436 1052.02 41.256 1052.02 41.064V30.624C1052.02 30.444 1052.04 30.276 1052.09 30.12C1052.14 29.964 1052.24 29.838 1052.39 29.742C1052.56 29.646 1052.81 29.598 1053.13 29.598C1053.49 29.598 1053.74 29.64 1053.87 29.724C1054.01 29.796 1054.15 29.904 1054.27 30.048L1060.28 38.454V30.624C1060.28 30.444 1060.3 30.276 1060.35 30.12C1060.4 29.964 1060.5 29.838 1060.66 29.742C1060.81 29.646 1061.05 29.598 1061.38 29.598C1061.71 29.598 1061.95 29.652 1062.1 29.76C1062.25 29.856 1062.35 29.988 1062.38 30.156C1062.43 30.324 1062.46 30.51 1062.46 30.714V41.082C1062.46 41.274 1062.43 41.454 1062.37 41.622C1062.32 41.778 1062.21 41.904 1062.04 42C1061.89 42.108 1061.64 42.162 1061.3 42.162C1061.04 42.162 1060.83 42.138 1060.67 42.09C1060.53 42.042 1060.4 41.94 1060.28 41.784L1054.18 33.396V41.082C1054.18 41.274 1054.15 41.454 1054.1 41.622C1054.07 41.778 1053.97 41.904 1053.82 42C1053.66 42.108 1053.41 42.162 1053.08 42.162Z" fill="white"/>
</g>
<path d="M1110.96 26H1110.97C1112.88 25.9851 1114.66 26.9433 1115.7 28.541L1116.53 29.8262L1117.37 28.5459C1118.42 26.9536 1120.19 25.9961 1122.1 26C1125.12 26.0149 1127.58 28.3807 1127.74 31.3594L1127.75 31.6504C1127.75 33.0271 1127.12 34.4922 1126.03 35.9727C1124.96 37.4451 1123.5 38.8442 1122.01 40.0654C1120.52 41.2826 1119.03 42.2991 1117.91 43.0127C1117.35 43.3689 1116.88 43.6486 1116.56 43.8379C1116.55 43.8413 1116.54 43.8443 1116.54 43.8477C1116.53 43.8438 1116.52 43.8399 1116.52 43.8359C1116.19 43.6441 1115.73 43.3619 1115.17 43.002C1114.04 42.2805 1112.55 41.254 1111.06 40.0303C1109.57 38.8023 1108.11 37.3989 1107.03 35.9297C1105.95 34.4496 1105.32 32.9962 1105.32 31.6455C1105.32 28.5281 1107.85 26.0002 1110.96 26Z" stroke="#B7B8C5" stroke-width="2"/>
<path d="M1186.97 26.5793C1186.78 27.3511 1186.56 28.1155 1186.37 28.8873C1185.52 32.2832 1184.67 35.6864 1183.82 39.0822C1183.81 39.1557 1183.78 39.2219 1183.75 39.3027C1178.87 39.3027 1174 39.3027 1169.08 39.3027C1169.3 40.1774 1169.5 41.0227 1169.72 41.9048C1169.83 41.9048 1169.94 41.9048 1170.05 41.9048C1173.65 41.9048 1177.25 41.9048 1180.85 41.9048C1182.38 41.9048 1183.59 42.875 1183.91 44.3304C1184.27 45.9842 1183.14 47.6454 1181.45 47.9468C1179.8 48.2408 1178.18 47.0794 1177.93 45.433C1177.84 44.867 1177.92 44.323 1178.12 43.7644C1175.88 43.7644 1173.66 43.7644 1171.4 43.7644C1171.79 44.8817 1171.68 45.9328 1170.93 46.8736C1170.46 47.4617 1169.83 47.8218 1169.09 47.9541C1167.6 48.2187 1166.14 47.3146 1165.67 45.8593C1165.26 44.6318 1165.7 42.6472 1167.83 41.9709C1166.33 35.9436 1164.82 29.9163 1163.31 23.8743C1161.78 23.8743 1160.26 23.8743 1158.75 23.8743C1158.75 23.2496 1158.75 22.6248 1158.75 22C1158.86 22.0074 1158.97 22.0221 1159.08 22.0221C1160.89 22.0221 1162.7 22.0294 1164.5 22.0147C1164.7 22.0147 1164.78 22.0735 1164.82 22.2573C1164.92 22.713 1165.04 23.1687 1165.15 23.6171C1165.39 24.5579 1165.62 25.4988 1165.86 26.4543C1172.91 26.4543 1179.94 26.4543 1186.97 26.4543C1186.97 26.5058 1186.97 26.5425 1186.97 26.5793ZM1166.36 28.3066C1166.36 28.3728 1166.35 28.4022 1166.36 28.4242C1166.64 29.5562 1166.92 30.6808 1167.2 31.8054C1167.22 31.8715 1167.36 31.9524 1167.44 31.9524C1168.02 31.9671 1168.59 31.9597 1169.17 31.9597C1169.44 31.9597 1169.7 31.9597 1169.98 31.9597C1169.83 30.7616 1169.69 29.5929 1169.54 28.4316C1169.53 28.3801 1169.43 28.3066 1169.38 28.3066C1168.38 28.3066 1167.38 28.3066 1166.36 28.3066ZM1176.43 28.3213C1176.43 29.5415 1176.43 30.7396 1176.43 31.9524C1177.34 31.9524 1178.23 31.9524 1179.15 31.9524C1179.3 30.7396 1179.45 29.5415 1179.6 28.3213C1178.53 28.3213 1177.49 28.3213 1176.43 28.3213ZM1171.42 28.3287C1171.41 28.3654 1171.4 28.3801 1171.4 28.3948C1171.54 29.5341 1171.68 30.6734 1171.83 31.8127C1171.83 31.8715 1171.96 31.9671 1172.05 31.9671C1172.59 31.9818 1173.13 31.9744 1173.67 31.9744C1173.96 31.9744 1174.25 31.9744 1174.55 31.9744C1174.55 30.7396 1174.55 29.5415 1174.55 28.3287C1173.5 28.3287 1172.46 28.3287 1171.42 28.3287ZM1181 31.9671C1181.9 31.9671 1182.73 31.9744 1183.58 31.9597C1183.64 31.9597 1183.73 31.8274 1183.75 31.7466C1183.9 31.188 1184.03 30.6293 1184.17 30.0707C1184.31 29.4974 1184.46 28.924 1184.61 28.3287C1183.54 28.3287 1182.51 28.3287 1181.45 28.3287C1181.31 29.5268 1181.15 30.7249 1181 31.9671ZM1170.67 37.4578C1170.52 36.2156 1170.36 35.0175 1170.22 33.8194C1169.37 33.8194 1168.55 33.8194 1167.7 33.8194C1168 35.0028 1168.28 36.1641 1168.58 37.3329C1168.6 37.3917 1168.69 37.4578 1168.76 37.4578C1169.38 37.4652 1170 37.4578 1170.67 37.4578ZM1176.41 33.8194C1176.41 35.0028 1176.41 36.1568 1176.42 37.3108C1176.42 37.3623 1176.53 37.4505 1176.59 37.4505C1177.15 37.4578 1177.73 37.4578 1178.29 37.4505C1178.35 37.4505 1178.46 37.3623 1178.47 37.3035C1178.62 36.1494 1178.76 34.9954 1178.91 33.8194C1178.08 33.8194 1177.26 33.8194 1176.41 33.8194ZM1172.08 33.812C1172.23 35.0469 1172.38 36.245 1172.53 37.4358C1173.23 37.4358 1173.9 37.4358 1174.55 37.4358C1174.55 36.2156 1174.55 35.0175 1174.55 33.812C1173.73 33.812 1172.92 33.812 1172.08 33.812ZM1180.77 33.812C1180.62 35.0322 1180.47 36.2303 1180.31 37.4578C1180.93 37.4578 1181.52 37.4505 1182.1 37.4652C1182.29 37.4725 1182.35 37.3917 1182.39 37.2226C1182.62 36.245 1182.87 35.2674 1183.12 34.2898C1183.15 34.1354 1183.19 33.9811 1183.23 33.812C1182.4 33.812 1181.6 33.812 1180.77 33.812ZM1169.78 44.9552C1169.78 44.2863 1169.25 43.7497 1168.58 43.7497C1167.91 43.7497 1167.37 44.301 1167.38 44.9625C1167.39 45.6167 1167.91 46.1459 1168.57 46.1533C1169.24 46.1533 1169.77 45.6241 1169.78 44.9552ZM1182.13 44.9625C1182.13 44.2936 1181.6 43.7497 1180.93 43.7497C1180.26 43.7497 1179.73 44.2863 1179.73 44.9552C1179.73 45.6167 1180.26 46.1459 1180.91 46.1533C1181.59 46.1533 1182.12 45.6314 1182.13 44.9625Z" fill="#B7B8C5"/>
<g filter="url(#filter0_d_1_431)">
<circle cx="1187.47" cy="25.4745" r="10.5255" fill="url(#paint0_linear_1_431)"/>
<path d="M1188.46 22.2018V29.4745H1187.58V23.1251H1187.54L1185.76 24.304V23.4092L1187.58 22.2018H1188.46Z" fill="white"/>
</g>
<g filter="url(#filter1_d_1_431)">
<circle cx="1131.6" cy="25.4745" r="10.5255" fill="url(#paint1_linear_1_431)"/>
<path d="M1129.56 22.2018V29.4745H1128.68V23.1251H1128.64L1126.86 24.304V23.4092L1128.68 22.2018H1129.56ZM1131.65 29.4745V28.8353L1134.05 26.2075C1134.34 25.8997 1134.57 25.6322 1134.75 25.4049C1134.93 25.1753 1135.07 24.9598 1135.15 24.7586C1135.24 24.555 1135.29 24.3419 1135.29 24.1194C1135.29 23.8637 1135.23 23.6424 1135.1 23.4553C1134.98 23.2683 1134.82 23.1239 1134.61 23.0221C1134.4 22.9203 1134.16 22.8694 1133.9 22.8694C1133.62 22.8694 1133.37 22.9274 1133.17 23.0434C1132.96 23.157 1132.8 23.3168 1132.69 23.5228C1132.58 23.7288 1132.52 23.9702 1132.52 24.2472H1131.68C1131.68 23.8211 1131.78 23.447 1131.98 23.1251C1132.17 22.8031 1132.44 22.5522 1132.78 22.3722C1133.12 22.1923 1133.5 22.1023 1133.93 22.1023C1134.35 22.1023 1134.73 22.1923 1135.06 22.3722C1135.39 22.5522 1135.65 22.7948 1135.83 23.1002C1136.02 23.4056 1136.11 23.7453 1136.11 24.1194C1136.11 24.3869 1136.06 24.6485 1135.97 24.9042C1135.87 25.1575 1135.71 25.4404 1135.47 25.7529C1135.24 26.063 1134.91 26.4418 1134.49 26.8893L1132.86 28.6364V28.6933H1136.24V29.4745H1131.65Z" fill="white"/>
</g>
<path d="M143.984 41H141.52L137.504 35.208V41H135.36V29.576H137.504V35.112L141.424 29.576H143.776L139.792 35.096L143.984 41ZM151.937 41L151.057 37.976H147.153L146.273 41H143.969L147.809 29.528H150.385L154.241 41H151.937ZM149.633 33.272C149.59 33.1013 149.531 32.8987 149.457 32.664C149.393 32.4187 149.329 32.168 149.265 31.912C149.211 31.656 149.158 31.416 149.105 31.192C149.062 31.448 149.009 31.704 148.945 31.96C148.881 32.2053 148.817 32.44 148.753 32.664C148.699 32.888 148.646 33.0907 148.593 33.272L147.697 36.216H150.545L149.633 33.272ZM158.58 41H156.42V31.304H153.444V29.576H161.54V31.304H158.58V41ZM168.718 41L167.838 37.976H163.934L163.054 41H160.75L164.59 29.528H167.166L171.022 41H168.718ZM166.414 33.272C166.371 33.1013 166.313 32.8987 166.238 32.664C166.174 32.4187 166.11 32.168 166.046 31.912C165.993 31.656 165.939 31.416 165.886 31.192C165.843 31.448 165.79 31.704 165.726 31.96C165.662 32.2053 165.598 32.44 165.534 32.664C165.481 32.888 165.427 33.0907 165.374 33.272L164.478 36.216H167.326L166.414 33.272ZM180.76 41H178.616V31.304H175.896C175.842 31.8373 175.778 32.408 175.704 33.016C175.64 33.6133 175.57 34.216 175.496 34.824C175.421 35.4213 175.341 35.992 175.256 36.536C175.181 37.0693 175.106 37.5387 175.032 37.944C174.904 38.6267 174.728 39.2133 174.504 39.704C174.28 40.184 173.981 40.5467 173.608 40.792C173.245 41.0373 172.77 41.16 172.184 41.16C171.981 41.16 171.789 41.144 171.608 41.112C171.426 41.08 171.261 41.0373 171.112 40.984V39.288C171.24 39.3413 171.368 39.384 171.496 39.416C171.624 39.448 171.757 39.464 171.896 39.464C172.12 39.464 172.301 39.3733 172.44 39.192C172.589 39.0107 172.712 38.744 172.808 38.392C172.914 38.0293 173.016 37.5867 173.112 37.064C173.165 36.7867 173.224 36.4027 173.288 35.912C173.362 35.4213 173.442 34.8453 173.528 34.184C173.624 33.5227 173.72 32.8027 173.816 32.024C173.912 31.2347 174.008 30.4187 174.104 29.576H180.76V41ZM193.149 35.272C193.149 36.1573 193.048 36.9627 192.845 37.688C192.643 38.4027 192.328 39.0213 191.901 39.544C191.485 40.0667 190.957 40.4667 190.317 40.744C189.677 41.0213 188.925 41.16 188.061 41.16C187.187 41.16 186.429 41.0213 185.789 40.744C185.149 40.456 184.621 40.056 184.205 39.544C183.789 39.0213 183.475 38.3973 183.261 37.672C183.059 36.9467 182.957 36.1413 182.957 35.256C182.957 34.072 183.139 33.0427 183.501 32.168C183.875 31.2933 184.44 30.616 185.197 30.136C185.955 29.6453 186.915 29.4 188.077 29.4C189.229 29.4 190.179 29.6453 190.925 30.136C191.672 30.616 192.227 31.2987 192.589 32.184C192.963 33.0587 193.149 34.088 193.149 35.272ZM185.229 35.272C185.229 36.136 185.325 36.8773 185.517 37.496C185.709 38.1147 186.013 38.5893 186.429 38.92C186.856 39.2507 187.4 39.416 188.061 39.416C188.723 39.416 189.261 39.2507 189.677 38.92C190.093 38.5893 190.397 38.1147 190.589 37.496C190.781 36.8773 190.877 36.136 190.877 35.272C190.877 33.9813 190.653 32.968 190.205 32.232C189.768 31.496 189.053 31.128 188.061 31.128C187.4 31.128 186.856 31.2933 186.429 31.624C186.013 31.9547 185.709 32.4293 185.517 33.048C185.325 33.6667 185.229 34.408 185.229 35.272ZM202 29.576V31.304H197.504V41H195.36V29.576H202ZM211.674 41H209.514V31.304H206.538V29.576H214.634V31.304H211.674V41ZM225.649 35.272C225.649 36.1573 225.548 36.9627 225.345 37.688C225.143 38.4027 224.828 39.0213 224.401 39.544C223.985 40.0667 223.457 40.4667 222.817 40.744C222.177 41.0213 221.425 41.16 220.561 41.16C219.687 41.16 218.929 41.0213 218.289 40.744C217.649 40.456 217.121 40.056 216.705 39.544C216.289 39.0213 215.975 38.3973 215.761 37.672C215.559 36.9467 215.457 36.1413 215.457 35.256C215.457 34.072 215.639 33.0427 216.001 32.168C216.375 31.2933 216.94 30.616 217.697 30.136C218.455 29.6453 219.415 29.4 220.577 29.4C221.729 29.4 222.679 29.6453 223.425 30.136C224.172 30.616 224.727 31.2987 225.089 32.184C225.463 33.0587 225.649 34.088 225.649 35.272ZM217.729 35.272C217.729 36.136 217.825 36.8773 218.017 37.496C218.209 38.1147 218.513 38.5893 218.929 38.92C219.356 39.2507 219.9 39.416 220.561 39.416C221.223 39.416 221.761 39.2507 222.177 38.92C222.593 38.5893 222.897 38.1147 223.089 37.496C223.281 36.8773 223.377 36.136 223.377 35.272C223.377 33.9813 223.153 32.968 222.705 32.232C222.268 31.496 221.553 31.128 220.561 31.128C219.9 31.128 219.356 31.2933 218.929 31.624C218.513 31.9547 218.209 32.4293 218.017 33.048C217.825 33.6667 217.729 34.408 217.729 35.272ZM231.22 29.576C232.18 29.576 232.974 29.672 233.604 29.864C234.233 30.0453 234.697 30.344 234.996 30.76C235.305 31.176 235.46 31.736 235.46 32.44C235.46 32.8773 235.385 33.272 235.236 33.624C235.086 33.976 234.873 34.264 234.596 34.488C234.329 34.712 234.02 34.8613 233.668 34.936V35.016C234.03 35.0907 234.372 35.2293 234.692 35.432C235.012 35.624 235.268 35.9067 235.46 36.28C235.652 36.6427 235.748 37.1227 235.748 37.72C235.748 38.4133 235.588 39.0053 235.268 39.496C234.958 39.9867 234.51 40.36 233.924 40.616C233.337 40.872 232.638 41 231.828 41H227.86V29.576H231.22ZM231.412 34.232C232.105 34.232 232.585 34.104 232.852 33.848C233.118 33.592 233.252 33.2133 233.252 32.712C233.252 32.2 233.092 31.832 232.772 31.608C232.462 31.384 231.966 31.272 231.284 31.272H230.004V34.232H231.412ZM230.004 35.88V39.288H231.572C232.297 39.288 232.798 39.128 233.076 38.808C233.364 38.488 233.508 38.0613 233.508 37.528C233.508 37.1867 233.444 36.8933 233.316 36.648C233.198 36.4027 232.996 36.216 232.708 36.088C232.42 35.9493 232.02 35.88 231.508 35.88H230.004ZM244.484 41L243.604 37.976H239.7L238.82 41H236.516L240.356 29.528H242.932L246.788 41H244.484ZM242.18 33.272C242.137 33.1013 242.078 32.8987 242.004 32.664C241.94 32.4187 241.876 32.168 241.812 31.912C241.758 31.656 241.705 31.416 241.652 31.192C241.609 31.448 241.556 31.704 241.492 31.96C241.428 32.2053 241.364 32.44 241.3 32.664C241.246 32.888 241.193 33.0907 241.14 33.272L240.244 36.216H243.092L242.18 33.272ZM251.421 29.576C252.808 29.576 253.827 29.8853 254.477 30.504C255.128 31.1227 255.453 31.976 255.453 33.064C255.453 33.5547 255.384 34.024 255.245 34.472C255.107 34.9093 254.872 35.304 254.541 35.656C254.221 36.008 253.795 36.2853 253.261 36.488C252.728 36.6907 252.072 36.792 251.293 36.792H250.269V41H248.125V29.576H251.421ZM251.341 31.272H250.269V35.096H251.069C251.539 35.096 251.939 35.032 252.269 34.904C252.6 34.7653 252.851 34.552 253.021 34.264C253.203 33.976 253.293 33.6027 253.293 33.144C253.293 32.5147 253.133 32.0453 252.813 31.736C252.493 31.4267 252.003 31.272 251.341 31.272ZM267.181 35.272C267.181 36.1573 267.079 36.9627 266.877 37.688C266.674 38.4027 266.359 39.0213 265.933 39.544C265.517 40.0667 264.989 40.4667 264.349 40.744C263.709 41.0213 262.957 41.16 262.093 41.16C261.218 41.16 260.461 41.0213 259.821 40.744C259.181 40.456 258.653 40.056 258.237 39.544C257.821 39.0213 257.506 38.3973 257.293 37.672C257.09 36.9467 256.989 36.1413 256.989 35.256C256.989 34.072 257.17 33.0427 257.533 32.168C257.906 31.2933 258.471 30.616 259.229 30.136C259.986 29.6453 260.946 29.4 262.109 29.4C263.261 29.4 264.21 29.6453 264.957 30.136C265.703 30.616 266.258 31.2987 266.621 32.184C266.994 33.0587 267.181 34.088 267.181 35.272ZM259.261 35.272C259.261 36.136 259.357 36.8773 259.549 37.496C259.741 38.1147 260.045 38.5893 260.461 38.92C260.887 39.2507 261.431 39.416 262.093 39.416C262.754 39.416 263.293 39.2507 263.709 38.92C264.125 38.5893 264.429 38.1147 264.621 37.496C264.813 36.8773 264.909 36.136 264.909 35.272C264.909 33.9813 264.685 32.968 264.237 32.232C263.799 31.496 263.085 31.128 262.093 31.128C261.431 31.128 260.887 31.2933 260.461 31.624C260.045 31.9547 259.741 32.4293 259.549 33.048C259.357 33.6667 259.261 34.408 259.261 35.272ZM272.751 29.576C273.711 29.576 274.506 29.672 275.135 29.864C275.764 30.0453 276.228 30.344 276.527 30.76C276.836 31.176 276.991 31.736 276.991 32.44C276.991 32.8773 276.916 33.272 276.767 33.624C276.618 33.976 276.404 34.264 276.127 34.488C275.86 34.712 275.551 34.8613 275.199 34.936V35.016C275.562 35.0907 275.903 35.2293 276.223 35.432C276.543 35.624 276.799 35.9067 276.991 36.28C277.183 36.6427 277.279 37.1227 277.279 37.72C277.279 38.4133 277.119 39.0053 276.799 39.496C276.49 39.9867 276.042 40.36 275.455 40.616C274.868 40.872 274.17 41 273.359 41H269.391V29.576H272.751ZM272.943 34.232C273.636 34.232 274.116 34.104 274.383 33.848C274.65 33.592 274.783 33.2133 274.783 32.712C274.783 32.2 274.623 31.832 274.303 31.608C273.994 31.384 273.498 31.272 272.815 31.272H271.535V34.232H272.943ZM271.535 35.88V39.288H273.103C273.828 39.288 274.33 39.128 274.607 38.808C274.895 38.488 275.039 38.0613 275.039 37.528C275.039 37.1867 274.975 36.8933 274.847 36.648C274.73 36.4027 274.527 36.216 274.239 36.088C273.951 35.9493 273.551 35.88 273.039 35.88H271.535Z" fill="#090F24"/>
<rect x="102.016" y="26" width="20" height="2" rx="1" fill="#090F24"/>
<rect x="102.016" y="34" width="20" height="2" rx="1" fill="#090F24"/>
<rect x="102.016" y="42" width="20" height="2" rx="1" fill="#090F24"/>
<rect x="462.74" y="14.5" width="489" height="41" rx="20.5" fill="white" stroke="#B7B8C5"/>
<path d="M488.932 37.0629H488.205L487.953 36.8113C488.85 35.773 489.39 34.4237 489.39 32.9463C489.39 29.6621 486.728 27 483.443 27C480.159 27 477.497 29.6621 477.497 32.9463C477.497 36.2304 480.159 38.8925 483.443 38.8925C484.921 38.8925 486.27 38.3528 487.309 37.4608L487.56 37.7124V38.4351L492.134 43L493.497 41.6369L488.932 37.0629ZM483.443 37.0629C481.17 37.0629 479.327 35.2196 479.327 32.9463C479.327 30.673 481.17 28.8296 483.443 28.8296C485.717 28.8296 487.56 30.673 487.56 32.9463C487.56 35.2196 485.717 37.0629 483.443 37.0629Z" fill="#090F24"/>
<path d="M507.5 29.29C508.34 29.29 509.045 29.375 509.615 29.545C510.185 29.715 510.615 29.995 510.905 30.385C511.195 30.775 511.34 31.295 511.34 31.945C511.34 32.365 511.265 32.74 511.115 33.07C510.975 33.39 510.765 33.66 510.485 33.88C510.205 34.09 509.86 34.235 509.45 34.315V34.39C509.87 34.46 510.245 34.59 510.575 34.78C510.915 34.97 511.18 35.24 511.37 35.59C511.57 35.94 511.67 36.395 511.67 36.955C511.67 37.605 511.525 38.16 511.235 38.62C510.955 39.07 510.555 39.415 510.035 39.655C509.515 39.885 508.89 40 508.16 40H504.605V29.29H507.5ZM507.755 33.85C508.595 33.85 509.17 33.705 509.48 33.415C509.8 33.115 509.96 32.675 509.96 32.095C509.96 31.505 509.765 31.085 509.375 30.835C508.995 30.575 508.39 30.445 507.56 30.445H505.94V33.85H507.755ZM505.94 34.975V38.86H507.92C508.79 38.86 509.395 38.675 509.735 38.305C510.085 37.935 510.26 37.45 510.26 36.85C510.26 36.47 510.18 36.14 510.02 35.86C509.87 35.58 509.62 35.365 509.27 35.215C508.92 35.055 508.44 34.975 507.83 34.975H505.94ZM519.76 33.985C519.76 34.485 519.62 34.875 519.34 35.155C519.06 35.435 518.695 35.625 518.245 35.725V35.785C518.715 35.855 519.125 36.035 519.475 36.325C519.825 36.605 520 37.045 520 37.645C520 37.985 519.94 38.3 519.82 38.59C519.71 38.88 519.53 39.13 519.28 39.34C519.03 39.55 518.71 39.715 518.32 39.835C517.93 39.945 517.46 40 516.91 40H513.625V31.96H516.895C517.445 31.96 517.935 32.025 518.365 32.155C518.795 32.275 519.135 32.485 519.385 32.785C519.635 33.075 519.76 33.475 519.76 33.985ZM518.65 37.645C518.65 37.185 518.485 36.855 518.155 36.655C517.835 36.455 517.365 36.355 516.745 36.355H514.93V38.935H516.775C517.375 38.935 517.835 38.84 518.155 38.65C518.485 38.45 518.65 38.115 518.65 37.645ZM518.44 34.15C518.44 33.77 518.31 33.495 518.05 33.325C517.8 33.145 517.395 33.055 516.835 33.055H514.93V35.26H516.595C517.205 35.26 517.665 35.17 517.975 34.99C518.285 34.81 518.44 34.53 518.44 34.15ZM524.738 31.81C525.388 31.81 525.948 31.96 526.418 32.26C526.888 32.56 527.248 32.985 527.498 33.535C527.758 34.075 527.888 34.71 527.888 35.44V36.235H522.728C522.748 37.145 522.963 37.84 523.373 38.32C523.783 38.79 524.358 39.025 525.098 39.025C525.578 39.025 526.003 38.98 526.373 38.89C526.753 38.79 527.143 38.65 527.543 38.47V39.625C527.153 39.805 526.768 39.935 526.388 40.015C526.018 40.105 525.568 40.15 525.038 40.15C524.318 40.15 523.683 39.995 523.133 39.685C522.583 39.375 522.153 38.915 521.843 38.305C521.533 37.685 521.378 36.93 521.378 36.04C521.378 35.16 521.518 34.405 521.798 33.775C522.078 33.145 522.468 32.66 522.968 32.32C523.478 31.98 524.068 31.81 524.738 31.81ZM524.738 32.89C524.158 32.89 523.698 33.095 523.358 33.505C523.018 33.905 522.818 34.465 522.758 35.185H526.538C526.538 34.725 526.473 34.325 526.343 33.985C526.213 33.645 526.013 33.38 525.743 33.19C525.483 32.99 525.148 32.89 524.738 32.89ZM535.497 31.96V38.89H536.592V42.79H535.347V40H530.097V42.79H528.852V38.89H529.467C529.897 38.25 530.252 37.555 530.532 36.805C530.812 36.045 531.022 35.255 531.162 34.435C531.312 33.605 531.392 32.78 531.402 31.96H535.497ZM532.557 32.995C532.517 33.675 532.417 34.38 532.257 35.11C532.107 35.83 531.907 36.52 531.657 37.18C531.417 37.84 531.137 38.41 530.817 38.89H534.222V32.995H532.557ZM539.274 36.865C539.274 36.955 539.269 37.085 539.259 37.255C539.259 37.415 539.254 37.59 539.244 37.78C539.234 37.96 539.224 38.135 539.214 38.305C539.204 38.465 539.194 38.595 539.184 38.695L543.204 31.96H544.794V40H543.579V35.26C543.579 35.1 543.579 34.89 543.579 34.63C543.589 34.37 543.599 34.115 543.609 33.865C543.619 33.605 543.629 33.41 543.639 33.28L539.664 40H538.044V31.96H539.274V36.865ZM552.494 33.07H550.019V40H548.729V33.07H546.284V31.96H552.494V33.07ZM556.789 31.81C557.439 31.81 557.999 31.96 558.469 32.26C558.939 32.56 559.299 32.985 559.549 33.535C559.809 34.075 559.939 34.71 559.939 35.44V36.235H554.779C554.799 37.145 555.014 37.84 555.424 38.32C555.834 38.79 556.409 39.025 557.149 39.025C557.629 39.025 558.054 38.98 558.424 38.89C558.804 38.79 559.194 38.65 559.594 38.47V39.625C559.204 39.805 558.819 39.935 558.439 40.015C558.069 40.105 557.619 40.15 557.089 40.15C556.369 40.15 555.734 39.995 555.184 39.685C554.634 39.375 554.204 38.915 553.894 38.305C553.584 37.685 553.429 36.93 553.429 36.04C553.429 35.16 553.569 34.405 553.849 33.775C554.129 33.145 554.519 32.66 555.019 32.32C555.529 31.98 556.119 31.81 556.789 31.81ZM556.789 32.89C556.209 32.89 555.749 33.095 555.409 33.505C555.069 33.905 554.869 34.465 554.809 35.185H558.589C558.589 34.725 558.524 34.325 558.394 33.985C558.264 33.645 558.064 33.38 557.794 33.19C557.534 32.99 557.199 32.89 556.789 32.89ZM567.55 31.81C568.12 31.81 568.615 31.895 569.035 32.065C569.465 32.225 569.8 32.465 570.04 32.785C570.28 33.095 570.4 33.475 570.4 33.925C570.4 34.415 570.27 34.805 570.01 35.095C569.76 35.375 569.415 35.58 568.975 35.71V35.77C569.275 35.86 569.55 35.985 569.8 36.145C570.06 36.305 570.265 36.515 570.415 36.775C570.575 37.035 570.655 37.37 570.655 37.78C570.655 38.22 570.54 38.62 570.31 38.98C570.08 39.34 569.72 39.625 569.23 39.835C568.75 40.045 568.135 40.15 567.385 40.15C567.025 40.15 566.68 40.13 566.35 40.09C566.03 40.05 565.735 39.99 565.465 39.91C565.205 39.83 564.975 39.735 564.775 39.625V38.44C565.095 38.6 565.475 38.745 565.915 38.875C566.355 39.005 566.835 39.07 567.355 39.07C567.735 39.07 568.075 39.025 568.375 38.935C568.675 38.845 568.915 38.705 569.095 38.515C569.275 38.315 569.365 38.045 569.365 37.705C569.365 37.395 569.285 37.145 569.125 36.955C568.965 36.755 568.725 36.605 568.405 36.505C568.095 36.405 567.695 36.355 567.205 36.355H566.215V35.275H567.025C567.675 35.275 568.195 35.185 568.585 35.005C568.975 34.815 569.17 34.495 569.17 34.045C569.17 33.665 569.02 33.38 568.72 33.19C568.43 33 568.01 32.905 567.46 32.905C567.05 32.905 566.68 32.95 566.35 33.04C566.03 33.12 565.685 33.245 565.315 33.415L564.85 32.365C565.26 32.175 565.69 32.035 566.14 31.945C566.59 31.855 567.06 31.81 567.55 31.81ZM575.362 31.825C576.282 31.825 576.967 32.04 577.417 32.47C577.877 32.9 578.107 33.585 578.107 34.525V40H577.162L576.907 38.86H576.847C576.627 39.15 576.402 39.395 576.172 39.595C575.952 39.785 575.692 39.925 575.392 40.015C575.102 40.105 574.742 40.15 574.312 40.15C573.862 40.15 573.457 40.065 573.097 39.895C572.737 39.725 572.452 39.465 572.242 39.115C572.032 38.755 571.927 38.305 571.927 37.765C571.927 36.965 572.222 36.35 572.812 35.92C573.402 35.48 574.312 35.24 575.542 35.2L576.817 35.155V34.675C576.817 34.005 576.682 33.54 576.412 33.28C576.152 33.02 575.777 32.89 575.287 32.89C574.897 32.89 574.522 32.955 574.162 33.085C573.812 33.205 573.477 33.345 573.157 33.505L572.752 32.515C573.092 32.325 573.487 32.165 573.937 32.035C574.387 31.895 574.862 31.825 575.362 31.825ZM575.722 36.115C574.802 36.155 574.162 36.315 573.802 36.595C573.452 36.875 573.277 37.27 573.277 37.78C573.277 38.23 573.402 38.56 573.652 38.77C573.902 38.98 574.227 39.085 574.627 39.085C575.247 39.085 575.767 38.9 576.187 38.53C576.607 38.15 576.817 37.57 576.817 36.79V36.07L575.722 36.115ZM586.871 31.96V40H585.566V33.085H581.741V40H580.436V31.96H586.871ZM592.9 31.81C593.83 31.81 594.575 32.155 595.135 32.845C595.705 33.535 595.99 34.575 595.99 35.965C595.99 36.875 595.86 37.645 595.6 38.275C595.34 38.895 594.975 39.365 594.505 39.685C594.045 39.995 593.505 40.15 592.885 40.15C592.495 40.15 592.15 40.095 591.85 39.985C591.56 39.875 591.31 39.735 591.1 39.565C590.89 39.385 590.71 39.19 590.56 38.98H590.47C590.49 39.15 590.51 39.365 590.53 39.625C590.55 39.885 590.56 40.11 590.56 40.3V43.6H589.255V31.96H590.32L590.5 33.055H590.56C590.71 32.825 590.89 32.615 591.1 32.425C591.31 32.235 591.56 32.085 591.85 31.975C592.15 31.865 592.5 31.81 592.9 31.81ZM592.645 32.92C592.145 32.92 591.74 33.025 591.43 33.235C591.13 33.435 590.91 33.74 590.77 34.15C590.63 34.56 590.56 35.08 590.56 35.71V35.965C590.56 36.625 590.62 37.185 590.74 37.645C590.87 38.105 591.09 38.455 591.4 38.695C591.71 38.935 592.135 39.055 592.675 39.055C593.125 39.055 593.495 38.92 593.785 38.65C594.075 38.38 594.29 38.015 594.43 37.555C594.57 37.085 594.64 36.55 594.64 35.95C594.64 35.03 594.475 34.295 594.145 33.745C593.825 33.195 593.325 32.92 592.645 32.92ZM604.556 35.965C604.556 36.635 604.471 37.23 604.301 37.75C604.141 38.26 603.906 38.695 603.596 39.055C603.286 39.415 602.911 39.69 602.471 39.88C602.031 40.06 601.541 40.15 601.001 40.15C600.501 40.15 600.036 40.06 599.606 39.88C599.186 39.69 598.816 39.415 598.496 39.055C598.186 38.695 597.946 38.26 597.776 37.75C597.606 37.23 597.521 36.635 597.521 35.965C597.521 35.075 597.661 34.325 597.941 33.715C598.231 33.095 598.641 32.625 599.171 32.305C599.701 31.975 600.326 31.81 601.046 31.81C601.736 31.81 602.341 31.975 602.861 32.305C603.391 32.625 603.806 33.095 604.106 33.715C604.406 34.325 604.556 35.075 604.556 35.965ZM598.871 35.965C598.871 36.595 598.946 37.145 599.096 37.615C599.246 38.075 599.481 38.43 599.801 38.68C600.121 38.93 600.531 39.055 601.031 39.055C601.531 39.055 601.941 38.93 602.261 38.68C602.581 38.43 602.816 38.075 602.966 37.615C603.126 37.145 603.206 36.595 603.206 35.965C603.206 35.325 603.126 34.78 602.966 34.33C602.816 33.88 602.581 33.535 602.261 33.295C601.941 33.045 601.526 32.92 601.016 32.92C600.266 32.92 599.721 33.19 599.381 33.73C599.041 34.27 598.871 35.015 598.871 35.965ZM609.541 40.15C608.861 40.15 608.261 40.005 607.741 39.715C607.221 39.425 606.811 38.975 606.511 38.365C606.221 37.755 606.076 36.975 606.076 36.025C606.076 35.035 606.231 34.23 606.541 33.61C606.851 32.99 607.271 32.535 607.801 32.245C608.341 31.955 608.951 31.81 609.631 31.81C610.021 31.81 610.396 31.855 610.756 31.945C611.126 32.025 611.426 32.125 611.656 32.245L611.251 33.34C611.021 33.25 610.751 33.165 610.441 33.085C610.141 33.005 609.861 32.965 609.601 32.965C609.111 32.965 608.706 33.08 608.386 33.31C608.066 33.54 607.826 33.88 607.666 34.33C607.506 34.78 607.426 35.34 607.426 36.01C607.426 36.65 607.506 37.195 607.666 37.645C607.826 38.095 608.061 38.435 608.371 38.665C608.691 38.895 609.081 39.01 609.541 39.01C609.951 39.01 610.316 38.965 610.636 38.875C610.956 38.785 611.251 38.675 611.521 38.545V39.715C611.261 39.855 610.976 39.96 610.666 40.03C610.356 40.11 609.981 40.15 609.541 40.15ZM622.684 31.96V38.89H623.779V42.79H622.534V40H617.284V42.79H616.039V38.89H616.654C617.084 38.25 617.439 37.555 617.719 36.805C617.999 36.045 618.209 35.255 618.349 34.435C618.499 33.605 618.579 32.78 618.589 31.96H622.684ZM619.744 32.995C619.704 33.675 619.604 34.38 619.444 35.11C619.294 35.83 619.094 36.52 618.844 37.18C618.604 37.84 618.324 38.41 618.004 38.89H621.409V32.995H619.744ZM631.081 40H629.761V33.055H627.556C627.466 34.325 627.346 35.41 627.196 36.31C627.056 37.2 626.876 37.925 626.656 38.485C626.446 39.045 626.191 39.455 625.891 39.715C625.591 39.975 625.236 40.105 624.826 40.105C624.696 40.105 624.566 40.095 624.436 40.075C624.316 40.065 624.216 40.04 624.136 40V39.01C624.196 39.03 624.261 39.045 624.331 39.055C624.401 39.065 624.471 39.07 624.541 39.07C624.741 39.07 624.921 38.98 625.081 38.8C625.251 38.62 625.401 38.345 625.531 37.975C625.671 37.605 625.796 37.14 625.906 36.58C626.016 36.01 626.111 35.34 626.191 34.57C626.281 33.8 626.361 32.93 626.431 31.96H631.081V40ZM633.974 40H632.474L634.619 36.625C634.329 36.545 634.049 36.42 633.779 36.25C633.519 36.07 633.304 35.825 633.134 35.515C632.964 35.195 632.879 34.8 632.879 34.33C632.879 33.56 633.124 32.975 633.614 32.575C634.114 32.165 634.774 31.96 635.594 31.96H638.999V40H637.694V36.805H635.909L633.974 40ZM634.154 34.345C634.154 34.805 634.309 35.15 634.619 35.38C634.939 35.6 635.384 35.71 635.954 35.71H637.694V33.055H635.714C635.154 33.055 634.754 33.175 634.514 33.415C634.274 33.655 634.154 33.965 634.154 34.345ZM651.471 31.96V40H650.166V33.085H646.341V40H645.036V31.96H651.471ZM660.469 35.965C660.469 36.635 660.384 37.23 660.214 37.75C660.054 38.26 659.819 38.695 659.509 39.055C659.199 39.415 658.824 39.69 658.384 39.88C657.944 40.06 657.454 40.15 656.914 40.15C656.414 40.15 655.949 40.06 655.519 39.88C655.099 39.69 654.729 39.415 654.409 39.055C654.099 38.695 653.859 38.26 653.689 37.75C653.519 37.23 653.434 36.635 653.434 35.965C653.434 35.075 653.574 34.325 653.854 33.715C654.144 33.095 654.554 32.625 655.084 32.305C655.614 31.975 656.239 31.81 656.959 31.81C657.649 31.81 658.254 31.975 658.774 32.305C659.304 32.625 659.719 33.095 660.019 33.715C660.319 34.325 660.469 35.075 660.469 35.965ZM654.784 35.965C654.784 36.595 654.859 37.145 655.009 37.615C655.159 38.075 655.394 38.43 655.714 38.68C656.034 38.93 656.444 39.055 656.944 39.055C657.444 39.055 657.854 38.93 658.174 38.68C658.494 38.43 658.729 38.075 658.879 37.615C659.039 37.145 659.119 36.595 659.119 35.965C659.119 35.325 659.039 34.78 658.879 34.33C658.729 33.88 658.494 33.535 658.174 33.295C657.854 33.045 657.439 32.92 656.929 32.92C656.179 32.92 655.634 33.19 655.294 33.73C654.954 34.27 654.784 35.015 654.784 35.965ZM663.639 36.865C663.639 36.955 663.634 37.085 663.624 37.255C663.624 37.415 663.619 37.59 663.609 37.78C663.599 37.96 663.589 38.135 663.579 38.305C663.569 38.465 663.559 38.595 663.549 38.695L667.569 31.96H669.159V40H667.944V35.26C667.944 35.1 667.944 34.89 667.944 34.63C667.954 34.37 667.964 34.115 667.974 33.865C667.984 33.605 667.994 33.41 668.004 33.28L664.029 40H662.409V31.96H663.639V36.865ZM674.594 40.15C673.914 40.15 673.314 40.005 672.794 39.715C672.274 39.425 671.864 38.975 671.564 38.365C671.274 37.755 671.129 36.975 671.129 36.025C671.129 35.035 671.284 34.23 671.594 33.61C671.904 32.99 672.324 32.535 672.854 32.245C673.394 31.955 674.004 31.81 674.684 31.81C675.074 31.81 675.449 31.855 675.809 31.945C676.179 32.025 676.479 32.125 676.709 32.245L676.304 33.34C676.074 33.25 675.804 33.165 675.494 33.085C675.194 33.005 674.914 32.965 674.654 32.965C674.164 32.965 673.759 33.08 673.439 33.31C673.119 33.54 672.879 33.88 672.719 34.33C672.559 34.78 672.479 35.34 672.479 36.01C672.479 36.65 672.559 37.195 672.719 37.645C672.879 38.095 673.114 38.435 673.424 38.665C673.744 38.895 674.134 39.01 674.594 39.01C675.004 39.01 675.369 38.965 675.689 38.875C676.009 38.785 676.304 38.675 676.574 38.545V39.715C676.314 39.855 676.029 39.96 675.719 40.03C675.409 40.11 675.034 40.15 674.594 40.15ZM682.876 31.96H684.301L681.091 35.83L684.571 40H683.056L679.666 35.92V40H678.361V31.96H679.666V35.86L682.876 31.96ZM688.8 31.825C689.72 31.825 690.405 32.04 690.855 32.47C691.315 32.9 691.545 33.585 691.545 34.525V40H690.6L690.345 38.86H690.285C690.065 39.15 689.84 39.395 689.61 39.595C689.39 39.785 689.13 39.925 688.83 40.015C688.54 40.105 688.18 40.15 687.75 40.15C687.3 40.15 686.895 40.065 686.535 39.895C686.175 39.725 685.89 39.465 685.68 39.115C685.47 38.755 685.365 38.305 685.365 37.765C685.365 36.965 685.66 36.35 686.25 35.92C686.84 35.48 687.75 35.24 688.98 35.2L690.255 35.155V34.675C690.255 34.005 690.12 33.54 689.85 33.28C689.59 33.02 689.215 32.89 688.725 32.89C688.335 32.89 687.96 32.955 687.6 33.085C687.25 33.205 686.915 33.345 686.595 33.505L686.19 32.515C686.53 32.325 686.925 32.165 687.375 32.035C687.825 31.895 688.3 31.825 688.8 31.825ZM689.16 36.115C688.24 36.155 687.6 36.315 687.24 36.595C686.89 36.875 686.715 37.27 686.715 37.78C686.715 38.23 686.84 38.56 687.09 38.77C687.34 38.98 687.665 39.085 688.065 39.085C688.685 39.085 689.205 38.9 689.625 38.53C690.045 38.15 690.255 37.57 690.255 36.79V36.07L689.16 36.115Z" fill="#B7B8C5"/>
<g filter="url(#filter2_d_1_431)">
<path d="M857.24 14H931.24C942.838 14 952.24 23.402 952.24 35C952.24 46.598 942.838 56 931.24 56H857.24V14Z" fill="#74CCD8"/>
<path d="M891.583 39.5693H889.918V34.6793H885.298V39.5693H883.633V28.8593H885.298V33.2993H889.918V28.8593H891.583V39.5693ZM897.104 31.3343C898.054 31.3343 898.769 31.5593 899.249 32.0093C899.739 32.4493 899.984 33.1443 899.984 34.0943V39.5693H898.829L898.514 38.4443H898.454C898.224 38.7343 897.994 38.9743 897.764 39.1643C897.544 39.3543 897.284 39.4943 896.984 39.5843C896.694 39.6743 896.334 39.7193 895.904 39.7193C895.454 39.7193 895.049 39.6343 894.689 39.4643C894.329 39.2843 894.044 39.0143 893.834 38.6543C893.624 38.2843 893.519 37.8243 893.519 37.2743C893.519 36.4543 893.809 35.8293 894.389 35.3993C894.979 34.9693 895.874 34.7343 897.074 34.6943L898.364 34.6493V34.1993C898.364 33.5993 898.239 33.1793 897.989 32.9393C897.749 32.6993 897.409 32.5793 896.969 32.5793C896.599 32.5793 896.234 32.6393 895.874 32.7593C895.514 32.8793 895.164 33.0243 894.824 33.1943L894.329 32.0393C894.699 31.8393 895.119 31.6743 895.589 31.5443C896.069 31.4043 896.574 31.3343 897.104 31.3343ZM897.389 35.7143C896.569 35.7543 895.999 35.9093 895.679 36.1793C895.359 36.4393 895.199 36.8093 895.199 37.2893C895.199 37.7093 895.309 38.0143 895.529 38.2043C895.759 38.3943 896.054 38.4893 896.414 38.4893C896.964 38.4893 897.424 38.3143 897.794 37.9643C898.174 37.6143 898.364 37.0893 898.364 36.3893V35.6843L897.389 35.7143ZM908.803 28.0943C908.753 28.6043 908.623 29.0393 908.413 29.3993C908.203 29.7493 907.893 30.0193 907.483 30.2093C907.073 30.3893 906.538 30.4793 905.878 30.4793C905.208 30.4793 904.668 30.3893 904.258 30.2093C903.848 30.0193 903.548 29.7493 903.358 29.3993C903.178 29.0493 903.068 28.6143 903.028 28.0943H904.483C904.533 28.6443 904.663 29.0093 904.873 29.1893C905.093 29.3693 905.433 29.4593 905.893 29.4593C906.303 29.4593 906.628 29.3643 906.868 29.1743C907.118 28.9743 907.263 28.6143 907.303 28.0943H908.803ZM903.748 35.8943C903.748 36.0143 903.743 36.1693 903.733 36.3593C903.723 36.5493 903.713 36.7493 903.703 36.9593C903.693 37.1593 903.683 37.3493 903.673 37.5293C903.663 37.6993 903.653 37.8343 903.643 37.9343L907.438 31.4843H909.358V39.5693H907.843V35.2643C907.843 35.0743 907.848 34.8393 907.858 34.5593C907.868 34.2793 907.878 34.0093 907.888 33.7493C907.898 33.4793 907.908 33.2743 907.918 33.1343L904.153 39.5693H902.218V31.4843H903.748V35.8943ZM917.397 32.7593H914.892V39.5693H913.287V32.7593H910.812V31.4843H917.397V32.7593ZM920.389 35.8943C920.389 36.0143 920.384 36.1693 920.374 36.3593C920.364 36.5493 920.354 36.7493 920.344 36.9593C920.334 37.1593 920.324 37.3493 920.314 37.5293C920.304 37.6993 920.294 37.8343 920.284 37.9343L924.079 31.4843H925.999V39.5693H924.484V35.2643C924.484 35.0743 924.489 34.8393 924.499 34.5593C924.509 34.2793 924.519 34.0093 924.529 33.7493C924.539 33.4793 924.549 33.2743 924.559 33.1343L920.794 39.5693H918.859V31.4843H920.389V35.8943Z" fill="white"/>
</g>
<defs>
<filter id="filter0_d_1_431" x="1172.95" y="12.949" width="29.051" height="29.051" filterUnits="userSpaceOnUse" color-interpolation-filters="sRGB">
<feFlood flood-opacity="0" result="BackgroundImageFix"/>
<feColorMatrix in="SourceAlpha" type="matrix" values="0 0 0 0 0 0 0 0 0 0 0 0 0 0 0 0 0 0 127 0" result="hardAlpha"/>
<feOffset dy="2"/>
<feGaussianBlur stdDeviation="2"/>
<feComposite in2="hardAlpha" operator="out"/>
<feColorMatrix type="matrix" values="0 0 0 0 0.929412 0 0 0 0 0.607843 0 0 0 0 0.756863 0 0 0 0.2 0"/>
<feBlend mode="normal" in2="BackgroundImageFix" result="effect1_dropShadow_1_431"/>
<feBlend mode="normal" in="SourceGraphic" in2="effect1_dropShadow_1_431" result="shape"/>
</filter>
<filter id="filter1_d_1_431" x="1117.08" y="12.949" width="29.051" height="29.051" filterUnits="userSpaceOnUse" color-interpolation-filters="sRGB">
<feFlood flood-opacity="0" result="BackgroundImageFix"/>
<feColorMatrix in="SourceAlpha" type="matrix" values="0 0 0 0 0 0 0 0 0 0 0 0 0 0 0 0 0 0 127 0" result="hardAlpha"/>
<feOffset dy="2"/>
<feGaussianBlur stdDeviation="2"/>
<feComposite in2="hardAlpha" operator="out"/>
<feColorMatrix type="matrix" values="0 0 0 0 0.929412 0 0 0 0 0.607843 0 0 0 0 0.756863 0 0 0 0.2 0"/>
<feBlend mode="normal" in2="BackgroundImageFix" result="effect1_dropShadow_1_431"/>
<feBlend mode="normal" in="SourceGraphic" in2="effect1_dropShadow_1_431" result="shape"/>
</filter>
<filter id="filter2_d_1_431" x="853.24" y="12" width="103" height="50" filterUnits="userSpaceOnUse" color-interpolation-filters="sRGB">
<feFlood flood-opacity="0" result="BackgroundImageFix"/>
<feColorMatrix in="SourceAlpha" type="matrix" values="0 0 0 0 0 0 0 0 0 0 0 0 0 0 0 0 0 0 127 0" result="hardAlpha"/>
<feOffset dy="2"/>
<feGaussianBlur stdDeviation="2"/>
<feComposite in2="hardAlpha" operator="out"/>
<feColorMatrix type="matrix" values="0 0 0 0 0.200521 0 0 0 0 0.767083 0 0 0 0 0.875 0 0 0 0.2 0"/>
<feBlend mode="normal" in2="BackgroundImageFix" result="effect1_dropShadow_1_431"/>
<feBlend mode="normal" in="SourceGraphic" in2="effect1_dropShadow_1_431" result="shape"/>
</filter>
<linearGradient id="paint0_linear_1_431" x1="1187.47" y1="14.949" x2="1187.47" y2="36" gradientUnits="userSpaceOnUse">
<stop stop-color="#ED9BC1"/>
<stop offset="1" stop-color="#ED9BB9"/>
</linearGradient>
<linearGradient id="paint1_linear_1_431" x1="1131.6" y1="14.949" x2="1131.6" y2="36" gradientUnits="userSpaceOnUse">
<stop stop-color="#ED9BC1"/>
<stop offset="1" stop-color="#ED9BB9"/>
</linearGradient>
</defs>
</svg>
