<svg width="177" height="22" viewBox="0 0 177 22" fill="none" xmlns="http://www.w3.org/2000/svg">
<path d="M41.968 17H39.504L35.488 11.208V17H33.344V5.576H35.488V11.112L39.408 5.576H41.76L37.776 11.096L41.968 17ZM49.9211 17L49.0411 13.976H45.1371L44.2571 17H41.9531L45.7931 5.528H48.3691L52.2251 17H49.9211ZM47.6171 9.272C47.5745 9.10133 47.5158 8.89867 47.4411 8.664C47.3771 8.41867 47.3131 8.168 47.2491 7.912C47.1958 7.656 47.1425 7.416 47.0891 7.192C47.0465 7.448 46.9931 7.704 46.9291 7.96C46.8651 8.20533 46.8011 8.44 46.7371 8.664C46.6838 8.888 46.6305 9.09067 46.5771 9.272L45.6811 12.216H48.5291L47.6171 9.272ZM56.5643 17H54.4043V7.304H51.4283V5.576H59.5243V7.304H56.5643V17ZM66.7024 17L65.8224 13.976H61.9184L61.0384 17H58.7344L62.5744 5.528H65.1504L69.0064 17H66.7024ZM64.3984 9.272C64.3557 9.10133 64.297 8.89867 64.2224 8.664C64.1584 8.41867 64.0944 8.168 64.0304 7.912C63.977 7.656 63.9237 7.416 63.8704 7.192C63.8277 7.448 63.7744 7.704 63.7104 7.96C63.6464 8.20533 63.5824 8.44 63.5184 8.664C63.465 8.888 63.4117 9.09067 63.3584 9.272L62.4624 12.216H65.3104L64.3984 9.272ZM78.744 17H76.6V7.304H73.88C73.8267 7.83733 73.7627 8.408 73.688 9.016C73.624 9.61333 73.5547 10.216 73.48 10.824C73.4053 11.4213 73.3253 11.992 73.24 12.536C73.1653 13.0693 73.0907 13.5387 73.016 13.944C72.888 14.6267 72.712 15.2133 72.488 15.704C72.264 16.184 71.9653 16.5467 71.592 16.792C71.2293 17.0373 70.7547 17.16 70.168 17.16C69.9653 17.16 69.7733 17.144 69.592 17.112C69.4107 17.08 69.2453 17.0373 69.096 16.984V15.288C69.224 15.3413 69.352 15.384 69.48 15.416C69.608 15.448 69.7413 15.464 69.88 15.464C70.104 15.464 70.2853 15.3733 70.424 15.192C70.5733 15.0107 70.696 14.744 70.792 14.392C70.8987 14.0293 71 13.5867 71.096 13.064C71.1493 12.7867 71.208 12.4027 71.272 11.912C71.3467 11.4213 71.4267 10.8453 71.512 10.184C71.608 9.52267 71.704 8.80267 71.8 8.024C71.896 7.23467 71.992 6.41867 72.088 5.576H78.744V17ZM91.1338 11.272C91.1338 12.1573 91.0324 12.9627 90.8298 13.688C90.6271 14.4027 90.3124 15.0213 89.8858 15.544C89.4698 16.0667 88.9418 16.4667 88.3018 16.744C87.6618 17.0213 86.9098 17.16 86.0458 17.16C85.1711 17.16 84.4138 17.0213 83.7738 16.744C83.1338 16.456 82.6058 16.056 82.1898 15.544C81.7738 15.0213 81.4591 14.3973 81.2458 13.672C81.0431 12.9467 80.9418 12.1413 80.9418 11.256C80.9418 10.072 81.1231 9.04267 81.4858 8.168C81.8591 7.29333 82.4244 6.616 83.1818 6.136C83.9391 5.64533 84.8991 5.4 86.0618 5.4C87.2138 5.4 88.1631 5.64533 88.9097 6.136C89.6564 6.616 90.2111 7.29867 90.5738 8.184C90.9471 9.05867 91.1338 10.088 91.1338 11.272ZM83.2138 11.272C83.2138 12.136 83.3098 12.8773 83.5018 13.496C83.6938 14.1147 83.9978 14.5893 84.4138 14.92C84.8404 15.2507 85.3844 15.416 86.0458 15.416C86.7071 15.416 87.2458 15.2507 87.6618 14.92C88.0778 14.5893 88.3818 14.1147 88.5738 13.496C88.7658 12.8773 88.8618 12.136 88.8618 11.272C88.8618 9.98133 88.6378 8.968 88.1898 8.232C87.7524 7.496 87.0378 7.128 86.0458 7.128C85.3844 7.128 84.8404 7.29333 84.4138 7.624C83.9978 7.95467 83.6938 8.42933 83.5018 9.048C83.3098 9.66667 83.2138 10.408 83.2138 11.272ZM99.984 5.576V7.304H95.488V17H93.344V5.576H99.984ZM109.658 17H107.498V7.304H104.522V5.576H112.618V7.304H109.658V17ZM123.634 11.272C123.634 12.1573 123.532 12.9627 123.33 13.688C123.127 14.4027 122.812 15.0213 122.386 15.544C121.97 16.0667 121.442 16.4667 120.802 16.744C120.162 17.0213 119.41 17.16 118.546 17.16C117.671 17.16 116.914 17.0213 116.274 16.744C115.634 16.456 115.106 16.056 114.69 15.544C114.274 15.0213 113.959 14.3973 113.746 13.672C113.543 12.9467 113.442 12.1413 113.442 11.256C113.442 10.072 113.623 9.04267 113.986 8.168C114.359 7.29333 114.924 6.616 115.682 6.136C116.439 5.64533 117.399 5.4 118.562 5.4C119.714 5.4 120.663 5.64533 121.41 6.136C122.156 6.616 122.711 7.29867 123.074 8.184C123.447 9.05867 123.634 10.088 123.634 11.272ZM115.714 11.272C115.714 12.136 115.81 12.8773 116.002 13.496C116.194 14.1147 116.498 14.5893 116.914 14.92C117.34 15.2507 117.884 15.416 118.546 15.416C119.207 15.416 119.746 15.2507 120.162 14.92C120.578 14.5893 120.882 14.1147 121.074 13.496C121.266 12.8773 121.362 12.136 121.362 11.272C121.362 9.98133 121.138 8.968 120.69 8.232C120.252 7.496 119.538 7.128 118.546 7.128C117.884 7.128 117.34 7.29333 116.914 7.624C116.498 7.95467 116.194 8.42933 116.002 9.048C115.81 9.66667 115.714 10.408 115.714 11.272ZM129.204 5.576C130.164 5.576 130.959 5.672 131.588 5.864C132.217 6.04533 132.681 6.344 132.98 6.76C133.289 7.176 133.444 7.736 133.444 8.44C133.444 8.87733 133.369 9.272 133.22 9.624C133.071 9.976 132.857 10.264 132.58 10.488C132.313 10.712 132.004 10.8613 131.652 10.936V11.016C132.015 11.0907 132.356 11.2293 132.676 11.432C132.996 11.624 133.252 11.9067 133.444 12.28C133.636 12.6427 133.732 13.1227 133.732 13.72C133.732 14.4133 133.572 15.0053 133.252 15.496C132.943 15.9867 132.495 16.36 131.908 16.616C131.321 16.872 130.623 17 129.812 17H125.844V5.576H129.204ZM129.396 10.232C130.089 10.232 130.569 10.104 130.836 9.848C131.103 9.592 131.236 9.21333 131.236 8.712C131.236 8.2 131.076 7.832 130.756 7.608C130.447 7.384 129.951 7.272 129.268 7.272H127.988V10.232H129.396ZM127.988 11.88V15.288H129.556C130.281 15.288 130.783 15.128 131.06 14.808C131.348 14.488 131.492 14.0613 131.492 13.528C131.492 13.1867 131.428 12.8933 131.3 12.648C131.183 12.4027 130.98 12.216 130.692 12.088C130.404 11.9493 130.004 11.88 129.492 11.88H127.988ZM142.468 17L141.588 13.976H137.684L136.804 17H134.5L138.34 5.528H140.916L144.772 17H142.468ZM140.164 9.272C140.121 9.10133 140.063 8.89867 139.988 8.664C139.924 8.41867 139.86 8.168 139.796 7.912C139.743 7.656 139.689 7.416 139.636 7.192C139.593 7.448 139.54 7.704 139.476 7.96C139.412 8.20533 139.348 8.44 139.284 8.664C139.231 8.888 139.177 9.09067 139.124 9.272L138.228 12.216H141.076L140.164 9.272ZM149.406 5.576C150.792 5.576 151.811 5.88533 152.462 6.504C153.112 7.12267 153.438 7.976 153.438 9.064C153.438 9.55467 153.368 10.024 153.23 10.472C153.091 10.9093 152.856 11.304 152.526 11.656C152.206 12.008 151.779 12.2853 151.246 12.488C150.712 12.6907 150.056 12.792 149.278 12.792H148.254V17H146.11V5.576H149.406ZM149.326 7.272H148.254V11.096H149.054C149.523 11.096 149.923 11.032 150.254 10.904C150.584 10.7653 150.835 10.552 151.006 10.264C151.187 9.976 151.278 9.60267 151.278 9.144C151.278 8.51467 151.118 8.04533 150.798 7.736C150.478 7.42667 149.987 7.272 149.326 7.272ZM165.165 11.272C165.165 12.1573 165.064 12.9627 164.861 13.688C164.658 14.4027 164.344 15.0213 163.917 15.544C163.501 16.0667 162.973 16.4667 162.333 16.744C161.693 17.0213 160.941 17.16 160.077 17.16C159.202 17.16 158.445 17.0213 157.805 16.744C157.165 16.456 156.637 16.056 156.221 15.544C155.805 15.0213 155.49 14.3973 155.277 13.672C155.074 12.9467 154.973 12.1413 154.973 11.256C154.973 10.072 155.154 9.04267 155.517 8.168C155.89 7.29333 156.456 6.616 157.213 6.136C157.97 5.64533 158.93 5.4 160.093 5.4C161.245 5.4 162.194 5.64533 162.941 6.136C163.688 6.616 164.242 7.29867 164.605 8.184C164.978 9.05867 165.165 10.088 165.165 11.272ZM157.245 11.272C157.245 12.136 157.341 12.8773 157.533 13.496C157.725 14.1147 158.029 14.5893 158.445 14.92C158.872 15.2507 159.416 15.416 160.077 15.416C160.738 15.416 161.277 15.2507 161.693 14.92C162.109 14.5893 162.413 14.1147 162.605 13.496C162.797 12.8773 162.893 12.136 162.893 11.272C162.893 9.98133 162.669 8.968 162.221 8.232C161.784 7.496 161.069 7.128 160.077 7.128C159.416 7.128 158.872 7.29333 158.445 7.624C158.029 7.95467 157.725 8.42933 157.533 9.048C157.341 9.66667 157.245 10.408 157.245 11.272ZM170.735 5.576C171.695 5.576 172.49 5.672 173.119 5.864C173.749 6.04533 174.213 6.344 174.511 6.76C174.821 7.176 174.975 7.736 174.975 8.44C174.975 8.87733 174.901 9.272 174.751 9.624C174.602 9.976 174.389 10.264 174.111 10.488C173.845 10.712 173.535 10.8613 173.183 10.936V11.016C173.546 11.0907 173.887 11.2293 174.207 11.432C174.527 11.624 174.783 11.9067 174.975 12.28C175.167 12.6427 175.263 13.1227 175.263 13.72C175.263 14.4133 175.103 15.0053 174.783 15.496C174.474 15.9867 174.026 16.36 173.439 16.616C172.853 16.872 172.154 17 171.343 17H167.375V5.576H170.735ZM170.927 10.232C171.621 10.232 172.101 10.104 172.367 9.848C172.634 9.592 172.767 9.21333 172.767 8.712C172.767 8.2 172.607 7.832 172.287 7.608C171.978 7.384 171.482 7.272 170.799 7.272H169.519V10.232H170.927ZM169.519 11.88V15.288H171.087C171.813 15.288 172.314 15.128 172.591 14.808C172.879 14.488 173.023 14.0613 173.023 13.528C173.023 13.1867 172.959 12.8933 172.831 12.648C172.714 12.4027 172.511 12.216 172.223 12.088C171.935 11.9493 171.535 11.88 171.023 11.88H169.519Z" fill="#090F24"/>
<rect y="1.99998" width="20" height="2" rx="1" fill="#090F24"/>
<rect y="9.99998" width="20" height="2" rx="1" fill="#090F24"/>
<rect y="18" width="20" height="2" rx="1" fill="#090F24"/>
</svg>
