<svg width="494" height="50" viewBox="0 0 494 50" fill="none" xmlns="http://www.w3.org/2000/svg">
<rect x="0.5" y="2.5" width="489" height="41" rx="20.5" fill="white" stroke="#B7B8C5"/>
<path d="M26.6919 25.0629H25.9646L25.713 24.8113C26.6096 23.773 27.1493 22.4237 27.1493 20.9463C27.1493 17.6621 24.4872 15 21.203 15C17.9189 15 15.2568 17.6621 15.2568 20.9463C15.2568 24.2304 17.9189 26.8925 21.203 26.8925C22.6804 26.8925 24.0298 26.3528 25.0681 25.4608L25.3197 25.7124V26.4351L29.8937 31L31.2568 29.6369L26.6919 25.0629ZM21.203 25.0629C18.9298 25.0629 17.0864 23.2196 17.0864 20.9463C17.0864 18.673 18.9298 16.8296 21.203 16.8296C23.4763 16.8296 25.3197 18.673 25.3197 20.9463C25.3197 23.2196 23.4763 25.0629 21.203 25.0629Z" fill="#090F24"/>
<path d="M45.26 17.29C46.1 17.29 46.805 17.375 47.375 17.545C47.945 17.715 48.375 17.995 48.665 18.385C48.955 18.775 49.1 19.295 49.1 19.945C49.1 20.365 49.025 20.74 48.875 21.07C48.735 21.39 48.525 21.66 48.245 21.88C47.965 22.09 47.62 22.235 47.21 22.315V22.39C47.63 22.46 48.005 22.59 48.335 22.78C48.675 22.97 48.94 23.24 49.13 23.59C49.33 23.94 49.43 24.395 49.43 24.955C49.43 25.605 49.285 26.16 48.995 26.62C48.715 27.07 48.315 27.415 47.795 27.655C47.275 27.885 46.65 28 45.92 28H42.365V17.29H45.26ZM45.515 21.85C46.355 21.85 46.93 21.705 47.24 21.415C47.56 21.115 47.72 20.675 47.72 20.095C47.72 19.505 47.525 19.085 47.135 18.835C46.755 18.575 46.15 18.445 45.32 18.445H43.7V21.85H45.515ZM43.7 22.975V26.86H45.68C46.55 26.86 47.155 26.675 47.495 26.305C47.845 25.935 48.02 25.45 48.02 24.85C48.02 24.47 47.94 24.14 47.78 23.86C47.63 23.58 47.38 23.365 47.03 23.215C46.68 23.055 46.2 22.975 45.59 22.975H43.7ZM57.5192 21.985C57.5192 22.485 57.3792 22.875 57.0992 23.155C56.8192 23.435 56.4542 23.625 56.0042 23.725V23.785C56.4742 23.855 56.8842 24.035 57.2342 24.325C57.5842 24.605 57.7592 25.045 57.7592 25.645C57.7592 25.985 57.6992 26.3 57.5792 26.59C57.4692 26.88 57.2892 27.13 57.0392 27.34C56.7892 27.55 56.4692 27.715 56.0792 27.835C55.6892 27.945 55.2192 28 54.6692 28H51.3842V19.96H54.6542C55.2042 19.96 55.6942 20.025 56.1242 20.155C56.5542 20.275 56.8942 20.485 57.1442 20.785C57.3942 21.075 57.5192 21.475 57.5192 21.985ZM56.4092 25.645C56.4092 25.185 56.2442 24.855 55.9142 24.655C55.5942 24.455 55.1242 24.355 54.5042 24.355H52.6892V26.935H54.5342C55.1342 26.935 55.5942 26.84 55.9142 26.65C56.2442 26.45 56.4092 26.115 56.4092 25.645ZM56.1992 22.15C56.1992 21.77 56.0692 21.495 55.8092 21.325C55.5592 21.145 55.1542 21.055 54.5942 21.055H52.6892V23.26H54.3542C54.9642 23.26 55.4242 23.17 55.7342 22.99C56.0442 22.81 56.1992 22.53 56.1992 22.15ZM62.498 19.81C63.148 19.81 63.708 19.96 64.178 20.26C64.648 20.56 65.008 20.985 65.258 21.535C65.518 22.075 65.648 22.71 65.648 23.44V24.235H60.488C60.508 25.145 60.723 25.84 61.133 26.32C61.543 26.79 62.118 27.025 62.858 27.025C63.338 27.025 63.763 26.98 64.133 26.89C64.513 26.79 64.903 26.65 65.303 26.47V27.625C64.913 27.805 64.528 27.935 64.148 28.015C63.778 28.105 63.328 28.15 62.798 28.15C62.078 28.15 61.443 27.995 60.893 27.685C60.343 27.375 59.913 26.915 59.603 26.305C59.293 25.685 59.138 24.93 59.138 24.04C59.138 23.16 59.278 22.405 59.558 21.775C59.838 21.145 60.228 20.66 60.728 20.32C61.238 19.98 61.828 19.81 62.498 19.81ZM62.498 20.89C61.918 20.89 61.458 21.095 61.118 21.505C60.778 21.905 60.578 22.465 60.518 23.185H64.298C64.298 22.725 64.233 22.325 64.103 21.985C63.973 21.645 63.773 21.38 63.503 21.19C63.243 20.99 62.908 20.89 62.498 20.89ZM73.2564 19.96V26.89H74.3514V30.79H73.1064V28H67.8564V30.79H66.6114V26.89H67.2264C67.6564 26.25 68.0114 25.555 68.2914 24.805C68.5714 24.045 68.7814 23.255 68.9214 22.435C69.0714 21.605 69.1514 20.78 69.1614 19.96H73.2564ZM70.3164 20.995C70.2764 21.675 70.1764 22.38 70.0164 23.11C69.8664 23.83 69.6664 24.52 69.4164 25.18C69.1764 25.84 68.8964 26.41 68.5764 26.89H71.9814V20.995H70.3164ZM77.0332 24.865C77.0332 24.955 77.0282 25.085 77.0182 25.255C77.0182 25.415 77.0132 25.59 77.0032 25.78C76.9932 25.96 76.9832 26.135 76.9732 26.305C76.9632 26.465 76.9532 26.595 76.9432 26.695L80.9632 19.96H82.5532V28H81.3382V23.26C81.3382 23.1 81.3382 22.89 81.3382 22.63C81.3482 22.37 81.3582 22.115 81.3682 21.865C81.3782 21.605 81.3882 21.41 81.3982 21.28L77.4232 28H75.8032V19.96H77.0332V24.865ZM90.2538 21.07H87.7788V28H86.4888V21.07H84.0438V19.96H90.2538V21.07ZM94.5488 19.81C95.1988 19.81 95.7588 19.96 96.2288 20.26C96.6988 20.56 97.0588 20.985 97.3088 21.535C97.5688 22.075 97.6988 22.71 97.6988 23.44V24.235H92.5388C92.5588 25.145 92.7738 25.84 93.1838 26.32C93.5938 26.79 94.1688 27.025 94.9088 27.025C95.3888 27.025 95.8138 26.98 96.1838 26.89C96.5638 26.79 96.9538 26.65 97.3538 26.47V27.625C96.9638 27.805 96.5788 27.935 96.1988 28.015C95.8288 28.105 95.3788 28.15 94.8488 28.15C94.1288 28.15 93.4938 27.995 92.9438 27.685C92.3938 27.375 91.9638 26.915 91.6538 26.305C91.3438 25.685 91.1888 24.93 91.1888 24.04C91.1888 23.16 91.3288 22.405 91.6088 21.775C91.8888 21.145 92.2788 20.66 92.7788 20.32C93.2888 19.98 93.8788 19.81 94.5488 19.81ZM94.5488 20.89C93.9688 20.89 93.5088 21.095 93.1688 21.505C92.8288 21.905 92.6288 22.465 92.5688 23.185H96.3488C96.3488 22.725 96.2838 22.325 96.1538 21.985C96.0238 21.645 95.8238 21.38 95.5538 21.19C95.2938 20.99 94.9588 20.89 94.5488 20.89ZM105.309 19.81C105.879 19.81 106.374 19.895 106.794 20.065C107.224 20.225 107.559 20.465 107.799 20.785C108.039 21.095 108.159 21.475 108.159 21.925C108.159 22.415 108.029 22.805 107.769 23.095C107.519 23.375 107.174 23.58 106.734 23.71V23.77C107.034 23.86 107.309 23.985 107.559 24.145C107.819 24.305 108.024 24.515 108.174 24.775C108.334 25.035 108.414 25.37 108.414 25.78C108.414 26.22 108.299 26.62 108.069 26.98C107.839 27.34 107.479 27.625 106.989 27.835C106.509 28.045 105.894 28.15 105.144 28.15C104.784 28.15 104.439 28.13 104.109 28.09C103.789 28.05 103.494 27.99 103.224 27.91C102.964 27.83 102.734 27.735 102.534 27.625V26.44C102.854 26.6 103.234 26.745 103.674 26.875C104.114 27.005 104.594 27.07 105.114 27.07C105.494 27.07 105.834 27.025 106.134 26.935C106.434 26.845 106.674 26.705 106.854 26.515C107.034 26.315 107.124 26.045 107.124 25.705C107.124 25.395 107.044 25.145 106.884 24.955C106.724 24.755 106.484 24.605 106.164 24.505C105.854 24.405 105.454 24.355 104.964 24.355H103.974V23.275H104.784C105.434 23.275 105.954 23.185 106.344 23.005C106.734 22.815 106.929 22.495 106.929 22.045C106.929 21.665 106.779 21.38 106.479 21.19C106.189 21 105.769 20.905 105.219 20.905C104.809 20.905 104.439 20.95 104.109 21.04C103.789 21.12 103.444 21.245 103.074 21.415L102.609 20.365C103.019 20.175 103.449 20.035 103.899 19.945C104.349 19.855 104.819 19.81 105.309 19.81ZM113.122 19.825C114.042 19.825 114.727 20.04 115.177 20.47C115.637 20.9 115.867 21.585 115.867 22.525V28H114.922L114.667 26.86H114.607C114.387 27.15 114.162 27.395 113.932 27.595C113.712 27.785 113.452 27.925 113.152 28.015C112.862 28.105 112.502 28.15 112.072 28.15C111.622 28.15 111.217 28.065 110.857 27.895C110.497 27.725 110.212 27.465 110.002 27.115C109.792 26.755 109.687 26.305 109.687 25.765C109.687 24.965 109.982 24.35 110.572 23.92C111.162 23.48 112.072 23.24 113.302 23.2L114.577 23.155V22.675C114.577 22.005 114.442 21.54 114.172 21.28C113.912 21.02 113.537 20.89 113.047 20.89C112.657 20.89 112.282 20.955 111.922 21.085C111.572 21.205 111.237 21.345 110.917 21.505L110.512 20.515C110.852 20.325 111.247 20.165 111.697 20.035C112.147 19.895 112.622 19.825 113.122 19.825ZM113.482 24.115C112.562 24.155 111.922 24.315 111.562 24.595C111.212 24.875 111.037 25.27 111.037 25.78C111.037 26.23 111.162 26.56 111.412 26.77C111.662 26.98 111.987 27.085 112.387 27.085C113.007 27.085 113.527 26.9 113.947 26.53C114.367 26.15 114.577 25.57 114.577 24.79V24.07L113.482 24.115ZM124.631 19.96V28H123.326V21.085H119.501V28H118.196V19.96H124.631ZM130.659 19.81C131.589 19.81 132.334 20.155 132.894 20.845C133.464 21.535 133.749 22.575 133.749 23.965C133.749 24.875 133.619 25.645 133.359 26.275C133.099 26.895 132.734 27.365 132.264 27.685C131.804 27.995 131.264 28.15 130.644 28.15C130.254 28.15 129.909 28.095 129.609 27.985C129.319 27.875 129.069 27.735 128.859 27.565C128.649 27.385 128.469 27.19 128.319 26.98H128.229C128.249 27.15 128.269 27.365 128.289 27.625C128.309 27.885 128.319 28.11 128.319 28.3V31.6H127.014V19.96H128.079L128.259 21.055H128.319C128.469 20.825 128.649 20.615 128.859 20.425C129.069 20.235 129.319 20.085 129.609 19.975C129.909 19.865 130.259 19.81 130.659 19.81ZM130.404 20.92C129.904 20.92 129.499 21.025 129.189 21.235C128.889 21.435 128.669 21.74 128.529 22.15C128.389 22.56 128.319 23.08 128.319 23.71V23.965C128.319 24.625 128.379 25.185 128.499 25.645C128.629 26.105 128.849 26.455 129.159 26.695C129.469 26.935 129.894 27.055 130.434 27.055C130.884 27.055 131.254 26.92 131.544 26.65C131.834 26.38 132.049 26.015 132.189 25.555C132.329 25.085 132.399 24.55 132.399 23.95C132.399 23.03 132.234 22.295 131.904 21.745C131.584 21.195 131.084 20.92 130.404 20.92ZM142.316 23.965C142.316 24.635 142.231 25.23 142.061 25.75C141.901 26.26 141.666 26.695 141.356 27.055C141.046 27.415 140.671 27.69 140.231 27.88C139.791 28.06 139.301 28.15 138.761 28.15C138.261 28.15 137.796 28.06 137.366 27.88C136.946 27.69 136.576 27.415 136.256 27.055C135.946 26.695 135.706 26.26 135.536 25.75C135.366 25.23 135.281 24.635 135.281 23.965C135.281 23.075 135.421 22.325 135.701 21.715C135.991 21.095 136.401 20.625 136.931 20.305C137.461 19.975 138.086 19.81 138.806 19.81C139.496 19.81 140.101 19.975 140.621 20.305C141.151 20.625 141.566 21.095 141.866 21.715C142.166 22.325 142.316 23.075 142.316 23.965ZM136.631 23.965C136.631 24.595 136.706 25.145 136.856 25.615C137.006 26.075 137.241 26.43 137.561 26.68C137.881 26.93 138.291 27.055 138.791 27.055C139.291 27.055 139.701 26.93 140.021 26.68C140.341 26.43 140.576 26.075 140.726 25.615C140.886 25.145 140.966 24.595 140.966 23.965C140.966 23.325 140.886 22.78 140.726 22.33C140.576 21.88 140.341 21.535 140.021 21.295C139.701 21.045 139.286 20.92 138.776 20.92C138.026 20.92 137.481 21.19 137.141 21.73C136.801 22.27 136.631 23.015 136.631 23.965ZM147.3 28.15C146.62 28.15 146.02 28.005 145.5 27.715C144.98 27.425 144.57 26.975 144.27 26.365C143.98 25.755 143.835 24.975 143.835 24.025C143.835 23.035 143.99 22.23 144.3 21.61C144.61 20.99 145.03 20.535 145.56 20.245C146.1 19.955 146.71 19.81 147.39 19.81C147.78 19.81 148.155 19.855 148.515 19.945C148.885 20.025 149.185 20.125 149.415 20.245L149.01 21.34C148.78 21.25 148.51 21.165 148.2 21.085C147.9 21.005 147.62 20.965 147.36 20.965C146.87 20.965 146.465 21.08 146.145 21.31C145.825 21.54 145.585 21.88 145.425 22.33C145.265 22.78 145.185 23.34 145.185 24.01C145.185 24.65 145.265 25.195 145.425 25.645C145.585 26.095 145.82 26.435 146.13 26.665C146.45 26.895 146.84 27.01 147.3 27.01C147.71 27.01 148.075 26.965 148.395 26.875C148.715 26.785 149.01 26.675 149.28 26.545V27.715C149.02 27.855 148.735 27.96 148.425 28.03C148.115 28.11 147.74 28.15 147.3 28.15ZM160.444 19.96V26.89H161.539V30.79H160.294V28H155.044V30.79H153.799V26.89H154.414C154.844 26.25 155.199 25.555 155.479 24.805C155.759 24.045 155.969 23.255 156.109 22.435C156.259 21.605 156.339 20.78 156.349 19.96H160.444ZM157.504 20.995C157.464 21.675 157.364 22.38 157.204 23.11C157.054 23.83 156.854 24.52 156.604 25.18C156.364 25.84 156.084 26.41 155.764 26.89H159.169V20.995H157.504ZM168.841 28H167.521V21.055H165.316C165.226 22.325 165.106 23.41 164.956 24.31C164.816 25.2 164.636 25.925 164.416 26.485C164.206 27.045 163.951 27.455 163.651 27.715C163.351 27.975 162.996 28.105 162.586 28.105C162.456 28.105 162.326 28.095 162.196 28.075C162.076 28.065 161.976 28.04 161.896 28V27.01C161.956 27.03 162.021 27.045 162.091 27.055C162.161 27.065 162.231 27.07 162.301 27.07C162.501 27.07 162.681 26.98 162.841 26.8C163.011 26.62 163.161 26.345 163.291 25.975C163.431 25.605 163.556 25.14 163.666 24.58C163.776 24.01 163.871 23.34 163.951 22.57C164.041 21.8 164.121 20.93 164.191 19.96H168.841V28ZM171.733 28H170.233L172.378 24.625C172.088 24.545 171.808 24.42 171.538 24.25C171.278 24.07 171.063 23.825 170.893 23.515C170.723 23.195 170.638 22.8 170.638 22.33C170.638 21.56 170.883 20.975 171.373 20.575C171.873 20.165 172.533 19.96 173.353 19.96H176.758V28H175.453V24.805H173.668L171.733 28ZM171.913 22.345C171.913 22.805 172.068 23.15 172.378 23.38C172.698 23.6 173.143 23.71 173.713 23.71H175.453V21.055H173.473C172.913 21.055 172.513 21.175 172.273 21.415C172.033 21.655 171.913 21.965 171.913 22.345ZM189.23 19.96V28H187.925V21.085H184.1V28H182.795V19.96H189.23ZM198.229 23.965C198.229 24.635 198.144 25.23 197.974 25.75C197.814 26.26 197.579 26.695 197.269 27.055C196.959 27.415 196.584 27.69 196.144 27.88C195.704 28.06 195.214 28.15 194.674 28.15C194.174 28.15 193.709 28.06 193.279 27.88C192.859 27.69 192.489 27.415 192.169 27.055C191.859 26.695 191.619 26.26 191.449 25.75C191.279 25.23 191.194 24.635 191.194 23.965C191.194 23.075 191.334 22.325 191.614 21.715C191.904 21.095 192.314 20.625 192.844 20.305C193.374 19.975 193.999 19.81 194.719 19.81C195.409 19.81 196.014 19.975 196.534 20.305C197.064 20.625 197.479 21.095 197.779 21.715C198.079 22.325 198.229 23.075 198.229 23.965ZM192.544 23.965C192.544 24.595 192.619 25.145 192.769 25.615C192.919 26.075 193.154 26.43 193.474 26.68C193.794 26.93 194.204 27.055 194.704 27.055C195.204 27.055 195.614 26.93 195.934 26.68C196.254 26.43 196.489 26.075 196.639 25.615C196.799 25.145 196.879 24.595 196.879 23.965C196.879 23.325 196.799 22.78 196.639 22.33C196.489 21.88 196.254 21.535 195.934 21.295C195.614 21.045 195.199 20.92 194.689 20.92C193.939 20.92 193.394 21.19 193.054 21.73C192.714 22.27 192.544 23.015 192.544 23.965ZM201.398 24.865C201.398 24.955 201.393 25.085 201.383 25.255C201.383 25.415 201.378 25.59 201.368 25.78C201.358 25.96 201.348 26.135 201.338 26.305C201.328 26.465 201.318 26.595 201.308 26.695L205.328 19.96H206.918V28H205.703V23.26C205.703 23.1 205.703 22.89 205.703 22.63C205.713 22.37 205.723 22.115 205.733 21.865C205.743 21.605 205.753 21.41 205.763 21.28L201.788 28H200.168V19.96H201.398V24.865ZM212.354 28.15C211.674 28.15 211.074 28.005 210.554 27.715C210.034 27.425 209.624 26.975 209.324 26.365C209.034 25.755 208.889 24.975 208.889 24.025C208.889 23.035 209.044 22.23 209.354 21.61C209.664 20.99 210.084 20.535 210.614 20.245C211.154 19.955 211.764 19.81 212.444 19.81C212.834 19.81 213.209 19.855 213.569 19.945C213.939 20.025 214.239 20.125 214.469 20.245L214.064 21.34C213.834 21.25 213.564 21.165 213.254 21.085C212.954 21.005 212.674 20.965 212.414 20.965C211.924 20.965 211.519 21.08 211.199 21.31C210.879 21.54 210.639 21.88 210.479 22.33C210.319 22.78 210.239 23.34 210.239 24.01C210.239 24.65 210.319 25.195 210.479 25.645C210.639 26.095 210.874 26.435 211.184 26.665C211.504 26.895 211.894 27.01 212.354 27.01C212.764 27.01 213.129 26.965 213.449 26.875C213.769 26.785 214.064 26.675 214.334 26.545V27.715C214.074 27.855 213.789 27.96 213.479 28.03C213.169 28.11 212.794 28.15 212.354 28.15ZM220.636 19.96H222.061L218.851 23.83L222.331 28H220.816L217.426 23.92V28H216.121V19.96H217.426V23.86L220.636 19.96ZM226.559 19.825C227.479 19.825 228.164 20.04 228.614 20.47C229.074 20.9 229.304 21.585 229.304 22.525V28H228.359L228.104 26.86H228.044C227.824 27.15 227.599 27.395 227.369 27.595C227.149 27.785 226.889 27.925 226.589 28.015C226.299 28.105 225.939 28.15 225.509 28.15C225.059 28.15 224.654 28.065 224.294 27.895C223.934 27.725 223.649 27.465 223.439 27.115C223.229 26.755 223.124 26.305 223.124 25.765C223.124 24.965 223.419 24.35 224.009 23.92C224.599 23.48 225.509 23.24 226.739 23.2L228.014 23.155V22.675C228.014 22.005 227.879 21.54 227.609 21.28C227.349 21.02 226.974 20.89 226.484 20.89C226.094 20.89 225.719 20.955 225.359 21.085C225.009 21.205 224.674 21.345 224.354 21.505L223.949 20.515C224.289 20.325 224.684 20.165 225.134 20.035C225.584 19.895 226.059 19.825 226.559 19.825ZM226.919 24.115C225.999 24.155 225.359 24.315 224.999 24.595C224.649 24.875 224.474 25.27 224.474 25.78C224.474 26.23 224.599 26.56 224.849 26.77C225.099 26.98 225.424 27.085 225.824 27.085C226.444 27.085 226.964 26.9 227.384 26.53C227.804 26.15 228.014 25.57 228.014 24.79V24.07L226.919 24.115Z" fill="#B7B8C5"/>
<g filter="url(#filter0_d_1_454)">
<path d="M395 2H469C480.598 2 490 11.402 490 23C490 34.598 480.598 44 469 44H395V2Z" fill="#74CCD8"/>
<path d="M429.343 27.5693H427.678V22.6793H423.058V27.5693H421.393V16.8593H423.058V21.2993H427.678V16.8593H429.343V27.5693ZM434.864 19.3343C435.814 19.3343 436.529 19.5593 437.009 20.0093C437.499 20.4493 437.744 21.1443 437.744 22.0943V27.5693H436.589L436.274 26.4443H436.214C435.984 26.7343 435.754 26.9743 435.524 27.1643C435.304 27.3543 435.044 27.4943 434.744 27.5843C434.454 27.6743 434.094 27.7193 433.664 27.7193C433.214 27.7193 432.809 27.6343 432.449 27.4643C432.089 27.2843 431.804 27.0143 431.594 26.6543C431.384 26.2843 431.279 25.8243 431.279 25.2743C431.279 24.4543 431.569 23.8293 432.149 23.3993C432.739 22.9693 433.634 22.7343 434.834 22.6943L436.124 22.6493V22.1993C436.124 21.5993 435.999 21.1793 435.749 20.9393C435.509 20.6993 435.169 20.5793 434.729 20.5793C434.359 20.5793 433.994 20.6393 433.634 20.7593C433.274 20.8793 432.924 21.0243 432.584 21.1943L432.089 20.0393C432.459 19.8393 432.879 19.6743 433.349 19.5443C433.829 19.4043 434.334 19.3343 434.864 19.3343ZM435.149 23.7143C434.329 23.7543 433.759 23.9093 433.439 24.1793C433.119 24.4393 432.959 24.8093 432.959 25.2893C432.959 25.7093 433.069 26.0143 433.289 26.2043C433.519 26.3943 433.814 26.4893 434.174 26.4893C434.724 26.4893 435.184 26.3143 435.554 25.9643C435.934 25.6143 436.124 25.0893 436.124 24.3893V23.6843L435.149 23.7143ZM446.563 16.0943C446.513 16.6043 446.383 17.0393 446.173 17.3993C445.963 17.7493 445.653 18.0193 445.243 18.2093C444.833 18.3893 444.298 18.4793 443.638 18.4793C442.968 18.4793 442.428 18.3893 442.018 18.2093C441.608 18.0193 441.308 17.7493 441.118 17.3993C440.938 17.0493 440.828 16.6143 440.788 16.0943H442.243C442.293 16.6443 442.423 17.0093 442.633 17.1893C442.853 17.3693 443.193 17.4593 443.653 17.4593C444.063 17.4593 444.388 17.3643 444.628 17.1743C444.878 16.9743 445.023 16.6143 445.063 16.0943H446.563ZM441.508 23.8943C441.508 24.0143 441.503 24.1693 441.493 24.3593C441.483 24.5493 441.473 24.7493 441.463 24.9593C441.453 25.1593 441.443 25.3493 441.433 25.5293C441.423 25.6993 441.413 25.8343 441.403 25.9343L445.198 19.4843H447.118V27.5693H445.603V23.2643C445.603 23.0743 445.608 22.8393 445.618 22.5593C445.628 22.2793 445.638 22.0093 445.648 21.7493C445.658 21.4793 445.668 21.2743 445.678 21.1343L441.913 27.5693H439.978V19.4843H441.508V23.8943ZM455.156 20.7593H452.651V27.5693H451.046V20.7593H448.571V19.4843H455.156V20.7593ZM458.149 23.8943C458.149 24.0143 458.144 24.1693 458.134 24.3593C458.124 24.5493 458.114 24.7493 458.104 24.9593C458.094 25.1593 458.084 25.3493 458.074 25.5293C458.064 25.6993 458.054 25.8343 458.044 25.9343L461.839 19.4843H463.759V27.5693H462.244V23.2643C462.244 23.0743 462.249 22.8393 462.259 22.5593C462.269 22.2793 462.279 22.0093 462.289 21.7493C462.299 21.4793 462.309 21.2743 462.319 21.1343L458.554 27.5693H456.619V19.4843H458.149V23.8943Z" fill="white"/>
</g>
<defs>
<filter id="filter0_d_1_454" x="391" y="0" width="103" height="50" filterUnits="userSpaceOnUse" color-interpolation-filters="sRGB">
<feFlood flood-opacity="0" result="BackgroundImageFix"/>
<feColorMatrix in="SourceAlpha" type="matrix" values="0 0 0 0 0 0 0 0 0 0 0 0 0 0 0 0 0 0 127 0" result="hardAlpha"/>
<feOffset dy="2"/>
<feGaussianBlur stdDeviation="2"/>
<feComposite in2="hardAlpha" operator="out"/>
<feColorMatrix type="matrix" values="0 0 0 0 0.200521 0 0 0 0 0.767083 0 0 0 0 0.875 0 0 0 0.2 0"/>
<feBlend mode="normal" in2="BackgroundImageFix" result="effect1_dropShadow_1_454"/>
<feBlend mode="normal" in="SourceGraphic" in2="effect1_dropShadow_1_454" result="shape"/>
</filter>
</defs>
</svg>
