<svg width="20" height="20" viewBox="0 0 20 20" fill="none" xmlns="http://www.w3.org/2000/svg">
<path d="M20 8.07292V10.5729C19.9479 10.7135 19.9635 10.8542 19.9479 10.9948C19.7083 13.1458 18.8854 15.0469 17.4323 16.6562C17.3021 16.8021 17.1667 16.9427 17.026 17.0833C16.9792 17.1302 16.9323 17.1771 16.8854 17.2188C16.1823 17.901 15.4062 18.4635 14.5625 18.8906L14.5573 18.8958C14.5573 18.8958 14.5573 18.8958 14.5521 18.8958V18.9062C14.1042 19.1094 13.6406 19.3177 13.1562 19.4792C13.1458 19.4844 13.1406 19.4844 13.1302 19.4896C12.6771 19.6354 12.2031 19.7552 11.7135 19.8438C11.3385 19.9115 10.9583 19.9479 10.5781 20H9.40625C9.35417 20 9.30729 19.9635 9.25521 19.9635C7.69271 19.8542 6.22917 19.401 4.89062 18.5833C3.30729 17.6146 2.09896 16.3802 1.26562 14.8906C0.734375 13.9375 0.369792 12.8802 0.151042 11.7135C0.078125 11.3333 0.0520833 10.9531 0 10.5729V9.40104C0 9.26042 0.0260417 9.11979 0.0416667 8.97917C0.197917 7.55208 0.625 6.23437 1.30208 5.03646C1.66667 4.43229 2.0625 3.85937 2.54688 3.32292C4.08854 1.61458 5.99479 0.552083 8.26562 0.151042C8.64062 0.0833333 9.02083 0.0520833 9.40104 0H10.4948C10.5729 0 10.6458 0.015625 10.724 0.0260417C11.0417 0.0625 11.3594 0.0833333 11.6719 0.135417C12.9844 0.354167 14.2031 0.822917 15.3229 1.53646C15.5781 1.69792 15.8229 1.88021 16.0833 2.05729C15.3021 3.07292 14.5312 4.07292 13.7656 5.06771C12.5417 4.14583 11.1458 3.75521 9.79167 3.80729C9.72396 3.80729 9.65104 3.8125 9.58333 3.81771C9.57812 3.81771 9.57292 3.81771 9.56771 3.81771C9.35417 3.83333 9.14062 3.85938 8.93229 3.89583C8.90104 3.90104 8.86979 3.90625 8.83854 3.91146C8.80208 3.91667 8.77083 3.92708 8.73438 3.93229C8.69271 3.94271 8.65625 3.94792 8.61458 3.95833C8.56771 3.96875 8.52604 3.97917 8.47917 3.98958C8.39062 4.01042 8.30208 4.03646 8.21354 4.0625C8.18229 4.07292 8.14583 4.07292 8.11458 4.08333C7.98438 4.125 7.85417 4.16146 7.72917 4.21354C7.66667 4.26562 7.60417 4.27083 7.54167 4.29688C7.51042 4.3125 7.47917 4.32812 7.44792 4.33854C7.36458 4.375 7.28125 4.41667 7.20312 4.45833C7.16667 4.47396 7.13021 4.49479 7.09896 4.51042C7.06771 4.52604 7.03125 4.54688 7 4.5625C6.51042 4.82812 6.0625 5.16146 5.66667 5.55208C5.23958 5.97396 4.88021 6.44792 4.59375 6.96354C3.60417 8.73438 3.48958 10.9375 4.52604 12.8906C4.53646 12.9062 4.54688 12.9271 4.55208 12.9427C5.5625 14.7969 7.4375 16.0156 9.5625 16.1562C9.56771 16.1562 9.57292 16.1562 9.57812 16.1562C9.64583 16.1615 9.71875 16.1667 9.78646 16.1667C9.79167 16.1667 9.79688 16.1667 9.80208 16.1667C10.2865 16.1823 10.7812 16.1354 11.2812 16.0312C11.7656 15.9323 12.2188 15.7656 12.6354 15.5677C12.6354 15.5677 12.6354 15.5677 12.6406 15.5677C13.0365 15.3802 13.401 15.151 13.7344 14.8906C13.7812 14.8542 13.8281 14.8177 13.875 14.7812C13.9375 14.7292 14 14.6771 14.0573 14.625C14.1562 14.5417 14.25 14.4531 14.3385 14.3646C14.3542 14.349 14.3698 14.3333 14.3854 14.3177C14.4167 14.2865 14.4479 14.25 14.4792 14.2188C14.5208 14.1771 14.5625 14.1302 14.599 14.0885C14.6198 14.0625 14.6406 14.0417 14.6615 14.0156C14.7031 13.9688 14.7396 13.9219 14.7812 13.875C14.8594 13.7812 14.9323 13.6823 15.0052 13.5885C15.0208 13.5677 15.0365 13.5469 15.0521 13.526C15.0938 13.4635 15.1406 13.401 15.1823 13.3385C15.1823 13.3385 15.1823 13.3333 15.1875 13.3333C15.2031 13.3125 15.2135 13.2917 15.2292 13.2708C15.2448 13.2448 15.2656 13.2135 15.2812 13.1875C15.2969 13.1615 15.3073 13.1406 15.3229 13.1146C15.3594 13.0573 15.3906 13 15.4219 12.9427C15.4323 12.9219 15.4427 12.901 15.4531 12.8854C15.474 12.8437 15.5 12.8021 15.5208 12.7552C15.5312 12.7344 15.5417 12.7135 15.5521 12.6927C15.5625 12.6719 15.5729 12.651 15.5833 12.6302C15.6042 12.5885 15.6198 12.5469 15.6406 12.5C15.651 12.4792 15.6562 12.4583 15.6667 12.4375C15.6823 12.3958 15.7031 12.3542 15.7187 12.3125C15.7344 12.276 15.7448 12.2396 15.7604 12.2031C15.776 12.1667 15.7865 12.1302 15.7969 12.0938C15.8229 12.0208 15.8438 11.9479 15.8594 11.8802H10V8.07812H19.7344C19.8177 8.07292 19.8958 8.07292 20 8.07292Z" fill="#FFD500"/>
<path d="M16.0833 2.05729C15.3021 3.07292 14.5312 4.07292 13.7656 5.06771C12.5416 4.14583 11.1458 3.75521 9.79165 3.80729C9.72394 3.80729 9.65102 3.8125 9.58331 3.81771V0H10.4948C10.5729 0 10.6458 0.015625 10.7239 0.0260417C11.0416 0.0625 11.3594 0.0833333 11.6719 0.135417C12.9844 0.354167 14.2031 0.822917 15.3229 1.53646C15.5833 1.69792 15.8281 1.88021 16.0833 2.05729Z" fill="#D93F21"/>
<path d="M20 8.07275V10.5728C19.9479 10.7134 19.9636 10.854 19.9479 10.9946C19.7084 13.1457 18.8854 15.0467 17.4323 16.6561C17.3021 16.8019 17.1667 16.9425 17.0261 17.0832C16.9792 17.13 16.9323 17.1769 16.8854 17.2186C16.1771 17.8957 15.4011 18.453 14.5573 18.8853H14.5521L14.5573 18.8905C14.5573 18.8905 14.5573 18.8905 14.5521 18.8905V18.9009C14.1042 19.104 13.6406 19.3123 13.1563 19.4738H9.79169V16.1665C9.7969 16.1665 9.8021 16.1665 9.80731 16.1665C10.2917 16.1821 10.7865 16.1353 11.2865 16.0311C11.7709 15.9321 12.224 15.7655 12.6406 15.5675C12.6406 15.5675 12.6406 15.5675 12.6459 15.5675C13.099 15.3488 13.5104 15.0832 13.8802 14.7811C13.9427 14.729 14.0052 14.6769 14.0625 14.6248C14.1615 14.5415 14.2552 14.453 14.3438 14.3644C14.3594 14.3488 14.375 14.3332 14.3906 14.3175C14.4219 14.2863 14.4531 14.2498 14.4844 14.2186C14.5261 14.1769 14.5677 14.13 14.6042 14.0884C14.625 14.0623 14.6459 14.0415 14.6667 14.0155C14.7084 13.9686 14.7448 13.9217 14.7865 13.8748C14.8646 13.7811 14.9375 13.6821 15.0104 13.5884C15.0261 13.5675 15.0417 13.5467 15.0573 13.5259C15.099 13.4634 15.1459 13.4009 15.1875 13.3384C15.1875 13.3384 15.1875 13.3332 15.1927 13.3332C15.2084 13.3123 15.2188 13.2915 15.2344 13.2707C15.25 13.2446 15.2709 13.2134 15.2865 13.1873C15.3021 13.1613 15.3125 13.1405 15.3281 13.1144C15.3646 13.0571 15.3959 12.9998 15.4271 12.9425C15.4375 12.9217 15.4479 12.9009 15.4584 12.8853C15.4792 12.8436 15.5052 12.8019 15.5261 12.755C15.5365 12.7342 15.5469 12.7134 15.5573 12.6925C15.5677 12.6717 15.5781 12.6509 15.5886 12.63C15.6094 12.5884 15.625 12.5467 15.6459 12.4998C15.6563 12.479 15.6615 12.4582 15.6719 12.4373C15.6875 12.3957 15.7084 12.354 15.724 12.3123C15.7396 12.2759 15.75 12.2394 15.7656 12.203C15.7813 12.1665 15.7917 12.13 15.8021 12.0936C15.8281 12.0207 15.849 11.9478 15.8646 11.88H10V8.07796H19.7344C19.8177 8.07275 19.8959 8.07275 20 8.07275Z" fill="#167EE6"/>
<path d="M14.5625 18.8905L14.5573 18.8957C14.5573 18.8957 14.5573 18.8957 14.5521 18.8957V18.9061C14.1042 19.1092 13.6406 19.3175 13.1563 19.479C13.1459 19.4842 13.1406 19.4842 13.1302 19.4894C12.6771 19.6353 12.2031 19.755 11.7136 19.8436C11.3386 19.9113 10.9584 19.9478 10.5781 19.9998H9.58856V16.1613C9.65627 16.1665 9.72919 16.1717 9.7969 16.1717C9.8021 16.1717 9.80731 16.1717 9.81252 16.1717C10.2969 16.1873 10.7917 16.1405 11.2917 16.0363C11.7761 15.9373 12.2292 15.7707 12.6459 15.5728C12.6459 15.5728 12.6459 15.5728 12.6511 15.5728H12.6615L14.5625 18.8853V18.8905Z" fill="#0F993E"/>
<path d="M9.79169 16.1717V19.9998H9.40106C9.34898 19.9998 9.3021 19.9634 9.25002 19.9634C7.68752 19.854 6.22398 19.4009 4.88544 18.5832C3.3021 17.6144 2.09377 16.38 1.26044 14.8905L4.5521 12.9478C5.56252 14.8019 7.43752 16.0207 9.56252 16.1613C9.56773 16.1613 9.57294 16.1613 9.57815 16.1613C9.65106 16.1665 9.72398 16.1665 9.79169 16.1717Z" fill="#12B347"/>
<path d="M9.79165 0V3.80729C9.72394 3.80729 9.65102 3.8125 9.58331 3.81771C9.3281 3.83333 9.08331 3.86979 8.83852 3.91667C8.80206 3.92187 8.77081 3.93229 8.73435 3.9375C8.69269 3.94792 8.65623 3.95312 8.61456 3.96354C8.56769 3.97396 8.52602 3.98437 8.47915 3.99479C8.3906 4.01562 8.30206 4.04167 8.21352 4.06771C8.18227 4.07812 8.14581 4.07812 8.11456 4.08854C7.98435 4.13021 7.85415 4.16667 7.72915 4.21875C7.66665 4.27083 7.60415 4.27604 7.54165 4.30208C7.5104 4.31771 7.47915 4.33333 7.4479 4.34375C7.36456 4.38021 7.28123 4.42187 7.2031 4.46354C7.16665 4.47917 7.13019 4.5 7.09894 4.51562C7.06769 4.53125 7.03123 4.55208 6.99998 4.56771C6.5156 4.83333 6.06769 5.16667 5.67706 5.55729C5.24998 5.97917 4.8854 6.45833 4.59894 6.96875H4.59373L1.30206 5.03646C1.66665 4.43229 2.06248 3.85937 2.54685 3.32292C4.08852 1.61458 5.99477 0.552083 8.2656 0.151042C8.6406 0.0833333 9.02081 0.0520833 9.40102 0H9.79165V0Z" fill="#FF4B26"/>
</svg>
