<svg width="1166" height="414" viewBox="0 0 1166 414" fill="none" xmlns="http://www.w3.org/2000/svg">
<path d="M443.088 29.28C441.39 29.28 439.924 29 438.692 28.44C437.46 27.88 436.499 27.04 435.808 25.92C435.118 24.7813 434.744 23.3533 434.688 21.636C434.67 20.8333 434.66 20.04 434.66 19.256C434.66 18.4533 434.67 17.6413 434.688 16.82C434.744 15.14 435.118 13.7307 435.808 12.592C436.518 11.4347 437.488 10.5667 438.72 9.988C439.971 9.40933 441.427 9.12 443.088 9.12C444.731 9.12 446.168 9.40933 447.4 9.988C448.651 10.5667 449.631 11.4347 450.34 12.592C451.05 13.7307 451.423 15.14 451.46 16.82C451.498 17.6413 451.516 18.4533 451.516 19.256C451.516 20.04 451.498 20.8333 451.46 21.636C451.404 23.3533 451.031 24.7813 450.34 25.92C449.65 27.04 448.688 27.88 447.456 28.44C446.224 29 444.768 29.28 443.088 29.28ZM443.088 25.668C444.171 25.668 445.058 25.3413 445.748 24.688C446.458 24.016 446.831 22.952 446.868 21.496C446.906 20.6747 446.924 19.9093 446.924 19.2C446.924 18.472 446.906 17.7067 446.868 16.904C446.85 15.9333 446.672 15.14 446.336 14.524C446 13.908 445.552 13.46 444.992 13.18C444.451 12.8813 443.816 12.732 443.088 12.732C442.36 12.732 441.716 12.8813 441.156 13.18C440.596 13.46 440.148 13.908 439.812 14.524C439.495 15.14 439.318 15.9333 439.28 16.904C439.262 17.7067 439.252 18.472 439.252 19.2C439.252 19.9093 439.262 20.6747 439.28 21.496C439.336 22.952 439.71 24.016 440.4 24.688C441.091 25.3413 441.987 25.668 443.088 25.668ZM459.108 29C458.903 29 458.735 28.9347 458.604 28.804C458.473 28.6733 458.408 28.5053 458.408 28.3V17.744H454.012C453.807 17.744 453.639 17.6787 453.508 17.548C453.377 17.4173 453.312 17.2493 453.312 17.044V15.14C453.312 14.9347 453.377 14.7667 453.508 14.636C453.639 14.5053 453.807 14.44 454.012 14.44H466.92C467.125 14.44 467.293 14.5053 467.424 14.636C467.555 14.7667 467.62 14.9347 467.62 15.14V17.044C467.62 17.2493 467.555 17.4173 467.424 17.548C467.293 17.6787 467.125 17.744 466.92 17.744H462.524V28.3C462.524 28.5053 462.459 28.6733 462.328 28.804C462.197 28.9347 462.039 29 461.852 29H459.108ZM475.602 29.28C474.351 29.28 473.315 29.14 472.494 28.86C471.672 28.58 471.01 28.2253 470.506 27.796C470.02 27.348 469.666 26.8813 469.442 26.396C469.236 25.9107 469.115 25.472 469.078 25.08C469.059 24.9307 469.106 24.8093 469.218 24.716C469.33 24.604 469.451 24.548 469.582 24.548H472.326C472.531 24.548 472.68 24.5947 472.774 24.688C472.886 24.7627 472.979 24.8747 473.054 25.024C473.24 25.4907 473.548 25.8267 473.978 26.032C474.426 26.2187 475.004 26.312 475.714 26.312C476.18 26.312 476.6 26.2467 476.974 26.116C477.347 25.9853 477.627 25.7987 477.814 25.556C478.019 25.2947 478.122 24.968 478.122 24.576C478.122 24.0347 477.963 23.624 477.646 23.344C477.328 23.0453 476.796 22.896 476.05 22.896H474.51C474.323 22.896 474.174 22.84 474.062 22.728C473.95 22.5973 473.894 22.448 473.894 22.28V20.908C473.894 20.74 473.95 20.6 474.062 20.488C474.174 20.3573 474.323 20.292 474.51 20.292H475.966C476.582 20.292 477.039 20.18 477.338 19.956C477.636 19.7133 477.786 19.3493 477.786 18.864C477.786 18.5653 477.711 18.2853 477.562 18.024C477.431 17.7627 477.207 17.5573 476.89 17.408C476.572 17.24 476.134 17.156 475.574 17.156C474.79 17.156 474.23 17.2773 473.894 17.52C473.558 17.7627 473.306 18.1267 473.138 18.612C473.063 18.7613 472.97 18.8733 472.858 18.948C472.764 19.0227 472.615 19.06 472.41 19.06H469.75C469.6 19.06 469.47 19.0133 469.358 18.92C469.264 18.8267 469.218 18.7053 469.218 18.556C469.255 18.052 469.395 17.548 469.638 17.044C469.88 16.5213 470.244 16.0453 470.73 15.616C471.234 15.168 471.878 14.8133 472.662 14.552C473.464 14.2907 474.444 14.16 475.602 14.16C477.132 14.16 478.355 14.356 479.27 14.748C480.184 15.14 480.838 15.6533 481.23 16.288C481.64 16.904 481.846 17.576 481.846 18.304C481.846 18.9573 481.715 19.5453 481.454 20.068C481.192 20.572 480.726 20.992 480.054 21.328C480.894 21.6453 481.472 22.1307 481.79 22.784C482.107 23.4373 482.266 24.1373 482.266 24.884C482.284 25.7987 482.014 26.5827 481.454 27.236C480.912 27.8893 480.138 28.3933 479.13 28.748C478.14 29.1027 476.964 29.28 475.602 29.28ZM485.735 29C485.548 29 485.39 28.9347 485.259 28.804C485.128 28.6733 485.063 28.5053 485.063 28.3V15.14C485.063 14.9347 485.128 14.7667 485.259 14.636C485.39 14.5053 485.548 14.44 485.735 14.44H488.563C488.75 14.44 488.908 14.5053 489.039 14.636C489.17 14.7667 489.235 14.9347 489.235 15.14V18.976H491.895C493.78 18.976 495.218 19.4333 496.207 20.348C497.196 21.244 497.691 22.476 497.691 24.044C497.691 25.6867 497.168 26.928 496.123 27.768C495.078 28.5893 493.603 29 491.699 29H485.735ZM489.179 26.06H491.531C492.352 26.06 492.95 25.9107 493.323 25.612C493.715 25.2947 493.911 24.772 493.911 24.044C493.911 23.3347 493.724 22.8027 493.351 22.448C492.978 22.0933 492.371 21.916 491.531 21.916H489.179V26.06ZM500.183 29C499.978 29 499.81 28.9347 499.679 28.804C499.548 28.6733 499.483 28.5053 499.483 28.3V15.14C499.483 14.9347 499.548 14.7667 499.679 14.636C499.81 14.5053 499.978 14.44 500.183 14.44H502.983C503.17 14.44 503.328 14.5053 503.459 14.636C503.59 14.7667 503.655 14.9347 503.655 15.14V28.3C503.655 28.5053 503.59 28.6733 503.459 28.804C503.328 28.9347 503.17 29 502.983 29H500.183ZM507.938 29C507.751 29 507.593 28.9347 507.462 28.804C507.331 28.6733 507.266 28.5053 507.266 28.3V15.14C507.266 14.9347 507.331 14.7667 507.462 14.636C507.593 14.5053 507.751 14.44 507.938 14.44H514.322C516.413 14.44 517.943 14.8133 518.914 15.56C519.903 16.288 520.398 17.2773 520.398 18.528C520.398 19.2747 520.258 19.872 519.978 20.32C519.698 20.7493 519.306 21.1227 518.802 21.44C519.437 21.7387 519.931 22.1867 520.286 22.784C520.659 23.3627 520.846 24.016 520.846 24.744C520.846 26.0693 520.333 27.1147 519.306 27.88C518.279 28.6267 516.739 29 514.686 29H507.938ZM511.298 26.256H514.434C515.087 26.256 515.61 26.1347 516.002 25.892C516.413 25.6307 516.618 25.2293 516.618 24.688C516.618 24.128 516.431 23.7267 516.058 23.484C515.685 23.2413 515.143 23.12 514.434 23.12H511.298V26.256ZM511.298 20.264H514.322C514.994 20.264 515.526 20.124 515.918 19.844C516.31 19.564 516.506 19.1627 516.506 18.64C516.506 18.0987 516.31 17.7253 515.918 17.52C515.526 17.296 514.994 17.184 514.322 17.184H511.298V20.264ZM524.563 29C524.376 29 524.218 28.9347 524.087 28.804C523.956 28.6733 523.891 28.5053 523.891 28.3V15.14C523.891 14.9347 523.956 14.7667 524.087 14.636C524.218 14.5053 524.376 14.44 524.563 14.44H527.391C527.578 14.44 527.736 14.5053 527.867 14.636C527.998 14.7667 528.063 14.9347 528.063 15.14V18.976H530.723C532.608 18.976 534.046 19.4333 535.035 20.348C536.024 21.244 536.519 22.476 536.519 24.044C536.519 25.6867 535.996 26.928 534.951 27.768C533.906 28.5893 532.431 29 530.527 29H524.563ZM528.007 26.06H530.359C531.18 26.06 531.778 25.9107 532.151 25.612C532.543 25.2947 532.739 24.772 532.739 24.044C532.739 23.3347 532.552 22.8027 532.179 22.448C531.806 22.0933 531.199 21.916 530.359 21.916H528.007V26.06ZM539.011 29C538.806 29 538.638 28.9347 538.507 28.804C538.376 28.6733 538.311 28.5053 538.311 28.3V15.14C538.311 14.9347 538.376 14.7667 538.507 14.636C538.638 14.5053 538.806 14.44 539.011 14.44H541.811C541.998 14.44 542.156 14.5053 542.287 14.636C542.418 14.7667 542.483 14.9347 542.483 15.14V28.3C542.483 28.5053 542.418 28.6733 542.287 28.804C542.156 28.9347 541.998 29 541.811 29H539.011ZM552.946 29C552.759 29 552.6 28.9347 552.47 28.804C552.339 28.6733 552.274 28.5053 552.274 28.3V15.14C552.274 14.9347 552.339 14.7667 552.47 14.636C552.6 14.5053 552.759 14.44 552.946 14.44H565.35C565.536 14.44 565.695 14.5053 565.826 14.636C565.956 14.7667 566.022 14.9347 566.022 15.14V28.3C566.022 28.5053 565.956 28.6733 565.826 28.804C565.695 28.9347 565.536 29 565.35 29H562.55C562.344 29 562.176 28.9347 562.046 28.804C561.915 28.6733 561.85 28.5053 561.85 28.3V17.744H556.446V28.3C556.446 28.5053 556.38 28.6733 556.25 28.804C556.119 28.9347 555.951 29 555.746 29H552.946ZM576.328 29.28C574.779 29.28 573.482 29.028 572.436 28.524C571.391 28.0013 570.588 27.264 570.028 26.312C569.487 25.36 569.188 24.2493 569.132 22.98C569.114 22.6067 569.104 22.1867 569.104 21.72C569.104 21.2347 569.114 20.8147 569.132 20.46C569.188 19.172 569.506 18.0613 570.084 17.128C570.663 16.176 571.475 15.448 572.52 14.944C573.566 14.4213 574.835 14.16 576.328 14.16C577.803 14.16 579.063 14.4213 580.108 14.944C581.154 15.448 581.966 16.176 582.544 17.128C583.123 18.0613 583.44 19.172 583.496 20.46C583.534 20.8147 583.552 21.2347 583.552 21.72C583.552 22.1867 583.534 22.6067 583.496 22.98C583.44 24.2493 583.132 25.36 582.572 26.312C582.031 27.264 581.238 28.0013 580.192 28.524C579.147 29.028 577.859 29.28 576.328 29.28ZM576.328 26.2C577.243 26.2 577.934 25.92 578.4 25.36C578.867 24.7813 579.119 23.9413 579.156 22.84C579.175 22.56 579.184 22.1867 579.184 21.72C579.184 21.2533 579.175 20.88 579.156 20.6C579.119 19.5173 578.867 18.6867 578.4 18.108C577.934 17.5293 577.243 17.24 576.328 17.24C575.414 17.24 574.714 17.5293 574.228 18.108C573.762 18.6867 573.51 19.5173 573.472 20.6C573.454 20.88 573.444 21.2533 573.444 21.72C573.444 22.1867 573.454 22.56 573.472 22.84C573.51 23.9413 573.762 24.7813 574.228 25.36C574.714 25.92 575.414 26.2 576.328 26.2ZM587.153 29C586.966 29 586.808 28.9347 586.677 28.804C586.546 28.6733 586.481 28.5053 586.481 28.3V15.14C586.481 14.9347 586.546 14.7667 586.677 14.636C586.808 14.5053 586.966 14.44 587.153 14.44H589.897C590.102 14.44 590.27 14.5053 590.401 14.636C590.532 14.7667 590.597 14.9347 590.597 15.14V19.956H592.361L595.609 14.888C595.665 14.776 595.749 14.6733 595.861 14.58C595.992 14.4867 596.16 14.44 596.365 14.44H599.417C599.585 14.44 599.725 14.496 599.837 14.608C599.968 14.7013 600.033 14.8227 600.033 14.972C600.033 15.028 600.014 15.0933 599.977 15.168C599.958 15.2427 599.93 15.308 599.893 15.364L595.945 21.468L600.509 28.104C600.584 28.216 600.621 28.3373 600.621 28.468C600.621 28.6173 600.565 28.748 600.453 28.86C600.341 28.9533 600.201 29 600.033 29H596.645C596.458 29 596.3 28.9627 596.169 28.888C596.057 28.7947 595.954 28.6827 595.861 28.552L592.333 23.288H590.597V28.3C590.597 28.5053 590.532 28.6733 590.401 28.804C590.27 28.9347 590.102 29 589.897 29H587.153ZM604.146 34.348C603.94 34.348 603.772 34.2733 603.642 34.124C603.511 33.9933 603.446 33.8347 603.446 33.648V31.716C603.446 31.5293 603.511 31.3707 603.642 31.24C603.772 31.1093 603.94 31.044 604.146 31.044H605.07C605.424 31.044 605.714 30.9693 605.938 30.82C606.18 30.6893 606.395 30.4653 606.582 30.148C606.768 29.8307 606.983 29.392 607.226 28.832L612.938 15C612.994 14.8507 613.078 14.72 613.19 14.608C613.32 14.496 613.498 14.44 613.722 14.44H616.298C616.447 14.44 616.578 14.5053 616.69 14.636C616.82 14.748 616.886 14.8787 616.886 15.028C616.886 15.0653 616.876 15.1213 616.858 15.196C616.858 15.252 616.839 15.3267 616.802 15.42L611.482 28.188C611.127 29.0467 610.754 29.8493 610.362 30.596C609.988 31.3427 609.578 31.996 609.13 32.556C608.682 33.116 608.15 33.5547 607.534 33.872C606.936 34.1893 606.246 34.348 605.462 34.348H604.146ZM607.59 28.664L601.906 15.42C601.831 15.2707 601.794 15.1493 601.794 15.056C601.812 14.888 601.878 14.748 601.99 14.636C602.12 14.5053 602.27 14.44 602.438 14.44H605.126C605.35 14.44 605.518 14.5053 605.63 14.636C605.742 14.748 605.826 14.8693 605.882 15L610.082 25.472L607.59 28.664ZM619.883 29C619.697 29 619.538 28.9347 619.407 28.804C619.277 28.6733 619.211 28.5053 619.211 28.3V15.14C619.211 14.9347 619.277 14.7667 619.407 14.636C619.538 14.5053 619.697 14.44 619.883 14.44H632.287C632.474 14.44 632.633 14.5053 632.763 14.636C632.894 14.7667 632.959 14.9347 632.959 15.14V28.3C632.959 28.5053 632.894 28.6733 632.763 28.804C632.633 28.9347 632.474 29 632.287 29H629.487C629.282 29 629.114 28.9347 628.983 28.804C628.853 28.6733 628.787 28.5053 628.787 28.3V17.744H623.383V28.3C623.383 28.5053 623.318 28.6733 623.187 28.804C623.057 28.9347 622.889 29 622.683 29H619.883ZM640.886 29.28C639.897 29.28 639.01 29.0933 638.226 28.72C637.442 28.328 636.817 27.8053 636.35 27.152C635.883 26.4987 635.65 25.7707 635.65 24.968C635.65 23.6427 636.182 22.5973 637.246 21.832C638.329 21.0667 639.747 20.544 641.502 20.264L645.17 19.732V19.228C645.17 18.5 645.002 17.94 644.666 17.548C644.33 17.156 643.742 16.96 642.902 16.96C642.286 16.96 641.791 17.0813 641.418 17.324C641.045 17.5667 640.755 17.884 640.55 18.276C640.401 18.5187 640.186 18.64 639.906 18.64H637.246C637.041 18.64 636.882 18.584 636.77 18.472C636.658 18.3413 636.611 18.192 636.63 18.024C636.63 17.7067 636.751 17.3333 636.994 16.904C637.237 16.4747 637.61 16.0547 638.114 15.644C638.618 15.2147 639.262 14.86 640.046 14.58C640.83 14.3 641.791 14.16 642.93 14.16C644.106 14.16 645.114 14.3 645.954 14.58C646.794 14.86 647.466 15.252 647.97 15.756C648.474 16.26 648.847 16.848 649.09 17.52C649.333 18.1733 649.454 18.8827 649.454 19.648V28.3C649.454 28.5053 649.389 28.6733 649.258 28.804C649.127 28.9347 648.959 29 648.754 29H646.01C645.823 29 645.665 28.9347 645.534 28.804C645.403 28.6733 645.338 28.5053 645.338 28.3V27.264C645.095 27.6187 644.769 27.9547 644.358 28.272C643.947 28.5707 643.453 28.8133 642.874 29C642.314 29.1867 641.651 29.28 640.886 29.28ZM642.006 26.368C642.622 26.368 643.173 26.2373 643.658 25.976C644.143 25.7147 644.526 25.3133 644.806 24.772C645.086 24.2307 645.226 23.5493 645.226 22.728V22.252L642.622 22.672C641.614 22.84 640.877 23.092 640.41 23.428C639.943 23.764 639.71 24.1747 639.71 24.66C639.71 25.0147 639.813 25.3227 640.018 25.584C640.242 25.8453 640.531 26.0413 640.886 26.172C641.241 26.3027 641.614 26.368 642.006 26.368ZM657.268 29C657.063 29 656.895 28.9347 656.764 28.804C656.633 28.6733 656.568 28.5053 656.568 28.3V17.744H652.172C651.967 17.744 651.799 17.6787 651.668 17.548C651.537 17.4173 651.472 17.2493 651.472 17.044V15.14C651.472 14.9347 651.537 14.7667 651.668 14.636C651.799 14.5053 651.967 14.44 652.172 14.44H665.08C665.285 14.44 665.453 14.5053 665.584 14.636C665.715 14.7667 665.78 14.9347 665.78 15.14V17.044C665.78 17.2493 665.715 17.4173 665.584 17.548C665.453 17.6787 665.285 17.744 665.08 17.744H660.684V28.3C660.684 28.5053 660.619 28.6733 660.488 28.804C660.357 28.9347 660.199 29 660.012 29H657.268ZM674.434 29.28C672.287 29.28 670.579 28.6827 669.31 27.488C668.059 26.2933 667.397 24.5573 667.322 22.28C667.322 22.1307 667.322 21.9347 667.322 21.692C667.322 21.4307 667.322 21.2253 667.322 21.076C667.397 19.6387 667.723 18.4067 668.302 17.38C668.881 16.3347 669.693 15.5413 670.738 15C671.783 14.44 673.006 14.16 674.406 14.16C675.974 14.16 677.281 14.4867 678.326 15.14C679.39 15.7747 680.183 16.652 680.706 17.772C681.247 18.8733 681.518 20.1427 681.518 21.58V22.224C681.518 22.4107 681.443 22.5693 681.294 22.7C681.163 22.8307 681.005 22.896 680.818 22.896H671.662C671.662 22.9147 671.662 22.952 671.662 23.008C671.662 23.0453 671.662 23.0827 671.662 23.12C671.681 23.7173 671.793 24.268 671.998 24.772C672.222 25.2573 672.53 25.6493 672.922 25.948C673.333 26.2467 673.818 26.396 674.378 26.396C674.845 26.396 675.227 26.3307 675.526 26.2C675.825 26.0693 676.067 25.9107 676.254 25.724C676.459 25.5373 676.609 25.3787 676.702 25.248C676.87 25.0613 677.001 24.9493 677.094 24.912C677.206 24.856 677.374 24.828 677.598 24.828H680.51C680.697 24.828 680.846 24.884 680.958 24.996C681.089 25.0893 681.145 25.2293 681.126 25.416C681.107 25.7147 680.949 26.088 680.65 26.536C680.37 26.9653 679.95 27.3947 679.39 27.824C678.83 28.2347 678.13 28.58 677.29 28.86C676.469 29.14 675.517 29.28 674.434 29.28ZM671.662 20.348H677.15V20.292C677.15 19.62 677.038 19.0413 676.814 18.556C676.609 18.052 676.301 17.66 675.89 17.38C675.479 17.1 674.985 16.96 674.406 16.96C673.827 16.96 673.333 17.1 672.922 17.38C672.511 17.66 672.194 18.052 671.97 18.556C671.765 19.0413 671.662 19.62 671.662 20.292V20.348ZM683.953 29C683.766 29 683.598 28.9347 683.449 28.804C683.318 28.6547 683.253 28.4867 683.253 28.3V26.2C683.253 25.7893 683.477 25.5653 683.925 25.528C684.466 25.472 684.886 25.22 685.185 24.772C685.502 24.3053 685.726 23.596 685.857 22.644C685.987 21.692 686.053 20.4693 686.053 18.976V15.14C686.053 14.9347 686.118 14.7667 686.249 14.636C686.379 14.5053 686.547 14.44 686.753 14.44H697.197C697.402 14.44 697.57 14.5053 697.701 14.636C697.831 14.7667 697.897 14.9347 697.897 15.14V28.3C697.897 28.5053 697.831 28.6733 697.701 28.804C697.57 28.9347 697.402 29 697.197 29H694.397C694.21 29 694.042 28.9347 693.893 28.804C693.762 28.6733 693.697 28.5053 693.697 28.3V17.744H690.057V19.452C690.057 21.2253 689.954 22.728 689.749 23.96C689.562 25.192 689.235 26.1813 688.769 26.928C688.302 27.656 687.677 28.188 686.893 28.524C686.109 28.8413 685.129 29 683.953 29ZM708.012 29.28C705.865 29.28 704.157 28.6827 702.888 27.488C701.637 26.2933 700.975 24.5573 700.9 22.28C700.9 22.1307 700.9 21.9347 700.9 21.692C700.9 21.4307 700.9 21.2253 700.9 21.076C700.975 19.6387 701.301 18.4067 701.88 17.38C702.459 16.3347 703.271 15.5413 704.316 15C705.361 14.44 706.584 14.16 707.984 14.16C709.552 14.16 710.859 14.4867 711.904 15.14C712.968 15.7747 713.761 16.652 714.284 17.772C714.825 18.8733 715.096 20.1427 715.096 21.58V22.224C715.096 22.4107 715.021 22.5693 714.872 22.7C714.741 22.8307 714.583 22.896 714.396 22.896H705.24C705.24 22.9147 705.24 22.952 705.24 23.008C705.24 23.0453 705.24 23.0827 705.24 23.12C705.259 23.7173 705.371 24.268 705.576 24.772C705.8 25.2573 706.108 25.6493 706.5 25.948C706.911 26.2467 707.396 26.396 707.956 26.396C708.423 26.396 708.805 26.3307 709.104 26.2C709.403 26.0693 709.645 25.9107 709.832 25.724C710.037 25.5373 710.187 25.3787 710.28 25.248C710.448 25.0613 710.579 24.9493 710.672 24.912C710.784 24.856 710.952 24.828 711.176 24.828H714.088C714.275 24.828 714.424 24.884 714.536 24.996C714.667 25.0893 714.723 25.2293 714.704 25.416C714.685 25.7147 714.527 26.088 714.228 26.536C713.948 26.9653 713.528 27.3947 712.968 27.824C712.408 28.2347 711.708 28.58 710.868 28.86C710.047 29.14 709.095 29.28 708.012 29.28ZM705.24 20.348H710.728V20.292C710.728 19.62 710.616 19.0413 710.392 18.556C710.187 18.052 709.879 17.66 709.468 17.38C709.057 17.1 708.563 16.96 707.984 16.96C707.405 16.96 706.911 17.1 706.5 17.38C706.089 17.66 705.772 18.052 705.548 18.556C705.343 19.0413 705.24 19.62 705.24 20.292V20.348ZM718.539 29C718.371 29 718.222 28.9347 718.091 28.804C717.96 28.6733 717.895 28.5147 717.895 28.328V15.14C717.895 14.9347 717.96 14.7667 718.091 14.636C718.222 14.5053 718.38 14.44 718.567 14.44H721.367C721.572 14.44 721.74 14.5053 721.871 14.636C722.002 14.7667 722.067 14.9347 722.067 15.14V25.78L720.947 25.136L728.255 14.888C728.348 14.7573 728.451 14.6547 728.563 14.58C728.694 14.4867 728.852 14.44 729.039 14.44H731.559C731.746 14.44 731.904 14.5053 732.035 14.636C732.166 14.7667 732.231 14.916 732.231 15.084V28.3C732.231 28.5053 732.166 28.6733 732.035 28.804C731.904 28.9347 731.736 29 731.531 29H728.731C728.544 29 728.386 28.9347 728.255 28.804C728.124 28.6733 728.059 28.5053 728.059 28.3V18.08L729.207 18.276L721.843 28.552C721.768 28.6827 721.666 28.7947 721.535 28.888C721.404 28.9627 721.255 29 721.087 29H718.539ZM725.259 12.536C724.12 12.536 723.196 12.3587 722.487 12.004C721.796 11.6493 721.292 11.1827 720.975 10.604C720.676 10.0067 720.527 9.35333 720.527 8.644C720.527 8.49467 720.564 8.37333 720.639 8.28C720.732 8.168 720.872 8.112 721.059 8.112H722.963C723.131 8.112 723.262 8.168 723.355 8.28C723.448 8.37333 723.495 8.49467 723.495 8.644C723.495 9.05467 723.616 9.41867 723.859 9.736C724.102 10.0533 724.568 10.212 725.259 10.212C725.968 10.212 726.435 10.0533 726.659 9.736C726.902 9.41867 727.023 9.05467 727.023 8.644C727.023 8.49467 727.07 8.37333 727.163 8.28C727.256 8.168 727.387 8.112 727.555 8.112H729.459C729.627 8.112 729.758 8.168 729.851 8.28C729.944 8.37333 729.991 8.49467 729.991 8.644C729.991 9.35333 729.832 10.0067 729.515 10.604C729.216 11.1827 728.722 11.6493 728.031 12.004C727.34 12.3587 726.416 12.536 725.259 12.536Z" fill="#090F24"/>
<path d="M450.75 59.904C450.238 59.904 449.774 60.0053 449.358 60.208C448.953 60.4 448.606 60.688 448.318 61.072C448.041 61.456 447.828 61.92 447.678 62.464C447.529 63.008 447.454 63.6213 447.454 64.304C447.454 65.2 447.577 65.9787 447.822 66.64C448.068 67.2907 448.436 67.792 448.926 68.144C449.417 68.496 450.025 68.672 450.75 68.672C451.22 68.672 451.668 68.6293 452.094 68.544C452.521 68.448 452.953 68.3253 453.39 68.176V69.664C452.964 69.8347 452.526 69.9573 452.078 70.032C451.641 70.1173 451.129 70.16 450.542 70.16C449.433 70.16 448.516 69.92 447.79 69.44C447.065 68.96 446.521 68.2773 446.158 67.392C445.796 66.5067 445.614 65.472 445.614 64.288C445.614 63.424 445.726 62.6347 445.95 61.92C446.174 61.1947 446.505 60.5707 446.942 60.048C447.38 59.5253 447.918 59.1253 448.558 58.848C449.198 58.56 449.929 58.416 450.75 58.416C451.305 58.416 451.849 58.48 452.382 58.608C452.916 58.7253 453.39 58.896 453.806 59.12L453.182 60.56C452.83 60.3893 452.446 60.24 452.03 60.112C451.625 59.9733 451.198 59.904 450.75 59.904ZM459.657 61.216C460.628 61.216 461.407 61.5893 461.993 62.336C462.58 63.0827 462.873 64.1973 462.873 65.68C462.873 66.6507 462.735 67.472 462.457 68.144C462.191 68.816 461.812 69.3227 461.321 69.664C460.831 69.9947 460.26 70.16 459.609 70.16C459.215 70.16 458.863 70.1067 458.553 70C458.244 69.8827 457.983 69.7333 457.769 69.552C457.567 69.36 457.385 69.1573 457.225 68.944H457.129C457.151 69.136 457.172 69.3653 457.193 69.632C457.215 69.888 457.225 70.1173 457.225 70.32V73.84H455.497V61.376H456.905L457.145 62.528H457.225C457.385 62.2933 457.572 62.0747 457.785 61.872C458.009 61.6693 458.271 61.5093 458.569 61.392C458.879 61.2747 459.241 61.216 459.657 61.216ZM459.193 62.608C458.724 62.608 458.345 62.7147 458.057 62.928C457.769 63.1307 457.556 63.44 457.417 63.856C457.289 64.2613 457.225 64.7787 457.225 65.408V65.664C457.225 66.3253 457.284 66.8907 457.401 67.36C457.529 67.8187 457.737 68.1707 458.025 68.416C458.324 68.6507 458.724 68.768 459.225 68.768C459.652 68.768 460.004 68.64 460.281 68.384C460.559 68.1173 460.761 67.7493 460.889 67.28C461.028 66.8107 461.097 66.2667 461.097 65.648C461.097 64.7093 460.937 63.968 460.617 63.424C460.308 62.88 459.833 62.608 459.193 62.608ZM468.121 61.216C468.835 61.216 469.454 61.376 469.977 61.696C470.499 62.0053 470.899 62.4533 471.177 63.04C471.465 63.6267 471.609 64.32 471.609 65.12V66.048H466.185C466.206 66.9333 466.419 67.6107 466.825 68.08C467.23 68.5493 467.801 68.784 468.537 68.784C469.059 68.784 469.523 68.736 469.929 68.64C470.345 68.5333 470.766 68.3787 471.193 68.176V69.584C470.787 69.776 470.371 69.92 469.945 70.016C469.529 70.112 469.022 70.16 468.425 70.16C467.646 70.16 466.953 69.9947 466.345 69.664C465.737 69.3333 465.262 68.8427 464.921 68.192C464.579 67.5307 464.409 66.72 464.409 65.76C464.409 64.7893 464.563 63.968 464.873 63.296C465.182 62.624 465.614 62.112 466.169 61.76C466.734 61.3973 467.385 61.216 468.121 61.216ZM468.121 62.528C467.577 62.528 467.139 62.7253 466.809 63.12C466.478 63.5147 466.286 64.0747 466.233 64.8H469.897C469.897 64.352 469.833 63.9573 469.705 63.616C469.577 63.2747 469.379 63.008 469.113 62.816C468.857 62.624 468.526 62.528 468.121 62.528ZM480.12 61.376V68.656H481.304V73.024H479.688V70H474.184V73.024H472.584V68.656H473.24C473.667 67.9947 474.019 67.2693 474.296 66.48C474.584 65.6907 474.803 64.864 474.952 64C475.112 63.1253 475.203 62.2507 475.224 61.376H480.12ZM476.696 62.688C476.643 63.3813 476.542 64.0907 476.392 64.816C476.243 65.5413 476.056 66.2347 475.832 66.896C475.608 67.5573 475.342 68.144 475.032 68.656H478.408V62.688H476.696ZM484.507 61.376V64.88H488.331V61.376H490.059V70H488.331V66.24H484.507V70H482.779V61.376H484.507ZM493.345 70H491.409L493.665 66.448C493.367 66.3413 493.084 66.192 492.817 66C492.551 65.808 492.332 65.5413 492.161 65.2C492.001 64.8587 491.921 64.4427 491.921 63.952C491.921 63.12 492.199 62.4853 492.753 62.048C493.308 61.6 494.049 61.376 494.977 61.376H498.689V70H496.961V66.64H495.313L493.345 70ZM493.617 63.968C493.617 64.4267 493.767 64.7733 494.065 65.008C494.364 65.232 494.791 65.344 495.345 65.344H496.961V62.688H495.121C494.588 62.688 494.204 62.8107 493.969 63.056C493.735 63.3013 493.617 63.6053 493.617 63.968ZM501.97 70H500.034L502.29 66.448C501.992 66.3413 501.709 66.192 501.442 66C501.176 65.808 500.957 65.5413 500.786 65.2C500.626 64.8587 500.546 64.4427 500.546 63.952C500.546 63.12 500.824 62.4853 501.378 62.048C501.933 61.6 502.674 61.376 503.602 61.376H507.314V70H505.586V66.64H503.938L501.97 70ZM502.242 63.968C502.242 64.4267 502.392 64.7733 502.69 65.008C502.989 65.232 503.416 65.344 503.97 65.344H505.586V62.688H503.746C503.213 62.688 502.829 62.8107 502.594 63.056C502.36 63.3013 502.242 63.6053 502.242 63.968ZM520.902 65.68C520.902 66.3947 520.811 67.0293 520.63 67.584C520.448 68.1387 520.187 68.608 519.846 68.992C519.515 69.376 519.11 69.6693 518.63 69.872C518.15 70.064 517.611 70.16 517.014 70.16C516.47 70.16 515.963 70.064 515.494 69.872C515.024 69.6693 514.619 69.376 514.278 68.992C513.936 68.608 513.67 68.1387 513.478 67.584C513.296 67.0293 513.206 66.3893 513.206 65.664C513.206 64.7147 513.36 63.9093 513.67 63.248C513.979 62.5867 514.422 62.0853 514.998 61.744C515.584 61.392 516.278 61.216 517.078 61.216C517.824 61.216 518.486 61.392 519.062 61.744C519.638 62.0853 520.086 62.5867 520.406 63.248C520.736 63.9093 520.902 64.72 520.902 65.68ZM514.998 65.68C514.998 66.32 515.067 66.8747 515.206 67.344C515.355 67.8027 515.579 68.1547 515.878 68.4C516.187 68.6453 516.576 68.768 517.046 68.768C517.526 68.768 517.915 68.6453 518.214 68.4C518.523 68.1547 518.747 67.8027 518.886 67.344C519.035 66.8747 519.11 66.32 519.11 65.68C519.11 65.0187 519.035 64.464 518.886 64.016C518.736 63.568 518.512 63.2267 518.214 62.992C517.915 62.7467 517.52 62.624 517.03 62.624C516.315 62.624 515.798 62.8907 515.478 63.424C515.158 63.9573 514.998 64.7093 514.998 65.68ZM531.368 73.024H529.752V70H522.872V61.376H524.6V68.64H528.36V61.376H530.104V68.656H531.368V73.024ZM536.089 61.216C536.804 61.216 537.423 61.376 537.945 61.696C538.468 62.0053 538.868 62.4533 539.145 63.04C539.433 63.6267 539.577 64.32 539.577 65.12V66.048H534.153C534.175 66.9333 534.388 67.6107 534.793 68.08C535.199 68.5493 535.769 68.784 536.505 68.784C537.028 68.784 537.492 68.736 537.897 68.64C538.313 68.5333 538.735 68.3787 539.161 68.176V69.584C538.756 69.776 538.34 69.92 537.913 70.016C537.497 70.112 536.991 70.16 536.393 70.16C535.615 70.16 534.921 69.9947 534.313 69.664C533.705 69.3333 533.231 68.8427 532.889 68.192C532.548 67.5307 532.377 66.72 532.377 65.76C532.377 64.7893 532.532 63.968 532.841 63.296C533.151 62.624 533.583 62.112 534.137 61.76C534.703 61.3973 535.353 61.216 536.089 61.216ZM536.089 62.528C535.545 62.528 535.108 62.7253 534.777 63.12C534.447 63.5147 534.255 64.0747 534.201 64.8H537.865C537.865 64.352 537.801 63.9573 537.673 63.616C537.545 63.2747 537.348 63.008 537.081 62.816C536.825 62.624 536.495 62.528 536.089 62.528ZM543.241 61.376V64.88H547.065V61.376H548.793V70H547.065V66.24H543.241V70H541.513V61.376H543.241ZM556.272 61.376H558.176L554.832 65.52L558.464 70H556.464L552.96 65.632V70H551.232V61.376H552.96V65.568L556.272 61.376ZM563.043 61.216C564.056 61.216 564.819 61.456 565.331 61.936C565.853 62.4053 566.115 63.1467 566.115 64.16V70H564.883L564.547 68.8H564.483C564.237 69.1093 563.992 69.3653 563.747 69.568C563.512 69.7707 563.235 69.92 562.915 70.016C562.605 70.112 562.221 70.16 561.763 70.16C561.283 70.16 560.851 70.0693 560.467 69.888C560.083 69.696 559.779 69.408 559.555 69.024C559.331 68.6293 559.219 68.1387 559.219 67.552C559.219 66.6773 559.528 66.0107 560.147 65.552C560.776 65.0933 561.731 64.8427 563.011 64.8L564.387 64.752V64.272C564.387 63.632 564.253 63.184 563.987 62.928C563.731 62.672 563.368 62.544 562.899 62.544C562.504 62.544 562.115 62.608 561.731 62.736C561.347 62.864 560.973 63.0187 560.611 63.2L560.083 61.968C560.477 61.7547 560.925 61.5787 561.427 61.44C561.939 61.2907 562.477 61.216 563.043 61.216ZM563.347 65.888C562.472 65.9307 561.864 66.096 561.523 66.384C561.181 66.6613 561.011 67.056 561.011 67.568C561.011 68.016 561.128 68.3413 561.363 68.544C561.608 68.7467 561.923 68.848 562.307 68.848C562.893 68.848 563.384 68.6613 563.779 68.288C564.184 67.9147 564.387 67.3547 564.387 66.608V65.856L563.347 65.888ZM574.132 61.376V64.88H577.956V61.376H579.684V70H577.956V66.24H574.132V70H572.404V61.376H574.132ZM585.386 61.216C586.4 61.216 587.162 61.456 587.674 61.936C588.197 62.4053 588.458 63.1467 588.458 64.16V70H587.226L586.89 68.8H586.826C586.581 69.1093 586.336 69.3653 586.09 69.568C585.856 69.7707 585.578 69.92 585.258 70.016C584.949 70.112 584.565 70.16 584.106 70.16C583.626 70.16 583.194 70.0693 582.81 69.888C582.426 69.696 582.122 69.408 581.898 69.024C581.674 68.6293 581.562 68.1387 581.562 67.552C581.562 66.6773 581.872 66.0107 582.49 65.552C583.12 65.0933 584.074 64.8427 585.354 64.8L586.73 64.752V64.272C586.73 63.632 586.597 63.184 586.33 62.928C586.074 62.672 585.712 62.544 585.242 62.544C584.848 62.544 584.458 62.608 584.074 62.736C583.69 62.864 583.317 63.0187 582.954 63.2L582.426 61.968C582.821 61.7547 583.269 61.5787 583.77 61.44C584.282 61.2907 584.821 61.216 585.386 61.216ZM585.69 65.888C584.816 65.9307 584.208 66.096 583.866 66.384C583.525 66.6613 583.354 67.056 583.354 67.568C583.354 68.016 583.472 68.3413 583.706 68.544C583.952 68.7467 584.266 68.848 584.65 68.848C585.237 68.848 585.728 68.6613 586.122 68.288C586.528 67.9147 586.73 67.3547 586.73 66.608V65.856L585.69 65.888ZM599.419 63.856H603.371V69.552C602.795 69.7547 602.203 69.904 601.595 70C600.987 70.1067 600.305 70.16 599.547 70.16C598.449 70.16 597.515 69.9253 596.747 69.456C595.99 68.9867 595.409 68.3147 595.003 67.44C594.609 66.5653 594.411 65.5147 594.411 64.288C594.411 63.0933 594.63 62.0587 595.067 61.184C595.505 60.3093 596.139 59.632 596.971 59.152C597.803 58.6613 598.811 58.416 599.995 58.416C600.603 58.416 601.179 58.48 601.723 58.608C602.278 58.7253 602.785 58.8907 603.243 59.104L602.619 60.544C602.246 60.3627 601.83 60.2133 601.371 60.096C600.923 59.968 600.454 59.904 599.963 59.904C599.174 59.904 598.502 60.0853 597.947 60.448C597.393 60.8 596.971 61.3067 596.683 61.968C596.395 62.6187 596.251 63.3973 596.251 64.304C596.251 65.1573 596.374 65.9147 596.619 66.576C596.865 67.2373 597.249 67.7547 597.771 68.128C598.294 68.5013 598.971 68.688 599.803 68.688C600.081 68.688 600.326 68.6773 600.539 68.656C600.753 68.624 600.95 68.592 601.131 68.56C601.323 68.5173 601.494 68.48 601.643 68.448V65.344H599.419V63.856ZM612.948 65.68C612.948 66.3947 612.858 67.0293 612.676 67.584C612.495 68.1387 612.234 68.608 611.892 68.992C611.562 69.376 611.156 69.6693 610.676 69.872C610.196 70.064 609.658 70.16 609.06 70.16C608.516 70.16 608.01 70.064 607.54 69.872C607.071 69.6693 606.666 69.376 606.324 68.992C605.983 68.608 605.716 68.1387 605.524 67.584C605.343 67.0293 605.252 66.3893 605.252 65.664C605.252 64.7147 605.407 63.9093 605.716 63.248C606.026 62.5867 606.468 62.0853 607.044 61.744C607.631 61.392 608.324 61.216 609.124 61.216C609.871 61.216 610.532 61.392 611.108 61.744C611.684 62.0853 612.132 62.5867 612.452 63.248C612.783 63.9093 612.948 64.72 612.948 65.68ZM607.044 65.68C607.044 66.32 607.114 66.8747 607.252 67.344C607.402 67.8027 607.626 68.1547 607.924 68.4C608.234 68.6453 608.623 68.768 609.092 68.768C609.572 68.768 609.962 68.6453 610.26 68.4C610.57 68.1547 610.794 67.8027 610.932 67.344C611.082 66.8747 611.156 66.32 611.156 65.68C611.156 65.0187 611.082 64.464 610.932 64.016C610.783 63.568 610.559 63.2267 610.26 62.992C609.962 62.7467 609.567 62.624 609.076 62.624C608.362 62.624 607.844 62.8907 607.524 63.424C607.204 63.9573 607.044 64.7093 607.044 65.68ZM622.167 65.68C622.167 66.3947 622.077 67.0293 621.895 67.584C621.714 68.1387 621.453 68.608 621.111 68.992C620.781 69.376 620.375 69.6693 619.895 69.872C619.415 70.064 618.877 70.16 618.279 70.16C617.735 70.16 617.229 70.064 616.759 69.872C616.29 69.6693 615.885 69.376 615.543 68.992C615.202 68.608 614.935 68.1387 614.743 67.584C614.562 67.0293 614.471 66.3893 614.471 65.664C614.471 64.7147 614.626 63.9093 614.935 63.248C615.245 62.5867 615.687 62.0853 616.263 61.744C616.85 61.392 617.543 61.216 618.343 61.216C619.09 61.216 619.751 61.392 620.327 61.744C620.903 62.0853 621.351 62.5867 621.671 63.248C622.002 63.9093 622.167 64.72 622.167 65.68ZM616.263 65.68C616.263 66.32 616.333 66.8747 616.471 67.344C616.621 67.8027 616.845 68.1547 617.143 68.4C617.453 68.6453 617.842 68.768 618.311 68.768C618.791 68.768 619.181 68.6453 619.479 68.4C619.789 68.1547 620.013 67.8027 620.151 67.344C620.301 66.8747 620.375 66.32 620.375 65.68C620.375 65.0187 620.301 64.464 620.151 64.016C620.002 63.568 619.778 63.2267 619.479 62.992C619.181 62.7467 618.786 62.624 618.295 62.624C617.581 62.624 617.063 62.8907 616.743 63.424C616.423 63.9573 616.263 64.7093 616.263 65.68ZM626.938 61.216C627.461 61.216 627.925 61.3227 628.33 61.536C628.746 61.7493 629.098 62.0747 629.386 62.512H629.45L629.642 61.376H631.066V70.112C631.066 70.9227 630.927 71.6053 630.65 72.16C630.373 72.7147 629.951 73.1307 629.386 73.408C628.821 73.696 628.106 73.84 627.242 73.84C626.645 73.84 626.101 73.7973 625.61 73.712C625.13 73.6267 624.682 73.4933 624.266 73.312V71.824C624.543 71.9733 624.842 72.096 625.162 72.192C625.482 72.2987 625.818 72.3733 626.17 72.416C626.533 72.4693 626.906 72.496 627.29 72.496C627.951 72.496 628.458 72.2933 628.81 71.888C629.173 71.4933 629.354 70.9333 629.354 70.208V69.92C629.354 69.7813 629.359 69.6 629.37 69.376C629.381 69.1413 629.391 68.9707 629.402 68.864H629.338C629.071 69.312 628.735 69.6427 628.33 69.856C627.935 70.0587 627.466 70.16 626.922 70.16C625.919 70.16 625.13 69.7707 624.554 68.992C623.978 68.2027 623.69 67.1093 623.69 65.712C623.69 64.7733 623.818 63.9733 624.074 63.312C624.341 62.64 624.714 62.1227 625.194 61.76C625.685 61.3973 626.266 61.216 626.938 61.216ZM627.354 62.624C626.949 62.624 626.607 62.7467 626.33 62.992C626.053 63.2267 625.839 63.5733 625.69 64.032C625.551 64.4907 625.482 65.056 625.482 65.728C625.482 66.7307 625.642 67.4933 625.962 68.016C626.282 68.5387 626.751 68.8 627.37 68.8C627.733 68.8 628.042 68.7467 628.298 68.64C628.554 68.5333 628.762 68.368 628.922 68.144C629.093 67.92 629.215 67.6373 629.29 67.296C629.375 66.944 629.418 66.5227 629.418 66.032V65.712C629.418 64.976 629.343 64.384 629.194 63.936C629.055 63.4773 628.831 63.1467 628.522 62.944C628.223 62.7307 627.834 62.624 627.354 62.624ZM635.225 70H633.497V57.84H635.225V70ZM640.918 61.216C641.632 61.216 642.251 61.376 642.774 61.696C643.296 62.0053 643.696 62.4533 643.974 63.04C644.262 63.6267 644.406 64.32 644.406 65.12V66.048H638.982C639.003 66.9333 639.216 67.6107 639.622 68.08C640.027 68.5493 640.598 68.784 641.334 68.784C641.856 68.784 642.32 68.736 642.726 68.64C643.142 68.5333 643.563 68.3787 643.99 68.176V69.584C643.584 69.776 643.168 69.92 642.742 70.016C642.326 70.112 641.819 70.16 641.222 70.16C640.443 70.16 639.75 69.9947 639.142 69.664C638.534 69.3333 638.059 68.8427 637.718 68.192C637.376 67.5307 637.206 66.72 637.206 65.76C637.206 64.7893 637.36 63.968 637.67 63.296C637.979 62.624 638.411 62.112 638.966 61.76C639.531 61.3973 640.182 61.216 640.918 61.216ZM640.918 62.528C640.374 62.528 639.936 62.7253 639.606 63.12C639.275 63.5147 639.083 64.0747 639.03 64.8H642.694C642.694 64.352 642.63 63.9573 642.502 63.616C642.374 63.2747 642.176 63.008 641.91 62.816C641.654 62.624 641.323 62.528 640.918 62.528ZM646.101 69.056C646.101 68.64 646.202 68.3467 646.405 68.176C646.618 68.0053 646.88 67.92 647.189 67.92C647.488 67.92 647.744 68.0053 647.957 68.176C648.181 68.3467 648.293 68.64 648.293 69.056C648.293 69.472 648.181 69.7707 647.957 69.952C647.744 70.1333 647.488 70.224 647.189 70.224C646.88 70.224 646.618 70.1333 646.405 69.952C646.202 69.7707 646.101 69.472 646.101 69.056ZM646.101 62.336C646.101 61.8987 646.202 61.5947 646.405 61.424C646.618 61.2533 646.88 61.168 647.189 61.168C647.488 61.168 647.744 61.2533 647.957 61.424C648.181 61.5947 648.293 61.8987 648.293 62.336C648.293 62.7413 648.181 63.0347 647.957 63.216C647.744 63.3973 647.488 63.488 647.189 63.488C646.88 63.488 646.618 63.3973 646.405 63.216C646.202 63.0347 646.101 62.7413 646.101 62.336Z" fill="#686877"/>
<path d="M668.892 66.744H667.198V70H663.7V66.744H657.606V64.434L663.92 54.292H667.198V64.17H668.892V66.744ZM663.7 61.508C663.7 61.2587 663.7 60.9653 663.7 60.628C663.715 60.276 663.729 59.9313 663.744 59.594C663.759 59.242 663.773 58.934 663.788 58.67C663.803 58.3913 663.81 58.2007 663.81 58.098H663.722C663.59 58.3913 663.458 58.6773 663.326 58.956C663.209 59.22 663.069 59.506 662.908 59.814L660.686 64.17H663.7V61.508ZM674.127 67.69C674.009 68.2033 673.848 68.7607 673.643 69.362C673.452 69.9487 673.247 70.5353 673.027 71.122C672.807 71.7233 672.579 72.2953 672.345 72.838H669.837C669.969 72.2513 670.101 71.6353 670.233 70.99C670.365 70.3593 670.482 69.736 670.585 69.12C670.702 68.504 670.79 67.9467 670.849 67.448H673.973L674.127 67.69ZM686.414 61.002C686.414 61.97 686.341 62.9087 686.194 63.818C686.048 64.7273 685.798 65.5707 685.446 66.348C685.109 67.1253 684.647 67.8073 684.06 68.394C683.488 68.966 682.762 69.4133 681.882 69.736C681.017 70.0587 679.983 70.22 678.78 70.22C678.487 70.22 678.142 70.2053 677.746 70.176C677.365 70.1613 677.035 70.1247 676.756 70.066V67.404C677.035 67.4627 677.321 67.514 677.614 67.558C677.908 67.602 678.208 67.624 678.516 67.624C679.411 67.624 680.152 67.5067 680.738 67.272C681.34 67.0373 681.809 66.7 682.146 66.26C682.498 65.82 682.748 65.2993 682.894 64.698C683.041 64.0967 683.129 63.4367 683.158 62.718H683.048C682.858 63.0553 682.638 63.3633 682.388 63.642C682.139 63.9207 681.816 64.1407 681.42 64.302C681.024 64.4633 680.504 64.544 679.858 64.544C679.037 64.544 678.326 64.3533 677.724 63.972C677.123 63.576 676.654 63.0113 676.316 62.278C675.994 61.53 675.832 60.628 675.832 59.572C675.832 58.428 676.038 57.4453 676.448 56.624C676.859 55.8027 677.438 55.172 678.186 54.732C678.949 54.292 679.858 54.072 680.914 54.072C681.692 54.072 682.41 54.2113 683.07 54.49C683.73 54.7687 684.31 55.194 684.808 55.766C685.322 56.338 685.718 57.064 685.996 57.944C686.275 58.8093 686.414 59.8287 686.414 61.002ZM681.002 56.734C680.504 56.734 680.086 56.9613 679.748 57.416C679.426 57.8707 679.264 58.5747 679.264 59.528C679.264 60.3053 679.404 60.914 679.682 61.354C679.961 61.7793 680.372 61.992 680.914 61.992C681.31 61.992 681.655 61.882 681.948 61.662C682.242 61.442 682.469 61.1707 682.63 60.848C682.792 60.5107 682.872 60.166 682.872 59.814C682.872 59.4033 682.828 59.0147 682.74 58.648C682.667 58.2813 682.557 57.9587 682.41 57.68C682.264 57.3867 682.066 57.1593 681.816 56.998C681.567 56.822 681.296 56.734 681.002 56.734Z" fill="#FBBC05"/>
<path d="M693.707 66.08C693.707 66.208 693.702 66.3733 693.691 66.576C693.681 66.7787 693.67 66.992 693.659 67.216C693.649 67.4293 693.638 67.632 693.627 67.824C693.617 68.0053 693.606 68.1493 693.595 68.256L697.643 61.376H699.691V70H698.075V65.408C698.075 65.2053 698.081 64.9547 698.091 64.656C698.102 64.3573 698.113 64.0693 698.123 63.792C698.134 63.504 698.145 63.2853 698.155 63.136L694.139 70H692.075V61.376H693.707V66.08ZM704.522 61.216C705.13 61.216 705.674 61.3013 706.154 61.472C706.634 61.6427 707.013 61.8987 707.29 62.24C707.567 62.5813 707.706 62.9973 707.706 63.488C707.706 64.0107 707.567 64.4267 707.29 64.736C707.013 65.0453 706.639 65.2693 706.17 65.408V65.472C706.511 65.568 706.815 65.7013 707.082 65.872C707.359 66.032 707.578 66.2507 707.738 66.528C707.898 66.7947 707.978 67.1467 707.978 67.584C707.978 68.0533 707.845 68.4853 707.578 68.88C707.322 69.2747 706.922 69.5893 706.378 69.824C705.845 70.048 705.151 70.16 704.298 70.16C703.893 70.16 703.514 70.1387 703.162 70.096C702.81 70.0533 702.49 69.9893 702.202 69.904C701.914 69.8187 701.658 69.7173 701.434 69.6V68.128C701.775 68.2987 702.181 68.4533 702.65 68.592C703.13 68.7307 703.653 68.8 704.218 68.8C704.623 68.8 704.975 68.7573 705.274 68.672C705.583 68.5867 705.823 68.448 705.994 68.256C706.175 68.064 706.266 67.808 706.266 67.488C706.266 67.1787 706.186 66.928 706.026 66.736C705.866 66.544 705.626 66.4 705.306 66.304C704.986 66.208 704.57 66.16 704.058 66.16H703.018V64.864H703.898C704.581 64.864 705.114 64.7787 705.498 64.608C705.893 64.4267 706.09 64.112 706.09 63.664C706.09 63.3013 705.946 63.0293 705.658 62.848C705.37 62.656 704.949 62.56 704.394 62.56C703.967 62.56 703.567 62.608 703.194 62.704C702.831 62.7893 702.453 62.9227 702.058 63.104L701.498 61.824C701.946 61.632 702.415 61.4827 702.906 61.376C703.407 61.2693 703.946 61.216 704.522 61.216ZM716.836 62.912C717.529 62.912 718.137 63.0453 718.66 63.312C719.193 63.5787 719.609 63.9627 719.908 64.464C720.206 64.9653 720.356 65.5787 720.356 66.304C720.356 67.104 720.196 67.792 719.876 68.368C719.556 68.944 719.086 69.3867 718.468 69.696C717.86 70.0053 717.113 70.16 716.228 70.16C715.662 70.16 715.134 70.1067 714.644 70C714.153 69.8933 713.732 69.7387 713.38 69.536V67.984C713.742 68.208 714.185 68.3893 714.708 68.528C715.23 68.6667 715.721 68.736 716.18 68.736C716.67 68.736 717.092 68.656 717.444 68.496C717.806 68.3253 718.084 68.0747 718.276 67.744C718.478 67.4027 718.58 66.976 718.58 66.464C718.58 65.7707 718.382 65.2427 717.988 64.88C717.593 64.5067 716.974 64.32 716.132 64.32C715.844 64.32 715.534 64.3467 715.204 64.4C714.873 64.4533 714.601 64.5067 714.388 64.56L713.62 64.096L714.02 58.576H719.604V60.08H715.524L715.3 63.072C715.47 63.04 715.678 63.008 715.924 62.976C716.18 62.9333 716.484 62.912 716.836 62.912Z" fill="#686877"/>
<g filter="url(#filter0_d_1_175)">
<rect x="436.304" y="361.082" width="283" height="46" rx="23" fill="white" shape-rendering="crispEdges"/>
<rect x="436.804" y="361.582" width="282" height="45" rx="22.5" stroke="#E4E7EE" shape-rendering="crispEdges"/>
<path d="M480.304 382.155V384.655C480.251 384.796 480.267 384.936 480.251 385.077C480.012 387.228 479.189 389.129 477.736 390.738C477.606 390.884 477.47 391.025 477.33 391.165C477.283 391.212 477.236 391.259 477.189 391.301C476.486 391.983 475.71 392.546 474.866 392.973L474.861 392.978C474.861 392.978 474.861 392.978 474.856 392.978V392.988C474.408 393.191 473.944 393.4 473.46 393.561C473.449 393.566 473.444 393.566 473.434 393.572C472.981 393.717 472.507 393.837 472.017 393.926C471.642 393.993 471.262 394.03 470.882 394.082H469.71C469.658 394.082 469.611 394.046 469.559 394.046C467.996 393.936 466.533 393.483 465.194 392.665C463.611 391.697 462.402 390.462 461.569 388.973C461.038 388.02 460.673 386.962 460.455 385.796C460.382 385.415 460.356 385.035 460.304 384.655V383.483C460.304 383.342 460.33 383.202 460.345 383.061C460.501 381.634 460.929 380.316 461.606 379.118C461.97 378.514 462.366 377.941 462.85 377.405C464.392 375.697 466.298 374.634 468.569 374.233C468.944 374.165 469.324 374.134 469.705 374.082H470.798C470.876 374.082 470.949 374.098 471.027 374.108C471.345 374.145 471.663 374.165 471.975 374.217C473.288 374.436 474.507 374.905 475.626 375.618C475.882 375.78 476.126 375.962 476.387 376.139C475.606 377.155 474.835 378.155 474.069 379.15C472.845 378.228 471.449 377.837 470.095 377.889C470.027 377.889 469.955 377.895 469.887 377.9C469.882 377.9 469.876 377.9 469.871 377.9C469.658 377.915 469.444 377.941 469.236 377.978C469.205 377.983 469.173 377.988 469.142 377.993C469.106 377.999 469.074 378.009 469.038 378.014C468.996 378.025 468.96 378.03 468.918 378.04C468.871 378.051 468.83 378.061 468.783 378.072C468.694 378.092 468.606 378.118 468.517 378.145C468.486 378.155 468.449 378.155 468.418 378.165C468.288 378.207 468.158 378.243 468.033 378.296C467.97 378.348 467.908 378.353 467.845 378.379C467.814 378.395 467.783 378.41 467.751 378.421C467.668 378.457 467.585 378.499 467.507 378.54C467.47 378.556 467.434 378.577 467.402 378.592C467.371 378.608 467.335 378.629 467.304 378.645C466.814 378.91 466.366 379.243 465.97 379.634C465.543 380.056 465.184 380.53 464.897 381.046C463.908 382.816 463.793 385.02 464.83 386.973C464.84 386.988 464.85 387.009 464.856 387.025C465.866 388.879 467.741 390.098 469.866 390.238C469.871 390.238 469.876 390.238 469.882 390.238C469.949 390.243 470.022 390.249 470.09 390.249C470.095 390.249 470.1 390.249 470.106 390.249C470.59 390.264 471.085 390.217 471.585 390.113C472.069 390.014 472.522 389.848 472.939 389.65C472.939 389.65 472.939 389.65 472.944 389.65C473.34 389.462 473.705 389.233 474.038 388.973C474.085 388.936 474.132 388.9 474.179 388.863C474.241 388.811 474.304 388.759 474.361 388.707C474.46 388.624 474.554 388.535 474.642 388.447C474.658 388.431 474.673 388.415 474.689 388.4C474.72 388.368 474.751 388.332 474.783 388.301C474.824 388.259 474.866 388.212 474.902 388.171C474.923 388.145 474.944 388.124 474.965 388.098C475.007 388.051 475.043 388.004 475.085 387.957C475.163 387.863 475.236 387.764 475.309 387.671C475.324 387.65 475.34 387.629 475.356 387.608C475.397 387.546 475.444 387.483 475.486 387.421C475.486 387.421 475.486 387.415 475.491 387.415C475.507 387.395 475.517 387.374 475.533 387.353C475.548 387.327 475.569 387.296 475.585 387.27C475.6 387.243 475.611 387.223 475.626 387.197C475.663 387.139 475.694 387.082 475.725 387.025C475.736 387.004 475.746 386.983 475.757 386.967C475.777 386.926 475.804 386.884 475.824 386.837C475.835 386.816 475.845 386.796 475.856 386.775C475.866 386.754 475.876 386.733 475.887 386.712C475.908 386.671 475.923 386.629 475.944 386.582C475.955 386.561 475.96 386.54 475.97 386.52C475.986 386.478 476.007 386.436 476.022 386.395C476.038 386.358 476.048 386.322 476.064 386.285C476.08 386.249 476.09 386.212 476.1 386.176C476.126 386.103 476.147 386.03 476.163 385.962H470.304V382.16H480.038C480.121 382.155 480.199 382.155 480.304 382.155Z" fill="#FFD500"/>
<path d="M476.387 376.139C475.606 377.155 474.835 378.155 474.069 379.15C472.845 378.228 471.449 377.837 470.095 377.889C470.027 377.889 469.955 377.895 469.887 377.9V374.082H470.798C470.876 374.082 470.949 374.098 471.027 374.108C471.345 374.145 471.663 374.165 471.975 374.217C473.288 374.436 474.507 374.905 475.626 375.618C475.887 375.78 476.132 375.962 476.387 376.139Z" fill="#D93F21"/>
<path d="M480.304 382.155V384.655C480.251 384.795 480.267 384.936 480.251 385.077C480.012 387.228 479.189 389.129 477.736 390.738C477.606 390.884 477.47 391.025 477.33 391.165C477.283 391.212 477.236 391.259 477.189 391.301C476.481 391.978 475.705 392.535 474.861 392.967H474.856L474.861 392.972C474.861 392.972 474.861 392.972 474.856 392.972V392.983C474.408 393.186 473.944 393.394 473.46 393.556H470.095V390.249C470.1 390.249 470.106 390.249 470.111 390.249C470.595 390.264 471.09 390.217 471.59 390.113C472.074 390.014 472.528 389.847 472.944 389.65C472.944 389.65 472.944 389.65 472.949 389.65C473.403 389.431 473.814 389.165 474.184 388.863C474.246 388.811 474.309 388.759 474.366 388.707C474.465 388.624 474.559 388.535 474.647 388.446C474.663 388.431 474.679 388.415 474.694 388.4C474.725 388.368 474.757 388.332 474.788 388.301C474.83 388.259 474.871 388.212 474.908 388.17C474.929 388.144 474.949 388.124 474.97 388.097C475.012 388.051 475.048 388.004 475.09 387.957C475.168 387.863 475.241 387.764 475.314 387.67C475.33 387.65 475.345 387.629 475.361 387.608C475.403 387.545 475.449 387.483 475.491 387.42C475.491 387.42 475.491 387.415 475.496 387.415C475.512 387.394 475.522 387.374 475.538 387.353C475.554 387.327 475.574 387.295 475.59 387.269C475.606 387.243 475.616 387.222 475.632 387.196C475.668 387.139 475.699 387.082 475.731 387.025C475.741 387.004 475.751 386.983 475.762 386.967C475.783 386.926 475.809 386.884 475.83 386.837C475.84 386.816 475.85 386.795 475.861 386.775C475.871 386.754 475.882 386.733 475.892 386.712C475.913 386.67 475.929 386.629 475.949 386.582C475.96 386.561 475.965 386.54 475.975 386.519C475.991 386.478 476.012 386.436 476.028 386.394C476.043 386.358 476.054 386.321 476.069 386.285C476.085 386.249 476.095 386.212 476.106 386.176C476.132 386.103 476.153 386.03 476.168 385.962H470.304V382.16H480.038C480.121 382.155 480.199 382.155 480.304 382.155Z" fill="#167EE6"/>
<path d="M474.866 392.972L474.861 392.978C474.861 392.978 474.861 392.978 474.856 392.978V392.988C474.408 393.191 473.944 393.4 473.46 393.561C473.449 393.566 473.444 393.566 473.434 393.571C472.981 393.717 472.507 393.837 472.017 393.926C471.642 393.993 471.262 394.03 470.882 394.082H469.892V390.243C469.96 390.249 470.033 390.254 470.1 390.254C470.106 390.254 470.111 390.254 470.116 390.254C470.6 390.269 471.095 390.222 471.595 390.118C472.08 390.019 472.533 389.853 472.949 389.655C472.949 389.655 472.949 389.655 472.955 389.655H472.965L474.866 392.967V392.972Z" fill="#0F993E"/>
<path d="M470.095 390.254V394.082H469.705C469.653 394.082 469.606 394.045 469.554 394.045C467.991 393.936 466.528 393.483 465.189 392.665C463.606 391.696 462.397 390.462 461.564 388.972L464.856 387.03C465.866 388.884 467.741 390.103 469.866 390.243C469.871 390.243 469.876 390.243 469.882 390.243C469.955 390.249 470.028 390.249 470.095 390.254Z" fill="#12B347"/>
<path d="M470.095 374.082V377.889C470.027 377.889 469.955 377.895 469.887 377.9C469.632 377.915 469.387 377.952 469.142 377.999C469.106 378.004 469.074 378.014 469.038 378.02C468.996 378.03 468.96 378.035 468.918 378.046C468.871 378.056 468.83 378.066 468.783 378.077C468.694 378.098 468.606 378.124 468.517 378.15C468.486 378.16 468.449 378.16 468.418 378.171C468.288 378.212 468.158 378.249 468.033 378.301C467.97 378.353 467.908 378.358 467.845 378.384C467.814 378.4 467.783 378.415 467.751 378.426C467.668 378.462 467.585 378.504 467.507 378.546C467.47 378.561 467.434 378.582 467.402 378.598C467.371 378.613 467.335 378.634 467.304 378.65C466.819 378.915 466.371 379.249 465.981 379.639C465.554 380.061 465.189 380.54 464.902 381.051H464.897L461.606 379.118C461.97 378.514 462.366 377.941 462.85 377.405C464.392 375.697 466.298 374.634 468.569 374.233C468.944 374.165 469.324 374.134 469.705 374.082H470.095V374.082Z" fill="#FF4B26"/>
<path d="M494.944 380.617C494.464 380.617 494.029 380.712 493.639 380.902C493.259 381.082 492.934 381.352 492.664 381.712C492.404 382.072 492.204 382.507 492.064 383.017C491.924 383.527 491.854 384.102 491.854 384.742C491.854 385.582 491.969 386.312 492.199 386.932C492.429 387.542 492.774 388.012 493.234 388.342C493.694 388.672 494.264 388.837 494.944 388.837C495.384 388.837 495.804 388.797 496.204 388.717C496.604 388.627 497.009 388.512 497.419 388.372V389.767C497.019 389.927 496.609 390.042 496.189 390.112C495.779 390.192 495.299 390.232 494.749 390.232C493.709 390.232 492.849 390.007 492.169 389.557C491.489 389.107 490.979 388.467 490.639 387.637C490.299 386.807 490.129 385.837 490.129 384.727C490.129 383.917 490.234 383.177 490.444 382.507C490.654 381.827 490.964 381.242 491.374 380.752C491.784 380.262 492.289 379.887 492.889 379.627C493.489 379.357 494.174 379.222 494.944 379.222C495.464 379.222 495.974 379.282 496.474 379.402C496.974 379.512 497.419 379.672 497.809 379.882L497.224 381.232C496.894 381.072 496.534 380.932 496.144 380.812C495.764 380.682 495.364 380.617 494.944 380.617ZM508.139 381.997V390.082H506.654V385.282C506.654 385.012 506.659 384.742 506.669 384.472C506.689 384.192 506.714 383.927 506.744 383.677H506.699L504.389 390.082H503.114L500.849 383.677H500.804C500.824 383.927 500.839 384.192 500.849 384.472C500.859 384.742 500.864 385.027 500.864 385.327V390.082H499.394V381.997H501.599L503.759 388.192L505.949 381.997H508.139ZM517.219 386.032C517.219 386.702 517.134 387.297 516.964 387.817C516.794 388.337 516.549 388.777 516.229 389.137C515.919 389.497 515.539 389.772 515.089 389.962C514.639 390.142 514.134 390.232 513.574 390.232C513.064 390.232 512.589 390.142 512.149 389.962C511.709 389.772 511.329 389.497 511.009 389.137C510.689 388.777 510.439 388.337 510.259 387.817C510.089 387.297 510.004 386.697 510.004 386.017C510.004 385.127 510.149 384.372 510.439 383.752C510.729 383.132 511.144 382.662 511.684 382.342C512.234 382.012 512.884 381.847 513.634 381.847C514.334 381.847 514.954 382.012 515.494 382.342C516.034 382.662 516.454 383.132 516.754 383.752C517.064 384.372 517.219 385.132 517.219 386.032ZM511.684 386.032C511.684 386.632 511.749 387.152 511.879 387.592C512.019 388.022 512.229 388.352 512.509 388.582C512.799 388.812 513.164 388.927 513.604 388.927C514.054 388.927 514.419 388.812 514.699 388.582C514.989 388.352 515.199 388.022 515.329 387.592C515.469 387.152 515.539 386.632 515.539 386.032C515.539 385.412 515.469 384.892 515.329 384.472C515.189 384.052 514.979 383.732 514.699 383.512C514.419 383.282 514.049 383.167 513.589 383.167C512.919 383.167 512.434 383.417 512.134 383.917C511.834 384.417 511.684 385.122 511.684 386.032ZM524.68 383.272H522.175V390.082H520.57V383.272H518.095V381.997H524.68V383.272ZM530.042 381.847C530.952 381.847 531.682 382.197 532.232 382.897C532.782 383.597 533.057 384.642 533.057 386.032C533.057 386.942 532.927 387.712 532.667 388.342C532.417 388.972 532.062 389.447 531.602 389.767C531.142 390.077 530.607 390.232 529.997 390.232C529.627 390.232 529.297 390.182 529.007 390.082C528.717 389.972 528.472 389.832 528.272 389.662C528.082 389.482 527.912 389.292 527.762 389.092H527.672C527.692 389.272 527.712 389.487 527.732 389.737C527.752 389.977 527.762 390.192 527.762 390.382V393.682H526.142V381.997H527.462L527.687 383.077H527.762C527.912 382.857 528.087 382.652 528.287 382.462C528.497 382.272 528.742 382.122 529.022 382.012C529.312 381.902 529.652 381.847 530.042 381.847ZM529.607 383.152C529.167 383.152 528.812 383.252 528.542 383.452C528.272 383.642 528.072 383.932 527.942 384.322C527.822 384.702 527.762 385.187 527.762 385.777V386.017C527.762 386.637 527.817 387.167 527.927 387.607C528.047 388.037 528.242 388.367 528.512 388.597C528.792 388.817 529.167 388.927 529.637 388.927C530.037 388.927 530.367 388.807 530.627 388.567C530.887 388.317 531.077 387.972 531.197 387.532C531.327 387.092 531.392 386.582 531.392 386.002C531.392 385.122 531.242 384.427 530.942 383.917C530.652 383.407 530.207 383.152 529.607 383.152ZM537.976 381.847C538.646 381.847 539.226 381.997 539.716 382.297C540.206 382.587 540.581 383.007 540.841 383.557C541.111 384.107 541.246 384.757 541.246 385.507V386.377H536.161C536.181 387.207 536.381 387.842 536.761 388.282C537.141 388.722 537.676 388.942 538.366 388.942C538.856 388.942 539.291 388.897 539.671 388.807C540.061 388.707 540.456 388.562 540.856 388.372V389.692C540.476 389.872 540.086 390.007 539.686 390.097C539.296 390.187 538.821 390.232 538.261 390.232C537.531 390.232 536.881 390.077 536.311 389.767C535.741 389.457 535.296 388.997 534.976 388.387C534.656 387.767 534.496 387.007 534.496 386.107C534.496 385.197 534.641 384.427 534.931 383.797C535.221 383.167 535.626 382.687 536.146 382.357C536.676 382.017 537.286 381.847 537.976 381.847ZM537.976 383.077C537.466 383.077 537.056 383.262 536.746 383.632C536.436 384.002 536.256 384.527 536.206 385.207H539.641C539.641 384.787 539.581 384.417 539.461 384.097C539.341 383.777 539.156 383.527 538.906 383.347C538.666 383.167 538.356 383.077 537.976 383.077ZM548.806 383.272H546.301V390.082H544.696V383.272H542.221V381.997H548.806V383.272ZM553.793 385.252C554.493 385.252 555.068 385.342 555.518 385.522C555.978 385.692 556.318 385.947 556.538 386.287C556.768 386.627 556.883 387.057 556.883 387.577C556.883 388.087 556.773 388.532 556.553 388.912C556.333 389.282 555.993 389.572 555.533 389.782C555.073 389.982 554.468 390.082 553.718 390.082H550.268V381.997H551.888V385.252H553.793ZM555.248 387.637C555.248 387.197 555.108 386.897 554.828 386.737C554.558 386.567 554.153 386.482 553.613 386.482H551.888V388.882H553.643C554.113 388.882 554.498 388.787 554.798 388.597C555.098 388.407 555.248 388.087 555.248 387.637ZM568.713 384.052C568.713 384.542 568.578 384.932 568.308 385.222C568.038 385.502 567.668 385.692 567.198 385.792V385.852C567.698 385.922 568.113 386.107 568.443 386.407C568.783 386.697 568.953 387.127 568.953 387.697C568.953 388.047 568.893 388.367 568.773 388.657C568.663 388.947 568.478 389.202 568.218 389.422C567.968 389.632 567.638 389.797 567.228 389.917C566.818 390.027 566.323 390.082 565.743 390.082H562.323V381.997H565.743C566.323 381.997 566.838 382.062 567.288 382.192C567.738 382.322 568.088 382.537 568.338 382.837C568.588 383.137 568.713 383.542 568.713 384.052ZM567.288 387.667C567.288 387.247 567.143 386.947 566.853 386.767C566.573 386.577 566.153 386.482 565.593 386.482H563.943V388.882H565.608C566.148 388.882 566.563 388.792 566.853 388.612C567.143 388.422 567.288 388.107 567.288 387.667ZM567.078 384.232C567.078 383.882 566.963 383.627 566.733 383.467C566.513 383.307 566.158 383.227 565.668 383.227H563.943V385.267H565.443C565.983 385.267 566.388 385.187 566.658 385.027C566.938 384.857 567.078 384.592 567.078 384.232ZM573.837 390.232C573.127 390.232 572.502 390.087 571.962 389.797C571.432 389.507 571.017 389.057 570.717 388.447C570.427 387.827 570.282 387.042 570.282 386.092C570.282 385.092 570.442 384.282 570.762 383.662C571.082 383.042 571.517 382.587 572.067 382.297C572.617 381.997 573.247 381.847 573.957 381.847C574.377 381.847 574.777 381.897 575.157 381.997C575.547 382.087 575.867 382.192 576.117 382.312L575.622 383.587C575.372 383.487 575.102 383.397 574.812 383.317C574.522 383.237 574.247 383.197 573.987 383.197C573.527 383.197 573.147 383.307 572.847 383.527C572.557 383.737 572.337 384.057 572.187 384.487C572.037 384.907 571.962 385.437 571.962 386.077C571.962 386.687 572.037 387.202 572.187 387.622C572.337 388.042 572.557 388.362 572.847 388.582C573.147 388.792 573.507 388.897 573.927 388.897C574.337 388.897 574.702 388.847 575.022 388.747C575.352 388.647 575.657 388.517 575.937 388.357V389.737C575.657 389.907 575.352 390.032 575.022 390.112C574.692 390.192 574.297 390.232 573.837 390.232ZM580.75 381.847C581.42 381.847 582 381.997 582.49 382.297C582.98 382.587 583.355 383.007 583.615 383.557C583.885 384.107 584.02 384.757 584.02 385.507V386.377H578.935C578.955 387.207 579.155 387.842 579.535 388.282C579.915 388.722 580.45 388.942 581.14 388.942C581.63 388.942 582.065 388.897 582.445 388.807C582.835 388.707 583.23 388.562 583.63 388.372V389.692C583.25 389.872 582.86 390.007 582.46 390.097C582.07 390.187 581.595 390.232 581.035 390.232C580.305 390.232 579.655 390.077 579.085 389.767C578.515 389.457 578.07 388.997 577.75 388.387C577.43 387.767 577.27 387.007 577.27 386.107C577.27 385.197 577.415 384.427 577.705 383.797C577.995 383.167 578.4 382.687 578.92 382.357C579.45 382.017 580.06 381.847 580.75 381.847ZM580.75 383.077C580.24 383.077 579.83 383.262 579.52 383.632C579.21 384.002 579.03 384.527 578.98 385.207H582.415C582.415 384.787 582.355 384.417 582.235 384.097C582.115 383.777 581.93 383.527 581.68 383.347C581.44 383.167 581.13 383.077 580.75 383.077ZM596.291 386.032C596.291 386.702 596.206 387.297 596.036 387.817C595.866 388.337 595.621 388.777 595.301 389.137C594.991 389.497 594.611 389.772 594.161 389.962C593.711 390.142 593.206 390.232 592.646 390.232C592.136 390.232 591.661 390.142 591.221 389.962C590.781 389.772 590.401 389.497 590.081 389.137C589.761 388.777 589.511 388.337 589.331 387.817C589.161 387.297 589.076 386.697 589.076 386.017C589.076 385.127 589.221 384.372 589.511 383.752C589.801 383.132 590.216 382.662 590.756 382.342C591.306 382.012 591.956 381.847 592.706 381.847C593.406 381.847 594.026 382.012 594.566 382.342C595.106 382.662 595.526 383.132 595.826 383.752C596.136 384.372 596.291 385.132 596.291 386.032ZM590.756 386.032C590.756 386.632 590.821 387.152 590.951 387.592C591.091 388.022 591.301 388.352 591.581 388.582C591.871 388.812 592.236 388.927 592.676 388.927C593.126 388.927 593.491 388.812 593.771 388.582C594.061 388.352 594.271 388.022 594.401 387.592C594.541 387.152 594.611 386.632 594.611 386.032C594.611 385.412 594.541 384.892 594.401 384.472C594.261 384.052 594.051 383.732 593.771 383.512C593.491 383.282 593.121 383.167 592.661 383.167C591.991 383.167 591.506 383.417 591.206 383.917C590.906 384.417 590.756 385.122 590.756 386.032ZM603.752 383.272H601.247V390.082H599.642V383.272H597.167V381.997H603.752V383.272ZM607.449 381.847C608.019 381.847 608.529 381.927 608.979 382.087C609.429 382.247 609.784 382.487 610.044 382.807C610.304 383.127 610.434 383.517 610.434 383.977C610.434 384.467 610.304 384.857 610.044 385.147C609.784 385.437 609.434 385.647 608.994 385.777V385.837C609.314 385.927 609.599 386.052 609.849 386.212C610.109 386.362 610.314 386.567 610.464 386.827C610.614 387.077 610.689 387.407 610.689 387.817C610.689 388.257 610.564 388.662 610.314 389.032C610.074 389.402 609.699 389.697 609.189 389.917C608.689 390.127 608.039 390.232 607.239 390.232C606.859 390.232 606.504 390.212 606.174 390.172C605.844 390.132 605.544 390.072 605.274 389.992C605.004 389.912 604.764 389.817 604.554 389.707V388.327C604.874 388.487 605.254 388.632 605.694 388.762C606.144 388.892 606.634 388.957 607.164 388.957C607.544 388.957 607.874 388.917 608.154 388.837C608.444 388.757 608.669 388.627 608.829 388.447C608.999 388.267 609.084 388.027 609.084 387.727C609.084 387.437 609.009 387.202 608.859 387.022C608.709 386.842 608.484 386.707 608.184 386.617C607.884 386.527 607.494 386.482 607.014 386.482H606.039V385.267H606.864C607.504 385.267 608.004 385.187 608.364 385.027C608.734 384.857 608.919 384.562 608.919 384.142C608.919 383.802 608.784 383.547 608.514 383.377C608.244 383.197 607.849 383.107 607.329 383.107C606.929 383.107 606.554 383.152 606.204 383.242C605.864 383.322 605.509 383.447 605.139 383.617L604.614 382.417C605.034 382.237 605.474 382.097 605.934 381.997C606.404 381.897 606.909 381.847 607.449 381.847ZM612.421 390.082V381.997H614.041V385.252H615.661C616.361 385.252 616.936 385.342 617.386 385.522C617.836 385.692 618.166 385.947 618.376 386.287C618.596 386.627 618.706 387.057 618.706 387.577C618.706 388.087 618.601 388.532 618.391 388.912C618.181 389.282 617.846 389.572 617.386 389.782C616.936 389.982 616.336 390.082 615.586 390.082H612.421ZM615.466 388.882C615.946 388.882 616.331 388.792 616.621 388.612C616.921 388.422 617.071 388.097 617.071 387.637C617.071 387.197 616.936 386.897 616.666 386.737C616.406 386.567 616.006 386.482 615.466 386.482H614.041V388.882H615.466ZM619.876 390.082V381.997H621.496V390.082H619.876ZM630.164 384.052C630.164 384.542 630.029 384.932 629.759 385.222C629.489 385.502 629.119 385.692 628.649 385.792V385.852C629.149 385.922 629.564 386.107 629.894 386.407C630.234 386.697 630.404 387.127 630.404 387.697C630.404 388.047 630.344 388.367 630.224 388.657C630.114 388.947 629.929 389.202 629.669 389.422C629.419 389.632 629.089 389.797 628.679 389.917C628.269 390.027 627.774 390.082 627.194 390.082H623.774V381.997H627.194C627.774 381.997 628.289 382.062 628.739 382.192C629.189 382.322 629.539 382.537 629.789 382.837C630.039 383.137 630.164 383.542 630.164 384.052ZM628.739 387.667C628.739 387.247 628.594 386.947 628.304 386.767C628.024 386.577 627.604 386.482 627.044 386.482H625.394V388.882H627.059C627.599 388.882 628.014 388.792 628.304 388.612C628.594 388.422 628.739 388.107 628.739 387.667ZM628.529 384.232C628.529 383.882 628.414 383.627 628.184 383.467C627.964 383.307 627.609 383.227 627.119 383.227H625.394V385.267H626.894C627.434 385.267 627.839 385.187 628.109 385.027C628.389 384.857 628.529 384.592 628.529 384.232ZM632.153 390.082V381.997H633.773V385.252H635.393C636.093 385.252 636.668 385.342 637.118 385.522C637.568 385.692 637.898 385.947 638.108 386.287C638.328 386.627 638.438 387.057 638.438 387.577C638.438 388.087 638.333 388.532 638.123 388.912C637.913 389.282 637.578 389.572 637.118 389.782C636.668 389.982 636.068 390.082 635.318 390.082H632.153ZM635.198 388.882C635.678 388.882 636.063 388.792 636.353 388.612C636.653 388.422 636.803 388.097 636.803 387.637C636.803 387.197 636.668 386.897 636.398 386.737C636.138 386.567 635.738 386.482 635.198 386.482H633.773V388.882H635.198ZM639.608 390.082V381.997H641.228V390.082H639.608ZM651.547 384.322H655.252V389.662C654.712 389.852 654.157 389.992 653.587 390.082C653.017 390.182 652.377 390.232 651.667 390.232C650.637 390.232 649.762 390.012 649.042 389.572C648.332 389.132 647.787 388.502 647.407 387.682C647.037 386.862 646.852 385.877 646.852 384.727C646.852 383.607 647.057 382.637 647.467 381.817C647.877 380.997 648.472 380.362 649.252 379.912C650.032 379.452 650.977 379.222 652.087 379.222C652.657 379.222 653.197 379.282 653.707 379.402C654.227 379.512 654.702 379.667 655.132 379.867L654.547 381.217C654.197 381.047 653.807 380.907 653.377 380.797C652.957 380.677 652.517 380.617 652.057 380.617C651.317 380.617 650.687 380.787 650.167 381.127C649.647 381.457 649.252 381.932 648.982 382.552C648.712 383.162 648.577 383.892 648.577 384.742C648.577 385.542 648.692 386.252 648.922 386.872C649.152 387.492 649.512 387.977 650.002 388.327C650.492 388.677 651.127 388.852 651.907 388.852C652.167 388.852 652.397 388.842 652.597 388.822C652.797 388.792 652.982 388.762 653.152 388.732C653.332 388.692 653.492 388.657 653.632 388.627V385.717H651.547V384.322ZM664.231 386.032C664.231 386.702 664.146 387.297 663.976 387.817C663.806 388.337 663.561 388.777 663.241 389.137C662.931 389.497 662.551 389.772 662.101 389.962C661.651 390.142 661.146 390.232 660.586 390.232C660.076 390.232 659.601 390.142 659.161 389.962C658.721 389.772 658.341 389.497 658.021 389.137C657.701 388.777 657.451 388.337 657.271 387.817C657.101 387.297 657.016 386.697 657.016 386.017C657.016 385.127 657.161 384.372 657.451 383.752C657.741 383.132 658.156 382.662 658.696 382.342C659.246 382.012 659.896 381.847 660.646 381.847C661.346 381.847 661.966 382.012 662.506 382.342C663.046 382.662 663.466 383.132 663.766 383.752C664.076 384.372 664.231 385.132 664.231 386.032ZM658.696 386.032C658.696 386.632 658.761 387.152 658.891 387.592C659.031 388.022 659.241 388.352 659.521 388.582C659.811 388.812 660.176 388.927 660.616 388.927C661.066 388.927 661.431 388.812 661.711 388.582C662.001 388.352 662.211 388.022 662.341 387.592C662.481 387.152 662.551 386.632 662.551 386.032C662.551 385.412 662.481 384.892 662.341 384.472C662.201 384.052 661.991 383.732 661.711 383.512C661.431 383.282 661.061 383.167 660.601 383.167C659.931 383.167 659.446 383.417 659.146 383.917C658.846 384.417 658.696 385.122 658.696 386.032ZM672.873 386.032C672.873 386.702 672.788 387.297 672.618 387.817C672.448 388.337 672.203 388.777 671.883 389.137C671.573 389.497 671.193 389.772 670.743 389.962C670.293 390.142 669.788 390.232 669.228 390.232C668.718 390.232 668.243 390.142 667.803 389.962C667.363 389.772 666.983 389.497 666.663 389.137C666.343 388.777 666.093 388.337 665.913 387.817C665.743 387.297 665.658 386.697 665.658 386.017C665.658 385.127 665.803 384.372 666.093 383.752C666.383 383.132 666.798 382.662 667.338 382.342C667.888 382.012 668.538 381.847 669.288 381.847C669.988 381.847 670.608 382.012 671.148 382.342C671.688 382.662 672.108 383.132 672.408 383.752C672.718 384.372 672.873 385.132 672.873 386.032ZM667.338 386.032C667.338 386.632 667.403 387.152 667.533 387.592C667.673 388.022 667.883 388.352 668.163 388.582C668.453 388.812 668.818 388.927 669.258 388.927C669.708 388.927 670.073 388.812 670.353 388.582C670.643 388.352 670.853 388.022 670.983 387.592C671.123 387.152 671.193 386.632 671.193 386.032C671.193 385.412 671.123 384.892 670.983 384.472C670.843 384.052 670.633 383.732 670.353 383.512C670.073 383.282 669.703 383.167 669.243 383.167C668.573 383.167 668.088 383.417 667.788 383.917C667.488 384.417 667.338 385.122 667.338 386.032ZM677.346 381.847C677.836 381.847 678.271 381.947 678.651 382.147C679.041 382.347 679.371 382.652 679.641 383.062H679.701L679.881 381.997H681.216V390.187C681.216 390.947 681.086 391.587 680.826 392.107C680.566 392.627 680.171 393.017 679.641 393.277C679.111 393.547 678.441 393.682 677.631 393.682C677.071 393.682 676.561 393.642 676.101 393.562C675.651 393.482 675.231 393.357 674.841 393.187V391.792C675.101 391.932 675.381 392.047 675.681 392.137C675.981 392.237 676.296 392.307 676.626 392.347C676.966 392.397 677.316 392.422 677.676 392.422C678.296 392.422 678.771 392.232 679.101 391.852C679.441 391.482 679.611 390.957 679.611 390.277V390.007C679.611 389.877 679.616 389.707 679.626 389.497C679.636 389.277 679.646 389.117 679.656 389.017H679.596C679.346 389.437 679.031 389.747 678.651 389.947C678.281 390.137 677.841 390.232 677.331 390.232C676.391 390.232 675.651 389.867 675.111 389.137C674.571 388.397 674.301 387.372 674.301 386.062C674.301 385.182 674.421 384.432 674.661 383.812C674.911 383.182 675.261 382.697 675.711 382.357C676.171 382.017 676.716 381.847 677.346 381.847ZM677.736 383.167C677.356 383.167 677.036 383.282 676.776 383.512C676.516 383.732 676.316 384.057 676.176 384.487C676.046 384.917 675.981 385.447 675.981 386.077C675.981 387.017 676.131 387.732 676.431 388.222C676.731 388.712 677.171 388.957 677.751 388.957C678.091 388.957 678.381 388.907 678.621 388.807C678.861 388.707 679.056 388.552 679.206 388.342C679.366 388.132 679.481 387.867 679.551 387.547C679.631 387.217 679.671 386.822 679.671 386.362V386.062C679.671 385.372 679.601 384.817 679.461 384.397C679.331 383.967 679.121 383.657 678.831 383.467C678.551 383.267 678.186 383.167 677.736 383.167ZM685.115 390.082H683.495V378.682H685.115V390.082ZM690.452 381.847C691.122 381.847 691.702 381.997 692.192 382.297C692.682 382.587 693.057 383.007 693.317 383.557C693.587 384.107 693.722 384.757 693.722 385.507V386.377H688.637C688.657 387.207 688.857 387.842 689.237 388.282C689.617 388.722 690.152 388.942 690.842 388.942C691.332 388.942 691.767 388.897 692.147 388.807C692.537 388.707 692.932 388.562 693.332 388.372V389.692C692.952 389.872 692.562 390.007 692.162 390.097C691.772 390.187 691.297 390.232 690.737 390.232C690.007 390.232 689.357 390.077 688.787 389.767C688.217 389.457 687.772 388.997 687.452 388.387C687.132 387.767 686.972 387.007 686.972 386.107C686.972 385.197 687.117 384.427 687.407 383.797C687.697 383.167 688.102 382.687 688.622 382.357C689.152 382.017 689.762 381.847 690.452 381.847ZM690.452 383.077C689.942 383.077 689.532 383.262 689.222 383.632C688.912 384.002 688.732 384.527 688.682 385.207H692.117C692.117 384.787 692.057 384.417 691.937 384.097C691.817 383.777 691.632 383.527 691.382 383.347C691.142 383.167 690.832 383.077 690.452 383.077Z" fill="#090F24"/>
</g>
<path d="M11 205.541C8.23336 207.609 3.18057 213.069 1 215.541L11 225.541" stroke="#B7B8C5" stroke-width="2" stroke-linecap="round" stroke-linejoin="round"/>
<path d="M1155 225.541C1157.77 223.473 1162.82 218.013 1165 215.541L1155 205.541" stroke="#B7B8C5" stroke-width="2" stroke-linecap="round" stroke-linejoin="round"/>
<defs>
<filter id="filter0_d_1_175" x="432.304" y="359.082" width="291" height="54" filterUnits="userSpaceOnUse" color-interpolation-filters="sRGB">
<feFlood flood-opacity="0" result="BackgroundImageFix"/>
<feColorMatrix in="SourceAlpha" type="matrix" values="0 0 0 0 0 0 0 0 0 0 0 0 0 0 0 0 0 0 127 0" result="hardAlpha"/>
<feOffset dy="2"/>
<feGaussianBlur stdDeviation="2"/>
<feComposite in2="hardAlpha" operator="out"/>
<feColorMatrix type="matrix" values="0 0 0 0 0.167755 0 0 0 0 0.352341 0 0 0 0 0.3875 0 0 0 0.06 0"/>
<feBlend mode="normal" in2="BackgroundImageFix" result="effect1_dropShadow_1_175"/>
<feBlend mode="normal" in="SourceGraphic" in2="effect1_dropShadow_1_175" result="shape"/>
</filter>
</defs>
</svg>
