<?xml version='1.0' encoding='utf-8'?>
<svg xmlns="http://www.w3.org/2000/svg" width="110" height="110" viewBox="1060 357.211 110 110" fill="none">
  <circle cx="1115" cy="412.211" r="41.4442" fill="white" />
  <g filter="url(#filter7_d_1_521)">
    <rect x="1092.21" y="398.531" width="66.6188" height="43.5149" rx="8" transform="rotate(-12.2822 1092.21 398.531)" fill="#F4F5F9" />
    <path d="M1149.74 385.762C1141.69 387.458 1133.65 389.154 1125.6 390.85L1124.16 391.155C1124.11 391.165 1124.04 390.98 1123.97 390.872C1123.5 390.156 1123.08 389.454 1122.62 388.785C1122.04 387.918 1121.52 386.989 1120.86 386.213C1119.71 384.849 1118.55 384.724 1117.16 385.782C1116.4 386.364 1115.68 387.059 1115.15 387.838C1114.02 389.486 1113.03 391.275 1111.92 392.918C1111.83 393.062 1111.71 393.21 1111.57 393.339C1111.26 393.651 1110.89 393.901 1110.54 393.976C1106.7 394.86 1102.8 395.608 1098.95 396.468C1095.25 397.299 1092.73 400.498 1092.94 404.286C1093.03 405.922 1093.9 410.016 1093.9 410.016C1093.9 410.016 1093.37 410.448 1093.15 410.593C1091.56 411.72 1089.94 412.804 1088.59 414.151C1087.06 415.684 1087.26 417.124 1089 418.439C1090.2 419.323 1091.51 420.036 1092.73 420.891C1094.99 422.466 1096.73 424.398 1097.51 427.027C1097.65 427.443 1097.74 427.893 1097.81 428.347C1098.1 430.19 1098.55 431.973 1098.94 433.796C1099.99 438.666 1103.86 441.211 1108.69 440.217C1125.5 436.698 1142.3 433.132 1159.1 429.59C1163.98 428.562 1166.47 424.699 1165.45 419.824C1163.51 410.641 1161.57 401.435 1159.63 392.253C1158.57 387.188 1154.78 384.699 1149.74 385.762ZM1094.5 403.634C1094.46 401.197 1096.27 398.863 1098.64 398.288C1102.55 397.342 1106.49 396.608 1110.52 395.76L1110.61 395.74C1110.22 397.058 1109.91 398.408 1109.49 399.684C1109.42 399.922 1108.99 400.135 1108.69 400.2C1105.45 400.931 1103.46 402.858 1102.74 406.101C1102.66 406.439 1102.3 406.836 1101.97 406.93C1099.9 407.663 1097.79 408.306 1095.38 409.085C1095.33 409.095 1095.29 409.105 1095.26 409.11C1094.99 407.339 1094.52 405.484 1094.5 403.634ZM1163.88 419.906C1164.8 424.261 1162.83 427.222 1158.47 428.14C1141.88 431.638 1125.27 435.14 1108.68 438.637C1104.4 439.54 1101.39 437.603 1100.45 433.353C1100.18 432.099 1099.92 430.844 1099.62 429.424C1099.67 429.438 1099.73 429.452 1099.78 429.465C1101.89 430.084 1103.11 428.862 1104.26 427.507C1106.49 424.861 1108.06 421.837 1109.31 418.632C1109.44 418.308 1109.57 417.984 1109.79 417.417C1110.98 419.762 1112.1 421.923 1113.2 424.089C1113.75 425.16 1114.21 426.299 1114.89 427.293C1115.21 427.768 1115.97 428.325 1116.45 428.249C1116.93 428.173 1117.5 427.484 1117.73 426.917C1118.09 426.05 1118.23 425.081 1118.49 424.063C1119.45 424.428 1120.26 424.728 1121.07 425.075C1121.83 425.385 1122.52 425.586 1123.15 424.859C1123.77 424.136 1123.5 423.451 1123.15 422.734C1122.35 421.148 1121.55 419.586 1120.74 418.001C1120.57 417.642 1120.39 417.284 1120.13 416.722C1122.4 417.082 1124.48 417.412 1126.55 417.741C1126.96 417.804 1127.35 417.894 1127.75 417.833C1128.99 417.721 1129.51 416.549 1128.82 415.531C1128.54 415.098 1128.18 414.703 1127.85 414.303C1127.52 413.903 1127.19 413.504 1126.75 412.977C1127.64 412.394 1128.54 411.934 1129.24 411.291C1129.67 410.878 1130.18 410.105 1130.05 409.636C1129.95 409.163 1129.17 408.588 1128.62 408.479C1125.99 407.947 1123.34 407.567 1121.06 407.206C1123.83 405.56 1126.92 404.019 1129.69 402.027C1133.29 399.437 1133.08 397.604 1129.32 395.233C1128.09 394.453 1126.88 393.622 1125.41 392.646C1125.38 392.627 1125.35 392.584 1125.29 392.571C1125.99 392.374 1126.34 392.275 1126.68 392.205C1134.41 390.574 1142.13 388.948 1149.87 387.316C1153.28 386.598 1155.75 387.535 1157.25 390.185C1157.68 390.935 1157.91 391.824 1158.09 392.676C1160.06 401.754 1161.99 410.813 1163.88 419.906Z" fill="#74CCD8" />
    <path d="M1146.3 392.296C1147.01 392.146 1147.71 391.973 1148.43 391.847C1150.07 391.574 1151.16 392.26 1151.55 393.883C1151.9 395.293 1152.2 396.713 1152.45 398.143C1152.75 399.833 1152.01 401.003 1150.36 401.376C1148.95 401.699 1147.53 401.998 1146.1 402.274C1144.46 402.571 1143.35 401.866 1142.95 400.243C1142.6 398.786 1142.29 397.342 1142.03 395.865C1141.72 394.174 1142.37 393.148 1144.04 392.746C1144.8 392.587 1145.56 392.451 1146.3 392.296Z" fill="url(#paint13_linear_1_521)" />
    <path d="M1144.67 422.672C1148.33 421.899 1152 421.125 1155.65 420.357C1156.24 420.232 1156.99 420.025 1157.13 420.811C1157.17 421.124 1156.47 421.79 1156.02 421.885C1148.62 423.494 1141.21 425.056 1133.8 426.594C1133.21 426.718 1132.5 426.868 1132.35 426.035C1132.19 425.154 1132.98 425.136 1133.54 425.017C1137.26 424.233 1140.97 423.45 1144.67 422.672Z" fill="#928C97" />
    <path d="M1146.87 417.782C1144.22 418.341 1141.6 418.895 1138.95 419.453C1138.38 419.573 1137.77 419.75 1137.58 418.95C1137.4 418.122 1138.05 418.035 1138.6 417.92C1143.92 416.797 1149.24 415.651 1154.58 414.576C1155 414.486 1155.51 414.875 1155.99 415.045C1155.64 415.39 1155.31 415.954 1154.92 416.062C1152.25 416.673 1149.55 417.218 1146.87 417.782Z" fill="#928C97" />
    <path d="M1129.71 402.045C1126.95 404.038 1123.84 405.583 1121.09 407.225C1123.37 407.585 1126.02 407.966 1128.65 408.498C1129.22 408.601 1129.98 409.158 1130.08 409.655C1130.18 410.128 1129.7 410.897 1129.27 411.309C1128.54 411.957 1127.65 412.417 1126.78 412.995C1127.21 413.522 1127.55 413.922 1127.88 414.322C1128.21 414.722 1128.56 415.116 1128.85 415.55C1129.54 416.567 1129.01 417.716 1127.78 417.852C1127.39 417.885 1126.98 417.822 1126.58 417.76C1124.5 417.431 1122.43 417.101 1120.16 416.74C1120.43 417.326 1120.6 417.685 1120.77 418.02C1121.58 419.605 1122.38 421.167 1123.18 422.752C1123.53 423.47 1123.8 424.179 1123.18 424.878C1122.54 425.605 1121.84 425.409 1121.1 425.094C1120.29 424.746 1119.46 424.451 1118.52 424.082C1118.26 425.099 1118.14 426.064 1117.76 426.936C1117.53 427.479 1116.96 428.191 1116.48 428.268C1116 428.32 1115.24 427.787 1114.92 427.311C1114.24 426.317 1113.78 425.203 1113.23 424.108C1112.13 421.942 1111.01 419.781 1109.82 417.436C1109.61 417.974 1109.49 418.298 1109.34 418.651C1108.09 421.856 1106.53 424.903 1104.29 427.526C1103.14 428.88 1101.91 430.079 1099.81 429.484C1099.74 429.423 1098.26 428.03 1097.54 427.069C1096.77 424.44 1095.02 422.509 1092.76 420.933C1091.54 420.078 1090.21 419.371 1089.03 418.482C1087.3 417.167 1087.09 415.727 1088.62 414.193C1089.97 412.846 1091.6 411.762 1093.17 410.664C1093.39 410.519 1094.12 409.919 1094.35 409.798C1094.63 409.638 1094.92 409.479 1095.28 409.205C1097.69 408.426 1099.92 407.734 1101.99 407.024C1102.31 406.907 1102.7 406.505 1102.76 406.196C1103.46 402.858 1105.45 400.931 1108.69 400.2C1108.99 400.135 1109.42 399.922 1109.49 399.684C1109.91 398.408 1110.22 397.058 1110.61 395.74L1110.52 395.76C1110.52 395.76 1110.51 395.736 1110.54 395.731C1110.65 395.46 1111.07 394.407 1111.57 393.363C1111.72 393.233 1111.83 393.085 1111.93 392.942C1113.06 391.27 1114.02 389.51 1115.16 387.861C1115.68 387.083 1116.43 386.382 1117.17 385.805C1118.55 384.724 1119.72 384.873 1120.87 386.237C1121.53 387.036 1122.07 387.937 1122.62 388.808C1123.06 389.482 1123.51 390.18 1123.98 390.896C1124.25 391.505 1124.5 391.948 1124.65 392.089C1124.9 392.333 1125.18 392.52 1125.46 392.659C1126.93 393.635 1128.14 394.444 1129.37 395.247C1133.11 397.622 1133.32 399.456 1129.71 402.045Z" fill="url(#paint14_linear_1_521)" />
    <path d="M1113.25 401.661C1116.01 403.848 1117.57 408.585 1115.36 411.349C1113.15 414.114 1108.05 413.83 1105.29 411.644C1102.53 409.457 1102.13 405.439 1104.31 402.679C1106.5 399.919 1110.51 399.47 1113.25 401.661Z" fill="#E080AD" />
  </g>
  <defs>
    <filter id="filter7_d_1_521" x="1083.56" y="383.077" width="86.1165" height="63.3525" filterUnits="userSpaceOnUse" color-interpolation-filters="sRGB">
      <feFlood flood-opacity="0" result="BackgroundImageFix" />
      <feColorMatrix in="SourceAlpha" type="matrix" values="0 0 0 0 0 0 0 0 0 0 0 0 0 0 0 0 0 0 127 0" result="hardAlpha" />
      <feOffset dy="2" />
      <feGaussianBlur stdDeviation="2" />
      <feComposite in2="hardAlpha" operator="out" />
      <feColorMatrix type="matrix" values="0 0 0 0 0.167755 0 0 0 0 0.352341 0 0 0 0 0.3875 0 0 0 0.06 0" />
      <feBlend mode="normal" in2="BackgroundImageFix" result="effect1_dropShadow_1_521" />
      <feBlend mode="normal" in="SourceGraphic" in2="effect1_dropShadow_1_521" result="shape" />
    </filter>
    <linearGradient id="paint13_linear_1_521" x1="1146.24" y1="392.282" x2="1148.26" y2="401.838" gradientUnits="userSpaceOnUse">
      <stop stop-color="#ED9BC1" />
      <stop offset="1" stop-color="#ED9BB9" />
    </linearGradient>
    <linearGradient id="paint14_linear_1_521" x1="1105.8" y1="387.807" x2="1114.43" y2="428.702" gradientUnits="userSpaceOnUse">
      <stop stop-color="#ED9BC1" />
      <stop offset="1" stop-color="#ED9BB9" />
    </linearGradient>
  </defs>
</svg>