<?xml version='1.0' encoding='utf-8'?>
<svg xmlns="http://www.w3.org/2000/svg" width="110" height="110" viewBox="1060 164.461 110 110" fill="none">
  <circle cx="1115" cy="219.461" r="41.4442" fill="white" />
  <g filter="url(#filter13_d_1_521)">
    <path d="M1122.1 226.7C1124.44 227.296 1126.41 227.53 1128.4 226.868C1130.73 226.092 1132.14 224.36 1133.09 222.195C1133.32 221.681 1133.45 221.113 1133.61 220.566C1133.85 219.758 1134.51 219.478 1135.21 219.946C1136.36 220.726 1137.5 221.519 1138.63 222.309C1139.07 222.617 1139.2 223.729 1138.88 224.19C1137.29 226.493 1136.03 228.943 1135.33 231.675C1134.67 234.256 1134.62 236.84 1135.38 239.418C1135.47 239.737 1135.36 240.136 1135.31 240.491C1135.23 241.191 1135.11 241.898 1135.04 242.602C1134.58 246.904 1133.55 251.069 1132.15 255.161C1131.77 256.24 1131.79 257.471 1131.69 258.637C1131.48 260.942 1131.32 263.245 1131.13 265.554C1131.07 266.289 1130.75 266.602 1130.01 266.61C1126.05 266.685 1122.08 266.743 1118.13 266.804C1117.36 266.819 1117.02 266.478 1116.96 265.665C1116.75 262.806 1116.54 259.948 1116.35 257.093C1116.31 256.523 1116.15 256.008 1115.73 255.6C1115.16 255.048 1114.48 254.971 1113.77 255.325C1113.1 255.663 1112.58 256.114 1112.16 256.753C1110.76 258.9 1109.3 261.001 1107.87 263.127C1107.33 263.94 1106.91 264.034 1106.1 263.536C1102.79 261.559 1099.49 259.568 1096.17 257.587C1095.37 257.107 1095.23 256.731 1095.64 255.867C1096.94 253.131 1098.24 250.412 1099.53 247.676C1099.75 247.217 1099.9 246.711 1099.99 246.204C1100.8 241.57 1102.26 237.136 1104.27 232.867C1104.31 232.774 1104.4 232.665 1104.39 232.575C1104.37 231.655 1105.05 231.173 1105.59 230.594C1107.52 228.515 1108.64 226.028 1109.19 223.269C1109.66 220.947 1109.72 218.619 1109.53 216.252C1109.48 215.677 1110.21 214.825 1110.79 214.79C1112.11 214.685 1113.42 214.565 1114.73 214.459C1115.71 214.382 1116.17 214.946 1115.88 215.889C1115.44 217.364 1115.35 218.859 1115.63 220.377C1116.12 223.164 1117.88 224.891 1120.36 225.997C1121.02 226.35 1121.74 226.573 1122.1 226.7ZM1127.42 241.917C1127.6 241.875 1127.76 241.847 1127.94 241.805C1129.88 241.278 1131.13 240.02 1131.55 238.067C1132 236.005 1131.08 233.975 1129.35 232.919C1127.56 231.835 1125.39 231.978 1123.71 233.311C1123.49 233.487 1123.33 233.533 1123.06 233.373C1121.7 232.565 1120.21 232.167 1118.63 232.185C1118.3 232.187 1118.2 232.057 1118.11 231.797C1117.35 229.852 1115.61 228.647 1113.59 228.651C1111.5 228.654 1109.78 229.846 1108.98 231.844C1108.28 233.587 1108.81 235.722 1110.28 237.119C1110.4 237.224 1110.5 237.34 1110.6 237.439C1108.98 241.386 1110.2 244.928 1112.22 247.005C1114.74 249.598 1117.8 250.461 1121.24 249.393C1124.84 248.261 1126.8 245.66 1127.42 241.917Z" fill="#D5EBF8" />
    <path d="M1141.49 241.601C1141.31 241.494 1141.03 241.331 1140.74 241.163C1139.67 240.568 1138.59 239.983 1137.55 239.364C1137.41 239.282 1137.32 239.067 1137.26 238.889C1136.5 236.443 1136.65 234.006 1137.37 231.588C1137.98 229.539 1138.94 227.658 1140.11 225.89C1140.7 224.988 1141.38 224.961 1142.06 225.823C1144.02 228.31 1145.97 230.81 1147.92 233.293C1148.43 233.931 1148.43 234.315 1147.93 234.904C1146.22 236.997 1144.5 239.073 1142.79 241.167C1142.47 241.524 1142.14 241.774 1141.49 241.601Z" fill="#74CCD8" />
    <path d="M1106.94 224.379C1106.58 225.845 1105.52 228.039 1103.67 229.802C1103.41 230.056 1103.16 230.107 1102.79 230.08C1101.64 230.023 1100.48 230.066 1099.32 230.081C1099.13 230.088 1098.93 230.095 1098.73 230.085C1098.13 230.057 1097.81 229.779 1097.7 229.19C1097.24 226.455 1096.78 223.706 1096.34 220.962C1096.24 220.345 1096.43 219.999 1097 219.767C1100.06 218.522 1103.14 217.281 1106.2 216.068C1106.96 215.77 1107.56 216.167 1107.62 216.994C1107.77 219.143 1107.67 221.284 1106.94 224.379Z" fill="#74CCD8" />
    <path d="M1122.79 224.908C1122.12 224.641 1121.3 224.375 1120.53 223.964C1118.15 222.69 1117.13 220.824 1117.5 217.678C1117.55 217.22 1117.68 216.769 1117.83 216.336C1118.08 215.549 1118.68 215.355 1119.41 215.758C1120.47 216.336 1121.52 216.941 1122.6 217.481C1124.99 218.682 1127.58 218.829 1130.19 218.777C1130.38 218.769 1130.57 218.762 1130.78 218.773C1131.43 218.801 1131.85 219.268 1131.73 219.898C1131.12 222.936 1129.08 225.767 1124.89 225.265C1124.25 225.195 1123.61 225.053 1122.79 224.908Z" fill="#74CCD8" />
    <path d="M1130.75 270.186C1130.61 270.695 1130.28 270.945 1129.62 270.944C1126.53 270.958 1123.43 270.954 1120.35 270.968C1119.71 270.975 1119.07 270.981 1118.43 270.97C1117.65 270.967 1117.23 270.577 1117.24 269.855C1117.23 269.16 1117.62 268.793 1118.4 268.779C1122.1 268.71 1125.82 268.644 1129.52 268.589C1130.55 268.568 1131 269.177 1130.75 270.186Z" fill="#74CCD8" />
    <path d="M1093.55 260.367C1093.88 259.214 1094.57 258.929 1095.45 259.458C1098.62 261.371 1101.82 263.274 1104.99 265.187C1105.66 265.589 1105.81 266.158 1105.41 266.759C1105.08 267.262 1104.54 267.412 1104.02 267.109C1100.69 265.201 1097.37 263.279 1094.05 261.357C1093.62 261.121 1093.46 260.711 1093.55 260.367Z" fill="#74CCD8" />
    <path d="M1125.28 242.714C1124.32 246.351 1120.56 248.531 1116.92 247.585C1113.29 246.643 1111.09 242.852 1112.05 239.243C1113.02 235.565 1116.75 233.395 1120.43 234.379C1124.07 235.325 1126.24 239.063 1125.28 242.714ZM1118.97 240.037C1117.41 239.589 1115.82 240.461 1115.36 242.019C1114.9 243.576 1115.76 245.181 1117.32 245.643C1118.91 246.112 1120.52 245.23 1120.97 243.641C1121.41 242.075 1120.53 240.485 1118.97 240.037ZM1116.33 238.295C1116.85 238.449 1117.4 238.141 1117.54 237.618C1117.68 237.108 1117.34 236.546 1116.85 236.414C1116.35 236.281 1115.83 236.583 1115.68 237.089C1115.51 237.604 1115.79 238.138 1116.33 238.295ZM1122.5 237.929C1121.99 237.793 1121.43 238.129 1121.31 238.642C1121.18 239.155 1121.5 239.682 1122.04 239.826C1122.55 239.948 1123.06 239.656 1123.19 239.147C1123.33 238.638 1123.01 238.066 1122.5 237.929Z" fill="#D9C8BB" />
    <path d="M1111.63 235.679C1110.64 234.737 1110.39 233.533 1110.91 232.315C1111.35 231.268 1112.52 230.534 1113.67 230.592C1114.88 230.65 1115.88 231.375 1116.27 232.512C1114.4 233.058 1112.85 234.103 1111.63 235.679Z" fill="url(#paint23_linear_1_521)" />
    <path d="M1124.95 234.808C1126.02 234.003 1127.26 233.924 1128.3 234.557C1129.33 235.186 1129.88 236.367 1129.68 237.521C1129.45 238.758 1128.62 239.629 1127.4 239.892C1127.11 237.955 1126.32 236.269 1124.95 234.808Z" fill="url(#paint24_linear_1_521)" />
    <path d="M1117.91 243.779C1117.39 243.639 1117.08 243.115 1117.23 242.579C1117.37 242.056 1117.91 241.757 1118.44 241.915C1118.94 242.065 1119.24 242.571 1119.1 243.08C1118.96 243.603 1118.43 243.919 1117.91 243.779Z" fill="#928C97" />
  </g>
  <g filter="url(#filter14_d_1_521)">
    <path d="M1096.83 201.369C1092.87 201.344 1089.91 197.694 1090.65 193.799C1090.93 192.358 1091.1 190.891 1091.28 189.433C1091.5 187.68 1091.8 185.96 1093 184.552C1094.86 182.36 1097.23 181.399 1100.05 181.964C1103.12 182.571 1105.03 184.51 1105.78 187.553C1106.18 189.163 1105.95 190.731 1105.24 192.223C1104.37 194.069 1103.49 195.924 1102.6 197.761C1101.51 200.012 1099.31 201.378 1096.83 201.369ZM1096.85 190.031C1096.61 190.149 1096.4 190.234 1096.21 190.343C1094.25 191.464 1093.3 194.482 1094.27 196.522C1094.97 197.997 1096.47 198.554 1097.93 197.862C1100.12 196.809 1101.15 193.336 1099.89 191.254C1099.82 191.136 1099.76 191.018 1099.68 190.883C1100.23 190.588 1100.74 190.31 1101.3 190.006C1101.05 189.526 1100.8 189.079 1100.56 188.615C1099.85 188.995 1099.18 189.349 1098.49 189.711C1098.12 189.028 1097.76 188.354 1097.38 187.654C1096.9 187.907 1096.45 188.152 1095.99 188.396C1096.3 188.961 1096.57 189.483 1096.85 190.031Z" fill="url(#paint25_linear_1_521)" />
    <path d="M1086.28 188.919C1086.98 188.919 1088.23 189.155 1089.16 189.534C1089.56 189.694 1089.64 189.888 1089.58 190.293C1089.37 191.65 1089.13 193.007 1089.02 194.373C1088.78 197.39 1089.96 199.784 1092.4 201.546C1092.7 201.757 1092.76 201.951 1092.71 202.271C1092.53 203.468 1092.34 204.648 1091.69 205.71C1090.32 207.97 1087.58 209.2 1085.08 208.678C1082.36 208.096 1080.39 206.022 1079.99 203.342C1079.68 201.217 1079.32 199.11 1079.04 196.986C1078.56 193.496 1081.02 189.964 1084.47 189.163C1085.05 189.028 1085.57 188.919 1086.28 188.919ZM1083.69 197.601C1083.37 197.947 1083.08 198.217 1082.86 198.537C1082.06 199.65 1081.88 200.914 1082.06 202.229C1082.19 203.224 1082.57 204.117 1083.32 204.825C1084.41 205.845 1085.91 205.862 1087 204.834C1087.88 203.999 1088.26 202.92 1088.32 201.74C1088.41 200.138 1087.96 198.722 1086.59 197.618C1087.06 197.188 1087.5 196.784 1087.92 196.404C1087.53 196 1087.18 195.637 1086.77 195.207C1086.24 195.78 1085.72 196.337 1085.15 196.952C1084.58 196.345 1084.06 195.789 1083.58 195.275C1083.19 195.662 1082.83 196.025 1082.44 196.413C1082.84 196.8 1083.27 197.205 1083.69 197.601Z" fill="url(#paint26_linear_1_521)" />
    <path d="M1096.85 190.031C1096.57 189.484 1096.29 188.969 1095.99 188.405C1096.46 188.16 1096.91 187.916 1097.39 187.663C1097.77 188.362 1098.13 189.037 1098.5 189.72C1099.19 189.357 1099.86 189.003 1100.56 188.624C1100.81 189.087 1101.05 189.534 1101.31 190.015C1100.75 190.318 1100.24 190.596 1099.69 190.891C1099.76 191.026 1099.83 191.144 1099.9 191.262C1101.15 193.344 1100.13 196.817 1097.93 197.871C1096.49 198.562 1094.97 198.006 1094.27 196.531C1093.31 194.491 1094.26 191.473 1096.21 190.352C1096.41 190.234 1096.61 190.149 1096.85 190.031ZM1095.51 194.668C1095.51 194.811 1095.49 194.954 1095.51 195.089C1095.6 195.679 1095.74 196.295 1096.38 196.514C1097.03 196.741 1097.53 196.362 1097.92 195.898C1098.73 194.921 1099.08 193.799 1098.73 192.535C1098.44 191.456 1097.57 191.195 1096.72 191.92C1095.88 192.636 1095.53 193.589 1095.51 194.668Z" fill="#D9C8BB" />
    <path d="M1083.69 197.601C1083.27 197.205 1082.84 196.8 1082.44 196.421C1082.82 196.033 1083.19 195.671 1083.58 195.283C1084.06 195.797 1084.59 196.354 1085.15 196.961C1085.72 196.345 1086.24 195.78 1086.77 195.216C1087.18 195.645 1087.53 196.008 1087.92 196.413C1087.5 196.792 1087.06 197.197 1086.59 197.626C1087.96 198.731 1088.41 200.138 1088.32 201.749C1088.26 202.929 1087.88 204.008 1087 204.842C1085.91 205.871 1084.41 205.854 1083.32 204.834C1082.57 204.126 1082.19 203.224 1082.06 202.237C1081.87 200.922 1082.06 199.658 1082.86 198.545C1083.08 198.217 1083.37 197.955 1083.69 197.601ZM1086.75 201.445C1086.74 200.686 1086.6 199.978 1086.15 199.371C1085.58 198.613 1084.75 198.613 1084.17 199.363C1083.37 200.408 1083.37 202.398 1084.16 203.443C1084.75 204.202 1085.6 204.193 1086.16 203.409C1086.6 202.828 1086.74 202.145 1086.75 201.445Z" fill="#D9C8BB" />
    <path d="M1095.51 194.668C1095.53 193.589 1095.88 192.636 1096.72 191.92C1097.57 191.195 1098.44 191.456 1098.73 192.535C1099.09 193.799 1098.73 194.921 1097.92 195.898C1097.53 196.362 1097.03 196.741 1096.38 196.514C1095.74 196.295 1095.61 195.679 1095.51 195.089C1095.49 194.954 1095.51 194.811 1095.51 194.668Z" fill="#928C97" />
    <path d="M1086.75 201.445C1086.74 202.145 1086.59 202.819 1086.17 203.409C1085.61 204.193 1084.75 204.201 1084.17 203.443C1083.38 202.398 1083.38 200.408 1084.18 199.363C1084.75 198.613 1085.58 198.613 1086.15 199.371C1086.61 199.978 1086.74 200.686 1086.75 201.445Z" fill="#928C97" />
  </g>
  <defs>
    <filter id="filter13_d_1_521" x="1089.53" y="212.452" width="62.7753" height="64.5238" filterUnits="userSpaceOnUse" color-interpolation-filters="sRGB">
      <feFlood flood-opacity="0" result="BackgroundImageFix" />
      <feColorMatrix in="SourceAlpha" type="matrix" values="0 0 0 0 0 0 0 0 0 0 0 0 0 0 0 0 0 0 127 0" result="hardAlpha" />
      <feOffset dy="2" />
      <feGaussianBlur stdDeviation="2" />
      <feComposite in2="hardAlpha" operator="out" />
      <feColorMatrix type="matrix" values="0 0 0 0 0.200521 0 0 0 0 0.767083 0 0 0 0 0.875 0 0 0 0.2 0" />
      <feBlend mode="normal" in2="BackgroundImageFix" result="effect1_dropShadow_1_521" />
      <feBlend mode="normal" in="SourceGraphic" in2="effect1_dropShadow_1_521" result="shape" />
    </filter>
    <linearGradient id="paint23_linear_1_521" x1="1114.05" y1="230.62" x2="1112.62" y2="235.946" gradientUnits="userSpaceOnUse">
      <stop stop-color="#ED9BC1" />
      <stop offset="1" stop-color="#ED9BB9" />
    </linearGradient>
    <linearGradient id="paint24_linear_1_521" x1="1127.82" y1="234.303" x2="1126.39" y2="239.62" gradientUnits="userSpaceOnUse">
      <stop stop-color="#ED9BC1" />
      <stop offset="1" stop-color="#ED9BB9" />
    </linearGradient>
    <filter id="filter14_d_1_521" x="1074.98" y="179.806" width="35.0006" height="34.9915" filterUnits="userSpaceOnUse" color-interpolation-filters="sRGB">
      <feFlood flood-opacity="0" result="BackgroundImageFix" />
      <feColorMatrix in="SourceAlpha" type="matrix" values="0 0 0 0 0 0 0 0 0 0 0 0 0 0 0 0 0 0 127 0" result="hardAlpha" />
      <feOffset dy="2" />
      <feGaussianBlur stdDeviation="2" />
      <feComposite in2="hardAlpha" operator="out" />
      <feColorMatrix type="matrix" values="0 0 0 0 0.929412 0 0 0 0 0.607843 0 0 0 0 0.756863 0 0 0 0.2 0" />
      <feBlend mode="normal" in2="BackgroundImageFix" result="effect1_dropShadow_1_521" />
      <feBlend mode="normal" in="SourceGraphic" in2="effect1_dropShadow_1_521" result="shape" />
    </filter>
    <linearGradient id="paint25_linear_1_521" x1="1098.26" y1="181.806" x2="1098.26" y2="201.369" gradientUnits="userSpaceOnUse">
      <stop stop-color="#ED9BC1" />
      <stop offset="1" stop-color="#ED9BB9" />
    </linearGradient>
    <linearGradient id="paint26_linear_1_521" x1="1085.85" y1="188.919" x2="1085.85" y2="208.797" gradientUnits="userSpaceOnUse">
      <stop stop-color="#ED9BC1" />
      <stop offset="1" stop-color="#ED9BB9" />
    </linearGradient>
  </defs>
</svg>