<?xml version='1.0' encoding='utf-8'?>
<svg xmlns="http://www.w3.org/2000/svg" width="110" height="110" viewBox="870 164.461 110 110" fill="none">
  <circle cx="925" cy="219.461" r="41.4442" fill="white" />
  <path d="M935.606 188.187C934.169 186.781 932.779 185.454 931.436 184.064C930.749 183.345 930.343 182.455 930.312 181.44C930.281 180.284 930.89 179.347 931.936 179.004C932.795 178.707 933.904 179.16 934.513 180.066C934.575 180.16 934.638 180.269 934.7 180.363C935.231 181.206 936.121 181.221 936.668 180.378C936.824 180.128 936.98 179.878 937.183 179.675C937.855 179.035 938.636 178.676 939.573 179.051C940.479 179.41 941.056 180.316 941.056 181.315C941.041 182.221 940.791 183.08 940.182 183.736C939.229 184.782 938.214 185.782 937.199 186.781C936.715 187.25 936.199 187.671 935.606 188.187Z" fill="url(#paint20_linear_1_521)" />
  <g filter="url(#filter11_d_1_521)">
    <path d="M921.679 205.949C920.242 204.543 918.852 203.216 917.509 201.826C916.822 201.108 916.416 200.218 916.385 199.202C916.353 198.047 916.962 197.11 918.009 196.766C918.868 196.469 919.976 196.922 920.586 197.828C920.648 197.922 920.71 198.031 920.773 198.125C921.304 198.968 922.194 198.984 922.741 198.14C922.897 197.891 923.053 197.641 923.256 197.438C923.928 196.797 924.708 196.438 925.645 196.813C926.551 197.172 927.129 198.078 927.129 199.077C927.113 199.983 926.863 200.842 926.254 201.498C925.302 202.544 924.287 203.544 923.272 204.543C922.787 205.012 922.272 205.434 921.679 205.949Z" fill="url(#paint21_linear_1_521)" />
  </g>
  <g filter="url(#filter12_d_1_521)">
    <path d="M924.983 213.242C933.148 213.224 939.973 219.924 940.008 228.017C940.026 236.521 933.416 243.221 924.983 243.257C916.801 243.275 910.03 236.557 909.994 228.374C909.958 219.995 916.64 213.26 924.983 213.242ZM930.361 232.43C930.343 231.233 929.718 230.268 928.414 229.839C926.109 229.071 923.768 229.071 921.464 229.893C920.356 230.286 919.695 231.162 919.659 232.376C919.57 235.074 922.339 237.897 925.019 237.897C927.663 237.879 930.379 235.11 930.361 232.43ZM918.552 226.088C918.552 225.516 918.069 225.034 917.497 225.034C916.89 225.034 916.408 225.552 916.426 226.141C916.443 226.713 916.944 227.177 917.515 227.16C918.105 227.16 918.569 226.677 918.552 226.088ZM933.559 226.07C933.541 225.498 933.059 225.016 932.487 225.034C931.879 225.034 931.397 225.552 931.433 226.159C931.469 226.731 931.969 227.195 932.541 227.16C933.112 227.142 933.577 226.659 933.559 226.07Z" fill="#D9C8BB" />
    <path d="M913.406 240.88C916.747 243.846 920.588 245.4 925.019 245.4C929.414 245.4 933.255 243.846 936.578 240.88C939.705 245.597 941.205 250.706 941.045 256.352C937.382 255.673 934.327 256.602 932.112 259.532C929.896 262.462 929.825 265.66 931.451 268.93C929.45 270.359 922.035 270.412 918.534 269.001C920.16 265.749 920.142 262.534 917.908 259.568C915.693 256.638 912.638 255.691 908.958 256.37C908.761 250.706 910.28 245.597 913.406 240.88Z" fill="#74CCD8" />
    <path d="M911.048 258.264C914.585 258.246 917.497 261.14 917.497 264.678C917.515 268.215 914.621 271.127 911.084 271.127C907.546 271.145 904.634 268.251 904.634 264.713C904.616 261.176 907.511 258.282 911.048 258.264Z" fill="#D9C8BB" />
    <path d="M945.368 264.713C945.368 268.251 942.474 271.127 938.919 271.127C935.381 271.127 932.505 268.215 932.505 264.677C932.505 261.14 935.417 258.264 938.954 258.264C942.492 258.282 945.368 261.176 945.368 264.713Z" fill="#D9C8BB" />
    <path d="M939.687 237.128C944.135 239.415 947.476 242.595 948.513 247.669C948.924 249.67 947.994 251.439 946.315 251.885C945.547 252.1 944.689 252.01 943.867 252.028C943.206 252.046 942.938 251.707 942.831 251.028C942.188 246.936 940.652 243.185 938.347 239.754C938.115 239.415 938.115 239.2 938.365 238.897C938.829 238.379 939.205 237.807 939.687 237.128Z" fill="#D9C8BB" />
    <path d="M910.333 237.2C910.816 237.861 911.298 238.451 911.691 239.094C911.78 239.237 911.727 239.594 911.602 239.773C909.44 243.024 907.975 246.562 907.225 250.385C907.207 250.492 907.189 250.599 907.171 250.707C906.957 251.993 906.939 252.047 905.653 252.082C904.956 252.1 904.205 252.064 903.544 251.85C901.954 251.332 901.15 249.67 901.454 247.687C901.829 245.24 903.062 243.221 904.634 241.399C906.224 239.576 908.082 238.147 910.333 237.2Z" fill="#D9C8BB" />
    <path d="M916.783 213.188C912.87 215.404 910.19 218.637 908.708 222.871C906.796 221.889 905.492 219.298 905.724 216.958C905.992 214.26 907.832 212.063 910.458 211.33C912.763 210.705 915.514 211.509 916.783 213.188Z" fill="#D9C8BB" />
    <path d="M933.148 213.153C935.024 211.33 937.15 210.669 939.633 211.366C942.17 212.063 943.939 214.207 944.261 216.869C944.546 219.191 943.314 221.746 941.295 222.907C939.812 218.673 937.15 215.421 933.148 213.153Z" fill="#D9C8BB" />
    <path d="M928.217 232.341C928.092 234.467 925.751 236.485 923.822 235.413C922.786 234.842 922.125 234.02 921.839 232.877C921.714 232.358 921.857 231.965 922.375 231.822C924.126 231.322 925.894 231.322 927.645 231.822C927.878 231.894 928.074 232.215 928.217 232.341Z" fill="#928C97" />
    <path d="M924.929 260.1C923.492 258.694 922.103 257.367 920.759 255.977C920.072 255.258 919.666 254.368 919.635 253.353C919.604 252.198 920.213 251.261 921.259 250.917C922.118 250.62 923.227 251.073 923.836 251.979C923.898 252.073 923.961 252.182 924.023 252.276C924.554 253.119 925.445 253.135 925.991 252.291C926.147 252.041 926.303 251.791 926.506 251.588C927.178 250.948 927.959 250.589 928.896 250.964C929.802 251.323 930.379 252.229 930.379 253.228C930.364 254.134 930.114 254.993 929.505 255.649C928.552 256.695 927.537 257.695 926.522 258.694C926.038 259.163 925.523 259.584 924.929 260.1Z" fill="url(#paint22_linear_1_521)" />
    <circle cx="932.547" cy="226.14" r="1.13652" fill="#928C97" />
    <circle cx="917.52" cy="226.14" r="1.13652" fill="#928C97" />
  </g>
  <defs>
    <linearGradient id="paint20_linear_1_521" x1="935.684" y1="178.899" x2="935.684" y2="188.187" gradientUnits="userSpaceOnUse">
      <stop stop-color="#ED9BC1" />
      <stop offset="1" stop-color="#ED9BB9" />
    </linearGradient>
    <filter id="filter11_d_1_521" x="912.383" y="194.661" width="18.7455" height="17.288" filterUnits="userSpaceOnUse" color-interpolation-filters="sRGB">
      <feFlood flood-opacity="0" result="BackgroundImageFix" />
      <feColorMatrix in="SourceAlpha" type="matrix" values="0 0 0 0 0 0 0 0 0 0 0 0 0 0 0 0 0 0 127 0" result="hardAlpha" />
      <feOffset dy="2" />
      <feGaussianBlur stdDeviation="2" />
      <feComposite in2="hardAlpha" operator="out" />
      <feColorMatrix type="matrix" values="0 0 0 0 0.929412 0 0 0 0 0.607843 0 0 0 0 0.756863 0 0 0 0.2 0" />
      <feBlend mode="normal" in2="BackgroundImageFix" result="effect1_dropShadow_1_521" />
      <feBlend mode="normal" in="SourceGraphic" in2="effect1_dropShadow_1_521" result="shape" />
    </filter>
    <linearGradient id="paint21_linear_1_521" x1="921.756" y1="196.661" x2="921.756" y2="205.949" gradientUnits="userSpaceOnUse">
      <stop stop-color="#ED9BC1" />
      <stop offset="1" stop-color="#ED9BB9" />
    </linearGradient>
    <filter id="filter12_d_1_521" x="897.391" y="209.094" width="55.2186" height="68.0328" filterUnits="userSpaceOnUse" color-interpolation-filters="sRGB">
      <feFlood flood-opacity="0" result="BackgroundImageFix" />
      <feColorMatrix in="SourceAlpha" type="matrix" values="0 0 0 0 0 0 0 0 0 0 0 0 0 0 0 0 0 0 127 0" result="hardAlpha" />
      <feOffset dy="2" />
      <feGaussianBlur stdDeviation="2" />
      <feComposite in2="hardAlpha" operator="out" />
      <feColorMatrix type="matrix" values="0 0 0 0 0.167755 0 0 0 0 0.352341 0 0 0 0 0.3875 0 0 0 0.06 0" />
      <feBlend mode="normal" in2="BackgroundImageFix" result="effect1_dropShadow_1_521" />
      <feBlend mode="normal" in="SourceGraphic" in2="effect1_dropShadow_1_521" result="shape" />
    </filter>
    <linearGradient id="paint22_linear_1_521" x1="925.007" y1="250.812" x2="925.007" y2="260.1" gradientUnits="userSpaceOnUse">
      <stop stop-color="#ED9BC1" />
      <stop offset="1" stop-color="#ED9BB9" />
    </linearGradient>
  </defs>
</svg>