<?xml version='1.0' encoding='utf-8'?>
<svg xmlns="http://www.w3.org/2000/svg" width="110" height="110" viewBox="487.983 357.211 110 110" fill="none">
  <circle cx="542.983" cy="412.211" r="41.4442" fill="white" />
  <g filter="url(#filter17_d_1_521)">
    <path d="M526.325 446.691C541.328 446.691 556.178 446.691 571.105 446.691C571.124 448.681 570.798 450.576 570.129 452.394C567.737 458.9 561.709 463.588 554.36 463.627C550.38 463.646 546.399 463.703 542.419 463.569C534.86 463.301 528.411 457.809 526.842 450.423C526.574 449.217 526.498 447.973 526.325 446.691Z" fill="url(#paint31_linear_1_521)" />
    <path d="M567.851 437.128C555.106 437.128 542.438 437.128 529.751 437.128C529.98 435.827 531.396 434.679 532.927 434.525C533.061 434.506 533.195 434.487 533.31 434.506C534.764 434.774 535.779 434.277 536.774 433.129C538.094 431.617 539.95 431.368 541.883 431.712C543.204 431.942 543.472 431.866 544.18 430.622C547.241 425.283 554.666 424.441 558.876 428.957C559.948 430.105 560.599 431.445 560.905 432.995C561.211 434.564 561.651 434.851 563.182 434.564C565.191 434.181 567.182 435.234 567.851 437.128Z" fill="#D9C8BB" />
    <path d="M526.536 443.833C526.632 442.512 526.708 441.288 526.804 439.986C541.52 439.986 556.197 439.986 570.971 439.986C570.971 441.268 570.971 442.531 570.971 443.833C556.216 443.833 541.462 443.833 526.536 443.833Z" fill="#928C97" />
    <path d="M585.457 433.708C586.214 434.58 587.007 435.423 587.746 436.31C588.604 437.308 588.605 438.194 587.83 438.814C587.059 439.402 586.165 439.172 585.411 438.12C582.375 433.958 579.357 429.782 576.353 425.624C575.228 424.071 574.103 422.518 572.996 420.95C572.827 420.702 572.837 420.309 572.79 419.992C573.118 420.143 573.558 420.175 573.76 420.427C577.658 424.816 581.548 429.269 585.457 433.708Z" fill="#928C97" />
    <path d="M565.257 418.544C563.681 416.545 562.889 414.851 562.748 412.929C562.474 409.373 564.829 407.537 568.209 408.606C571.679 409.725 574.678 413.502 574.97 417.142C575.234 420.534 572.871 422.45 569.619 421.45C567.658 420.838 566.13 419.634 565.257 418.544Z" fill="#E4E7EE" />
  </g>
  <g filter="url(#filter18_d_1_521)">
    <path d="M507.047 387.074C507.795 386.311 508.447 385.627 509.179 384.879C510.721 386.422 512.248 387.965 513.775 389.508C513.982 389.715 514.173 389.937 514.396 390.128C515.096 390.733 515.939 390.717 516.527 390.096C517.068 389.524 517.084 388.649 516.479 388.013C515.35 386.852 514.205 385.722 513.06 384.577C512.487 384.004 511.899 383.416 511.151 382.668C511.867 382.159 512.487 381.571 513.219 381.253C514.253 380.791 515.35 380.489 516.448 380.171C516.686 380.107 517.084 380.171 517.259 380.346C522.412 385.468 527.534 390.59 532.656 395.743C532.815 395.902 532.863 396.316 532.799 396.554C532.513 397.572 532.211 398.59 531.813 399.561C531.59 400.101 531.272 400.658 530.859 401.072C525.514 406.448 520.154 411.808 514.793 417.153C512.519 419.427 509.974 419.411 507.699 417.137C503.882 413.319 500.128 409.406 496.199 405.7C493.479 403.124 493.416 400.006 496.645 397.413C496.995 397.827 497.329 398.304 497.726 398.718C498.983 400.006 500.271 401.278 501.544 402.551C502.339 403.346 503.198 403.426 503.85 402.774C504.518 402.121 504.454 401.263 503.675 400.467C502.18 398.956 500.685 397.461 499.19 395.966C498.999 395.775 498.824 395.584 498.665 395.409C499.365 394.693 500.033 394.025 500.78 393.262C502.212 394.709 503.643 396.157 505.075 397.604C505.282 397.811 505.488 398.018 505.695 398.224C506.57 399.083 507.461 399.179 508.113 398.511C508.765 397.843 508.67 397 507.811 396.157C506.347 394.693 504.884 393.23 503.436 391.767C503.246 391.576 503.087 391.385 502.88 391.178C503.596 390.51 504.28 389.858 505.059 389.126C506.029 390.096 507.063 391.146 508.097 392.196C508.749 392.848 509.401 393.516 510.069 394.168C510.849 394.916 511.676 394.964 512.312 394.312C512.948 393.675 512.916 392.816 512.169 392.069C510.435 390.415 508.733 388.744 507.047 387.074Z" fill="#74CCD8" />
    <path d="M521.76 373.443C522.762 373.443 523.51 373.92 524.194 374.604C528.17 378.596 532.163 382.589 536.155 386.581C536.903 387.329 537.666 388.076 538.398 388.824C539.877 390.319 539.877 392.005 538.414 393.516C536.744 395.234 536.346 395.234 534.644 393.532C529.459 388.347 524.273 383.161 519.072 377.96C517.816 376.704 517.831 376.131 519.104 374.859C520.17 373.809 520.838 373.443 521.76 373.443Z" fill="url(#paint32_linear_1_521)" />
    <path d="M539.702 377.308C542.693 380.68 542.279 384.561 540.72 386.677C535.933 381.873 531.129 377.069 526.325 372.266C528.17 370.341 531.956 370.659 535.614 373.172C536.998 371.773 538.382 370.357 539.798 368.957C540.832 367.939 542.12 367.701 543.281 368.242C545.19 369.148 545.588 371.518 544.076 373.093C542.884 374.334 541.643 375.527 540.418 376.735C540.211 376.958 539.957 377.117 539.702 377.308Z" fill="#D9C8BB" />
    <path d="M498.617 391.003C497.901 391.735 497.233 392.403 496.565 393.071C493.813 389.715 493.463 383.686 497.504 379.598C501.162 375.892 507.461 375.495 511.167 378.74C510.531 379.328 509.942 379.933 509.258 380.473C509.099 380.601 508.685 380.521 508.463 380.41C504.995 378.596 500.748 379.646 498.665 382.923C497.122 385.356 497.042 387.886 498.315 390.462C498.41 390.653 498.522 390.828 498.617 391.003Z" fill="url(#paint33_linear_1_521)" />
    <path d="M519.836 416.357C520.535 415.673 521.204 415.021 521.888 414.353C525.339 416.198 528.679 416.039 531.447 413.065C533.992 410.329 534.008 407.18 532.258 403.951C532.895 403.251 533.515 402.535 534.151 401.835C536.521 404.189 537.762 410.186 534.008 414.735C530.54 418.934 523.828 419.73 519.836 416.357Z" fill="url(#paint34_linear_1_521)" />
  </g>
  <defs>
    <filter id="filter17_d_1_521" x="522.325" y="406.303" width="70.0755" height="63.3525" filterUnits="userSpaceOnUse" color-interpolation-filters="sRGB">
      <feFlood flood-opacity="0" result="BackgroundImageFix" />
      <feColorMatrix in="SourceAlpha" type="matrix" values="0 0 0 0 0 0 0 0 0 0 0 0 0 0 0 0 0 0 127 0" result="hardAlpha" />
      <feOffset dy="2" />
      <feGaussianBlur stdDeviation="2" />
      <feComposite in2="hardAlpha" operator="out" />
      <feColorMatrix type="matrix" values="0 0 0 0 0.929412 0 0 0 0 0.607843 0 0 0 0 0.756863 0 0 0 0.2 0" />
      <feBlend mode="normal" in2="BackgroundImageFix" result="effect1_dropShadow_1_521" />
      <feBlend mode="normal" in="SourceGraphic" in2="effect1_dropShadow_1_521" result="shape" />
    </filter>
    <linearGradient id="paint31_linear_1_521" x1="548.715" y1="446.691" x2="548.715" y2="463.655" gradientUnits="userSpaceOnUse">
      <stop stop-color="#ED9BC1" />
      <stop offset="1" stop-color="#ED9BB9" />
    </linearGradient>
    <filter id="filter18_d_1_521" x="490.189" y="365.96" width="58.8112" height="58.8906" filterUnits="userSpaceOnUse" color-interpolation-filters="sRGB">
      <feFlood flood-opacity="0" result="BackgroundImageFix" />
      <feColorMatrix in="SourceAlpha" type="matrix" values="0 0 0 0 0 0 0 0 0 0 0 0 0 0 0 0 0 0 127 0" result="hardAlpha" />
      <feOffset dy="2" />
      <feGaussianBlur stdDeviation="2" />
      <feComposite in2="hardAlpha" operator="out" />
      <feColorMatrix type="matrix" values="0 0 0 0 0.929412 0 0 0 0 0.607843 0 0 0 0 0.756863 0 0 0 0.2 0" />
      <feBlend mode="normal" in2="BackgroundImageFix" result="effect1_dropShadow_1_521" />
      <feBlend mode="normal" in="SourceGraphic" in2="effect1_dropShadow_1_521" result="shape" />
    </filter>
    <linearGradient id="paint32_linear_1_521" x1="528.825" y1="373.443" x2="528.825" y2="394.807" gradientUnits="userSpaceOnUse">
      <stop stop-color="#ED9BC1" />
      <stop offset="1" stop-color="#ED9BB9" />
    </linearGradient>
    <linearGradient id="paint33_linear_1_521" x1="502.825" y1="376.541" x2="502.825" y2="393.071" gradientUnits="userSpaceOnUse">
      <stop stop-color="#ED9BC1" />
      <stop offset="1" stop-color="#ED9BB9" />
    </linearGradient>
    <linearGradient id="paint34_linear_1_521" x1="528.115" y1="401.835" x2="528.115" y2="418.457" gradientUnits="userSpaceOnUse">
      <stop stop-color="#ED9BC1" />
      <stop offset="1" stop-color="#ED9BB9" />
    </linearGradient>
  </defs>
</svg>