<?xml version='1.0' encoding='utf-8'?>
<svg xmlns="http://www.w3.org/2000/svg" width="52" height="51" viewBox="292 7 52 51" fill="none">
  <circle cx="300.058" cy="13.6645" r="5.22143" fill="white" />
  <circle cx="336.238" cy="31.4379" r="5.22143" fill="white" />
  <rect x="330.756" y="8.57513" width="10.7031" height="10.7031" fill="white" />
  <rect x="318.075" y="41.8511" width="10.7031" height="10.7031" transform="rotate(45 318.075 41.8511)" fill="white" />
  <path d="M333.715 47.0376L330.188 49.2821L333.715 51.6869L336.12 55.6949L338.444 51.6869L342.052 49.2821L338.444 47.0376L336.12 42.8693L333.715 47.0376Z" fill="white" />
  <rect x="295.795" y="44.0677" width="8.02105" height="10.7031" fill="white" />
  <path d="M314.637 25.8208L311.594 31.3439L314.637 37.5433H320.949L324.556 31.3439L321.739 25.8208H314.637Z" fill="white" />
  <path d="M318.004 8.07983L312.072 19.2221H324.577L318.004 8.07983Z" fill="white" />
  <path d="M300.048 35.4144L296.04 37.4986L296.681 33.0898L293.475 29.9635L297.643 29.0818L300.048 25.5547L301.972 29.0818L305.819 29.9635L303.014 33.0898L304.136 37.4986L300.048 35.4144Z" fill="white" />
  <path d="M296 38.7592C295.811 38.7592 295.622 38.7024 295.452 38.5889C295.149 38.3808 295.017 38.0214 295.054 37.6619L295.698 33.5567L292.709 30.6812C292.444 30.4353 292.349 30.0569 292.463 29.7164C292.576 29.3759 292.86 29.111 293.219 29.0543L297.325 28.4111L299.103 24.7032C299.254 24.3816 299.576 24.2113 299.935 24.2113C299.935 24.2113 299.935 24.2113 299.954 24.2113C300.314 24.2113 300.635 24.3626 300.806 24.6843L302.697 28.3732L306.821 28.9029C307.181 28.9408 307.484 29.1867 307.597 29.5272C307.711 29.8678 307.616 30.2461 307.37 30.492L304.438 33.4243L305.176 37.4349C305.194 37.5106 305.213 37.5863 305.213 37.6619C305.213 38.1916 304.797 38.5889 304.267 38.5889C304.116 38.5889 303.965 38.57 303.832 38.5132L300.124 36.6404L296.473 38.6267C296.303 38.7024 296.152 38.7592 296 38.7592ZM295.395 30.6434L297.381 32.5352C297.608 32.7433 297.722 33.0649 297.665 33.3676L297.23 36.0539L299.633 34.7486C299.897 34.5972 300.238 34.5972 300.522 34.7297L302.962 35.9782L302.47 33.2919C302.414 32.9892 302.508 32.6676 302.735 32.4595L304.665 30.5299L301.96 30.1704C301.657 30.1326 301.373 29.9434 301.241 29.6597L299.973 27.2192L298.8 29.6975C298.668 29.9813 298.403 30.1704 298.1 30.2272L295.395 30.6434Z" fill="#74CCD8" />
  <path d="M336.277 56.9392C335.936 56.9392 335.614 56.75 335.444 56.4474L333.212 52.38L329.145 50.1477C328.842 49.9774 328.653 49.6558 328.653 49.3153C328.653 48.9748 328.842 48.6532 329.145 48.4829L333.212 46.2506L335.444 42.1833C335.614 41.8806 335.936 41.6914 336.277 41.6914C336.617 41.6914 336.939 41.8806 337.109 42.1833L339.322 46.2695L343.39 48.5018C343.692 48.6721 343.882 48.9937 343.882 49.3342C343.882 49.6748 343.692 49.9964 343.39 50.1666L339.322 52.38L337.09 56.4474C336.939 56.75 336.617 56.9392 336.277 56.9392ZM331.585 49.3342L334.385 50.8666C334.536 50.9612 334.669 51.0747 334.763 51.2449L336.295 54.0448L337.828 51.2449C337.922 51.0936 338.036 50.9612 338.206 50.8666L341.006 49.3342L338.206 47.8019C338.055 47.7073 337.922 47.5938 337.828 47.4235L336.295 44.6237L334.763 47.4235C334.669 47.5749 334.555 47.7073 334.385 47.8019L331.585 49.3342Z" fill="#74CCD8" />
  <path d="M321.615 38.3997H314.767C314.426 38.3997 314.124 38.2105 313.953 37.9267L310.529 31.9676C310.359 31.6838 310.359 31.3244 310.529 31.0217L313.953 25.0815C314.124 24.7788 314.426 24.6085 314.767 24.6085H321.615C321.956 24.6085 322.258 24.7977 322.429 25.0815L325.853 31.0406C326.023 31.3244 326.023 31.6838 325.853 31.9865L322.429 37.9456C322.277 38.2294 321.956 38.3997 321.615 38.3997ZM315.316 36.5079H321.067L323.942 31.4946L321.067 26.4814H315.316L312.44 31.4946L315.316 36.5079Z" fill="#74CCD8" />
  <path d="M341.914 20.2196H330.696C330.166 20.2196 329.75 19.8034 329.75 19.2737V8.05539C329.75 7.52569 330.166 7.1095 330.696 7.1095H341.914C342.444 7.1095 342.86 7.52569 342.86 8.05539V19.2737C342.86 19.8034 342.444 20.2196 341.914 20.2196ZM331.642 18.3278H340.968V9.00129H331.642V18.3278Z" fill="#74CCD8" />
  <path d="M304.116 55.9744H295.944C295.414 55.9744 294.998 55.5582 294.998 55.0285V43.8102C294.998 43.2805 295.414 42.8643 295.944 42.8643H304.116C304.646 42.8643 305.062 43.2805 305.062 43.8102V55.0285C305.062 55.5393 304.646 55.9744 304.116 55.9744ZM296.89 54.0826H303.17V44.7561H296.89V54.0826Z" fill="#74CCD8" />
  <path d="M318.191 57.1095C317.945 57.1095 317.699 57.0149 317.529 56.8257L310.775 50.072C310.605 49.9018 310.491 49.6558 310.491 49.4099C310.491 49.164 310.586 48.918 310.775 48.7478L317.529 41.9941C317.907 41.6157 318.494 41.6157 318.872 41.9941L325.626 48.7478C325.796 48.918 325.91 49.164 325.91 49.4099C325.91 49.6558 325.815 49.9018 325.626 50.072L318.872 56.8257C318.683 57.0149 318.437 57.1095 318.191 57.1095ZM312.781 49.4099L318.191 54.8204L323.602 49.4099L318.191 43.9994L312.781 49.4099Z" fill="#74CCD8" />
  <path d="M324.642 20.2385H311.759C311.418 20.2385 311.116 20.0493 310.946 19.7656C310.775 19.4818 310.775 19.1035 310.946 18.8197L317.397 7.65813C317.567 7.37436 317.869 7.18518 318.21 7.18518C318.55 7.18518 318.853 7.37436 319.023 7.65813L325.437 18.744C325.55 18.8954 325.607 19.0845 325.607 19.2926C325.588 19.8223 325.172 20.2385 324.642 20.2385ZM313.386 18.3467H322.996L318.191 10.0229L313.386 18.3467Z" fill="#74CCD8" />
  <path d="M336.352 38.0213C332.72 38.0213 329.769 35.0702 329.769 31.4379C329.769 27.8057 332.72 24.8545 336.352 24.8545C339.984 24.8545 342.936 27.8057 342.936 31.4379C342.936 35.0702 339.984 38.0213 336.352 38.0213ZM336.352 26.7463C333.761 26.7463 331.661 28.8462 331.661 31.4379C331.661 34.0297 333.761 36.1296 336.352 36.1296C338.944 36.1296 341.044 34.0297 341.044 31.4379C341.044 28.8462 338.944 26.7463 336.352 26.7463Z" fill="#74CCD8" />
  <path d="M300.03 20.3142C296.398 20.3142 293.446 17.363 293.446 13.7308C293.446 10.0985 296.398 7.12842 300.03 7.12842C303.662 7.12842 306.613 10.0796 306.613 13.7118C306.613 17.3441 303.662 20.3142 300.03 20.3142ZM300.03 9.02021C297.438 9.02021 295.338 11.1201 295.338 13.7118C295.338 16.3036 297.438 18.4035 300.03 18.4035C302.622 18.4035 304.722 16.3036 304.722 13.7118C304.722 11.1201 302.622 9.02021 300.03 9.02021Z" fill="#74CCD8" />
</svg>