<?xml version='1.0' encoding='utf-8'?>
<svg xmlns="http://www.w3.org/2000/svg" width="28.58" height="20" viewBox="1052.92 98.8135 28.58 20" fill="none">
  <path d="M1080.89 101.941C1080.56 100.713 1079.6 99.7503 1078.37 99.4226C1076.14 98.8135 1067.2 98.8135 1067.2 98.8135C1067.2 98.8135 1058.26 98.8135 1056.02 99.4022C1054.82 99.7298 1053.83 100.718 1053.5 101.941C1052.92 104.173 1052.92 108.811 1052.92 108.811C1052.92 108.811 1052.92 113.469 1053.5 115.686C1053.83 116.914 1054.79 117.877 1056.02 118.204C1058.28 118.813 1067.19 118.813 1067.19 118.813C1067.19 118.813 1076.13 118.813 1078.37 118.225C1079.6 117.897 1080.56 116.935 1080.89 115.706C1081.48 113.469 1081.48 108.831 1081.48 108.831C1081.48 108.831 1081.5 104.178 1080.89 101.941ZM1064.35 113.101V104.526L1071.78 108.811L1064.35 113.101Z" fill="#74CCD8" />
</svg>