<?xml version='1.0' encoding='utf-8'?>
<svg xmlns="http://www.w3.org/2000/svg" width="110" height="110" viewBox="110 359.427 110 110" fill="none">
  <circle cx="165" cy="414.427" r="41.4442" fill="white" />
  <g filter="url(#filter8_d_1_521)">
    <path d="M152.934 428.257C150.078 425.421 149.1 422.154 150.646 418.358C148.787 417.85 148.102 417.009 148.415 415.62C148.67 414.465 149.726 413.976 151.487 414.25C151.487 412.881 151.722 411.609 153.384 411.355C154.323 411.218 154.93 411.785 155.419 413.174C157.062 412.333 158.784 411.863 160.662 411.981C160.916 412 161.21 411.59 161.444 411.335C162.931 409.712 164.32 407.951 165.924 406.444C172.439 400.341 182.025 405.31 184.079 410.729C184.353 411.453 184.568 412.235 184.627 412.998C184.744 414.876 184.959 416.793 184.705 418.632C184.47 420.393 183.707 422.095 183.12 423.817C182.827 424.677 182.377 425.479 182.025 426.321C181.242 428.218 182.083 429.979 182.533 431.74C183.414 435.261 183.727 438.782 182.005 442.128C181.281 443.517 180.225 444.769 179.247 446.001C178.582 446.842 178.543 446.94 179.482 447.507C181.066 448.466 181.36 449.914 180.362 451.537C180.068 452.027 179.951 452.633 179.755 453.161C179.149 454.785 178.171 455.998 176.175 456.135C176.351 457.485 176.508 458.815 176.684 460.126C176.723 460.419 176.782 460.713 176.801 460.986C176.899 462.708 176.058 463.627 174.337 463.647C171.891 463.667 169.446 463.647 167 463.647C160.681 463.647 154.363 463.647 148.024 463.647C145.853 463.647 145.07 462.825 145.187 460.673C145.559 452.907 146.537 445.258 148.787 437.785C149.785 434.478 151.115 431.27 152.934 428.257ZM153.326 417.498C153.228 417.478 153.13 417.459 153.052 417.439C152.895 417.635 152.719 417.811 152.582 418.006C150.548 421.097 151.096 424.54 154.01 427.22C154.676 427.847 155.399 428.433 155.928 429.157C157.219 430.957 158.823 431.485 161.014 431.133C164.731 430.546 167.881 427.357 167.568 423.523C167.509 422.741 167.783 422.349 168.565 422.291C169.465 422.212 169.759 421.606 169.798 420.804C169.837 419.923 169.27 419.2 168.428 419.004C167.509 418.789 167.079 419.297 166.707 420.06C166.57 420.334 166.081 420.413 165.748 420.569C165.631 420.236 165.357 419.884 165.416 419.591C165.494 419.161 165.729 418.711 166.042 418.417C166.472 417.967 166.433 417.615 166.159 417.126C163.949 413.155 158.666 412.176 154.91 415.385C154.676 415.6 154.48 416.206 154.597 416.441C155.086 417.322 155.126 418.143 154.793 419.063C154.715 419.258 154.773 419.571 154.91 419.728C154.969 419.826 155.302 419.689 155.497 419.728C155.869 419.767 156.241 419.865 156.593 419.923C156.436 420.315 156.417 420.823 156.123 421.078C155.439 421.665 154.636 421.704 153.874 421.156C153.091 420.589 152.915 419.826 153.13 418.906C153.247 418.456 153.267 417.967 153.326 417.498ZM156.456 439.702C156.515 439.819 156.612 440.132 156.749 440.406C159.449 446.295 164.164 449.659 170.385 450.97C172.067 451.322 173.613 451.694 174.473 453.357C174.571 453.552 174.786 453.689 174.943 453.846C176.215 454.981 177.31 454.824 178.073 453.298C178.523 452.398 178.993 451.498 179.247 450.54C179.364 450.09 179.149 449.346 178.797 449.014C178.406 448.623 177.721 448.466 177.134 448.329C175.002 447.84 172.771 447.605 170.698 446.901C167.724 445.884 165.181 444.221 164.496 440.778C164.438 440.445 164.359 440.093 164.34 439.995C161.66 439.897 159.077 439.8 156.456 439.702ZM170.228 418.28C170.424 418.554 170.502 418.632 170.58 418.73C171.872 420.53 171.441 422.506 169.544 423.621C169.367 423.719 169.172 423.973 169.133 424.169C168.702 426.399 168.702 426.399 170.698 427.455C170.991 427.612 171.265 427.768 171.559 427.925C173.045 428.727 173.847 428.59 174.767 427.162C175.432 426.125 176.312 425.44 177.427 425.01C177.74 424.892 178.053 424.697 178.386 424.521C177.682 422.682 178.132 421.156 179.403 419.806C179.736 419.454 180.029 419.043 180.264 418.632C180.401 418.398 180.381 418.065 180.421 417.772C180.01 418.378 179.873 419.082 178.875 418.652C176.743 417.732 174.493 417.517 172.204 417.654C171.578 417.674 170.972 418.026 170.228 418.28ZM154.734 432.835C154.226 433.305 153.639 433.579 153.443 434.028C152.876 435.378 153.384 436.611 154.715 437.198C159.038 439.056 163.362 439.095 167.587 436.885C168.057 436.65 168.487 436.22 168.8 435.789C169.367 435.007 169.211 433.774 168.546 433.089C167.92 432.444 167.079 432.366 166.14 432.894C163.146 434.635 159.879 434.948 156.534 434.831C155.791 434.811 155.321 434.439 155.086 433.735C155.008 433.52 154.91 433.285 154.734 432.835ZM158.882 446.353C158.549 446.803 158.236 447.175 157.962 447.586C157.16 448.74 156.358 449.875 155.595 451.048C154.871 452.163 154.226 453.259 152.641 453.435C151.624 453.552 151.467 454.628 152.23 455.352C152.974 456.056 154.05 456.193 155.028 455.763C155.889 455.391 156.749 455 157.649 454.726C159.566 454.159 161.366 453.435 163.029 452.281C163.577 451.909 164.438 451.987 165.142 451.85C165.416 451.792 165.65 451.674 165.924 451.577C165.768 451.381 165.631 451.087 165.435 450.99C163.068 449.914 160.955 448.466 158.882 446.353ZM177.525 443.575C177.408 439.565 176.645 436.063 174.473 433.011C172.967 430.879 171.011 429.314 168.565 428.394C168.292 428.296 167.861 428.57 167.489 428.668C167.646 429.001 167.763 429.372 167.959 429.685C168.018 429.803 168.252 429.803 168.389 429.881C171.226 431.133 173.241 433.207 174.513 436.024C175.902 439.095 176.215 442.343 175.902 445.668C175.862 446.197 175.862 446.705 176.528 446.744C177.193 446.803 177.33 446.314 177.349 445.786C177.427 444.925 177.486 444.084 177.525 443.575ZM151.741 416.128C151.174 415.854 150.646 415.365 149.941 415.893C149.844 415.972 149.844 416.383 149.941 416.461C150.567 417.028 151.135 416.676 151.702 416.304C151.722 416.304 151.722 416.265 151.741 416.128ZM153.15 414.602C153.326 414.602 153.482 414.602 153.658 414.622C153.678 414.113 153.717 413.585 153.737 413.076C153.541 413.076 153.345 413.057 153.15 413.057C153.15 413.565 153.15 414.094 153.15 414.602Z" fill="#928C97" />
    <path d="M153.326 417.498C153.267 417.967 153.247 418.456 153.13 418.906C152.915 419.826 153.091 420.589 153.874 421.156C154.636 421.704 155.439 421.665 156.123 421.078C156.397 420.843 156.436 420.315 156.593 419.923C156.221 419.845 155.869 419.767 155.497 419.728C155.302 419.708 154.969 419.826 154.91 419.728C154.793 419.552 154.734 419.239 154.793 419.063C155.145 418.143 155.106 417.322 154.597 416.441C154.46 416.206 154.656 415.6 154.91 415.385C158.666 412.176 163.949 413.155 166.159 417.165C166.433 417.654 166.472 418.006 166.042 418.456C165.729 418.769 165.494 419.219 165.416 419.63C165.357 419.923 165.631 420.276 165.748 420.608C166.081 420.432 166.59 420.354 166.707 420.1C167.079 419.337 167.509 418.828 168.428 419.043C169.27 419.239 169.837 419.963 169.798 420.843C169.759 421.625 169.465 422.251 168.565 422.33C167.783 422.388 167.509 422.78 167.568 423.562C167.881 427.397 164.731 430.566 161.014 431.172C158.823 431.524 157.219 430.996 155.928 429.196C155.399 428.473 154.676 427.866 154.01 427.26C151.096 424.521 150.567 421.078 152.582 418.006C152.719 417.811 152.895 417.615 153.052 417.439C153.15 417.459 153.247 417.478 153.326 417.498ZM160.584 428.825C161.542 428.805 162.247 428.277 162.286 427.631C162.305 427.338 162.129 426.927 161.914 426.771C161.757 426.653 161.347 426.829 161.092 426.947C160.877 427.044 160.681 427.221 160.545 427.397C160.31 427.67 159.958 428.003 159.977 428.296C159.977 428.531 160.466 428.727 160.584 428.825ZM162.129 421.606C161.503 422.428 161.053 423.034 160.584 423.64C160.858 423.856 161.131 424.208 161.425 424.227C162.129 424.286 162.951 423.347 162.833 422.662C162.775 422.369 162.462 422.115 162.129 421.606ZM156.182 427.67C156.612 427.553 156.964 427.553 157.082 427.377C157.356 426.966 157.806 426.399 157.688 426.047C157.473 425.421 156.906 425.538 156.436 425.988C156.358 426.066 156.162 426.027 156.084 426.105C155.849 426.36 155.419 426.673 155.458 426.888C155.536 427.201 155.947 427.436 156.182 427.67ZM159.469 421.978C159.958 421.489 160.31 421.195 160.545 420.804C160.584 420.745 160.134 420.158 159.86 420.139C159.332 420.08 158.686 420.217 158.725 420.96C158.745 421.254 159.116 421.508 159.469 421.978ZM154.949 423.23C154.832 423.23 154.715 423.21 154.597 423.21C154.382 423.601 154.03 423.953 153.971 424.364C153.952 424.56 154.421 424.834 154.676 425.088C154.949 424.775 155.341 424.482 155.419 424.11C155.517 423.875 155.145 423.543 154.949 423.23Z" fill="#F8EBEC" />
    <path d="M156.456 439.702C159.077 439.8 161.66 439.897 164.359 439.995C164.379 440.093 164.438 440.445 164.516 440.778C165.201 444.221 167.744 445.884 170.717 446.901C172.791 447.605 175.002 447.84 177.154 448.329C177.74 448.466 178.425 448.623 178.816 449.014C179.149 449.346 179.384 450.09 179.266 450.54C179.012 451.498 178.543 452.398 178.093 453.298C177.31 454.804 176.234 454.981 174.963 453.846C174.786 453.689 174.591 453.552 174.493 453.357C173.632 451.694 172.087 451.342 170.404 450.97C164.183 449.659 159.469 446.295 156.769 440.406C156.612 440.113 156.515 439.819 156.456 439.702Z" fill="#F3E5DE" />
    <path d="M170.228 418.28C170.972 418.045 171.578 417.693 172.224 417.654C174.513 417.517 176.762 417.732 178.895 418.652C179.892 419.082 180.029 418.378 180.44 417.772C180.381 418.065 180.421 418.378 180.284 418.632C180.049 419.063 179.755 419.454 179.423 419.806C178.151 421.156 177.701 422.682 178.406 424.521C178.073 424.697 177.78 424.873 177.447 425.01C176.312 425.44 175.452 426.125 174.786 427.162C173.867 428.59 173.065 428.727 171.578 427.925C171.285 427.768 171.011 427.612 170.717 427.455C168.722 426.399 168.722 426.399 169.152 424.169C169.191 423.973 169.367 423.738 169.563 423.621C171.461 422.506 171.891 420.53 170.6 418.73C170.502 418.632 170.424 418.534 170.228 418.28ZM174.845 419.571C174.884 420.628 175.804 421.625 176.625 421.606C176.899 421.586 177.291 421.332 177.408 421.078C177.486 420.902 177.232 420.53 177.075 420.295C176.841 419.982 176.586 419.669 176.273 419.434C176.019 419.239 175.667 418.984 175.412 419.024C175.158 419.063 174.963 419.454 174.845 419.571ZM174.689 425.616C174.141 425.069 173.691 424.54 173.163 424.11C173.065 424.032 172.458 424.286 172.458 424.384C172.478 424.814 172.498 425.362 172.752 425.655C173.065 426.008 173.613 426.184 174.102 426.34C174.2 426.36 174.434 425.929 174.689 425.616Z" fill="#F3E5DE" />
    <path d="M154.734 432.835C154.91 433.285 155.008 433.52 155.086 433.755C155.321 434.439 155.791 434.811 156.534 434.85C159.899 434.968 163.146 434.655 166.14 432.913C167.079 432.366 167.92 432.463 168.546 433.109C169.211 433.794 169.367 435.026 168.8 435.809C168.487 436.239 168.057 436.65 167.587 436.904C163.362 439.076 159.038 439.056 154.715 437.198C153.384 436.63 152.876 435.378 153.443 434.029C153.639 433.579 154.226 433.285 154.734 432.835Z" fill="#F8EBEC" />
    <path d="M158.882 446.353C160.955 448.486 163.068 449.914 165.435 450.97C165.65 451.068 165.768 451.361 165.924 451.557C165.67 451.655 165.416 451.772 165.142 451.831C164.438 451.987 163.577 451.89 163.029 452.261C161.366 453.396 159.566 454.139 157.649 454.707C156.749 454.98 155.888 455.372 155.028 455.743C154.05 456.174 152.974 456.037 152.23 455.333C151.467 454.609 151.624 453.533 152.641 453.415C154.226 453.239 154.852 452.144 155.595 451.029C156.358 449.855 157.18 448.72 157.962 447.566C158.236 447.175 158.549 446.803 158.882 446.353Z" fill="#F8EBEC" />
    <path d="M177.525 443.632C177.486 444.14 177.447 444.981 177.388 445.823C177.349 446.351 177.212 446.84 176.567 446.781C175.902 446.723 175.882 446.233 175.941 445.705C176.234 442.38 175.941 439.132 174.552 436.061C173.28 433.244 171.246 431.17 168.428 429.918C168.272 429.859 168.057 429.84 167.998 429.722C167.802 429.409 167.685 429.038 167.529 428.705C167.881 428.607 168.311 428.333 168.605 428.431C171.05 429.351 173.006 430.935 174.513 433.048C176.645 436.119 177.408 439.621 177.525 443.632Z" fill="#74CCD8" />
    <path d="M151.741 416.128C151.722 416.265 151.722 416.304 151.702 416.324C151.135 416.695 150.567 417.048 149.941 416.48C149.844 416.382 149.844 415.972 149.941 415.913C150.646 415.365 151.174 415.854 151.741 416.128Z" fill="white" />
    <path d="M153.15 414.602C153.15 414.074 153.15 413.565 153.15 413.037C153.345 413.037 153.541 413.057 153.737 413.057C153.717 413.565 153.678 414.094 153.658 414.602C153.482 414.622 153.306 414.622 153.15 414.602Z" fill="white" />
    <path d="M160.584 428.825C160.466 428.727 159.977 428.531 159.977 428.296C159.958 428.003 160.329 427.67 160.545 427.397C160.701 427.22 160.877 427.025 161.092 426.947C161.347 426.829 161.757 426.653 161.914 426.771C162.129 426.947 162.305 427.338 162.286 427.631C162.247 428.277 161.542 428.805 160.584 428.825Z" fill="url(#paint15_linear_1_521)" />
    <path d="M162.129 421.606C162.462 422.095 162.775 422.369 162.833 422.662C162.951 423.347 162.129 424.286 161.425 424.227C161.131 424.208 160.858 423.836 160.584 423.64C161.053 423.034 161.503 422.427 162.129 421.606Z" fill="#090F24" />
    <path d="M156.182 427.67C155.947 427.436 155.536 427.201 155.478 426.888C155.439 426.673 155.869 426.36 156.104 426.105C156.182 426.027 156.378 426.066 156.456 425.988C156.906 425.538 157.493 425.44 157.708 426.047C157.825 426.379 157.375 426.966 157.101 427.377C156.964 427.553 156.593 427.534 156.182 427.67Z" fill="#090F24" />
    <path d="M159.469 421.978C159.116 421.508 158.745 421.254 158.725 420.96C158.686 420.217 159.332 420.08 159.86 420.139C160.114 420.158 160.584 420.745 160.545 420.804C160.31 421.195 159.958 421.489 159.469 421.978Z" fill="#090F24" />
    <path d="M154.949 423.23C155.126 423.523 155.497 423.875 155.439 424.11C155.341 424.482 154.949 424.775 154.695 425.088C154.441 424.853 153.952 424.579 153.991 424.364C154.05 423.953 154.382 423.582 154.617 423.21C154.715 423.23 154.832 423.23 154.949 423.23Z" fill="#090F24" />
    <path d="M174.845 419.571C174.963 419.454 175.158 419.063 175.412 419.024C175.667 418.984 176.019 419.239 176.273 419.434C176.586 419.669 176.841 419.982 177.075 420.295C177.251 420.53 177.486 420.902 177.408 421.078C177.291 421.332 176.899 421.586 176.625 421.606C175.823 421.645 174.904 420.628 174.845 419.571Z" fill="#090F24" />
    <path d="M174.689 425.616C174.434 425.929 174.2 426.36 174.102 426.321C173.613 426.164 173.065 425.988 172.752 425.636C172.498 425.342 172.478 424.795 172.458 424.364C172.458 424.286 173.065 424.012 173.163 424.09C173.71 424.54 174.16 425.069 174.689 425.616Z" fill="url(#paint16_linear_1_521)" />
    <mask id="mask1_1_521" style="mask-type:alpha" maskUnits="userSpaceOnUse" x="145" y="403" width="40" height="61">
      <path d="M152.934 428.257C150.078 425.421 149.1 422.154 150.646 418.358C148.787 417.85 148.102 417.009 148.415 415.62C148.67 414.465 149.726 413.976 151.487 414.25C151.487 412.881 151.722 411.609 153.384 411.355C154.323 411.218 154.93 411.785 155.419 413.174C157.062 412.333 158.784 411.863 160.662 411.981C160.916 412 161.21 411.59 161.444 411.335C162.931 409.712 164.32 407.951 165.924 406.444C172.439 400.341 182.025 405.31 184.079 410.729C184.353 411.453 184.568 412.235 184.627 412.998C184.744 414.876 184.959 416.793 184.705 418.632C184.47 420.393 183.707 422.095 183.12 423.817C182.827 424.677 182.377 425.479 182.025 426.321C181.242 428.218 182.083 429.979 182.533 431.74C183.414 435.261 183.727 438.782 182.005 442.128C181.281 443.517 180.225 444.769 179.247 446.001C178.582 446.842 178.543 446.94 179.482 447.507C181.066 448.466 181.36 449.914 180.362 451.537C180.068 452.027 179.951 452.633 179.755 453.161C179.149 454.785 178.171 455.998 176.175 456.135C176.351 457.485 176.508 458.815 176.684 460.126C176.723 460.419 176.782 460.713 176.801 460.986C176.899 462.708 176.058 463.627 174.337 463.647C171.891 463.667 169.446 463.647 167 463.647C160.681 463.647 154.363 463.647 148.024 463.647C145.853 463.647 145.07 462.825 145.187 460.673C145.559 452.907 146.537 445.258 148.787 437.785C149.785 434.478 151.115 431.27 152.934 428.257ZM153.326 417.498C153.228 417.478 153.13 417.459 153.052 417.439C152.895 417.635 152.719 417.811 152.582 418.006C150.548 421.097 151.096 424.54 154.01 427.22C154.676 427.847 155.399 428.433 155.928 429.157C157.219 430.957 158.823 431.485 161.014 431.133C164.731 430.546 167.881 427.357 167.568 423.523C167.509 422.741 167.783 422.349 168.565 422.291C169.465 422.212 169.759 421.606 169.798 420.804C169.837 419.923 169.27 419.2 168.428 419.004C167.509 418.789 167.079 419.297 166.707 420.06C166.57 420.334 166.081 420.413 165.748 420.569C165.631 420.236 165.357 419.884 165.416 419.591C165.494 419.161 165.729 418.711 166.042 418.417C166.472 417.967 166.433 417.615 166.159 417.126C163.949 413.155 158.666 412.176 154.91 415.385C154.676 415.6 154.48 416.206 154.597 416.441C155.086 417.322 155.126 418.143 154.793 419.063C154.715 419.258 154.773 419.571 154.91 419.728C154.969 419.826 155.302 419.689 155.497 419.728C155.869 419.767 156.241 419.865 156.593 419.923C156.436 420.315 156.417 420.823 156.123 421.078C155.439 421.665 154.636 421.704 153.874 421.156C153.091 420.589 152.915 419.826 153.13 418.906C153.247 418.456 153.267 417.967 153.326 417.498ZM156.456 439.702C156.515 439.819 156.612 440.132 156.749 440.406C159.449 446.295 164.164 449.659 170.385 450.97C172.067 451.322 173.613 451.694 174.473 453.357C174.571 453.552 174.786 453.689 174.943 453.846C176.215 454.981 177.31 454.824 178.073 453.298C178.523 452.398 178.993 451.498 179.247 450.54C179.364 450.09 179.149 449.346 178.797 449.014L177.134 448.329C177.134 448.329 172.771 447.605 170.698 446.901C167.724 445.884 165.181 444.221 164.496 440.778C164.438 440.445 164.359 440.093 164.34 439.995C161.66 439.897 159.077 439.8 156.456 439.702ZM170.228 418.28C170.424 418.554 170.502 418.632 170.58 418.73C171.872 420.53 171.441 422.506 169.544 423.621C169.367 423.719 169.172 423.973 169.133 424.169C168.702 426.399 168.702 426.399 170.698 427.455C170.991 427.612 171.265 427.768 171.559 427.925C173.045 428.727 173.847 428.59 174.767 427.162C175.432 426.125 176.312 425.44 177.427 425.01C177.74 424.892 178.053 424.697 178.386 424.521C177.682 422.682 178.132 421.156 179.403 419.806C179.736 419.454 180.029 419.043 180.264 418.632C180.401 418.398 180.381 418.065 180.421 417.772C180.01 418.378 179.873 419.082 178.875 418.652C176.743 417.732 174.493 417.517 172.204 417.654C171.578 417.674 170.972 418.026 170.228 418.28ZM154.734 432.835C154.226 433.305 153.639 433.579 153.443 434.028C152.876 435.378 153.384 436.611 154.715 437.198C159.038 439.056 163.362 439.095 167.587 436.885C168.057 436.65 168.487 436.22 168.8 435.789C169.367 435.007 169.211 433.774 168.546 433.089C167.92 432.444 167.079 432.366 166.14 432.894C163.146 434.635 159.879 434.948 156.534 434.831C155.791 434.811 155.321 434.439 155.086 433.735C155.008 433.52 154.91 433.285 154.734 432.835ZM158.882 446.353C158.549 446.803 158.236 447.175 157.962 447.586C157.16 448.74 156.358 449.875 155.595 451.048C154.871 452.163 154.226 453.259 152.641 453.435C151.624 453.552 151.467 454.628 152.23 455.352C152.974 456.056 154.05 456.193 155.028 455.763C155.889 455.391 156.749 455 157.649 454.726C159.566 454.159 161.366 453.435 163.029 452.281C163.577 451.909 164.438 451.987 165.142 451.85C165.416 451.792 165.65 451.674 165.924 451.577C165.768 451.381 165.631 451.087 165.435 450.99C163.068 449.914 160.955 448.466 158.882 446.353ZM177.525 443.575C177.408 439.565 176.645 436.063 174.473 433.011C172.967 430.879 171.011 429.314 168.565 428.394C168.292 428.296 167.489 428.668 167.489 428.668C167.489 428.668 167.763 429.372 167.959 429.685C168.018 429.803 168.252 429.803 168.389 429.881C171.226 431.133 173.241 433.207 174.513 436.024C175.902 439.095 176.215 442.343 175.902 445.668C175.862 446.197 175.862 446.705 176.528 446.744C177.193 446.803 177.33 446.314 177.349 445.786C177.427 444.925 177.486 444.084 177.525 443.575ZM151.741 416.128C151.174 415.854 150.646 415.365 149.941 415.893C149.844 415.972 149.844 416.383 149.941 416.461C150.567 417.028 151.135 416.676 151.702 416.304C151.722 416.304 151.722 416.265 151.741 416.128ZM153.15 414.602C153.326 414.602 153.482 414.602 153.658 414.622C153.678 414.113 153.717 413.585 153.737 413.076C153.541 413.076 153.345 413.057 153.15 413.057C153.15 413.565 153.15 414.094 153.15 414.602Z" fill="#635958" />
    </mask>
    <g mask="url(#mask1_1_521)">
      <path d="M155.766 413.051C151.885 415.577 150.468 419.088 150.098 419.52C148.825 418.965 146.229 417.536 146.032 416.255C145.785 414.653 150.96 410.463 151.577 409.601C152.193 408.738 159.647 410.525 155.766 413.051Z" fill="#74CCD8" />
      <path d="M167.836 443.825C165.766 442.191 165.554 439.298 165.622 437.8C170.374 436.599 169.319 432.955 167.662 432.649C166.577 432.449 165.915 433.146 164.92 433.515C164.702 431.935 167 429.025 168.543 427.482C170.359 428.617 175.028 430.913 177.371 434.291C179.714 437.669 179.24 444.23 178.74 446.932C178.196 446.932 177.001 446.845 176.568 446.795C174.99 446.612 170.424 445.868 167.836 443.825Z" fill="url(#paint17_linear_1_521)" />
    </g>
  </g>
  <g filter="url(#filter9_d_1_521)">
    <path d="M155.097 400.697C153.66 399.291 152.27 397.964 150.927 396.574C150.24 395.856 149.834 394.966 149.802 393.95C149.771 392.795 150.38 391.858 151.427 391.514C152.285 391.218 153.394 391.67 154.003 392.576C154.066 392.67 154.128 392.779 154.191 392.873C154.722 393.716 155.612 393.732 156.158 392.889C156.315 392.639 156.471 392.389 156.674 392.186C157.345 391.545 158.126 391.186 159.063 391.561C159.969 391.92 160.547 392.826 160.547 393.826C160.531 394.731 160.281 395.59 159.672 396.246C158.72 397.292 157.705 398.292 156.689 399.291C156.205 399.76 155.69 400.182 155.097 400.697Z" fill="url(#paint18_linear_1_521)" />
  </g>
  <defs>
    <filter id="filter8_d_1_521" x="141.176" y="401.637" width="47.6477" height="68.0183" filterUnits="userSpaceOnUse" color-interpolation-filters="sRGB">
      <feFlood flood-opacity="0" result="BackgroundImageFix" />
      <feColorMatrix in="SourceAlpha" type="matrix" values="0 0 0 0 0 0 0 0 0 0 0 0 0 0 0 0 0 0 127 0" result="hardAlpha" />
      <feOffset dy="2" />
      <feGaussianBlur stdDeviation="2" />
      <feComposite in2="hardAlpha" operator="out" />
      <feColorMatrix type="matrix" values="0 0 0 0 0.167755 0 0 0 0 0.352341 0 0 0 0 0.3875 0 0 0 0.06 0" />
      <feBlend mode="normal" in2="BackgroundImageFix" result="effect1_dropShadow_1_521" />
      <feBlend mode="normal" in="SourceGraphic" in2="effect1_dropShadow_1_521" result="shape" />
    </filter>
    <linearGradient id="paint15_linear_1_521" x1="161.132" y1="426.732" x2="161.132" y2="428.825" gradientUnits="userSpaceOnUse">
      <stop stop-color="#ED9BC1" />
      <stop offset="1" stop-color="#ED9BB9" />
    </linearGradient>
    <linearGradient id="paint16_linear_1_521" x1="173.574" y1="424.077" x2="173.574" y2="426.323" gradientUnits="userSpaceOnUse">
      <stop stop-color="#ED9BC1" />
      <stop offset="1" stop-color="#ED9BB9" />
    </linearGradient>
    <linearGradient id="paint17_linear_1_521" x1="172.028" y1="427.482" x2="172.028" y2="446.932" gradientUnits="userSpaceOnUse">
      <stop stop-color="#ED9BC1" />
      <stop offset="1" stop-color="#ED9BB9" />
    </linearGradient>
    <filter id="filter9_d_1_521" x="145.801" y="389.409" width="18.7455" height="17.288" filterUnits="userSpaceOnUse" color-interpolation-filters="sRGB">
      <feFlood flood-opacity="0" result="BackgroundImageFix" />
      <feColorMatrix in="SourceAlpha" type="matrix" values="0 0 0 0 0 0 0 0 0 0 0 0 0 0 0 0 0 0 127 0" result="hardAlpha" />
      <feOffset dy="2" />
      <feGaussianBlur stdDeviation="2" />
      <feComposite in2="hardAlpha" operator="out" />
      <feColorMatrix type="matrix" values="0 0 0 0 0.929412 0 0 0 0 0.607843 0 0 0 0 0.756863 0 0 0 0.2 0" />
      <feBlend mode="normal" in2="BackgroundImageFix" result="effect1_dropShadow_1_521" />
      <feBlend mode="normal" in="SourceGraphic" in2="effect1_dropShadow_1_521" result="shape" />
    </filter>
    <linearGradient id="paint18_linear_1_521" x1="155.174" y1="391.409" x2="155.174" y2="400.697" gradientUnits="userSpaceOnUse">
      <stop stop-color="#ED9BC1" />
      <stop offset="1" stop-color="#ED9BB9" />
    </linearGradient>
  </defs>
</svg>