<?xml version='1.0' encoding='utf-8'?>
<svg xmlns="http://www.w3.org/2000/svg" width="110" height="110" viewBox="300 164.461 110 110" fill="none">
  <circle cx="355" cy="219.461" r="41.4442" fill="white" />
  <g filter="url(#filter3_d_1_521)">
    <path d="M348.424 220.404C346.988 218.998 345.598 217.671 344.255 216.281C343.568 215.562 343.162 214.672 343.13 213.657C343.099 212.501 343.708 211.564 344.754 211.221C345.613 210.924 346.722 211.377 347.331 212.283C347.394 212.377 347.456 212.486 347.519 212.58C348.05 213.423 348.94 213.438 349.486 212.595C349.643 212.345 349.799 212.095 350.002 211.892C350.673 211.252 351.454 210.893 352.391 211.268C353.297 211.627 353.875 212.533 353.875 213.532C353.859 214.438 353.609 215.297 353 215.953C352.048 216.999 351.032 217.999 350.017 218.998C349.533 219.467 349.018 219.888 348.424 220.404Z" fill="url(#paint3_linear_1_521)" />
    <path d="M366.084 207.07C364.647 205.665 363.257 204.337 361.914 202.948C361.227 202.229 360.821 201.339 360.79 200.324C360.759 199.168 361.368 198.231 362.414 197.888C363.273 197.591 364.382 198.044 364.991 198.95C365.053 199.043 365.116 199.153 365.178 199.246C365.709 200.09 366.599 200.105 367.146 199.262C367.302 199.012 367.458 198.762 367.661 198.559C368.333 197.919 369.114 197.56 370.051 197.934C370.956 198.294 371.534 199.199 371.534 200.199C371.519 201.105 371.269 201.964 370.66 202.62C369.707 203.666 368.692 204.665 367.677 205.665C367.193 206.133 366.677 206.555 366.084 207.07Z" fill="url(#paint4_linear_1_521)" />
    <path d="M356.481 271.08C353.196 271.08 349.964 271.186 346.679 271.08C340.586 270.868 335.234 266.31 333.698 260.374C331.578 251.948 329.406 243.521 327.181 235.094C326.068 230.907 328.346 227.886 332.691 227.992C338.096 228.204 342.917 232.02 344.136 237.32C344.666 239.546 344.878 241.825 345.09 244.104C345.143 244.793 344.878 245.694 344.454 246.277C342.546 248.768 340.586 251.206 338.467 253.538C336.771 255.445 336.135 257.512 337.036 259.844C337.937 262.176 339.791 263.501 342.334 263.554C344.878 263.554 346.679 262.282 347.739 259.95C347.951 259.473 348.004 258.943 348.163 258.413C349.328 255.286 350.865 254.227 354.203 254.227C359.608 254.227 364.959 254.174 370.364 254.227C374.867 254.28 376.775 256.293 376.563 260.798C376.245 266.31 371.953 270.815 366.496 271.027C363.158 271.186 359.82 271.08 356.481 271.08Z" fill="#928C97" />
    <path d="M348.11 255.074C346.361 253.855 344.825 252.742 343.129 251.523C346.573 246.647 350.176 241.559 353.779 236.471C356.269 232.815 358.813 229.211 361.409 225.66C362.522 224.07 364.058 223.54 365.754 224.706C367.343 225.766 367.555 227.409 366.549 228.893C360.402 237.69 354.203 246.488 348.11 255.074Z" fill="#D9C8BB" />
    <path d="M342.387 254.226C340.215 254.226 338.466 255.975 338.466 258.148C338.466 260.321 340.215 262.07 342.387 262.07C344.56 262.07 346.308 260.321 346.308 258.148C346.308 255.975 344.56 254.226 342.387 254.226ZM342.387 259.844C341.434 259.844 340.639 259.049 340.639 258.095C340.639 257.141 341.434 256.346 342.387 256.346C343.341 256.346 344.083 257.141 344.083 258.095C344.083 259.102 343.341 259.844 342.387 259.844Z" fill="#74CCD8" />
  </g>
  <defs>
    <filter id="filter3_d_1_521" x="322.901" y="195.782" width="57.678" height="81.3448" filterUnits="userSpaceOnUse" color-interpolation-filters="sRGB">
      <feFlood flood-opacity="0" result="BackgroundImageFix" />
      <feColorMatrix in="SourceAlpha" type="matrix" values="0 0 0 0 0 0 0 0 0 0 0 0 0 0 0 0 0 0 127 0" result="hardAlpha" />
      <feOffset dy="2" />
      <feGaussianBlur stdDeviation="2" />
      <feComposite in2="hardAlpha" operator="out" />
      <feColorMatrix type="matrix" values="0 0 0 0 0.167755 0 0 0 0 0.352341 0 0 0 0 0.3875 0 0 0 0.06 0" />
      <feBlend mode="normal" in2="BackgroundImageFix" result="effect1_dropShadow_1_521" />
      <feBlend mode="normal" in="SourceGraphic" in2="effect1_dropShadow_1_521" result="shape" />
    </filter>
    <linearGradient id="paint3_linear_1_521" x1="348.502" y1="211.116" x2="348.502" y2="220.404" gradientUnits="userSpaceOnUse">
      <stop stop-color="#ED9BC1" />
      <stop offset="1" stop-color="#ED9BB9" />
    </linearGradient>
    <linearGradient id="paint4_linear_1_521" x1="366.162" y1="197.782" x2="366.162" y2="207.07" gradientUnits="userSpaceOnUse">
      <stop stop-color="#ED9BC1" />
      <stop offset="1" stop-color="#ED9BB9" />
    </linearGradient>
  </defs>
</svg>