<?xml version='1.0' encoding='utf-8'?>
<svg xmlns="http://www.w3.org/2000/svg" width="16" height="16" viewBox="477.497 77 16 16" fill="none">
  <path d="M488.932 87.0629H488.205L487.953 86.8113C488.85 85.773 489.39 84.4237 489.39 82.9463C489.39 79.6621 486.728 77 483.443 77C480.159 77 477.497 79.6621 477.497 82.9463C477.497 86.2304 480.159 88.8925 483.443 88.8925C484.921 88.8925 486.27 88.3528 487.309 87.4608L487.56 87.7124V88.4351L492.134 93L493.497 91.6369L488.932 87.0629ZM483.443 87.0629C481.17 87.0629 479.327 85.2196 479.327 82.9463C479.327 80.673 481.17 78.8296 483.443 78.8296C485.717 78.8296 487.56 80.673 487.56 82.9463C487.56 85.2196 485.717 87.0629 483.443 87.0629Z" fill="#090F24" />
</svg>