<?xml version='1.0' encoding='utf-8'?>
<svg xmlns="http://www.w3.org/2000/svg" width="53" height="52" viewBox="899 6 53 52" fill="none">
  <path d="M908.863 48.0619C908.846 45.7245 908.846 45.7419 906.596 45.1837C905.776 44.9918 904.956 44.7825 904.188 44.4511C902.915 43.8929 902.339 42.8114 902.706 41.4682C903.002 40.3693 903.543 39.3227 903.997 38.2586C904.502 37.0725 904.468 36.9155 903.508 36.0956C902.758 35.4502 901.956 34.8746 901.258 34.1594C899.95 32.7988 899.95 31.3684 901.275 30.0078C902.025 29.2403 902.88 28.5775 903.717 27.9146C904.311 27.4436 904.433 26.9029 904.119 26.24C903.717 25.3679 903.281 24.5131 902.933 23.6235C902.13 21.5826 902.828 20.1174 904.939 19.4545C905.898 19.158 906.892 18.9312 907.887 18.7044C908.567 18.5474 908.828 18.1288 908.828 17.4485C908.846 16.3495 908.828 15.2332 908.951 14.1517C909.16 12.3375 910.294 11.413 912.125 11.5875C913.137 11.6921 914.114 11.9538 915.108 12.1805C915.98 12.3899 916.608 12.1805 917.009 11.2909C917.428 10.3664 917.864 9.44191 918.405 8.58717C919.417 6.99981 920.847 6.68583 922.452 7.68011C923.341 8.2383 924.144 8.90116 924.964 9.54657C925.609 10.0524 926.202 10.0873 926.848 9.56401C927.493 9.02326 928.156 8.49996 928.854 8.01154C930.947 6.51139 932.534 6.87771 933.79 9.14537C934.174 9.86055 934.54 10.5932 934.872 11.3258C935.221 12.1282 935.814 12.355 936.616 12.1805C937.488 11.9887 938.36 11.7619 939.25 11.6223C941.483 11.2735 942.704 12.2154 942.931 14.4656C943.018 15.3902 943.018 16.3321 942.983 17.2566C942.948 18.1462 943.314 18.5998 944.169 18.7916C945.076 18.9835 945.983 19.1754 946.873 19.4545C949.001 20.0999 949.699 21.5826 948.896 23.6409C948.565 24.4782 948.164 25.2806 947.762 26.083C947.361 26.868 947.448 27.496 948.199 28.0542C948.879 28.5426 949.524 29.0833 950.152 29.659C951.966 31.3161 951.966 32.9732 950.135 34.6304C949.472 35.2409 948.757 35.7991 948.042 36.3398C947.466 36.7934 947.361 37.3167 947.658 37.9446C948.076 38.8343 948.53 39.7239 948.879 40.631C949.664 42.6544 948.966 44.1197 946.908 44.7825C945.913 45.0965 944.902 45.3233 943.873 45.5675C943.227 45.7245 942.983 46.1257 942.965 46.7536C942.948 47.8875 942.965 49.0213 942.843 50.1377C942.634 51.9169 941.5 52.824 939.721 52.6495C938.709 52.5449 937.732 52.2832 936.738 52.0739C935.569 51.8471 935.343 51.9344 934.802 52.981C934.331 53.8706 933.93 54.8125 933.389 55.6673C932.395 57.2023 930.964 57.5337 929.412 56.5569C928.557 56.0161 927.755 55.3707 926.97 54.7253C926.255 54.1322 925.592 54.0974 924.877 54.7079C924.231 55.2486 923.568 55.7719 922.888 56.2604C920.899 57.6384 919.329 57.2895 918.126 55.1614C917.777 54.5509 917.498 53.9229 917.201 53.295C916.486 51.8297 916.347 51.7774 914.777 52.1262C914.096 52.2832 913.416 52.4402 912.736 52.5449C910.311 52.9286 909.108 51.9518 908.898 49.5097C908.828 49.0562 908.863 48.5678 908.863 48.0619ZM940.576 16.0356C940.576 15.5471 940.558 15.0762 940.576 14.6052C940.593 14.0296 940.331 13.8028 939.773 13.9075C938.953 14.0644 938.116 14.204 937.296 14.3959C935.081 14.9192 933.808 14.361 932.761 12.3724C932.395 11.6747 932.081 10.9595 931.714 10.2618C931.191 9.26747 931.034 9.25003 930.162 9.89544C929.464 10.4187 928.801 10.9944 928.086 11.4828C926.516 12.5992 925.26 12.5992 923.69 11.4828C923.01 10.9944 922.365 10.4536 921.684 9.94777C920.725 9.23259 920.585 9.26747 920.01 10.349C919.678 10.9944 919.382 11.6572 919.05 12.3026C917.986 14.3784 916.713 14.9366 914.463 14.3959C913.678 14.204 912.875 14.0819 912.073 13.9075C911.41 13.7679 911.183 14.0644 911.183 14.6924C911.183 15.739 911.148 16.7856 911.079 17.8322C910.991 19.5417 910.032 20.536 908.41 20.9372C907.573 21.1465 906.718 21.3384 905.88 21.5652C904.816 21.8443 904.729 22.0361 905.165 23.013C905.532 23.8328 905.968 24.6352 906.299 25.4551C906.997 27.2169 906.735 28.3158 905.322 29.5892C904.607 30.2346 903.857 30.8277 903.107 31.4208C902.549 31.8743 902.566 32.3104 903.107 32.7814C903.927 33.4617 904.764 34.142 905.567 34.8571C906.683 35.8689 906.945 37.1074 906.369 38.5028C906.02 39.3576 905.619 40.1949 905.235 41.0496C904.712 42.2358 904.782 42.3927 906.055 42.7067C906.875 42.8986 907.695 43.073 908.497 43.2998C910.032 43.7185 910.957 44.6779 911.061 46.3175C911.131 47.4165 911.166 48.5154 911.183 49.6318C911.183 50.2075 911.428 50.4342 911.986 50.3296C912.806 50.1726 913.643 50.033 914.463 49.8411C916.713 49.3178 917.986 49.876 919.05 51.9518C919.417 52.6495 919.731 53.3647 920.097 54.045C920.603 54.9521 920.725 54.987 921.527 54.3939C922.26 53.8531 922.94 53.2775 923.673 52.7542C925.243 51.6378 926.499 51.6378 928.069 52.7542C928.732 53.2252 929.342 53.7485 930.005 54.2543C931.034 55.0393 931.191 55.0044 931.784 53.8357C932.098 53.2252 932.377 52.5798 932.691 51.9518C933.755 49.8935 935.029 49.3178 937.279 49.8586C938.099 50.0505 938.919 50.19 939.756 50.347C940.331 50.4517 940.541 50.2075 940.558 49.6318C940.576 48.5503 940.593 47.4863 940.663 46.4048C940.75 44.6953 941.71 43.701 943.332 43.2998C944.169 43.0905 945.024 42.8986 945.861 42.6718C946.925 42.3753 947.012 42.2009 946.576 41.224C946.21 40.4042 945.791 39.6018 945.442 38.7819C944.745 37.0201 945.006 35.9212 946.419 34.6478C947.134 34.0024 947.885 33.4268 948.635 32.8162C949.193 32.3627 949.175 31.9092 948.635 31.4557C947.815 30.7754 946.977 30.0951 946.175 29.3799C945.059 28.3681 944.797 27.1297 945.373 25.7342C945.722 24.8794 946.123 24.0421 946.506 23.1874C947.03 22.0013 946.96 21.8617 945.687 21.5303C944.867 21.321 944.047 21.164 943.245 20.9372C941.71 20.5186 940.785 19.5592 940.68 17.9195C940.663 17.2741 940.628 16.6461 940.576 16.0356Z" fill="#74CCD8" />
  <path d="M940.576 16.0355C940.611 16.6461 940.645 17.2915 940.698 17.9194C940.802 19.5591 941.744 20.5011 943.262 20.9372C944.064 21.1639 944.902 21.3209 945.704 21.5302C946.977 21.8442 947.047 22.0012 946.524 23.1874C946.14 24.0421 945.739 24.8794 945.39 25.7341C944.814 27.1296 945.076 28.3681 946.192 29.3798C946.995 30.095 947.832 30.7753 948.652 31.4556C949.193 31.9092 949.21 32.3627 948.652 32.8162C947.919 33.4267 947.152 34.0024 946.437 34.6478C945.024 35.9212 944.762 37.0201 945.46 38.7819C945.791 39.6192 946.227 40.4042 946.594 41.224C947.03 42.2008 946.943 42.3753 945.878 42.6718C945.041 42.8986 944.186 43.0905 943.349 43.2998C941.727 43.701 940.768 44.6953 940.68 46.4047C940.628 47.4688 940.593 48.5503 940.576 49.6318C940.576 50.19 940.349 50.4516 939.773 50.347C938.953 50.19 938.116 50.0504 937.296 49.8586C935.046 49.3178 933.773 49.8934 932.709 51.9518C932.395 52.5623 932.116 53.2077 931.802 53.8357C931.191 55.0044 931.051 55.0393 930.022 54.2543C929.377 53.7659 928.749 53.2252 928.086 52.7542C926.499 51.6378 925.26 51.6378 923.69 52.7542C922.958 53.2775 922.277 53.8706 921.545 54.3939C920.725 54.987 920.603 54.9695 920.114 54.045C919.731 53.3647 919.417 52.6495 919.068 51.9518C918.004 49.8934 916.748 49.3178 914.48 49.8411C913.66 50.033 912.84 50.1725 912.003 50.3295C911.445 50.4342 911.201 50.2074 911.201 49.6318C911.183 48.5328 911.148 47.4339 911.079 46.3175C910.974 44.6778 910.049 43.7184 908.514 43.2998C907.712 43.073 906.875 42.916 906.072 42.7067C904.799 42.3927 904.729 42.2357 905.252 41.0496C905.636 40.1948 906.037 39.3575 906.386 38.5028C906.962 37.1073 906.7 35.8688 905.584 34.8571C904.782 34.1419 903.944 33.4616 903.124 32.7813C902.566 32.3278 902.549 31.8917 903.124 31.4207C903.874 30.8102 904.625 30.2171 905.34 29.5892C906.753 28.3158 907.014 27.2168 906.317 25.455C905.985 24.6178 905.549 23.8328 905.183 23.0129C904.747 22.0361 904.851 21.8442 905.898 21.5651C906.735 21.3384 907.59 21.1465 908.427 20.9372C910.049 20.536 910.991 19.5417 911.096 17.8322C911.148 16.7856 911.183 15.739 911.201 14.6924C911.201 14.047 911.427 13.7679 912.09 13.9074C912.875 14.0819 913.678 14.204 914.48 14.3958C916.73 14.9366 918.004 14.3784 919.068 12.3026C919.399 11.6572 919.678 10.9944 920.027 10.3489C920.585 9.26744 920.742 9.23256 921.702 9.94774C922.382 10.4536 923.01 10.9944 923.708 11.4828C925.295 12.5992 926.534 12.5992 928.104 11.4828C928.819 10.9769 929.482 10.4013 930.179 9.89541C931.051 9.25 931.208 9.26744 931.732 10.2617C932.098 10.9595 932.412 11.6747 932.778 12.3724C933.825 14.3784 935.098 14.9192 937.314 14.3958C938.134 14.204 938.953 14.0644 939.791 13.9074C940.349 13.8028 940.611 14.0295 940.593 14.6052C940.576 15.0761 940.576 15.5471 940.576 16.0355ZM918.039 41.381C918.23 41.2414 918.632 41.0321 918.946 40.7181C924.144 35.5374 929.342 30.3392 934.54 25.1411C934.68 25.0015 934.837 24.862 934.959 24.6875C935.29 24.1642 935.325 23.6409 934.872 23.1699C934.418 22.7164 933.877 22.7164 933.371 23.0653C933.18 23.1874 933.023 23.3793 932.866 23.5363C927.685 28.717 922.504 33.8803 917.341 39.061C917.149 39.2529 916.957 39.4273 916.818 39.6541C916.329 40.4565 916.87 41.381 918.039 41.381ZM924.161 26.3272C924.179 24.077 922.312 22.1931 920.079 22.2105C917.882 22.2105 916.033 24.0596 915.998 26.2574C915.963 28.4379 917.794 30.3218 920.01 30.3567C922.26 30.409 924.144 28.5949 924.161 26.3272ZM927.65 37.9272C927.65 40.1425 929.464 41.9741 931.679 42.009C933.877 42.0438 935.814 40.1425 935.796 37.9272C935.796 35.7293 933.965 33.8803 931.749 33.8628C929.499 33.8454 927.65 35.677 927.65 37.9272Z" fill="white" />
  <path d="M918.039 41.381C916.87 41.381 916.329 40.4391 916.8 39.6541C916.922 39.4274 917.132 39.2529 917.323 39.0611C922.504 33.8803 927.667 28.6996 932.848 23.5363C933.005 23.3793 933.162 23.1874 933.354 23.0653C933.877 22.7339 934.418 22.7165 934.854 23.17C935.308 23.6235 935.273 24.1643 934.941 24.6876C934.837 24.862 934.68 24.9841 934.523 25.1411C929.325 30.3393 924.126 35.5375 918.928 40.7182C918.632 41.0322 918.23 41.2415 918.039 41.381Z" fill="#74CCD8" />
  <path d="M924.161 26.3272C924.144 28.5775 922.26 30.409 920.01 30.3567C917.812 30.3218 915.963 28.4379 915.998 26.2575C916.033 24.0421 917.882 22.2106 920.08 22.2106C922.312 22.2106 924.179 24.0945 924.161 26.3272ZM920.097 24.5829C919.103 24.5829 918.388 25.2981 918.388 26.2749C918.388 27.2343 919.12 28.0193 920.062 28.0367C921.004 28.0542 921.859 27.1994 921.841 26.2575C921.824 25.333 921.039 24.5829 920.097 24.5829Z" fill="#74CCD8" />
  <path d="M927.65 37.9273C927.65 35.677 929.499 33.828 931.767 33.8629C933.982 33.8804 935.814 35.7294 935.814 37.9273C935.814 40.1426 933.895 42.0614 931.697 42.009C929.464 41.9742 927.65 40.1426 927.65 37.9273ZM931.732 39.6367C932.726 39.6367 933.424 38.9215 933.441 37.9273C933.441 36.9679 932.691 36.1829 931.749 36.1655C930.825 36.148 929.953 37.0202 929.97 37.9447C930.005 38.9041 930.79 39.6542 931.732 39.6367Z" fill="#74CCD8" />
  <path d="M920.097 24.5829C921.056 24.5829 921.841 25.333 921.859 26.2749C921.876 27.2169 921.022 28.0716 920.08 28.0541C919.138 28.0367 918.388 27.2517 918.405 26.2924C918.388 25.2981 919.103 24.5829 920.097 24.5829Z" fill="white" />
  <path d="M931.732 39.6367C930.79 39.6367 929.987 38.8866 929.97 37.9621C929.953 37.0376 930.825 36.148 931.749 36.1829C932.691 36.2003 933.441 36.9853 933.441 37.9447C933.424 38.9215 932.726 39.6367 931.732 39.6367Z" fill="white" />
</svg>
