<?xml version='1.0' encoding='utf-8'?>
<svg xmlns="http://www.w3.org/2000/svg" width="63" height="51" viewBox="607 7 63 51" fill="none">
  <circle cx="656.93" cy="50.6762" r="5.58351" fill="white" />
  <circle cx="619.608" cy="50.6762" r="5.58351" fill="white" />
  <path d="M609.162 36.8638V46.1423H612.166C612.633 44.6515 614.782 41.6699 619.642 41.6699C624.501 41.6699 626.962 45.0075 627.585 46.6763H642.671V36.8638H609.162Z" fill="white" />
  <path d="M642.471 32.9254H609.162C609.028 27.207 608.761 14.9958 608.761 11.8986C608.761 8.80127 611.253 8.16046 612.499 8.22721H638.933C641.657 8.22721 642.426 10.9863 642.471 12.3658V32.9254Z" fill="white" />
  <path d="M645.949 17.1887V25.8897H660.885L656.837 18.352L654.603 17.1887H645.949Z" fill="white" />
  <path d="M645.856 30.0308V46.6417H648.973C650.137 45.0287 653.375 41.8026 657.023 41.8026C660.671 41.8026 663.63 45.0287 664.654 46.6417H667.399L668.748 46.0833V32.6364L662.932 30.0308H645.856Z" fill="white" />
  <path d="M643.386 47.5711H626.754L626.52 47.0564C625.292 44.343 622.508 42.5301 619.608 42.5301C616.707 42.5301 613.924 44.3547 612.695 47.0564L612.462 47.5711H609.959C608.789 47.5711 607.865 46.6237 607.865 45.419V35.5126H643.386V47.5711ZM627.865 45.8167H641.631V37.267H609.619V45.4307C609.619 45.5009 609.631 45.8284 609.959 45.8284H611.35C612.976 42.7406 616.157 40.7874 619.608 40.7874C623.058 40.7757 626.239 42.7406 627.865 45.8167Z" fill="#74CCD8" />
  <path d="M619.608 57.2669C615.97 57.2669 613.011 54.3078 613.011 50.6821C613.011 47.0446 615.97 44.0856 619.608 44.0856C623.245 44.0856 626.204 47.0446 626.204 50.6821C626.193 54.3078 623.233 57.2669 619.608 57.2669ZM619.608 45.84C616.941 45.84 614.766 48.0037 614.766 50.6821C614.766 53.3487 616.929 55.5125 619.596 55.5125C622.263 55.5125 624.426 53.337 624.438 50.6704C624.438 48.0037 622.274 45.84 619.608 45.84Z" fill="#74CCD8" />
  <path d="M667.716 47.571H663.926L663.692 47.0564C662.464 44.3429 659.681 42.5301 656.78 42.5301C653.879 42.5301 651.096 44.3546 649.868 47.0564L649.634 47.571H644.897V28.9277H662.932L668.569 31.4073C669.353 31.7815 669.833 32.5769 669.809 33.4424V45.4307C669.809 46.6353 668.885 47.571 667.716 47.571ZM665.037 45.8166H667.716C668.031 45.8166 668.055 45.4891 668.055 45.419V33.3839C668.055 33.2201 667.973 33.0564 667.821 32.9745L662.569 30.6704H646.663V45.8166H648.534C650.16 42.7289 653.341 40.7757 656.792 40.7757C660.23 40.7757 663.412 42.7406 665.037 45.8166Z" fill="#74CCD8" />
  <path d="M662.242 26.916H644.897V16.0388H653.634C655.435 16.0154 657.084 16.9979 657.926 18.6002L662.242 26.916ZM646.651 25.1616H659.353L656.359 19.4072C655.844 18.4131 654.815 17.7932 653.692 17.7932H653.634H646.64V25.1616H646.651Z" fill="#74CCD8" />
  <path d="M643.386 33.8634H607.865V12.109C607.865 9.44235 609.994 7.26691 612.602 7.26691H638.625C639.912 7.2786 641.105 7.78153 642.005 8.69381C642.906 9.60609 643.386 10.8108 643.386 12.0973L642.508 12.109H643.386V33.8634ZM609.619 32.109H641.631V12.0856C641.643 11.2669 641.327 10.5067 640.754 9.92188C640.181 9.34878 639.421 9.02129 638.614 9.02129H612.59C610.918 9.02129 609.608 10.378 609.608 12.109V32.109H609.619Z" fill="#74CCD8" />
  <path d="M656.78 57.2669C653.143 57.2669 650.183 54.3079 650.183 50.6821C650.183 47.0447 653.143 44.0856 656.768 44.0856C660.406 44.0856 663.365 47.0447 663.365 50.6704C663.365 54.3079 660.417 57.2669 656.78 57.2669ZM656.78 45.84C654.113 45.84 651.95 48.0155 651.95 50.6821C651.95 53.3488 654.125 55.5125 656.78 55.5125V56.3897V55.5125C659.447 55.5125 661.61 53.3371 661.61 50.6704C661.622 48.0038 659.447 45.84 656.78 45.84Z" fill="#74CCD8" />
</svg>
