<?xml version='1.0' encoding='utf-8'?>
<svg xmlns="http://www.w3.org/2000/svg" width="110" height="110" viewBox="680 357.211 110 110" fill="none">
  <circle cx="735" cy="412.211" r="41.4442" fill="white" />
  <g filter="url(#filter19_d_1_521)">
    <path d="M734.315 450.097C735.047 450.885 735.647 451.541 736.266 452.216C736.866 452.873 737.578 453.21 738.441 452.854C739.322 452.498 739.529 451.766 739.529 450.885C739.51 444.94 739.529 439.014 739.529 433.07C739.529 432.732 739.529 432.394 739.529 432.001C739.829 431.982 740.072 431.944 740.316 431.944C744.067 431.944 747.817 431.944 751.568 431.944C753.012 431.944 753.612 432.544 753.612 433.988C753.612 443.177 753.612 452.366 753.612 461.536C753.612 463.037 753.012 463.656 751.53 463.656C740.035 463.656 728.539 463.656 717.044 463.656C715.6 463.656 714.981 463.037 714.981 461.593C714.981 454.467 714.981 447.341 714.962 440.214C714.962 439.652 715.112 439.314 715.619 439.033C719.575 436.783 723.514 434.476 727.47 432.226C727.883 431.982 728.427 431.963 729.046 431.794C729.046 432.338 729.046 432.676 729.046 433.013C729.046 438.92 729.046 444.828 729.046 450.735C729.046 451.635 729.158 452.441 730.096 452.816C731.052 453.21 731.784 452.779 732.421 452.085C732.965 451.485 733.565 450.885 734.315 450.097Z" fill="#928C97" />
    <path d="M722.37 416.379C722.37 414.56 722.426 412.835 722.351 411.129C722.201 407.734 724.526 404.565 727.752 403.834C731.165 403.084 734.521 404.753 735.815 407.903C736.172 408.747 736.284 409.703 736.528 410.66C736.641 410.603 736.866 410.528 737.053 410.416C738.535 409.572 740.016 408.691 741.516 407.847C742.754 407.153 743.654 407.359 744.348 408.578C745.436 410.435 746.505 412.31 747.574 414.166C748.267 415.385 748.024 416.248 746.786 416.961C738.853 421.555 730.902 426.15 722.97 430.725C718.994 433.013 715.018 435.32 711.062 437.608C709.524 438.508 708.792 438.302 707.855 436.745C706.823 435.039 705.811 433.313 704.779 431.607C703.935 430.163 704.142 429.338 705.586 428.531C707.236 427.594 708.886 426.656 710.649 425.662C709.224 424.743 708.192 423.599 707.63 422.08C706.58 419.305 707.367 416.117 709.58 414.242C711.887 412.291 715.131 411.991 717.756 413.566C719.125 414.373 720.457 415.235 721.826 416.079C721.995 416.173 722.182 416.286 722.37 416.379ZM725.876 416.604C725.989 416.642 726.12 416.661 726.233 416.698C727.977 415.685 729.758 414.71 731.446 413.623C732.852 412.704 733.265 410.866 732.59 409.291C731.934 407.772 730.396 406.965 728.689 407.247C727.189 407.49 725.951 408.897 725.895 410.547C725.839 412.572 725.876 414.598 725.876 416.604ZM721.019 419.717C719.125 418.555 717.4 417.392 715.562 416.417C714.137 415.648 712.356 416.192 711.38 417.467C710.424 418.723 710.405 420.449 711.362 421.724C712.318 422.999 714.081 423.543 715.525 422.812C717.363 421.874 719.107 420.805 721.019 419.717Z" fill="url(#paint35_linear_1_521)" />
    <path d="M758.563 421.219C758.725 420.784 759.34 420.784 759.501 421.219L760.758 424.616C760.809 424.753 760.917 424.861 761.054 424.911L764.45 426.168C764.886 426.329 764.886 426.945 764.45 427.106L761.054 428.363C760.917 428.414 760.809 428.522 760.758 428.658L759.501 432.055C759.34 432.491 758.725 432.491 758.563 432.055L757.307 428.658C757.256 428.522 757.148 428.414 757.011 428.363L753.614 427.106C753.179 426.945 753.179 426.329 753.614 426.168L757.011 424.911C757.148 424.861 757.256 424.753 757.307 424.616L758.563 421.219Z" fill="#74CCD8" />
    <path d="M712.319 392.302C712.48 391.866 713.096 391.866 713.257 392.302L714.514 395.699C714.565 395.835 714.673 395.943 714.81 395.994L718.206 397.251C718.642 397.412 718.642 398.028 718.206 398.189L714.81 399.446C714.673 399.496 714.565 399.604 714.514 399.741L713.257 403.138C713.096 403.573 712.48 403.573 712.319 403.138L711.062 399.741C711.012 399.604 710.904 399.496 710.767 399.446L707.37 398.189C706.935 398.028 706.935 397.412 707.37 397.251L710.767 395.994C710.904 395.943 711.012 395.835 711.062 395.699L712.319 392.302Z" fill="#74CCD8" />
    <path d="M747.487 379.681C747.648 379.246 748.264 379.246 748.425 379.681L749.682 383.078C749.732 383.215 749.84 383.323 749.977 383.373L753.374 384.63C753.809 384.791 753.809 385.407 753.374 385.568L749.977 386.825C749.84 386.876 749.732 386.984 749.682 387.12L748.425 390.517C748.264 390.952 747.648 390.952 747.487 390.517L746.23 387.12C746.179 386.984 746.071 386.876 745.935 386.825L742.538 385.568C742.103 385.407 742.103 384.791 742.538 384.63L745.935 383.373C746.071 383.323 746.179 383.215 746.23 383.078L747.487 379.681Z" fill="#74CCD8" />
    <path d="M731.296 448.449C731.296 442.821 731.296 437.463 731.296 432.001C733.26 432.001 735.224 432.001 737.288 432.001C737.288 437.38 737.288 442.759 737.288 448.325C735.303 446.564 733.365 446.527 731.296 448.449Z" fill="#74CCD8" />
    <path d="M755.375 417.861C754.456 417.861 753.574 416.942 753.593 416.042C753.631 415.104 754.418 414.354 755.375 414.354C756.331 414.354 757.119 415.104 757.156 416.042C757.175 416.942 756.294 417.861 755.375 417.861Z" fill="#FFD882" />
    <path d="M735 392.788C734.081 392.788 733.2 391.869 733.218 390.969C733.256 390.031 734.044 389.281 735 389.281C735.956 389.281 736.744 390.031 736.782 390.969C736.8 391.869 735.919 392.788 735 392.788Z" fill="#FFD882" />
    <path d="M755.375 399.473C754.456 399.473 753.574 398.554 753.593 397.654C753.631 396.717 754.418 395.966 755.375 395.966C756.331 395.966 757.119 396.717 757.156 397.654C757.175 398.554 756.294 399.473 755.375 399.473Z" fill="#FFD882" />
    <path d="M750.068 426.618C750.068 427.612 749.243 428.437 748.286 428.4C747.349 428.362 746.598 427.575 746.598 426.618C746.598 425.643 747.424 424.799 748.361 424.837C749.318 424.893 750.068 425.681 750.068 426.618Z" fill="#FFD882" />
    <mask id="mask2_1_521" style="mask-type:alpha" maskUnits="userSpaceOnUse" x="704" y="403" width="44" height="36">
      <path d="M722.37 416.379C722.37 414.56 722.426 412.835 722.351 411.129C722.201 407.734 724.526 404.565 727.752 403.834C731.165 403.084 734.521 404.753 735.815 407.903C736.172 408.747 736.284 409.703 736.528 410.66C736.641 410.603 736.866 410.528 737.053 410.416C738.535 409.572 740.016 408.691 741.516 407.847C742.754 407.153 743.654 407.359 744.348 408.578C745.436 410.435 746.505 412.31 747.574 414.166C748.267 415.385 748.024 416.248 746.786 416.961C738.853 421.555 730.902 426.15 722.97 430.725C718.994 433.013 715.018 435.32 711.062 437.608C709.524 438.508 708.792 438.302 707.855 436.745C706.823 435.039 705.811 433.313 704.779 431.607C703.935 430.163 704.142 429.338 705.586 428.531C707.236 427.594 708.886 426.656 710.649 425.662C709.224 424.743 708.192 423.599 707.63 422.08C706.58 419.305 707.367 416.117 709.58 414.242C711.887 412.291 715.131 411.991 717.756 413.566C719.125 414.373 720.457 415.235 721.826 416.079C721.995 416.173 722.182 416.286 722.37 416.379ZM725.876 416.604C725.989 416.642 726.12 416.661 726.233 416.698C727.977 415.685 729.758 414.71 731.446 413.623C732.852 412.704 733.265 410.866 732.59 409.291C731.934 407.772 730.396 406.965 728.689 407.247C727.189 407.49 725.951 408.897 725.895 410.547C725.839 412.572 725.876 414.598 725.876 416.604ZM721.019 419.717C719.125 418.555 717.4 417.392 715.562 416.417C714.137 415.648 712.356 416.192 711.38 417.467C710.424 418.723 710.405 420.449 711.362 421.724C712.318 422.999 714.081 423.543 715.525 422.812C717.363 421.874 719.107 420.805 721.019 419.717Z" fill="url(#paint36_linear_1_521)" />
    </mask>
    <g mask="url(#mask2_1_521)">
      <path d="M743.325 406.782L703.995 429.652V413.539L715.863 406.089L735.355 398.205L743.325 406.782Z" fill="#74CCD8" />
    </g>
  </g>
  <defs>
    <filter id="filter19_d_1_521" x="700.282" y="377.355" width="68.4946" height="92.3009" filterUnits="userSpaceOnUse" color-interpolation-filters="sRGB">
      <feFlood flood-opacity="0" result="BackgroundImageFix" />
      <feColorMatrix in="SourceAlpha" type="matrix" values="0 0 0 0 0 0 0 0 0 0 0 0 0 0 0 0 0 0 127 0" result="hardAlpha" />
      <feOffset dy="2" />
      <feGaussianBlur stdDeviation="2" />
      <feComposite in2="hardAlpha" operator="out" />
      <feColorMatrix type="matrix" values="0 0 0 0 0.167755 0 0 0 0 0.352341 0 0 0 0 0.3875 0 0 0 0.06 0" />
      <feBlend mode="normal" in2="BackgroundImageFix" result="effect1_dropShadow_1_521" />
      <feBlend mode="normal" in="SourceGraphic" in2="effect1_dropShadow_1_521" result="shape" />
    </filter>
    <linearGradient id="paint35_linear_1_521" x1="726.119" y1="403.656" x2="726.119" y2="438.142" gradientUnits="userSpaceOnUse">
      <stop stop-color="#ED9BC1" />
      <stop offset="1" stop-color="#ED9BB9" />
    </linearGradient>
    <linearGradient id="paint36_linear_1_521" x1="726.119" y1="403.656" x2="726.119" y2="438.142" gradientUnits="userSpaceOnUse">
      <stop stop-color="#ED9BC1" />
      <stop offset="1" stop-color="#ED9BB9" />
    </linearGradient>
  </defs>
</svg>