<?xml version='1.0' encoding='utf-8'?>
<svg xmlns="http://www.w3.org/2000/svg" width="110" height="110" viewBox="490 164.461 110 110" fill="none">
  <circle cx="545" cy="219.461" r="41.4442" fill="white" />
  <g filter="url(#filter6_d_1_521)">
    <path d="M550.293 224.832C550.247 225.178 550.539 225.465 550.877 225.554C553.375 226.21 555.134 227.618 556.195 229.895C556.454 230.452 556.057 231.072 555.447 231.149C555.019 231.203 554.615 230.961 554.416 230.578C553.718 229.237 552.721 228.203 551.22 227.665C550.736 227.492 550.264 227.903 550.264 228.417C550.264 228.868 549.898 229.214 549.447 229.214C549.352 229.214 549.257 229.214 549.162 229.214C548.706 229.214 548.337 228.894 548.337 228.439C548.337 227.925 547.87 227.482 547.383 227.643C545.853 228.151 544.825 229.164 544.107 230.563C543.905 230.956 543.495 231.208 543.056 231.164C543.031 231.162 543.006 231.159 542.981 231.157C542.456 231.104 542.05 230.644 542.196 230.136C542.723 228.29 544.602 226.7 547.602 225.595C548.004 225.447 548.279 225.073 548.304 224.646C548.456 222.046 549.251 219.624 550.873 217.516C554.254 213.172 558.737 211.265 564.123 212.307C569.746 213.388 573.304 216.927 574.661 222.549C574.916 223.591 574.995 224.692 575.015 225.754C575.034 240.341 575.034 254.908 575.034 269.495C575.034 269.731 575.113 270.026 575.015 270.164C574.949 270.254 574.878 270.341 574.802 270.424C574.432 270.835 573.749 270.834 573.384 270.42C573.291 270.313 573.204 270.203 573.127 270.085C572.99 269.869 573.108 269.515 573.108 269.22C573.108 254.613 573.127 240.006 573.108 225.38C573.108 219.639 568.979 214.902 563.357 214.056C556.713 213.076 550.499 218.153 550.305 224.709C550.303 224.75 550.299 224.791 550.293 224.832Z" fill="#E4E7EE" />
    <path d="M562.494 264.561C563.047 264.561 563.494 265.009 563.494 265.561C563.494 266.112 563.494 266.662 563.494 267.218C563.494 267.77 563.047 268.218 562.494 268.218C548.89 268.218 535.319 268.218 521.696 268.218C521.144 268.218 520.696 267.77 520.696 267.218C520.696 266.666 520.696 266.116 520.696 265.561C520.696 265.009 521.144 264.561 521.696 264.561C535.301 264.561 548.872 264.561 562.494 264.561Z" fill="url(#paint11_linear_1_521)" />
    <path d="M530.287 228.152C529.735 228.152 529.287 227.704 529.287 227.152C529.287 222.127 529.287 217.157 529.287 212.147C529.287 211.594 529.735 211.147 530.287 211.147C532.749 211.147 535.205 211.147 537.704 211.147C538.256 211.147 538.704 211.594 538.704 212.147C538.704 217.127 538.704 222.111 538.704 227.152C538.704 227.704 538.256 228.152 537.704 228.152C535.254 228.152 532.798 228.152 530.287 228.152ZM531.672 216.626C531.893 216.736 532.156 216.775 532.399 216.728C532.457 216.717 532.501 216.701 532.531 216.671C533.317 215.904 534.143 215.138 534.851 214.312C534.988 214.135 534.831 213.467 534.615 213.309C534.34 213.113 533.73 213.034 533.494 213.231C532.708 213.86 532 214.607 531.351 215.373C531.175 215.57 531.214 216.081 531.332 216.356C531.393 216.469 531.53 216.556 531.672 216.626Z" fill="#74CCD8" />
    <path d="M517.905 212.127C517.905 211.575 518.352 211.127 518.905 211.127C521.37 211.127 523.797 211.127 526.262 211.127C526.815 211.127 527.262 211.575 527.262 212.127C527.262 217.14 527.262 222.128 527.262 227.172C527.262 227.724 526.815 228.172 526.262 228.172C523.82 228.172 521.383 228.172 518.905 228.172C518.352 228.172 517.905 227.724 517.905 227.172C517.905 222.174 517.905 217.186 517.905 212.127ZM520.136 216.573C520.421 216.74 520.799 216.803 521.102 216.672C521.152 216.651 521.194 216.625 521.227 216.592C521.954 215.885 522.701 215.216 523.33 214.43C523.507 214.214 523.389 213.506 523.173 213.349C522.898 213.152 522.23 213.093 521.994 213.29C521.247 213.86 520.598 214.548 519.988 215.275C519.792 215.511 519.792 216.022 519.89 216.337C519.924 216.43 520.02 216.505 520.136 216.573Z" fill="#74CCD8" />
    <path d="M518.77 269.515C518.815 269.879 518.446 270.164 518.079 270.164C517.358 270.164 516.662 270.164 515.941 270.164C515.41 270.164 514.948 269.75 514.937 269.22C514.936 269.187 514.936 269.154 514.936 269.122C514.936 260.157 514.936 251.193 514.936 242.208C514.936 241.756 514.936 241.265 515.113 240.872C515.447 240.085 516.096 239.653 516.981 239.731C517.806 239.79 518.376 240.242 518.632 241.048C518.73 241.363 518.77 241.697 518.77 242.012C518.77 251.173 518.77 260.334 518.77 269.515Z" fill="#928C97" />
    <path d="M569.294 269.318C569.331 269.77 568.92 270.124 568.467 270.124C567.784 270.124 567.112 270.124 566.419 270.124C565.891 270.124 565.441 269.709 565.441 269.181C565.441 260.138 565.441 251.094 565.46 242.071C565.46 241.579 565.519 240.911 565.814 240.596C566.247 240.164 566.954 239.751 567.524 239.771C568.055 239.79 568.645 240.321 569.038 240.793C569.294 241.088 569.294 241.658 569.294 242.11C569.313 251.173 569.313 260.256 569.294 269.318Z" fill="#928C97" />
    <path d="M562.59 244.528C563.089 244.528 563.494 244.926 563.494 245.425C563.494 245.924 563.089 246.337 562.59 246.337C548.921 246.337 535.287 246.337 521.6 246.337C521.101 246.337 520.696 245.939 520.696 245.44C520.696 244.94 521.101 244.528 521.6 244.528C535.269 244.528 548.903 244.528 562.59 244.528Z" fill="#928C97" />
    <path d="M533.101 249.283C533.101 248.731 533.549 248.283 534.101 248.283C534.999 248.283 535.888 248.283 536.8 248.283C537.352 248.283 537.8 248.731 537.8 249.283C537.8 253.355 537.8 257.416 537.8 261.516C537.8 262.069 537.352 262.516 536.8 262.516C535.902 262.516 535.012 262.516 534.101 262.516C533.549 262.516 533.101 262.069 533.101 261.516C533.101 257.46 533.101 253.412 533.101 249.283Z" fill="#D9C8BB" />
    <path d="M544.445 261.536C544.445 262.088 543.997 262.536 543.445 262.536C542.554 262.536 541.675 262.536 540.785 262.536C540.233 262.536 539.785 262.088 539.785 261.536C539.785 257.464 539.785 253.403 539.785 249.303C539.785 248.75 540.233 248.303 540.785 248.303C541.669 248.303 542.548 248.303 543.444 248.303C543.997 248.303 544.445 248.75 544.445 249.303C544.445 253.359 544.445 257.407 544.445 261.536Z" fill="#D9C8BB" />
    <path d="M554.075 262.497C553.523 262.497 553.075 262.049 553.075 261.497C553.075 257.414 553.075 253.38 553.075 249.283C553.075 248.731 553.523 248.283 554.075 248.283C554.964 248.283 555.852 248.283 556.754 248.283C557.306 248.283 557.754 248.731 557.754 249.283C557.754 253.324 557.754 257.383 557.754 261.497C557.754 262.049 557.306 262.497 556.754 262.497C555.88 262.497 554.995 262.497 554.075 262.497Z" fill="#D9C8BB" />
    <path d="M526.476 249.283C526.476 248.731 526.924 248.283 527.476 248.283C528.344 248.283 529.209 248.283 530.096 248.283C530.648 248.283 531.096 248.731 531.096 249.283C531.096 253.336 531.096 257.38 531.096 261.477C531.096 262.029 530.648 262.477 530.096 262.477C529.239 262.477 528.371 262.477 527.476 262.477C526.924 262.477 526.476 262.029 526.476 261.477C526.476 257.436 526.476 253.367 526.476 249.283Z" fill="#D9C8BB" />
    <path d="M550.089 248.303C550.642 248.303 551.089 248.75 551.089 249.303C551.089 253.371 551.089 257.414 551.089 261.497C551.089 262.049 550.642 262.497 550.089 262.497C549.216 262.497 548.342 262.497 547.45 262.497C546.897 262.497 546.45 262.049 546.45 261.497C546.45 257.443 546.45 253.4 546.45 249.303C546.45 248.75 546.897 248.303 547.45 248.303C548.329 248.303 549.203 248.303 550.089 248.303Z" fill="#D9C8BB" />
    <path d="M520.696 249.283C520.696 248.731 521.144 248.283 521.696 248.283C522.27 248.283 522.838 248.283 523.412 248.283C523.964 248.283 524.412 248.731 524.412 249.283C524.412 253.336 524.412 257.38 524.412 261.477C524.412 262.029 523.964 262.477 523.412 262.477C522.85 262.477 522.28 262.477 521.696 262.477C521.144 262.477 520.696 262.029 520.696 261.477C520.696 257.453 520.696 253.409 520.696 249.283Z" fill="#D9C8BB" />
    <path d="M559.798 249.283C559.798 248.731 560.246 248.283 560.798 248.283C561.347 248.283 561.894 248.283 562.455 248.283C563.007 248.283 563.455 248.731 563.455 249.283C563.455 253.339 563.455 257.397 563.455 261.497C563.455 262.049 563.007 262.497 562.455 262.497C561.909 262.497 561.361 262.497 560.798 262.497C560.246 262.497 559.798 262.049 559.798 261.497C559.798 257.457 559.798 253.41 559.798 249.283Z" fill="#D9C8BB" />
    <path d="M542.577 236.802C541.555 236.802 540.69 235.976 540.67 234.974C540.65 233.932 541.535 233.067 542.597 233.067C543.678 233.067 544.523 233.932 544.484 234.993C544.464 235.996 543.619 236.802 542.577 236.802Z" fill="#FFD882" />
    <path d="M549.202 234.915C548.14 234.895 547.295 233.971 547.354 232.929C547.413 231.926 548.298 231.101 549.3 231.12C550.362 231.14 551.188 232.044 551.129 233.126C551.089 234.148 550.244 234.934 549.202 234.915Z" fill="#69CB87" />
    <path d="M555.945 233.047C556.987 233.047 557.813 233.873 557.832 234.895C557.852 235.957 556.967 236.802 555.906 236.802C554.884 236.782 554.038 235.957 554.019 234.954C553.999 233.892 554.864 233.047 555.945 233.047Z" fill="url(#paint12_linear_1_521)" />
    <path d="M516.882 234.01C517.944 234.03 518.75 234.816 518.77 235.858C518.789 236.9 517.885 237.785 516.823 237.765C515.801 237.746 514.956 236.92 514.936 235.898C514.936 234.836 515.781 233.991 516.882 234.01Z" fill="#74CCD8" />
    <path d="M567.406 234.01C568.448 234.03 569.294 234.856 569.294 235.878C569.294 236.9 568.37 237.785 567.328 237.765C566.325 237.746 565.46 236.881 565.441 235.878C565.441 234.836 566.325 233.991 567.406 234.01Z" fill="#74CCD8" />
    <path d="M532.403 216.729C532.162 216.794 531.895 216.728 531.673 216.616C531.534 216.545 531.403 216.46 531.351 216.337C531.214 216.061 531.194 215.55 531.371 215.354C532.02 214.587 532.728 213.86 533.514 213.211C533.73 213.034 534.359 213.093 534.635 213.29C534.851 213.447 535.008 214.115 534.87 214.292C534.163 215.138 533.337 215.885 532.551 216.651C532.513 216.689 532.464 216.712 532.403 216.729Z" fill="white" />
    <path d="M521.09 216.679C520.792 216.804 520.428 216.741 520.148 216.58C520.027 216.51 519.925 216.433 519.89 216.337C519.792 216.022 519.792 215.511 519.988 215.275C520.578 214.548 521.247 213.86 521.994 213.29C522.249 213.093 522.898 213.152 523.173 213.349C523.389 213.506 523.488 214.214 523.33 214.43C522.701 215.216 521.954 215.904 521.227 216.592C521.191 216.629 521.145 216.656 521.09 216.679Z" fill="white" />
  </g>
  <defs>
    <filter id="filter6_d_1_521" x="510.936" y="209.127" width="68.1281" height="67.6042" filterUnits="userSpaceOnUse" color-interpolation-filters="sRGB">
      <feFlood flood-opacity="0" result="BackgroundImageFix" />
      <feColorMatrix in="SourceAlpha" type="matrix" values="0 0 0 0 0 0 0 0 0 0 0 0 0 0 0 0 0 0 127 0" result="hardAlpha" />
      <feOffset dy="2" />
      <feGaussianBlur stdDeviation="2" />
      <feComposite in2="hardAlpha" operator="out" />
      <feColorMatrix type="matrix" values="0 0 0 0 0.167755 0 0 0 0 0.352341 0 0 0 0 0.3875 0 0 0 0.06 0" />
      <feBlend mode="normal" in2="BackgroundImageFix" result="effect1_dropShadow_1_521" />
      <feBlend mode="normal" in="SourceGraphic" in2="effect1_dropShadow_1_521" result="shape" />
    </filter>
    <linearGradient id="paint11_linear_1_521" x1="542.095" y1="264.561" x2="542.095" y2="268.218" gradientUnits="userSpaceOnUse">
      <stop stop-color="#ED9BC1" />
      <stop offset="1" stop-color="#ED9BB9" />
    </linearGradient>
    <linearGradient id="paint12_linear_1_521" x1="555.925" y1="233.047" x2="555.925" y2="236.802" gradientUnits="userSpaceOnUse">
      <stop stop-color="#ED9BC1" />
      <stop offset="1" stop-color="#ED9BB9" />
    </linearGradient>
  </defs>
</svg>