<?xml version='1.0' encoding='utf-8'?>
<svg xmlns="http://www.w3.org/2000/svg" width="110" height="110" viewBox="300 357.211 110 110" fill="none">
  <circle cx="355" cy="412.211" r="41.4442" fill="white" />
  <g filter="url(#filter15_d_1_521)">
    <path d="M331.07 399.582C331.231 399.147 331.846 399.147 332.007 399.582L333.264 402.979C333.315 403.116 333.423 403.224 333.56 403.275L336.957 404.531C337.392 404.693 337.392 405.308 336.957 405.469L333.56 406.726C333.423 406.777 333.315 406.885 333.264 407.022L332.007 410.418C331.846 410.854 331.231 410.854 331.07 410.418L329.813 407.022C329.762 406.885 329.654 406.777 329.517 406.726L326.12 405.469C325.685 405.308 325.685 404.693 326.12 404.531L329.517 403.275C329.654 403.224 329.762 403.116 329.813 402.979L331.07 399.582Z" fill="url(#paint27_linear_1_521)" />
    <path d="M343.327 384.271C343.489 383.835 344.104 383.835 344.265 384.271L345.522 387.667C345.573 387.804 345.681 387.912 345.818 387.963L349.214 389.22C349.65 389.381 349.65 389.996 349.214 390.158L345.818 391.414C345.681 391.465 345.573 391.573 345.522 391.71L344.265 395.107C344.104 395.542 343.489 395.542 343.327 395.107L342.071 391.71C342.02 391.573 341.912 391.465 341.775 391.414L338.378 390.158C337.943 389.996 337.943 389.381 338.378 389.22L341.775 387.963C341.912 387.912 342.02 387.804 342.071 387.667L343.327 384.271Z" fill="url(#paint28_linear_1_521)" />
    <path d="M377.932 394.673C378.093 394.237 378.709 394.237 378.87 394.673L380.127 398.069C380.178 398.206 380.286 398.314 380.422 398.365L383.819 399.622C384.255 399.783 384.255 400.399 383.819 400.56L380.422 401.817C380.286 401.867 380.178 401.975 380.127 402.112L378.87 405.509C378.709 405.944 378.093 405.944 377.932 405.509L376.675 402.112C376.625 401.975 376.517 401.867 376.38 401.817L372.983 400.56C372.548 400.399 372.548 399.783 372.983 399.622L376.38 398.365C376.517 398.314 376.625 398.206 376.675 398.069L377.932 394.673Z" fill="url(#paint29_linear_1_521)" />
  </g>
  <g filter="url(#filter16_d_1_521)">
    <ellipse cx="355.482" cy="426.34" rx="13.5114" ry="12.0018" transform="rotate(-38.0586 355.482 426.34)" fill="#928C97" />
    <path d="M357.145 447.391C354.072 450.463 350.287 450.482 347.252 447.428C343.092 443.287 338.951 439.127 334.81 434.987C331.7 431.876 331.719 428.129 334.81 425.018C341.162 418.666 347.533 412.296 353.885 405.944C356.958 402.89 360.705 402.89 363.778 405.963C367.881 410.066 371.929 414.226 376.107 418.254C378.524 420.578 379.199 423.819 377.643 426.574C377.587 426.667 361.679 442.856 357.145 447.391ZM366.645 426.03C366.645 424.981 366.57 423.894 366.307 422.882C365.071 417.936 359.974 414.75 354.99 415.65C350.512 416.455 346.914 420.503 346.783 425.037C346.727 427.267 347.327 429.272 348.582 431.22C348.132 431.614 347.701 431.97 347.308 432.382C346.521 433.207 346.484 434.256 347.196 434.968C347.908 435.68 348.957 435.661 349.781 434.855C350.193 434.443 350.549 433.975 350.887 433.581C355.609 436.542 360.48 435.567 363.516 432.682C364.94 431.352 366.645 428.728 366.645 426.03Z" fill="#74CCD8" />
    <path d="M331.629 434.392C336.838 439.601 342.009 444.772 347.181 449.925C345.682 451.143 343.527 450.974 341.934 449.4C339.292 446.796 336.688 444.154 334.065 441.53C333.39 440.856 332.678 440.181 332.022 439.469C330.655 438.027 330.523 436.003 331.629 434.392Z" fill="url(#paint30_linear_1_521)" />
    <path d="M320.233 446.041C321.132 446.004 322.069 446.922 322.069 447.821C322.069 448.721 321.245 449.545 320.326 449.583C319.39 449.601 318.584 448.852 318.528 447.915C318.471 446.978 319.296 446.079 320.233 446.041Z" fill="#E4E7EE" />
    <path d="M331.438 447.821C331.438 448.721 330.613 449.564 329.714 449.583C328.739 449.62 327.915 448.815 327.896 447.84C327.896 446.941 328.683 446.098 329.601 446.041C330.501 446.004 331.438 446.903 331.438 447.821Z" fill="#E4E7EE" />
    <path d="M324.917 450.726C325.816 450.688 326.753 451.606 326.753 452.506C326.753 453.405 325.929 454.23 325.011 454.267C324.074 454.286 323.268 453.536 323.212 452.599C323.156 451.663 323.98 450.763 324.917 450.726Z" fill="#E4E7EE" />
    <path d="M334.304 450.726C335.204 450.707 336.122 451.625 336.122 452.525C336.103 453.424 335.279 454.248 334.379 454.267C333.442 454.286 332.637 453.536 332.599 452.581C332.543 451.663 333.367 450.763 334.304 450.726Z" fill="#E4E7EE" />
    <path d="M320.326 458.951C319.39 458.97 318.584 458.221 318.528 457.284C318.471 456.347 319.296 455.448 320.233 455.41C321.132 455.373 322.069 456.291 322.05 457.19C322.069 458.089 321.245 458.933 320.326 458.951Z" fill="#E4E7EE" />
    <path d="M329.62 458.951C328.683 458.933 327.915 458.146 327.896 457.209C327.896 456.272 328.777 455.391 329.695 455.41C330.576 455.447 331.438 456.309 331.438 457.19C331.438 458.127 330.557 458.97 329.62 458.951Z" fill="#E4E7EE" />
    <path d="M326.753 461.912C326.735 462.849 325.854 463.692 324.898 463.655C323.961 463.617 323.193 462.811 323.212 461.874C323.231 460.956 324.036 460.132 324.936 460.113C325.854 460.076 326.772 460.994 326.753 461.912Z" fill="#E4E7EE" />
    <path d="M334.361 460.094C335.279 460.113 336.178 461.05 336.122 461.949C336.084 462.867 335.241 463.654 334.323 463.636C333.349 463.636 332.543 462.793 332.581 461.818C332.618 460.919 333.461 460.094 334.361 460.094Z" fill="#E4E7EE" />
    <path d="M355.571 419.21C354.353 422.02 354.634 424.213 356.377 425.918C358.063 427.567 360.255 427.81 362.86 426.648C363.141 428.878 360.274 431.558 357.276 431.876C353.772 432.251 350.643 429.59 350.306 425.955C350.006 422.732 352.517 419.472 355.571 419.21Z" fill="#FFD882" />
    <path d="M361.792 422.095C361.811 423.051 360.967 423.894 360.012 423.875C359.094 423.857 358.288 423.07 358.269 422.152C358.251 421.233 359.037 420.409 359.956 420.371C360.93 420.334 361.773 421.14 361.792 422.095Z" fill="#74CCD8" />
  </g>
  <defs>
    <filter id="filter15_d_1_521" x="321.794" y="381.944" width="66.3518" height="34.8008" filterUnits="userSpaceOnUse" color-interpolation-filters="sRGB">
      <feFlood flood-opacity="0" result="BackgroundImageFix" />
      <feColorMatrix in="SourceAlpha" type="matrix" values="0 0 0 0 0 0 0 0 0 0 0 0 0 0 0 0 0 0 127 0" result="hardAlpha" />
      <feOffset dy="2" />
      <feGaussianBlur stdDeviation="2" />
      <feComposite in2="hardAlpha" operator="out" />
      <feColorMatrix type="matrix" values="0 0 0 0 0.929412 0 0 0 0 0.607843 0 0 0 0 0.756863 0 0 0 0.2 0" />
      <feBlend mode="normal" in2="BackgroundImageFix" result="effect1_dropShadow_1_521" />
      <feBlend mode="normal" in="SourceGraphic" in2="effect1_dropShadow_1_521" result="shape" />
    </filter>
    <linearGradient id="paint27_linear_1_521" x1="331.538" y1="398.315" x2="331.538" y2="411.686" gradientUnits="userSpaceOnUse">
      <stop stop-color="#ED9BC1" />
      <stop offset="1" stop-color="#ED9BB9" />
    </linearGradient>
    <linearGradient id="paint28_linear_1_521" x1="343.796" y1="383.003" x2="343.796" y2="396.374" gradientUnits="userSpaceOnUse">
      <stop stop-color="#ED9BC1" />
      <stop offset="1" stop-color="#ED9BB9" />
    </linearGradient>
    <linearGradient id="paint29_linear_1_521" x1="378.401" y1="393.405" x2="378.401" y2="406.776" gradientUnits="userSpaceOnUse">
      <stop stop-color="#ED9BC1" />
      <stop offset="1" stop-color="#ED9BB9" />
    </linearGradient>
    <filter id="filter16_d_1_521" x="314.525" y="401.656" width="67.954" height="68.0001" filterUnits="userSpaceOnUse" color-interpolation-filters="sRGB">
      <feFlood flood-opacity="0" result="BackgroundImageFix" />
      <feColorMatrix in="SourceAlpha" type="matrix" values="0 0 0 0 0 0 0 0 0 0 0 0 0 0 0 0 0 0 127 0" result="hardAlpha" />
      <feOffset dy="2" />
      <feGaussianBlur stdDeviation="2" />
      <feComposite in2="hardAlpha" operator="out" />
      <feColorMatrix type="matrix" values="0 0 0 0 0.200521 0 0 0 0 0.767083 0 0 0 0 0.875 0 0 0 0.2 0" />
      <feBlend mode="normal" in2="BackgroundImageFix" result="effect1_dropShadow_1_521" />
      <feBlend mode="normal" in="SourceGraphic" in2="effect1_dropShadow_1_521" result="shape" />
    </filter>
    <linearGradient id="paint30_linear_1_521" x1="339.034" y1="434.392" x2="339.034" y2="450.725" gradientUnits="userSpaceOnUse">
      <stop stop-color="#ED9BC1" />
      <stop offset="1" stop-color="#ED9BB9" />
    </linearGradient>
  </defs>
</svg>