<?xml version='1.0' encoding='utf-8'?>
<svg xmlns="http://www.w3.org/2000/svg" width="24.43" height="20" viewBox="1104.32 75 24.43 20" fill="none">
  <path d="M1110.96 76H1110.97C1112.88 75.9851 1114.66 76.9433 1115.7 78.541L1116.53 79.8262L1117.37 78.5459C1118.42 76.9536 1120.19 75.9961 1122.1 76C1125.12 76.0149 1127.58 78.3807 1127.74 81.3594L1127.75 81.6504C1127.75 83.0271 1127.12 84.4922 1126.03 85.9727C1124.96 87.4451 1123.5 88.8442 1122.01 90.0654C1120.52 91.2826 1119.03 92.2991 1117.91 93.0127C1117.35 93.3689 1116.88 93.6486 1116.56 93.8379C1116.55 93.8413 1116.54 93.8443 1116.54 93.8477C1116.53 93.8438 1116.52 93.8399 1116.52 93.8359C1116.19 93.6441 1115.73 93.3619 1115.17 93.002C1114.04 92.2805 1112.55 91.254 1111.06 90.0303C1109.57 88.8023 1108.11 87.3989 1107.03 85.9297C1105.95 84.4496 1105.32 82.9962 1105.32 81.6455C1105.32 78.5281 1107.85 76.0002 1110.96 76Z" stroke="#B7B8C5" stroke-width="2" />
</svg>