<?xml version='1.0' encoding='utf-8'?>
<svg xmlns="http://www.w3.org/2000/svg" width="56" height="50" viewBox="2 7 56 50" fill="none">
  <path d="M56.8283 22.8172L30.312 55.9039L3.56104 22.8172L13.886 8.03381H46.386L56.8283 22.8172Z" fill="white" />
  <path d="M2.39288 22.5504C5.75491 17.6565 9.1305 12.7761 12.479 7.86866C12.845 7.33996 13.2652 7.1095 13.916 7.1095C24.7477 7.12305 35.5658 7.12305 46.3975 7.1095C47.0482 7.1095 47.4685 7.3264 47.8345 7.85511C51.0474 12.5728 54.2874 17.2634 57.5274 21.9675C58.0697 22.7538 58.0561 22.9978 57.4596 23.7434C48.6885 34.6293 39.931 45.5017 31.1735 56.3876C30.4007 57.3501 29.9263 57.3501 29.1535 56.3876C20.3824 45.5017 11.6113 34.6022 2.84025 23.7163C2.67757 23.5265 2.54201 23.3096 2.40644 23.1062C2.39288 22.9165 2.39288 22.7402 2.39288 22.5504ZM21.2229 23.7841C24.1918 33.4906 27.1336 43.1428 30.0889 52.7951C30.1296 52.7951 30.1703 52.7951 30.2245 52.7951C33.1798 43.1428 36.1216 33.4906 39.0905 23.7841C33.0985 23.7841 27.215 23.7841 21.2229 23.7841ZM5.26688 23.7841C12.7908 33.1245 20.2469 42.3701 27.6894 51.6293C27.7165 51.6157 27.7572 51.5886 27.7843 51.575C24.951 42.3159 22.1312 33.0568 19.2979 23.7841C14.648 23.7841 10.0252 23.7841 5.26688 23.7841ZM32.5291 51.5615C32.5562 51.575 32.5969 51.6021 32.624 51.6157C40.0801 42.3566 47.5362 33.111 55.0466 23.7841C50.2882 23.7841 45.6654 23.7841 41.0155 23.7841C38.1822 33.0568 35.3624 42.3159 32.5291 51.5615ZM21.7652 21.8726C27.4047 21.8726 32.9358 21.8726 38.5482 21.8726C35.742 17.7921 32.9765 13.7658 30.1567 9.67169C27.337 13.7658 24.5714 17.7921 21.7652 21.8726ZM13.3195 9.92926C10.5539 13.9556 7.84262 17.887 5.1042 21.8862C9.63209 21.8862 14.0515 21.8862 18.5523 21.8862C16.8035 17.9005 15.0818 13.9556 13.3195 9.92926ZM41.7611 21.8862C46.2755 21.8862 50.6949 21.8862 55.2093 21.8862C52.4573 17.887 49.746 13.942 46.994 9.94282C45.2316 13.9691 43.5099 17.9005 41.7611 21.8862ZM20.152 20.9507C22.9175 16.9244 25.6288 12.993 28.3673 9.00742C23.8394 9.00742 19.4199 9.00742 14.9327 9.00742C16.6679 12.9795 18.3896 16.9109 20.152 20.9507ZM40.1615 20.9507C41.9238 16.9109 43.6455 12.9795 45.3943 9.00742C40.8935 9.00742 36.4741 9.00742 31.9597 9.00742C34.6846 12.993 37.3959 16.9244 40.1615 20.9507Z" fill="#74CCD8" />
</svg>