<?xml version='1.0' encoding='utf-8'?>
<svg xmlns="http://www.w3.org/2000/svg" width="34" height="34" viewBox="1040.32 67.7838 34 34" fill="none">
  <circle cx="1057.32" cy="84.7838" r="17" fill="#74CCD8" />
  <path d="M1053.08 92.162C1052.75 92.162 1052.51 92.108 1052.36 92C1052.21 91.904 1052.12 91.772 1052.07 91.604C1052.03 91.436 1052.02 91.256 1052.02 91.064V80.624C1052.02 80.444 1052.04 80.276 1052.09 80.12C1052.14 79.964 1052.24 79.838 1052.39 79.742C1052.56 79.646 1052.81 79.598 1053.13 79.598C1053.49 79.598 1053.74 79.64 1053.87 79.724C1054.01 79.796 1054.15 79.904 1054.27 80.048L1060.28 88.454V80.624C1060.28 80.444 1060.3 80.276 1060.35 80.12C1060.4 79.964 1060.5 79.838 1060.66 79.742C1060.81 79.646 1061.05 79.598 1061.38 79.598C1061.71 79.598 1061.95 79.652 1062.1 79.76C1062.25 79.856 1062.35 79.988 1062.38 80.156C1062.43 80.324 1062.46 80.51 1062.46 80.714V91.082C1062.46 91.274 1062.43 91.454 1062.37 91.622C1062.32 91.778 1062.21 91.904 1062.04 92C1061.89 92.108 1061.64 92.162 1061.3 92.162C1061.04 92.162 1060.83 92.138 1060.67 92.09C1060.53 92.042 1060.4 91.94 1060.28 91.784L1054.18 83.396V91.082C1054.18 91.274 1054.15 91.454 1054.1 91.622C1054.07 91.778 1053.97 91.904 1053.82 92C1053.66 92.108 1053.41 92.162 1053.08 92.162Z" fill="white" />
</svg>