<?xml version='1.0' encoding='utf-8'?>
<svg xmlns="http://www.w3.org/2000/svg" width="110" height="110" viewBox="110 164.461 110 110" fill="none">
  <circle cx="165" cy="219.461" r="41.4442" fill="white" />
  <g filter="url(#filter0_d_1_521)">
    <path d="M143.917 211.143C145.838 212.111 146.322 213.782 145.135 215.609C144.667 216.328 144.089 216.968 143.48 217.561C142.559 218.483 141.559 219.342 140.591 220.216C140.528 220.263 140.466 220.31 140.357 220.404C138.795 218.92 137.046 217.64 135.781 215.859C135.453 215.391 135.265 214.829 135.016 214.298C135.016 213.86 135.016 213.439 135.016 213.001C135.328 212.08 135.953 211.455 136.89 211.143C137.124 211.143 137.358 211.143 137.592 211.143C138.42 211.487 139.06 211.986 139.513 212.798C139.904 213.47 140.856 213.454 141.262 212.767C141.715 211.955 142.371 211.455 143.214 211.143C143.449 211.143 143.683 211.143 143.917 211.143Z" fill="url(#paint1_linear_1_521)" />
  </g>
  <g filter="url(#filter1_d_1_521)">
    <path d="M156.379 225.807C154.943 224.402 153.553 223.074 152.21 221.684C151.523 220.966 151.117 220.076 151.085 219.061C151.054 217.905 151.663 216.968 152.71 216.624C153.568 216.328 154.677 216.781 155.286 217.686C155.349 217.78 155.411 217.889 155.474 217.983C156.005 218.826 156.895 218.842 157.441 217.999C157.598 217.749 157.754 217.499 157.957 217.296C158.628 216.656 159.409 216.297 160.346 216.671C161.252 217.03 161.83 217.936 161.83 218.936C161.814 219.842 161.564 220.7 160.955 221.356C160.003 222.403 158.988 223.402 157.972 224.402C157.488 224.87 156.973 225.292 156.379 225.807Z" fill="url(#paint2_linear_1_521)" />
  </g>
  <g filter="url(#filter2_d_1_521)">
    <path d="M194.984 233.99C194.641 234.537 194.157 234.709 193.516 234.709C178.087 234.693 162.642 234.693 147.212 234.693C147.041 234.693 146.853 234.709 146.681 234.677C146.135 234.615 145.76 234.193 145.744 233.662C145.729 233.1 146.119 232.647 146.681 232.585C146.853 232.569 147.025 232.569 147.212 232.569C162.642 232.569 178.087 232.569 193.516 232.554C194.157 232.554 194.641 232.725 194.984 233.272C194.984 233.522 194.984 233.756 194.984 233.99Z" fill="#74CCD8" />
    <path d="M156.692 271.112C155.599 270.831 154.537 270.487 153.615 269.784C151.335 268.035 150.476 264.974 151.554 262.273C152.6 259.649 155.396 257.962 158.129 258.29C161.127 258.649 163.423 260.805 163.844 263.694C164.36 267.208 162.095 270.362 158.581 271.002C158.488 271.018 158.41 271.065 158.316 271.112C157.785 271.112 157.238 271.112 156.692 271.112ZM153.241 264.709C153.256 267.067 155.208 268.988 157.535 268.972C159.893 268.941 161.814 266.989 161.799 264.662C161.767 262.288 159.846 260.399 157.488 260.414C155.115 260.43 153.225 262.335 153.241 264.709Z" fill="#928C97" />
    <path d="M182.46 271.112C181.773 270.893 181.07 270.737 180.429 270.44C177.65 269.128 176.229 266.021 177.009 263.069C177.775 260.149 180.554 258.103 183.475 258.275C186.661 258.462 189.191 260.773 189.581 263.865C190.018 267.27 187.676 270.44 184.302 271.018C184.193 271.034 184.084 271.096 183.975 271.127C183.475 271.112 182.959 271.112 182.46 271.112ZM183.287 260.414C180.945 260.367 178.977 262.226 178.93 264.537C178.883 266.958 180.711 268.894 183.116 268.972C185.411 269.05 187.426 267.145 187.473 264.834C187.551 262.429 185.692 260.461 183.287 260.414Z" fill="#928C97" />
    <path d="M170.622 211.143C171.169 211.393 171.45 211.799 171.434 212.424C171.419 218.28 171.434 224.136 171.434 229.992C171.434 230.102 171.419 230.227 171.403 230.383C170.716 230.383 170.044 230.383 169.326 230.383C169.31 230.164 169.295 229.961 169.295 229.743C169.295 224.027 169.295 218.311 169.279 212.58C169.279 211.924 169.451 211.44 170.029 211.127C170.232 211.143 170.435 211.143 170.622 211.143Z" fill="#74CCD8" />
    <path d="M192.86 236.88C192.642 237.785 192.501 238.66 192.236 239.472C190.69 244.188 186.301 247.483 181.335 247.53C174.011 247.593 166.702 247.608 159.378 247.53C153.537 247.468 148.618 242.939 147.962 237.207C147.946 237.114 147.946 237.02 147.946 236.88C162.892 236.88 177.79 236.88 192.86 236.88Z" fill="#D9C8BB" />
    <path d="M173.589 230.399C173.589 224.698 173.589 219.03 173.589 213.376C173.652 213.345 173.683 213.314 173.714 213.314C176.635 213.314 179.571 213.079 182.413 214.017C188.66 216.078 192.767 221.684 192.845 228.337C192.861 229.009 192.845 229.696 192.845 230.414C186.395 230.399 180.008 230.399 173.589 230.399Z" fill="#D9C8BB" />
    <path d="M179.477 249.826C177.759 251.231 176.026 252.637 174.308 254.027C173.511 254.683 173.09 255.479 173.449 256.494C173.605 256.947 173.964 257.369 174.323 257.681C174.995 258.259 175.76 258.743 176.494 259.29C176.135 259.883 175.776 260.43 175.401 261.055C174.839 260.633 174.261 260.211 173.683 259.79C173.027 259.305 172.371 258.806 171.7 258.322C170.731 257.619 169.81 257.619 168.842 258.337C167.655 259.212 166.468 260.117 165.265 261.008C164.906 260.43 164.563 259.883 164.188 259.29C164.859 258.806 165.531 258.306 166.218 257.822C167.608 256.791 167.655 255.214 166.312 254.121C164.688 252.793 163.032 251.466 161.393 250.154C161.252 250.045 161.111 249.904 160.862 249.685C161.986 249.685 162.985 249.67 163.969 249.701C164.172 249.701 164.391 249.888 164.563 250.029C165.968 251.153 167.358 252.293 168.748 253.418C169.872 254.324 170.841 254.308 171.965 253.402C173.371 252.262 174.776 251.107 176.197 249.982C176.4 249.81 176.713 249.701 176.978 249.701C177.79 249.67 178.602 249.685 179.414 249.685C179.446 249.732 179.461 249.779 179.477 249.826Z" fill="#E4E7EE" />
    <path d="M159.643 264.724C159.628 265.911 158.691 266.817 157.504 266.817C156.301 266.817 155.364 265.864 155.38 264.646C155.396 263.444 156.364 262.522 157.582 262.554C158.753 262.569 159.659 263.537 159.643 264.724Z" fill="#74CCD8" />
    <path d="M183.225 262.554C184.396 262.554 185.349 263.506 185.349 264.662C185.364 265.849 184.381 266.817 183.194 266.801C182.022 266.801 181.07 265.849 181.07 264.693C181.054 263.506 182.022 262.538 183.225 262.554Z" fill="#74CCD8" />
  </g>
  <defs>
    <filter id="filter0_d_1_521" x="131.016" y="209.143" width="18.7629" height="17.2607" filterUnits="userSpaceOnUse" color-interpolation-filters="sRGB">
      <feFlood flood-opacity="0" result="BackgroundImageFix" />
      <feColorMatrix in="SourceAlpha" type="matrix" values="0 0 0 0 0 0 0 0 0 0 0 0 0 0 0 0 0 0 127 0" result="hardAlpha" />
      <feOffset dy="2" />
      <feGaussianBlur stdDeviation="2" />
      <feComposite in2="hardAlpha" operator="out" />
      <feColorMatrix type="matrix" values="0 0 0 0 0.929412 0 0 0 0 0.607843 0 0 0 0 0.756863 0 0 0 0.2 0" />
      <feBlend mode="normal" in2="BackgroundImageFix" result="effect1_dropShadow_1_521" />
      <feBlend mode="normal" in="SourceGraphic" in2="effect1_dropShadow_1_521" result="shape" />
    </filter>
    <linearGradient id="paint1_linear_1_521" x1="140.397" y1="211.143" x2="140.397" y2="220.404" gradientUnits="userSpaceOnUse">
      <stop stop-color="#ED9BC1" />
      <stop offset="1" stop-color="#ED9BB9" />
    </linearGradient>
    <filter id="filter1_d_1_521" x="147.084" y="214.519" width="18.7455" height="17.288" filterUnits="userSpaceOnUse" color-interpolation-filters="sRGB">
      <feFlood flood-opacity="0" result="BackgroundImageFix" />
      <feColorMatrix in="SourceAlpha" type="matrix" values="0 0 0 0 0 0 0 0 0 0 0 0 0 0 0 0 0 0 127 0" result="hardAlpha" />
      <feOffset dy="2" />
      <feGaussianBlur stdDeviation="2" />
      <feComposite in2="hardAlpha" operator="out" />
      <feColorMatrix type="matrix" values="0 0 0 0 0.929412 0 0 0 0 0.607843 0 0 0 0 0.756863 0 0 0 0.2 0" />
      <feBlend mode="normal" in2="BackgroundImageFix" result="effect1_dropShadow_1_521" />
      <feBlend mode="normal" in="SourceGraphic" in2="effect1_dropShadow_1_521" result="shape" />
    </filter>
    <linearGradient id="paint2_linear_1_521" x1="156.457" y1="216.519" x2="156.457" y2="225.807" gradientUnits="userSpaceOnUse">
      <stop stop-color="#ED9BC1" />
      <stop offset="1" stop-color="#ED9BB9" />
    </linearGradient>
    <filter id="filter2_d_1_521" x="141.744" y="209.127" width="57.2404" height="68" filterUnits="userSpaceOnUse" color-interpolation-filters="sRGB">
      <feFlood flood-opacity="0" result="BackgroundImageFix" />
      <feColorMatrix in="SourceAlpha" type="matrix" values="0 0 0 0 0 0 0 0 0 0 0 0 0 0 0 0 0 0 127 0" result="hardAlpha" />
      <feOffset dy="2" />
      <feGaussianBlur stdDeviation="2" />
      <feComposite in2="hardAlpha" operator="out" />
      <feColorMatrix type="matrix" values="0 0 0 0 0.167755 0 0 0 0 0.352341 0 0 0 0 0.3875 0 0 0 0.06 0" />
      <feBlend mode="normal" in2="BackgroundImageFix" result="effect1_dropShadow_1_521" />
      <feBlend mode="normal" in="SourceGraphic" in2="effect1_dropShadow_1_521" result="shape" />
    </filter>
  </defs>
</svg>