<?xml version='1.0' encoding='utf-8'?>
<svg xmlns="http://www.w3.org/2000/svg" width="110" height="110" viewBox="680 164.461 110 110" fill="none">
  <circle cx="735" cy="219.461" r="41.4442" fill="white" />
  <g filter="url(#filter10_d_1_521)">
    <path d="M757.647 250.121C763.433 250.099 768.161 254.784 768.183 260.57C768.226 266.291 763.433 271.105 757.712 271.127C751.926 271.149 747.112 266.356 747.112 260.591C747.133 254.827 751.862 250.142 757.647 250.121Z" fill="#928C97" />
    <path d="M757.647 255.98C760.205 255.971 762.296 258.042 762.305 260.6C762.324 263.129 760.205 265.258 757.676 265.267C755.118 265.277 752.99 263.158 752.99 260.609C752.999 258.061 755.09 255.99 757.647 255.98Z" fill="#E4E7EE" />
    <path d="M708.877 257.051C712.807 257.051 715.98 260.181 715.959 264.067C715.937 267.932 712.72 271.149 708.856 271.127C705.056 271.105 701.882 267.953 701.818 264.11C701.753 260.268 704.948 257.072 708.877 257.051Z" fill="#928C97" />
    <path d="M708.888 261.347C710.398 261.342 711.632 262.565 711.638 264.075C711.649 265.568 710.398 266.825 708.905 266.831C707.394 266.836 706.137 265.585 706.137 264.081C706.143 262.576 707.377 261.353 708.888 261.347Z" fill="#E4E7EE" />
    <path d="M749.653 232.408C750.105 232.225 750.362 231.745 750.261 231.268C750.039 230.226 749.817 229.18 749.595 228.121C749.249 226.372 749.832 225.293 751.3 224.969C752.811 224.645 753.869 225.423 754.258 227.15C755.165 231.252 756.071 235.354 756.978 239.456C757.021 239.713 756.809 239.938 756.551 239.978C755.46 240.145 754.385 240.303 753.268 240.468C752.763 240.543 752.282 240.225 752.157 239.729C752.041 239.269 751.925 238.802 751.801 238.317C751.653 237.73 751.019 237.415 750.46 237.648C738.534 242.626 727.233 248.599 717.139 256.632C716.796 256.906 716.315 256.927 715.952 256.681C715.169 256.149 714.382 255.605 713.546 255.03C713.001 254.655 712.96 253.865 713.469 253.443C724.296 244.482 736.444 237.743 749.653 232.408Z" fill="url(#paint19_linear_1_521)" />
    <path d="M725.825 232.849C724.141 232.849 722.435 232.828 720.751 232.849C720.168 232.849 719.866 232.698 719.586 232.137C717.858 228.553 716.088 224.969 714.361 221.385C713.562 219.723 714.059 218.147 715.527 217.413C716.973 216.7 718.571 217.283 719.391 218.903C720.687 221.429 721.982 223.954 723.234 226.502C723.536 227.106 723.882 227.322 724.551 227.322C726.71 227.279 728.869 227.301 731.028 227.301C732.755 227.301 734.007 228.467 734.05 230.021C734.072 231.532 732.906 232.763 731.222 232.828C729.43 232.892 727.638 232.828 725.825 232.849Z" fill="#928C97" />
    <path d="M757.742 242.781C757.787 242.697 757.874 242.626 757.967 242.649C760.115 243.173 762.302 243.66 764.426 244.27C765.614 244.615 766.046 245.587 765.657 246.515C765.268 247.422 764.491 247.659 763.282 247.184C755.381 244.184 747.436 247.573 744.089 255.367C743.636 256.446 742.924 256.77 741.974 256.381C741.11 256.036 740.786 255.237 741.196 254.244C744.003 247.767 748.817 243.903 755.899 243.018C756.483 242.934 757.067 242.891 757.651 242.83C757.691 242.826 757.723 242.817 757.742 242.781Z" fill="#74CCD8" />
    <path d="M753.369 220.793C753.426 221.362 753.002 221.87 752.431 221.909C752.036 221.936 751.678 221.96 751.338 221.984C750.791 222.023 750.314 221.614 750.275 221.067C750.165 219.54 750.078 218.012 749.918 216.485C749.703 214.455 749.076 213.829 747.047 214.196C745.342 214.498 743.744 215.254 742.082 215.837C741.779 215.945 741.52 216.182 741.218 216.269C740.419 216.506 739.707 216.377 739.318 215.556C738.93 214.714 739.167 213.937 739.987 213.548C742.211 212.447 744.456 211.433 746.961 211.174C749.854 210.871 751.948 212.037 752.596 214.801C753.039 216.721 753.166 218.737 753.369 220.793Z" fill="#E4E7EE" />
    <path d="M722.543 236.937C722.543 236.384 722.991 235.937 723.543 235.937C724.786 235.937 726.005 235.937 727.286 235.937C727.838 235.937 728.287 236.384 728.29 236.937C728.293 237.673 728.294 238.402 728.264 239.132C728.264 239.304 728.092 239.542 727.941 239.65C726.674 240.463 725.407 241.254 724.083 242.087C723.415 242.508 722.543 242.028 722.543 241.239C722.543 239.779 722.543 238.369 722.543 236.937Z" fill="#74CCD8" />
  </g>
  <defs>
    <filter id="filter10_d_1_521" x="697.817" y="209.127" width="74.3666" height="68" filterUnits="userSpaceOnUse" color-interpolation-filters="sRGB">
      <feFlood flood-opacity="0" result="BackgroundImageFix" />
      <feColorMatrix in="SourceAlpha" type="matrix" values="0 0 0 0 0 0 0 0 0 0 0 0 0 0 0 0 0 0 127 0" result="hardAlpha" />
      <feOffset dy="2" />
      <feGaussianBlur stdDeviation="2" />
      <feComposite in2="hardAlpha" operator="out" />
      <feColorMatrix type="matrix" values="0 0 0 0 0.167755 0 0 0 0 0.352341 0 0 0 0 0.3875 0 0 0 0.06 0" />
      <feBlend mode="normal" in2="BackgroundImageFix" result="effect1_dropShadow_1_521" />
      <feBlend mode="normal" in="SourceGraphic" in2="effect1_dropShadow_1_521" result="shape" />
    </filter>
    <linearGradient id="paint19_linear_1_521" x1="734.73" y1="224.897" x2="734.73" y2="257.094" gradientUnits="userSpaceOnUse">
      <stop stop-color="#ED9BC1" />
      <stop offset="1" stop-color="#ED9BB9" />
    </linearGradient>
  </defs>
</svg>