<?xml version='1.0' encoding='utf-8'?>
<svg xmlns="http://www.w3.org/2000/svg" width="110" height="110" viewBox="870 357.211 110 110" fill="none">
  <circle cx="925" cy="412.211" r="41.4442" fill="white" />
  <g filter="url(#filter4_d_1_521)">
    <path d="M871.818 386.67C872.652 384.898 874.167 383.734 875.708 382.646C875.253 381.381 874.824 380.166 874.42 378.951C874.142 378.142 874.369 377.433 875.001 376.902C875.632 376.37 876.39 376.522 876.946 376.927C878.057 377.762 879.093 378.724 880.23 379.66C880.937 379.255 881.821 378.724 882.73 378.268C883.463 377.914 884.271 377.712 884.953 378.319C885.635 378.926 885.585 379.736 885.358 380.52C885.105 381.457 884.751 382.368 884.448 383.228C885.635 383.734 886.873 384.19 888.06 384.772C888.894 385.202 889.854 385.759 889.778 386.847C889.677 388.011 888.566 388.264 887.656 388.593C886.999 388.821 886.343 388.947 885.661 389.327C888.035 389.757 890.384 390.238 892.759 390.643C895.058 391.047 895.537 392.262 894.047 394.135C893.668 394.616 893.188 395.071 892.633 395.678C894.426 395.982 896.093 396.235 897.76 396.539C898.569 396.691 899.377 396.842 900.135 397.146C901.499 397.652 901.802 398.563 901.069 399.828C900.817 400.259 900.514 400.664 900.185 401.043C899.882 401.397 899.554 401.726 899.124 402.182C899.806 402.41 900.438 402.561 901.019 402.789C902.56 403.422 904.151 403.979 905.616 404.763C906.197 405.067 906.879 405.826 906.905 406.408C906.93 406.889 906.046 407.42 905.541 407.901C905.414 408.027 905.212 408.078 904.859 408.28C906.248 408.559 907.435 408.787 908.622 409.065C909.759 409.343 910.896 409.647 911.957 410.102C913.169 410.634 913.27 411.444 912.336 412.405C912.007 412.734 911.628 413.038 911.249 413.316C910.871 413.595 910.466 413.848 909.986 414.151C910.845 414.404 911.603 414.581 912.336 414.835C912.816 415.012 913.27 415.239 913.674 415.518C914.963 416.353 915.089 417.264 914.104 418.428C914.003 418.554 913.902 418.656 913.75 418.858C914.559 419.061 915.316 419.263 916.2 419.491C916.175 419.035 916.125 418.656 916.15 418.276C916.2 417.061 916.15 415.796 916.403 414.607C916.883 412.38 918.297 411.064 920.571 410.634C924.814 409.824 929.109 409.748 933.378 410.128C936.283 410.406 939.213 410.76 942.092 411.216C943.128 411.368 944.138 411.874 945.048 412.405C947.018 413.519 947.978 415.214 947.776 417.517C947.448 421.186 947.094 424.881 946.74 428.55C946.665 429.41 946.564 430.296 946.488 431.207C947.498 431.207 948.458 431.232 949.393 431.207C952.298 431.106 955.253 430.828 958.032 431.739C960.179 432.422 962.225 432.877 964.498 432.7C966.469 432.548 967.782 433.788 968.262 435.762C968.49 436.673 968.641 437.609 968.818 438.546C968.818 439.609 968.818 440.697 968.818 441.785C968.742 442.114 968.641 442.443 968.565 442.772C967.984 445.15 966.62 445.935 964.296 445.302C964.119 445.252 963.943 445.226 963.741 445.176C963.21 446.061 962.882 446.821 963.387 447.909C964.195 449.705 964.675 451.603 964.322 453.628C964.044 455.121 963.311 455.855 961.796 455.981C961.24 456.032 961.063 456.234 960.911 456.715C960.457 458.284 959.623 459.625 958.411 460.663C955.228 463.421 951.489 464.18 947.422 463.32C943.482 462.485 940.728 460.232 939.566 456.158C931.028 456.26 922.49 456.361 914.053 456.462C913.371 457.525 912.79 458.891 911.83 459.853C908.774 462.965 904.934 463.649 900.817 462.687C897.558 461.928 895.159 460.03 894.325 456.664C894.072 455.602 893.618 455.424 892.683 455.424C892.127 455.424 891.294 455.323 891.041 454.969C890.031 453.577 889.071 452.109 888.338 450.566C887.075 447.909 886.621 445.024 886.242 442.139C886.115 441.253 886.014 440.368 885.888 439.533C884.903 440.089 884.069 440.671 883.16 441.051C882.756 441.228 881.998 441.177 881.72 440.899C881.417 440.621 881.341 439.912 881.467 439.457C881.973 437.66 882.604 435.914 883.16 434.143C883.362 433.51 883.514 432.852 883.741 431.992C882.831 432.624 882.175 433.156 881.442 433.561C880.811 433.915 880.103 434.244 879.421 433.687C878.765 433.156 878.739 432.422 879.017 431.688C879.8 429.537 880.634 427.386 881.392 425.21C881.695 424.324 881.922 423.438 882.225 422.426C881.543 422.629 881.063 422.831 880.583 422.882C879.775 422.932 878.916 423.034 878.158 422.831C876.845 422.477 876.592 421.667 877.35 420.528C877.906 419.693 878.562 418.909 879.143 418.099C880.103 416.758 880.861 415.315 881.114 413.595C880.659 413.822 880.28 414.05 879.876 414.202C878.891 414.556 877.83 415.012 876.946 414.101C876.112 413.215 876.744 412.253 877.123 411.368C877.299 410.938 877.552 410.533 877.779 410.128C878.386 409.141 879.042 408.154 879.598 407.142C879.977 406.433 880.23 405.674 880.583 404.814C880.255 404.814 880.129 404.788 880.002 404.814C878.158 405.117 877.476 404.257 878.057 402.41C878.436 401.22 878.967 400.056 879.472 398.917C880.28 397.095 880.71 395.198 880.912 393.047C880.381 393.705 880.028 394.261 879.573 394.717C878.79 395.501 878.032 395.375 877.527 394.388C877.249 393.856 877.022 393.274 876.971 392.692C876.819 391.326 876.769 389.959 876.668 388.568C872.879 388.517 872.879 388.517 871.818 387.606C871.818 387.302 871.818 386.973 871.818 386.67ZM961.897 444.771C963.033 441.709 963.336 438.824 961.694 436.015C960.558 434.092 958.587 433.307 956.491 433.181C953.283 432.979 950.075 433.004 946.841 433.029C945.225 433.029 944.568 432.397 944.719 430.828C945.149 426.349 945.604 421.895 945.983 417.416C946.134 415.568 945.3 414.227 943.608 413.493C942.977 413.215 942.32 412.962 941.638 412.861C939.895 412.582 938.127 412.405 936.384 412.177C931.357 411.57 926.33 411.292 921.303 412.279C918.777 412.76 917.893 413.848 917.918 416.479C917.943 421.237 918.752 425.918 919.661 430.575C919.964 432.143 919.787 432.397 918.146 432.397C916.706 432.397 915.241 432.422 913.801 432.472C913.548 432.472 913.169 432.624 913.043 432.827C912.31 433.965 911.931 434.218 910.643 433.965C909.481 433.738 908.344 433.383 907.208 433.054C906.778 434.978 906.223 435.484 904.454 435.256C903.596 435.155 902.737 434.876 901.928 434.522C900.918 434.092 899.983 433.535 898.973 433.004C898.67 433.561 898.417 434.143 898.038 434.623C896.876 436.192 895.841 436.294 894.426 435.003C893.794 436.825 892.91 438.495 891.294 439.634C890.031 440.52 889.071 440.165 888.667 438.672C888.49 437.989 888.439 437.28 888.338 436.597C888.237 436.597 888.161 436.572 888.06 436.572C887.934 437.103 887.681 437.609 887.707 438.141C887.808 439.938 887.833 441.76 888.161 443.506C888.54 445.555 889.197 447.529 889.728 449.554C889.829 449.554 889.93 449.528 890.031 449.528C890.384 445.252 891.95 441.582 895.462 439.027C898.998 436.445 902.939 435.813 907.157 436.749C911.098 437.635 914.306 439.786 916.327 443.253C918.322 446.669 919.636 450.363 918.272 454.362C924.233 454.362 930.195 454.362 936.131 454.362C936.232 453.678 936.283 453.172 936.384 452.691C936.939 449.604 937.621 446.542 939.566 443.961C944.77 437.103 956.693 437.053 961.442 444.341C961.568 444.417 961.694 444.518 961.897 444.771ZM906.955 454.488C906.955 454.463 906.955 454.412 906.955 454.387C908.521 454.387 910.113 454.438 911.679 454.362C912.79 454.311 913.877 454.159 914.963 454.033C916.68 453.83 916.731 453.754 916.883 452.034C917.388 446.061 913.801 440.671 907.814 438.875C901.726 437.027 897.003 438.394 893.921 443.354C893.567 443.91 893.264 444.518 892.986 445.1C891.95 447.225 891.723 449.528 891.723 451.831C891.723 453.096 892.052 453.501 892.961 453.577C897.634 453.881 902.307 454.184 906.955 454.488ZM937.924 454.21C938.253 454.235 938.404 454.26 938.581 454.26C946.058 454.21 953.535 454.134 960.987 454.058C962.452 454.033 962.553 453.906 962.579 452.438C962.629 450.009 961.593 447.934 960.431 445.884C956.769 439.583 947.069 438.773 942.017 443.936C939.213 446.77 938.682 450.465 937.924 454.21ZM873.915 386.417C873.965 386.467 873.99 386.543 874.041 386.594C874.874 386.594 875.733 386.568 876.567 386.594C878.512 386.644 878.815 386.999 878.588 388.947C878.562 389.175 878.487 389.377 878.512 389.605C878.537 390.592 878.562 391.554 878.613 392.54C878.739 392.566 878.84 392.591 878.967 392.591C879.522 391.478 880.129 390.39 880.634 389.251C880.987 388.416 881.543 387.935 882.427 387.808C882.958 387.732 883.488 387.682 884.019 387.555C885.231 387.302 886.444 387.024 887.631 386.746C887.328 386.366 887.075 386.189 886.797 386.088C885.787 385.708 884.802 385.328 883.766 384.999C882.276 384.519 881.998 383.937 882.655 382.545C882.857 382.115 883.109 381.71 883.286 381.28C883.463 380.824 883.564 380.343 883.716 379.888C883.64 379.837 883.589 379.787 883.514 379.736C882.68 380.267 881.872 380.849 881.013 381.355C879.851 382.064 879.27 381.862 878.487 380.773C877.88 379.938 877.148 379.154 876.491 378.369C876.39 378.445 876.314 378.496 876.213 378.572C876.617 379.685 876.996 380.824 877.426 381.912C877.779 382.798 877.603 383.456 876.794 384.038C875.759 384.822 874.849 385.632 873.915 386.417ZM904 419.263C904 417.669 902.762 415.821 901.726 415.821C899.756 415.847 898.392 417.011 898.392 418.706C898.392 420.452 899.705 421.996 901.272 421.996C902.863 422.021 904 420.883 904 419.263ZM893.037 415.619C893.011 413.898 891.774 412.481 890.283 412.456C888.843 412.456 887.505 413.822 887.555 415.29C887.58 416.859 889.071 418.225 890.687 418.225C892.127 418.2 893.037 417.188 893.037 415.619ZM892.885 403.725C892.885 402.157 891.723 400.866 890.334 400.891C888.768 400.917 887.505 402.182 887.505 403.725C887.479 405.345 888.742 406.712 890.182 406.686C891.622 406.686 892.86 405.32 892.885 403.725ZM964.271 443.253C965.837 443.961 966.822 443.632 966.848 442.266C966.898 440.317 966.873 438.343 966.544 436.445C966.191 434.345 965.004 433.864 962.856 434.573C964.473 437.255 965.054 440.115 964.271 443.253ZM901.272 455.956C901.752 457.196 902.812 457.879 904.05 457.803C905.187 457.727 905.995 457.095 906.273 455.931C904.783 455.931 903.343 455.931 901.928 455.931C901.701 455.931 901.499 455.956 901.272 455.956ZM948.003 456.032C949.216 457.753 952.171 457.753 953.46 456.032C951.641 456.032 949.873 456.032 948.003 456.032ZM912.487 430.575C914.205 430.575 915.973 430.575 917.817 430.575C917.691 430.018 917.615 429.613 917.565 429.41C915.796 429.815 914.129 430.195 912.487 430.575ZM916.706 422.932C915.948 423.287 915.266 423.59 914.483 423.944C915.316 424.476 916.074 424.957 916.984 425.564C916.883 424.602 916.781 423.793 916.706 422.932Z" fill="#928C97" />
    <path d="M961.897 444.771C961.695 444.518 961.568 444.417 961.492 444.315C956.718 437.027 944.795 437.078 939.617 443.936C937.672 446.492 936.99 449.579 936.434 452.666C936.333 453.172 936.283 453.653 936.181 454.336C930.245 454.336 924.309 454.336 918.322 454.336C919.686 450.338 918.373 446.643 916.377 443.227C914.356 439.76 911.148 437.635 907.208 436.724C902.989 435.762 899.049 436.42 895.512 439.001C891.976 441.582 890.435 445.252 890.081 449.503C889.98 449.503 889.879 449.528 889.778 449.528C889.248 447.504 888.591 445.53 888.212 443.48C887.884 441.709 887.833 439.912 887.757 438.116C887.732 437.609 887.985 437.078 888.111 436.547C888.212 436.547 888.288 436.572 888.389 436.572C888.49 437.255 888.54 437.964 888.717 438.647C889.096 440.14 890.081 440.494 891.344 439.609C892.961 438.47 893.87 436.825 894.477 434.978C895.891 436.268 896.927 436.192 898.089 434.598C898.442 434.092 898.72 433.51 899.023 432.979C900.034 433.51 900.968 434.067 901.979 434.497C902.787 434.826 903.646 435.104 904.505 435.231C906.248 435.458 906.829 434.952 907.258 433.029C908.395 433.333 909.532 433.712 910.694 433.94C911.982 434.193 912.361 433.94 913.093 432.801C913.22 432.599 913.599 432.447 913.851 432.447C915.291 432.397 916.756 432.397 918.196 432.371C919.838 432.371 920.04 432.118 919.712 430.549C918.802 425.893 918.019 421.212 917.969 416.454C917.943 413.848 918.828 412.76 921.354 412.253C926.38 411.267 931.407 411.545 936.434 412.152C938.177 412.355 939.945 412.557 941.688 412.835C942.37 412.937 943.027 413.19 943.659 413.468C945.351 414.202 946.185 415.543 946.033 417.39C945.654 421.869 945.225 426.323 944.77 430.802C944.618 432.371 945.275 433.004 946.892 433.004C950.1 433.004 953.333 432.979 956.541 433.156C958.638 433.282 960.608 434.041 961.745 435.99C963.336 438.824 963.033 441.709 961.897 444.771ZM942.724 423.59C942.774 423.59 942.8 423.59 942.85 423.59C942.85 421.768 942.926 419.921 942.825 418.099C942.724 415.897 942.32 415.442 940.375 415.062C935.247 414.05 930.068 414.075 924.915 414.632C922.162 414.936 921.354 416.024 921.455 418.808C921.455 418.934 921.455 419.061 921.48 419.187C921.733 421.996 921.96 424.78 922.238 427.589C922.516 430.321 923.602 431.536 926.305 432.042C927.441 432.27 928.629 432.346 929.791 432.397C932.165 432.498 934.514 432.574 936.889 432.548C938.228 432.548 939.592 432.397 940.93 432.194C942.118 432.017 942.749 431.258 942.749 430.043C942.724 427.867 942.724 425.741 942.724 423.59ZM924.89 435.357C924.89 435.383 924.89 435.408 924.89 435.433C924.385 435.433 923.88 435.433 923.374 435.433C922.212 435.433 921.758 435.838 921.657 436.952C921.505 438.318 921.859 438.849 923.071 439.052C924.006 439.204 924.941 439.356 925.875 439.406C926.785 439.431 927.694 439.431 928.578 439.254C929.462 439.077 929.841 438.267 929.816 437.179C929.791 436.268 929.235 435.889 928.452 435.787C927.239 435.585 926.052 435.484 924.89 435.357Z" fill="url(#paint5_linear_1_521)" />
    <path d="M906.955 454.488C902.307 454.185 897.634 453.881 892.986 453.577C892.077 453.527 891.774 453.122 891.748 451.831C891.723 449.503 891.95 447.226 893.011 445.1C893.315 444.518 893.618 443.911 893.946 443.354C897.028 438.394 901.752 437.027 907.839 438.875C913.826 440.697 917.413 446.061 916.908 452.034C916.756 453.754 916.68 453.83 914.988 454.033C913.902 454.159 912.79 454.311 911.704 454.362C910.138 454.412 908.547 454.387 906.98 454.387C906.955 454.412 906.955 454.438 906.955 454.488ZM904.859 441.532C907.233 441.608 909.456 442.24 911.3 443.961C911.654 444.29 911.805 445.024 912.563 444.644C912.336 444.214 912.184 443.683 911.856 443.354C909.153 440.773 905.894 440.216 902.358 440.924C899.705 441.456 897.533 442.772 896.295 445.302C896.169 445.581 896.27 445.96 896.27 446.289C896.523 446.087 896.826 445.935 897.028 445.682C897.71 444.897 898.24 443.961 899.023 443.328C900.665 441.962 902.686 441.582 904.859 441.532Z" fill="url(#paint6_linear_1_521)" />
    <path d="M937.924 454.21C938.682 450.465 939.213 446.77 942.017 443.936C947.069 438.799 956.769 439.609 960.431 445.884C961.619 447.934 962.654 450.009 962.579 452.438C962.553 453.931 962.427 454.058 960.987 454.058C953.51 454.134 946.033 454.184 938.581 454.26C938.404 454.26 938.253 454.235 937.924 454.21ZM950.049 442.949C949.62 442.974 949.216 442.974 948.812 443.025C946.892 443.278 945.225 444.012 944.037 445.606C943.911 445.783 943.962 446.087 943.936 446.34C944.189 446.264 944.467 446.264 944.644 446.112C945.073 445.783 945.402 445.353 945.831 445.049C948.786 442.999 953.586 443.607 956.087 446.264C956.339 446.517 956.794 446.568 957.148 446.719C957.021 446.365 956.996 445.935 956.743 445.682C954.95 443.784 952.626 443.025 950.049 442.949Z" fill="url(#paint7_linear_1_521)" />
    <path d="M873.915 386.417C874.849 385.632 875.759 384.797 876.744 384.088C877.552 383.506 877.704 382.848 877.375 381.963C876.946 380.849 876.567 379.736 876.163 378.622C876.264 378.547 876.34 378.496 876.441 378.42C877.123 379.23 877.83 379.989 878.436 380.824C879.244 381.912 879.8 382.089 880.962 381.406C881.821 380.9 882.629 380.318 883.463 379.787C883.539 379.837 883.589 379.888 883.665 379.938C883.539 380.394 883.412 380.875 883.236 381.33C883.059 381.76 882.806 382.165 882.604 382.595C881.947 383.987 882.225 384.544 883.716 385.05C884.726 385.379 885.736 385.759 886.747 386.138C887.025 386.239 887.303 386.417 887.58 386.796C886.368 387.074 885.181 387.353 883.968 387.606C883.438 387.707 882.907 387.783 882.377 387.859C881.493 387.985 880.937 388.466 880.583 389.301C880.078 390.44 879.472 391.528 878.916 392.642C878.79 392.616 878.689 392.591 878.562 392.591C878.537 391.604 878.487 390.643 878.461 389.656C878.461 389.428 878.512 389.225 878.537 388.998C878.765 387.049 878.461 386.695 876.516 386.644C875.683 386.619 874.824 386.644 873.99 386.644C873.99 386.543 873.965 386.492 873.915 386.417Z" fill="#FFD882" />
    <path d="M904 419.263C904 420.882 902.863 421.996 901.246 421.996C899.705 421.971 898.367 420.452 898.367 418.706C898.367 417.036 899.756 415.847 901.701 415.821C902.787 415.821 904.025 417.669 904 419.263Z" fill="url(#paint8_linear_1_521)" />
    <path d="M893.037 415.619C893.037 417.213 892.127 418.2 890.687 418.225C889.071 418.225 887.58 416.859 887.555 415.29C887.53 413.848 888.869 412.456 890.283 412.456C891.774 412.456 893.011 413.898 893.037 415.619Z" fill="#74CCD8" />
    <path d="M892.885 403.725C892.885 405.32 891.647 406.661 890.182 406.686C888.717 406.711 887.479 405.345 887.505 403.725C887.53 402.182 888.793 400.917 890.334 400.891C891.723 400.866 892.885 402.157 892.885 403.725Z" fill="url(#paint9_linear_1_521)" />
    <path d="M964.156 443.475C964.867 437.588 963.616 436.185 962.583 434.171C964.49 433.498 966.374 433.751 967.233 436.805C967.443 438.23 967.734 440.925 967.066 442.382C967.05 443.408 965.54 444.4 964.156 443.475Z" fill="#FFD882" />
    <path d="M901.272 455.956C901.499 455.956 901.701 455.931 901.903 455.931C903.343 455.931 904.783 455.931 906.248 455.931C905.97 457.095 905.162 457.727 904.025 457.803C902.838 457.904 901.752 457.196 901.272 455.956Z" fill="#E4E7EE" />
    <path d="M948.003 456.032C949.873 456.032 951.641 456.032 953.46 456.032C952.171 457.753 949.216 457.753 948.003 456.032Z" fill="#E4E7EE" />
    <path d="M942.724 423.59C942.724 425.741 942.724 427.892 942.724 430.043C942.724 431.258 942.092 432.042 940.905 432.194C939.566 432.396 938.228 432.548 936.864 432.548C934.489 432.574 932.14 432.472 929.765 432.396C928.603 432.346 927.441 432.27 926.279 432.042C923.577 431.536 922.49 430.296 922.212 427.588C921.935 424.78 921.707 421.996 921.455 419.187C921.455 419.061 921.455 418.934 921.429 418.807C921.328 416.024 922.137 414.91 924.89 414.632C930.043 414.075 935.222 414.05 940.349 415.062C942.294 415.442 942.699 415.897 942.8 418.099C942.901 419.921 942.825 421.768 942.825 423.59C942.8 423.59 942.749 423.59 942.724 423.59ZM941.89 423.843C941.916 423.843 941.916 423.843 941.941 423.843C941.941 422.983 941.941 422.148 941.941 421.287C941.941 420.402 942.017 419.516 941.966 418.63C941.815 415.999 941.789 416.049 939.364 415.72C936.56 415.366 933.706 415.189 930.877 415.138C928.805 415.088 926.709 415.265 924.663 415.543C922.692 415.796 922.111 416.758 922.314 418.732C922.516 420.807 922.692 422.882 922.894 424.957C923.021 426.146 923.147 427.335 923.349 428.525C923.577 429.917 924.435 430.777 925.825 431.055C926.835 431.258 927.871 431.435 928.906 431.485C930.725 431.561 932.569 431.561 934.388 431.561C936.308 431.561 938.228 431.587 940.147 431.485C941.562 431.41 941.84 431.106 941.89 429.664C941.916 427.715 941.89 425.766 941.89 423.843Z" fill="#928C97" />
    <path d="M924.89 435.357C926.077 435.484 927.265 435.585 928.452 435.737C929.235 435.838 929.791 436.243 929.816 437.129C929.841 438.217 929.462 439.026 928.578 439.204C927.694 439.381 926.785 439.406 925.875 439.355C924.941 439.33 924.006 439.153 923.071 439.001C921.859 438.799 921.505 438.267 921.657 436.901C921.758 435.787 922.238 435.382 923.374 435.382C923.88 435.382 924.385 435.382 924.89 435.382C924.865 435.408 924.865 435.382 924.89 435.357ZM925.446 436.369C925.446 436.369 925.446 436.395 925.446 436.369C924.764 436.344 924.056 436.243 923.374 436.293C923.097 436.319 922.642 436.622 922.591 436.85C922.541 437.204 922.692 437.66 922.894 437.964C923.046 438.166 923.45 438.267 923.753 438.293C925.092 438.369 926.456 438.394 927.82 438.47C928.578 438.52 928.805 438.115 928.881 437.458C928.982 436.673 928.427 436.547 927.896 436.496C927.088 436.395 926.254 436.395 925.446 436.369Z" fill="url(#paint10_linear_1_521)" />
    <path d="M904.859 441.532C902.711 441.608 900.665 441.987 899.023 443.303C898.24 443.936 897.71 444.872 897.028 445.656C896.826 445.91 896.523 446.061 896.27 446.264C896.27 445.935 896.169 445.53 896.295 445.277C897.533 442.746 899.68 441.43 902.358 440.899C905.894 440.216 909.153 440.773 911.856 443.328C912.184 443.657 912.336 444.189 912.563 444.619C911.83 444.999 911.654 444.265 911.3 443.936C909.431 442.24 907.208 441.608 904.859 441.532Z" fill="#928C97" />
    <path d="M950.049 442.949C952.626 442.999 954.925 443.784 956.743 445.707C956.971 445.96 957.021 446.39 957.148 446.745C956.794 446.593 956.314 446.542 956.087 446.289C953.586 443.607 948.786 443.025 945.831 445.075C945.402 445.378 945.048 445.808 944.644 446.137C944.467 446.289 944.164 446.289 943.936 446.365C943.962 446.112 943.911 445.808 944.037 445.631C945.225 444.037 946.892 443.303 948.812 443.05C949.216 442.974 949.645 442.974 950.049 442.949Z" fill="#928C97" />
    <path d="M941.89 423.843C941.89 425.766 941.941 427.715 941.865 429.638C941.84 431.055 941.537 431.384 940.122 431.46C938.202 431.561 936.283 431.536 934.363 431.536C932.544 431.536 930.7 431.561 928.881 431.46C927.846 431.41 926.81 431.232 925.799 431.03C924.41 430.777 923.577 429.891 923.324 428.499C923.122 427.31 922.996 426.121 922.869 424.931C922.667 422.856 922.49 420.781 922.288 418.706C922.086 416.732 922.667 415.796 924.637 415.518C926.684 415.239 928.78 415.062 930.852 415.113C933.681 415.163 936.535 415.341 939.339 415.695C941.789 416.024 941.789 415.948 941.941 418.605C941.991 419.491 941.941 420.376 941.916 421.262C941.916 422.122 941.916 422.958 941.916 423.818C941.916 423.843 941.89 423.843 941.89 423.843Z" fill="#F4F5F9" />
    <path d="M925.446 436.369C926.254 436.395 927.088 436.42 927.896 436.496C928.427 436.547 928.982 436.673 928.881 437.458C928.805 438.116 928.553 438.52 927.82 438.47C926.481 438.394 925.117 438.369 923.753 438.293C923.45 438.267 923.046 438.166 922.894 437.964C922.667 437.66 922.516 437.205 922.591 436.85C922.617 436.622 923.071 436.319 923.374 436.294C924.056 436.243 924.739 436.344 925.446 436.369C925.446 436.395 925.446 436.369 925.446 436.369Z" fill="#F4F5F9" />
    <mask id="mask0_1_521" style="mask-type:alpha" maskUnits="userSpaceOnUse" x="871" y="376" width="98" height="88">
      <path d="M871.818 386.67C872.652 384.898 874.167 383.734 875.708 382.646C875.253 381.381 874.824 380.166 874.42 378.951C874.142 378.142 874.369 377.433 875.001 376.902C875.632 376.37 876.39 376.522 876.946 376.927C878.057 377.762 879.093 378.724 880.23 379.66C880.937 379.255 881.821 378.724 882.73 378.268C883.463 377.914 884.271 377.712 884.953 378.319C885.635 378.926 885.585 379.736 885.358 380.52C885.105 381.457 884.751 382.368 884.448 383.228C885.635 383.734 886.873 384.19 888.06 384.772C888.894 385.202 889.854 385.759 889.778 386.847C889.677 388.011 888.566 388.264 887.656 388.593C886.999 388.821 886.343 388.947 885.661 389.327C888.035 389.757 890.384 390.238 892.759 390.643C895.058 391.047 895.537 392.262 894.047 394.135C893.668 394.616 893.188 395.071 892.633 395.678C894.426 395.982 896.093 396.235 897.76 396.539C898.569 396.691 899.377 396.842 900.135 397.146C901.499 397.652 901.802 398.563 901.069 399.828C900.817 400.259 900.514 400.664 900.185 401.043C899.882 401.397 899.554 401.726 899.124 402.182C899.806 402.41 900.438 402.561 901.019 402.789C902.56 403.422 904.151 403.979 905.616 404.763C906.197 405.067 906.879 405.826 906.905 406.408C906.93 406.889 906.046 407.42 905.541 407.901C905.414 408.027 905.212 408.078 904.859 408.28C906.248 408.559 907.435 408.787 908.622 409.065C909.759 409.343 910.896 409.647 911.957 410.102C913.169 410.634 913.27 411.444 912.336 412.405C912.007 412.734 911.628 413.038 911.249 413.316C910.871 413.595 910.466 413.848 909.986 414.151C910.845 414.404 911.603 414.581 912.336 414.835C912.816 415.012 913.27 415.239 913.674 415.518C914.963 416.353 915.089 417.264 914.104 418.428C914.003 418.554 913.902 418.656 913.75 418.858C914.559 419.061 915.316 419.263 916.2 419.491C916.175 419.035 916.125 418.656 916.15 418.276C916.2 417.061 916.15 415.796 916.403 414.607C916.883 412.38 918.297 411.064 920.571 410.634C924.814 409.824 929.109 409.748 933.378 410.128C936.283 410.406 939.213 410.76 942.092 411.216C943.128 411.368 944.138 411.874 945.048 412.405C947.018 413.519 947.978 415.214 947.776 417.517C947.448 421.186 947.094 424.881 946.74 428.55C946.665 429.41 946.564 430.296 946.488 431.207C947.498 431.207 948.458 431.232 949.393 431.207C952.298 431.106 955.253 430.828 958.032 431.739C960.179 432.422 962.225 432.877 964.498 432.7C966.469 432.548 967.782 433.788 968.262 435.762C968.49 436.673 968.641 437.609 968.818 438.546C968.818 439.609 968.818 440.697 968.818 441.785C968.742 442.114 968.641 442.443 968.565 442.772C967.984 445.15 966.62 445.935 964.296 445.302C964.119 445.252 963.943 445.226 963.741 445.176C963.21 446.061 962.882 446.821 963.387 447.909C964.195 449.705 964.675 451.603 964.322 453.628C964.044 455.121 963.311 455.855 961.796 455.981C961.24 456.032 961.063 456.234 960.911 456.715C960.457 458.284 959.623 459.625 958.411 460.663C955.228 463.421 951.489 464.18 947.422 463.32C943.482 462.485 940.728 460.232 939.566 456.158C931.028 456.26 922.49 456.361 914.053 456.462C913.371 457.525 912.79 458.891 911.83 459.853C908.774 462.965 904.934 463.649 900.817 462.687C897.558 461.928 895.159 460.03 894.325 456.664C894.072 455.602 893.618 455.424 892.683 455.424C892.127 455.424 891.294 455.323 891.041 454.969C890.031 453.577 889.071 452.109 888.338 450.566C887.075 447.909 886.621 445.024 886.242 442.139C886.115 441.253 886.014 440.368 885.888 439.533C884.903 440.089 884.069 440.671 883.16 441.051C882.756 441.228 881.998 441.177 881.72 440.899C881.417 440.621 881.341 439.912 881.467 439.457C881.973 437.66 882.604 435.914 883.16 434.143C883.362 433.51 883.514 432.852 883.741 431.992C882.831 432.624 882.175 433.156 881.442 433.561C880.811 433.915 880.103 434.244 879.421 433.687C878.765 433.156 878.739 432.422 879.017 431.688C879.8 429.537 880.634 427.386 881.392 425.21C881.695 424.324 881.922 423.438 882.225 422.426C881.543 422.629 881.063 422.831 880.583 422.882C879.775 422.932 878.916 423.034 878.158 422.831C876.845 422.477 876.592 421.667 877.35 420.528C877.906 419.693 878.562 418.909 879.143 418.099C880.103 416.758 880.861 415.315 881.114 413.595C880.659 413.822 880.28 414.05 879.876 414.202C878.891 414.556 877.83 415.012 876.946 414.101C876.112 413.215 876.744 412.253 877.123 411.368C877.299 410.938 877.552 410.533 877.779 410.128C878.386 409.141 879.042 408.154 879.598 407.142C879.977 406.433 880.23 405.674 880.583 404.814C880.255 404.814 880.129 404.788 880.002 404.814C878.158 405.117 877.476 404.257 878.057 402.41C878.436 401.22 878.967 400.056 879.472 398.917C880.28 397.095 880.71 395.198 880.912 393.047C880.381 393.705 880.028 394.261 879.573 394.717C878.79 395.501 878.032 395.375 877.527 394.388C877.249 393.856 877.022 393.274 876.971 392.692C876.819 391.326 876.769 389.959 876.668 388.568C872.879 388.517 872.879 388.517 871.818 387.606C871.818 387.302 871.818 386.973 871.818 386.67ZM961.897 444.771C963.033 441.709 963.336 438.824 961.694 436.015C960.558 434.092 958.587 433.307 956.491 433.181C953.283 432.979 950.075 433.004 946.841 433.029C945.225 433.029 944.568 432.397 944.719 430.828C945.149 426.349 945.604 421.895 945.983 417.416C946.134 415.568 945.3 414.227 943.608 413.493C942.977 413.215 942.32 412.962 941.638 412.861C939.895 412.582 938.127 412.405 936.384 412.177C931.357 411.57 926.33 411.292 921.303 412.279C918.777 412.76 917.893 413.848 917.918 416.479C917.943 421.237 918.752 425.918 919.661 430.575C919.964 432.143 919.787 432.397 918.146 432.397C916.706 432.397 915.241 432.422 913.801 432.472C913.548 432.472 913.169 432.624 913.043 432.827C912.31 433.965 911.931 434.218 910.643 433.965C909.481 433.738 908.344 433.383 907.208 433.054C906.778 434.978 906.223 435.484 904.454 435.256C903.596 435.155 902.737 434.876 901.928 434.522C900.918 434.092 899.983 433.535 898.973 433.004C898.67 433.561 898.417 434.143 898.038 434.623C896.876 436.192 895.841 436.294 894.426 435.003C893.794 436.825 892.91 438.495 891.294 439.634C890.031 440.52 889.071 440.165 888.667 438.672C888.49 437.989 888.439 437.28 888.338 436.597C888.237 436.597 888.161 436.572 888.06 436.572C887.934 437.103 887.681 437.609 887.707 438.141C887.808 439.938 887.833 441.76 888.161 443.506C888.54 445.555 889.197 447.529 889.728 449.554C889.829 449.554 889.93 449.528 890.031 449.528C890.384 445.252 891.95 441.582 895.462 439.027C898.998 436.445 902.939 435.813 907.157 436.749C911.098 437.635 914.306 439.786 916.327 443.253C918.322 446.669 919.636 450.363 918.272 454.362C924.233 454.362 930.195 454.362 936.131 454.362C936.232 453.678 936.283 453.172 936.384 452.691C936.939 449.604 937.621 446.542 939.566 443.961C944.77 437.103 956.693 437.053 961.442 444.341C961.568 444.417 961.694 444.518 961.897 444.771ZM906.955 454.488C906.955 454.463 906.955 454.412 906.955 454.387C908.521 454.387 910.113 454.438 911.679 454.362C912.79 454.311 913.877 454.159 914.963 454.033C916.68 453.83 916.731 453.754 916.883 452.034C917.388 446.061 913.801 440.671 907.814 438.875C901.726 437.027 897.003 438.394 893.921 443.354C893.567 443.91 893.264 444.518 892.986 445.1C891.95 447.225 891.723 449.528 891.723 451.831C891.723 453.096 892.052 453.501 892.961 453.577C897.634 453.881 902.307 454.184 906.955 454.488ZM937.924 454.21C938.253 454.235 938.404 454.26 938.581 454.26C946.058 454.21 953.535 454.134 960.987 454.058C962.452 454.033 962.553 453.906 962.579 452.438C962.629 450.009 961.593 447.934 960.431 445.884C956.769 439.583 947.069 438.773 942.017 443.936C939.213 446.77 938.682 450.465 937.924 454.21ZM873.915 386.417C873.965 386.467 873.99 386.543 874.041 386.594C874.874 386.594 875.733 386.568 876.567 386.594C878.512 386.644 878.815 386.999 878.588 388.947C878.562 389.175 878.487 389.377 878.512 389.605C878.537 390.592 878.562 391.554 878.613 392.54C878.739 392.566 878.84 392.591 878.967 392.591C879.522 391.478 880.129 390.39 880.634 389.251C880.987 388.416 881.543 387.935 882.427 387.808C882.958 387.732 883.488 387.682 884.019 387.555C885.231 387.302 886.444 387.024 887.631 386.746C887.328 386.366 887.075 386.189 886.797 386.088C885.787 385.708 884.802 385.328 883.766 384.999C882.276 384.519 881.998 383.937 882.655 382.545C882.857 382.115 883.109 381.71 883.286 381.28C883.463 380.824 883.564 380.343 883.716 379.888C883.64 379.837 883.589 379.787 883.514 379.736C882.68 380.267 881.872 380.849 881.013 381.355C879.851 382.064 879.27 381.862 878.487 380.773C877.88 379.938 877.148 379.154 876.491 378.369C876.39 378.445 876.314 378.496 876.213 378.572C876.617 379.685 876.996 380.824 877.426 381.912C877.779 382.798 877.603 383.456 876.794 384.038C875.759 384.822 874.849 385.632 873.915 386.417ZM904 419.263C904 417.669 902.762 415.821 901.726 415.821C899.756 415.847 898.392 417.011 898.392 418.706C898.392 420.452 899.705 421.996 901.272 421.996C902.863 422.021 904 420.883 904 419.263ZM893.037 415.619C893.011 413.898 891.774 412.481 890.283 412.456C888.843 412.456 887.505 413.822 887.555 415.29C887.58 416.859 889.071 418.225 890.687 418.225C892.127 418.2 893.037 417.188 893.037 415.619ZM892.885 403.725C892.885 402.157 891.723 400.866 890.334 400.891C888.768 400.917 887.505 402.182 887.505 403.725C887.479 405.345 888.742 406.712 890.182 406.686C891.622 406.686 892.86 405.32 892.885 403.725ZM964.271 443.253C965.837 443.961 966.822 443.632 966.848 442.266C966.898 440.317 966.873 438.343 966.544 436.445C966.191 434.345 965.004 433.864 962.856 434.573C964.473 437.255 965.054 440.115 964.271 443.253ZM901.272 455.956C901.752 457.196 902.812 457.879 904.05 457.803C905.187 457.727 905.995 457.095 906.273 455.931C904.783 455.931 903.343 455.931 901.928 455.931C901.701 455.931 901.499 455.956 901.272 455.956ZM948.003 456.032C949.216 457.753 952.171 457.753 953.46 456.032C951.641 456.032 949.873 456.032 948.003 456.032ZM912.487 430.575C914.205 430.575 915.973 430.575 917.817 430.575C917.691 430.018 917.615 429.613 917.565 429.41C915.796 429.815 914.129 430.195 912.487 430.575ZM916.706 422.932C915.948 423.287 915.266 423.59 914.483 423.944C915.316 424.476 916.074 424.957 916.984 425.564C916.883 424.602 916.781 423.793 916.706 422.932Z" fill="#090F24" />
    </mask>
    <g mask="url(#mask0_1_521)">
      <path d="M887.903 437.487C887.701 438.053 884.183 441.207 883.9 441.45L875.647 444.607L869.622 441.005L863.973 420.868L878.079 398.173C878.874 396.764 880.506 393.845 880.679 393.434C880.852 393.022 882.015 390.573 882.574 389.399L888.955 389.246L903.835 382.389L914.915 416.258C915.063 417.053 915.408 418.676 915.602 418.805C915.845 418.967 916.37 419.938 917.098 420.868C917.681 421.612 916.856 422.822 916.37 423.334C916.263 423.793 916.168 424.782 916.653 425.073C917.26 425.437 918.756 426.529 919.12 428.187C919.411 429.513 914.928 430.195 912.65 430.37L914.066 433.403L913.257 434.616L907.717 434.252L906.868 435.546H903.835H897.648C896.84 436.045 895.182 437.131 895.02 437.487C894.818 437.932 890.046 441.692 888.955 441.005C887.863 440.317 888.105 436.921 887.903 437.487Z" fill="#448867" />
    </g>
  </g>
  <defs>
    <filter id="filter4_d_1_521" x="867.818" y="374.56" width="105" height="95.0956" filterUnits="userSpaceOnUse" color-interpolation-filters="sRGB">
      <feFlood flood-opacity="0" result="BackgroundImageFix" />
      <feColorMatrix in="SourceAlpha" type="matrix" values="0 0 0 0 0 0 0 0 0 0 0 0 0 0 0 0 0 0 127 0" result="hardAlpha" />
      <feOffset dy="2" />
      <feGaussianBlur stdDeviation="2" />
      <feComposite in2="hardAlpha" operator="out" />
      <feColorMatrix type="matrix" values="0 0 0 0 0.167755 0 0 0 0 0.352341 0 0 0 0 0.3875 0 0 0 0.06 0" />
      <feBlend mode="normal" in2="BackgroundImageFix" result="effect1_dropShadow_1_521" />
      <feBlend mode="normal" in="SourceGraphic" in2="effect1_dropShadow_1_521" result="shape" />
    </filter>
    <linearGradient id="paint5_linear_1_521" x1="925.3" y1="411.603" x2="925.3" y2="454.336" gradientUnits="userSpaceOnUse">
      <stop stop-color="#ED9BC1" />
      <stop offset="1" stop-color="#ED9BB9" />
    </linearGradient>
    <linearGradient id="paint6_linear_1_521" x1="904.351" y1="438.087" x2="904.351" y2="454.488" gradientUnits="userSpaceOnUse">
      <stop stop-color="#ED9BC1" />
      <stop offset="1" stop-color="#ED9BB9" />
    </linearGradient>
    <linearGradient id="paint7_linear_1_521" x1="950.253" y1="440.568" x2="950.253" y2="454.26" gradientUnits="userSpaceOnUse">
      <stop stop-color="#ED9BC1" />
      <stop offset="1" stop-color="#ED9BB9" />
    </linearGradient>
    <linearGradient id="paint8_linear_1_521" x1="901.183" y1="415.821" x2="901.183" y2="421.996" gradientUnits="userSpaceOnUse">
      <stop stop-color="#ED9BC1" />
      <stop offset="1" stop-color="#ED9BB9" />
    </linearGradient>
    <linearGradient id="paint9_linear_1_521" x1="890.195" y1="400.891" x2="890.195" y2="406.687" gradientUnits="userSpaceOnUse">
      <stop stop-color="#ED9BC1" />
      <stop offset="1" stop-color="#ED9BB9" />
    </linearGradient>
    <linearGradient id="paint10_linear_1_521" x1="925.72" y1="435.357" x2="925.72" y2="439.378" gradientUnits="userSpaceOnUse">
      <stop stop-color="#ED9BC1" />
      <stop offset="1" stop-color="#ED9BB9" />
    </linearGradient>
  </defs>
</svg>