<?xml version='1.0' encoding='utf-8'?>
<svg xmlns="http://www.w3.org/2000/svg" width="71" height="71" viewBox="1031 20 71 71" fill="none">
  <circle cx="1066.5" cy="55.5" r="35" fill="white" stroke="#74CCD8" />
  <path d="M1072.5 32.1597H1060.5C1055.54 32.1597 1051.5 36.1961 1051.5 41.1573V48.1554C1051.5 52.9491 1055.27 56.879 1060 57.1396V61.3105C1060 61.7787 1060.38 62.1597 1060.85 62.1597C1061.08 62.1597 1061.29 62.0707 1061.45 61.9102L1062.39 60.9725C1064.85 58.5097 1068.13 57.1531 1071.61 57.1531H1072.5C1077.46 57.1531 1081.5 53.1166 1081.5 48.1554V41.1573C1081.5 36.1961 1077.46 32.1597 1072.5 32.1597ZM1060 46.6558C1058.9 46.6558 1058 45.759 1058 44.6563C1058 43.5536 1058.9 42.6569 1060 42.6569C1061.1 42.6569 1062 43.5536 1062 44.6563C1062 45.759 1061.1 46.6558 1060 46.6558ZM1066.5 46.6558C1065.4 46.6558 1064.5 45.759 1064.5 44.6563C1064.5 43.5536 1065.4 42.6569 1066.5 42.6569C1067.6 42.6569 1068.5 43.5536 1068.5 44.6563C1068.5 45.759 1067.6 46.6558 1066.5 46.6558ZM1073 46.6558C1071.9 46.6558 1071 45.759 1071 44.6563C1071 43.5536 1071.9 42.6569 1073 42.6569C1074.1 42.6569 1075 43.5536 1075 44.6563C1075 45.759 1074.1 46.6558 1073 46.6558Z" fill="#74CCD8" />
</svg>