<?xml version='1.0' encoding='utf-8'?>
<svg xmlns="http://www.w3.org/2000/svg" width="28.22" height="26.22" viewBox="1158.75 72 28.22 26.22" fill="none">
  <path d="M1186.97 76.5793C1186.78 77.3511 1186.56 78.1155 1186.37 78.8873C1185.52 82.2832 1184.67 85.6864 1183.82 89.0822C1183.81 89.1557 1183.78 89.2219 1183.75 89.3027C1178.87 89.3027 1174 89.3027 1169.08 89.3027C1169.3 90.1774 1169.5 91.0227 1169.72 91.9048C1169.83 91.9048 1169.94 91.9048 1170.05 91.9048C1173.65 91.9048 1177.25 91.9048 1180.85 91.9048C1182.38 91.9048 1183.59 92.875 1183.91 94.3304C1184.27 95.9842 1183.14 97.6454 1181.45 97.9468C1179.8 98.2408 1178.18 97.0794 1177.93 95.433C1177.84 94.867 1177.92 94.323 1178.12 93.7644C1175.88 93.7644 1173.66 93.7644 1171.4 93.7644C1171.79 94.8817 1171.68 95.9328 1170.93 96.8736C1170.46 97.4617 1169.83 97.8218 1169.09 97.9541C1167.6 98.2187 1166.14 97.3146 1165.67 95.8593C1165.26 94.6318 1165.7 92.6472 1167.83 91.9709C1166.33 85.9436 1164.82 79.9163 1163.31 73.8743C1161.78 73.8743 1160.26 73.8743 1158.75 73.8743C1158.75 73.2496 1158.75 72.6248 1158.75 72C1158.86 72.0074 1158.97 72.0221 1159.08 72.0221C1160.89 72.0221 1162.7 72.0294 1164.5 72.0147C1164.7 72.0147 1164.78 72.0735 1164.82 72.2573C1164.92 72.713 1165.04 73.1687 1165.15 73.6171C1165.39 74.5579 1165.62 75.4988 1165.86 76.4543C1172.91 76.4543 1179.94 76.4543 1186.97 76.4543C1186.97 76.5058 1186.97 76.5425 1186.97 76.5793ZM1166.36 78.3066C1166.36 78.3728 1166.35 78.4022 1166.36 78.4242C1166.64 79.5562 1166.92 80.6808 1167.2 81.8054C1167.22 81.8715 1167.36 81.9524 1167.44 81.9524C1168.02 81.9671 1168.59 81.9597 1169.17 81.9597C1169.44 81.9597 1169.7 81.9597 1169.98 81.9597C1169.83 80.7616 1169.69 79.5929 1169.54 78.4316C1169.53 78.3801 1169.43 78.3066 1169.38 78.3066C1168.38 78.3066 1167.38 78.3066 1166.36 78.3066ZM1176.43 78.3213C1176.43 79.5415 1176.43 80.7396 1176.43 81.9524C1177.34 81.9524 1178.23 81.9524 1179.15 81.9524C1179.3 80.7396 1179.45 79.5415 1179.6 78.3213C1178.53 78.3213 1177.49 78.3213 1176.43 78.3213ZM1171.42 78.3287C1171.41 78.3654 1171.4 78.3801 1171.4 78.3948C1171.54 79.5341 1171.68 80.6734 1171.83 81.8127C1171.83 81.8715 1171.96 81.9671 1172.05 81.9671C1172.59 81.9818 1173.13 81.9744 1173.67 81.9744C1173.96 81.9744 1174.25 81.9744 1174.55 81.9744C1174.55 80.7396 1174.55 79.5415 1174.55 78.3287C1173.5 78.3287 1172.46 78.3287 1171.42 78.3287ZM1181 81.9671C1181.9 81.9671 1182.73 81.9744 1183.58 81.9597C1183.64 81.9597 1183.73 81.8274 1183.75 81.7466C1183.9 81.188 1184.03 80.6293 1184.17 80.0707C1184.31 79.4974 1184.46 78.924 1184.61 78.3287C1183.54 78.3287 1182.51 78.3287 1181.45 78.3287C1181.31 79.5268 1181.15 80.7249 1181 81.9671ZM1170.67 87.4578C1170.52 86.2156 1170.36 85.0175 1170.22 83.8194C1169.37 83.8194 1168.55 83.8194 1167.7 83.8194C1168 85.0028 1168.28 86.1641 1168.58 87.3329C1168.6 87.3917 1168.69 87.4578 1168.76 87.4578C1169.38 87.4652 1170 87.4578 1170.67 87.4578ZM1176.41 83.8194C1176.41 85.0028 1176.41 86.1568 1176.42 87.3108C1176.42 87.3623 1176.53 87.4505 1176.59 87.4505C1177.15 87.4578 1177.73 87.4578 1178.29 87.4505C1178.35 87.4505 1178.46 87.3623 1178.47 87.3035C1178.62 86.1494 1178.76 84.9954 1178.91 83.8194C1178.08 83.8194 1177.26 83.8194 1176.41 83.8194ZM1172.08 83.812C1172.23 85.0469 1172.38 86.245 1172.53 87.4358C1173.23 87.4358 1173.9 87.4358 1174.55 87.4358C1174.55 86.2156 1174.55 85.0175 1174.55 83.812C1173.73 83.812 1172.92 83.812 1172.08 83.812ZM1180.77 83.812C1180.62 85.0322 1180.47 86.2303 1180.31 87.4578C1180.93 87.4578 1181.52 87.4505 1182.1 87.4652C1182.29 87.4725 1182.35 87.3917 1182.39 87.2226C1182.62 86.245 1182.87 85.2674 1183.12 84.2898C1183.15 84.1354 1183.19 83.9811 1183.23 83.812C1182.4 83.812 1181.6 83.812 1180.77 83.812ZM1169.78 94.9552C1169.78 94.2863 1169.25 93.7497 1168.58 93.7497C1167.91 93.7497 1167.37 94.301 1167.38 94.9625C1167.39 95.6167 1167.91 96.1459 1168.57 96.1533C1169.24 96.1533 1169.77 95.6241 1169.78 94.9552ZM1182.13 94.9625C1182.13 94.2936 1181.6 93.7497 1180.93 93.7497C1180.26 93.7497 1179.73 94.2863 1179.73 94.9552C1179.73 95.6167 1180.26 96.1459 1180.91 96.1533C1181.59 96.1533 1182.12 95.6314 1182.13 94.9625Z" fill="#B7B8C5" />
</svg>