<?xml version='1.0' encoding='utf-8'?>
<svg xmlns="http://www.w3.org/2000/svg" width="20" height="20" viewBox="982.652 98.8135 20 20" fill="none">
  <path d="M997.277 98.8135H988.027C985.027 98.8135 982.652 101.188 982.652 104.188V113.313C982.652 116.438 985.027 118.813 988.027 118.813H997.152C1000.15 118.813 1002.53 116.438 1002.53 113.438V104.188C1002.65 101.188 1000.28 98.8135 997.277 98.8135ZM992.652 114.313C989.652 114.313 987.152 111.813 987.152 108.813C987.152 105.813 989.652 103.313 992.652 103.313C995.652 103.313 998.152 105.813 998.152 108.813C998.152 111.813 995.652 114.313 992.652 114.313ZM998.277 104.688C997.402 104.688 996.652 103.938 996.652 103.063C996.652 102.188 997.402 101.438 998.277 101.438C999.152 101.438 999.902 102.188 999.902 103.063C999.902 103.938 999.152 104.688 998.277 104.688Z" fill="#74CCD8" />
  <path d="M992.652 104.563C990.277 104.563 988.402 106.438 988.402 108.813C988.402 111.188 990.277 113.063 992.652 113.063C995.027 113.063 996.902 111.188 996.902 108.813C996.902 106.438 995.027 104.563 992.652 104.563Z" fill="#74CCD8" />
  <path d="M998.277 102.563C998.027 102.563 997.777 102.813 997.777 103.063C997.777 103.313 998.027 103.563 998.277 103.563C998.527 103.563 998.777 103.313 998.777 103.063C998.652 102.813 998.527 102.563 998.277 102.563Z" fill="#74CCD8" />
</svg>