<svg width="123" height="123" viewBox="0 0 123 123" fill="none" xmlns="http://www.w3.org/2000/svg">
<g filter="url(#filter0_d_1_863)">
<circle cx="61.5" cy="55.5" r="35" fill="white" stroke="#74CCD8"/>
<path d="M67.5 32.1597H55.5C50.5375 32.1597 46.5 36.1961 46.5 41.1573V48.1554C46.5 52.9491 50.269 56.879 55 57.1396V61.3105C55 61.7787 55.382 62.1597 55.8515 62.1597C56.076 62.1597 56.2885 62.0707 56.449 61.9102L57.387 60.9725C59.85 58.5097 63.1255 57.1531 66.6095 57.1531H67.5C72.4624 57.1531 76.5 53.1166 76.5 48.1554V41.1573C76.5 36.1961 72.4624 32.1597 67.5 32.1597ZM55 46.6558C53.897 46.6558 53 45.759 53 44.6563C53 43.5536 53.897 42.6569 55 42.6569C56.103 42.6569 57 43.5536 57 44.6563C57 45.759 56.1025 46.6558 55 46.6558ZM61.5 46.6558C60.397 46.6558 59.5 45.759 59.5 44.6563C59.5 43.5536 60.397 42.6569 61.5 42.6569C62.603 42.6569 63.5 43.5536 63.5 44.6563C63.5 45.759 62.6025 46.6558 61.5 46.6558ZM67.9999 46.6558C66.897 46.6558 66 45.759 66 44.6563C66 43.5536 66.897 42.6569 67.9999 42.6569C69.1031 42.6569 70.0001 43.5536 70.0001 44.6563C70.0001 45.759 69.1024 46.6558 67.9999 46.6558Z" fill="#74CCD8"/>
<path d="M53.7137 69.1003C53.2897 69.1003 52.9097 69.1803 52.5737 69.3403C52.2377 69.4923 51.9497 69.7203 51.7097 70.0243C51.4777 70.3203 51.2977 70.6843 51.1697 71.1163C51.0497 71.5403 50.9897 72.0203 50.9897 72.5563C50.9897 73.2603 51.0897 73.8723 51.2897 74.3923C51.4897 74.9123 51.7897 75.3123 52.1897 75.5923C52.5977 75.8723 53.1017 76.0123 53.7017 76.0123C54.0537 76.0123 54.3857 75.9803 54.6977 75.9163C55.0177 75.8523 55.3337 75.7723 55.6457 75.6763V76.6123C55.3417 76.7323 55.0297 76.8203 54.7097 76.8763C54.3897 76.9323 54.0057 76.9603 53.5577 76.9603C52.7337 76.9603 52.0457 76.7803 51.4937 76.4203C50.9497 76.0603 50.5417 75.5483 50.2697 74.8843C49.9977 74.2203 49.8617 73.4403 49.8617 72.5443C49.8617 71.8963 49.9457 71.3043 50.1137 70.7683C50.2817 70.2323 50.5297 69.7683 50.8577 69.3763C51.1857 68.9843 51.5897 68.6843 52.0697 68.4763C52.5497 68.2603 53.1017 68.1523 53.7257 68.1523C54.1337 68.1523 54.5297 68.1963 54.9137 68.2843C55.2977 68.3723 55.6457 68.4963 55.9577 68.6563L55.5377 69.5683C55.2897 69.4483 55.0097 69.3403 54.6977 69.2443C54.3937 69.1483 54.0657 69.1003 53.7137 69.1003ZM58.2947 70.3963C58.2947 70.5483 58.2867 70.7043 58.2707 70.8643C58.2627 71.0243 58.2507 71.1683 58.2347 71.2963H58.3067C58.4347 71.0723 58.5947 70.8883 58.7867 70.7443C58.9867 70.6003 59.2027 70.4923 59.4347 70.4203C59.6747 70.3403 59.9227 70.3003 60.1787 70.3003C60.6667 70.3003 61.0747 70.3843 61.4027 70.5523C61.7307 70.7123 61.9787 70.9643 62.1467 71.3083C62.3147 71.6523 62.3987 72.1003 62.3987 72.6523V76.8403H61.3547V72.7243C61.3547 72.2043 61.2467 71.8163 61.0307 71.5603C60.8147 71.3043 60.4827 71.1763 60.0347 71.1763C59.5947 71.1763 59.2467 71.2683 58.9907 71.4523C58.7347 71.6283 58.5547 71.8923 58.4507 72.2443C58.3467 72.5883 58.2947 73.0123 58.2947 73.5163V76.8403H57.2507V67.7203H58.2947V70.3963ZM66.5745 70.3003C67.3105 70.3003 67.8585 70.4723 68.2185 70.8163C68.5865 71.1603 68.7705 71.7083 68.7705 72.4603V76.8403H68.0145L67.8105 75.9283H67.7625C67.5865 76.1603 67.4065 76.3563 67.2225 76.5163C67.0465 76.6683 66.8385 76.7803 66.5985 76.8523C66.3665 76.9243 66.0785 76.9603 65.7345 76.9603C65.3745 76.9603 65.0505 76.8923 64.7625 76.7563C64.4745 76.6203 64.2465 76.4123 64.0785 76.1323C63.9105 75.8443 63.8265 75.4843 63.8265 75.0523C63.8265 74.4123 64.0625 73.9203 64.5345 73.5763C65.0065 73.2243 65.7345 73.0323 66.7185 73.0003L67.7385 72.9643V72.5803C67.7385 72.0443 67.6305 71.6723 67.4145 71.4643C67.2065 71.2563 66.9065 71.1523 66.5145 71.1523C66.2025 71.1523 65.9025 71.2043 65.6145 71.3083C65.3345 71.4043 65.0665 71.5163 64.8105 71.6443L64.4865 70.8523C64.7585 70.7003 65.0745 70.5723 65.4345 70.4683C65.7945 70.3563 66.1745 70.3003 66.5745 70.3003ZM66.8625 73.7323C66.1265 73.7643 65.6145 73.8923 65.3265 74.1163C65.0465 74.3403 64.9065 74.6563 64.9065 75.0643C64.9065 75.4243 65.0065 75.6883 65.2065 75.8563C65.4065 76.0243 65.6665 76.1083 65.9865 76.1083C66.4825 76.1083 66.8985 75.9603 67.2345 75.6643C67.5705 75.3603 67.7385 74.8963 67.7385 74.2723V73.6963L66.8625 73.7323ZM72.7095 76.0963C72.8615 76.0963 73.0175 76.0843 73.1775 76.0603C73.3375 76.0283 73.4695 75.9963 73.5735 75.9643V76.7683C73.4615 76.8243 73.3015 76.8683 73.0935 76.9003C72.8935 76.9403 72.7015 76.9603 72.5175 76.9603C72.1975 76.9603 71.9015 76.9043 71.6295 76.7923C71.3575 76.6723 71.1375 76.4683 70.9695 76.1803C70.8095 75.8923 70.7295 75.4883 70.7295 74.9683V71.2243H69.8775V70.7203L70.7535 70.3003L71.1495 68.9323H71.7735V70.4083H73.5255V71.2243H71.7735V74.9443C71.7735 75.3363 71.8615 75.6283 72.0375 75.8203C72.2135 76.0043 72.4375 76.0963 72.7095 76.0963Z" fill="#090F24"/>
</g>
<defs>
<filter id="filter0_d_1_863" x="0" y="0" width="123" height="123" filterUnits="userSpaceOnUse" color-interpolation-filters="sRGB">
<feFlood flood-opacity="0" result="BackgroundImageFix"/>
<feColorMatrix in="SourceAlpha" type="matrix" values="0 0 0 0 0 0 0 0 0 0 0 0 0 0 0 0 0 0 127 0" result="hardAlpha"/>
<feOffset dy="6"/>
<feGaussianBlur stdDeviation="13"/>
<feComposite in2="hardAlpha" operator="out"/>
<feColorMatrix type="matrix" values="0 0 0 0 0.413453 0 0 0 0 0.472629 0 0 0 0 0.5875 0 0 0 0.05 0"/>
<feBlend mode="normal" in2="BackgroundImageFix" result="effect1_dropShadow_1_863"/>
<feBlend mode="normal" in="SourceGraphic" in2="effect1_dropShadow_1_863" result="shape"/>
</filter>
</defs>
</svg>
