<svg width="1128" height="123" viewBox="0 0 1128 123" fill="none" xmlns="http://www.w3.org/2000/svg">
<g filter="url(#filter0_d_1_859)">
<circle cx="51" cy="55.5" r="24.5" fill="white" stroke="#74CCD8"/>
<path d="M58 59C56.5526 57.0633 52.7303 53.5264 51 52L44 59" stroke="#74CCD8" stroke-width="2" stroke-linecap="round"/>
</g>
<g filter="url(#filter1_d_1_859)">
<circle cx="1066.5" cy="55.5" r="35" fill="white" stroke="#74CCD8"/>
<path d="M1072.5 32.1597H1060.5C1055.54 32.1597 1051.5 36.1961 1051.5 41.1573V48.1554C1051.5 52.9491 1055.27 56.879 1060 57.1396V61.3105C1060 61.7787 1060.38 62.1597 1060.85 62.1597C1061.08 62.1597 1061.29 62.0707 1061.45 61.9102L1062.39 60.9725C1064.85 58.5097 1068.13 57.1531 1071.61 57.1531H1072.5C1077.46 57.1531 1081.5 53.1166 1081.5 48.1554V41.1573C1081.5 36.1961 1077.46 32.1597 1072.5 32.1597ZM1060 46.6558C1058.9 46.6558 1058 45.759 1058 44.6563C1058 43.5536 1058.9 42.6569 1060 42.6569C1061.1 42.6569 1062 43.5536 1062 44.6563C1062 45.759 1061.1 46.6558 1060 46.6558ZM1066.5 46.6558C1065.4 46.6558 1064.5 45.759 1064.5 44.6563C1064.5 43.5536 1065.4 42.6569 1066.5 42.6569C1067.6 42.6569 1068.5 43.5536 1068.5 44.6563C1068.5 45.759 1067.6 46.6558 1066.5 46.6558ZM1073 46.6558C1071.9 46.6558 1071 45.759 1071 44.6563C1071 43.5536 1071.9 42.6569 1073 42.6569C1074.1 42.6569 1075 43.5536 1075 44.6563C1075 45.759 1074.1 46.6558 1073 46.6558Z" fill="#74CCD8"/>
<path d="M1058.71 69.1003C1058.29 69.1003 1057.91 69.1803 1057.57 69.3403C1057.24 69.4923 1056.95 69.7203 1056.71 70.0243C1056.48 70.3203 1056.3 70.6843 1056.17 71.1163C1056.05 71.5403 1055.99 72.0203 1055.99 72.5563C1055.99 73.2603 1056.09 73.8723 1056.29 74.3923C1056.49 74.9123 1056.79 75.3123 1057.19 75.5923C1057.6 75.8723 1058.1 76.0123 1058.7 76.0123C1059.05 76.0123 1059.39 75.9803 1059.7 75.9163C1060.02 75.8523 1060.33 75.7723 1060.65 75.6763V76.6123C1060.34 76.7323 1060.03 76.8203 1059.71 76.8763C1059.39 76.9323 1059.01 76.9603 1058.56 76.9603C1057.73 76.9603 1057.05 76.7803 1056.49 76.4203C1055.95 76.0603 1055.54 75.5483 1055.27 74.8843C1055 74.2203 1054.86 73.4403 1054.86 72.5443C1054.86 71.8963 1054.95 71.3043 1055.11 70.7683C1055.28 70.2323 1055.53 69.7683 1055.86 69.3763C1056.19 68.9843 1056.59 68.6843 1057.07 68.4763C1057.55 68.2603 1058.1 68.1523 1058.73 68.1523C1059.13 68.1523 1059.53 68.1963 1059.91 68.2843C1060.3 68.3723 1060.65 68.4963 1060.96 68.6563L1060.54 69.5683C1060.29 69.4483 1060.01 69.3403 1059.7 69.2443C1059.39 69.1483 1059.07 69.1003 1058.71 69.1003ZM1063.29 70.3963C1063.29 70.5483 1063.29 70.7043 1063.27 70.8643C1063.26 71.0243 1063.25 71.1683 1063.23 71.2963H1063.31C1063.43 71.0723 1063.59 70.8883 1063.79 70.7443C1063.99 70.6003 1064.2 70.4923 1064.43 70.4203C1064.67 70.3403 1064.92 70.3003 1065.18 70.3003C1065.67 70.3003 1066.07 70.3843 1066.4 70.5523C1066.73 70.7123 1066.98 70.9643 1067.15 71.3083C1067.31 71.6523 1067.4 72.1003 1067.4 72.6523V76.8403H1066.35V72.7243C1066.35 72.2043 1066.25 71.8163 1066.03 71.5603C1065.81 71.3043 1065.48 71.1763 1065.03 71.1763C1064.59 71.1763 1064.25 71.2683 1063.99 71.4523C1063.73 71.6283 1063.55 71.8923 1063.45 72.2443C1063.35 72.5883 1063.29 73.0123 1063.29 73.5163V76.8403H1062.25V67.7203H1063.29V70.3963ZM1071.57 70.3003C1072.31 70.3003 1072.86 70.4723 1073.22 70.8163C1073.59 71.1603 1073.77 71.7083 1073.77 72.4603V76.8403H1073.01L1072.81 75.9283H1072.76C1072.59 76.1603 1072.41 76.3563 1072.22 76.5163C1072.05 76.6683 1071.84 76.7803 1071.6 76.8523C1071.37 76.9243 1071.08 76.9603 1070.73 76.9603C1070.37 76.9603 1070.05 76.8923 1069.76 76.7563C1069.47 76.6203 1069.25 76.4123 1069.08 76.1323C1068.91 75.8443 1068.83 75.4843 1068.83 75.0523C1068.83 74.4123 1069.06 73.9203 1069.53 73.5763C1070.01 73.2243 1070.73 73.0323 1071.72 73.0003L1072.74 72.9643V72.5803C1072.74 72.0443 1072.63 71.6723 1072.41 71.4643C1072.21 71.2563 1071.91 71.1523 1071.51 71.1523C1071.2 71.1523 1070.9 71.2043 1070.61 71.3083C1070.33 71.4043 1070.07 71.5163 1069.81 71.6443L1069.49 70.8523C1069.76 70.7003 1070.07 70.5723 1070.43 70.4683C1070.79 70.3563 1071.17 70.3003 1071.57 70.3003ZM1071.86 73.7323C1071.13 73.7643 1070.61 73.8923 1070.33 74.1163C1070.05 74.3403 1069.91 74.6563 1069.91 75.0643C1069.91 75.4243 1070.01 75.6883 1070.21 75.8563C1070.41 76.0243 1070.67 76.1083 1070.99 76.1083C1071.48 76.1083 1071.9 75.9603 1072.23 75.6643C1072.57 75.3603 1072.74 74.8963 1072.74 74.2723V73.6963L1071.86 73.7323ZM1077.71 76.0963C1077.86 76.0963 1078.02 76.0843 1078.18 76.0603C1078.34 76.0283 1078.47 75.9963 1078.57 75.9643V76.7683C1078.46 76.8243 1078.3 76.8683 1078.09 76.9003C1077.89 76.9403 1077.7 76.9603 1077.52 76.9603C1077.2 76.9603 1076.9 76.9043 1076.63 76.7923C1076.36 76.6723 1076.14 76.4683 1075.97 76.1803C1075.81 75.8923 1075.73 75.4883 1075.73 74.9683V71.2243H1074.88V70.7203L1075.75 70.3003L1076.15 68.9323H1076.77V70.4083H1078.53V71.2243H1076.77V74.9443C1076.77 75.3363 1076.86 75.6283 1077.04 75.8203C1077.21 76.0043 1077.44 76.0963 1077.71 76.0963Z" fill="#090F24"/>
</g>
<defs>
<filter id="filter0_d_1_859" x="0" y="10.5" width="102" height="102" filterUnits="userSpaceOnUse" color-interpolation-filters="sRGB">
<feFlood flood-opacity="0" result="BackgroundImageFix"/>
<feColorMatrix in="SourceAlpha" type="matrix" values="0 0 0 0 0 0 0 0 0 0 0 0 0 0 0 0 0 0 127 0" result="hardAlpha"/>
<feOffset dy="6"/>
<feGaussianBlur stdDeviation="13"/>
<feComposite in2="hardAlpha" operator="out"/>
<feColorMatrix type="matrix" values="0 0 0 0 0.413453 0 0 0 0 0.472629 0 0 0 0 0.5875 0 0 0 0.05 0"/>
<feBlend mode="normal" in2="BackgroundImageFix" result="effect1_dropShadow_1_859"/>
<feBlend mode="normal" in="SourceGraphic" in2="effect1_dropShadow_1_859" result="shape"/>
</filter>
<filter id="filter1_d_1_859" x="1005" y="0" width="123" height="123" filterUnits="userSpaceOnUse" color-interpolation-filters="sRGB">
<feFlood flood-opacity="0" result="BackgroundImageFix"/>
<feColorMatrix in="SourceAlpha" type="matrix" values="0 0 0 0 0 0 0 0 0 0 0 0 0 0 0 0 0 0 127 0" result="hardAlpha"/>
<feOffset dy="6"/>
<feGaussianBlur stdDeviation="13"/>
<feComposite in2="hardAlpha" operator="out"/>
<feColorMatrix type="matrix" values="0 0 0 0 0.413453 0 0 0 0 0.472629 0 0 0 0 0.5875 0 0 0 0.05 0"/>
<feBlend mode="normal" in2="BackgroundImageFix" result="effect1_dropShadow_1_859"/>
<feBlend mode="normal" in="SourceGraphic" in2="effect1_dropShadow_1_859" result="shape"/>
</filter>
</defs>
</svg>
