<svg width="171" height="50" viewBox="0 0 171 50" fill="none" xmlns="http://www.w3.org/2000/svg">
<path d="M54.4354 15.7077L27.9191 48.7944L1.16816 15.7077L11.4931 0.924316H43.9931L54.4354 15.7077Z" fill="white"/>
<path d="M0 15.4409C3.36203 10.547 6.73761 5.66664 10.0861 0.759168C10.4521 0.230462 10.8724 0 11.5231 0C22.3548 0.0135566 33.1729 0.0135566 44.0046 0C44.6553 0 45.0756 0.216905 45.4416 0.745611C48.6545 5.46329 51.8945 10.1539 55.1345 14.858C55.6768 15.6443 55.6633 15.8883 55.0668 16.6339C46.2957 27.5198 37.5381 38.3922 28.7806 49.2781C28.0079 50.2406 27.5334 50.2406 26.7607 49.2781C17.9896 38.3922 9.21846 27.4927 0.447367 16.6068C0.284688 16.417 0.149122 16.2001 0.0135566 15.9967C0 15.807 0 15.6307 0 15.4409ZM18.8301 16.6746C21.799 26.3811 24.7407 36.0333 27.6961 45.6856C27.7367 45.6856 27.7774 45.6856 27.8316 45.6856C30.787 36.0333 33.7287 26.3811 36.6976 16.6746C30.7056 16.6746 24.8221 16.6746 18.8301 16.6746ZM2.87399 16.6746C10.3979 26.015 17.854 35.2606 25.2965 44.5198C25.3237 44.5062 25.3643 44.4791 25.3914 44.4655C22.5581 35.2064 19.7384 25.9473 16.905 16.6746C12.2551 16.6746 7.63235 16.6746 2.87399 16.6746ZM30.1362 44.452C30.1634 44.4655 30.204 44.4926 30.2311 44.5062C37.6872 35.2471 45.1434 26.0015 52.6537 16.6746C47.8953 16.6746 43.2726 16.6746 38.6227 16.6746C35.7893 25.9473 32.9696 35.2064 30.1362 44.452ZM19.3723 14.7631C25.0119 14.7631 30.5429 14.7631 36.1554 14.7631C33.3491 10.6826 30.5836 6.65627 27.7638 2.56219C24.9441 6.65627 22.1785 10.6826 19.3723 14.7631ZM10.9266 2.81977C8.16105 6.84606 5.44974 10.7775 2.71131 14.7767C7.23921 14.7767 11.6586 14.7767 16.1594 14.7767C14.4106 10.791 12.6889 6.84606 10.9266 2.81977ZM39.3683 14.7767C43.8826 14.7767 48.302 14.7767 52.8164 14.7767C50.0644 10.7775 47.3531 6.83251 44.6011 2.83332C42.8387 6.85962 41.1171 10.791 39.3683 14.7767ZM17.7591 13.8413C20.5246 9.81495 23.236 5.88355 25.9744 1.89792C21.4465 1.89792 17.027 1.89792 12.5398 1.89792C14.2751 5.86999 15.9967 9.8014 17.7591 13.8413ZM37.7686 13.8413C39.5309 9.8014 41.2526 5.86999 43.0014 1.89792C38.5006 1.89792 34.0812 1.89792 29.5669 1.89792C32.2917 5.88355 35.003 9.81495 37.7686 13.8413Z" fill="#74CCD8"/>
<path d="M79.2582 6.148V7.822H74.0922V19H72.0942V6.148H79.2582ZM87.546 19L86.34 15.292H81.75L80.544 19H78.456L82.974 6.094H85.134L89.634 19H87.546ZM84.63 9.982C84.594 9.838 84.534 9.64 84.45 9.388C84.378 9.124 84.306 8.854 84.234 8.578C84.162 8.29 84.096 8.05 84.036 7.858C83.988 8.122 83.928 8.386 83.856 8.65C83.784 8.914 83.718 9.16 83.658 9.388C83.598 9.616 83.544 9.814 83.496 9.982L82.308 13.6H85.818L84.63 9.982ZM94.6932 6.148C96.2652 6.148 97.4112 6.49 98.1312 7.174C98.8632 7.846 99.2292 8.788 99.2292 10C99.2292 10.54 99.1452 11.056 98.9772 11.548C98.8212 12.04 98.5572 12.484 98.1852 12.88C97.8252 13.264 97.3392 13.57 96.7272 13.798C96.1152 14.014 95.3652 14.122 94.4772 14.122H93.2172V19H91.2192V6.148H94.6932ZM94.5852 7.786H93.2172V12.484H94.2612C94.9092 12.484 95.4492 12.406 95.8812 12.25C96.3132 12.082 96.6372 11.824 96.8532 11.476C97.0812 11.116 97.1952 10.648 97.1952 10.072C97.1952 9.304 96.9852 8.734 96.5652 8.362C96.1452 7.978 95.4852 7.786 94.5852 7.786ZM108.288 19L107.082 15.292H102.492L101.286 19H99.1982L103.716 6.094H105.876L110.376 19H108.288ZM105.372 9.982C105.336 9.838 105.276 9.64 105.192 9.388C105.12 9.124 105.048 8.854 104.976 8.578C104.904 8.29 104.838 8.05 104.778 7.858C104.73 8.122 104.67 8.386 104.598 8.65C104.526 8.914 104.46 9.16 104.4 9.388C104.34 9.616 104.286 9.814 104.238 9.982L103.05 13.6H106.56L105.372 9.982ZM121.501 19H119.503V13.132H113.959V19H111.961V6.148H113.959V11.476H119.503V6.148H121.501V19ZM128.865 19H126.885V7.822H123.321V6.148H132.411V7.822H128.865V19ZM134.251 6.148H136.087V12.952C136.087 13.252 136.081 13.582 136.069 13.942C136.069 14.302 136.063 14.656 136.051 15.004C136.039 15.352 136.027 15.664 136.015 15.94C136.003 16.204 135.985 16.402 135.961 16.534H136.033L142.225 6.148H144.493V19H142.657V12.25C142.657 11.926 142.663 11.578 142.675 11.206C142.687 10.822 142.699 10.45 142.711 10.09C142.723 9.73 142.735 9.418 142.747 9.154C142.771 8.878 142.783 8.68 142.783 8.56H142.729L136.537 19H134.251V6.148ZM151.497 13.78L148.545 19H146.259L149.643 13.366C149.259 13.222 148.887 13.012 148.527 12.736C148.179 12.448 147.891 12.07 147.663 11.602C147.435 11.122 147.321 10.51 147.321 9.766C147.321 8.602 147.705 7.708 148.473 7.084C149.253 6.46 150.399 6.148 151.911 6.148H155.493V19H153.513V13.78H151.497ZM151.965 7.786C151.389 7.786 150.903 7.858 150.507 8.002C150.123 8.146 149.835 8.374 149.643 8.686C149.451 8.986 149.355 9.382 149.355 9.874C149.355 10.606 149.577 11.176 150.021 11.584C150.465 11.98 151.137 12.178 152.037 12.178H153.513V7.786H151.965ZM81.3822 44H79.0602L74.0922 37.484V44H72.0942V31.148H74.0922V37.376L78.9522 31.148H81.1482L76.2882 37.376L81.3822 44ZM90.4464 44L89.2404 40.292H84.6504L83.4444 44H81.3564L85.8744 31.094H88.0344L92.5344 44H90.4464ZM87.5304 34.982C87.4944 34.838 87.4344 34.64 87.3504 34.388C87.2784 34.124 87.2064 33.854 87.1344 33.578C87.0624 33.29 86.9964 33.05 86.9364 32.858C86.8884 33.122 86.8284 33.386 86.7564 33.65C86.6844 33.914 86.6184 34.16 86.5584 34.388C86.4984 34.616 86.4444 34.814 86.3964 34.982L85.2084 38.6H88.7184L87.5304 34.982ZM102.204 44H100.206V38.816C99.5219 39.068 98.8919 39.266 98.3159 39.41C97.7399 39.554 97.1279 39.626 96.4799 39.626C95.3519 39.626 94.4699 39.344 93.8339 38.78C93.2099 38.216 92.8979 37.4 92.8979 36.332V31.148H94.8779V35.936C94.8779 36.608 95.0339 37.112 95.3459 37.448C95.6579 37.784 96.1739 37.952 96.8939 37.952C97.4699 37.952 98.0099 37.892 98.5139 37.772C99.0179 37.64 99.5819 37.46 100.206 37.232V31.148H102.204V44ZM112.192 44H105.334V31.148H112.192V32.804H107.332V36.476H111.904V38.114H107.332V42.326H112.192V44ZM119.941 32.642C119.365 32.642 118.843 32.756 118.375 32.984C117.919 33.2 117.529 33.524 117.205 33.956C116.893 34.388 116.653 34.91 116.485 35.522C116.317 36.134 116.233 36.824 116.233 37.592C116.233 38.6 116.371 39.476 116.647 40.22C116.923 40.952 117.337 41.516 117.889 41.912C118.441 42.308 119.125 42.506 119.941 42.506C120.469 42.506 120.973 42.458 121.453 42.362C121.933 42.254 122.419 42.116 122.911 41.948V43.622C122.431 43.814 121.939 43.952 121.435 44.036C120.943 44.132 120.367 44.18 119.707 44.18C118.459 44.18 117.427 43.91 116.611 43.37C115.795 42.83 115.183 42.062 114.775 41.066C114.367 40.07 114.163 38.906 114.163 37.574C114.163 36.602 114.289 35.714 114.541 34.91C114.793 34.094 115.165 33.392 115.657 32.804C116.149 32.216 116.755 31.766 117.475 31.454C118.195 31.13 119.017 30.968 119.941 30.968C120.565 30.968 121.177 31.04 121.777 31.184C122.377 31.316 122.911 31.508 123.379 31.76L122.677 33.38C122.281 33.188 121.849 33.02 121.381 32.876C120.925 32.72 120.445 32.642 119.941 32.642ZM129.691 44H127.711V32.822H124.147V31.148H133.237V32.822H129.691V44ZM138.695 31.148C139.727 31.148 140.591 31.25 141.287 31.454C141.983 31.658 142.505 32 142.853 32.48C143.201 32.948 143.375 33.572 143.375 34.352C143.375 34.856 143.291 35.306 143.123 35.702C142.955 36.086 142.709 36.41 142.385 36.674C142.061 36.926 141.677 37.094 141.233 37.178V37.268C141.689 37.352 142.109 37.508 142.493 37.736C142.877 37.952 143.177 38.27 143.393 38.69C143.621 39.11 143.735 39.656 143.735 40.328C143.735 41.108 143.561 41.774 143.213 42.326C142.865 42.866 142.367 43.28 141.719 43.568C141.083 43.856 140.321 44 139.433 44H135.059V31.148H138.695ZM138.947 36.512C139.859 36.512 140.483 36.35 140.819 36.026C141.155 35.702 141.323 35.222 141.323 34.586C141.323 33.938 141.119 33.476 140.711 33.2C140.303 32.924 139.655 32.786 138.767 32.786H137.057V36.512H138.947ZM137.057 38.096V42.38H139.145C140.081 42.38 140.735 42.176 141.107 41.768C141.479 41.36 141.665 40.82 141.665 40.148C141.665 39.74 141.581 39.38 141.413 39.068C141.245 38.756 140.969 38.516 140.585 38.348C140.213 38.18 139.703 38.096 139.055 38.096H137.057ZM153.728 44L152.522 40.292H147.932L146.726 44H144.638L149.156 31.094H151.316L155.816 44H153.728ZM150.812 34.982C150.776 34.838 150.716 34.64 150.632 34.388C150.56 34.124 150.488 33.854 150.416 33.578C150.344 33.29 150.278 33.05 150.218 32.858C150.17 33.122 150.11 33.386 150.038 33.65C149.966 33.914 149.9 34.16 149.84 34.388C149.78 34.616 149.726 34.814 149.678 34.982L148.49 38.6H152L150.812 34.982Z" fill="#090F24"/>
</svg>
