<svg width="173" height="51" viewBox="0 0 173 51" fill="none" xmlns="http://www.w3.org/2000/svg">
<path d="M78.5109 19V6.148H85.9089V7.822H80.5089V11.44H82.0569C83.2209 11.44 84.1389 11.602 84.8109 11.926C85.4949 12.25 85.9809 12.694 86.2689 13.258C86.5569 13.81 86.7009 14.446 86.7009 15.166C86.7009 15.958 86.5449 16.642 86.2329 17.218C85.9209 17.794 85.4229 18.238 84.7389 18.55C84.0669 18.85 83.1969 19 82.1289 19H78.5109ZM82.0209 17.362C82.9689 17.362 83.6469 17.188 84.0549 16.84C84.4629 16.48 84.6669 15.922 84.6669 15.166C84.6669 14.638 84.5649 14.224 84.3609 13.924C84.1689 13.624 83.8629 13.408 83.4429 13.276C83.0229 13.144 82.4829 13.078 81.8229 13.078H80.5089V17.362H82.0209ZM89.093 19V6.148H91.091V11.44H92.621C93.749 11.44 94.643 11.602 95.303 11.926C95.963 12.25 96.443 12.694 96.743 13.258C97.043 13.822 97.193 14.458 97.193 15.166C97.193 15.946 97.031 16.624 96.707 17.2C96.383 17.776 95.885 18.22 95.213 18.532C94.553 18.844 93.707 19 92.675 19H89.093ZM92.585 17.38C93.449 17.38 94.091 17.2 94.511 16.84C94.943 16.48 95.159 15.922 95.159 15.166C95.159 14.638 95.057 14.224 94.853 13.924C94.649 13.624 94.343 13.414 93.935 13.294C93.539 13.162 93.035 13.096 92.423 13.096H91.091V17.38H92.585ZM98.831 19V6.148H100.811V19H98.831ZM109.166 7.642C108.59 7.642 108.068 7.756 107.6 7.984C107.144 8.2 106.754 8.524 106.43 8.956C106.118 9.388 105.878 9.91 105.71 10.522C105.542 11.134 105.458 11.824 105.458 12.592C105.458 13.6 105.596 14.476 105.872 15.22C106.148 15.952 106.562 16.516 107.114 16.912C107.666 17.308 108.35 17.506 109.166 17.506C109.694 17.506 110.198 17.458 110.678 17.362C111.158 17.254 111.644 17.116 112.136 16.948V18.622C111.656 18.814 111.164 18.952 110.66 19.036C110.168 19.132 109.592 19.18 108.932 19.18C107.684 19.18 106.652 18.91 105.836 18.37C105.02 17.83 104.408 17.062 104 16.066C103.592 15.07 103.388 13.906 103.388 12.574C103.388 11.602 103.514 10.714 103.766 9.91C104.018 9.094 104.39 8.392 104.882 7.804C105.374 7.216 105.98 6.766 106.7 6.454C107.42 6.13 108.242 5.968 109.166 5.968C109.79 5.968 110.402 6.04 111.002 6.184C111.602 6.316 112.136 6.508 112.604 6.76L111.902 8.38C111.506 8.188 111.074 8.02 110.606 7.876C110.15 7.72 109.67 7.642 109.166 7.642ZM118.916 19H116.936V7.822H113.372V6.148H122.462V7.822H118.916V19ZM127.758 6.148C129.33 6.148 130.476 6.49 131.196 7.174C131.928 7.846 132.294 8.788 132.294 10C132.294 10.54 132.21 11.056 132.042 11.548C131.886 12.04 131.622 12.484 131.25 12.88C130.89 13.264 130.404 13.57 129.792 13.798C129.18 14.014 128.43 14.122 127.542 14.122H126.282V19H124.284V6.148H127.758ZM127.65 7.786H126.282V12.484H127.326C127.974 12.484 128.514 12.406 128.946 12.25C129.378 12.082 129.702 11.824 129.918 11.476C130.146 11.116 130.26 10.648 130.26 10.072C130.26 9.304 130.05 8.734 129.63 8.362C129.21 7.978 128.55 7.786 127.65 7.786ZM141.353 19L140.147 15.292H135.557L134.351 19H132.263L136.781 6.094H138.941L143.441 19H141.353ZM138.437 9.982C138.401 9.838 138.341 9.64 138.257 9.388C138.185 9.124 138.113 8.854 138.041 8.578C137.969 8.29 137.903 8.05 137.843 7.858C137.795 8.122 137.735 8.386 137.663 8.65C137.591 8.914 137.525 9.16 137.465 9.388C137.405 9.616 137.351 9.814 137.303 9.982L136.115 13.6H139.625L138.437 9.982ZM148.897 13.78L145.945 19H143.659L147.043 13.366C146.659 13.222 146.287 13.012 145.927 12.736C145.579 12.448 145.291 12.07 145.063 11.602C144.835 11.122 144.721 10.51 144.721 9.766C144.721 8.602 145.105 7.708 145.873 7.084C146.653 6.46 147.799 6.148 149.311 6.148H152.893V19H150.913V13.78H148.897ZM149.365 7.786C148.789 7.786 148.303 7.858 147.907 8.002C147.523 8.146 147.235 8.374 147.043 8.686C146.851 8.986 146.755 9.382 146.755 9.874C146.755 10.606 146.977 11.176 147.421 11.584C147.865 11.98 148.537 12.178 149.437 12.178H150.913V7.786H149.365ZM87.2769 31.148V42.308H88.8429V47.492H86.9349V44H78.9609V47.492H77.0349V42.308H77.9889C78.3729 41.588 78.7329 40.796 79.0689 39.932C79.4169 39.056 79.7229 38.138 79.9869 37.178C80.2629 36.206 80.4849 35.216 80.6529 34.208C80.8329 33.188 80.9589 32.168 81.0309 31.148H87.2769ZM82.6869 32.84C82.6389 33.524 82.5369 34.28 82.3809 35.108C82.2249 35.924 82.0269 36.764 81.7869 37.628C81.5469 38.492 81.2829 39.332 80.9949 40.148C80.7189 40.952 80.4129 41.672 80.0769 42.308H85.2969V32.84H82.6869ZM101.509 37.556C101.509 38.552 101.389 39.458 101.149 40.274C100.921 41.078 100.567 41.774 100.087 42.362C99.6189 42.95 99.0309 43.4 98.3229 43.712C97.6149 44.024 96.7929 44.18 95.8569 44.18C94.8969 44.18 94.0569 44.024 93.3369 43.712C92.6289 43.388 92.0409 42.938 91.5729 42.362C91.1049 41.774 90.7569 41.072 90.5289 40.256C90.3009 39.44 90.1869 38.534 90.1869 37.538C90.1869 36.218 90.3909 35.066 90.7989 34.082C91.2189 33.098 91.8489 32.33 92.6889 31.778C93.5289 31.226 94.5909 30.95 95.8749 30.95C97.1229 30.95 98.1609 31.226 98.9889 31.778C99.8289 32.318 100.459 33.086 100.879 34.082C101.299 35.066 101.509 36.224 101.509 37.556ZM92.2929 37.556C92.2929 38.588 92.4129 39.476 92.6529 40.22C92.9049 40.952 93.2949 41.522 93.8229 41.93C94.3629 42.326 95.0409 42.524 95.8569 42.524C96.6849 42.524 97.3569 42.326 97.8729 41.93C98.4009 41.522 98.7849 40.952 99.0249 40.22C99.2769 39.476 99.4029 38.588 99.4029 37.556C99.4029 36.008 99.1209 34.802 98.5569 33.938C97.9929 33.062 97.0989 32.624 95.8749 32.624C95.0469 32.624 94.3629 32.822 93.8229 33.218C93.2949 33.614 92.9049 34.178 92.6529 34.91C92.4129 35.642 92.2929 36.524 92.2929 37.556ZM109.272 32.642C108.696 32.642 108.174 32.756 107.706 32.984C107.25 33.2 106.86 33.524 106.536 33.956C106.224 34.388 105.984 34.91 105.816 35.522C105.648 36.134 105.564 36.824 105.564 37.592C105.564 38.6 105.702 39.476 105.978 40.22C106.254 40.952 106.668 41.516 107.22 41.912C107.772 42.308 108.456 42.506 109.272 42.506C109.8 42.506 110.304 42.458 110.784 42.362C111.264 42.254 111.75 42.116 112.242 41.948V43.622C111.762 43.814 111.27 43.952 110.766 44.036C110.274 44.132 109.698 44.18 109.038 44.18C107.79 44.18 106.758 43.91 105.942 43.37C105.126 42.83 104.514 42.062 104.106 41.066C103.698 40.07 103.494 38.906 103.494 37.574C103.494 36.602 103.62 35.714 103.872 34.91C104.124 34.094 104.496 33.392 104.988 32.804C105.48 32.216 106.086 31.766 106.806 31.454C107.526 31.13 108.348 30.968 109.272 30.968C109.896 30.968 110.508 31.04 111.108 31.184C111.708 31.316 112.242 31.508 112.71 31.76L112.008 33.38C111.612 33.188 111.18 33.02 110.712 32.876C110.256 32.72 109.776 32.642 109.272 32.642ZM119.022 44H117.042V32.822H113.478V31.148H122.568V32.822H119.022V44ZM130.719 44L129.513 40.292H124.923L123.717 44H121.629L126.147 31.094H128.307L132.807 44H130.719ZM127.803 34.982C127.767 34.838 127.707 34.64 127.623 34.388C127.551 34.124 127.479 33.854 127.407 33.578C127.335 33.29 127.269 33.05 127.209 32.858C127.161 33.122 127.101 33.386 127.029 33.65C126.957 33.914 126.891 34.16 126.831 34.388C126.771 34.616 126.717 34.814 126.669 34.982L125.481 38.6H128.991L127.803 34.982ZM138.028 31.148C139.06 31.148 139.924 31.25 140.62 31.454C141.316 31.658 141.838 32 142.186 32.48C142.534 32.948 142.708 33.572 142.708 34.352C142.708 34.856 142.624 35.306 142.456 35.702C142.288 36.086 142.042 36.41 141.718 36.674C141.394 36.926 141.01 37.094 140.566 37.178V37.268C141.022 37.352 141.442 37.508 141.826 37.736C142.21 37.952 142.51 38.27 142.726 38.69C142.954 39.11 143.068 39.656 143.068 40.328C143.068 41.108 142.894 41.774 142.546 42.326C142.198 42.866 141.7 43.28 141.052 43.568C140.416 43.856 139.654 44 138.766 44H134.392V31.148H138.028ZM138.28 36.512C139.192 36.512 139.816 36.35 140.152 36.026C140.488 35.702 140.656 35.222 140.656 34.586C140.656 33.938 140.452 33.476 140.044 33.2C139.636 32.924 138.988 32.786 138.1 32.786H136.39V36.512H138.28ZM136.39 38.096V42.38H138.478C139.414 42.38 140.068 42.176 140.44 41.768C140.812 41.36 140.998 40.82 140.998 40.148C140.998 39.74 140.914 39.38 140.746 39.068C140.578 38.756 140.302 38.516 139.918 38.348C139.546 38.18 139.036 38.096 138.388 38.096H136.39ZM154.824 44H152.502L147.534 37.484V44H145.536V31.148H147.534V37.376L152.394 31.148H154.59L149.73 37.376L154.824 44ZM163.888 44L162.682 40.292H158.092L156.886 44H154.798L159.316 31.094H161.476L165.976 44H163.888ZM160.972 34.982C160.936 34.838 160.876 34.64 160.792 34.388C160.72 34.124 160.648 33.854 160.576 33.578C160.504 33.29 160.438 33.05 160.378 32.858C160.33 33.122 160.27 33.386 160.198 33.65C160.126 33.914 160.06 34.16 160 34.388C159.94 34.616 159.886 34.814 159.838 34.982L158.65 38.6H162.16L160.972 34.982Z" fill="#090F24"/>
<circle cx="49.0648" cy="43.5667" r="5.58351" fill="white"/>
<circle cx="11.7427" cy="43.5667" r="5.58351" fill="white"/>
<path d="M1.29663 29.7543V39.0328H4.30048C4.76775 37.542 6.91716 34.5604 11.7767 34.5604C16.6362 34.5604 19.0972 37.898 19.7202 39.5668H34.8061V29.7543H1.29663Z" fill="white"/>
<path d="M34.6058 25.8159H1.29661C1.16311 20.0975 0.896118 7.88635 0.896118 4.78906C0.896118 1.69178 3.38819 1.05096 4.63422 1.11771H31.068C33.7915 1.11771 34.5613 3.87679 34.6058 5.25633V25.8159Z" fill="white"/>
<path d="M38.0839 10.0792V18.7802H53.0197L48.9717 11.2425L46.7383 10.0792H38.0839Z" fill="white"/>
<path d="M37.9908 22.9213V39.5322H41.1083C42.2715 37.9192 45.5099 34.6931 49.1578 34.6931C52.8057 34.6931 55.765 37.9192 56.7886 39.5322H59.5338L60.8832 38.9738V25.5269L55.067 22.9213H37.9908Z" fill="white"/>
<path d="M35.5205 40.4616H18.8889L18.655 39.9469C17.4269 37.2335 14.6433 35.4206 11.7427 35.4206C8.84211 35.4206 6.05848 37.2452 4.83041 39.9469L4.59649 40.4616H2.09357C0.923977 40.4616 0 39.5142 0 38.3095V28.4031H35.5205V40.4616ZM20 38.7072H33.7661V30.1575H1.75439V38.3212C1.75439 38.3914 1.76608 38.7189 2.09357 38.7189H3.48538C5.11111 35.6311 8.2924 33.6779 11.7427 33.6779C15.193 33.6662 18.3743 35.6311 20 38.7072Z" fill="#74CCD8"/>
<path d="M11.7427 50.1574C8.10524 50.1574 5.14618 47.1983 5.14618 43.5726C5.14618 39.9351 8.10524 36.9761 11.7427 36.9761C15.3801 36.9761 18.3392 39.9351 18.3392 43.5726C18.3275 47.1983 15.3684 50.1574 11.7427 50.1574ZM11.7427 38.7305C9.07601 38.7305 6.90057 40.8942 6.90057 43.5726C6.90057 46.2392 9.06431 48.403 11.731 48.403C14.3976 48.403 16.5614 46.2275 16.5731 43.5609C16.5731 40.8942 14.4093 38.7305 11.7427 38.7305Z" fill="#74CCD8"/>
<path d="M59.8506 40.4615H56.0611L55.8272 39.9469C54.5991 37.2335 51.8155 35.4206 48.9149 35.4206C46.0143 35.4206 43.2307 37.2451 42.0026 39.9469L41.7687 40.4615H37.0319V21.8182H55.067L60.7044 24.2978C61.488 24.672 61.9675 25.4674 61.9442 26.3329V38.3212C61.9442 39.5258 61.0202 40.4615 59.8506 40.4615ZM57.1722 38.7071H59.8506C60.1664 38.7071 60.1898 38.3797 60.1898 38.3095V26.2744C60.1898 26.1106 60.1079 25.9469 59.9558 25.865L54.7044 23.5609H38.7979V38.7071H40.6693C42.295 35.6194 45.4763 33.6662 48.9266 33.6662C52.3652 33.6662 55.5465 35.6311 57.1722 38.7071Z" fill="#74CCD8"/>
<path d="M54.3769 19.8065H37.0319V8.9293H45.7687C47.5699 8.90591 49.219 9.88837 50.0611 11.4907L54.3769 19.8065ZM38.7862 18.0521H51.488L48.4939 12.2977C47.9792 11.3036 46.95 10.6837 45.8272 10.6837H45.7687H38.7746V18.0521H38.7862Z" fill="#74CCD8"/>
<path d="M35.5205 26.7539H0V4.99952C0 2.33285 2.12866 0.15741 4.73684 0.15741H30.7602C32.0468 0.169106 33.2398 0.672029 34.1404 1.58431C35.041 2.49659 35.5205 3.70127 35.5205 4.98782L34.6433 4.99952H35.5205V26.7539ZM1.75439 24.9995H33.7661V4.97612C33.7778 4.15741 33.462 3.39718 32.8889 2.81238C32.3158 2.23928 31.5556 1.9118 30.7486 1.9118H4.72515C3.05263 1.9118 1.74269 3.26852 1.74269 4.99952V24.9995H1.75439Z" fill="#74CCD8"/>
<path d="M48.9149 50.1574C45.2775 50.1574 42.3184 47.1984 42.3184 43.5726C42.3184 39.9352 45.2775 36.9761 48.9032 36.9761C52.5406 36.9761 55.4997 39.9352 55.4997 43.5609C55.4997 47.1984 52.5523 50.1574 48.9149 50.1574ZM48.9149 38.7305C46.2482 38.7305 44.0845 40.906 44.0845 43.5726C44.0845 46.2393 46.2599 48.403 48.9149 48.403V49.2802V48.403C51.5816 48.403 53.7453 46.2276 53.7453 43.5609C53.757 40.8943 51.5816 38.7305 48.9149 38.7305Z" fill="#74CCD8"/>
</svg>
