<svg width="196" height="50" viewBox="0 0 196 50" fill="none" xmlns="http://www.w3.org/2000/svg">
<circle cx="7.64254" cy="6.55505" r="5.22143" fill="white"/>
<circle cx="43.822" cy="24.3284" r="5.22143" fill="white"/>
<rect x="38.3403" y="1.46564" width="10.7031" height="10.7031" fill="white"/>
<rect x="25.6596" y="34.7416" width="10.7031" height="10.7031" transform="rotate(45 25.6596 34.7416)" fill="white"/>
<path d="M41.2994 39.9281L37.7724 42.1726L41.2994 44.5774L43.7042 48.5854L46.0289 44.5774L49.6361 42.1726L46.0289 39.9281L43.7042 35.7598L41.2994 39.9281Z" fill="white"/>
<rect x="3.37997" y="36.9583" width="8.02105" height="10.7031" fill="white"/>
<path d="M22.2218 18.7113L19.1785 24.2344L22.2218 30.4338H28.534L32.1409 24.2344L29.323 18.7113H22.2218Z" fill="white"/>
<path d="M25.588 0.970337L19.6562 12.1126H32.1612L25.588 0.970337Z" fill="white"/>
<path d="M7.63218 28.3049L3.62418 30.3891L4.26545 25.9803L1.05905 22.854L5.22738 21.9723L7.63218 18.4452L9.55602 21.9723L13.4037 22.854L10.5981 25.9803L11.7203 30.3891L7.63218 28.3049Z" fill="white"/>
<path d="M3.58488 31.6497C3.3957 31.6497 3.20652 31.5929 3.03626 31.4794C2.73357 31.2713 2.60115 30.9119 2.63898 30.5524L3.28219 26.4472L0.293165 23.5717C0.0283145 23.3258 -0.066275 22.9474 0.0472324 22.6069C0.16074 22.2664 0.444508 22.0015 0.803948 21.9448L4.90913 21.3016L6.68741 17.5937C6.83876 17.2721 7.16036 17.1018 7.5198 17.1018C7.5198 17.1018 7.5198 17.1018 7.53872 17.1018C7.89816 17.1018 8.21976 17.2531 8.39003 17.5748L10.2818 21.2637L14.4059 21.7934C14.7654 21.8313 15.068 22.0772 15.1816 22.4177C15.2951 22.7583 15.2005 23.1366 14.9545 23.3825L12.0223 26.3148L12.7601 30.3254C12.779 30.4011 12.7979 30.4768 12.7979 30.5524C12.7979 31.0821 12.3817 31.4794 11.852 31.4794C11.7007 31.4794 11.5493 31.4605 11.4169 31.4037L7.70898 29.5309L4.05783 31.5172C3.88757 31.5929 3.73622 31.6497 3.58488 31.6497ZM2.97951 23.5339L4.96589 25.4257C5.1929 25.6338 5.30641 25.9554 5.24965 26.2581L4.81454 28.9444L7.21712 27.6391C7.48197 27.4877 7.82249 27.4877 8.10626 27.6202L10.5467 28.8687L10.0548 26.1824C9.99805 25.8797 10.0926 25.5581 10.3196 25.35L12.2493 23.4204L9.54402 23.0609C9.24133 23.0231 8.95756 22.8339 8.82514 22.5502L7.55764 20.1098L6.38473 22.588C6.2523 22.8718 5.98745 23.0609 5.68477 23.1177L2.97951 23.5339Z" fill="#74CCD8"/>
<path d="M43.8611 49.8297C43.5205 49.8297 43.1989 49.6406 43.0287 49.3379L40.7964 45.2705L36.729 43.0382C36.4263 42.8679 36.2372 42.5463 36.2372 42.2058C36.2372 41.8653 36.4263 41.5437 36.729 41.3734L40.7964 39.1411L43.0287 35.0738C43.1989 34.7711 43.5205 34.5819 43.8611 34.5819C44.2016 34.5819 44.5232 34.7711 44.6935 35.0738L46.9068 39.16L50.9742 41.3924C51.2769 41.5626 51.4661 41.8842 51.4661 42.2247C51.4661 42.5653 51.2769 42.8869 50.9742 43.0571L46.9068 45.2705L44.6745 49.3379C44.5232 49.6406 44.2016 49.8297 43.8611 49.8297ZM39.1694 42.2247L41.9693 43.7571C42.1206 43.8517 42.253 43.9652 42.3476 44.1354L43.88 46.9353L45.4123 44.1354C45.5069 43.9841 45.6204 43.8517 45.7907 43.7571L48.5905 42.2247L45.7907 40.6924C45.6393 40.5978 45.5069 40.4843 45.4123 40.314L43.88 37.5142L42.3476 40.314C42.253 40.4654 42.1395 40.5978 41.9693 40.6924L39.1694 42.2247Z" fill="#74CCD8"/>
<path d="M29.1997 31.2902H22.3514C22.0109 31.2902 21.7082 31.101 21.5379 30.8172L18.1138 24.8581C17.9435 24.5743 17.9435 24.2149 18.1138 23.9122L21.5379 17.972C21.7082 17.6693 22.0109 17.499 22.3514 17.499H29.1997C29.5402 17.499 29.8429 17.6882 30.0132 17.972L33.4373 23.9311C33.6076 24.2149 33.6076 24.5743 33.4373 24.877L30.0132 30.8361C29.8618 31.1199 29.5402 31.2902 29.1997 31.2902ZM22.9 29.3984H28.6511L31.5266 24.3851L28.6511 19.3719H22.9L20.0245 24.3851L22.9 29.3984Z" fill="#74CCD8"/>
<path d="M49.4986 13.1101H38.2803C37.7506 13.1101 37.3344 12.6939 37.3344 12.1642V0.945895C37.3344 0.416194 37.7506 0 38.2803 0H49.4986C50.0283 0 50.4445 0.416194 50.4445 0.945895V12.1642C50.4445 12.6939 50.0283 13.1101 49.4986 13.1101ZM39.2262 11.2183H48.5527V1.89179H39.2262V11.2183Z" fill="#74CCD8"/>
<path d="M11.7006 48.8649H3.52811C2.99841 48.8649 2.58221 48.4487 2.58221 47.919V36.7007C2.58221 36.171 2.99841 35.7548 3.52811 35.7548H11.7006C12.2303 35.7548 12.6465 36.171 12.6465 36.7007V47.919C12.6465 48.4298 12.2303 48.8649 11.7006 48.8649ZM4.474 46.9731H10.7547V37.6466H4.474V46.9731Z" fill="#74CCD8"/>
<path d="M25.7756 50C25.5296 50 25.2837 49.9054 25.1134 49.7162L18.3598 42.9625C18.1895 42.7923 18.076 42.5463 18.076 42.3004C18.076 42.0545 18.1706 41.8086 18.3598 41.6383L25.1134 34.8846C25.4918 34.5062 26.0783 34.5062 26.4566 34.8846L33.2103 41.6383C33.3806 41.8086 33.4941 42.0545 33.4941 42.3004C33.4941 42.5463 33.3995 42.7923 33.2103 42.9625L26.4566 49.7162C26.2674 49.9054 26.0215 50 25.7756 50ZM20.3651 42.3004L25.7756 47.7109L31.1861 42.3004L25.7756 36.8899L20.3651 42.3004Z" fill="#74CCD8"/>
<path d="M32.2266 13.129H19.3435C19.003 13.129 18.7003 12.9399 18.53 12.6561C18.3597 12.3723 18.3597 11.994 18.53 11.7102L24.981 0.548631C25.1513 0.264863 25.454 0.0756836 25.7945 0.0756836C26.135 0.0756836 26.4377 0.264863 26.608 0.548631L33.0211 11.6345C33.1346 11.7859 33.1914 11.975 33.1914 12.1831C33.1725 12.7128 32.7563 13.129 32.2266 13.129ZM20.9704 11.2372H30.5807L25.7756 2.91337L20.9704 11.2372Z" fill="#74CCD8"/>
<path d="M43.9368 30.9118C40.3045 30.9118 37.3533 27.9607 37.3533 24.3284C37.3533 20.6962 40.3045 17.745 43.9368 17.745C47.569 17.745 50.5202 20.6962 50.5202 24.3284C50.5202 27.9607 47.569 30.9118 43.9368 30.9118ZM43.9368 19.6368C41.345 19.6368 39.2451 21.7367 39.2451 24.3284C39.2451 26.9202 41.345 29.0201 43.9368 29.0201C46.5285 29.0201 48.6284 26.9202 48.6284 24.3284C48.6284 21.7367 46.5285 19.6368 43.9368 19.6368Z" fill="#74CCD8"/>
<path d="M7.6144 13.2047C3.98217 13.2047 1.03098 10.2535 1.03098 6.62127C1.03098 2.98903 3.98217 0.0189209 7.6144 0.0189209C11.2466 0.0189209 14.1978 2.97011 14.1978 6.60235C14.1978 10.2346 11.2466 13.2047 7.6144 13.2047ZM7.6144 1.91071C5.02265 1.91071 2.92277 4.0106 2.92277 6.60235C2.92277 9.1941 5.02265 11.294 7.6144 11.294C10.2062 11.294 12.306 9.1941 12.306 6.60235C12.306 4.0106 10.2062 1.91071 7.6144 1.91071Z" fill="#74CCD8"/>
<path d="M79.0713 12.556C79.0713 13.552 78.9513 14.458 78.7113 15.274C78.4833 16.078 78.1293 16.774 77.6493 17.362C77.1813 17.95 76.5933 18.4 75.8853 18.712C75.1773 19.024 74.3553 19.18 73.4193 19.18C72.4593 19.18 71.6193 19.024 70.8993 18.712C70.1913 18.388 69.6033 17.938 69.1353 17.362C68.6673 16.774 68.3193 16.072 68.0913 15.256C67.8633 14.44 67.7493 13.534 67.7493 12.538C67.7493 11.218 67.9533 10.066 68.3613 9.082C68.7813 8.098 69.4113 7.33 70.2513 6.778C71.0913 6.226 72.1533 5.95 73.4373 5.95C74.6853 5.95 75.7233 6.226 76.5513 6.778C77.3913 7.318 78.0213 8.086 78.4413 9.082C78.8613 10.066 79.0713 11.224 79.0713 12.556ZM69.8553 12.556C69.8553 13.588 69.9753 14.476 70.2153 15.22C70.4673 15.952 70.8573 16.522 71.3853 16.93C71.9253 17.326 72.6033 17.524 73.4193 17.524C74.2473 17.524 74.9193 17.326 75.4353 16.93C75.9633 16.522 76.3473 15.952 76.5873 15.22C76.8393 14.476 76.9653 13.588 76.9653 12.556C76.9653 11.008 76.6833 9.802 76.1193 8.938C75.5553 8.062 74.6613 7.624 73.4373 7.624C72.6093 7.624 71.9253 7.822 71.3853 8.218C70.8573 8.614 70.4673 9.178 70.2153 9.91C69.9753 10.642 69.8553 11.524 69.8553 12.556ZM88.7959 6.148V7.822H83.6299V19H81.6319V6.148H88.7959ZM94.229 6.148C95.801 6.148 96.947 6.49 97.667 7.174C98.399 7.846 98.765 8.788 98.765 10C98.765 10.54 98.681 11.056 98.513 11.548C98.357 12.04 98.093 12.484 97.721 12.88C97.361 13.264 96.875 13.57 96.263 13.798C95.651 14.014 94.901 14.122 94.013 14.122H92.753V19H90.755V6.148H94.229ZM94.121 7.786H92.753V12.484H93.797C94.445 12.484 94.985 12.406 95.417 12.25C95.849 12.082 96.173 11.824 96.389 11.476C96.617 11.116 96.731 10.648 96.731 10.072C96.731 9.304 96.521 8.734 96.101 8.362C95.681 7.978 95.021 7.786 94.121 7.786ZM111.89 12.556C111.89 13.552 111.77 14.458 111.53 15.274C111.302 16.078 110.948 16.774 110.468 17.362C110 17.95 109.412 18.4 108.704 18.712C107.996 19.024 107.174 19.18 106.238 19.18C105.278 19.18 104.438 19.024 103.718 18.712C103.01 18.388 102.422 17.938 101.954 17.362C101.486 16.774 101.138 16.072 100.91 15.256C100.682 14.44 100.568 13.534 100.568 12.538C100.568 11.218 100.772 10.066 101.18 9.082C101.6 8.098 102.23 7.33 103.07 6.778C103.91 6.226 104.972 5.95 106.256 5.95C107.504 5.95 108.542 6.226 109.37 6.778C110.21 7.318 110.84 8.086 111.26 9.082C111.68 10.066 111.89 11.224 111.89 12.556ZM102.674 12.556C102.674 13.588 102.794 14.476 103.034 15.22C103.286 15.952 103.676 16.522 104.204 16.93C104.744 17.326 105.422 17.524 106.238 17.524C107.066 17.524 107.738 17.326 108.254 16.93C108.782 16.522 109.166 15.952 109.406 15.22C109.658 14.476 109.784 13.588 109.784 12.556C109.784 11.008 109.502 9.802 108.938 8.938C108.374 8.062 107.48 7.624 106.256 7.624C105.428 7.624 104.744 7.822 104.204 8.218C103.676 8.614 103.286 9.178 103.034 9.91C102.794 10.642 102.674 11.524 102.674 12.556ZM119.724 19L116.196 8.074H116.124C116.148 8.314 116.166 8.638 116.178 9.046C116.202 9.454 116.22 9.892 116.232 10.36C116.256 10.828 116.268 11.29 116.268 11.746V19H114.45V6.148H117.258L120.642 16.462H120.696L124.134 6.148H126.942V19H125.034V11.638C125.034 11.218 125.04 10.786 125.052 10.342C125.064 9.886 125.082 9.46 125.106 9.064C125.13 8.668 125.148 8.344 125.16 8.092H125.088L121.47 19H119.724ZM139.635 19H137.637V13.132H132.093V19H130.095V6.148H132.093V11.476H137.637V6.148H139.635V19ZM142.786 19V6.148H144.784V11.44H146.314C147.442 11.44 148.336 11.602 148.996 11.926C149.656 12.25 150.136 12.694 150.436 13.258C150.736 13.822 150.886 14.458 150.886 15.166C150.886 15.946 150.724 16.624 150.4 17.2C150.076 17.776 149.578 18.22 148.906 18.532C148.246 18.844 147.4 19 146.368 19H142.786ZM146.278 17.38C147.142 17.38 147.784 17.2 148.204 16.84C148.636 16.48 148.852 15.922 148.852 15.166C148.852 14.638 148.75 14.224 148.546 13.924C148.342 13.624 148.036 13.414 147.628 13.294C147.232 13.162 146.728 13.096 146.116 13.096H144.784V17.38H146.278ZM152.524 19V6.148H154.504V19H152.524ZM166.513 2.08C166.465 2.692 166.315 3.214 166.063 3.646C165.811 4.066 165.439 4.39 164.947 4.618C164.455 4.834 163.807 4.942 163.003 4.942C162.199 4.942 161.551 4.834 161.059 4.618C160.579 4.39 160.225 4.066 159.997 3.646C159.769 3.226 159.631 2.704 159.583 2.08H161.347C161.395 2.728 161.545 3.166 161.797 3.394C162.061 3.61 162.469 3.718 163.021 3.718C163.513 3.718 163.909 3.604 164.209 3.376C164.509 3.136 164.683 2.704 164.731 2.08H166.513ZM157.675 6.148H159.511V12.952C159.511 13.252 159.505 13.582 159.493 13.942C159.493 14.302 159.487 14.656 159.475 15.004C159.463 15.352 159.451 15.664 159.439 15.94C159.427 16.204 159.409 16.402 159.385 16.534H159.457L165.649 6.148H167.917V19H166.081V12.25C166.081 11.926 166.087 11.578 166.099 11.206C166.111 10.822 166.123 10.45 166.135 10.09C166.147 9.73 166.159 9.418 166.171 9.154C166.195 8.878 166.207 8.68 166.207 8.56H166.153L159.961 19H157.675V6.148ZM75.8493 44L74.6433 40.292H70.0533L68.8473 44H66.7593L71.2773 31.094H73.4373L77.9373 44H75.8493ZM72.9333 34.982C72.8973 34.838 72.8373 34.64 72.7533 34.388C72.6813 34.124 72.6093 33.854 72.5373 33.578C72.4653 33.29 72.3993 33.05 72.3393 32.858C72.2913 33.122 72.2313 33.386 72.1593 33.65C72.0873 33.914 72.0213 34.16 71.9613 34.388C71.9013 34.616 71.8473 34.814 71.7993 34.982L70.6113 38.6H74.1213L72.9333 34.982ZM84.7245 32.642C84.1485 32.642 83.6265 32.756 83.1585 32.984C82.7025 33.2 82.3125 33.524 81.9885 33.956C81.6765 34.388 81.4365 34.91 81.2685 35.522C81.1005 36.134 81.0165 36.824 81.0165 37.592C81.0165 38.6 81.1545 39.476 81.4305 40.22C81.7065 40.952 82.1205 41.516 82.6725 41.912C83.2245 42.308 83.9085 42.506 84.7245 42.506C85.2525 42.506 85.7565 42.458 86.2365 42.362C86.7165 42.254 87.2025 42.116 87.6945 41.948V43.622C87.2145 43.814 86.7225 43.952 86.2185 44.036C85.7265 44.132 85.1505 44.18 84.4905 44.18C83.2425 44.18 82.2105 43.91 81.3945 43.37C80.5785 42.83 79.9665 42.062 79.5585 41.066C79.1505 40.07 78.9465 38.906 78.9465 37.574C78.9465 36.602 79.0725 35.714 79.3245 34.91C79.5765 34.094 79.9485 33.392 80.4405 32.804C80.9325 32.216 81.5385 31.766 82.2585 31.454C82.9785 31.13 83.8005 30.968 84.7245 30.968C85.3485 30.968 85.9605 31.04 86.5605 31.184C87.1605 31.316 87.6945 31.508 88.1625 31.76L87.4605 33.38C87.0645 33.188 86.6325 33.02 86.1645 32.876C85.7085 32.72 85.2285 32.642 84.7245 32.642ZM95.1308 32.642C94.5548 32.642 94.0328 32.756 93.5648 32.984C93.1088 33.2 92.7188 33.524 92.3948 33.956C92.0828 34.388 91.8428 34.91 91.6748 35.522C91.5068 36.134 91.4228 36.824 91.4228 37.592C91.4228 38.6 91.5608 39.476 91.8368 40.22C92.1128 40.952 92.5268 41.516 93.0788 41.912C93.6308 42.308 94.3148 42.506 95.1308 42.506C95.6588 42.506 96.1628 42.458 96.6428 42.362C97.1228 42.254 97.6088 42.116 98.1008 41.948V43.622C97.6208 43.814 97.1288 43.952 96.6248 44.036C96.1328 44.132 95.5568 44.18 94.8968 44.18C93.6488 44.18 92.6168 43.91 91.8008 43.37C90.9848 42.83 90.3728 42.062 89.9648 41.066C89.5568 40.07 89.3528 38.906 89.3528 37.574C89.3528 36.602 89.4788 35.714 89.7308 34.91C89.9828 34.094 90.3548 33.392 90.8468 32.804C91.3388 32.216 91.9448 31.766 92.6648 31.454C93.3848 31.13 94.2068 30.968 95.1308 30.968C95.7548 30.968 96.3668 31.04 96.9668 31.184C97.5668 31.316 98.1008 31.508 98.5688 31.76L97.8668 33.38C97.4708 33.188 97.0388 33.02 96.5708 32.876C96.1148 32.72 95.6348 32.642 95.1308 32.642ZM111.081 37.556C111.081 38.552 110.961 39.458 110.721 40.274C110.493 41.078 110.139 41.774 109.659 42.362C109.191 42.95 108.603 43.4 107.895 43.712C107.187 44.024 106.365 44.18 105.429 44.18C104.469 44.18 103.629 44.024 102.909 43.712C102.201 43.388 101.613 42.938 101.145 42.362C100.677 41.774 100.329 41.072 100.101 40.256C99.873 39.44 99.759 38.534 99.759 37.538C99.759 36.218 99.963 35.066 100.371 34.082C100.791 33.098 101.421 32.33 102.261 31.778C103.101 31.226 104.163 30.95 105.447 30.95C106.695 30.95 107.733 31.226 108.561 31.778C109.401 32.318 110.031 33.086 110.451 34.082C110.871 35.066 111.081 36.224 111.081 37.556ZM101.865 37.556C101.865 38.588 101.985 39.476 102.225 40.22C102.477 40.952 102.867 41.522 103.395 41.93C103.935 42.326 104.613 42.524 105.429 42.524C106.257 42.524 106.929 42.326 107.445 41.93C107.973 41.522 108.357 40.952 108.597 40.22C108.849 39.476 108.975 38.588 108.975 37.556C108.975 36.008 108.693 34.802 108.129 33.938C107.565 33.062 106.671 32.624 105.447 32.624C104.619 32.624 103.935 32.822 103.395 33.218C102.867 33.614 102.477 34.178 102.225 34.91C101.985 35.642 101.865 36.524 101.865 37.556ZM117.116 31.148C118.688 31.148 119.834 31.49 120.554 32.174C121.286 32.846 121.652 33.788 121.652 35C121.652 35.54 121.568 36.056 121.4 36.548C121.244 37.04 120.98 37.484 120.608 37.88C120.248 38.264 119.762 38.57 119.15 38.798C118.538 39.014 117.788 39.122 116.9 39.122H115.64V44H113.642V31.148H117.116ZM117.008 32.786H115.64V37.484H116.684C117.332 37.484 117.872 37.406 118.304 37.25C118.736 37.082 119.06 36.824 119.276 36.476C119.504 36.116 119.618 35.648 119.618 35.072C119.618 34.304 119.408 33.734 118.988 33.362C118.568 32.978 117.908 32.786 117.008 32.786ZM128.242 44H126.262V32.822H122.698V31.148H131.788V32.822H128.242V44ZM133.628 31.148H135.464V37.952C135.464 38.252 135.458 38.582 135.446 38.942C135.446 39.302 135.44 39.656 135.428 40.004C135.416 40.352 135.404 40.664 135.392 40.94C135.38 41.204 135.362 41.402 135.338 41.534H135.41L141.602 31.148H143.87V44H142.034V37.25C142.034 36.926 142.04 36.578 142.052 36.206C142.064 35.822 142.076 35.45 142.088 35.09C142.1 34.73 142.112 34.418 142.124 34.154C142.148 33.878 142.16 33.68 142.16 33.56H142.106L135.914 44H133.628V31.148ZM152.279 44L148.751 33.074H148.679C148.703 33.314 148.721 33.638 148.733 34.046C148.757 34.454 148.775 34.892 148.787 35.36C148.811 35.828 148.823 36.29 148.823 36.746V44H147.005V31.148H149.813L153.197 41.462H153.251L156.689 31.148H159.497V44H157.589V36.638C157.589 36.218 157.595 35.786 157.607 35.342C157.619 34.886 157.637 34.46 157.661 34.064C157.685 33.668 157.703 33.344 157.715 33.092H157.643L154.025 44H152.279ZM169.507 44H162.649V31.148H169.507V32.804H164.647V36.476H169.219V38.114H164.647V42.326H169.507V44ZM181.594 44H179.596V38.132H174.052V44H172.054V31.148H174.052V36.476H179.596V31.148H181.594V44ZM188.957 44H186.977V32.822H183.413V31.148H192.503V32.822H188.957V44Z" fill="#090F24"/>
</svg>
