<svg width="217" height="50" viewBox="0 0 217 50" fill="none" xmlns="http://www.w3.org/2000/svg">
<path d="M8.58441 40.9524C8.56697 38.615 8.56697 38.6324 6.31675 38.0742C5.4969 37.8823 4.67706 37.673 3.90954 37.3416C2.63617 36.7834 2.06053 35.7019 2.42684 34.3587C2.72338 33.2598 3.26413 32.2132 3.71766 31.1491C4.22353 29.963 4.18864 29.806 3.22925 28.9861C2.47917 28.3407 1.67677 27.7651 0.979029 27.0499C-0.329236 25.6893 -0.329236 24.2589 0.996473 22.8983C1.74654 22.1308 2.60128 21.468 3.43857 20.8051C4.03165 20.3341 4.15375 19.7934 3.83977 19.1305C3.43857 18.2584 3.00248 17.4036 2.65361 16.514C1.85121 14.4731 2.54895 13.0079 4.65962 12.345C5.61901 12.0485 6.61329 11.8217 7.60757 11.5949C8.28787 11.4379 8.54952 11.0193 8.54952 10.339C8.56697 9.24005 8.54952 8.12367 8.67163 7.04217C8.88095 5.22804 10.0148 4.30353 11.8464 4.47797C12.8581 4.58263 13.8349 4.84428 14.8292 5.07105C15.7014 5.28037 16.3293 5.07105 16.7305 4.18143C17.1492 3.25692 17.5853 2.33241 18.126 1.47768C19.1378 -0.109684 20.5681 -0.423668 22.1729 0.570614C23.0625 1.12881 23.8649 1.79166 24.6848 2.43707C25.3302 2.94293 25.9233 2.97782 26.5687 2.45452C27.2141 1.91377 27.877 1.39046 28.5747 0.902041C30.6679 -0.598103 32.2553 -0.231789 33.5112 2.03587C33.895 2.75106 34.2613 3.48368 34.5927 4.21631C34.9416 5.01872 35.5347 5.24548 36.3371 5.07105C37.2093 4.87917 38.0814 4.6524 38.9711 4.51285C41.2038 4.16398 42.4249 5.10593 42.6516 7.35615C42.7389 8.28066 42.7389 9.22261 42.704 10.1471C42.6691 11.0367 43.0354 11.4903 43.8901 11.6821C44.7972 11.874 45.7043 12.0659 46.5939 12.345C48.722 12.9904 49.4197 14.4731 48.6173 16.5315C48.2859 17.3687 47.8847 18.1711 47.4835 18.9735C47.0823 19.7585 47.1695 20.3865 47.9196 20.9447C48.5999 21.4331 49.2453 21.9738 49.8733 22.5495C51.6874 24.2066 51.6874 25.8637 49.8558 27.5209C49.193 28.1314 48.4778 28.6896 47.7626 29.2303C47.187 29.6839 47.0823 30.2072 47.3788 30.8351C47.7975 31.7248 48.251 32.6144 48.5999 33.5215C49.3848 35.5449 48.6871 37.0102 46.6288 37.673C45.6345 37.987 44.6228 38.2138 43.5936 38.458C42.9482 38.615 42.704 39.0162 42.6865 39.6441C42.6691 40.778 42.6865 41.9118 42.5644 43.0282C42.3551 44.8074 41.2213 45.7145 39.442 45.5401C38.4303 45.4354 37.4535 45.1737 36.4592 44.9644C35.2905 44.7376 35.0637 44.8249 34.5229 45.8715C34.052 46.7611 33.6508 47.703 33.11 48.5578C32.1157 50.0928 30.6854 50.4242 29.1329 49.4474C28.2782 48.9067 27.4758 48.2612 26.6908 47.6158C25.9756 47.0227 25.3128 46.9879 24.5976 47.5984C23.9522 48.1391 23.2893 48.6624 22.609 49.1509C20.6205 50.5289 19.0505 50.18 17.8469 48.0519C17.4981 47.4414 17.219 46.8134 16.9224 46.1855C16.2072 44.7202 16.0677 44.6679 14.4978 45.0167C13.8175 45.1737 13.1372 45.3307 12.4569 45.4354C10.0322 45.8191 8.82862 44.8423 8.6193 42.4002C8.54952 41.9467 8.58441 41.4583 8.58441 40.9524ZM40.2968 8.92607C40.2968 8.43765 40.2793 7.96667 40.2968 7.4957C40.3142 6.92006 40.0526 6.6933 39.4944 6.79796C38.6745 6.95495 37.8372 7.0945 37.0174 7.28638C34.802 7.80968 33.5287 7.25149 32.4821 5.26293C32.1157 4.56518 31.8018 3.85 31.4354 3.15226C30.9121 2.15798 30.7551 2.14053 29.883 2.78594C29.1852 3.30925 28.5224 3.88489 27.8072 4.3733C26.2373 5.48969 24.9813 5.48969 23.4114 4.3733C22.7311 3.88489 22.0857 3.34414 21.4054 2.83827C20.446 2.12309 20.3065 2.15798 19.7308 3.23948C19.3994 3.88489 19.1029 4.54774 18.7714 5.19315C17.7074 7.26893 16.434 7.82713 14.1838 7.28638C13.3988 7.0945 12.5964 6.97239 11.794 6.79796C11.1312 6.65841 10.9044 6.95495 10.9044 7.58292C10.9044 8.62953 10.8695 9.67614 10.7997 10.7228C10.7125 12.4322 9.75313 13.4265 8.13088 13.8277C7.29359 14.037 6.43886 14.2289 5.60157 14.4557C4.53751 14.7348 4.45029 14.9266 4.88638 15.9035C5.2527 16.7233 5.68878 17.5257 6.02021 18.3456C6.71795 20.1074 6.4563 21.2063 5.04337 22.4797C4.32819 23.1251 3.57812 23.7182 2.82804 24.3113C2.26985 24.7648 2.28729 25.2009 2.82804 25.6719C3.64789 26.3522 4.48518 27.0325 5.28758 27.7476C6.40397 28.7594 6.66562 29.9979 6.08998 31.3933C5.74111 32.2481 5.33991 33.0854 4.95616 33.9401C4.43285 35.1263 4.50262 35.2833 5.776 35.5972C6.59585 35.7891 7.41569 35.9636 8.2181 36.1903C9.75313 36.609 10.6776 37.5684 10.7823 39.208C10.8521 40.307 10.887 41.4059 10.9044 42.5223C10.9044 43.098 11.1486 43.3247 11.7068 43.2201C12.5267 43.0631 13.3639 42.9235 14.1838 42.7316C16.434 42.2083 17.7074 42.7665 18.7714 44.8423C19.1378 45.5401 19.4517 46.2552 19.818 46.9355C20.3239 47.8426 20.446 47.8775 21.2484 47.2844C21.981 46.7437 22.6613 46.168 23.394 45.6447C24.9639 44.5283 26.2198 44.5283 27.7897 45.6447C28.4526 46.1157 29.0631 46.639 29.726 47.1449C30.7551 47.9298 30.9121 47.8949 31.5052 46.7262C31.8192 46.1157 32.0983 45.4703 32.4123 44.8423C33.4763 42.784 34.7497 42.2083 36.9999 42.7491C37.8198 42.941 38.6396 43.0805 39.4769 43.2375C40.0526 43.3422 40.2619 43.098 40.2793 42.5223C40.2968 41.4408 40.3142 40.3768 40.384 39.2953C40.4712 37.5858 41.4306 36.5915 43.0528 36.1903C43.8901 35.981 44.7449 35.7891 45.5821 35.5623C46.6462 35.2658 46.7334 35.0914 46.2973 34.1145C45.931 33.2947 45.5124 32.4923 45.1635 31.6724C44.4658 29.9106 44.7274 28.8117 46.1403 27.5383C46.8555 26.8929 47.6056 26.3173 48.3557 25.7067C48.9139 25.2532 48.8964 24.7997 48.3557 24.3462C47.5358 23.6659 46.6985 22.9856 45.8961 22.2704C44.7797 21.2586 44.5181 20.0202 45.0937 18.6247C45.4426 17.7699 45.8438 16.9327 46.2276 16.0779C46.7509 14.8918 46.6811 14.7522 45.4077 14.4208C44.5879 14.2115 43.768 14.0545 42.9656 13.8277C41.4306 13.4091 40.5061 12.4497 40.4014 10.81C40.384 10.1646 40.3491 9.53659 40.2968 8.92607Z" fill="#74CCD8"/>
<path d="M40.2967 8.92604C40.3316 9.53656 40.3665 10.182 40.4188 10.8099C40.5235 12.4496 41.4654 13.3916 42.983 13.8277C43.7854 14.0544 44.6227 14.2114 45.4251 14.4208C46.6985 14.7347 46.7683 14.8917 46.245 16.0779C45.8612 16.9326 45.46 17.7699 45.1111 18.6246C44.5355 20.0201 44.7971 21.2586 45.9135 22.2703C46.7159 22.9855 47.5532 23.6658 48.3731 24.3461C48.9138 24.7997 48.9313 25.2532 48.3731 25.7067C47.6404 26.3172 46.8729 26.8929 46.1577 27.5383C44.7448 28.8117 44.4832 29.9106 45.1809 31.6724C45.5123 32.5097 45.9484 33.2947 46.3147 34.1145C46.7508 35.0913 46.6636 35.2658 45.5995 35.5623C44.7622 35.7891 43.9075 35.981 43.0702 36.1903C41.448 36.5915 40.4886 37.5858 40.4014 39.2952C40.349 40.3593 40.3141 41.4408 40.2967 42.5223C40.2967 43.0805 40.0699 43.3421 39.4943 43.2375C38.6745 43.0805 37.8372 42.9409 37.0173 42.7491C34.7671 42.2083 33.4937 42.7839 32.4297 44.8423C32.1157 45.4528 31.8366 46.0982 31.5226 46.7262C30.9121 47.8949 30.7725 47.9298 29.7434 47.1448C29.098 46.6564 28.47 46.1157 27.8071 45.6447C26.2198 44.5283 24.9813 44.5283 23.4114 45.6447C22.6787 46.168 21.9984 46.7611 21.2658 47.2844C20.446 47.8775 20.3239 47.86 19.8354 46.9355C19.4517 46.2552 19.1377 45.54 18.7888 44.8423C17.7248 42.7839 16.4688 42.2083 14.2012 42.7316C13.3813 42.9235 12.5615 43.063 11.7242 43.22C11.166 43.3247 10.9218 43.0979 10.9218 42.5223C10.9044 41.4233 10.8695 40.3244 10.7997 39.208C10.695 37.5683 9.77052 36.6089 8.23549 36.1903C7.43309 35.9635 6.5958 35.8065 5.7934 35.5972C4.52002 35.2832 4.45024 35.1262 4.97355 33.9401C5.35731 33.0853 5.75851 32.248 6.10738 31.3933C6.68302 29.9978 6.42136 28.7593 5.30498 27.7476C4.50257 27.0324 3.66528 26.3521 2.84544 25.6718C2.28725 25.2183 2.2698 24.7822 2.84544 24.3112C3.59551 23.7007 4.34558 23.1076 5.06077 22.4797C6.47369 21.2063 6.73535 20.1073 6.03761 18.3455C5.70618 17.5083 5.27009 16.7233 4.90378 15.9035C4.46769 14.9266 4.57235 14.7347 5.61896 14.4556C6.45625 14.2289 7.31098 14.037 8.14827 13.8277C9.77052 13.4265 10.7125 12.4322 10.8171 10.7227C10.8695 9.67611 10.9044 8.6295 10.9218 7.58289C10.9218 6.93748 11.1486 6.65838 11.8114 6.79793C12.5964 6.97236 13.3988 7.09447 14.2012 7.28635C16.4514 7.8271 17.7248 7.2689 18.7888 5.19312C19.1203 4.54771 19.3994 3.88486 19.7482 3.23945C20.3064 2.15795 20.4634 2.12306 21.4228 2.83825C22.1031 3.34411 22.7311 3.88486 23.4288 4.37328C25.0162 5.48966 26.2547 5.48966 27.8246 4.37328C28.5398 3.86741 29.2026 3.29178 29.9004 2.78591C30.7725 2.1405 30.9295 2.15795 31.4528 3.15223C31.8191 3.84997 32.1331 4.56516 32.4994 5.2629C33.5461 7.2689 34.8194 7.80965 37.0348 7.28635C37.8546 7.09447 38.6745 6.95492 39.5117 6.79793C40.0699 6.69327 40.3316 6.92003 40.3142 7.49567C40.2967 7.96665 40.2967 8.43762 40.2967 8.92604ZM17.7597 34.2715C17.9515 34.1319 18.3527 33.9226 18.6667 33.6086C23.8649 28.4279 29.0631 23.2297 34.2612 18.0316C34.4008 17.892 34.5578 17.7525 34.6799 17.578C35.0113 17.0547 35.0462 16.5314 34.5927 16.0604C34.1391 15.6069 33.5984 15.6069 33.0925 15.9558C32.9007 16.0779 32.7437 16.2698 32.5867 16.4268C27.4059 21.6075 22.2252 26.7708 17.0619 31.9515C16.87 32.1434 16.6782 32.3178 16.5386 32.5446C16.0502 33.347 16.5909 34.2715 17.7597 34.2715ZM23.8823 19.2177C23.8998 16.9675 22.0333 15.0836 19.8006 15.1011C17.6027 15.1011 15.7537 16.9501 15.7188 19.148C15.6839 21.3284 17.5155 23.2123 19.7308 23.2472C21.981 23.2995 23.8649 21.4854 23.8823 19.2177ZM27.371 30.8177C27.371 33.033 29.1852 34.8646 31.4005 34.8995C33.5984 34.9344 35.5346 33.033 35.5172 30.8177C35.5172 28.6198 33.6856 26.7708 31.4703 26.7533C29.2201 26.7359 27.371 28.5675 27.371 30.8177Z" fill="white"/>
<path d="M17.7597 34.2715C16.591 34.2715 16.0502 33.3296 16.5212 32.5446C16.6433 32.3179 16.8526 32.1434 17.0445 31.9516C22.2252 26.7708 27.3885 21.5901 32.5692 16.4268C32.7262 16.2698 32.8832 16.0779 33.0751 15.9558C33.5984 15.6244 34.1392 15.607 34.5753 16.0605C35.0288 16.514 34.9939 17.0548 34.6625 17.5781C34.5578 17.7525 34.4008 17.8746 34.2438 18.0316C29.0456 23.2298 23.8475 28.428 18.6493 33.6087C18.3528 33.9227 17.9516 34.132 17.7597 34.2715Z" fill="#74CCD8"/>
<path d="M23.8824 19.2177C23.8649 21.468 21.981 23.2995 19.7308 23.2472C17.5329 23.2123 15.6839 21.3284 15.7188 19.148C15.7537 16.9326 17.6027 15.1011 19.8006 15.1011C22.0334 15.1011 23.8998 16.985 23.8824 19.2177ZM19.818 17.4734C18.8238 17.4734 18.1086 18.1886 18.1086 19.1654C18.1086 20.1248 18.8412 20.9098 19.7832 20.9272C20.7251 20.9447 21.5798 20.0899 21.5624 19.148C21.5449 18.2235 20.76 17.4734 19.818 17.4734Z" fill="#74CCD8"/>
<path d="M27.3711 30.8178C27.3711 28.5675 29.2201 26.7185 31.4878 26.7534C33.7031 26.7709 35.5347 28.6199 35.5347 30.8178C35.5347 33.0331 33.6159 34.9519 31.418 34.8995C29.1852 34.8647 27.3711 33.0331 27.3711 30.8178ZM31.4529 32.5272C32.4472 32.5272 33.1449 31.812 33.1623 30.8178C33.1623 29.8584 32.4123 29.0734 31.4703 29.056C30.5458 29.0385 29.6736 29.9107 29.6911 30.8352C29.726 31.7946 30.5109 32.5447 31.4529 32.5272Z" fill="#74CCD8"/>
<path d="M19.8181 17.4734C20.7775 17.4734 21.5624 18.2235 21.5799 19.1654C21.5973 20.1074 20.7426 20.9621 19.8006 20.9447C18.8587 20.9272 18.1086 20.1423 18.126 19.1829C18.1086 18.1886 18.8238 17.4734 19.8181 17.4734Z" fill="white"/>
<path d="M31.4529 32.5272C30.511 32.5272 29.7086 31.7771 29.6911 30.8526C29.6737 29.9281 30.5458 29.0385 31.4704 29.0734C32.4123 29.0908 33.1624 29.8758 33.1624 30.8352C33.1449 31.812 32.4472 32.5272 31.4529 32.5272Z" fill="white"/>
<path d="M71.68 6.148C72.712 6.148 73.576 6.25 74.272 6.454C74.968 6.658 75.49 7 75.838 7.48C76.186 7.948 76.36 8.572 76.36 9.352C76.36 9.856 76.276 10.306 76.108 10.702C75.94 11.086 75.694 11.41 75.37 11.674C75.046 11.926 74.662 12.094 74.218 12.178V12.268C74.674 12.352 75.094 12.508 75.478 12.736C75.862 12.952 76.162 13.27 76.378 13.69C76.606 14.11 76.72 14.656 76.72 15.328C76.72 16.108 76.546 16.774 76.198 17.326C75.85 17.866 75.352 18.28 74.704 18.568C74.068 18.856 73.306 19 72.418 19H68.044V6.148H71.68ZM71.932 11.512C72.844 11.512 73.468 11.35 73.804 11.026C74.14 10.702 74.308 10.222 74.308 9.586C74.308 8.938 74.104 8.476 73.696 8.2C73.288 7.924 72.64 7.786 71.752 7.786H70.042V11.512H71.932ZM70.042 13.096V17.38H72.13C73.066 17.38 73.72 17.176 74.092 16.768C74.464 16.36 74.65 15.82 74.65 15.148C74.65 14.74 74.566 14.38 74.398 14.068C74.23 13.756 73.954 13.516 73.57 13.348C73.198 13.18 72.688 13.096 72.04 13.096H70.042ZM79.1886 19V6.148H81.1866V11.44H82.7166C83.8446 11.44 84.7386 11.602 85.3986 11.926C86.0586 12.25 86.5386 12.694 86.8386 13.258C87.1386 13.822 87.2886 14.458 87.2886 15.166C87.2886 15.946 87.1266 16.624 86.8026 17.2C86.4786 17.776 85.9806 18.22 85.3086 18.532C84.6486 18.844 83.8026 19 82.7706 19H79.1886ZM82.6806 17.38C83.5446 17.38 84.1866 17.2 84.6066 16.84C85.0386 16.48 85.2546 15.922 85.2546 15.166C85.2546 14.638 85.1526 14.224 84.9486 13.924C84.7446 13.624 84.4386 13.414 84.0306 13.294C83.6346 13.162 83.1306 13.096 82.5186 13.096H81.1866V17.38H82.6806ZM88.9266 19V6.148H90.9066V19H88.9266ZM101.224 6.148V7.822H96.0577V19H94.0597V6.148H101.224ZM113.595 12.556C113.595 13.552 113.475 14.458 113.235 15.274C113.007 16.078 112.653 16.774 112.173 17.362C111.705 17.95 111.117 18.4 110.409 18.712C109.701 19.024 108.879 19.18 107.943 19.18C106.983 19.18 106.143 19.024 105.423 18.712C104.715 18.388 104.127 17.938 103.659 17.362C103.191 16.774 102.843 16.072 102.615 15.256C102.387 14.44 102.273 13.534 102.273 12.538C102.273 11.218 102.477 10.066 102.885 9.082C103.305 8.098 103.935 7.33 104.775 6.778C105.615 6.226 106.677 5.95 107.961 5.95C109.209 5.95 110.247 6.226 111.075 6.778C111.915 7.318 112.545 8.086 112.965 9.082C113.385 10.066 113.595 11.224 113.595 12.556ZM104.379 12.556C104.379 13.588 104.499 14.476 104.739 15.22C104.991 15.952 105.381 16.522 105.909 16.93C106.449 17.326 107.127 17.524 107.943 17.524C108.771 17.524 109.443 17.326 109.959 16.93C110.487 16.522 110.871 15.952 111.111 15.22C111.363 14.476 111.489 13.588 111.489 12.556C111.489 11.008 111.207 9.802 110.643 8.938C110.079 8.062 109.185 7.624 107.961 7.624C107.133 7.624 106.449 7.822 105.909 8.218C105.381 8.614 104.991 9.178 104.739 9.91C104.499 10.642 104.379 11.524 104.379 12.556ZM124.587 6.148V17.308H126.153V22.492H124.245V19H116.271V22.492H114.345V17.308H115.299C115.683 16.588 116.043 15.796 116.379 14.932C116.727 14.056 117.033 13.138 117.297 12.178C117.573 11.206 117.795 10.216 117.963 9.208C118.143 8.188 118.269 7.168 118.341 6.148H124.587ZM119.997 7.84C119.949 8.524 119.847 9.28 119.691 10.108C119.535 10.924 119.337 11.764 119.097 12.628C118.857 13.492 118.593 14.332 118.305 15.148C118.029 15.952 117.723 16.672 117.387 17.308H122.607V7.84H119.997ZM137.613 19H135.615V13.132H130.071V19H128.073V6.148H130.071V11.476H135.615V6.148H137.613V19ZM140.765 19V6.148H142.763V11.44H144.293C145.421 11.44 146.315 11.602 146.975 11.926C147.635 12.25 148.115 12.694 148.415 13.258C148.715 13.822 148.865 14.458 148.865 15.166C148.865 15.946 148.703 16.624 148.379 17.2C148.055 17.776 147.557 18.22 146.885 18.532C146.225 18.844 145.379 19 144.347 19H140.765ZM144.257 17.38C145.121 17.38 145.763 17.2 146.183 16.84C146.615 16.48 146.831 15.922 146.831 15.166C146.831 14.638 146.729 14.224 146.525 13.924C146.321 13.624 146.015 13.414 145.607 13.294C145.211 13.162 144.707 13.096 144.095 13.096H142.763V17.38H144.257ZM150.503 19V6.148H152.483V19H150.503ZM162.494 19H155.636V6.148H162.494V7.804H157.634V11.476H162.206V13.114H157.634V17.326H162.494V19ZM79.042 42.362V47.492H77.116V44H68.044V31.148H70.042V42.308H75.37V31.148H77.35V42.362H79.042ZM87.8044 44H80.9464V31.148H87.8044V32.804H82.9444V36.476H87.5164V38.114H82.9444V42.326H87.8044V44ZM99.8907 44H97.8927V38.132H92.3487V44H90.3507V31.148H92.3487V36.476H97.8927V31.148H99.8907V44ZM103.042 44V31.148H105.04V36.44H106.57C107.698 36.44 108.592 36.602 109.252 36.926C109.912 37.25 110.392 37.694 110.692 38.258C110.992 38.822 111.142 39.458 111.142 40.166C111.142 40.946 110.98 41.624 110.656 42.2C110.332 42.776 109.834 43.22 109.162 43.532C108.502 43.844 107.656 44 106.624 44H103.042ZM106.534 42.38C107.398 42.38 108.04 42.2 108.46 41.84C108.892 41.48 109.108 40.922 109.108 40.166C109.108 39.638 109.006 39.224 108.802 38.924C108.598 38.624 108.292 38.414 107.884 38.294C107.488 38.162 106.984 38.096 106.372 38.096H105.04V42.38H106.534ZM112.78 44V31.148H114.76V44H112.78ZM122.326 31.148H124.162V37.952C124.162 38.252 124.156 38.582 124.144 38.942C124.144 39.302 124.138 39.656 124.126 40.004C124.114 40.352 124.102 40.664 124.09 40.94C124.078 41.204 124.06 41.402 124.036 41.534H124.108L130.3 31.148H132.568V44H130.732V37.25C130.732 36.926 130.738 36.578 130.75 36.206C130.762 35.822 130.774 35.45 130.786 35.09C130.798 34.73 130.81 34.418 130.822 34.154C130.846 33.878 130.858 33.68 130.858 33.56H130.804L124.612 44H122.326V31.148ZM140.097 44V31.148H147.495V32.822H142.095V36.44H143.643C144.807 36.44 145.725 36.602 146.397 36.926C147.081 37.25 147.567 37.694 147.855 38.258C148.143 38.81 148.287 39.446 148.287 40.166C148.287 40.958 148.131 41.642 147.819 42.218C147.507 42.794 147.009 43.238 146.325 43.55C145.653 43.85 144.783 44 143.715 44H140.097ZM143.607 42.362C144.555 42.362 145.233 42.188 145.641 41.84C146.049 41.48 146.253 40.922 146.253 40.166C146.253 39.638 146.151 39.224 145.947 38.924C145.755 38.624 145.449 38.408 145.029 38.276C144.609 38.144 144.069 38.078 143.409 38.078H142.095V42.362H143.607ZM161.425 37.556C161.425 38.552 161.305 39.458 161.065 40.274C160.837 41.078 160.483 41.774 160.003 42.362C159.535 42.95 158.947 43.4 158.239 43.712C157.531 44.024 156.709 44.18 155.773 44.18C154.813 44.18 153.973 44.024 153.253 43.712C152.545 43.388 151.957 42.938 151.489 42.362C151.021 41.774 150.673 41.072 150.445 40.256C150.217 39.44 150.103 38.534 150.103 37.538C150.103 36.218 150.307 35.066 150.715 34.082C151.135 33.098 151.765 32.33 152.605 31.778C153.445 31.226 154.507 30.95 155.791 30.95C157.039 30.95 158.077 31.226 158.905 31.778C159.745 32.318 160.375 33.086 160.795 34.082C161.215 35.066 161.425 36.224 161.425 37.556ZM152.209 37.556C152.209 38.588 152.329 39.476 152.569 40.22C152.821 40.952 153.211 41.522 153.739 41.93C154.279 42.326 154.957 42.524 155.773 42.524C156.601 42.524 157.273 42.326 157.789 41.93C158.317 41.522 158.701 40.952 158.941 40.22C159.193 39.476 159.319 38.588 159.319 37.556C159.319 36.008 159.037 34.802 158.473 33.938C157.909 33.062 157.015 32.624 155.791 32.624C154.963 32.624 154.279 32.822 153.739 33.218C153.211 33.614 152.821 34.178 152.569 34.91C152.329 35.642 152.209 36.524 152.209 37.556ZM173.525 44H171.527V38.132H165.983V44H163.985V31.148H165.983V36.476H171.527V31.148H173.525V44ZM182.167 40.328C181.807 41.168 181.441 41.876 181.069 42.452C180.697 43.028 180.241 43.46 179.701 43.748C179.161 44.036 178.471 44.18 177.631 44.18C177.343 44.18 177.037 44.156 176.713 44.108C176.401 44.06 176.119 43.994 175.867 43.91V42.074C176.119 42.182 176.383 42.266 176.659 42.326C176.947 42.386 177.235 42.416 177.523 42.416C177.919 42.416 178.255 42.356 178.531 42.236C178.807 42.104 179.047 41.912 179.251 41.66C179.455 41.396 179.641 41.054 179.809 40.634L175.291 31.148H177.433L180.349 37.574C180.397 37.706 180.451 37.844 180.511 37.988C180.571 38.132 180.625 38.282 180.673 38.438C180.733 38.582 180.781 38.726 180.817 38.87H180.907C180.943 38.75 180.985 38.618 181.033 38.474C181.081 38.318 181.129 38.168 181.177 38.024C181.237 37.868 181.291 37.73 181.339 37.61L183.877 31.148H185.983L182.167 40.328ZM192.531 32.642C191.955 32.642 191.433 32.756 190.965 32.984C190.509 33.2 190.119 33.524 189.795 33.956C189.483 34.388 189.243 34.91 189.075 35.522C188.907 36.134 188.823 36.824 188.823 37.592C188.823 38.6 188.961 39.476 189.237 40.22C189.513 40.952 189.927 41.516 190.479 41.912C191.031 42.308 191.715 42.506 192.531 42.506C193.059 42.506 193.563 42.458 194.043 42.362C194.523 42.254 195.009 42.116 195.501 41.948V43.622C195.021 43.814 194.529 43.952 194.025 44.036C193.533 44.132 192.957 44.18 192.297 44.18C191.049 44.18 190.017 43.91 189.201 43.37C188.385 42.83 187.773 42.062 187.365 41.066C186.957 40.07 186.753 38.906 186.753 37.574C186.753 36.602 186.879 35.714 187.131 34.91C187.383 34.094 187.755 33.392 188.247 32.804C188.739 32.216 189.345 31.766 190.065 31.454C190.785 31.13 191.607 30.968 192.531 30.968C193.155 30.968 193.767 31.04 194.367 31.184C194.967 31.316 195.501 31.508 195.969 31.76L195.267 33.38C194.871 33.188 194.439 33.02 193.971 32.876C193.515 32.72 193.035 32.642 192.531 32.642ZM198.069 44V31.148H200.067V36.44H201.597C202.725 36.44 203.619 36.602 204.279 36.926C204.939 37.25 205.419 37.694 205.719 38.258C206.019 38.822 206.169 39.458 206.169 40.166C206.169 40.946 206.007 41.624 205.683 42.2C205.359 42.776 204.861 43.22 204.189 43.532C203.529 43.844 202.683 44 201.651 44H198.069ZM201.561 42.38C202.425 42.38 203.067 42.2 203.487 41.84C203.919 41.48 204.135 40.922 204.135 40.166C204.135 39.638 204.033 39.224 203.829 38.924C203.625 38.624 203.319 38.414 202.911 38.294C202.515 38.162 202.011 38.096 201.399 38.096H200.067V42.38H201.561ZM207.807 44V31.148H209.787V44H207.807Z" fill="#090F24"/>
</svg>
