<svg width="1116" height="71" viewBox="0 0 1116 71" fill="none" xmlns="http://www.w3.org/2000/svg">
<path d="M56.8283 22.8172L30.312 55.9039L3.56104 22.8172L13.886 8.03381H46.386L56.8283 22.8172Z" fill="white"/>
<path d="M2.39288 22.5504C5.75491 17.6565 9.1305 12.7761 12.479 7.86866C12.845 7.33996 13.2652 7.1095 13.916 7.1095C24.7477 7.12305 35.5658 7.12305 46.3975 7.1095C47.0482 7.1095 47.4685 7.3264 47.8345 7.85511C51.0474 12.5728 54.2874 17.2634 57.5274 21.9675C58.0697 22.7538 58.0561 22.9978 57.4596 23.7434C48.6885 34.6293 39.931 45.5017 31.1735 56.3876C30.4007 57.3501 29.9263 57.3501 29.1535 56.3876C20.3824 45.5017 11.6113 34.6022 2.84025 23.7163C2.67757 23.5265 2.54201 23.3096 2.40644 23.1062C2.39288 22.9165 2.39288 22.7402 2.39288 22.5504ZM21.2229 23.7841C24.1918 33.4906 27.1336 43.1428 30.0889 52.7951C30.1296 52.7951 30.1703 52.7951 30.2245 52.7951C33.1798 43.1428 36.1216 33.4906 39.0905 23.7841C33.0985 23.7841 27.215 23.7841 21.2229 23.7841ZM5.26688 23.7841C12.7908 33.1245 20.2469 42.3701 27.6894 51.6293C27.7165 51.6157 27.7572 51.5886 27.7843 51.575C24.951 42.3159 22.1312 33.0568 19.2979 23.7841C14.648 23.7841 10.0252 23.7841 5.26688 23.7841ZM32.5291 51.5615C32.5562 51.575 32.5969 51.6021 32.624 51.6157C40.0801 42.3566 47.5362 33.111 55.0466 23.7841C50.2882 23.7841 45.6654 23.7841 41.0155 23.7841C38.1822 33.0568 35.3624 42.3159 32.5291 51.5615ZM21.7652 21.8726C27.4047 21.8726 32.9358 21.8726 38.5482 21.8726C35.742 17.7921 32.9765 13.7658 30.1567 9.67169C27.337 13.7658 24.5714 17.7921 21.7652 21.8726ZM13.3195 9.92926C10.5539 13.9556 7.84262 17.887 5.1042 21.8862C9.63209 21.8862 14.0515 21.8862 18.5523 21.8862C16.8035 17.9005 15.0818 13.9556 13.3195 9.92926ZM41.7611 21.8862C46.2755 21.8862 50.6949 21.8862 55.2093 21.8862C52.4573 17.887 49.746 13.942 46.994 9.94282C45.2316 13.9691 43.5099 17.9005 41.7611 21.8862ZM20.152 20.9507C22.9175 16.9244 25.6288 12.993 28.3673 9.00742C23.8394 9.00742 19.4199 9.00742 14.9327 9.00742C16.6679 12.9795 18.3896 16.9109 20.152 20.9507ZM40.1615 20.9507C41.9238 16.9109 43.6455 12.9795 45.3943 9.00742C40.8935 9.00742 36.4741 9.00742 31.9597 9.00742C34.6846 12.993 37.3959 16.9244 40.1615 20.9507Z" fill="#74CCD8"/>
<path d="M81.6511 13.2575V14.9315H76.4851V26.1095H74.4871V13.2575H81.6511ZM89.9388 26.1095L88.7328 22.4015H84.1428L82.9368 26.1095H80.8488L85.3668 13.2035H87.5268L92.0268 26.1095H89.9388ZM87.0228 17.0915C86.9868 16.9475 86.9268 16.7495 86.8428 16.4975C86.7708 16.2335 86.6988 15.9635 86.6268 15.6875C86.5548 15.3995 86.4888 15.1595 86.4288 14.9675C86.3808 15.2315 86.3208 15.4955 86.2488 15.7595C86.1768 16.0235 86.1108 16.2695 86.0508 16.4975C85.9908 16.7255 85.9368 16.9235 85.8888 17.0915L84.7008 20.7095H88.2108L87.0228 17.0915ZM97.0861 13.2575C98.6581 13.2575 99.8041 13.5995 100.524 14.2835C101.256 14.9555 101.622 15.8975 101.622 17.1095C101.622 17.6495 101.538 18.1655 101.37 18.6575C101.214 19.1495 100.95 19.5935 100.578 19.9895C100.218 20.3735 99.7321 20.6795 99.1201 20.9075C98.5081 21.1235 97.7581 21.2315 96.8701 21.2315H95.6101V26.1095H93.6121V13.2575H97.0861ZM96.9781 14.8955H95.6101V19.5935H96.6541C97.3021 19.5935 97.8421 19.5155 98.2741 19.3595C98.7061 19.1915 99.0301 18.9335 99.2461 18.5855C99.4741 18.2255 99.5881 17.7575 99.5881 17.1815C99.5881 16.4135 99.3781 15.8435 98.9581 15.4715C98.5381 15.0875 97.8781 14.8955 96.9781 14.8955ZM110.681 26.1095L109.475 22.4015H104.885L103.679 26.1095H101.591L106.109 13.2035H108.269L112.769 26.1095H110.681ZM107.765 17.0915C107.729 16.9475 107.669 16.7495 107.585 16.4975C107.513 16.2335 107.441 15.9635 107.369 15.6875C107.297 15.3995 107.231 15.1595 107.171 14.9675C107.123 15.2315 107.063 15.4955 106.991 15.7595C106.919 16.0235 106.853 16.2695 106.793 16.4975C106.733 16.7255 106.679 16.9235 106.631 17.0915L105.443 20.7095H108.953L107.765 17.0915ZM123.894 26.1095H121.896V20.2415H116.352V26.1095H114.354V13.2575H116.352V18.5855H121.896V13.2575H123.894V26.1095ZM131.258 26.1095H129.278V14.9315H125.714V13.2575H134.804V14.9315H131.258V26.1095ZM136.644 13.2575H138.48V20.0615C138.48 20.3615 138.474 20.6915 138.462 21.0515C138.462 21.4115 138.456 21.7655 138.444 22.1135C138.432 22.4615 138.42 22.7735 138.408 23.0495C138.396 23.3135 138.378 23.5115 138.354 23.6435H138.426L144.618 13.2575H146.886V26.1095H145.05V19.3595C145.05 19.0355 145.056 18.6875 145.068 18.3155C145.08 17.9315 145.092 17.5595 145.104 17.1995C145.116 16.8395 145.128 16.5275 145.14 16.2635C145.164 15.9875 145.176 15.7895 145.176 15.6695H145.122L138.93 26.1095H136.644V13.2575ZM153.89 20.8895L150.938 26.1095H148.652L152.036 20.4755C151.652 20.3315 151.28 20.1215 150.92 19.8455C150.572 19.5575 150.284 19.1795 150.056 18.7115C149.828 18.2315 149.714 17.6195 149.714 16.8755C149.714 15.7115 150.098 14.8175 150.866 14.1935C151.646 13.5695 152.792 13.2575 154.304 13.2575H157.886V26.1095H155.906V20.8895H153.89ZM154.358 14.8955C153.782 14.8955 153.296 14.9675 152.9 15.1115C152.516 15.2555 152.228 15.4835 152.036 15.7955C151.844 16.0955 151.748 16.4915 151.748 16.9835C151.748 17.7155 151.97 18.2855 152.414 18.6935C152.858 19.0895 153.53 19.2875 154.43 19.2875H155.906V14.8955H154.358ZM83.7751 51.1095H81.4531L76.4851 44.5935V51.1095H74.4871V38.2575H76.4851V44.4855L81.3451 38.2575H83.5411L78.6811 44.4855L83.7751 51.1095ZM92.8392 51.1095L91.6332 47.4015H87.0432L85.8372 51.1095H83.7492L88.2672 38.2035H90.4272L94.9272 51.1095H92.8392ZM89.9232 42.0915C89.8872 41.9475 89.8272 41.7495 89.7432 41.4975C89.6712 41.2335 89.5992 40.9635 89.5272 40.6875C89.4552 40.3995 89.3892 40.1595 89.3292 39.9675C89.2812 40.2315 89.2212 40.4955 89.1492 40.7595C89.0772 41.0235 89.0112 41.2695 88.9512 41.4975C88.8912 41.7255 88.8372 41.9235 88.7892 42.0915L87.6012 45.7095H91.1112L89.9232 42.0915ZM104.597 51.1095H102.599V45.9255C101.915 46.1775 101.285 46.3755 100.709 46.5195C100.133 46.6635 99.5208 46.7355 98.8728 46.7355C97.7448 46.7355 96.8628 46.4535 96.2268 45.8895C95.6028 45.3255 95.2908 44.5095 95.2908 43.4415V38.2575H97.2708V43.0455C97.2708 43.7175 97.4268 44.2215 97.7388 44.5575C98.0508 44.8935 98.5668 45.0615 99.2868 45.0615C99.8628 45.0615 100.403 45.0015 100.907 44.8815C101.411 44.7495 101.975 44.5695 102.599 44.3415V38.2575H104.597V51.1095ZM114.585 51.1095H107.727V38.2575H114.585V39.9135H109.725V43.5855H114.297V45.2235H109.725V49.4355H114.585V51.1095ZM122.334 39.7515C121.758 39.7515 121.236 39.8655 120.768 40.0935C120.312 40.3095 119.922 40.6335 119.598 41.0655C119.286 41.4975 119.046 42.0195 118.878 42.6315C118.71 43.2435 118.626 43.9335 118.626 44.7015C118.626 45.7095 118.764 46.5855 119.04 47.3295C119.316 48.0615 119.73 48.6255 120.282 49.0215C120.834 49.4175 121.518 49.6155 122.334 49.6155C122.862 49.6155 123.366 49.5675 123.846 49.4715C124.326 49.3635 124.812 49.2255 125.304 49.0575V50.7315C124.824 50.9235 124.332 51.0615 123.828 51.1455C123.336 51.2415 122.76 51.2895 122.1 51.2895C120.852 51.2895 119.82 51.0195 119.004 50.4795C118.188 49.9395 117.576 49.1715 117.168 48.1755C116.76 47.1795 116.556 46.0155 116.556 44.6835C116.556 43.7115 116.682 42.8235 116.934 42.0195C117.186 41.2035 117.558 40.5015 118.05 39.9135C118.542 39.3255 119.148 38.8755 119.868 38.5635C120.588 38.2395 121.41 38.0775 122.334 38.0775C122.958 38.0775 123.57 38.1495 124.17 38.2935C124.77 38.4255 125.304 38.6175 125.772 38.8695L125.07 40.4895C124.674 40.2975 124.242 40.1295 123.774 39.9855C123.318 39.8295 122.838 39.7515 122.334 39.7515ZM132.084 51.1095H130.104V39.9315H126.54V38.2575H135.63V39.9315H132.084V51.1095ZM141.088 38.2575C142.12 38.2575 142.984 38.3595 143.68 38.5635C144.376 38.7675 144.898 39.1095 145.246 39.5895C145.594 40.0575 145.768 40.6815 145.768 41.4615C145.768 41.9655 145.684 42.4155 145.516 42.8115C145.348 43.1955 145.102 43.5195 144.778 43.7835C144.454 44.0355 144.07 44.2035 143.626 44.2875V44.3775C144.082 44.4615 144.502 44.6175 144.886 44.8455C145.27 45.0615 145.57 45.3795 145.786 45.7995C146.014 46.2195 146.128 46.7655 146.128 47.4375C146.128 48.2175 145.954 48.8835 145.606 49.4355C145.258 49.9755 144.76 50.3895 144.112 50.6775C143.476 50.9655 142.714 51.1095 141.826 51.1095H137.452V38.2575H141.088ZM141.34 43.6215C142.252 43.6215 142.876 43.4595 143.212 43.1355C143.548 42.8115 143.716 42.3315 143.716 41.6955C143.716 41.0475 143.512 40.5855 143.104 40.3095C142.696 40.0335 142.048 39.8955 141.16 39.8955H139.45V43.6215H141.34ZM139.45 45.2055V49.4895H141.538C142.474 49.4895 143.128 49.2855 143.5 48.8775C143.872 48.4695 144.058 47.9295 144.058 47.2575C144.058 46.8495 143.974 46.4895 143.806 46.1775C143.638 45.8655 143.362 45.6255 142.978 45.4575C142.606 45.2895 142.096 45.2055 141.448 45.2055H139.45ZM156.12 51.1095L154.914 47.4015H150.324L149.118 51.1095H147.03L151.548 38.2035H153.708L158.208 51.1095H156.12ZM153.204 42.0915C153.168 41.9475 153.108 41.7495 153.024 41.4975C152.952 41.2335 152.88 40.9635 152.808 40.6875C152.736 40.3995 152.67 40.1595 152.61 39.9675C152.562 40.2315 152.502 40.4955 152.43 40.7595C152.358 41.0235 152.292 41.2695 152.232 41.4975C152.172 41.7255 152.118 41.9235 152.07 42.0915L150.882 45.7095H154.392L153.204 42.0915Z" fill="#090F24"/>
<circle cx="300.058" cy="13.6645" r="5.22143" fill="white"/>
<circle cx="336.238" cy="31.4379" r="5.22143" fill="white"/>
<rect x="330.756" y="8.57513" width="10.7031" height="10.7031" fill="white"/>
<rect x="318.075" y="41.8511" width="10.7031" height="10.7031" transform="rotate(45 318.075 41.8511)" fill="white"/>
<path d="M333.715 47.0376L330.188 49.2821L333.715 51.6869L336.12 55.6949L338.444 51.6869L342.052 49.2821L338.444 47.0376L336.12 42.8693L333.715 47.0376Z" fill="white"/>
<rect x="295.795" y="44.0677" width="8.02105" height="10.7031" fill="white"/>
<path d="M314.637 25.8208L311.594 31.3439L314.637 37.5433H320.949L324.556 31.3439L321.739 25.8208H314.637Z" fill="white"/>
<path d="M318.004 8.07983L312.072 19.2221H324.577L318.004 8.07983Z" fill="white"/>
<path d="M300.048 35.4144L296.04 37.4986L296.681 33.0898L293.475 29.9635L297.643 29.0818L300.048 25.5547L301.972 29.0818L305.819 29.9635L303.014 33.0898L304.136 37.4986L300.048 35.4144Z" fill="white"/>
<path d="M296 38.7592C295.811 38.7592 295.622 38.7024 295.452 38.5889C295.149 38.3808 295.017 38.0214 295.054 37.6619L295.698 33.5567L292.709 30.6812C292.444 30.4353 292.349 30.0569 292.463 29.7164C292.576 29.3759 292.86 29.111 293.219 29.0543L297.325 28.4111L299.103 24.7032C299.254 24.3816 299.576 24.2113 299.935 24.2113C299.935 24.2113 299.935 24.2113 299.954 24.2113C300.314 24.2113 300.635 24.3626 300.806 24.6843L302.697 28.3732L306.821 28.9029C307.181 28.9408 307.484 29.1867 307.597 29.5272C307.711 29.8678 307.616 30.2461 307.37 30.492L304.438 33.4243L305.176 37.4349C305.194 37.5106 305.213 37.5863 305.213 37.6619C305.213 38.1916 304.797 38.5889 304.267 38.5889C304.116 38.5889 303.965 38.57 303.832 38.5132L300.124 36.6404L296.473 38.6267C296.303 38.7024 296.152 38.7592 296 38.7592ZM295.395 30.6434L297.381 32.5352C297.608 32.7433 297.722 33.0649 297.665 33.3676L297.23 36.0539L299.633 34.7486C299.897 34.5972 300.238 34.5972 300.522 34.7297L302.962 35.9782L302.47 33.2919C302.414 32.9892 302.508 32.6676 302.735 32.4595L304.665 30.5299L301.96 30.1704C301.657 30.1326 301.373 29.9434 301.241 29.6597L299.973 27.2192L298.8 29.6975C298.668 29.9813 298.403 30.1704 298.1 30.2272L295.395 30.6434Z" fill="#74CCD8"/>
<path d="M336.277 56.9392C335.936 56.9392 335.614 56.75 335.444 56.4474L333.212 52.38L329.145 50.1477C328.842 49.9774 328.653 49.6558 328.653 49.3153C328.653 48.9748 328.842 48.6532 329.145 48.4829L333.212 46.2506L335.444 42.1833C335.614 41.8806 335.936 41.6914 336.277 41.6914C336.617 41.6914 336.939 41.8806 337.109 42.1833L339.322 46.2695L343.39 48.5018C343.692 48.6721 343.882 48.9937 343.882 49.3342C343.882 49.6748 343.692 49.9964 343.39 50.1666L339.322 52.38L337.09 56.4474C336.939 56.75 336.617 56.9392 336.277 56.9392ZM331.585 49.3342L334.385 50.8666C334.536 50.9612 334.669 51.0747 334.763 51.2449L336.295 54.0448L337.828 51.2449C337.922 51.0936 338.036 50.9612 338.206 50.8666L341.006 49.3342L338.206 47.8019C338.055 47.7073 337.922 47.5938 337.828 47.4235L336.295 44.6237L334.763 47.4235C334.669 47.5749 334.555 47.7073 334.385 47.8019L331.585 49.3342Z" fill="#74CCD8"/>
<path d="M321.615 38.3997H314.767C314.426 38.3997 314.124 38.2105 313.953 37.9267L310.529 31.9676C310.359 31.6838 310.359 31.3244 310.529 31.0217L313.953 25.0815C314.124 24.7788 314.426 24.6085 314.767 24.6085H321.615C321.956 24.6085 322.258 24.7977 322.429 25.0815L325.853 31.0406C326.023 31.3244 326.023 31.6838 325.853 31.9865L322.429 37.9456C322.277 38.2294 321.956 38.3997 321.615 38.3997ZM315.316 36.5079H321.067L323.942 31.4946L321.067 26.4814H315.316L312.44 31.4946L315.316 36.5079Z" fill="#74CCD8"/>
<path d="M341.914 20.2196H330.696C330.166 20.2196 329.75 19.8034 329.75 19.2737V8.05539C329.75 7.52569 330.166 7.1095 330.696 7.1095H341.914C342.444 7.1095 342.86 7.52569 342.86 8.05539V19.2737C342.86 19.8034 342.444 20.2196 341.914 20.2196ZM331.642 18.3278H340.968V9.00129H331.642V18.3278Z" fill="#74CCD8"/>
<path d="M304.116 55.9744H295.944C295.414 55.9744 294.998 55.5582 294.998 55.0285V43.8102C294.998 43.2805 295.414 42.8643 295.944 42.8643H304.116C304.646 42.8643 305.062 43.2805 305.062 43.8102V55.0285C305.062 55.5393 304.646 55.9744 304.116 55.9744ZM296.89 54.0826H303.17V44.7561H296.89V54.0826Z" fill="#74CCD8"/>
<path d="M318.191 57.1095C317.945 57.1095 317.699 57.0149 317.529 56.8257L310.775 50.072C310.605 49.9018 310.491 49.6558 310.491 49.4099C310.491 49.164 310.586 48.918 310.775 48.7478L317.529 41.9941C317.907 41.6157 318.494 41.6157 318.872 41.9941L325.626 48.7478C325.796 48.918 325.91 49.164 325.91 49.4099C325.91 49.6558 325.815 49.9018 325.626 50.072L318.872 56.8257C318.683 57.0149 318.437 57.1095 318.191 57.1095ZM312.781 49.4099L318.191 54.8204L323.602 49.4099L318.191 43.9994L312.781 49.4099Z" fill="#74CCD8"/>
<path d="M324.642 20.2385H311.759C311.418 20.2385 311.116 20.0493 310.946 19.7656C310.775 19.4818 310.775 19.1035 310.946 18.8197L317.397 7.65813C317.567 7.37436 317.869 7.18518 318.21 7.18518C318.55 7.18518 318.853 7.37436 319.023 7.65813L325.437 18.744C325.55 18.8954 325.607 19.0845 325.607 19.2926C325.588 19.8223 325.172 20.2385 324.642 20.2385ZM313.386 18.3467H322.996L318.191 10.0229L313.386 18.3467Z" fill="#74CCD8"/>
<path d="M336.352 38.0213C332.72 38.0213 329.769 35.0702 329.769 31.4379C329.769 27.8057 332.72 24.8545 336.352 24.8545C339.984 24.8545 342.936 27.8057 342.936 31.4379C342.936 35.0702 339.984 38.0213 336.352 38.0213ZM336.352 26.7463C333.761 26.7463 331.661 28.8462 331.661 31.4379C331.661 34.0297 333.761 36.1296 336.352 36.1296C338.944 36.1296 341.044 34.0297 341.044 31.4379C341.044 28.8462 338.944 26.7463 336.352 26.7463Z" fill="#74CCD8"/>
<path d="M300.03 20.3142C296.398 20.3142 293.446 17.363 293.446 13.7308C293.446 10.0985 296.398 7.12842 300.03 7.12842C303.662 7.12842 306.613 10.0796 306.613 13.7118C306.613 17.3441 303.662 20.3142 300.03 20.3142ZM300.03 9.02021C297.438 9.02021 295.338 11.1201 295.338 13.7118C295.338 16.3036 297.438 18.4035 300.03 18.4035C302.622 18.4035 304.722 16.3036 304.722 13.7118C304.722 11.1201 302.622 9.02021 300.03 9.02021Z" fill="#74CCD8"/>
<path d="M371.487 19.6655C371.487 20.6615 371.367 21.5675 371.127 22.3835C370.899 23.1875 370.545 23.8835 370.065 24.4715C369.597 25.0595 369.009 25.5095 368.301 25.8215C367.593 26.1335 366.771 26.2895 365.835 26.2895C364.875 26.2895 364.035 26.1335 363.315 25.8215C362.607 25.4975 362.019 25.0475 361.551 24.4715C361.083 23.8835 360.735 23.1815 360.507 22.3655C360.279 21.5495 360.165 20.6435 360.165 19.6475C360.165 18.3275 360.369 17.1755 360.777 16.1915C361.197 15.2075 361.827 14.4395 362.667 13.8875C363.507 13.3355 364.569 13.0595 365.853 13.0595C367.101 13.0595 368.139 13.3355 368.967 13.8875C369.807 14.4275 370.437 15.1955 370.857 16.1915C371.277 17.1755 371.487 18.3335 371.487 19.6655ZM362.271 19.6655C362.271 20.6975 362.391 21.5855 362.631 22.3295C362.883 23.0615 363.273 23.6315 363.801 24.0395C364.341 24.4355 365.019 24.6335 365.835 24.6335C366.663 24.6335 367.335 24.4355 367.851 24.0395C368.379 23.6315 368.763 23.0615 369.003 22.3295C369.255 21.5855 369.381 20.6975 369.381 19.6655C369.381 18.1175 369.099 16.9115 368.535 16.0475C367.971 15.1715 367.077 14.7335 365.853 14.7335C365.025 14.7335 364.341 14.9315 363.801 15.3275C363.273 15.7235 362.883 16.2875 362.631 17.0195C362.391 17.7515 362.271 18.6335 362.271 19.6655ZM381.211 13.2575V14.9315H376.045V26.1095H374.047V13.2575H381.211ZM386.644 13.2575C388.216 13.2575 389.362 13.5995 390.082 14.2835C390.814 14.9555 391.18 15.8975 391.18 17.1095C391.18 17.6495 391.096 18.1655 390.928 18.6575C390.772 19.1495 390.508 19.5935 390.136 19.9895C389.776 20.3735 389.29 20.6795 388.678 20.9075C388.066 21.1235 387.316 21.2315 386.428 21.2315H385.168V26.1095H383.17V13.2575H386.644ZM386.536 14.8955H385.168V19.5935H386.212C386.86 19.5935 387.4 19.5155 387.832 19.3595C388.264 19.1915 388.588 18.9335 388.804 18.5855C389.032 18.2255 389.146 17.7575 389.146 17.1815C389.146 16.4135 388.936 15.8435 388.516 15.4715C388.096 15.0875 387.436 14.8955 386.536 14.8955ZM404.305 19.6655C404.305 20.6615 404.185 21.5675 403.945 22.3835C403.717 23.1875 403.363 23.8835 402.883 24.4715C402.415 25.0595 401.827 25.5095 401.119 25.8215C400.411 26.1335 399.589 26.2895 398.653 26.2895C397.693 26.2895 396.853 26.1335 396.133 25.8215C395.425 25.4975 394.837 25.0475 394.369 24.4715C393.901 23.8835 393.553 23.1815 393.325 22.3655C393.097 21.5495 392.983 20.6435 392.983 19.6475C392.983 18.3275 393.187 17.1755 393.595 16.1915C394.015 15.2075 394.645 14.4395 395.485 13.8875C396.325 13.3355 397.387 13.0595 398.671 13.0595C399.919 13.0595 400.957 13.3355 401.785 13.8875C402.625 14.4275 403.255 15.1955 403.675 16.1915C404.095 17.1755 404.305 18.3335 404.305 19.6655ZM395.089 19.6655C395.089 20.6975 395.209 21.5855 395.449 22.3295C395.701 23.0615 396.091 23.6315 396.619 24.0395C397.159 24.4355 397.837 24.6335 398.653 24.6335C399.481 24.6335 400.153 24.4355 400.669 24.0395C401.197 23.6315 401.581 23.0615 401.821 22.3295C402.073 21.5855 402.199 20.6975 402.199 19.6655C402.199 18.1175 401.917 16.9115 401.353 16.0475C400.789 15.1715 399.895 14.7335 398.671 14.7335C397.843 14.7335 397.159 14.9315 396.619 15.3275C396.091 15.7235 395.701 16.2875 395.449 17.0195C395.209 17.7515 395.089 18.6335 395.089 19.6655ZM412.14 26.1095L408.612 15.1835H408.54C408.564 15.4235 408.582 15.7475 408.594 16.1555C408.618 16.5635 408.636 17.0015 408.648 17.4695C408.672 17.9375 408.684 18.3995 408.684 18.8555V26.1095H406.866V13.2575H409.674L413.058 23.5715H413.112L416.55 13.2575H419.358V26.1095H417.45V18.7475C417.45 18.3275 417.456 17.8955 417.468 17.4515C417.48 16.9955 417.498 16.5695 417.522 16.1735C417.546 15.7775 417.564 15.4535 417.576 15.2015H417.504L413.886 26.1095H412.14ZM432.05 26.1095H430.052V20.2415H424.508V26.1095H422.51V13.2575H424.508V18.5855H430.052V13.2575H432.05V26.1095ZM435.202 26.1095V13.2575H437.2V18.5495H438.73C439.858 18.5495 440.752 18.7115 441.412 19.0355C442.072 19.3595 442.552 19.8035 442.852 20.3675C443.152 20.9315 443.302 21.5675 443.302 22.2755C443.302 23.0555 443.14 23.7335 442.816 24.3095C442.492 24.8855 441.994 25.3295 441.322 25.6415C440.662 25.9535 439.816 26.1095 438.784 26.1095H435.202ZM438.694 24.4895C439.558 24.4895 440.2 24.3095 440.62 23.9495C441.052 23.5895 441.268 23.0315 441.268 22.2755C441.268 21.7475 441.166 21.3335 440.962 21.0335C440.758 20.7335 440.452 20.5235 440.044 20.4035C439.648 20.2715 439.144 20.2055 438.532 20.2055H437.2V24.4895H438.694ZM444.94 26.1095V13.2575H446.92V26.1095H444.94ZM458.929 9.1895C458.881 9.8015 458.731 10.3235 458.479 10.7555C458.227 11.1755 457.855 11.4995 457.363 11.7275C456.871 11.9435 456.223 12.0515 455.419 12.0515C454.615 12.0515 453.967 11.9435 453.475 11.7275C452.995 11.4995 452.641 11.1755 452.413 10.7555C452.185 10.3355 452.047 9.8135 451.999 9.1895H453.763C453.811 9.8375 453.961 10.2755 454.213 10.5035C454.477 10.7195 454.885 10.8275 455.437 10.8275C455.929 10.8275 456.325 10.7135 456.625 10.4855C456.925 10.2455 457.099 9.8135 457.147 9.1895H458.929ZM450.091 13.2575H451.927V20.0615C451.927 20.3615 451.921 20.6915 451.909 21.0515C451.909 21.4115 451.903 21.7655 451.891 22.1135C451.879 22.4615 451.867 22.7735 451.855 23.0495C451.843 23.3135 451.825 23.5115 451.801 23.6435H451.873L458.065 13.2575H460.333V26.1095H458.497V19.3595C458.497 19.0355 458.503 18.6875 458.515 18.3155C458.527 17.9315 458.539 17.5595 458.551 17.1995C458.563 16.8395 458.575 16.5275 458.587 16.2635C458.611 15.9875 458.623 15.7895 458.623 15.6695H458.569L452.377 26.1095H450.091V13.2575ZM368.265 51.1095L367.059 47.4015H362.469L361.263 51.1095H359.175L363.693 38.2035H365.853L370.353 51.1095H368.265ZM365.349 42.0915C365.313 41.9475 365.253 41.7495 365.169 41.4975C365.097 41.2335 365.025 40.9635 364.953 40.6875C364.881 40.3995 364.815 40.1595 364.755 39.9675C364.707 40.2315 364.647 40.4955 364.575 40.7595C364.503 41.0235 364.437 41.2695 364.377 41.4975C364.317 41.7255 364.263 41.9235 364.215 42.0915L363.027 45.7095H366.537L365.349 42.0915ZM377.14 39.7515C376.564 39.7515 376.042 39.8655 375.574 40.0935C375.118 40.3095 374.728 40.6335 374.404 41.0655C374.092 41.4975 373.852 42.0195 373.684 42.6315C373.516 43.2435 373.432 43.9335 373.432 44.7015C373.432 45.7095 373.57 46.5855 373.846 47.3295C374.122 48.0615 374.536 48.6255 375.088 49.0215C375.64 49.4175 376.324 49.6155 377.14 49.6155C377.668 49.6155 378.172 49.5675 378.652 49.4715C379.132 49.3635 379.618 49.2255 380.11 49.0575V50.7315C379.63 50.9235 379.138 51.0615 378.634 51.1455C378.142 51.2415 377.566 51.2895 376.906 51.2895C375.658 51.2895 374.626 51.0195 373.81 50.4795C372.994 49.9395 372.382 49.1715 371.974 48.1755C371.566 47.1795 371.362 46.0155 371.362 44.6835C371.362 43.7115 371.488 42.8235 371.74 42.0195C371.992 41.2035 372.364 40.5015 372.856 39.9135C373.348 39.3255 373.954 38.8755 374.674 38.5635C375.394 38.2395 376.216 38.0775 377.14 38.0775C377.764 38.0775 378.376 38.1495 378.976 38.2935C379.576 38.4255 380.11 38.6175 380.578 38.8695L379.876 40.4895C379.48 40.2975 379.048 40.1295 378.58 39.9855C378.124 39.8295 377.644 39.7515 377.14 39.7515ZM387.546 39.7515C386.97 39.7515 386.448 39.8655 385.98 40.0935C385.524 40.3095 385.134 40.6335 384.81 41.0655C384.498 41.4975 384.258 42.0195 384.09 42.6315C383.922 43.2435 383.838 43.9335 383.838 44.7015C383.838 45.7095 383.976 46.5855 384.252 47.3295C384.528 48.0615 384.942 48.6255 385.494 49.0215C386.046 49.4175 386.73 49.6155 387.546 49.6155C388.074 49.6155 388.578 49.5675 389.058 49.4715C389.538 49.3635 390.024 49.2255 390.516 49.0575V50.7315C390.036 50.9235 389.544 51.0615 389.04 51.1455C388.548 51.2415 387.972 51.2895 387.312 51.2895C386.064 51.2895 385.032 51.0195 384.216 50.4795C383.4 49.9395 382.788 49.1715 382.38 48.1755C381.972 47.1795 381.768 46.0155 381.768 44.6835C381.768 43.7115 381.894 42.8235 382.146 42.0195C382.398 41.2035 382.77 40.5015 383.262 39.9135C383.754 39.3255 384.36 38.8755 385.08 38.5635C385.8 38.2395 386.622 38.0775 387.546 38.0775C388.17 38.0775 388.782 38.1495 389.382 38.2935C389.982 38.4255 390.516 38.6175 390.984 38.8695L390.282 40.4895C389.886 40.2975 389.454 40.1295 388.986 39.9855C388.53 39.8295 388.05 39.7515 387.546 39.7515ZM403.497 44.6655C403.497 45.6615 403.377 46.5675 403.137 47.3835C402.909 48.1875 402.555 48.8835 402.075 49.4715C401.607 50.0595 401.019 50.5095 400.311 50.8215C399.603 51.1335 398.781 51.2895 397.845 51.2895C396.885 51.2895 396.045 51.1335 395.325 50.8215C394.617 50.4975 394.029 50.0475 393.561 49.4715C393.093 48.8835 392.745 48.1815 392.517 47.3655C392.289 46.5495 392.175 45.6435 392.175 44.6475C392.175 43.3275 392.379 42.1755 392.787 41.1915C393.207 40.2075 393.837 39.4395 394.677 38.8875C395.517 38.3355 396.579 38.0595 397.863 38.0595C399.111 38.0595 400.149 38.3355 400.977 38.8875C401.817 39.4275 402.447 40.1955 402.867 41.1915C403.287 42.1755 403.497 43.3335 403.497 44.6655ZM394.281 44.6655C394.281 45.6975 394.401 46.5855 394.641 47.3295C394.893 48.0615 395.283 48.6315 395.811 49.0395C396.351 49.4355 397.029 49.6335 397.845 49.6335C398.673 49.6335 399.345 49.4355 399.861 49.0395C400.389 48.6315 400.773 48.0615 401.013 47.3295C401.265 46.5855 401.391 45.6975 401.391 44.6655C401.391 43.1175 401.109 41.9115 400.545 41.0475C399.981 40.1715 399.087 39.7335 397.863 39.7335C397.035 39.7335 396.351 39.9315 395.811 40.3275C395.283 40.7235 394.893 41.2875 394.641 42.0195C394.401 42.7515 394.281 43.6335 394.281 44.6655ZM409.531 38.2575C411.103 38.2575 412.249 38.5995 412.969 39.2835C413.701 39.9555 414.067 40.8975 414.067 42.1095C414.067 42.6495 413.983 43.1655 413.815 43.6575C413.659 44.1495 413.395 44.5935 413.023 44.9895C412.663 45.3735 412.177 45.6795 411.565 45.9075C410.953 46.1235 410.203 46.2315 409.315 46.2315H408.055V51.1095H406.057V38.2575H409.531ZM409.423 39.8955H408.055V44.5935H409.099C409.747 44.5935 410.287 44.5155 410.719 44.3595C411.151 44.1915 411.475 43.9335 411.691 43.5855C411.919 43.2255 412.033 42.7575 412.033 42.1815C412.033 41.4135 411.823 40.8435 411.403 40.4715C410.983 40.0875 410.323 39.8955 409.423 39.8955ZM420.658 51.1095H418.678V39.9315H415.114V38.2575H424.204V39.9315H420.658V51.1095ZM426.044 38.2575H427.88V45.0615C427.88 45.3615 427.874 45.6915 427.862 46.0515C427.862 46.4115 427.856 46.7655 427.844 47.1135C427.832 47.4615 427.82 47.7735 427.808 48.0495C427.796 48.3135 427.778 48.5115 427.754 48.6435H427.826L434.018 38.2575H436.286V51.1095H434.45V44.3595C434.45 44.0355 434.456 43.6875 434.468 43.3155C434.48 42.9315 434.492 42.5595 434.504 42.1995C434.516 41.8395 434.528 41.5275 434.54 41.2635C434.564 40.9875 434.576 40.7895 434.576 40.6695H434.522L428.33 51.1095H426.044V38.2575ZM444.694 51.1095L441.166 40.1835H441.094C441.118 40.4235 441.136 40.7475 441.148 41.1555C441.172 41.5635 441.19 42.0015 441.202 42.4695C441.226 42.9375 441.238 43.3995 441.238 43.8555V51.1095H439.42V38.2575H442.228L445.612 48.5715H445.666L449.104 38.2575H451.912V51.1095H450.004V43.7475C450.004 43.3275 450.01 42.8955 450.022 42.4515C450.034 41.9955 450.052 41.5695 450.076 41.1735C450.1 40.7775 450.118 40.4535 450.13 40.2015H450.058L446.44 51.1095H444.694ZM461.923 51.1095H455.065V38.2575H461.923V39.9135H457.063V43.5855H461.635V45.2235H457.063V49.4355H461.923V51.1095ZM474.009 51.1095H472.011V45.2415H466.467V51.1095H464.469V38.2575H466.467V43.5855H472.011V38.2575H474.009V51.1095ZM481.373 51.1095H479.393V39.9315H475.829V38.2575H484.919V39.9315H481.373V51.1095Z" fill="#090F24"/>
<path d="M686.376 26.1095V13.2575H693.774V14.9315H688.374V18.5495H689.922C691.086 18.5495 692.004 18.7115 692.676 19.0355C693.36 19.3595 693.846 19.8035 694.134 20.3675C694.422 20.9195 694.566 21.5555 694.566 22.2755C694.566 23.0675 694.41 23.7515 694.098 24.3275C693.786 24.9035 693.288 25.3475 692.604 25.6595C691.932 25.9595 691.062 26.1095 689.994 26.1095H686.376ZM689.886 24.4715C690.834 24.4715 691.512 24.2975 691.92 23.9495C692.328 23.5895 692.532 23.0315 692.532 22.2755C692.532 21.7475 692.43 21.3335 692.226 21.0335C692.034 20.7335 691.728 20.5175 691.308 20.3855C690.888 20.2535 690.348 20.1875 689.688 20.1875H688.374V24.4715H689.886ZM696.958 26.1095V13.2575H698.956V18.5495H700.486C701.614 18.5495 702.508 18.7115 703.168 19.0355C703.828 19.3595 704.308 19.8035 704.608 20.3675C704.908 20.9315 705.058 21.5675 705.058 22.2755C705.058 23.0555 704.896 23.7335 704.572 24.3095C704.248 24.8855 703.75 25.3295 703.078 25.6415C702.418 25.9535 701.572 26.1095 700.54 26.1095H696.958ZM700.45 24.4895C701.314 24.4895 701.956 24.3095 702.376 23.9495C702.808 23.5895 703.024 23.0315 703.024 22.2755C703.024 21.7475 702.922 21.3335 702.718 21.0335C702.514 20.7335 702.208 20.5235 701.8 20.4035C701.404 20.2715 700.9 20.2055 700.288 20.2055H698.956V24.4895H700.45ZM706.696 26.1095V13.2575H708.676V26.1095H706.696ZM717.031 14.7515C716.455 14.7515 715.933 14.8655 715.465 15.0935C715.009 15.3095 714.619 15.6335 714.295 16.0655C713.983 16.4975 713.743 17.0195 713.575 17.6315C713.407 18.2435 713.323 18.9335 713.323 19.7015C713.323 20.7095 713.461 21.5855 713.737 22.3295C714.013 23.0615 714.427 23.6255 714.979 24.0215C715.531 24.4175 716.215 24.6155 717.031 24.6155C717.559 24.6155 718.063 24.5675 718.543 24.4715C719.023 24.3635 719.509 24.2255 720.001 24.0575V25.7315C719.521 25.9235 719.029 26.0615 718.525 26.1455C718.033 26.2415 717.457 26.2895 716.797 26.2895C715.549 26.2895 714.517 26.0195 713.701 25.4795C712.885 24.9395 712.273 24.1715 711.865 23.1755C711.457 22.1795 711.253 21.0155 711.253 19.6835C711.253 18.7115 711.379 17.8235 711.631 17.0195C711.883 16.2035 712.255 15.5015 712.747 14.9135C713.239 14.3255 713.845 13.8755 714.565 13.5635C715.285 13.2395 716.107 13.0775 717.031 13.0775C717.655 13.0775 718.267 13.1495 718.867 13.2935C719.467 13.4255 720.001 13.6175 720.469 13.8695L719.767 15.4895C719.371 15.2975 718.939 15.1295 718.471 14.9855C718.015 14.8295 717.535 14.7515 717.031 14.7515ZM726.781 26.1095H724.801V14.9315H721.237V13.2575H730.327V14.9315H726.781V26.1095ZM735.623 13.2575C737.195 13.2575 738.341 13.5995 739.061 14.2835C739.793 14.9555 740.159 15.8975 740.159 17.1095C740.159 17.6495 740.075 18.1655 739.907 18.6575C739.751 19.1495 739.487 19.5935 739.115 19.9895C738.755 20.3735 738.269 20.6795 737.657 20.9075C737.045 21.1235 736.295 21.2315 735.407 21.2315H734.147V26.1095H732.149V13.2575H735.623ZM735.515 14.8955H734.147V19.5935H735.191C735.839 19.5935 736.379 19.5155 736.811 19.3595C737.243 19.1915 737.567 18.9335 737.783 18.5855C738.011 18.2255 738.125 17.7575 738.125 17.1815C738.125 16.4135 737.915 15.8435 737.495 15.4715C737.075 15.0875 736.415 14.8955 735.515 14.8955ZM749.218 26.1095L748.012 22.4015H743.422L742.216 26.1095H740.128L744.646 13.2035H746.806L751.306 26.1095H749.218ZM746.302 17.0915C746.266 16.9475 746.206 16.7495 746.122 16.4975C746.05 16.2335 745.978 15.9635 745.906 15.6875C745.834 15.3995 745.768 15.1595 745.708 14.9675C745.66 15.2315 745.6 15.4955 745.528 15.7595C745.456 16.0235 745.39 16.2695 745.33 16.4975C745.27 16.7255 745.216 16.9235 745.168 17.0915L743.98 20.7095H747.49L746.302 17.0915ZM756.762 20.8895L753.81 26.1095H751.524L754.908 20.4755C754.524 20.3315 754.152 20.1215 753.792 19.8455C753.444 19.5575 753.156 19.1795 752.928 18.7115C752.7 18.2315 752.586 17.6195 752.586 16.8755C752.586 15.7115 752.97 14.8175 753.738 14.1935C754.518 13.5695 755.664 13.2575 757.176 13.2575H760.758V26.1095H758.778V20.8895H756.762ZM757.23 14.8955C756.654 14.8955 756.168 14.9675 755.772 15.1115C755.388 15.2555 755.1 15.4835 754.908 15.7955C754.716 16.0955 754.62 16.4915 754.62 16.9835C754.62 17.7155 754.842 18.2855 755.286 18.6935C755.73 19.0895 756.402 19.2875 757.302 19.2875H758.778V14.8955H757.23ZM695.142 38.2575V49.4175H696.708V54.6015H694.8V51.1095H686.826V54.6015H684.9V49.4175H685.854C686.238 48.6975 686.598 47.9055 686.934 47.0415C687.282 46.1655 687.588 45.2475 687.852 44.2875C688.128 43.3155 688.35 42.3255 688.518 41.3175C688.698 40.2975 688.824 39.2775 688.896 38.2575H695.142ZM690.552 39.9495C690.504 40.6335 690.402 41.3895 690.246 42.2175C690.09 43.0335 689.892 43.8735 689.652 44.7375C689.412 45.6015 689.148 46.4415 688.86 47.2575C688.584 48.0615 688.278 48.7815 687.942 49.4175H693.162V39.9495H690.552ZM709.374 44.6655C709.374 45.6615 709.254 46.5675 709.014 47.3835C708.786 48.1875 708.432 48.8835 707.952 49.4715C707.484 50.0595 706.896 50.5095 706.188 50.8215C705.48 51.1335 704.658 51.2895 703.722 51.2895C702.762 51.2895 701.922 51.1335 701.202 50.8215C700.494 50.4975 699.906 50.0475 699.438 49.4715C698.97 48.8835 698.622 48.1815 698.394 47.3655C698.166 46.5495 698.052 45.6435 698.052 44.6475C698.052 43.3275 698.256 42.1755 698.664 41.1915C699.084 40.2075 699.714 39.4395 700.554 38.8875C701.394 38.3355 702.456 38.0595 703.74 38.0595C704.988 38.0595 706.026 38.3355 706.854 38.8875C707.694 39.4275 708.324 40.1955 708.744 41.1915C709.164 42.1755 709.374 43.3335 709.374 44.6655ZM700.158 44.6655C700.158 45.6975 700.278 46.5855 700.518 47.3295C700.77 48.0615 701.16 48.6315 701.688 49.0395C702.228 49.4355 702.906 49.6335 703.722 49.6335C704.55 49.6335 705.222 49.4355 705.738 49.0395C706.266 48.6315 706.65 48.0615 706.89 47.3295C707.142 46.5855 707.268 45.6975 707.268 44.6655C707.268 43.1175 706.986 41.9115 706.422 41.0475C705.858 40.1715 704.964 39.7335 703.74 39.7335C702.912 39.7335 702.228 39.9315 701.688 40.3275C701.16 40.7235 700.77 41.2875 700.518 42.0195C700.278 42.7515 700.158 43.6335 700.158 44.6655ZM717.137 39.7515C716.561 39.7515 716.039 39.8655 715.571 40.0935C715.115 40.3095 714.725 40.6335 714.401 41.0655C714.089 41.4975 713.849 42.0195 713.681 42.6315C713.513 43.2435 713.429 43.9335 713.429 44.7015C713.429 45.7095 713.567 46.5855 713.843 47.3295C714.119 48.0615 714.533 48.6255 715.085 49.0215C715.637 49.4175 716.321 49.6155 717.137 49.6155C717.665 49.6155 718.169 49.5675 718.649 49.4715C719.129 49.3635 719.615 49.2255 720.107 49.0575V50.7315C719.627 50.9235 719.135 51.0615 718.631 51.1455C718.139 51.2415 717.563 51.2895 716.903 51.2895C715.655 51.2895 714.623 51.0195 713.807 50.4795C712.991 49.9395 712.379 49.1715 711.971 48.1755C711.563 47.1795 711.359 46.0155 711.359 44.6835C711.359 43.7115 711.485 42.8235 711.737 42.0195C711.989 41.2035 712.361 40.5015 712.853 39.9135C713.345 39.3255 713.951 38.8755 714.671 38.5635C715.391 38.2395 716.213 38.0775 717.137 38.0775C717.761 38.0775 718.373 38.1495 718.973 38.2935C719.573 38.4255 720.107 38.6175 720.575 38.8695L719.873 40.4895C719.477 40.2975 719.045 40.1295 718.577 39.9855C718.121 39.8295 717.641 39.7515 717.137 39.7515ZM726.887 51.1095H724.907V39.9315H721.343V38.2575H730.433V39.9315H726.887V51.1095ZM738.584 51.1095L737.378 47.4015H732.788L731.582 51.1095H729.494L734.012 38.2035H736.172L740.672 51.1095H738.584ZM735.668 42.0915C735.632 41.9475 735.572 41.7495 735.488 41.4975C735.416 41.2335 735.344 40.9635 735.272 40.6875C735.2 40.3995 735.134 40.1595 735.074 39.9675C735.026 40.2315 734.966 40.4955 734.894 40.7595C734.822 41.0235 734.756 41.2695 734.696 41.4975C734.636 41.7255 734.582 41.9235 734.534 42.0915L733.346 45.7095H736.856L735.668 42.0915ZM745.893 38.2575C746.925 38.2575 747.789 38.3595 748.485 38.5635C749.181 38.7675 749.703 39.1095 750.051 39.5895C750.399 40.0575 750.573 40.6815 750.573 41.4615C750.573 41.9655 750.489 42.4155 750.321 42.8115C750.153 43.1955 749.907 43.5195 749.583 43.7835C749.259 44.0355 748.875 44.2035 748.431 44.2875V44.3775C748.887 44.4615 749.307 44.6175 749.691 44.8455C750.075 45.0615 750.375 45.3795 750.591 45.7995C750.819 46.2195 750.933 46.7655 750.933 47.4375C750.933 48.2175 750.759 48.8835 750.411 49.4355C750.063 49.9755 749.565 50.3895 748.917 50.6775C748.281 50.9655 747.519 51.1095 746.631 51.1095H742.257V38.2575H745.893ZM746.145 43.6215C747.057 43.6215 747.681 43.4595 748.017 43.1355C748.353 42.8115 748.521 42.3315 748.521 41.6955C748.521 41.0475 748.317 40.5855 747.909 40.3095C747.501 40.0335 746.853 39.8955 745.965 39.8955H744.255V43.6215H746.145ZM744.255 45.2055V49.4895H746.343C747.279 49.4895 747.933 49.2855 748.305 48.8775C748.677 48.4695 748.863 47.9295 748.863 47.2575C748.863 46.8495 748.779 46.4895 748.611 46.1775C748.443 45.8655 748.167 45.6255 747.783 45.4575C747.411 45.2895 746.901 45.2055 746.253 45.2055H744.255ZM762.689 51.1095H760.367L755.399 44.5935V51.1095H753.401V38.2575H755.399V44.4855L760.259 38.2575H762.455L757.595 44.4855L762.689 51.1095ZM771.754 51.1095L770.548 47.4015H765.958L764.752 51.1095H762.664L767.182 38.2035H769.342L773.842 51.1095H771.754ZM768.838 42.0915C768.802 41.9475 768.742 41.7495 768.658 41.4975C768.586 41.2335 768.514 40.9635 768.442 40.6875C768.37 40.3995 768.304 40.1595 768.244 39.9675C768.196 40.2315 768.136 40.4955 768.064 40.7595C767.992 41.0235 767.926 41.2695 767.866 41.4975C767.806 41.7255 767.752 41.9235 767.704 42.0915L766.516 45.7095H770.026L768.838 42.0915Z" fill="#090F24"/>
<circle cx="656.93" cy="50.6762" r="5.58351" fill="white"/>
<circle cx="619.608" cy="50.6762" r="5.58351" fill="white"/>
<path d="M609.162 36.8638V46.1423H612.166C612.633 44.6515 614.782 41.6699 619.642 41.6699C624.501 41.6699 626.962 45.0075 627.585 46.6763H642.671V36.8638H609.162Z" fill="white"/>
<path d="M642.471 32.9254H609.162C609.028 27.207 608.761 14.9958 608.761 11.8986C608.761 8.80127 611.253 8.16046 612.499 8.22721H638.933C641.657 8.22721 642.426 10.9863 642.471 12.3658V32.9254Z" fill="white"/>
<path d="M645.949 17.1887V25.8897H660.885L656.837 18.352L654.603 17.1887H645.949Z" fill="white"/>
<path d="M645.856 30.0308V46.6417H648.973C650.137 45.0287 653.375 41.8026 657.023 41.8026C660.671 41.8026 663.63 45.0287 664.654 46.6417H667.399L668.748 46.0833V32.6364L662.932 30.0308H645.856Z" fill="white"/>
<path d="M643.386 47.5711H626.754L626.52 47.0564C625.292 44.343 622.508 42.5301 619.608 42.5301C616.707 42.5301 613.924 44.3547 612.695 47.0564L612.462 47.5711H609.959C608.789 47.5711 607.865 46.6237 607.865 45.419V35.5126H643.386V47.5711ZM627.865 45.8167H641.631V37.267H609.619V45.4307C609.619 45.5009 609.631 45.8284 609.959 45.8284H611.35C612.976 42.7406 616.157 40.7874 619.608 40.7874C623.058 40.7757 626.239 42.7406 627.865 45.8167Z" fill="#74CCD8"/>
<path d="M619.608 57.2669C615.97 57.2669 613.011 54.3078 613.011 50.6821C613.011 47.0446 615.97 44.0856 619.608 44.0856C623.245 44.0856 626.204 47.0446 626.204 50.6821C626.193 54.3078 623.233 57.2669 619.608 57.2669ZM619.608 45.84C616.941 45.84 614.766 48.0037 614.766 50.6821C614.766 53.3487 616.929 55.5125 619.596 55.5125C622.263 55.5125 624.426 53.337 624.438 50.6704C624.438 48.0037 622.274 45.84 619.608 45.84Z" fill="#74CCD8"/>
<path d="M667.716 47.571H663.926L663.692 47.0564C662.464 44.3429 659.681 42.5301 656.78 42.5301C653.879 42.5301 651.096 44.3546 649.868 47.0564L649.634 47.571H644.897V28.9277H662.932L668.569 31.4073C669.353 31.7815 669.833 32.5769 669.809 33.4424V45.4307C669.809 46.6353 668.885 47.571 667.716 47.571ZM665.037 45.8166H667.716C668.031 45.8166 668.055 45.4891 668.055 45.419V33.3839C668.055 33.2201 667.973 33.0564 667.821 32.9745L662.569 30.6704H646.663V45.8166H648.534C650.16 42.7289 653.341 40.7757 656.792 40.7757C660.23 40.7757 663.412 42.7406 665.037 45.8166Z" fill="#74CCD8"/>
<path d="M662.242 26.916H644.897V16.0388H653.634C655.435 16.0154 657.084 16.9979 657.926 18.6002L662.242 26.916ZM646.651 25.1616H659.353L656.359 19.4072C655.844 18.4131 654.815 17.7932 653.692 17.7932H653.634H646.64V25.1616H646.651Z" fill="#74CCD8"/>
<path d="M643.386 33.8634H607.865V12.109C607.865 9.44235 609.994 7.26691 612.602 7.26691H638.625C639.912 7.2786 641.105 7.78153 642.005 8.69381C642.906 9.60609 643.386 10.8108 643.386 12.0973L642.508 12.109H643.386V33.8634ZM609.619 32.109H641.631V12.0856C641.643 11.2669 641.327 10.5067 640.754 9.92188C640.181 9.34878 639.421 9.02129 638.614 9.02129H612.59C610.918 9.02129 609.608 10.378 609.608 12.109V32.109H609.619Z" fill="#74CCD8"/>
<path d="M656.78 57.2669C653.143 57.2669 650.183 54.3079 650.183 50.6821C650.183 47.0447 653.143 44.0856 656.768 44.0856C660.406 44.0856 663.365 47.0447 663.365 50.6704C663.365 54.3079 660.417 57.2669 656.78 57.2669ZM656.78 45.84C654.113 45.84 651.95 48.0155 651.95 50.6821C651.95 53.3488 654.125 55.5125 656.78 55.5125V56.3897V55.5125C659.447 55.5125 661.61 53.3371 661.61 50.6704C661.622 48.0038 659.447 45.84 656.78 45.84Z" fill="#74CCD8"/>
<path d="M908.863 48.0619C908.846 45.7245 908.846 45.7419 906.596 45.1837C905.776 44.9918 904.956 44.7825 904.188 44.4511C902.915 43.8929 902.339 42.8114 902.706 41.4682C903.002 40.3693 903.543 39.3227 903.997 38.2586C904.502 37.0725 904.468 36.9155 903.508 36.0956C902.758 35.4502 901.956 34.8746 901.258 34.1594C899.95 32.7988 899.95 31.3684 901.275 30.0078C902.025 29.2403 902.88 28.5775 903.717 27.9146C904.311 27.4436 904.433 26.9029 904.119 26.24C903.717 25.3679 903.281 24.5131 902.933 23.6235C902.13 21.5826 902.828 20.1174 904.939 19.4545C905.898 19.158 906.892 18.9312 907.887 18.7044C908.567 18.5474 908.828 18.1288 908.828 17.4485C908.846 16.3495 908.828 15.2332 908.951 14.1517C909.16 12.3375 910.294 11.413 912.125 11.5875C913.137 11.6921 914.114 11.9538 915.108 12.1805C915.98 12.3899 916.608 12.1805 917.009 11.2909C917.428 10.3664 917.864 9.44191 918.405 8.58717C919.417 6.99981 920.847 6.68583 922.452 7.68011C923.341 8.2383 924.144 8.90116 924.964 9.54657C925.609 10.0524 926.202 10.0873 926.848 9.56401C927.493 9.02326 928.156 8.49996 928.854 8.01154C930.947 6.51139 932.534 6.87771 933.79 9.14537C934.174 9.86055 934.54 10.5932 934.872 11.3258C935.221 12.1282 935.814 12.355 936.616 12.1805C937.488 11.9887 938.36 11.7619 939.25 11.6223C941.483 11.2735 942.704 12.2154 942.931 14.4656C943.018 15.3902 943.018 16.3321 942.983 17.2566C942.948 18.1462 943.314 18.5998 944.169 18.7916C945.076 18.9835 945.983 19.1754 946.873 19.4545C949.001 20.0999 949.699 21.5826 948.896 23.6409C948.565 24.4782 948.164 25.2806 947.762 26.083C947.361 26.868 947.448 27.496 948.199 28.0542C948.879 28.5426 949.524 29.0833 950.152 29.659C951.966 31.3161 951.966 32.9732 950.135 34.6304C949.472 35.2409 948.757 35.7991 948.042 36.3398C947.466 36.7934 947.361 37.3167 947.658 37.9446C948.076 38.8343 948.53 39.7239 948.879 40.631C949.664 42.6544 948.966 44.1197 946.908 44.7825C945.913 45.0965 944.902 45.3233 943.873 45.5675C943.227 45.7245 942.983 46.1257 942.965 46.7536C942.948 47.8875 942.965 49.0213 942.843 50.1377C942.634 51.9169 941.5 52.824 939.721 52.6495C938.709 52.5449 937.732 52.2832 936.738 52.0739C935.569 51.8471 935.343 51.9344 934.802 52.981C934.331 53.8706 933.93 54.8125 933.389 55.6673C932.395 57.2023 930.964 57.5337 929.412 56.5569C928.557 56.0161 927.755 55.3707 926.97 54.7253C926.255 54.1322 925.592 54.0974 924.877 54.7079C924.231 55.2486 923.568 55.7719 922.888 56.2604C920.899 57.6384 919.329 57.2895 918.126 55.1614C917.777 54.5509 917.498 53.9229 917.201 53.295C916.486 51.8297 916.347 51.7774 914.777 52.1262C914.096 52.2832 913.416 52.4402 912.736 52.5449C910.311 52.9286 909.108 51.9518 908.898 49.5097C908.828 49.0562 908.863 48.5678 908.863 48.0619ZM940.576 16.0356C940.576 15.5471 940.558 15.0762 940.576 14.6052C940.593 14.0296 940.331 13.8028 939.773 13.9075C938.953 14.0644 938.116 14.204 937.296 14.3959C935.081 14.9192 933.808 14.361 932.761 12.3724C932.395 11.6747 932.081 10.9595 931.714 10.2618C931.191 9.26747 931.034 9.25003 930.162 9.89544C929.464 10.4187 928.801 10.9944 928.086 11.4828C926.516 12.5992 925.26 12.5992 923.69 11.4828C923.01 10.9944 922.365 10.4536 921.684 9.94777C920.725 9.23259 920.585 9.26747 920.01 10.349C919.678 10.9944 919.382 11.6572 919.05 12.3026C917.986 14.3784 916.713 14.9366 914.463 14.3959C913.678 14.204 912.875 14.0819 912.073 13.9075C911.41 13.7679 911.183 14.0644 911.183 14.6924C911.183 15.739 911.148 16.7856 911.079 17.8322C910.991 19.5417 910.032 20.536 908.41 20.9372C907.573 21.1465 906.718 21.3384 905.88 21.5652C904.816 21.8443 904.729 22.0361 905.165 23.013C905.532 23.8328 905.968 24.6352 906.299 25.4551C906.997 27.2169 906.735 28.3158 905.322 29.5892C904.607 30.2346 903.857 30.8277 903.107 31.4208C902.549 31.8743 902.566 32.3104 903.107 32.7814C903.927 33.4617 904.764 34.142 905.567 34.8571C906.683 35.8689 906.945 37.1074 906.369 38.5028C906.02 39.3576 905.619 40.1949 905.235 41.0496C904.712 42.2358 904.782 42.3927 906.055 42.7067C906.875 42.8986 907.695 43.073 908.497 43.2998C910.032 43.7185 910.957 44.6779 911.061 46.3175C911.131 47.4165 911.166 48.5154 911.183 49.6318C911.183 50.2075 911.428 50.4342 911.986 50.3296C912.806 50.1726 913.643 50.033 914.463 49.8411C916.713 49.3178 917.986 49.876 919.05 51.9518C919.417 52.6495 919.731 53.3647 920.097 54.045C920.603 54.9521 920.725 54.987 921.527 54.3939C922.26 53.8531 922.94 53.2775 923.673 52.7542C925.243 51.6378 926.499 51.6378 928.069 52.7542C928.732 53.2252 929.342 53.7485 930.005 54.2543C931.034 55.0393 931.191 55.0044 931.784 53.8357C932.098 53.2252 932.377 52.5798 932.691 51.9518C933.755 49.8935 935.029 49.3178 937.279 49.8586C938.099 50.0505 938.919 50.19 939.756 50.347C940.331 50.4517 940.541 50.2075 940.558 49.6318C940.576 48.5503 940.593 47.4863 940.663 46.4048C940.75 44.6953 941.71 43.701 943.332 43.2998C944.169 43.0905 945.024 42.8986 945.861 42.6718C946.925 42.3753 947.012 42.2009 946.576 41.224C946.21 40.4042 945.791 39.6018 945.442 38.7819C944.745 37.0201 945.006 35.9212 946.419 34.6478C947.134 34.0024 947.885 33.4268 948.635 32.8162C949.193 32.3627 949.175 31.9092 948.635 31.4557C947.815 30.7754 946.977 30.0951 946.175 29.3799C945.059 28.3681 944.797 27.1297 945.373 25.7342C945.722 24.8794 946.123 24.0421 946.506 23.1874C947.03 22.0013 946.96 21.8617 945.687 21.5303C944.867 21.321 944.047 21.164 943.245 20.9372C941.71 20.5186 940.785 19.5592 940.68 17.9195C940.663 17.2741 940.628 16.6461 940.576 16.0356Z" fill="#74CCD8"/>
<path d="M940.576 16.0355C940.611 16.6461 940.645 17.2915 940.698 17.9194C940.802 19.5591 941.744 20.5011 943.262 20.9372C944.064 21.1639 944.902 21.3209 945.704 21.5302C946.977 21.8442 947.047 22.0012 946.524 23.1874C946.14 24.0421 945.739 24.8794 945.39 25.7341C944.814 27.1296 945.076 28.3681 946.192 29.3798C946.995 30.095 947.832 30.7753 948.652 31.4556C949.193 31.9092 949.21 32.3627 948.652 32.8162C947.919 33.4267 947.152 34.0024 946.437 34.6478C945.024 35.9212 944.762 37.0201 945.46 38.7819C945.791 39.6192 946.227 40.4042 946.594 41.224C947.03 42.2008 946.943 42.3753 945.878 42.6718C945.041 42.8986 944.186 43.0905 943.349 43.2998C941.727 43.701 940.768 44.6953 940.68 46.4047C940.628 47.4688 940.593 48.5503 940.576 49.6318C940.576 50.19 940.349 50.4516 939.773 50.347C938.953 50.19 938.116 50.0504 937.296 49.8586C935.046 49.3178 933.773 49.8934 932.709 51.9518C932.395 52.5623 932.116 53.2077 931.802 53.8357C931.191 55.0044 931.051 55.0393 930.022 54.2543C929.377 53.7659 928.749 53.2252 928.086 52.7542C926.499 51.6378 925.26 51.6378 923.69 52.7542C922.958 53.2775 922.277 53.8706 921.545 54.3939C920.725 54.987 920.603 54.9695 920.114 54.045C919.731 53.3647 919.417 52.6495 919.068 51.9518C918.004 49.8934 916.748 49.3178 914.48 49.8411C913.66 50.033 912.84 50.1725 912.003 50.3295C911.445 50.4342 911.201 50.2074 911.201 49.6318C911.183 48.5328 911.148 47.4339 911.079 46.3175C910.974 44.6778 910.049 43.7184 908.514 43.2998C907.712 43.073 906.875 42.916 906.072 42.7067C904.799 42.3927 904.729 42.2357 905.252 41.0496C905.636 40.1948 906.037 39.3575 906.386 38.5028C906.962 37.1073 906.7 35.8688 905.584 34.8571C904.782 34.1419 903.944 33.4616 903.124 32.7813C902.566 32.3278 902.549 31.8917 903.124 31.4207C903.874 30.8102 904.625 30.2171 905.34 29.5892C906.753 28.3158 907.014 27.2168 906.317 25.455C905.985 24.6178 905.549 23.8328 905.183 23.0129C904.747 22.0361 904.851 21.8442 905.898 21.5651C906.735 21.3384 907.59 21.1465 908.427 20.9372C910.049 20.536 910.991 19.5417 911.096 17.8322C911.148 16.7856 911.183 15.739 911.201 14.6924C911.201 14.047 911.427 13.7679 912.09 13.9074C912.875 14.0819 913.678 14.204 914.48 14.3958C916.73 14.9366 918.004 14.3784 919.068 12.3026C919.399 11.6572 919.678 10.9944 920.027 10.3489C920.585 9.26744 920.742 9.23256 921.702 9.94774C922.382 10.4536 923.01 10.9944 923.708 11.4828C925.295 12.5992 926.534 12.5992 928.104 11.4828C928.819 10.9769 929.482 10.4013 930.179 9.89541C931.051 9.25 931.208 9.26744 931.732 10.2617C932.098 10.9595 932.412 11.6747 932.778 12.3724C933.825 14.3784 935.098 14.9192 937.314 14.3958C938.134 14.204 938.953 14.0644 939.791 13.9074C940.349 13.8028 940.611 14.0295 940.593 14.6052C940.576 15.0761 940.576 15.5471 940.576 16.0355ZM918.039 41.381C918.23 41.2414 918.632 41.0321 918.946 40.7181C924.144 35.5374 929.342 30.3392 934.54 25.1411C934.68 25.0015 934.837 24.862 934.959 24.6875C935.29 24.1642 935.325 23.6409 934.872 23.1699C934.418 22.7164 933.877 22.7164 933.371 23.0653C933.18 23.1874 933.023 23.3793 932.866 23.5363C927.685 28.717 922.504 33.8803 917.341 39.061C917.149 39.2529 916.957 39.4273 916.818 39.6541C916.329 40.4565 916.87 41.381 918.039 41.381ZM924.161 26.3272C924.179 24.077 922.312 22.1931 920.079 22.2105C917.882 22.2105 916.033 24.0596 915.998 26.2574C915.963 28.4379 917.794 30.3218 920.01 30.3567C922.26 30.409 924.144 28.5949 924.161 26.3272ZM927.65 37.9272C927.65 40.1425 929.464 41.9741 931.679 42.009C933.877 42.0438 935.814 40.1425 935.796 37.9272C935.796 35.7293 933.965 33.8803 931.749 33.8628C929.499 33.8454 927.65 35.677 927.65 37.9272Z" fill="white"/>
<path d="M918.039 41.381C916.87 41.381 916.329 40.4391 916.8 39.6541C916.922 39.4274 917.132 39.2529 917.323 39.0611C922.504 33.8803 927.667 28.6996 932.848 23.5363C933.005 23.3793 933.162 23.1874 933.354 23.0653C933.877 22.7339 934.418 22.7165 934.854 23.17C935.308 23.6235 935.273 24.1643 934.941 24.6876C934.837 24.862 934.68 24.9841 934.523 25.1411C929.325 30.3393 924.126 35.5375 918.928 40.7182C918.632 41.0322 918.23 41.2415 918.039 41.381Z" fill="#74CCD8"/>
<path d="M924.161 26.3272C924.144 28.5775 922.26 30.409 920.01 30.3567C917.812 30.3218 915.963 28.4379 915.998 26.2575C916.033 24.0421 917.882 22.2106 920.08 22.2106C922.312 22.2106 924.179 24.0945 924.161 26.3272ZM920.097 24.5829C919.103 24.5829 918.388 25.2981 918.388 26.2749C918.388 27.2343 919.12 28.0193 920.062 28.0367C921.004 28.0542 921.859 27.1994 921.841 26.2575C921.824 25.333 921.039 24.5829 920.097 24.5829Z" fill="#74CCD8"/>
<path d="M927.65 37.9273C927.65 35.677 929.499 33.828 931.767 33.8629C933.982 33.8804 935.814 35.7294 935.814 37.9273C935.814 40.1426 933.895 42.0614 931.697 42.009C929.464 41.9742 927.65 40.1426 927.65 37.9273ZM931.732 39.6367C932.726 39.6367 933.424 38.9215 933.441 37.9273C933.441 36.9679 932.691 36.1829 931.749 36.1655C930.825 36.148 929.953 37.0202 929.97 37.9447C930.005 38.9041 930.79 39.6542 931.732 39.6367Z" fill="#74CCD8"/>
<path d="M920.097 24.5829C921.056 24.5829 921.841 25.333 921.859 26.2749C921.876 27.2169 921.022 28.0716 920.08 28.0541C919.138 28.0367 918.388 27.2517 918.405 26.2924C918.388 25.2981 919.103 24.5829 920.097 24.5829Z" fill="white"/>
<path d="M931.732 39.6367C930.79 39.6367 929.987 38.8866 929.97 37.9621C929.953 37.0376 930.825 36.148 931.749 36.1829C932.691 36.2003 933.441 36.9853 933.441 37.9447C933.424 38.9215 932.726 39.6367 931.732 39.6367Z" fill="white"/>
<path d="M971.959 13.2575C972.991 13.2575 973.855 13.3595 974.551 13.5635C975.247 13.7675 975.769 14.1095 976.117 14.5895C976.465 15.0575 976.639 15.6815 976.639 16.4615C976.639 16.9655 976.555 17.4155 976.387 17.8115C976.219 18.1955 975.973 18.5195 975.649 18.7835C975.325 19.0355 974.941 19.2035 974.497 19.2875V19.3775C974.953 19.4615 975.373 19.6175 975.757 19.8455C976.141 20.0615 976.441 20.3795 976.657 20.7995C976.885 21.2195 976.999 21.7655 976.999 22.4375C976.999 23.2175 976.825 23.8835 976.477 24.4355C976.129 24.9755 975.631 25.3895 974.983 25.6775C974.347 25.9655 973.585 26.1095 972.697 26.1095H968.323V13.2575H971.959ZM972.211 18.6215C973.123 18.6215 973.747 18.4595 974.083 18.1355C974.419 17.8115 974.587 17.3315 974.587 16.6955C974.587 16.0475 974.383 15.5855 973.975 15.3095C973.567 15.0335 972.919 14.8955 972.031 14.8955H970.321V18.6215H972.211ZM970.321 20.2055V24.4895H972.409C973.345 24.4895 973.999 24.2855 974.371 23.8775C974.743 23.4695 974.929 22.9295 974.929 22.2575C974.929 21.8495 974.845 21.4895 974.677 21.1775C974.509 20.8655 974.233 20.6255 973.849 20.4575C973.477 20.2895 972.967 20.2055 972.319 20.2055H970.321ZM979.467 26.1095V13.2575H981.465V18.5495H982.995C984.123 18.5495 985.017 18.7115 985.677 19.0355C986.337 19.3595 986.817 19.8035 987.117 20.3675C987.417 20.9315 987.567 21.5675 987.567 22.2755C987.567 23.0555 987.405 23.7335 987.081 24.3095C986.757 24.8855 986.259 25.3295 985.587 25.6415C984.927 25.9535 984.081 26.1095 983.049 26.1095H979.467ZM982.959 24.4895C983.823 24.4895 984.465 24.3095 984.885 23.9495C985.317 23.5895 985.533 23.0315 985.533 22.2755C985.533 21.7475 985.431 21.3335 985.227 21.0335C985.023 20.7335 984.717 20.5235 984.309 20.4035C983.913 20.2715 983.409 20.2055 982.797 20.2055H981.465V24.4895H982.959ZM989.205 26.1095V13.2575H991.185V26.1095H989.205ZM1001.5 13.2575V14.9315H996.337V26.1095H994.339V13.2575H1001.5ZM1013.87 19.6655C1013.87 20.6615 1013.75 21.5675 1013.51 22.3835C1013.29 23.1875 1012.93 23.8835 1012.45 24.4715C1011.98 25.0595 1011.4 25.5095 1010.69 25.8215C1009.98 26.1335 1009.16 26.2895 1008.22 26.2895C1007.26 26.2895 1006.42 26.1335 1005.7 25.8215C1004.99 25.4975 1004.41 25.0475 1003.94 24.4715C1003.47 23.8835 1003.12 23.1815 1002.89 22.3655C1002.67 21.5495 1002.55 20.6435 1002.55 19.6475C1002.55 18.3275 1002.76 17.1755 1003.16 16.1915C1003.58 15.2075 1004.21 14.4395 1005.05 13.8875C1005.89 13.3355 1006.96 13.0595 1008.24 13.0595C1009.49 13.0595 1010.53 13.3355 1011.35 13.8875C1012.19 14.4275 1012.82 15.1955 1013.24 16.1915C1013.66 17.1755 1013.87 18.3335 1013.87 19.6655ZM1004.66 19.6655C1004.66 20.6975 1004.78 21.5855 1005.02 22.3295C1005.27 23.0615 1005.66 23.6315 1006.19 24.0395C1006.73 24.4355 1007.41 24.6335 1008.22 24.6335C1009.05 24.6335 1009.72 24.4355 1010.24 24.0395C1010.77 23.6315 1011.15 23.0615 1011.39 22.3295C1011.64 21.5855 1011.77 20.6975 1011.77 19.6655C1011.77 18.1175 1011.49 16.9115 1010.92 16.0475C1010.36 15.1715 1009.46 14.7335 1008.24 14.7335C1007.41 14.7335 1006.73 14.9315 1006.19 15.3275C1005.66 15.7235 1005.27 16.2875 1005.02 17.0195C1004.78 17.7515 1004.66 18.6335 1004.66 19.6655ZM1024.87 13.2575V24.4175H1026.43V29.6015H1024.52V26.1095H1016.55V29.6015H1014.62V24.4175H1015.58C1015.96 23.6975 1016.32 22.9055 1016.66 22.0415C1017.01 21.1655 1017.31 20.2475 1017.58 19.2875C1017.85 18.3155 1018.07 17.3255 1018.24 16.3175C1018.42 15.2975 1018.55 14.2775 1018.62 13.2575H1024.87ZM1020.28 14.9495C1020.23 15.6335 1020.13 16.3895 1019.97 17.2175C1019.81 18.0335 1019.62 18.8735 1019.38 19.7375C1019.14 20.6015 1018.87 21.4415 1018.58 22.2575C1018.31 23.0615 1018 23.7815 1017.67 24.4175H1022.89V14.9495H1020.28ZM1037.89 26.1095H1035.89V20.2415H1030.35V26.1095H1028.35V13.2575H1030.35V18.5855H1035.89V13.2575H1037.89V26.1095ZM1041.04 26.1095V13.2575H1043.04V18.5495H1044.57C1045.7 18.5495 1046.59 18.7115 1047.25 19.0355C1047.91 19.3595 1048.39 19.8035 1048.69 20.3675C1048.99 20.9315 1049.14 21.5675 1049.14 22.2755C1049.14 23.0555 1048.98 23.7335 1048.66 24.3095C1048.33 24.8855 1047.84 25.3295 1047.16 25.6415C1046.5 25.9535 1045.66 26.1095 1044.63 26.1095H1041.04ZM1044.54 24.4895C1045.4 24.4895 1046.04 24.3095 1046.46 23.9495C1046.89 23.5895 1047.11 23.0315 1047.11 22.2755C1047.11 21.7475 1047.01 21.3335 1046.8 21.0335C1046.6 20.7335 1046.29 20.5235 1045.89 20.4035C1045.49 20.2715 1044.99 20.2055 1044.37 20.2055H1043.04V24.4895H1044.54ZM1050.78 26.1095V13.2575H1052.76V26.1095H1050.78ZM1062.77 26.1095H1055.91V13.2575H1062.77V14.9135H1057.91V18.5855H1062.48V20.2235H1057.91V24.4355H1062.77V26.1095ZM979.321 49.4715V54.6015H977.395V51.1095H968.323V38.2575H970.321V49.4175H975.649V38.2575H977.629V49.4715H979.321ZM988.083 51.1095H981.225V38.2575H988.083V39.9135H983.223V43.5855H987.795V45.2235H983.223V49.4355H988.083V51.1095ZM1000.17 51.1095H998.172V45.2415H992.628V51.1095H990.63V38.2575H992.628V43.5855H998.172V38.2575H1000.17V51.1095ZM1003.32 51.1095V38.2575H1005.32V43.5495H1006.85C1007.98 43.5495 1008.87 43.7115 1009.53 44.0355C1010.19 44.3595 1010.67 44.8035 1010.97 45.3675C1011.27 45.9315 1011.42 46.5675 1011.42 47.2755C1011.42 48.0555 1011.26 48.7335 1010.94 49.3095C1010.61 49.8855 1010.11 50.3295 1009.44 50.6415C1008.78 50.9535 1007.94 51.1095 1006.9 51.1095H1003.32ZM1006.81 49.4895C1007.68 49.4895 1008.32 49.3095 1008.74 48.9495C1009.17 48.5895 1009.39 48.0315 1009.39 47.2755C1009.39 46.7475 1009.29 46.3335 1009.08 46.0335C1008.88 45.7335 1008.57 45.5235 1008.16 45.4035C1007.77 45.2715 1007.26 45.2055 1006.65 45.2055H1005.32V49.4895H1006.81ZM1013.06 51.1095V38.2575H1015.04V51.1095H1013.06ZM1022.6 38.2575H1024.44V45.0615C1024.44 45.3615 1024.43 45.6915 1024.42 46.0515C1024.42 46.4115 1024.42 46.7655 1024.4 47.1135C1024.39 47.4615 1024.38 47.7735 1024.37 48.0495C1024.36 48.3135 1024.34 48.5115 1024.31 48.6435H1024.39L1030.58 38.2575H1032.85V51.1095H1031.01V44.3595C1031.01 44.0355 1031.02 43.6875 1031.03 43.3155C1031.04 42.9315 1031.05 42.5595 1031.06 42.1995C1031.08 41.8395 1031.09 41.5275 1031.1 41.2635C1031.12 40.9875 1031.14 40.7895 1031.14 40.6695H1031.08L1024.89 51.1095H1022.6V38.2575ZM1040.38 51.1095V38.2575H1047.77V39.9315H1042.37V43.5495H1043.92C1045.09 43.5495 1046 43.7115 1046.68 44.0355C1047.36 44.3595 1047.85 44.8035 1048.13 45.3675C1048.42 45.9195 1048.57 46.5555 1048.57 47.2755C1048.57 48.0675 1048.41 48.7515 1048.1 49.3275C1047.79 49.9035 1047.29 50.3475 1046.6 50.6595C1045.93 50.9595 1045.06 51.1095 1043.99 51.1095H1040.38ZM1043.89 49.4715C1044.83 49.4715 1045.51 49.2975 1045.92 48.9495C1046.33 48.5895 1046.53 48.0315 1046.53 47.2755C1046.53 46.7475 1046.43 46.3335 1046.23 46.0335C1046.03 45.7335 1045.73 45.5175 1045.31 45.3855C1044.89 45.2535 1044.35 45.1875 1043.69 45.1875H1042.37V49.4715H1043.89ZM1061.7 44.6655C1061.7 45.6615 1061.58 46.5675 1061.34 47.3835C1061.12 48.1875 1060.76 48.8835 1060.28 49.4715C1059.81 50.0595 1059.23 50.5095 1058.52 50.8215C1057.81 51.1335 1056.99 51.2895 1056.05 51.2895C1055.09 51.2895 1054.25 51.1335 1053.53 50.8215C1052.82 50.4975 1052.24 50.0475 1051.77 49.4715C1051.3 48.8835 1050.95 48.1815 1050.72 47.3655C1050.5 46.5495 1050.38 45.6435 1050.38 44.6475C1050.38 43.3275 1050.59 42.1755 1050.99 41.1915C1051.41 40.2075 1052.04 39.4395 1052.88 38.8875C1053.72 38.3355 1054.79 38.0595 1056.07 38.0595C1057.32 38.0595 1058.36 38.3355 1059.18 38.8875C1060.02 39.4275 1060.65 40.1955 1061.07 41.1915C1061.49 42.1755 1061.7 43.3335 1061.7 44.6655ZM1052.49 44.6655C1052.49 45.6975 1052.61 46.5855 1052.85 47.3295C1053.1 48.0615 1053.49 48.6315 1054.02 49.0395C1054.56 49.4355 1055.24 49.6335 1056.05 49.6335C1056.88 49.6335 1057.55 49.4355 1058.07 49.0395C1058.6 48.6315 1058.98 48.0615 1059.22 47.3295C1059.47 46.5855 1059.6 45.6975 1059.6 44.6655C1059.6 43.1175 1059.32 41.9115 1058.75 41.0475C1058.19 40.1715 1057.29 39.7335 1056.07 39.7335C1055.24 39.7335 1054.56 39.9315 1054.02 40.3275C1053.49 40.7235 1053.1 41.2875 1052.85 42.0195C1052.61 42.7515 1052.49 43.6335 1052.49 44.6655ZM1073.8 51.1095H1071.81V45.2415H1066.26V51.1095H1064.26V38.2575H1066.26V43.5855H1071.81V38.2575H1073.8V51.1095ZM1082.45 47.4375C1082.09 48.2775 1081.72 48.9855 1081.35 49.5615C1080.98 50.1375 1080.52 50.5695 1079.98 50.8575C1079.44 51.1455 1078.75 51.2895 1077.91 51.2895C1077.62 51.2895 1077.32 51.2655 1076.99 51.2175C1076.68 51.1695 1076.4 51.1035 1076.15 51.0195V49.1835C1076.4 49.2915 1076.66 49.3755 1076.94 49.4355C1077.23 49.4955 1077.51 49.5255 1077.8 49.5255C1078.2 49.5255 1078.53 49.4655 1078.81 49.3455C1079.09 49.2135 1079.33 49.0215 1079.53 48.7695C1079.73 48.5055 1079.92 48.1635 1080.09 47.7435L1075.57 38.2575H1077.71L1080.63 44.6835C1080.68 44.8155 1080.73 44.9535 1080.79 45.0975C1080.85 45.2415 1080.9 45.3915 1080.95 45.5475C1081.01 45.6915 1081.06 45.8355 1081.1 45.9795H1081.19C1081.22 45.8595 1081.26 45.7275 1081.31 45.5835C1081.36 45.4275 1081.41 45.2775 1081.46 45.1335C1081.52 44.9775 1081.57 44.8395 1081.62 44.7195L1084.16 38.2575H1086.26L1082.45 47.4375ZM1092.81 39.7515C1092.23 39.7515 1091.71 39.8655 1091.24 40.0935C1090.79 40.3095 1090.4 40.6335 1090.07 41.0655C1089.76 41.4975 1089.52 42.0195 1089.35 42.6315C1089.19 43.2435 1089.1 43.9335 1089.1 44.7015C1089.1 45.7095 1089.24 46.5855 1089.52 47.3295C1089.79 48.0615 1090.21 48.6255 1090.76 49.0215C1091.31 49.4175 1091.99 49.6155 1092.81 49.6155C1093.34 49.6155 1093.84 49.5675 1094.32 49.4715C1094.8 49.3635 1095.29 49.2255 1095.78 49.0575V50.7315C1095.3 50.9235 1094.81 51.0615 1094.3 51.1455C1093.81 51.2415 1093.24 51.2895 1092.58 51.2895C1091.33 51.2895 1090.3 51.0195 1089.48 50.4795C1088.66 49.9395 1088.05 49.1715 1087.64 48.1755C1087.24 47.1795 1087.03 46.0155 1087.03 44.6835C1087.03 43.7115 1087.16 42.8235 1087.41 42.0195C1087.66 41.2035 1088.03 40.5015 1088.53 39.9135C1089.02 39.3255 1089.62 38.8755 1090.34 38.5635C1091.06 38.2395 1091.89 38.0775 1092.81 38.0775C1093.43 38.0775 1094.05 38.1495 1094.65 38.2935C1095.25 38.4255 1095.78 38.6175 1096.25 38.8695L1095.55 40.4895C1095.15 40.2975 1094.72 40.1295 1094.25 39.9855C1093.79 39.8295 1093.31 39.7515 1092.81 39.7515ZM1098.35 51.1095V38.2575H1100.35V43.5495H1101.88C1103 43.5495 1103.9 43.7115 1104.56 44.0355C1105.22 44.3595 1105.7 44.8035 1106 45.3675C1106.3 45.9315 1106.45 46.5675 1106.45 47.2755C1106.45 48.0555 1106.29 48.7335 1105.96 49.3095C1105.64 49.8855 1105.14 50.3295 1104.47 50.6415C1103.81 50.9535 1102.96 51.1095 1101.93 51.1095H1098.35ZM1101.84 49.4895C1102.7 49.4895 1103.35 49.3095 1103.77 48.9495C1104.2 48.5895 1104.41 48.0315 1104.41 47.2755C1104.41 46.7475 1104.31 46.3335 1104.11 46.0335C1103.9 45.7335 1103.6 45.5235 1103.19 45.4035C1102.79 45.2715 1102.29 45.2055 1101.68 45.2055H1100.35V49.4895H1101.84ZM1108.09 51.1095V38.2575H1110.07V51.1095H1108.09Z" fill="#090F24"/>
</svg>
