<svg width="131" height="131" viewBox="0 0 131 131" fill="none" xmlns="http://www.w3.org/2000/svg">
<g filter="url(#filter0_d_1_254)">
<mask id="mask0_1_254" style="mask-type:alpha" maskUnits="userSpaceOnUse" x="9" y="4" width="113" height="113">
<path d="M65.2865 116.573C96.3727 116.573 121.573 91.3727 121.573 60.2865C121.573 29.2003 96.3727 4 65.2865 4C34.2003 4 9 29.2003 9 60.2865C9 91.3727 34.2003 116.573 65.2865 116.573Z" fill="url(#paint0_radial_1_254)"/>
</mask>
<g mask="url(#mask0_1_254)">
<path d="M65.2865 116.573C96.3727 116.573 121.573 91.3727 121.573 60.2865C121.573 29.2003 96.3727 4 65.2865 4C34.2003 4 9 29.2003 9 60.2865C9 91.3727 34.2003 116.573 65.2865 116.573Z" fill="url(#paint1_radial_1_254)"/>
<g filter="url(#filter1_f_1_254)">
<path d="M65.2864 108.954C38.4084 108.954 16.6194 87.1647 16.6194 60.2866" stroke="#FFEBF4" stroke-linecap="round"/>
</g>
<g opacity="0.5" filter="url(#filter2_f_1_254)">
<circle cx="82.9434" cy="28.3574" r="21.1977" fill="white"/>
</g>
<g filter="url(#filter3_f_1_254)">
<circle cx="82.9434" cy="28.3578" r="5.36224" fill="white"/>
</g>
<g opacity="0.7" filter="url(#filter4_f_1_254)">
<circle cx="39.0536" cy="92.517" r="5.36224" fill="white"/>
</g>
</g>
</g>
<path opacity="0.9" d="M74.4682 39.5913H56.8682C49.5899 39.5913 43.6682 45.5114 43.6682 52.7878V63.0517C43.6682 70.0825 49.1961 75.8464 56.1349 76.2285V82.3458C56.1349 83.0325 56.6951 83.5913 57.3837 83.5913C57.713 83.5913 58.0247 83.4609 58.2601 83.2255L59.6358 81.8502C63.2482 78.2381 68.0523 76.2483 73.1621 76.2483H74.4682C81.7464 76.2483 87.6682 70.3281 87.6682 63.0517V52.7878C87.6682 45.5114 81.7464 39.5913 74.4682 39.5913ZM56.1349 60.8523C54.5171 60.8523 53.2015 59.537 53.2015 57.9198C53.2015 56.3024 54.5171 54.9872 56.1349 54.9872C57.7526 54.9872 59.0682 56.3024 59.0682 57.9198C59.0682 59.537 57.7519 60.8523 56.1349 60.8523ZM65.6682 60.8523C64.0505 60.8523 62.7349 59.537 62.7349 57.9198C62.7349 56.3024 64.0505 54.9872 65.6682 54.9872C67.2859 54.9872 68.6015 56.3024 68.6015 57.9198C68.6015 59.537 67.2852 60.8523 65.6682 60.8523ZM75.2014 60.8523C73.5838 60.8523 72.2682 59.537 72.2682 57.9198C72.2682 56.3024 73.5838 54.9872 75.2014 54.9872C76.8194 54.9872 78.135 56.3024 78.135 57.9198C78.135 59.537 76.8184 60.8523 75.2014 60.8523Z" fill="#FFD8EA"/>
<defs>
<filter id="filter0_d_1_254" x="0" y="0" width="130.573" height="130.573" filterUnits="userSpaceOnUse" color-interpolation-filters="sRGB">
<feFlood flood-opacity="0" result="BackgroundImageFix"/>
<feColorMatrix in="SourceAlpha" type="matrix" values="0 0 0 0 0 0 0 0 0 0 0 0 0 0 0 0 0 0 127 0" result="hardAlpha"/>
<feOffset dy="5"/>
<feGaussianBlur stdDeviation="4.5"/>
<feComposite in2="hardAlpha" operator="out"/>
<feColorMatrix type="matrix" values="0 0 0 0 0.8125 0 0 0 0 0.377135 0 0 0 0 0.57889 0 0 0 0.3 0"/>
<feBlend mode="normal" in2="BackgroundImageFix" result="effect1_dropShadow_1_254"/>
<feBlend mode="normal" in="SourceGraphic" in2="effect1_dropShadow_1_254" result="shape"/>
</filter>
<filter id="filter1_f_1_254" x="10.1194" y="53.7866" width="61.667" height="61.667" filterUnits="userSpaceOnUse" color-interpolation-filters="sRGB">
<feFlood flood-opacity="0" result="BackgroundImageFix"/>
<feBlend mode="normal" in="SourceGraphic" in2="BackgroundImageFix" result="shape"/>
<feGaussianBlur stdDeviation="3" result="effect1_foregroundBlur_1_254"/>
</filter>
<filter id="filter2_f_1_254" x="30.7457" y="-23.8403" width="104.396" height="104.396" filterUnits="userSpaceOnUse" color-interpolation-filters="sRGB">
<feFlood flood-opacity="0" result="BackgroundImageFix"/>
<feBlend mode="normal" in="SourceGraphic" in2="BackgroundImageFix" result="shape"/>
<feGaussianBlur stdDeviation="15.5" result="effect1_foregroundBlur_1_254"/>
</filter>
<filter id="filter3_f_1_254" x="64.5812" y="9.99561" width="36.7245" height="36.7246" filterUnits="userSpaceOnUse" color-interpolation-filters="sRGB">
<feFlood flood-opacity="0" result="BackgroundImageFix"/>
<feBlend mode="normal" in="SourceGraphic" in2="BackgroundImageFix" result="shape"/>
<feGaussianBlur stdDeviation="6.5" result="effect1_foregroundBlur_1_254"/>
</filter>
<filter id="filter4_f_1_254" x="17.6914" y="71.1548" width="42.7245" height="42.7246" filterUnits="userSpaceOnUse" color-interpolation-filters="sRGB">
<feFlood flood-opacity="0" result="BackgroundImageFix"/>
<feBlend mode="normal" in="SourceGraphic" in2="BackgroundImageFix" result="shape"/>
<feGaussianBlur stdDeviation="8" result="effect1_foregroundBlur_1_254"/>
</filter>
<radialGradient id="paint0_radial_1_254" cx="0" cy="0" r="1" gradientUnits="userSpaceOnUse" gradientTransform="translate(65.3226 60.3226) scale(56.3226)">
<stop offset="0.00328397" stop-color="#EDB2C9"/>
<stop offset="0.4719" stop-color="#EDAAC6"/>
<stop offset="1" stop-color="#ED9BC1"/>
</radialGradient>
<radialGradient id="paint1_radial_1_254" cx="0" cy="0" r="1" gradientUnits="userSpaceOnUse" gradientTransform="translate(65.3226 60.3226) scale(56.3226)">
<stop offset="0.00328397" stop-color="#EDB2C9"/>
<stop offset="0.4719" stop-color="#EDAAC6"/>
<stop offset="1" stop-color="#EC99BF"/>
</radialGradient>
</defs>
</svg>
