<svg width="109" height="109" viewBox="0 0 109 109" fill="none" xmlns="http://www.w3.org/2000/svg">
<g filter="url(#filter0_d_1_264)">
<mask id="mask0_1_264" style="mask-type:alpha" maskUnits="userSpaceOnUse" x="9" y="4" width="91" height="91">
<path d="M54.4996 94.9991C79.6283 94.9991 99.9991 74.6283 99.9991 49.4996C99.9991 24.3708 79.6283 4 54.4996 4C29.3708 4 9 24.3708 9 49.4996C9 74.6283 29.3708 94.9991 54.4996 94.9991Z" fill="url(#paint0_radial_1_264)"/>
</mask>
<g mask="url(#mask0_1_264)">
<path d="M54.4996 94.9991C79.6283 94.9991 99.9991 74.6283 99.9991 49.4996C99.9991 24.3708 79.6283 4 54.4996 4C29.3708 4 9 24.3708 9 49.4996C9 74.6283 29.3708 94.9991 54.4996 94.9991Z" fill="url(#paint1_radial_1_264)"/>
<g filter="url(#filter1_f_1_264)">
<path d="M54.4995 88.8398C32.7725 88.8398 15.1592 71.2266 15.1592 49.4995" stroke="#FFEBF4" stroke-linecap="round"/>
</g>
<g opacity="0.5" filter="url(#filter2_f_1_264)">
<circle cx="68.7727" cy="23.6895" r="17.1353" fill="white"/>
</g>
<g filter="url(#filter3_f_1_264)">
<circle cx="68.7727" cy="23.6901" r="4.3346" fill="white"/>
</g>
<g opacity="0.7" filter="url(#filter4_f_1_264)">
<circle cx="33.2941" cy="75.5534" r="4.3346" fill="white"/>
</g>
</g>
</g>
<path opacity="0.9" d="M66.5273 35.4042L52.846 31.5013C47.1882 29.8874 41.2723 33.1762 39.6587 38.8325L37.3827 46.8111C35.8236 52.2764 38.8425 57.9828 44.1516 59.8185L42.7951 64.5738C42.6428 65.1076 42.9544 65.6662 43.4897 65.8189C43.7457 65.8919 44.0169 65.8596 44.2521 65.7288L45.6265 64.9648C49.2355 62.958 53.4112 62.4766 57.3833 63.6097L58.3986 63.8994C64.0563 65.5133 69.9724 62.2244 71.5859 56.5681L73.8619 48.5895C75.4755 42.9332 72.185 37.0181 66.5273 35.4042ZM47.5613 47.8659C46.3038 47.5071 45.5728 46.193 45.9314 44.9358C46.29 43.6786 47.6044 42.9479 48.8619 43.3066C50.1195 43.6654 50.8505 44.9795 50.4918 46.2367C50.1332 47.4939 48.8183 48.2244 47.5613 47.8659ZM54.972 49.9799C53.7145 49.6212 52.9835 48.307 53.3421 47.0498C53.7007 45.7926 55.0151 45.0619 56.2726 45.4207C57.5301 45.7794 58.2612 47.0936 57.9025 48.3508C57.5439 49.608 56.229 50.3385 54.972 49.9799ZM62.3826 52.0939C61.1252 51.7352 60.3942 50.421 60.7528 49.1639C61.1114 47.9066 62.4258 47.176 63.6832 47.5347C64.9409 47.8935 65.6719 49.2076 65.3133 50.4648C64.9547 51.722 63.6396 52.4525 62.3826 52.0939Z" fill="#FFD8EA"/>
<defs>
<filter id="filter0_d_1_264" x="0" y="0" width="108.999" height="108.999" filterUnits="userSpaceOnUse" color-interpolation-filters="sRGB">
<feFlood flood-opacity="0" result="BackgroundImageFix"/>
<feColorMatrix in="SourceAlpha" type="matrix" values="0 0 0 0 0 0 0 0 0 0 0 0 0 0 0 0 0 0 127 0" result="hardAlpha"/>
<feOffset dy="5"/>
<feGaussianBlur stdDeviation="4.5"/>
<feComposite in2="hardAlpha" operator="out"/>
<feColorMatrix type="matrix" values="0 0 0 0 0.8125 0 0 0 0 0.377135 0 0 0 0 0.57889 0 0 0 0.3 0"/>
<feBlend mode="normal" in2="BackgroundImageFix" result="effect1_dropShadow_1_264"/>
<feBlend mode="normal" in="SourceGraphic" in2="effect1_dropShadow_1_264" result="shape"/>
</filter>
<filter id="filter1_f_1_264" x="8.65923" y="42.9995" width="52.3403" height="52.3403" filterUnits="userSpaceOnUse" color-interpolation-filters="sRGB">
<feFlood flood-opacity="0" result="BackgroundImageFix"/>
<feBlend mode="normal" in="SourceGraphic" in2="BackgroundImageFix" result="shape"/>
<feGaussianBlur stdDeviation="3" result="effect1_foregroundBlur_1_264"/>
</filter>
<filter id="filter2_f_1_264" x="20.6373" y="-24.4458" width="96.2707" height="96.2705" filterUnits="userSpaceOnUse" color-interpolation-filters="sRGB">
<feFlood flood-opacity="0" result="BackgroundImageFix"/>
<feBlend mode="normal" in="SourceGraphic" in2="BackgroundImageFix" result="shape"/>
<feGaussianBlur stdDeviation="15.5" result="effect1_foregroundBlur_1_264"/>
</filter>
<filter id="filter3_f_1_264" x="51.438" y="6.35547" width="34.6692" height="34.6694" filterUnits="userSpaceOnUse" color-interpolation-filters="sRGB">
<feFlood flood-opacity="0" result="BackgroundImageFix"/>
<feBlend mode="normal" in="SourceGraphic" in2="BackgroundImageFix" result="shape"/>
<feGaussianBlur stdDeviation="6.5" result="effect1_foregroundBlur_1_264"/>
</filter>
<filter id="filter4_f_1_264" x="12.9595" y="55.2188" width="40.6692" height="40.6694" filterUnits="userSpaceOnUse" color-interpolation-filters="sRGB">
<feFlood flood-opacity="0" result="BackgroundImageFix"/>
<feBlend mode="normal" in="SourceGraphic" in2="BackgroundImageFix" result="shape"/>
<feGaussianBlur stdDeviation="8" result="effect1_foregroundBlur_1_264"/>
</filter>
<radialGradient id="paint0_radial_1_264" cx="0" cy="0" r="1" gradientUnits="userSpaceOnUse" gradientTransform="translate(54.5287 49.5287) scale(45.5287)">
<stop offset="0.00328397" stop-color="#EDB2C9"/>
<stop offset="0.4719" stop-color="#EDAAC6"/>
<stop offset="1" stop-color="#ED9BC1"/>
</radialGradient>
<radialGradient id="paint1_radial_1_264" cx="0" cy="0" r="1" gradientUnits="userSpaceOnUse" gradientTransform="translate(54.5287 49.5287) scale(45.5287)">
<stop offset="0.00328397" stop-color="#EDB2C9"/>
<stop offset="0.4719" stop-color="#EDAAC6"/>
<stop offset="1" stop-color="#EC99BF"/>
</radialGradient>
</defs>
</svg>
