<svg width="62" height="245" viewBox="0 0 62 245" fill="none" xmlns="http://www.w3.org/2000/svg">
<g filter="url(#filter0_d_1_202)">
<mask id="mask0_1_202" style="mask-type:alpha" maskUnits="userSpaceOnUse" x="9" y="4" width="227" height="227">
<path d="M122.062 230.123C184.504 230.123 235.123 179.504 235.123 117.062C235.123 54.6194 184.504 4 122.062 4C59.6194 4 9 54.6194 9 117.062C9 179.504 59.6194 230.123 122.062 230.123Z" fill="url(#paint0_radial_1_202)"/>
</mask>
<g mask="url(#mask0_1_202)">
<path d="M122.062 230.123C184.504 230.123 235.123 179.504 235.123 117.062C235.123 54.6194 184.504 4 122.062 4C59.6194 4 9 54.6194 9 117.062C9 179.504 59.6194 230.123 122.062 230.123Z" fill="url(#paint1_radial_1_202)"/>
<g filter="url(#filter1_f_1_202)">
<path d="M122.062 214.818C68.0722 214.818 24.3052 171.051 24.3052 117.062" stroke="#EBFDFF" stroke-linecap="round"/>
</g>
<g opacity="0.7" filter="url(#filter2_f_1_202)">
<circle cx="64.1176" cy="174.102" r="10.771" fill="white"/>
</g>
</g>
</g>
<defs>
<filter id="filter0_d_1_202" x="0" y="0" width="244.123" height="244.123" filterUnits="userSpaceOnUse" color-interpolation-filters="sRGB">
<feFlood flood-opacity="0" result="BackgroundImageFix"/>
<feColorMatrix in="SourceAlpha" type="matrix" values="0 0 0 0 0 0 0 0 0 0 0 0 0 0 0 0 0 0 127 0" result="hardAlpha"/>
<feOffset dy="5"/>
<feGaussianBlur stdDeviation="4.5"/>
<feComposite in2="hardAlpha" operator="out"/>
<feColorMatrix type="matrix" values="0 0 0 0 0.39541 0 0 0 0 0.742266 0 0 0 0 0.808333 0 0 0 0.3 0"/>
<feBlend mode="normal" in2="BackgroundImageFix" result="effect1_dropShadow_1_202"/>
<feBlend mode="normal" in="SourceGraphic" in2="effect1_dropShadow_1_202" result="shape"/>
</filter>
<filter id="filter1_f_1_202" x="17.8052" y="110.562" width="110.756" height="110.756" filterUnits="userSpaceOnUse" color-interpolation-filters="sRGB">
<feFlood flood-opacity="0" result="BackgroundImageFix"/>
<feBlend mode="normal" in="SourceGraphic" in2="BackgroundImageFix" result="shape"/>
<feGaussianBlur stdDeviation="3" result="effect1_foregroundBlur_1_202"/>
</filter>
<filter id="filter2_f_1_202" x="39.3466" y="149.331" width="49.5421" height="49.542" filterUnits="userSpaceOnUse" color-interpolation-filters="sRGB">
<feFlood flood-opacity="0" result="BackgroundImageFix"/>
<feBlend mode="normal" in="SourceGraphic" in2="BackgroundImageFix" result="shape"/>
<feGaussianBlur stdDeviation="7" result="effect1_foregroundBlur_1_202"/>
</filter>
<radialGradient id="paint0_radial_1_202" cx="0" cy="0" r="1" gradientUnits="userSpaceOnUse" gradientTransform="translate(122.134 117.134) scale(113.134)">
<stop offset="0.00328397" stop-color="#EDB2C9"/>
<stop offset="0.4719" stop-color="#EDAAC6"/>
<stop offset="1" stop-color="#ED9BC1"/>
</radialGradient>
<radialGradient id="paint1_radial_1_202" cx="0" cy="0" r="1" gradientUnits="userSpaceOnUse" gradientTransform="translate(122.134 117.134) scale(113.134)">
<stop offset="0.00328397" stop-color="#74C8D8"/>
<stop offset="0.4719" stop-color="#84D5DA"/>
<stop offset="1" stop-color="#5EC6DA"/>
</radialGradient>
</defs>
</svg>
