<svg width="167" height="171" viewBox="0 0 167 171" fill="none" xmlns="http://www.w3.org/2000/svg">
<path d="M10.854 19H8.532L3.564 12.484V19H1.566V6.148H3.564V12.376L8.424 6.148H10.62L5.76 12.376L10.854 19ZM20.3501 14.14C20.3501 14.944 20.2481 15.658 20.0441 16.282C19.8401 16.906 19.5461 17.434 19.1621 17.866C18.7901 18.298 18.3341 18.628 17.7941 18.856C17.2541 19.072 16.6481 19.18 15.9761 19.18C15.3641 19.18 14.7941 19.072 14.2661 18.856C13.7381 18.628 13.2821 18.298 12.8981 17.866C12.5141 17.434 12.2141 16.906 11.9981 16.282C11.7941 15.658 11.6921 14.938 11.6921 14.122C11.6921 13.054 11.8661 12.148 12.2141 11.404C12.5621 10.66 13.0601 10.096 13.7081 9.712C14.3681 9.316 15.1481 9.118 16.0481 9.118C16.8881 9.118 17.6321 9.316 18.2801 9.712C18.9281 10.096 19.4321 10.66 19.7921 11.404C20.1641 12.148 20.3501 13.06 20.3501 14.14ZM13.7081 14.14C13.7081 14.86 13.7861 15.484 13.9421 16.012C14.1101 16.528 14.3621 16.924 14.6981 17.2C15.0461 17.476 15.4841 17.614 16.0121 17.614C16.5521 17.614 16.9901 17.476 17.3261 17.2C17.6741 16.924 17.9261 16.528 18.0821 16.012C18.2501 15.484 18.3341 14.86 18.3341 14.14C18.3341 13.396 18.2501 12.772 18.0821 12.268C17.9141 11.764 17.6621 11.38 17.3261 11.116C16.9901 10.84 16.5461 10.702 15.9941 10.702C15.1901 10.702 14.6081 11.002 14.2481 11.602C13.8881 12.202 13.7081 13.048 13.7081 14.14ZM24.5112 9.298V13.24H28.8132V9.298H30.7572V19H28.8132V14.77H24.5112V19H22.5672V9.298H24.5112ZM40.3948 10.828H37.3888V19H35.4628V10.828H32.4928V9.298H40.3948V10.828ZM45.8213 9.118C46.9613 9.118 47.8193 9.388 48.3953 9.928C48.9833 10.456 49.2773 11.29 49.2773 12.43V19H47.8913L47.5133 17.65H47.4413C47.1653 17.998 46.8893 18.286 46.6133 18.514C46.3493 18.742 46.0373 18.91 45.6773 19.018C45.3293 19.126 44.8973 19.18 44.3813 19.18C43.8413 19.18 43.3553 19.078 42.9233 18.874C42.4913 18.658 42.1493 18.334 41.8973 17.902C41.6453 17.458 41.5193 16.906 41.5193 16.246C41.5193 15.262 41.8673 14.512 42.5633 13.996C43.2713 13.48 44.3453 13.198 45.7853 13.15L47.3333 13.096V12.556C47.3333 11.836 47.1833 11.332 46.8833 11.044C46.5953 10.756 46.1873 10.612 45.6593 10.612C45.2153 10.612 44.7773 10.684 44.3453 10.828C43.9133 10.972 43.4933 11.146 43.0853 11.35L42.4913 9.964C42.9353 9.724 43.4393 9.526 44.0033 9.37C44.5793 9.202 45.1853 9.118 45.8213 9.118ZM46.1633 14.374C45.1793 14.422 44.4953 14.608 44.1113 14.932C43.7273 15.244 43.5353 15.688 43.5353 16.264C43.5353 16.768 43.6673 17.134 43.9313 17.362C44.2073 17.59 44.5613 17.704 44.9933 17.704C45.6533 17.704 46.2053 17.494 46.6493 17.074C47.1053 16.654 47.3333 16.024 47.3333 15.184V14.338L46.1633 14.374ZM57.6278 9.298H59.7698L56.0078 13.96L60.0938 19H57.8438L53.9018 14.086V19H51.9578V9.298H53.9018V14.014L57.6278 9.298ZM68.4671 10.828H65.4611V19H63.5351V10.828H60.5651V9.298H68.4671V10.828ZM70.2215 19V9.298H72.1655V13.204H74.1095C74.9495 13.204 75.6395 13.312 76.1795 13.528C76.7195 13.732 77.1155 14.038 77.3675 14.446C77.6315 14.854 77.7635 15.37 77.7635 15.994C77.7635 16.606 77.6375 17.14 77.3855 17.596C77.1335 18.04 76.7315 18.388 76.1795 18.64C75.6395 18.88 74.9195 19 74.0195 19H70.2215ZM73.8755 17.56C74.4515 17.56 74.9135 17.452 75.2615 17.236C75.6215 17.008 75.8015 16.618 75.8015 16.066C75.8015 15.538 75.6395 15.178 75.3155 14.986C75.0035 14.782 74.5235 14.68 73.8755 14.68H72.1655V17.56H73.8755ZM79.1675 19V9.298H81.1115V19H79.1675Z" fill="#090F24"/>
<path d="M38.9 125.627H37.108L34.182 121.021L33.272 121.833V125.627H31.718V115.631H33.272V120.461C33.4867 120.172 33.706 119.887 33.93 119.607C34.154 119.327 34.378 119.047 34.602 118.767L37.052 115.631H38.816L35.288 119.999L38.9 125.627ZM41.4846 118.081V125.627H39.9586V118.081H41.4846ZM40.7426 115.211C40.9666 115.211 41.1626 115.276 41.3306 115.407C41.4986 115.538 41.5826 115.757 41.5826 116.065C41.5826 116.364 41.4986 116.583 41.3306 116.723C41.1626 116.854 40.9666 116.919 40.7426 116.919C40.4999 116.919 40.2946 116.854 40.1266 116.723C39.9586 116.583 39.8746 116.364 39.8746 116.065C39.8746 115.757 39.9586 115.538 40.1266 115.407C40.2946 115.276 40.4999 115.211 40.7426 115.211ZM46.031 125.767C45.191 125.767 44.5096 125.44 43.987 124.787C43.4736 124.134 43.217 123.163 43.217 121.875C43.217 120.578 43.4783 119.598 44.001 118.935C44.5236 118.272 45.2096 117.941 46.059 117.941C46.423 117.941 46.7356 117.992 46.997 118.095C47.2583 118.188 47.487 118.319 47.683 118.487C47.879 118.655 48.0423 118.842 48.173 119.047H48.257C48.2383 118.916 48.215 118.73 48.187 118.487C48.1683 118.235 48.159 118.011 48.159 117.815V114.987H49.671V125.627H48.481L48.215 124.619H48.159C48.0283 124.834 47.865 125.03 47.669 125.207C47.473 125.375 47.2396 125.51 46.969 125.613C46.7076 125.716 46.395 125.767 46.031 125.767ZM46.437 124.549C47.0903 124.549 47.5476 124.348 47.809 123.947C48.0796 123.536 48.215 122.925 48.215 122.113V121.889C48.215 121.002 48.089 120.326 47.837 119.859C47.585 119.392 47.1136 119.159 46.423 119.159C45.8816 119.159 45.471 119.406 45.191 119.901C44.911 120.386 44.771 121.054 44.771 121.903C44.771 122.752 44.911 123.406 45.191 123.863C45.471 124.32 45.8863 124.549 46.437 124.549ZM56.6004 123.499C56.6004 123.994 56.4884 124.409 56.2644 124.745C56.0404 125.081 55.7137 125.338 55.2844 125.515C54.8551 125.683 54.3277 125.767 53.7024 125.767C53.2077 125.767 52.7737 125.725 52.4004 125.641C52.0364 125.566 51.7004 125.454 51.3924 125.305V124.003C51.7191 124.162 52.0924 124.306 52.5124 124.437C52.9324 124.558 53.3337 124.619 53.7164 124.619C54.2111 124.619 54.5704 124.53 54.7944 124.353C55.0184 124.176 55.1304 123.938 55.1304 123.639C55.1304 123.471 55.0837 123.322 54.9904 123.191C54.9064 123.051 54.7431 122.911 54.5004 122.771C54.2577 122.622 53.9077 122.454 53.4504 122.267C53.0024 122.071 52.6244 121.88 52.3164 121.693C52.0177 121.497 51.7844 121.268 51.6164 121.007C51.4577 120.736 51.3784 120.391 51.3784 119.971C51.3784 119.318 51.6304 118.818 52.1344 118.473C52.6384 118.118 53.2964 117.941 54.1084 117.941C54.5564 117.941 54.9717 117.988 55.3544 118.081C55.7371 118.165 56.1104 118.296 56.4744 118.473L56.0124 119.607C55.7977 119.504 55.5784 119.42 55.3544 119.355C55.1397 119.28 54.9251 119.22 54.7104 119.173C54.4957 119.126 54.2811 119.103 54.0664 119.103C53.6651 119.103 53.3617 119.173 53.1564 119.313C52.9511 119.453 52.8484 119.649 52.8484 119.901C52.8484 120.088 52.8951 120.246 52.9884 120.377C53.0911 120.508 53.2637 120.638 53.5064 120.769C53.7584 120.9 54.1037 121.054 54.5424 121.231C54.9811 121.408 55.3544 121.59 55.6624 121.777C55.9704 121.964 56.2037 122.192 56.3624 122.463C56.5211 122.734 56.6004 123.079 56.6004 123.499ZM63.0262 123.499C63.0262 123.994 62.9142 124.409 62.6902 124.745C62.4662 125.081 62.1395 125.338 61.7102 125.515C61.2809 125.683 60.7535 125.767 60.1282 125.767C59.6335 125.767 59.1995 125.725 58.8262 125.641C58.4622 125.566 58.1262 125.454 57.8182 125.305V124.003C58.1449 124.162 58.5182 124.306 58.9382 124.437C59.3582 124.558 59.7595 124.619 60.1422 124.619C60.6369 124.619 60.9962 124.53 61.2202 124.353C61.4442 124.176 61.5562 123.938 61.5562 123.639C61.5562 123.471 61.5095 123.322 61.4162 123.191C61.3322 123.051 61.1689 122.911 60.9262 122.771C60.6835 122.622 60.3335 122.454 59.8762 122.267C59.4282 122.071 59.0502 121.88 58.7422 121.693C58.4435 121.497 58.2102 121.268 58.0422 121.007C57.8835 120.736 57.8042 120.391 57.8042 119.971C57.8042 119.318 58.0562 118.818 58.5602 118.473C59.0642 118.118 59.7222 117.941 60.5342 117.941C60.9822 117.941 61.3975 117.988 61.7802 118.081C62.1629 118.165 62.5362 118.296 62.9002 118.473L62.4382 119.607C62.2235 119.504 62.0042 119.42 61.7802 119.355C61.5655 119.28 61.3509 119.22 61.1362 119.173C60.9215 119.126 60.7069 119.103 60.4922 119.103C60.0909 119.103 59.7875 119.173 59.5822 119.313C59.3769 119.453 59.2742 119.649 59.2742 119.901C59.2742 120.088 59.3209 120.246 59.4142 120.377C59.5169 120.508 59.6895 120.638 59.9322 120.769C60.1842 120.9 60.5295 121.054 60.9682 121.231C61.4069 121.408 61.7802 121.59 62.0882 121.777C62.3962 121.964 62.6295 122.192 62.7882 122.463C62.9469 122.734 63.0262 123.079 63.0262 123.499ZM66.162 117.829C66.162 118.062 66.1526 118.296 66.134 118.529C66.1246 118.762 66.1106 118.954 66.092 119.103H66.176C66.3253 118.842 66.5073 118.627 66.722 118.459C66.946 118.291 67.1933 118.165 67.464 118.081C67.744 117.997 68.0286 117.955 68.318 117.955C68.8686 117.955 69.3353 118.053 69.718 118.249C70.11 118.436 70.404 118.734 70.6 119.145C70.8053 119.546 70.908 120.069 70.908 120.713V125.627H69.382V120.923C69.382 120.335 69.27 119.896 69.046 119.607C68.822 119.308 68.472 119.159 67.996 119.159C67.5386 119.159 67.1746 119.262 66.904 119.467C66.6333 119.672 66.442 119.976 66.33 120.377C66.218 120.769 66.162 121.254 66.162 121.833V125.627H64.65V114.987H66.162V117.829ZM79.3318 121.847C79.3318 122.472 79.2525 123.028 79.0938 123.513C78.9351 123.998 78.7065 124.409 78.4078 124.745C78.1185 125.081 77.7638 125.338 77.3438 125.515C76.9238 125.683 76.4525 125.767 75.9298 125.767C75.4538 125.767 75.0105 125.683 74.5998 125.515C74.1891 125.338 73.8345 125.081 73.5358 124.745C73.2371 124.409 73.0038 123.998 72.8358 123.513C72.6771 123.028 72.5978 122.468 72.5978 121.833C72.5978 121.002 72.7331 120.298 73.0038 119.719C73.2745 119.14 73.6618 118.702 74.1658 118.403C74.6791 118.095 75.2858 117.941 75.9858 117.941C76.6391 117.941 77.2178 118.095 77.7218 118.403C78.2258 118.702 78.6178 119.14 78.8978 119.719C79.1871 120.298 79.3318 121.007 79.3318 121.847ZM74.1658 121.847C74.1658 122.407 74.2265 122.892 74.3478 123.303C74.4785 123.704 74.6745 124.012 74.9358 124.227C75.2065 124.442 75.5471 124.549 75.9578 124.549C76.3778 124.549 76.7185 124.442 76.9798 124.227C77.2505 124.012 77.4465 123.704 77.5678 123.303C77.6985 122.892 77.7638 122.407 77.7638 121.847C77.7638 121.268 77.6985 120.783 77.5678 120.391C77.4371 119.999 77.2411 119.7 76.9798 119.495C76.7185 119.28 76.3731 119.173 75.9438 119.173C75.3185 119.173 74.8658 119.406 74.5858 119.873C74.3058 120.34 74.1658 120.998 74.1658 121.847ZM84.6962 117.941C85.5456 117.941 86.2269 118.268 86.7402 118.921C87.2536 119.574 87.5102 120.55 87.5102 121.847C87.5102 122.696 87.3889 123.415 87.1462 124.003C86.9129 124.591 86.5816 125.034 86.1522 125.333C85.7229 125.622 85.2236 125.767 84.6542 125.767C84.3089 125.767 84.0009 125.72 83.7302 125.627C83.4596 125.524 83.2309 125.394 83.0442 125.235C82.8669 125.067 82.7082 124.89 82.5682 124.703H82.4842C82.5029 124.871 82.5216 125.072 82.5402 125.305C82.5589 125.529 82.5682 125.73 82.5682 125.907V128.987H81.0562V118.081H82.2882L82.4982 119.089H82.5682C82.7082 118.884 82.8716 118.692 83.0582 118.515C83.2542 118.338 83.4829 118.198 83.7442 118.095C84.0149 117.992 84.3322 117.941 84.6962 117.941ZM84.2902 119.159C83.8796 119.159 83.5482 119.252 83.2962 119.439C83.0442 119.616 82.8576 119.887 82.7362 120.251C82.6242 120.606 82.5682 121.058 82.5682 121.609V121.833C82.5682 122.412 82.6196 122.906 82.7222 123.317C82.8342 123.718 83.0162 124.026 83.2682 124.241C83.5296 124.446 83.8796 124.549 84.3182 124.549C84.6916 124.549 84.9996 124.437 85.2422 124.213C85.4849 123.98 85.6622 123.658 85.7742 123.247C85.8956 122.836 85.9562 122.36 85.9562 121.819C85.9562 120.998 85.8162 120.349 85.5362 119.873C85.2656 119.397 84.8502 119.159 84.2902 119.159ZM99.2977 120.629C99.2977 121.058 99.251 121.478 99.1577 121.889C99.0643 122.3 98.9197 122.673 98.7237 123.009C98.5277 123.345 98.285 123.616 97.9957 123.821C97.7063 124.017 97.3657 124.115 96.9737 124.115C96.6003 124.115 96.2923 124.003 96.0497 123.779C95.807 123.555 95.6483 123.294 95.5737 122.995H95.4897C95.331 123.312 95.0977 123.578 94.7897 123.793C94.491 124.008 94.1223 124.115 93.6837 124.115C92.965 124.115 92.4143 123.877 92.0317 123.401C91.6583 122.916 91.4717 122.276 91.4717 121.483C91.4717 120.867 91.5883 120.321 91.8217 119.845C92.0643 119.369 92.4003 118.996 92.8297 118.725C93.2683 118.454 93.791 118.319 94.3977 118.319C94.799 118.319 95.1957 118.356 95.5877 118.431C95.9797 118.496 96.2877 118.576 96.5117 118.669L96.3857 121.511C96.3763 121.66 96.367 121.777 96.3577 121.861C96.3577 121.936 96.3577 121.987 96.3577 122.015C96.3577 122.463 96.423 122.762 96.5537 122.911C96.6937 123.06 96.8523 123.135 97.0297 123.135C97.2723 123.135 97.4777 123.023 97.6457 122.799C97.8137 122.566 97.9397 122.258 98.0237 121.875C98.117 121.492 98.1637 121.072 98.1637 120.615C98.1637 119.766 98.005 119.052 97.6877 118.473C97.3797 117.885 96.9503 117.437 96.3997 117.129C95.849 116.821 95.219 116.667 94.5097 116.667C93.791 116.667 93.1517 116.788 92.5917 117.031C92.0317 117.274 91.565 117.619 91.1917 118.067C90.8183 118.515 90.5337 119.042 90.3377 119.649C90.1417 120.256 90.0437 120.923 90.0437 121.651C90.0437 122.538 90.1883 123.294 90.4777 123.919C90.7763 124.544 91.2103 125.02 91.7797 125.347C92.3583 125.664 93.0677 125.823 93.9077 125.823C94.421 125.823 94.939 125.758 95.4617 125.627C95.9843 125.506 96.451 125.366 96.8617 125.207V126.271C96.4697 126.439 96.0263 126.579 95.5317 126.691C95.037 126.803 94.505 126.859 93.9357 126.859C92.881 126.859 91.9757 126.654 91.2197 126.243C90.4637 125.832 89.885 125.244 89.4837 124.479C89.0823 123.704 88.8817 122.776 88.8817 121.693C88.8817 120.825 89.0123 120.022 89.2737 119.285C89.535 118.548 89.9083 117.908 90.3937 117.367C90.879 116.816 91.467 116.392 92.1577 116.093C92.8483 115.785 93.6277 115.631 94.4957 115.631C95.1957 115.631 95.835 115.748 96.4137 115.981C97.0017 116.205 97.5103 116.536 97.9397 116.975C98.3783 117.404 98.7143 117.927 98.9477 118.543C99.181 119.159 99.2977 119.854 99.2977 120.629ZM92.7037 121.511C92.7037 122.08 92.8063 122.496 93.0117 122.757C93.2263 123.009 93.5063 123.135 93.8517 123.135C94.309 123.135 94.6357 122.948 94.8317 122.575C95.037 122.192 95.1583 121.702 95.1957 121.105L95.2797 119.425C95.1677 119.388 95.037 119.36 94.8877 119.341C94.7383 119.313 94.5843 119.299 94.4257 119.299C94.015 119.299 93.679 119.406 93.4177 119.621C93.1657 119.836 92.9837 120.111 92.8717 120.447C92.7597 120.783 92.7037 121.138 92.7037 121.511ZM103.508 117.941C103.966 117.941 104.372 118.034 104.726 118.221C105.09 118.408 105.398 118.692 105.65 119.075H105.706L105.874 118.081H107.12V125.725C107.12 126.434 106.999 127.032 106.756 127.517C106.514 128.002 106.145 128.366 105.65 128.609C105.156 128.861 104.53 128.987 103.774 128.987C103.252 128.987 102.776 128.95 102.346 128.875C101.926 128.8 101.534 128.684 101.17 128.525V127.223C101.413 127.354 101.674 127.461 101.954 127.545C102.234 127.638 102.528 127.704 102.836 127.741C103.154 127.788 103.48 127.811 103.816 127.811C104.395 127.811 104.838 127.634 105.146 127.279C105.464 126.934 105.622 126.444 105.622 125.809V125.557C105.622 125.436 105.627 125.277 105.636 125.081C105.646 124.876 105.655 124.726 105.664 124.633H105.608C105.375 125.025 105.081 125.314 104.726 125.501C104.381 125.678 103.97 125.767 103.494 125.767C102.617 125.767 101.926 125.426 101.422 124.745C100.918 124.054 100.666 123.098 100.666 121.875C100.666 121.054 100.778 120.354 101.002 119.775C101.236 119.187 101.562 118.734 101.982 118.417C102.412 118.1 102.92 117.941 103.508 117.941ZM103.872 119.173C103.518 119.173 103.219 119.28 102.976 119.495C102.734 119.7 102.547 120.004 102.416 120.405C102.295 120.806 102.234 121.301 102.234 121.889C102.234 122.766 102.374 123.434 102.654 123.891C102.934 124.348 103.345 124.577 103.886 124.577C104.204 124.577 104.474 124.53 104.698 124.437C104.922 124.344 105.104 124.199 105.244 124.003C105.394 123.807 105.501 123.56 105.566 123.261C105.641 122.953 105.678 122.584 105.678 122.155V121.875C105.678 121.231 105.613 120.713 105.482 120.321C105.361 119.92 105.165 119.63 104.894 119.453C104.633 119.266 104.292 119.173 103.872 119.173ZM117.298 117.941C118.1 117.941 118.702 118.16 119.104 118.599C119.514 119.038 119.72 119.742 119.72 120.713V125.627H118.208V120.909C118.208 120.33 118.1 119.896 117.886 119.607C117.68 119.308 117.358 119.159 116.92 119.159C116.313 119.159 115.879 119.369 115.618 119.789C115.366 120.2 115.24 120.797 115.24 121.581V125.627H113.714V120.909C113.714 120.526 113.667 120.204 113.574 119.943C113.48 119.682 113.34 119.486 113.154 119.355C112.967 119.224 112.724 119.159 112.426 119.159C112.006 119.159 111.674 119.262 111.432 119.467C111.189 119.672 111.016 119.976 110.914 120.377C110.811 120.769 110.76 121.25 110.76 121.819V125.627H109.248V118.081H110.438L110.662 119.089H110.732C110.881 118.828 111.058 118.613 111.264 118.445C111.478 118.277 111.721 118.151 111.992 118.067C112.262 117.983 112.542 117.941 112.832 117.941C113.364 117.941 113.812 118.044 114.176 118.249C114.54 118.445 114.81 118.748 114.988 119.159H115.086C115.31 118.739 115.622 118.431 116.024 118.235C116.425 118.039 116.85 117.941 117.298 117.941ZM124.654 117.941C125.541 117.941 126.208 118.151 126.656 118.571C127.114 118.982 127.342 119.63 127.342 120.517V125.627H126.264L125.97 124.577H125.914C125.7 124.848 125.485 125.072 125.27 125.249C125.065 125.426 124.822 125.557 124.542 125.641C124.272 125.725 123.936 125.767 123.534 125.767C123.114 125.767 122.736 125.688 122.4 125.529C122.064 125.361 121.798 125.109 121.602 124.773C121.406 124.428 121.308 123.998 121.308 123.485C121.308 122.72 121.579 122.136 122.12 121.735C122.671 121.334 123.506 121.114 124.626 121.077L125.83 121.035V120.615C125.83 120.055 125.714 119.663 125.48 119.439C125.256 119.215 124.939 119.103 124.528 119.103C124.183 119.103 123.842 119.159 123.506 119.271C123.17 119.383 122.844 119.518 122.526 119.677L122.064 118.599C122.41 118.412 122.802 118.258 123.24 118.137C123.688 118.006 124.16 117.941 124.654 117.941ZM124.92 122.029C124.155 122.066 123.623 122.211 123.324 122.463C123.026 122.706 122.876 123.051 122.876 123.499C122.876 123.891 122.979 124.176 123.184 124.353C123.399 124.53 123.674 124.619 124.01 124.619C124.524 124.619 124.953 124.456 125.298 124.129C125.653 123.802 125.83 123.312 125.83 122.659V122.001L124.92 122.029ZM130.953 118.081V125.627H129.427V118.081H130.953ZM130.211 115.211C130.435 115.211 130.631 115.276 130.799 115.407C130.967 115.538 131.051 115.757 131.051 116.065C131.051 116.364 130.967 116.583 130.799 116.723C130.631 116.854 130.435 116.919 130.211 116.919C129.969 116.919 129.763 116.854 129.595 116.723C129.427 116.583 129.343 116.364 129.343 116.065C129.343 115.757 129.427 115.538 129.595 115.407C129.763 115.276 129.969 115.211 130.211 115.211ZM134.59 125.627H133.078V114.987H134.59V125.627ZM136.504 124.801C136.504 124.437 136.593 124.18 136.77 124.031C136.957 123.882 137.186 123.807 137.456 123.807C137.718 123.807 137.942 123.882 138.128 124.031C138.324 124.18 138.422 124.437 138.422 124.801C138.422 125.165 138.324 125.426 138.128 125.585C137.942 125.744 137.718 125.823 137.456 125.823C137.186 125.823 136.957 125.744 136.77 125.585C136.593 125.426 136.504 125.165 136.504 124.801ZM143.263 125.767C142.601 125.767 142.017 125.632 141.513 125.361C141.019 125.09 140.631 124.67 140.351 124.101C140.081 123.522 139.945 122.79 139.945 121.903C139.945 120.97 140.095 120.214 140.393 119.635C140.692 119.056 141.098 118.632 141.611 118.361C142.125 118.081 142.713 117.941 143.375 117.941C143.767 117.941 144.141 117.988 144.495 118.081C144.859 118.165 145.158 118.263 145.391 118.375L144.929 119.565C144.696 119.472 144.444 119.388 144.173 119.313C143.903 119.238 143.646 119.201 143.403 119.201C142.974 119.201 142.619 119.304 142.339 119.509C142.069 119.705 141.863 120.004 141.723 120.405C141.583 120.797 141.513 121.292 141.513 121.889C141.513 122.458 141.583 122.939 141.723 123.331C141.863 123.723 142.069 124.022 142.339 124.227C142.619 124.423 142.955 124.521 143.347 124.521C143.73 124.521 144.071 124.474 144.369 124.381C144.677 124.288 144.962 124.166 145.223 124.017V125.305C144.962 125.464 144.677 125.58 144.369 125.655C144.061 125.73 143.693 125.767 143.263 125.767ZM153.201 121.847C153.201 122.472 153.122 123.028 152.963 123.513C152.804 123.998 152.576 124.409 152.277 124.745C151.988 125.081 151.633 125.338 151.213 125.515C150.793 125.683 150.322 125.767 149.799 125.767C149.323 125.767 148.88 125.683 148.469 125.515C148.058 125.338 147.704 125.081 147.405 124.745C147.106 124.409 146.873 123.998 146.705 123.513C146.546 123.028 146.467 122.468 146.467 121.833C146.467 121.002 146.602 120.298 146.873 119.719C147.144 119.14 147.531 118.702 148.035 118.403C148.548 118.095 149.155 117.941 149.855 117.941C150.508 117.941 151.087 118.095 151.591 118.403C152.095 118.702 152.487 119.14 152.767 119.719C153.056 120.298 153.201 121.007 153.201 121.847ZM148.035 121.847C148.035 122.407 148.096 122.892 148.217 123.303C148.348 123.704 148.544 124.012 148.805 124.227C149.076 124.442 149.416 124.549 149.827 124.549C150.247 124.549 150.588 124.442 150.849 124.227C151.12 124.012 151.316 123.704 151.437 123.303C151.568 122.892 151.633 122.407 151.633 121.847C151.633 121.268 151.568 120.783 151.437 120.391C151.306 119.999 151.11 119.7 150.849 119.495C150.588 119.28 150.242 119.173 149.813 119.173C149.188 119.173 148.735 119.406 148.455 119.873C148.175 120.34 148.035 120.998 148.035 121.847ZM162.975 117.941C163.778 117.941 164.38 118.16 164.781 118.599C165.192 119.038 165.397 119.742 165.397 120.713V125.627H163.885V120.909C163.885 120.33 163.778 119.896 163.563 119.607C163.358 119.308 163.036 119.159 162.597 119.159C161.991 119.159 161.557 119.369 161.295 119.789C161.043 120.2 160.917 120.797 160.917 121.581V125.627H159.391V120.909C159.391 120.526 159.345 120.204 159.251 119.943C159.158 119.682 159.018 119.486 158.831 119.355C158.645 119.224 158.402 119.159 158.103 119.159C157.683 119.159 157.352 119.262 157.109 119.467C156.867 119.672 156.694 119.976 156.591 120.377C156.489 120.769 156.437 121.25 156.437 121.819V125.627H154.925V118.081H156.115L156.339 119.089H156.409C156.559 118.828 156.736 118.613 156.941 118.445C157.156 118.277 157.399 118.151 157.669 118.067C157.94 117.983 158.22 117.941 158.509 117.941C159.041 117.941 159.489 118.044 159.853 118.249C160.217 118.445 160.488 118.748 160.665 119.159H160.763C160.987 118.739 161.3 118.431 161.701 118.235C162.103 118.039 162.527 117.941 162.975 117.941Z" fill="#090F24"/>
<path d="M13.9951 119.73L20.8597 124.071V115.207L13.9951 119.73Z" fill="#686877"/>
<path d="M0.496094 115.207V124.071L7.36067 119.73L0.496094 115.207Z" fill="#686877"/>
<path d="M19.587 112.627H1.76881C1.13347 112.627 0.630484 113.101 0.534775 113.71L10.6779 120.392L20.821 113.708C20.7253 113.099 20.2223 112.627 19.587 112.627Z" fill="#686877"/>
<path d="M12.8283 120.5L11.0282 121.687C10.9203 121.756 10.8001 121.791 10.6779 121.791C10.5558 121.791 10.4356 121.756 10.3277 121.687L8.52754 120.5L0.53685 125.552C0.634595 126.157 1.13554 126.627 1.76885 126.627H19.587C20.2203 126.627 20.7213 126.157 20.819 125.552L12.8283 120.5Z" fill="#686877"/>
<path d="M27.826 55.125H30.388V56.259H27.826V59.073H26.664V56.259H24.102V55.125H26.664V52.297H27.826V55.125ZM37.6136 52.941C37.6136 53.389 37.5296 53.781 37.3616 54.117C37.1936 54.4436 36.9602 54.7096 36.6616 54.915C36.3722 55.1203 36.0269 55.2696 35.6256 55.363V55.419C36.3909 55.5123 36.9602 55.7643 37.3336 56.175C37.7162 56.5763 37.9076 57.1083 37.9076 57.771C37.9076 58.3496 37.7769 58.8676 37.5156 59.325C37.2542 59.773 36.8482 60.1276 36.2976 60.389C35.7562 60.641 35.0609 60.767 34.2116 60.767C33.6982 60.767 33.2269 60.725 32.7976 60.641C32.3776 60.557 31.9716 60.417 31.5796 60.221V58.877C31.9716 59.0916 32.3916 59.255 32.8396 59.367C33.2969 59.479 33.7262 59.535 34.1276 59.535C34.9022 59.535 35.4576 59.3763 35.7936 59.059C36.1296 58.7323 36.2976 58.2796 36.2976 57.701C36.2976 57.3276 36.2089 57.0243 36.0316 56.791C35.8542 56.5483 35.5836 56.371 35.2196 56.259C34.8556 56.1376 34.3936 56.077 33.8336 56.077H33.0216V54.859H33.8476C34.3702 54.859 34.7949 54.789 35.1216 54.649C35.4576 54.4996 35.7002 54.2943 35.8496 54.033C36.0082 53.7716 36.0876 53.473 36.0876 53.137C36.0876 52.689 35.9522 52.3436 35.6816 52.101C35.4202 51.849 35.0422 51.723 34.5476 51.723C34.2302 51.723 33.9362 51.7603 33.6656 51.835C33.4042 51.9096 33.1616 52.0076 32.9376 52.129C32.7229 52.2503 32.5222 52.3856 32.3356 52.535L31.6216 51.513C31.8549 51.3263 32.1209 51.1536 32.4196 50.995C32.7182 50.8363 33.0496 50.715 33.4136 50.631C33.7776 50.5376 34.1836 50.491 34.6316 50.491C35.6116 50.491 36.3536 50.7196 36.8576 51.177C37.3616 51.625 37.6136 52.213 37.6136 52.941ZM42.3464 50.491C42.9064 50.491 43.4011 50.5843 43.8304 50.771C44.2691 50.9483 44.6098 51.2143 44.8524 51.569C45.1044 51.9236 45.2304 52.367 45.2304 52.899C45.2304 53.3003 45.1511 53.6503 44.9924 53.949C44.8431 54.2476 44.6331 54.5136 44.3624 54.747C44.1011 54.971 43.8118 55.167 43.4944 55.335C43.8584 55.531 44.1944 55.755 44.5024 56.007C44.8104 56.2496 45.0578 56.5343 45.2444 56.861C45.4404 57.1876 45.5384 57.5796 45.5384 58.037C45.5384 58.597 45.4078 59.0823 45.1464 59.493C44.8944 59.8943 44.5304 60.207 44.0544 60.431C43.5784 60.655 43.0138 60.767 42.3604 60.767C41.6604 60.767 41.0678 60.6596 40.5824 60.445C40.1064 60.2303 39.7471 59.927 39.5044 59.535C39.2618 59.1336 39.1404 58.6483 39.1404 58.079C39.1404 57.6216 39.2244 57.225 39.3924 56.889C39.5698 56.553 39.7984 56.2636 40.0784 56.021C40.3678 55.7783 40.6851 55.573 41.0304 55.405C40.7318 55.2183 40.4611 55.0083 40.2184 54.775C39.9758 54.5323 39.7844 54.257 39.6444 53.949C39.5138 53.641 39.4484 53.2863 39.4484 52.885C39.4484 52.3623 39.5744 51.9283 39.8264 51.583C40.0784 51.2283 40.4238 50.9576 40.8624 50.771C41.3011 50.5843 41.7958 50.491 42.3464 50.491ZM40.5964 58.051C40.5964 58.5083 40.7411 58.8863 41.0304 59.185C41.3198 59.4743 41.7538 59.619 42.3324 59.619C42.7244 59.619 43.0464 59.5536 43.2984 59.423C43.5504 59.283 43.7418 59.0963 43.8724 58.863C44.0124 58.6203 44.0824 58.345 44.0824 58.037C44.0824 57.729 44.0078 57.4583 43.8584 57.225C43.7091 56.9916 43.5038 56.7863 43.2424 56.609C42.9904 56.4223 42.7011 56.2543 42.3744 56.105L42.1924 56.021C41.8564 56.1796 41.5671 56.357 41.3244 56.553C41.0911 56.749 40.9091 56.9683 40.7784 57.211C40.6571 57.4536 40.5964 57.7336 40.5964 58.051ZM42.3184 51.653C41.9078 51.653 41.5671 51.765 41.2964 51.989C41.0351 52.213 40.9044 52.5396 40.9044 52.969C40.9044 53.277 40.9698 53.5383 41.1004 53.753C41.2404 53.9676 41.4178 54.1543 41.6324 54.313C41.8564 54.4623 42.0991 54.607 42.3604 54.747C42.6218 54.6163 42.8551 54.4763 43.0604 54.327C43.2751 54.1683 43.4431 53.9816 43.5644 53.767C43.6951 53.543 43.7604 53.277 43.7604 52.969C43.7604 52.5396 43.6251 52.213 43.3544 51.989C43.0931 51.765 42.7478 51.653 42.3184 51.653ZM56.4893 55.615C56.4893 56.427 56.4333 57.1503 56.3213 57.785C56.2093 58.4196 56.0226 58.961 55.7613 59.409C55.5093 59.8476 55.1779 60.1836 54.7673 60.417C54.3659 60.6503 53.8713 60.767 53.2833 60.767C52.5646 60.767 51.9673 60.5616 51.4913 60.151C51.0246 59.7403 50.6746 59.1523 50.4413 58.387C50.2173 57.6123 50.1053 56.6883 50.1053 55.615C50.1053 54.5323 50.2079 53.6083 50.4133 52.843C50.6279 52.0776 50.9686 51.4943 51.4353 51.093C51.9019 50.6823 52.5226 50.477 53.2973 50.477C54.0253 50.477 54.6226 50.6823 55.0893 51.093C55.5653 51.4943 55.9153 52.0776 56.1393 52.843C56.3726 53.6083 56.4893 54.5323 56.4893 55.615ZM51.6313 55.615C51.6313 56.483 51.6826 57.2063 51.7853 57.785C51.8973 58.3636 52.0746 58.7976 52.3173 59.087C52.5693 59.3763 52.8959 59.521 53.2973 59.521C53.7079 59.521 54.0299 59.381 54.2633 59.101C54.5059 58.8116 54.6833 58.3776 54.7953 57.799C54.9073 57.211 54.9633 56.483 54.9633 55.615C54.9633 54.747 54.9073 54.0283 54.7953 53.459C54.6833 52.8803 54.5059 52.4463 54.2633 52.157C54.0299 51.8676 53.7079 51.723 53.2973 51.723C52.8959 51.723 52.5693 51.8676 52.3173 52.157C52.0746 52.4463 51.8973 52.8803 51.7853 53.459C51.6826 54.0283 51.6313 54.747 51.6313 55.615ZM64.0222 54.901C64.0222 55.4796 63.9802 56.0536 63.8962 56.623C63.8215 57.1923 63.6862 57.729 63.4902 58.233C63.2942 58.7276 63.0282 59.1663 62.6922 59.549C62.3562 59.9316 61.9268 60.2303 61.4042 60.445C60.8908 60.6596 60.2702 60.767 59.5422 60.767C59.3648 60.767 59.1548 60.7576 58.9122 60.739C58.6695 60.7203 58.4735 60.6876 58.3242 60.641V59.395C58.4828 59.451 58.6602 59.493 58.8562 59.521C59.0615 59.549 59.2622 59.563 59.4582 59.563C60.0555 59.563 60.5502 59.4696 60.9422 59.283C61.3342 59.087 61.6468 58.8163 61.8802 58.471C62.1135 58.1256 62.2768 57.7243 62.3702 57.267C62.4728 56.8096 62.5335 56.3243 62.5522 55.811H62.4822C62.3515 56.0256 62.1928 56.2216 62.0062 56.399C61.8195 56.5763 61.5862 56.7163 61.3062 56.819C61.0355 56.9216 60.7042 56.973 60.3122 56.973C59.7802 56.973 59.3135 56.8516 58.9122 56.609C58.5108 56.3663 58.2028 56.021 57.9882 55.573C57.7735 55.1156 57.6662 54.5603 57.6662 53.907C57.6662 53.1976 57.7875 52.591 58.0302 52.087C58.2822 51.5736 58.6368 51.1816 59.0942 50.911C59.5608 50.631 60.1068 50.491 60.7322 50.491C61.1988 50.491 61.6282 50.5843 62.0202 50.771C62.4215 50.9483 62.7715 51.219 63.0702 51.583C63.3782 51.947 63.6115 52.4043 63.7702 52.955C63.9382 53.5056 64.0222 54.1543 64.0222 54.901ZM60.7602 51.723C60.2842 51.723 59.8968 51.9003 59.5982 52.255C59.2995 52.6096 59.1502 53.151 59.1502 53.879C59.1502 54.4763 59.2762 54.9476 59.5282 55.293C59.7895 55.629 60.1815 55.797 60.7042 55.797C61.0682 55.797 61.3855 55.713 61.6562 55.545C61.9268 55.377 62.1322 55.167 62.2722 54.915C62.4215 54.6536 62.4962 54.383 62.4962 54.103C62.4962 53.8136 62.4588 53.529 62.3842 53.249C62.3095 52.969 62.2022 52.7123 62.0622 52.479C61.9222 52.2456 61.7402 52.0636 61.5162 51.933C61.3015 51.793 61.0495 51.723 60.7602 51.723ZM66.291 60.627L69.987 51.947H65.143V50.631H71.611V51.695L67.929 60.627H66.291ZM82.8979 58.415H81.6239V60.627H80.1399V58.415H75.8419V57.239L80.1259 50.589H81.6239V57.155H82.8979V58.415ZM80.1399 54.439C80.1399 54.215 80.1399 54.0003 80.1399 53.795C80.1492 53.5896 80.1585 53.3936 80.1679 53.207C80.1772 53.011 80.1819 52.8336 80.1819 52.675C80.1912 52.507 80.2005 52.3576 80.2099 52.227H80.1539C80.0792 52.4136 79.9905 52.605 79.8879 52.801C79.7945 52.997 79.7012 53.1696 79.6079 53.319L77.2559 57.155H80.1399V54.439ZM89.7307 52.941C89.7307 53.389 89.6467 53.781 89.4787 54.117C89.3107 54.4436 89.0774 54.7096 88.7787 54.915C88.4894 55.1203 88.1441 55.2696 87.7427 55.363V55.419C88.5081 55.5123 89.0774 55.7643 89.4507 56.175C89.8334 56.5763 90.0247 57.1083 90.0247 57.771C90.0247 58.3496 89.8941 58.8676 89.6327 59.325C89.3714 59.773 88.9654 60.1276 88.4147 60.389C87.8734 60.641 87.1781 60.767 86.3287 60.767C85.8154 60.767 85.3441 60.725 84.9147 60.641C84.4947 60.557 84.0887 60.417 83.6967 60.221V58.877C84.0887 59.0916 84.5087 59.255 84.9567 59.367C85.4141 59.479 85.8434 59.535 86.2447 59.535C87.0194 59.535 87.5747 59.3763 87.9107 59.059C88.2467 58.7323 88.4147 58.2796 88.4147 57.701C88.4147 57.3276 88.3261 57.0243 88.1487 56.791C87.9714 56.5483 87.7007 56.371 87.3367 56.259C86.9727 56.1376 86.5107 56.077 85.9507 56.077H85.1387V54.859H85.9647C86.4874 54.859 86.9121 54.789 87.2387 54.649C87.5747 54.4996 87.8174 54.2943 87.9667 54.033C88.1254 53.7716 88.2047 53.473 88.2047 53.137C88.2047 52.689 88.0694 52.3436 87.7987 52.101C87.5374 51.849 87.1594 51.723 86.6647 51.723C86.3474 51.723 86.0534 51.7603 85.7827 51.835C85.5214 51.9096 85.2787 52.0076 85.0547 52.129C84.8401 52.2503 84.6394 52.3856 84.4527 52.535L83.7387 51.513C83.9721 51.3263 84.2381 51.1536 84.5367 50.995C84.8354 50.8363 85.1667 50.715 85.5307 50.631C85.8947 50.5376 86.3007 50.491 86.7487 50.491C87.7287 50.491 88.4707 50.7196 88.9747 51.177C89.4787 51.625 89.7307 52.213 89.7307 52.941ZM94.4636 54.425C95.0703 54.425 95.6023 54.5416 96.0596 54.775C96.5263 55.0083 96.8903 55.3443 97.1516 55.783C97.413 56.2216 97.5436 56.7583 97.5436 57.393C97.5436 58.093 97.4036 58.695 97.1236 59.199C96.8436 59.703 96.433 60.0903 95.8916 60.361C95.3596 60.6316 94.7063 60.767 93.9316 60.767C93.437 60.767 92.975 60.7203 92.5456 60.627C92.1163 60.5336 91.7476 60.3983 91.4396 60.221V58.863C91.757 59.059 92.1443 59.2176 92.6016 59.339C93.059 59.4603 93.4883 59.521 93.8896 59.521C94.319 59.521 94.6876 59.451 94.9956 59.311C95.313 59.1616 95.5556 58.9423 95.7236 58.653C95.901 58.3543 95.9896 57.981 95.9896 57.533C95.9896 56.9263 95.817 56.4643 95.4716 56.147C95.1263 55.8203 94.585 55.657 93.8476 55.657C93.5956 55.657 93.325 55.6803 93.0356 55.727C92.7463 55.7736 92.5083 55.8203 92.3216 55.867L91.6496 55.461L91.9996 50.631H96.8856V51.947H93.3156L93.1196 54.565C93.269 54.537 93.451 54.509 93.6656 54.481C93.8896 54.4436 94.1556 54.425 94.4636 54.425ZM102.278 56.371C102.278 55.7923 102.316 55.223 102.39 54.663C102.465 54.103 102.596 53.5756 102.782 53.081C102.978 52.577 103.244 52.1336 103.58 51.751C103.916 51.359 104.346 51.0556 104.868 50.841C105.391 50.617 106.021 50.505 106.758 50.505C106.945 50.505 107.15 50.5143 107.374 50.533C107.608 50.5423 107.804 50.5703 107.962 50.617V51.863C107.794 51.807 107.608 51.765 107.402 51.737C107.206 51.709 107.001 51.695 106.786 51.695C106.208 51.695 105.722 51.793 105.33 51.989C104.948 52.185 104.64 52.4556 104.406 52.801C104.182 53.1463 104.019 53.5476 103.916 54.005C103.814 54.453 103.753 54.943 103.734 55.475H103.804C103.935 55.251 104.094 55.0503 104.28 54.873C104.476 54.6956 104.71 54.5556 104.98 54.453C105.26 54.3503 105.582 54.299 105.946 54.299C106.497 54.299 106.973 54.4203 107.374 54.663C107.776 54.9056 108.088 55.2556 108.312 55.713C108.536 56.1703 108.648 56.7256 108.648 57.379C108.648 58.079 108.522 58.6856 108.27 59.199C108.018 59.703 107.664 60.0903 107.206 60.361C106.749 60.6316 106.203 60.767 105.568 60.767C105.111 60.767 104.682 60.6783 104.28 60.501C103.879 60.3236 103.529 60.053 103.23 59.689C102.932 59.325 102.698 58.8676 102.53 58.317C102.362 57.757 102.278 57.1083 102.278 56.371ZM105.554 59.535C106.03 59.535 106.413 59.3623 106.702 59.017C107.001 58.6623 107.15 58.1163 107.15 57.379C107.15 56.791 107.02 56.3243 106.758 55.979C106.497 55.6336 106.105 55.461 105.582 55.461C105.228 55.461 104.915 55.545 104.644 55.713C104.383 55.881 104.178 56.0956 104.028 56.357C103.879 56.6183 103.804 56.8843 103.804 57.155C103.804 57.4443 103.837 57.729 103.902 58.009C103.977 58.289 104.089 58.5456 104.238 58.779C104.388 59.0123 104.57 59.199 104.784 59.339C105.008 59.4696 105.265 59.535 105.554 59.535ZM110.861 60.627L114.557 51.947H109.713V50.631H116.181V51.695L112.499 60.627H110.861ZM124.05 58.415H122.776V60.627H121.292V58.415H116.994V57.239L121.278 50.589H122.776V57.155H124.05V58.415ZM121.292 54.439C121.292 54.215 121.292 54.0003 121.292 53.795C121.302 53.5896 121.311 53.3936 121.32 53.207C121.33 53.011 121.334 52.8336 121.334 52.675C121.344 52.507 121.353 52.3576 121.362 52.227H121.306C121.232 52.4136 121.143 52.605 121.04 52.801C120.947 52.997 120.854 53.1696 120.76 53.319L118.408 57.155H121.292V54.439ZM130.883 52.941C130.883 53.389 130.799 53.781 130.631 54.117C130.463 54.4436 130.23 54.7096 129.931 54.915C129.642 55.1203 129.296 55.2696 128.895 55.363V55.419C129.66 55.5123 130.23 55.7643 130.603 56.175C130.986 56.5763 131.177 57.1083 131.177 57.771C131.177 58.3496 131.046 58.8676 130.785 59.325C130.524 59.773 130.118 60.1276 129.567 60.389C129.026 60.641 128.33 60.767 127.481 60.767C126.968 60.767 126.496 60.725 126.067 60.641C125.647 60.557 125.241 60.417 124.849 60.221V58.877C125.241 59.0916 125.661 59.255 126.109 59.367C126.566 59.479 126.996 59.535 127.397 59.535C128.172 59.535 128.727 59.3763 129.063 59.059C129.399 58.7323 129.567 58.2796 129.567 57.701C129.567 57.3276 129.478 57.0243 129.301 56.791C129.124 56.5483 128.853 56.371 128.489 56.259C128.125 56.1376 127.663 56.077 127.103 56.077H126.291V54.859H127.117C127.64 54.859 128.064 54.789 128.391 54.649C128.727 54.4996 128.97 54.2943 129.119 54.033C129.278 53.7716 129.357 53.473 129.357 53.137C129.357 52.689 129.222 52.3436 128.951 52.101C128.69 51.849 128.312 51.723 127.817 51.723C127.5 51.723 127.206 51.7603 126.935 51.835C126.674 51.9096 126.431 52.0076 126.207 52.129C125.992 52.2503 125.792 52.3856 125.605 52.535L124.891 51.513C125.124 51.3263 125.39 51.1536 125.689 50.995C125.988 50.8363 126.319 50.715 126.683 50.631C127.047 50.5376 127.453 50.491 127.901 50.491C128.881 50.491 129.623 50.7196 130.127 51.177C130.631 51.625 130.883 52.213 130.883 52.941Z" fill="#090F24"/>
<path d="M7.13026 55.9951C5.60032 54.4651 5.25588 52.9384 5.17738 52.3248C5.15495 52.1566 5.21423 51.9868 5.33438 51.865L6.56955 50.6299C6.75058 50.4488 6.78262 50.1637 6.64805 49.9474L4.67755 46.8875C4.52696 46.6456 4.21616 46.5575 3.95984 46.6857L0.802229 48.1723C0.597169 48.2717 0.473813 48.4911 0.499445 48.7202C0.666057 50.2934 1.35012 54.1639 5.15495 57.9688C8.95978 61.7736 12.8271 62.4593 14.4035 62.6243C14.6326 62.6467 14.8505 62.5266 14.9514 62.3215L16.4413 59.1575C16.5694 58.9044 16.4813 58.5936 16.241 58.4446L13.1811 56.4757C12.9617 56.3379 12.6797 56.3731 12.4987 56.5542L11.2635 57.7893C11.145 57.9111 10.9719 57.9672 10.8037 57.9463C10.1901 57.8678 8.6602 57.525 7.13026 55.9951Z" fill="#686877"/>
<path d="M14.1618 76.9184C12.6475 75.4498 10.659 74.627 8.53895 74.627C2.39895 74.627 -1.40676 81.2441 1.62181 86.5184L0.496094 90.627L4.73324 89.547C6.59324 90.5412 8.06181 90.4555 8.53895 90.4984C15.6304 90.4984 19.1332 81.9355 14.1618 76.9184Z" fill="#ECEFF1"/>
<path d="M8.53894 89.1127C6.41894 89.1127 5.03608 88.1184 4.90751 88.0327L2.39894 88.6813L3.09037 86.3041L2.91608 86.0441C2.27037 85.0041 1.9218 83.7956 1.9218 82.5413C1.9218 76.6613 9.05608 73.7641 13.2075 77.8699C17.3589 81.9756 14.4647 89.1127 8.53894 89.1127Z" fill="#4CAF50"/>
<path d="M12.1704 84.184V84.2269C11.9532 84.1412 11.0018 83.664 10.8304 83.5783C10.4418 83.4497 10.5275 83.5355 9.75038 84.444C9.6218 84.5726 9.53323 84.5726 9.31895 84.4869C9.1018 84.4012 8.49609 84.184 7.71895 83.4926C7.11323 82.9726 6.72466 82.324 6.59323 82.1097C6.37609 81.764 6.81038 81.7212 7.19895 81.0297C7.28466 80.9012 7.24181 80.7697 7.19895 80.684C7.15609 80.5983 6.76752 79.604 6.59323 79.2126C6.41895 78.824 6.24752 78.8669 6.16181 78.8669C5.77323 78.824 5.51323 78.824 5.25323 79.084C4.17323 80.2526 4.43038 81.5069 5.38181 82.804C7.19895 85.1812 8.15038 85.6155 9.9218 86.2212C10.3961 86.3497 10.8304 86.3497 11.1761 86.3069C11.5647 86.264 12.3447 85.8326 12.5161 85.3555C12.6875 84.8783 12.6904 84.4897 12.6447 84.404C12.4732 84.3126 12.3447 84.2697 12.1704 84.184Z" fill="#FAFAFA"/>
<path d="M34.4914 74.627C30.0734 74.627 26.4914 77.943 26.4914 82.034C26.4914 84.365 27.6544 86.444 29.4724 87.802V90.627L32.1964 89.132C32.9234 89.333 33.6934 89.442 34.4914 89.442C38.9094 89.442 42.4914 86.126 42.4914 82.035C42.4914 77.944 38.9094 74.627 34.4914 74.627ZM35.2864 84.602L33.2494 82.429L29.2744 84.602L33.6474 79.96L35.7344 82.133L39.6594 79.96L35.2864 84.602Z" fill="url(#paint0_linear_1_963)"/>
<path d="M31.2278 166.127V156.131H38.4518V166.127H36.9258V157.433H32.7818V166.127H31.2278ZM42.2791 158.581V161.647H45.6251V158.581H47.1371V166.127H45.6251V162.837H42.2791V166.127H40.7671V158.581H42.2791ZM48.669 163.005V161.745H51.973V163.005H48.669ZM53.6496 166.127V156.131H60.8736V166.127H59.3476V157.433H55.2036V166.127H53.6496ZM68.551 159.771H66.213V166.127H64.715V159.771H62.405V158.581H68.551V159.771ZM69.7056 165.301C69.7056 164.937 69.7942 164.68 69.9716 164.531C70.1582 164.382 70.3869 164.307 70.6576 164.307C70.9189 164.307 71.1429 164.382 71.3296 164.531C71.5256 164.68 71.6236 164.937 71.6236 165.301C71.6236 165.665 71.5256 165.926 71.3296 166.085C71.1429 166.244 70.9189 166.323 70.6576 166.323C70.3869 166.323 70.1582 166.244 69.9716 166.085C69.7942 165.926 69.7056 165.665 69.7056 165.301ZM69.7056 159.421C69.7056 159.038 69.7942 158.772 69.9716 158.623C70.1582 158.474 70.3869 158.399 70.6576 158.399C70.9189 158.399 71.1429 158.474 71.3296 158.623C71.5256 158.772 71.6236 159.038 71.6236 159.421C71.6236 159.776 71.5256 160.032 71.3296 160.191C71.1429 160.35 70.9189 160.429 70.6576 160.429C70.3869 160.429 70.1582 160.35 69.9716 160.191C69.7942 160.032 69.7056 159.776 69.7056 159.421ZM82.8366 160.401C82.8366 160.98 82.7946 161.554 82.7106 162.123C82.6359 162.692 82.5006 163.229 82.3046 163.733C82.1086 164.228 81.8426 164.666 81.5066 165.049C81.1706 165.432 80.7412 165.73 80.2186 165.945C79.7052 166.16 79.0846 166.267 78.3566 166.267C78.1792 166.267 77.9692 166.258 77.7266 166.239C77.4839 166.22 77.2879 166.188 77.1386 166.141V164.895C77.2972 164.951 77.4746 164.993 77.6706 165.021C77.8759 165.049 78.0766 165.063 78.2726 165.063C78.8699 165.063 79.3646 164.97 79.7566 164.783C80.1486 164.587 80.4612 164.316 80.6946 163.971C80.9279 163.626 81.0912 163.224 81.1846 162.767C81.2872 162.31 81.3479 161.824 81.3666 161.311H81.2966C81.1659 161.526 81.0072 161.722 80.8206 161.899C80.6339 162.076 80.4006 162.216 80.1206 162.319C79.8499 162.422 79.5186 162.473 79.1266 162.473C78.5946 162.473 78.1279 162.352 77.7266 162.109C77.3252 161.866 77.0172 161.521 76.8026 161.073C76.5879 160.616 76.4806 160.06 76.4806 159.407C76.4806 158.698 76.6019 158.091 76.8446 157.587C77.0966 157.074 77.4512 156.682 77.9086 156.411C78.3752 156.131 78.9212 155.991 79.5466 155.991C80.0132 155.991 80.4426 156.084 80.8346 156.271C81.2359 156.448 81.5859 156.719 81.8846 157.083C82.1926 157.447 82.4259 157.904 82.5846 158.455C82.7526 159.006 82.8366 159.654 82.8366 160.401ZM79.5746 157.223C79.0986 157.223 78.7112 157.4 78.4126 157.755C78.1139 158.11 77.9646 158.651 77.9646 159.379C77.9646 159.976 78.0906 160.448 78.3426 160.793C78.6039 161.129 78.9959 161.297 79.5186 161.297C79.8826 161.297 80.1999 161.213 80.4706 161.045C80.7412 160.877 80.9466 160.667 81.0866 160.415C81.2359 160.154 81.3106 159.883 81.3106 159.603C81.3106 159.314 81.2732 159.029 81.1986 158.749C81.1239 158.469 81.0166 158.212 80.8766 157.979C80.7366 157.746 80.5546 157.564 80.3306 157.433C80.1159 157.293 79.8639 157.223 79.5746 157.223ZM84.2935 165.301C84.2935 164.937 84.3821 164.68 84.5595 164.531C84.7461 164.382 84.9748 164.307 85.2455 164.307C85.5068 164.307 85.7308 164.382 85.9175 164.531C86.1135 164.68 86.2115 164.937 86.2115 165.301C86.2115 165.665 86.1135 165.926 85.9175 166.085C85.7308 166.244 85.5068 166.323 85.2455 166.323C84.9748 166.323 84.7461 166.244 84.5595 166.085C84.3821 165.926 84.2935 165.665 84.2935 165.301ZM84.2935 159.421C84.2935 159.038 84.3821 158.772 84.5595 158.623C84.7461 158.474 84.9748 158.399 85.2455 158.399C85.5068 158.399 85.7308 158.474 85.9175 158.623C86.1135 158.772 86.2115 159.038 86.2115 159.421C86.2115 159.776 86.1135 160.032 85.9175 160.191C85.7308 160.35 85.5068 160.429 85.2455 160.429C84.9748 160.429 84.7461 160.35 84.5595 160.191C84.3821 160.032 84.2935 159.776 84.2935 159.421ZM94.0205 161.115C94.0205 161.927 93.9645 162.65 93.8525 163.285C93.7405 163.92 93.5538 164.461 93.2925 164.909C93.0405 165.348 92.7092 165.684 92.2985 165.917C91.8972 166.15 91.4025 166.267 90.8145 166.267C90.0958 166.267 89.4985 166.062 89.0225 165.651C88.5558 165.24 88.2058 164.652 87.9725 163.887C87.7485 163.112 87.6365 162.188 87.6365 161.115C87.6365 160.032 87.7392 159.108 87.9445 158.343C88.1592 157.578 88.4998 156.994 88.9665 156.593C89.4332 156.182 90.0538 155.977 90.8285 155.977C91.5565 155.977 92.1538 156.182 92.6205 156.593C93.0965 156.994 93.4465 157.578 93.6705 158.343C93.9038 159.108 94.0205 160.032 94.0205 161.115ZM89.1625 161.115C89.1625 161.983 89.2138 162.706 89.3165 163.285C89.4285 163.864 89.6058 164.298 89.8485 164.587C90.1005 164.876 90.4272 165.021 90.8285 165.021C91.2392 165.021 91.5612 164.881 91.7945 164.601C92.0372 164.312 92.2145 163.878 92.3265 163.299C92.4385 162.711 92.4945 161.983 92.4945 161.115C92.4945 160.247 92.4385 159.528 92.3265 158.959C92.2145 158.38 92.0372 157.946 91.7945 157.657C91.5612 157.368 91.2392 157.223 90.8285 157.223C90.4272 157.223 90.1005 157.368 89.8485 157.657C89.6058 157.946 89.4285 158.38 89.3165 158.959C89.2138 159.528 89.1625 160.247 89.1625 161.115ZM101.567 161.115C101.567 161.927 101.511 162.65 101.399 163.285C101.287 163.92 101.101 164.461 100.839 164.909C100.587 165.348 100.256 165.684 99.8454 165.917C99.444 166.15 98.9494 166.267 98.3614 166.267C97.6427 166.267 97.0454 166.062 96.5694 165.651C96.1027 165.24 95.7527 164.652 95.5194 163.887C95.2954 163.112 95.1834 162.188 95.1834 161.115C95.1834 160.032 95.286 159.108 95.4914 158.343C95.706 157.578 96.0467 156.994 96.5134 156.593C96.98 156.182 97.6007 155.977 98.3754 155.977C99.1034 155.977 99.7007 156.182 100.167 156.593C100.643 156.994 100.993 157.578 101.217 158.343C101.451 159.108 101.567 160.032 101.567 161.115ZM96.7094 161.115C96.7094 161.983 96.7607 162.706 96.8634 163.285C96.9754 163.864 97.1527 164.298 97.3954 164.587C97.6474 164.876 97.974 165.021 98.3754 165.021C98.786 165.021 99.108 164.881 99.3414 164.601C99.584 164.312 99.7614 163.878 99.8734 163.299C99.9854 162.711 100.041 161.983 100.041 161.115C100.041 160.247 99.9854 159.528 99.8734 158.959C99.7614 158.38 99.584 157.946 99.3414 157.657C99.108 157.368 98.786 157.223 98.3754 157.223C97.974 157.223 97.6474 157.368 97.3954 157.657C97.1527 157.946 96.9754 158.38 96.8634 158.959C96.7607 159.528 96.7094 160.247 96.7094 161.115ZM106.036 163.005V161.745H109.34V163.005H106.036ZM118.243 166.127H116.731V159.491C116.731 159.258 116.731 159.043 116.731 158.847C116.74 158.642 116.745 158.446 116.745 158.259C116.754 158.063 116.763 157.876 116.773 157.699C116.661 157.82 116.544 157.942 116.423 158.063C116.301 158.175 116.166 158.301 116.017 158.441L115.009 159.323L114.211 158.371L116.941 156.131H118.243V166.127ZM122.43 166.127L126.126 157.447H121.282V156.131H127.75V157.195L124.068 166.127H122.43ZM129.165 165.301C129.165 164.937 129.253 164.68 129.431 164.531C129.617 164.382 129.846 164.307 130.117 164.307C130.378 164.307 130.602 164.382 130.789 164.531C130.985 164.68 131.083 164.937 131.083 165.301C131.083 165.665 130.985 165.926 130.789 166.085C130.602 166.244 130.378 166.323 130.117 166.323C129.846 166.323 129.617 166.244 129.431 166.085C129.253 165.926 129.165 165.665 129.165 165.301ZM129.165 159.421C129.165 159.038 129.253 158.772 129.431 158.623C129.617 158.474 129.846 158.399 130.117 158.399C130.378 158.399 130.602 158.474 130.789 158.623C130.985 158.772 131.083 159.038 131.083 159.421C131.083 159.776 130.985 160.032 130.789 160.191C130.602 160.35 130.378 160.429 130.117 160.429C129.846 160.429 129.617 160.35 129.431 160.191C129.253 160.032 129.165 159.776 129.165 159.421ZM138.892 161.115C138.892 161.927 138.836 162.65 138.724 163.285C138.612 163.92 138.425 164.461 138.164 164.909C137.912 165.348 137.58 165.684 137.17 165.917C136.768 166.15 136.274 166.267 135.686 166.267C134.967 166.267 134.37 166.062 133.894 165.651C133.427 165.24 133.077 164.652 132.844 163.887C132.62 163.112 132.508 162.188 132.508 161.115C132.508 160.032 132.61 159.108 132.816 158.343C133.03 157.578 133.371 156.994 133.838 156.593C134.304 156.182 134.925 155.977 135.7 155.977C136.428 155.977 137.025 156.182 137.492 156.593C137.968 156.994 138.318 157.578 138.542 158.343C138.775 159.108 138.892 160.032 138.892 161.115ZM134.034 161.115C134.034 161.983 134.085 162.706 134.188 163.285C134.3 163.864 134.477 164.298 134.72 164.587C134.972 164.876 135.298 165.021 135.7 165.021C136.11 165.021 136.432 164.881 136.666 164.601C136.908 164.312 137.086 163.878 137.198 163.299C137.31 162.711 137.366 161.983 137.366 161.115C137.366 160.247 137.31 159.528 137.198 158.959C137.086 158.38 136.908 157.946 136.666 157.657C136.432 157.368 136.11 157.223 135.7 157.223C135.298 157.223 134.972 157.368 134.72 157.657C134.477 157.946 134.3 158.38 134.188 158.959C134.085 159.528 134.034 160.247 134.034 161.115ZM146.438 161.115C146.438 161.927 146.382 162.65 146.27 163.285C146.158 163.92 145.972 164.461 145.71 164.909C145.458 165.348 145.127 165.684 144.716 165.917C144.315 166.15 143.82 166.267 143.232 166.267C142.514 166.267 141.916 166.062 141.44 165.651C140.974 165.24 140.624 164.652 140.39 163.887C140.166 163.112 140.054 162.188 140.054 161.115C140.054 160.032 140.157 159.108 140.362 158.343C140.577 157.578 140.918 156.994 141.384 156.593C141.851 156.182 142.472 155.977 143.246 155.977C143.974 155.977 144.572 156.182 145.038 156.593C145.514 156.994 145.864 157.578 146.088 158.343C146.322 159.108 146.438 160.032 146.438 161.115ZM141.58 161.115C141.58 161.983 141.632 162.706 141.734 163.285C141.846 163.864 142.024 164.298 142.266 164.587C142.518 164.876 142.845 165.021 143.246 165.021C143.657 165.021 143.979 164.881 144.212 164.601C144.455 164.312 144.632 163.878 144.744 163.299C144.856 162.711 144.912 161.983 144.912 161.115C144.912 160.247 144.856 159.528 144.744 158.959C144.632 158.38 144.455 157.946 144.212 157.657C143.979 157.368 143.657 157.223 143.246 157.223C142.845 157.223 142.518 157.368 142.266 157.657C142.024 157.946 141.846 158.38 141.734 158.959C141.632 159.528 141.58 160.247 141.58 161.115Z" fill="#090F24"/>
<path d="M9.37529 149.627C9.79221 149.627 10.2091 149.627 10.626 149.627C10.9596 149.67 11.2974 149.7 11.6288 149.757C14.0191 150.174 16.0267 151.288 17.5939 153.14C19.5759 155.483 20.3391 158.201 19.8624 161.23C19.4476 163.858 18.137 165.992 16.0182 167.598C13.8374 169.25 11.3615 169.885 8.6505 169.533C6.65571 169.274 4.90038 168.457 3.3952 167.121C1.65698 165.577 0.570856 163.659 0.156077 161.369C0.0897975 160.999 0.0513129 160.625 0 160.251C0 159.834 0 159.417 0 159C0.0427607 158.667 0.0769693 158.331 0.132558 157.998C0.485334 155.917 1.39828 154.117 2.87994 152.616C4.37656 151.102 6.17679 150.151 8.27634 149.781C8.63981 149.717 9.00755 149.678 9.37529 149.627ZM9.17004 157.331C9.17004 158.196 9.17645 159.062 9.16576 159.928C9.16149 160.251 9.27266 160.499 9.4993 160.726C10.8249 162.043 12.144 163.366 13.4654 164.686C13.5167 164.737 13.5658 164.788 13.6193 164.835C14.0939 165.244 14.8102 165.021 14.9705 164.414C15.0582 164.076 14.9427 163.805 14.7033 163.567C13.4632 162.329 12.2274 161.089 10.9852 159.856C10.8676 159.74 10.8249 159.625 10.827 159.464C10.8356 158.958 10.8313 158.449 10.8313 157.942C10.8313 156.862 10.8292 155.78 10.8334 154.701C10.8334 154.433 10.7672 154.196 10.564 154.016C10.3011 153.783 9.99532 153.73 9.67462 153.869C9.35391 154.006 9.17859 154.264 9.17645 154.619C9.1679 155.52 9.17004 156.424 9.17004 157.331Z" fill="#686877"/>
<defs>
<linearGradient id="paint0_linear_1_963" x1="29.7853" y1="90.4559" x2="39.8374" y2="76.5946" gradientUnits="userSpaceOnUse">
<stop stop-color="#0894FF"/>
<stop offset="0.534375" stop-color="#B038EA"/>
<stop offset="1" stop-color="#FF6968"/>
</linearGradient>
</defs>
</svg>
