<svg width="165" height="181" viewBox="0 0 165 181" fill="none" xmlns="http://www.w3.org/2000/svg">
<path d="M6.768 7.642C6.192 7.642 5.67 7.756 5.202 7.984C4.746 8.2 4.356 8.524 4.032 8.956C3.72 9.388 3.48 9.91 3.312 10.522C3.144 11.134 3.06 11.824 3.06 12.592C3.06 13.6 3.198 14.476 3.474 15.22C3.75 15.952 4.164 16.516 4.716 16.912C5.268 17.308 5.952 17.506 6.768 17.506C7.296 17.506 7.8 17.458 8.28 17.362C8.76 17.254 9.246 17.116 9.738 16.948V18.622C9.258 18.814 8.766 18.952 8.262 19.036C7.77 19.132 7.194 19.18 6.534 19.18C5.286 19.18 4.254 18.91 3.438 18.37C2.622 17.83 2.01 17.062 1.602 16.066C1.194 15.07 0.99 13.906 0.99 12.574C0.99 11.602 1.116 10.714 1.368 9.91C1.62 9.094 1.992 8.392 2.484 7.804C2.976 7.216 3.582 6.766 4.302 6.454C5.022 6.13 5.844 5.968 6.768 5.968C7.392 5.968 8.004 6.04 8.604 6.184C9.204 6.316 9.738 6.508 10.206 6.76L9.504 8.38C9.108 8.188 8.676 8.02 8.208 7.876C7.752 7.72 7.272 7.642 6.768 7.642ZM20.2622 14.14C20.2622 14.944 20.1602 15.658 19.9562 16.282C19.7522 16.906 19.4582 17.434 19.0742 17.866C18.7022 18.298 18.2462 18.628 17.7062 18.856C17.1662 19.072 16.5602 19.18 15.8882 19.18C15.2762 19.18 14.7062 19.072 14.1782 18.856C13.6502 18.628 13.1942 18.298 12.8102 17.866C12.4262 17.434 12.1262 16.906 11.9102 16.282C11.7062 15.658 11.6042 14.938 11.6042 14.122C11.6042 13.054 11.7782 12.148 12.1262 11.404C12.4742 10.66 12.9722 10.096 13.6202 9.712C14.2802 9.316 15.0602 9.118 15.9602 9.118C16.8002 9.118 17.5442 9.316 18.1922 9.712C18.8402 10.096 19.3442 10.66 19.7042 11.404C20.0762 12.148 20.2622 13.06 20.2622 14.14ZM13.6202 14.14C13.6202 14.86 13.6982 15.484 13.8542 16.012C14.0222 16.528 14.2742 16.924 14.6102 17.2C14.9582 17.476 15.3962 17.614 15.9242 17.614C16.4642 17.614 16.9022 17.476 17.2382 17.2C17.5862 16.924 17.8382 16.528 17.9942 16.012C18.1622 15.484 18.2462 14.86 18.2462 14.14C18.2462 13.396 18.1622 12.772 17.9942 12.268C17.8262 11.764 17.5742 11.38 17.2382 11.116C16.9022 10.84 16.4582 10.702 15.9062 10.702C15.1022 10.702 14.5202 11.002 14.1602 11.602C13.8002 12.202 13.6202 13.048 13.6202 14.14ZM32.0373 22.402H30.2193V19H22.4793V9.298H24.4233V17.47H28.6533V9.298H30.6153V17.488H32.0373V22.402ZM35.5126 14.59C35.5126 14.734 35.5066 14.92 35.4946 15.148C35.4826 15.376 35.4706 15.616 35.4586 15.868C35.4466 16.108 35.4346 16.336 35.4226 16.552C35.4106 16.756 35.3986 16.918 35.3866 17.038L39.9406 9.298H42.2446V19H40.4266V13.834C40.4266 13.606 40.4326 13.324 40.4446 12.988C40.4566 12.652 40.4686 12.328 40.4806 12.016C40.4926 11.692 40.5046 11.446 40.5166 11.278L35.9986 19H33.6766V9.298H35.5126V14.59ZM48.6689 9.118C49.8089 9.118 50.6669 9.388 51.2429 9.928C51.8309 10.456 52.1249 11.29 52.1249 12.43V19H50.7389L50.3609 17.65H50.2889C50.0129 17.998 49.7369 18.286 49.4609 18.514C49.1969 18.742 48.8849 18.91 48.5249 19.018C48.1769 19.126 47.7449 19.18 47.2289 19.18C46.6889 19.18 46.2029 19.078 45.7709 18.874C45.3389 18.658 44.9969 18.334 44.7449 17.902C44.4929 17.458 44.3669 16.906 44.3669 16.246C44.3669 15.262 44.7149 14.512 45.4109 13.996C46.1189 13.48 47.1929 13.198 48.6329 13.15L50.1809 13.096V12.556C50.1809 11.836 50.0309 11.332 49.7309 11.044C49.4429 10.756 49.0349 10.612 48.5069 10.612C48.0629 10.612 47.6249 10.684 47.1929 10.828C46.7609 10.972 46.3409 11.146 45.9329 11.35L45.3389 9.964C45.7829 9.724 46.2869 9.526 46.8509 9.37C47.4269 9.202 48.0329 9.118 48.6689 9.118ZM49.0109 14.374C48.0269 14.422 47.3429 14.608 46.9589 14.932C46.5749 15.244 46.3829 15.688 46.3829 16.264C46.3829 16.768 46.5149 17.134 46.7789 17.362C47.0549 17.59 47.4089 17.704 47.8409 17.704C48.5009 17.704 49.0529 17.494 49.4969 17.074C49.9529 16.654 50.1809 16.024 50.1809 15.184V14.338L49.0109 14.374ZM62.3655 19H60.3855V10.828H57.9015C57.7815 12.316 57.6375 13.594 57.4695 14.662C57.3015 15.718 57.0855 16.576 56.8215 17.236C56.5695 17.896 56.2515 18.382 55.8675 18.694C55.4955 18.994 55.0515 19.144 54.5355 19.144C54.3555 19.144 54.1755 19.126 53.9955 19.09C53.8155 19.066 53.6595 19.024 53.5275 18.964V17.506C53.6235 17.53 53.7195 17.554 53.8155 17.578C53.9115 17.59 54.0075 17.596 54.1035 17.596C54.3195 17.596 54.5175 17.5 54.6975 17.308C54.8775 17.116 55.0395 16.816 55.1835 16.408C55.3395 16 55.4775 15.472 55.5975 14.824C55.7295 14.164 55.8435 13.378 55.9395 12.466C56.0355 11.554 56.1195 10.498 56.1915 9.298H62.3655V19ZM69.3187 13.204C70.1587 13.204 70.8487 13.312 71.3887 13.528C71.9407 13.732 72.3487 14.038 72.6127 14.446C72.8887 14.854 73.0267 15.37 73.0267 15.994C73.0267 16.606 72.8947 17.14 72.6307 17.596C72.3667 18.04 71.9587 18.388 71.4067 18.64C70.8547 18.88 70.1287 19 69.2287 19H65.0887V9.298H67.0327V13.204H69.3187ZM71.0647 16.066C71.0647 15.538 70.8967 15.178 70.5607 14.986C70.2367 14.782 69.7507 14.68 69.1027 14.68H67.0327V17.56H69.1387C69.7027 17.56 70.1647 17.446 70.5247 17.218C70.8847 16.99 71.0647 16.606 71.0647 16.066ZM77.105 9.298V13.24H81.407V9.298H83.351V19H81.407V14.77H77.105V19H75.161V9.298H77.105ZM86.0946 19V9.298H88.0386V13.204H89.9826C90.8226 13.204 91.5126 13.312 92.0526 13.528C92.5926 13.732 92.9886 14.038 93.2406 14.446C93.5046 14.854 93.6366 15.37 93.6366 15.994C93.6366 16.606 93.5106 17.14 93.2586 17.596C93.0066 18.04 92.6046 18.388 92.0526 18.64C91.5126 18.88 90.7926 19 89.8926 19H86.0946ZM89.7486 17.56C90.3246 17.56 90.7866 17.452 91.1346 17.236C91.4946 17.008 91.6746 16.618 91.6746 16.066C91.6746 15.538 91.5126 15.178 91.1886 14.986C90.8766 14.782 90.3966 14.68 89.7486 14.68H88.0386V17.56H89.7486ZM95.0406 19V9.298H96.9846V19H95.0406ZM103.39 9.118C104.194 9.118 104.89 9.298 105.478 9.658C106.066 10.006 106.516 10.51 106.828 11.17C107.152 11.83 107.314 12.61 107.314 13.51V14.554H101.212C101.236 15.55 101.476 16.312 101.932 16.84C102.388 17.368 103.03 17.632 103.858 17.632C104.446 17.632 104.968 17.578 105.424 17.47C105.892 17.35 106.366 17.176 106.846 16.948V18.532C106.39 18.748 105.922 18.91 105.442 19.018C104.974 19.126 104.404 19.18 103.732 19.18C102.856 19.18 102.076 18.994 101.392 18.622C100.708 18.25 100.174 17.698 99.7896 16.966C99.4056 16.222 99.2136 15.31 99.2136 14.23C99.2136 13.138 99.3876 12.214 99.7356 11.458C100.084 10.702 100.57 10.126 101.194 9.73C101.83 9.322 102.562 9.118 103.39 9.118ZM103.39 10.594C102.778 10.594 102.286 10.816 101.914 11.26C101.542 11.704 101.326 12.334 101.266 13.15H105.388C105.388 12.646 105.316 12.202 105.172 11.818C105.028 11.434 104.806 11.134 104.506 10.918C104.218 10.702 103.846 10.594 103.39 10.594ZM117.648 19.18C116.796 19.18 116.046 19.006 115.398 18.658C114.762 18.31 114.264 17.77 113.904 17.038C113.556 16.294 113.382 15.352 113.382 14.212C113.382 13.012 113.574 12.04 113.958 11.296C114.342 10.552 114.864 10.006 115.524 9.658C116.184 9.298 116.94 9.118 117.792 9.118C118.296 9.118 118.776 9.178 119.232 9.298C119.7 9.406 120.084 9.532 120.384 9.676L119.79 11.206C119.49 11.086 119.166 10.978 118.818 10.882C118.47 10.786 118.14 10.738 117.828 10.738C117.276 10.738 116.82 10.87 116.46 11.134C116.112 11.386 115.848 11.77 115.668 12.286C115.488 12.79 115.398 13.426 115.398 14.194C115.398 14.926 115.488 15.544 115.668 16.048C115.848 16.552 116.112 16.936 116.46 17.2C116.82 17.452 117.252 17.578 117.756 17.578C118.248 17.578 118.686 17.518 119.07 17.398C119.466 17.278 119.832 17.122 120.168 16.93V18.586C119.832 18.79 119.466 18.94 119.07 19.036C118.674 19.132 118.2 19.18 117.648 19.18ZM125.942 9.118C126.746 9.118 127.442 9.298 128.03 9.658C128.618 10.006 129.068 10.51 129.38 11.17C129.704 11.83 129.866 12.61 129.866 13.51V14.554H123.764C123.788 15.55 124.028 16.312 124.484 16.84C124.94 17.368 125.582 17.632 126.41 17.632C126.998 17.632 127.52 17.578 127.976 17.47C128.444 17.35 128.918 17.176 129.398 16.948V18.532C128.942 18.748 128.474 18.91 127.994 19.018C127.526 19.126 126.956 19.18 126.284 19.18C125.408 19.18 124.628 18.994 123.944 18.622C123.26 18.25 122.726 17.698 122.342 16.966C121.958 16.222 121.766 15.31 121.766 14.23C121.766 13.138 121.94 12.214 122.288 11.458C122.636 10.702 123.122 10.126 123.746 9.73C124.382 9.322 125.114 9.118 125.942 9.118ZM125.942 10.594C125.33 10.594 124.838 10.816 124.466 11.26C124.094 11.704 123.878 12.334 123.818 13.15H127.94C127.94 12.646 127.868 12.202 127.724 11.818C127.58 11.434 127.358 11.134 127.058 10.918C126.77 10.702 126.398 10.594 125.942 10.594ZM138.938 10.828H135.932V19H134.006V10.828H131.036V9.298H138.938V10.828ZM142.528 14.59C142.528 14.734 142.522 14.92 142.51 15.148C142.498 15.376 142.486 15.616 142.474 15.868C142.462 16.108 142.45 16.336 142.438 16.552C142.426 16.756 142.414 16.918 142.402 17.038L146.956 9.298H149.26V19H147.442V13.834C147.442 13.606 147.448 13.324 147.46 12.988C147.472 12.652 147.484 12.328 147.496 12.016C147.508 11.692 147.52 11.446 147.532 11.278L143.014 19H140.692V9.298H142.528V14.59Z" fill="#090F24"/>
<path d="M91.2357 65.627V56.5047H94.2964L94.7556 52.9485H91.2357V50.6784C91.2357 49.6492 91.5204 48.9477 92.998 48.9477L94.8795 48.9469V45.7662C94.5541 45.7239 93.4372 45.627 92.1372 45.627C89.4226 45.627 87.5642 47.2839 87.5642 50.3262V52.9485H84.4941V56.5047H87.5642V65.627H91.2357Z" fill="#74CCD8"/>
<path d="M59.2402 45.627H49.9902C46.9902 45.627 44.6152 48.002 44.6152 51.002V60.127C44.6152 63.252 46.9902 65.627 49.9902 65.627H59.1152C62.1152 65.627 64.4902 63.252 64.4902 60.252V51.002C64.6152 48.002 62.2402 45.627 59.2402 45.627ZM54.6152 61.127C51.6152 61.127 49.1152 58.627 49.1152 55.627C49.1152 52.627 51.6152 50.127 54.6152 50.127C57.6152 50.127 60.1152 52.627 60.1152 55.627C60.1152 58.627 57.6152 61.127 54.6152 61.127ZM60.2402 51.502C59.3652 51.502 58.6152 50.752 58.6152 49.877C58.6152 49.002 59.3652 48.252 60.2402 48.252C61.1152 48.252 61.8652 49.002 61.8652 49.877C61.8652 50.752 61.1152 51.502 60.2402 51.502Z" fill="#74CCD8"/>
<path d="M54.6152 51.377C52.2402 51.377 50.3652 53.252 50.3652 55.627C50.3652 58.002 52.2402 59.877 54.6152 59.877C56.9902 59.877 58.8652 58.002 58.8652 55.627C58.8652 53.252 56.9902 51.377 54.6152 51.377Z" fill="#74CCD8"/>
<path d="M60.2401 49.377C59.9901 49.377 59.7401 49.627 59.7401 49.877C59.7401 50.127 59.9901 50.377 60.2401 50.377C60.4901 50.377 60.7401 50.127 60.7401 49.877C60.6151 49.627 60.4901 49.377 60.2401 49.377Z" fill="#74CCD8"/>
<path d="M142.854 48.7547C142.527 47.5261 141.564 46.5637 140.336 46.2361C138.099 45.627 129.161 45.627 129.161 45.627C129.161 45.627 120.223 45.627 117.986 46.2156C116.783 46.5433 115.795 47.5312 115.468 48.7547C114.879 50.9866 114.879 55.6244 114.879 55.6244C114.879 55.6244 114.879 60.2827 115.468 62.4992C115.795 63.7278 116.758 64.6902 117.986 65.0178C120.239 65.627 129.156 65.627 129.156 65.627C129.156 65.627 138.094 65.627 140.331 65.0383C141.559 64.7106 142.522 63.7483 142.849 62.5197C143.443 60.2827 143.443 55.6449 143.443 55.6449C143.443 55.6449 143.463 50.9917 142.854 48.7547ZM126.315 59.9141V51.3398L133.748 55.6244L126.315 59.9141Z" fill="#74CCD8"/>
<path d="M24.6154 47.9946C23.7 48.3962 22.7246 48.6623 21.7077 48.7916C22.7538 48.167 23.5523 47.1854 23.9277 46.0023C22.9523 46.5839 21.8754 46.9946 20.7277 47.2239C19.8015 46.2377 18.4815 45.627 17.0415 45.627C14.2477 45.627 11.9985 47.8946 11.9985 50.6746C11.9985 51.0746 12.0323 51.4593 12.1154 51.8254C7.92 51.6208 4.20769 49.61 1.71385 46.547C1.27846 47.3023 1.02308 48.167 1.02308 49.0977C1.02308 50.8454 1.92308 52.3946 3.26462 53.2916C2.45385 53.2762 1.65846 53.0408 0.984615 52.67C0.984615 52.6854 0.984615 52.7054 0.984615 52.7254C0.984615 55.1777 2.73385 57.2146 5.02769 57.6839C4.61692 57.7962 4.16923 57.85 3.70462 57.85C3.38154 57.85 3.05538 57.8316 2.74923 57.7639C3.40308 59.7623 5.25846 61.2316 7.46462 61.2793C5.74769 62.6223 3.56769 63.4316 1.20769 63.4316C0.793846 63.4316 0.396923 63.4131 0 63.3623C2.23538 64.8039 4.88462 65.627 7.74154 65.627C17.0277 65.627 22.1046 57.9346 22.1046 51.267C22.1046 51.0439 22.0969 50.8285 22.0862 50.6146C23.0877 49.9039 23.9292 49.0162 24.6154 47.9946Z" fill="#74CCD8"/>
<path d="M72.6736 148.515C73.8862 149.937 74.4716 151.526 74.4716 153.324C74.4298 155.373 73.7189 157.087 72.3809 158.467C71.0428 159.847 69.3702 160.516 67.4468 160.516H59.3766C57.9549 160.516 57.1186 160.14 56.8677 159.345C56.7423 159.011 56.7004 158.467 56.7004 157.756V140.779C56.7004 140.278 56.7004 139.943 56.7423 139.692C56.7841 139.483 56.8677 139.191 57.035 138.898C57.3277 138.354 58.1221 138.062 59.4184 138.062H67.1122C68.9939 138.062 70.541 138.731 71.8373 140.027C73.1754 141.365 73.8444 142.954 73.8444 144.794C73.8444 146.174 73.4681 147.386 72.6736 148.515ZM69.0775 153.031C69.0775 152.529 69.0357 152.153 68.9103 151.86C68.7848 151.568 68.6176 151.359 68.3249 151.233C67.9067 151.066 67.3631 150.982 66.6105 150.982C65.8578 150.982 65.3142 150.857 64.9379 150.564C64.5616 150.271 64.3943 149.686 64.3943 148.808C64.3943 147.93 64.6034 147.344 64.9797 147.052C65.356 146.759 65.9833 146.633 66.8614 146.633C67.6976 146.633 68.1576 146.424 68.3249 146.006C68.3667 145.797 68.4085 145.421 68.4085 144.919C68.4085 144.417 68.2412 144.041 67.9067 143.832C67.5722 143.623 67.0704 143.539 66.4014 143.539H62.1363V155.122H67.1541C68.4503 155.08 69.0775 154.411 69.0775 153.031Z" fill="url(#paint0_linear_1_999)"/>
<path d="M116.788 156.753C117.081 157.506 117.248 158.008 117.248 158.342C117.248 159.137 116.621 159.764 115.366 160.308C114.697 160.6 114.195 160.726 113.777 160.726C113.359 160.726 113.066 160.642 112.815 160.433C112.565 160.224 112.356 160.057 112.23 159.848C112.021 159.471 111.227 157.631 109.847 154.286L108.885 154.328H105.038V157.799C105.038 158.259 105.038 158.635 104.996 158.844C104.954 159.053 104.871 159.346 104.703 159.638C104.411 160.182 103.616 160.475 102.32 160.475C100.898 160.475 100.062 160.098 99.8112 159.346C99.6857 159.011 99.6439 158.468 99.6439 157.757V140.78C99.6439 140.32 99.6439 139.944 99.6857 139.735C99.7275 139.526 99.8112 139.233 99.9784 138.94C100.271 138.397 101.066 138.104 102.362 138.104H108.969C110.767 138.104 112.523 138.773 114.195 140.069C115.032 140.697 115.701 141.575 116.202 142.62C116.746 143.707 116.997 144.92 116.997 146.216C116.997 148.516 116.244 150.439 114.697 151.903C115.115 153.032 115.826 154.621 116.788 156.753ZM104.996 148.934H108.927C109.512 148.934 110.098 148.725 110.683 148.265C111.268 147.805 111.561 147.136 111.561 146.258C111.561 145.38 111.268 144.669 110.683 144.209C110.098 143.749 109.47 143.54 108.843 143.54H104.996V148.934Z" fill="url(#paint1_linear_1_999)"/>
<path d="M135.521 139.023C135.73 138.646 136.023 138.437 136.399 138.312C136.775 138.186 137.277 138.145 137.862 138.145C138.448 138.145 138.908 138.186 139.284 138.312C139.66 138.395 139.911 138.521 140.079 138.688C140.246 138.855 140.371 139.064 140.455 139.315C140.58 139.65 140.622 140.152 140.622 140.862V157.839C140.622 158.341 140.622 158.675 140.58 158.926C140.538 159.135 140.455 159.428 140.288 159.721C139.995 160.264 139.2 160.557 137.904 160.557C137.11 160.557 136.566 160.515 136.232 160.39C135.939 160.264 135.688 160.055 135.479 159.804C130.879 153.7 127.869 149.685 126.405 147.804V157.881C126.405 158.383 126.405 158.717 126.363 158.968C126.322 159.177 126.238 159.47 126.071 159.763C125.778 160.306 124.983 160.599 123.687 160.599C122.433 160.599 121.638 160.306 121.346 159.763C121.178 159.47 121.095 159.177 121.053 158.926C121.011 158.675 121.011 158.341 121.011 157.839V140.737C121.011 139.943 121.095 139.399 121.304 139.023C121.513 138.646 121.806 138.437 122.182 138.312C122.558 138.186 123.06 138.145 123.687 138.145C124.314 138.145 124.774 138.186 125.151 138.312C125.527 138.437 125.778 138.563 125.903 138.688C125.987 138.73 126.238 139.023 126.614 139.483C130.921 145.337 133.806 149.225 135.228 151.065V140.737C135.228 139.943 135.312 139.399 135.521 139.023Z" fill="url(#paint2_linear_1_999)"/>
<path d="M159.857 138.94C160.066 138.606 160.359 138.397 160.735 138.271C161.111 138.146 161.613 138.104 162.198 138.104C162.784 138.104 163.244 138.146 163.578 138.271C163.913 138.355 164.205 138.48 164.373 138.648C164.54 138.773 164.707 139.024 164.791 139.275C164.916 139.609 164.958 140.153 164.958 140.864V150.105C164.958 152.781 164.122 155.248 162.449 157.464C161.613 158.509 160.568 159.346 159.313 159.973C158.017 160.6 156.595 160.935 155.048 160.935C153.501 160.935 152.079 160.6 150.783 159.973C149.487 159.304 148.483 158.468 147.689 157.422C146.016 155.248 145.222 152.823 145.222 150.063V140.864C145.222 140.362 145.222 140.027 145.263 139.777C145.305 139.526 145.389 139.275 145.556 138.982C145.723 138.689 145.974 138.48 146.392 138.355C146.769 138.229 147.312 138.188 147.94 138.188C148.609 138.188 149.11 138.229 149.487 138.355C149.863 138.48 150.156 138.689 150.281 138.982C150.532 139.442 150.658 140.111 150.658 140.906V150.105C150.658 151.359 150.95 152.53 151.577 153.659C151.87 154.244 152.33 154.704 152.957 155.039C153.585 155.373 154.295 155.541 155.132 155.541C156.637 155.541 157.724 154.997 158.477 153.868C159.23 152.781 159.564 151.485 159.564 150.021V140.613C159.522 139.818 159.648 139.275 159.857 138.94Z" fill="url(#paint3_linear_1_999)"/>
<path d="M90.2356 136.012H83.8798C82.8345 136.012 81.9564 135.134 81.9564 134.089C81.9564 133.044 82.8345 132.166 83.8798 132.166H90.2356C91.281 132.166 92.1591 133.044 92.1591 134.089C92.1591 135.134 91.281 136.012 90.2356 136.012Z" fill="#74CCD8"/>
<path d="M83.7126 155.123H93.1209C93.5808 155.123 93.9572 155.123 94.1662 155.164C94.4171 155.206 94.668 155.29 94.9607 155.457C95.5043 155.75 95.797 156.544 95.797 157.84C95.797 159.262 95.4207 160.098 94.668 160.349C94.3335 160.475 93.7899 160.517 93.0791 160.517H80.9529C79.5312 160.517 78.6949 160.14 78.444 159.346C78.3186 159.011 78.2767 158.509 78.2767 157.799V140.822C78.2767 139.777 78.4858 139.066 78.8621 138.689C79.2385 138.313 79.9911 138.104 81.0783 138.104H93.1209C93.5808 138.104 93.9572 138.104 94.1662 138.146C94.3753 138.188 94.668 138.271 94.9607 138.439C95.5043 138.731 95.797 139.526 95.797 140.822C95.797 142.244 95.4207 143.08 94.668 143.331C94.3335 143.456 93.7899 143.498 93.0791 143.498H83.6708V146.592H89.7339C90.1939 146.592 90.5702 146.592 90.7793 146.634C91.0302 146.676 91.281 146.76 91.5737 146.927C92.1173 147.22 92.41 148.014 92.41 149.31C92.41 150.732 92.0337 151.568 91.2392 151.819C90.9047 151.945 90.3611 151.986 89.6503 151.986H83.6708V155.123H83.7126Z" fill="url(#paint4_linear_1_999)"/>
<path d="M68.3249 167.875C68.9939 168.21 69.3284 168.544 69.3284 168.962C69.3284 169.13 69.2448 169.422 69.0775 169.757L64.4779 179.123C64.3525 179.374 64.1852 179.583 63.9343 179.709C63.6834 179.876 63.4326 179.918 63.1399 179.918H62.9726C62.6799 179.918 62.429 179.834 62.1781 179.709C61.9272 179.583 61.76 179.374 61.6345 179.123L57.0349 169.757C56.8677 169.381 56.7841 169.13 56.7841 168.962C56.7841 168.586 57.1186 168.21 57.7876 167.875C58.1639 167.666 58.4566 167.583 58.6239 167.583C58.833 167.583 58.9584 167.624 59.0839 167.666C59.1675 167.708 59.2929 167.792 59.3766 167.917C59.4602 168.042 59.5856 168.21 59.6693 168.377C59.7529 168.544 59.962 169.004 60.2965 169.757C60.631 170.51 61.0073 171.346 61.4255 172.182C61.8018 173.06 62.1781 173.855 62.5545 174.607C62.889 175.36 63.098 175.778 63.1399 175.904L66.485 168.586C66.5687 168.377 66.6523 168.21 66.7359 168.084C66.945 167.792 67.1959 167.624 67.4886 167.624C67.7813 167.624 67.9485 167.666 68.3249 167.875Z" fill="#74CCD8"/>
<path d="M74.3461 176.991H79.4893C79.7402 176.991 79.9493 176.991 80.0747 177.033C80.2002 177.033 80.3674 177.116 80.5347 177.2C80.8274 177.367 80.9946 177.785 80.9946 178.496C80.9946 179.291 80.7856 179.751 80.3674 179.876C80.1584 179.96 79.9075 179.96 79.4893 179.96H72.8826C72.0882 179.96 71.6282 179.751 71.5028 179.332C71.4191 179.165 71.4191 178.872 71.4191 178.496V169.172C71.4191 168.586 71.5446 168.21 71.7536 168.001C71.9627 167.792 72.3809 167.708 72.9663 167.708H79.573C79.8238 167.708 80.0329 167.708 80.1584 167.75C80.2838 167.792 80.4511 167.833 80.6183 167.917C80.911 168.084 81.0783 168.502 81.0783 169.213C81.0783 170.008 80.8692 170.468 80.4511 170.593C80.242 170.677 79.9911 170.677 79.573 170.677H74.4298V172.349H77.7331C77.984 172.349 78.1931 172.349 78.3185 172.391C78.444 172.391 78.6112 172.475 78.7785 172.558C79.0712 172.726 79.2384 173.144 79.2384 173.855C79.2384 174.649 79.0294 175.109 78.6112 175.235C78.4021 175.318 78.1513 175.318 77.7331 175.318H74.4716V176.991H74.3461Z" fill="#74CCD8"/>
<path d="M163.996 167.875C164.666 168.21 165 168.544 165 168.962C165 169.13 164.916 169.422 164.749 169.757L160.15 179.123C160.024 179.374 159.857 179.583 159.606 179.709C159.355 179.876 159.104 179.918 158.811 179.918H158.644C158.352 179.918 158.101 179.834 157.85 179.709C157.599 179.583 157.432 179.374 157.306 179.123L152.707 169.757C152.539 169.381 152.456 169.13 152.456 168.962C152.456 168.586 152.79 168.21 153.459 167.875C153.836 167.666 154.128 167.583 154.296 167.583C154.505 167.583 154.63 167.624 154.755 167.666C154.839 167.708 154.965 167.792 155.048 167.917C155.132 168.042 155.257 168.21 155.341 168.377C155.425 168.544 155.634 169.004 155.968 169.757C156.303 170.51 156.679 171.346 157.097 172.182C157.473 173.06 157.85 173.855 158.226 174.607C158.561 175.36 158.77 175.778 158.811 175.904L162.157 168.586C162.24 168.377 162.324 168.21 162.408 168.084C162.617 167.792 162.868 167.624 163.16 167.624C163.453 167.624 163.662 167.666 163.996 167.875Z" fill="#74CCD8"/>
<path d="M83.2108 169.172C83.2108 168.921 83.2108 168.712 83.2526 168.586C83.2944 168.461 83.3363 168.294 83.4199 168.126C83.5871 167.834 84.0053 167.667 84.7161 167.667C85.5106 167.667 85.9706 167.876 86.096 168.294C86.1378 168.503 86.1796 168.754 86.1796 169.172V178.455C86.1796 178.706 86.1796 178.915 86.1378 179.04C86.1378 179.165 86.0542 179.291 85.9706 179.458C85.8033 179.751 85.3852 179.918 84.6743 179.918C83.8798 179.918 83.4199 179.709 83.2944 179.291C83.2108 179.124 83.2108 178.831 83.2108 178.455V169.172Z" fill="#74CCD8"/>
<path d="M93.9154 173.771C95.6298 175.402 96.8424 176.656 97.5532 177.451C97.9295 177.869 98.0968 178.204 98.0968 178.496C98.0968 178.789 97.8877 179.123 97.4278 179.5C96.9678 179.876 96.6333 180.085 96.3406 180.085C96.0479 180.085 95.7134 179.834 95.2952 179.374L91.6156 175.193V178.454C91.6156 178.705 91.6156 178.914 91.5737 179.04C91.5737 179.165 91.4901 179.291 91.4065 179.458C91.2392 179.751 90.8211 179.918 90.1102 179.918C89.3158 179.918 88.8558 179.709 88.7304 179.291C88.6467 179.123 88.6467 178.831 88.6467 178.454V169.172C88.6467 168.921 88.6467 168.712 88.6885 168.586C88.7304 168.461 88.7722 168.293 88.8558 168.126C89.0231 167.834 89.4412 167.666 90.1521 167.666C90.9465 167.666 91.4065 167.875 91.5319 168.293C91.5737 168.503 91.6156 168.753 91.6156 169.172V172.35C93.1209 170.635 94.3753 169.255 95.2952 168.168C95.6716 167.708 96.0061 167.499 96.2988 167.499C96.5915 167.499 96.9678 167.708 97.386 168.084C97.8041 168.461 98.055 168.795 98.055 169.088C98.055 169.381 97.8877 169.715 97.5532 170.092C96.926 170.844 95.9225 171.848 94.5426 173.186L93.9154 173.771Z" fill="#74CCD8"/>
<path d="M107.589 168.545L112.105 177.869C112.314 178.246 112.397 178.538 112.397 178.706C112.397 179.124 112.063 179.458 111.436 179.793C111.059 180.002 110.767 180.085 110.557 180.085C110.348 180.085 110.181 180.044 110.014 179.918C109.888 179.835 109.763 179.709 109.721 179.584C109.679 179.458 109.554 179.291 109.47 179.082L108.592 177.284H103.951L103.073 179.082C102.947 179.291 102.864 179.458 102.822 179.584C102.78 179.709 102.654 179.793 102.529 179.876C102.404 180.002 102.195 180.044 101.985 180.044C101.776 180.044 101.484 179.96 101.107 179.751C100.48 179.458 100.146 179.082 100.146 178.664C100.146 178.455 100.229 178.204 100.438 177.827L104.871 168.545C104.996 168.294 105.163 168.085 105.414 167.917C105.665 167.75 105.916 167.667 106.209 167.667C106.836 167.667 107.296 167.959 107.589 168.545ZM106.209 172.559L105.122 174.859H107.338L106.209 172.559Z" fill="#74CCD8"/>
<path d="M117.415 177.451H121.973C122.349 177.451 122.6 177.493 122.767 177.577C122.935 177.66 123.06 177.786 123.102 177.953C123.144 178.12 123.186 178.371 123.186 178.664C123.186 178.956 123.144 179.207 123.102 179.375C123.06 179.542 122.935 179.667 122.809 179.751C122.6 179.876 122.307 179.918 121.931 179.918H115.91C115.115 179.918 114.655 179.709 114.53 179.291C114.446 179.124 114.446 178.831 114.446 178.455V169.172C114.446 168.921 114.446 168.712 114.488 168.586C114.53 168.461 114.572 168.294 114.655 168.126C114.823 167.834 115.241 167.667 115.952 167.667C116.746 167.667 117.206 167.876 117.331 168.294C117.373 168.503 117.415 168.754 117.415 169.172V177.451Z" fill="#74CCD8"/>
<path d="M146.643 177.451H151.201C151.578 177.451 151.828 177.493 151.996 177.577C152.163 177.66 152.288 177.786 152.33 177.953C152.372 178.12 152.414 178.371 152.414 178.664C152.414 178.956 152.372 179.207 152.33 179.375C152.288 179.542 152.163 179.667 152.037 179.751C151.828 179.876 151.536 179.918 151.159 179.918H145.138C144.344 179.918 143.884 179.709 143.758 179.291C143.675 179.124 143.675 178.831 143.675 178.455V169.172C143.675 168.921 143.675 168.712 143.716 168.586C143.758 168.461 143.8 168.294 143.884 168.126C144.051 167.834 144.469 167.667 145.18 167.667C145.974 167.667 146.434 167.876 146.56 168.294C146.602 168.503 146.643 168.754 146.643 169.172V177.451Z" fill="#74CCD8"/>
<path d="M125.611 178.204C125.318 177.828 125.193 177.535 125.193 177.242C125.193 176.949 125.443 176.573 125.903 176.113C126.196 175.862 126.489 175.695 126.781 175.695C127.074 175.695 127.534 175.988 128.078 176.531C128.245 176.74 128.454 176.908 128.747 177.075C129.039 177.242 129.29 177.326 129.541 177.326C130.587 177.326 131.088 176.908 131.088 176.071C131.088 175.82 130.963 175.611 130.67 175.444C130.378 175.277 130.043 175.151 129.625 175.068C129.207 174.984 128.747 174.859 128.245 174.691C127.743 174.524 127.283 174.315 126.865 174.064C126.447 173.813 126.071 173.479 125.82 172.935C125.527 172.433 125.402 171.806 125.402 171.095C125.402 170.134 125.778 169.256 126.489 168.545C127.2 167.834 128.203 167.458 129.458 167.458C130.127 167.458 130.754 167.541 131.297 167.708C131.841 167.876 132.217 168.043 132.426 168.252L132.845 168.587C133.179 168.921 133.346 169.172 133.346 169.423C133.346 169.632 133.221 169.966 132.928 170.343C132.552 170.886 132.176 171.179 131.757 171.179C131.507 171.179 131.214 171.054 130.879 170.844C130.837 170.803 130.796 170.761 130.67 170.677C130.587 170.594 130.503 170.51 130.419 170.468C130.168 170.343 129.876 170.259 129.541 170.259C129.165 170.259 128.872 170.343 128.621 170.51C128.37 170.677 128.245 170.928 128.245 171.221C128.245 171.514 128.37 171.764 128.663 171.973C128.956 172.183 129.29 172.308 129.708 172.35C130.127 172.433 130.587 172.517 131.088 172.643C131.59 172.768 132.05 172.935 132.468 173.144C132.886 173.353 133.263 173.688 133.514 174.19C133.806 174.691 133.932 175.277 133.932 176.029C133.932 176.74 133.806 177.409 133.514 177.953C133.221 178.497 132.845 178.915 132.385 179.249C131.465 179.835 130.503 180.127 129.499 180.127C128.956 180.127 128.496 180.044 127.994 179.918C127.534 179.793 127.158 179.626 126.865 179.458C126.28 179.082 125.862 178.747 125.611 178.413V178.204Z" fill="#74CCD8"/>
<path d="M138.573 179.96C140.005 179.96 141.166 178.8 141.166 177.368C141.166 175.936 140.005 174.775 138.573 174.775C137.141 174.775 135.981 175.936 135.981 177.368C135.981 178.8 137.141 179.96 138.573 179.96Z" fill="#74CCD8"/>
<path d="M51.8082 136.598C51.8082 138.856 49.9683 140.319 47.7103 140.319H40.7273V145.839C38.4693 143.79 36.5459 143.288 33.4516 143.539V132.834H47.7103C49.9683 132.834 51.8082 134.298 51.8082 136.598Z" fill="#74CCD8"/>
<path d="M24.9633 134.298V146.884C21.6181 144.751 18.9002 143.121 15.8059 143.121H15.7223C8.32108 143.121 2.34161 149.644 2.34161 157.254C2.34161 157.463 2.34161 157.798 2.34161 158.007C0.878105 155.121 0 151.985 0 148.598C0 138.061 7.35935 132.667 16.8512 132.667H16.9767C19.2347 132.667 23.2907 133.461 24.9633 134.298Z" fill="url(#paint5_linear_1_999)"/>
<path d="M44.407 157.798C44.407 160.976 42.818 163.903 40.5182 166.412C39.222 165.617 37.6748 165.157 36.0441 165.157C31.2772 165.157 27.4303 169.004 27.4303 173.771C27.4303 174.356 27.4721 174.9 27.5975 175.443C25.8413 176.28 24.6705 176.74 24.6705 176.74C24.6705 176.74 23.667 176.322 22.1616 175.611C22.2871 175.025 22.3707 174.398 22.3707 173.771C22.3707 169.004 18.5238 165.157 13.7569 165.157C12.0007 165.157 10.37 165.659 9.0319 166.579C6.64847 164.028 4.97589 160.934 4.97589 157.714C4.97589 151.609 9.78456 146.508 15.7222 146.508H15.8058C19.4019 146.508 22.7471 148.515 24.7123 151.609C26.7194 148.473 30.1064 146.173 33.7025 146.173C39.5983 146.215 44.407 151.693 44.407 157.798Z" fill="url(#paint6_linear_1_999)"/>
<path d="M13.4225 179.75C16.7248 179.75 19.4019 177.073 19.4019 173.771C19.4019 170.469 16.7248 167.792 13.4225 167.792C10.1201 167.792 7.44299 170.469 7.44299 173.771C7.44299 177.073 10.1201 179.75 13.4225 179.75Z" fill="#74CCD8"/>
<path d="M36.0441 179.75C39.3465 179.75 42.0236 177.073 42.0236 173.771C42.0236 170.469 39.3465 167.792 36.0441 167.792C32.7417 167.792 30.0646 170.469 30.0646 173.771C30.0646 177.073 32.7417 179.75 36.0441 179.75Z" fill="#74CCD8"/>
<defs>
<linearGradient id="paint0_linear_1_999" x1="65.586" y1="138.062" x2="65.586" y2="160.516" gradientUnits="userSpaceOnUse">
<stop stop-color="#ED9BC1"/>
<stop offset="1" stop-color="#ED9BB9"/>
</linearGradient>
<linearGradient id="paint1_linear_1_999" x1="108.446" y1="138.104" x2="108.446" y2="160.726" gradientUnits="userSpaceOnUse">
<stop stop-color="#ED9BC1"/>
<stop offset="1" stop-color="#ED9BB9"/>
</linearGradient>
<linearGradient id="paint2_linear_1_999" x1="130.817" y1="138.145" x2="130.817" y2="160.599" gradientUnits="userSpaceOnUse">
<stop stop-color="#ED9BC1"/>
<stop offset="1" stop-color="#ED9BB9"/>
</linearGradient>
<linearGradient id="paint3_linear_1_999" x1="155.09" y1="138.104" x2="155.09" y2="160.935" gradientUnits="userSpaceOnUse">
<stop stop-color="#ED9BC1"/>
<stop offset="1" stop-color="#ED9BB9"/>
</linearGradient>
<linearGradient id="paint4_linear_1_999" x1="87.0369" y1="138.104" x2="87.0369" y2="160.517" gradientUnits="userSpaceOnUse">
<stop stop-color="#ED9BC1"/>
<stop offset="1" stop-color="#ED9BB9"/>
</linearGradient>
<linearGradient id="paint5_linear_1_999" x1="12.4816" y1="132.667" x2="12.4816" y2="158.007" gradientUnits="userSpaceOnUse">
<stop stop-color="#ED9BC1"/>
<stop offset="1" stop-color="#ED9BB9"/>
</linearGradient>
<linearGradient id="paint6_linear_1_999" x1="24.6914" y1="146.173" x2="24.6914" y2="176.74" gradientUnits="userSpaceOnUse">
<stop stop-color="#ED9BC1"/>
<stop offset="1" stop-color="#ED9BB9"/>
</linearGradient>
</defs>
</svg>
