<svg width="1280" height="47" viewBox="0 0 1280 47" fill="none" xmlns="http://www.w3.org/2000/svg">
<rect x="0.5" y="0.5" width="1279" height="45.501" fill="#74CCD8" stroke="#74CCD8"/>
<path d="M542.612 28.5H536.368V27.478L538.818 24.832C539.285 24.328 539.677 23.88 539.994 23.488C540.321 23.096 540.568 22.7133 540.736 22.34C540.904 21.9573 540.988 21.542 540.988 21.094C540.988 20.5433 540.839 20.128 540.54 19.848C540.242 19.5587 539.85 19.414 539.364 19.414C538.916 19.414 538.52 19.498 538.174 19.666C537.829 19.834 537.479 20.0673 537.124 20.366L536.466 19.54C536.718 19.316 536.989 19.1153 537.278 18.938C537.568 18.7607 537.885 18.6207 538.23 18.518C538.585 18.4153 538.968 18.364 539.378 18.364C539.966 18.364 540.47 18.4713 540.89 18.686C541.32 18.9007 541.651 19.2087 541.884 19.61C542.118 20.002 542.234 20.4733 542.234 21.024C542.234 21.416 542.174 21.7893 542.052 22.144C541.94 22.4893 541.777 22.83 541.562 23.166C541.348 23.502 541.091 23.8427 540.792 24.188C540.503 24.5333 540.176 24.8973 539.812 25.28L537.894 27.324L537.908 27.38H542.612V28.5ZM550.146 23.488C550.146 24.3 550.085 25.0233 549.964 25.658C549.852 26.2927 549.67 26.834 549.418 27.282C549.175 27.7207 548.853 28.0567 548.452 28.29C548.05 28.5233 547.57 28.64 547.01 28.64C546.3 28.64 545.712 28.4347 545.246 28.024C544.788 27.6133 544.448 27.0253 544.224 26.26C544 25.4853 543.888 24.5613 543.888 23.488C543.888 22.4053 543.99 21.4813 544.196 20.716C544.401 19.9507 544.732 19.3673 545.19 18.966C545.647 18.5553 546.254 18.35 547.01 18.35C547.719 18.35 548.302 18.5553 548.76 18.966C549.226 19.3673 549.572 19.9507 549.796 20.716C550.029 21.4813 550.146 22.4053 550.146 23.488ZM545.106 23.488C545.106 24.4027 545.166 25.1633 545.288 25.77C545.418 26.3767 545.624 26.834 545.904 27.142C546.184 27.4407 546.552 27.59 547.01 27.59C547.467 27.59 547.836 27.4407 548.116 27.142C548.396 26.8433 548.596 26.3907 548.718 25.784C548.848 25.168 548.914 24.4027 548.914 23.488C548.914 22.5733 548.848 21.8173 548.718 21.22C548.596 20.6133 548.396 20.1607 548.116 19.862C547.836 19.554 547.467 19.4 547.01 19.4C546.552 19.4 546.184 19.554 545.904 19.862C545.624 20.1607 545.418 20.6133 545.288 21.22C545.166 21.8173 545.106 22.5733 545.106 23.488ZM555.495 28.5H554.305V21.514C554.305 21.2433 554.305 21.0147 554.305 20.828C554.315 20.6413 554.324 20.4687 554.333 20.31C554.343 20.142 554.352 19.9693 554.361 19.792C554.231 19.9413 554.105 20.072 553.983 20.184C553.862 20.2867 553.717 20.4127 553.549 20.562L552.555 21.43L551.911 20.604L554.487 18.504H555.495V28.5ZM563.015 28.5H561.825V21.514C561.825 21.2433 561.825 21.0147 561.825 20.828C561.834 20.6413 561.844 20.4687 561.853 20.31C561.862 20.142 561.872 19.9693 561.881 19.792C561.75 19.9413 561.624 20.072 561.503 20.184C561.382 20.2867 561.237 20.4127 561.069 20.562L560.075 21.43L559.431 20.604L562.007 18.504H563.015V28.5ZM566.334 25.294V24.202H569.54V25.294H566.334ZM576.929 28.5H570.685V27.478L573.135 24.832C573.601 24.328 573.993 23.88 574.311 23.488C574.637 23.096 574.885 22.7133 575.053 22.34C575.221 21.9573 575.305 21.542 575.305 21.094C575.305 20.5433 575.155 20.128 574.857 19.848C574.558 19.5587 574.166 19.414 573.681 19.414C573.233 19.414 572.836 19.498 572.491 19.666C572.145 19.834 571.795 20.0673 571.441 20.366L570.783 19.54C571.035 19.316 571.305 19.1153 571.595 18.938C571.884 18.7607 572.201 18.6207 572.547 18.518C572.901 18.4153 573.284 18.364 573.695 18.364C574.283 18.364 574.787 18.4713 575.207 18.686C575.636 18.9007 575.967 19.2087 576.201 19.61C576.434 20.002 576.551 20.4733 576.551 21.024C576.551 21.416 576.49 21.7893 576.369 22.144C576.257 22.4893 576.093 22.83 575.879 23.166C575.664 23.502 575.407 23.8427 575.109 24.188C574.819 24.5333 574.493 24.8973 574.129 25.28L572.211 27.324L572.225 27.38H576.929V28.5ZM584.462 23.488C584.462 24.3 584.402 25.0233 584.28 25.658C584.168 26.2927 583.986 26.834 583.734 27.282C583.492 27.7207 583.17 28.0567 582.768 28.29C582.367 28.5233 581.886 28.64 581.326 28.64C580.617 28.64 580.029 28.4347 579.562 28.024C579.105 27.6133 578.764 27.0253 578.54 26.26C578.316 25.4853 578.204 24.5613 578.204 23.488C578.204 22.4053 578.307 21.4813 578.512 20.716C578.718 19.9507 579.049 19.3673 579.506 18.966C579.964 18.5553 580.57 18.35 581.326 18.35C582.036 18.35 582.619 18.5553 583.076 18.966C583.543 19.3673 583.888 19.9507 584.112 20.716C584.346 21.4813 584.462 22.4053 584.462 23.488ZM579.422 23.488C579.422 24.4027 579.483 25.1633 579.604 25.77C579.735 26.3767 579.94 26.834 580.22 27.142C580.5 27.4407 580.869 27.59 581.326 27.59C581.784 27.59 582.152 27.4407 582.432 27.142C582.712 26.8433 582.913 26.3907 583.034 25.784C583.165 25.168 583.23 24.4027 583.23 23.488C583.23 22.5733 583.165 21.8173 583.034 21.22C582.913 20.6133 582.712 20.1607 582.432 19.862C582.152 19.554 581.784 19.4 581.326 19.4C580.869 19.4 580.5 19.554 580.22 19.862C579.94 20.1607 579.735 20.6133 579.604 21.22C579.483 21.8173 579.422 22.5733 579.422 23.488ZM591.968 28.5H585.724V27.478L588.174 24.832C588.64 24.328 589.032 23.88 589.35 23.488C589.676 23.096 589.924 22.7133 590.092 22.34C590.26 21.9573 590.344 21.542 590.344 21.094C590.344 20.5433 590.194 20.128 589.896 19.848C589.597 19.5587 589.205 19.414 588.72 19.414C588.272 19.414 587.875 19.498 587.53 19.666C587.184 19.834 586.834 20.0673 586.48 20.366L585.822 19.54C586.074 19.316 586.344 19.1153 586.634 18.938C586.923 18.7607 587.24 18.6207 587.586 18.518C587.94 18.4153 588.323 18.364 588.734 18.364C589.322 18.364 589.826 18.4713 590.246 18.686C590.675 18.9007 591.006 19.2087 591.24 19.61C591.473 20.002 591.59 20.4733 591.59 21.024C591.59 21.416 591.529 21.7893 591.408 22.144C591.296 22.4893 591.132 22.83 590.918 23.166C590.703 23.502 590.446 23.8427 590.148 24.188C589.858 24.5333 589.532 24.8973 589.168 25.28L587.25 27.324L587.264 27.38H591.968V28.5ZM599.487 28.5H593.243V27.478L595.693 24.832C596.16 24.328 596.552 23.88 596.869 23.488C597.196 23.096 597.443 22.7133 597.611 22.34C597.779 21.9573 597.863 21.542 597.863 21.094C597.863 20.5433 597.714 20.128 597.415 19.848C597.117 19.5587 596.725 19.414 596.239 19.414C595.791 19.414 595.395 19.498 595.049 19.666C594.704 19.834 594.354 20.0673 593.999 20.366L593.341 19.54C593.593 19.316 593.864 19.1153 594.153 18.938C594.443 18.7607 594.76 18.6207 595.105 18.518C595.46 18.4153 595.843 18.364 596.253 18.364C596.841 18.364 597.345 18.4713 597.765 18.686C598.195 18.9007 598.526 19.2087 598.759 19.61C598.993 20.002 599.109 20.4733 599.109 21.024C599.109 21.416 599.049 21.7893 598.927 22.144C598.815 22.4893 598.652 22.83 598.437 23.166C598.223 23.502 597.966 23.8427 597.667 24.188C597.378 24.5333 597.051 24.8973 596.687 25.28L594.769 27.324L594.783 27.38H599.487V28.5ZM607.527 18.504C608.311 18.504 608.969 18.5833 609.501 18.742C610.033 18.9007 610.434 19.162 610.705 19.526C610.975 19.89 611.111 20.3753 611.111 20.982C611.111 21.374 611.041 21.724 610.901 22.032C610.77 22.3307 610.574 22.5827 610.313 22.788C610.051 22.984 609.729 23.1193 609.347 23.194V23.264C609.739 23.3293 610.089 23.4507 610.397 23.628C610.714 23.8053 610.961 24.0573 611.139 24.384C611.325 24.7107 611.419 25.1353 611.419 25.658C611.419 26.2647 611.283 26.7827 611.013 27.212C610.751 27.632 610.378 27.954 609.893 28.178C609.407 28.3927 608.824 28.5 608.143 28.5H604.825V18.504H607.527ZM607.765 22.76C608.549 22.76 609.085 22.6247 609.375 22.354C609.673 22.074 609.823 21.6633 609.823 21.122C609.823 20.5713 609.641 20.1793 609.277 19.946C608.922 19.7033 608.357 19.582 607.583 19.582H606.071V22.76H607.765ZM606.071 23.81V27.436H607.919C608.731 27.436 609.295 27.2633 609.613 26.918C609.939 26.5727 610.103 26.12 610.103 25.56C610.103 25.2053 610.028 24.8973 609.879 24.636C609.739 24.3747 609.505 24.174 609.179 24.034C608.852 23.8847 608.404 23.81 607.835 23.81H606.071ZM616.085 28.64C615.45 28.64 614.89 28.5047 614.405 28.234C613.919 27.9633 613.537 27.5433 613.257 26.974C612.986 26.4047 612.851 25.6767 612.851 24.79C612.851 23.866 612.995 23.1147 613.285 22.536C613.574 21.9573 613.966 21.5327 614.461 21.262C614.965 20.9913 615.534 20.856 616.169 20.856C616.533 20.856 616.883 20.898 617.219 20.982C617.564 21.0567 617.844 21.15 618.059 21.262L617.681 22.284C617.466 22.2 617.214 22.1207 616.925 22.046C616.645 21.9713 616.383 21.934 616.141 21.934C615.683 21.934 615.305 22.0413 615.007 22.256C614.708 22.4707 614.484 22.788 614.335 23.208C614.185 23.628 614.111 24.1507 614.111 24.776C614.111 25.3733 614.185 25.882 614.335 26.302C614.484 26.722 614.703 27.0393 614.993 27.254C615.291 27.4687 615.655 27.576 616.085 27.576C616.467 27.576 616.808 27.534 617.107 27.45C617.405 27.366 617.681 27.2633 617.933 27.142V28.234C617.69 28.3647 617.424 28.4627 617.135 28.528C616.845 28.6027 616.495 28.64 616.085 28.64ZM622.344 20.856C622.951 20.856 623.473 20.996 623.912 21.276C624.351 21.556 624.687 21.9527 624.92 22.466C625.163 22.97 625.284 23.5627 625.284 24.244V24.986H620.468C620.487 25.8353 620.687 26.484 621.07 26.932C621.453 27.3707 621.989 27.59 622.68 27.59C623.128 27.59 623.525 27.548 623.87 27.464C624.225 27.3707 624.589 27.24 624.962 27.072V28.15C624.598 28.318 624.239 28.4393 623.884 28.514C623.539 28.598 623.119 28.64 622.624 28.64C621.952 28.64 621.359 28.4953 620.846 28.206C620.333 27.9167 619.931 27.4873 619.642 26.918C619.353 26.3393 619.208 25.6347 619.208 24.804C619.208 23.9827 619.339 23.278 619.6 22.69C619.861 22.102 620.225 21.6493 620.692 21.332C621.168 21.0147 621.719 20.856 622.344 20.856ZM622.344 21.864C621.803 21.864 621.373 22.0553 621.056 22.438C620.739 22.8113 620.552 23.334 620.496 24.006H624.024C624.024 23.5767 623.963 23.2033 623.842 22.886C623.721 22.5687 623.534 22.3213 623.282 22.144C623.039 21.9573 622.727 21.864 622.344 21.864ZM636.475 20.996V28.5H635.257V22.046H631.687V28.5H630.469V20.996H636.475ZM642.102 20.856C642.97 20.856 643.665 21.178 644.188 21.822C644.72 22.466 644.986 23.4367 644.986 24.734C644.986 25.5833 644.864 26.302 644.622 26.89C644.379 27.4687 644.038 27.9073 643.6 28.206C643.17 28.4953 642.666 28.64 642.088 28.64C641.724 28.64 641.402 28.5887 641.122 28.486C640.851 28.3833 640.618 28.2527 640.422 28.094C640.226 27.926 640.058 27.744 639.918 27.548H639.834C639.852 27.7067 639.871 27.9073 639.89 28.15C639.908 28.3927 639.918 28.6027 639.918 28.78V31.86H638.7V20.996H639.694L639.862 22.018H639.918C640.058 21.8033 640.226 21.6073 640.422 21.43C640.618 21.2527 640.851 21.1127 641.122 21.01C641.402 20.9073 641.728 20.856 642.102 20.856ZM641.864 21.892C641.397 21.892 641.019 21.99 640.73 22.186C640.45 22.3727 640.244 22.6573 640.114 23.04C639.983 23.4227 639.918 23.908 639.918 24.496V24.734C639.918 25.35 639.974 25.8727 640.086 26.302C640.207 26.7313 640.412 27.058 640.702 27.282C640.991 27.506 641.388 27.618 641.892 27.618C642.312 27.618 642.657 27.492 642.928 27.24C643.198 26.988 643.399 26.6473 643.53 26.218C643.66 25.7793 643.726 25.28 643.726 24.72C643.726 23.8613 643.572 23.1753 643.264 22.662C642.965 22.1487 642.498 21.892 641.864 21.892ZM649.509 20.87C650.368 20.87 651.007 21.0707 651.427 21.472C651.857 21.8733 652.071 22.5127 652.071 23.39V28.5H651.189L650.951 27.436H650.895C650.69 27.7067 650.48 27.9353 650.265 28.122C650.06 28.2993 649.817 28.43 649.537 28.514C649.267 28.598 648.931 28.64 648.529 28.64C648.109 28.64 647.731 28.5607 647.395 28.402C647.059 28.2433 646.793 28.0007 646.597 27.674C646.401 27.338 646.303 26.918 646.303 26.414C646.303 25.6673 646.579 25.0933 647.129 24.692C647.68 24.2813 648.529 24.0573 649.677 24.02L650.867 23.978V23.53C650.867 22.9047 650.741 22.4707 650.489 22.228C650.247 21.9853 649.897 21.864 649.439 21.864C649.075 21.864 648.725 21.9247 648.389 22.046C648.063 22.158 647.75 22.2887 647.451 22.438L647.073 21.514C647.391 21.3367 647.759 21.1873 648.179 21.066C648.599 20.9353 649.043 20.87 649.509 20.87ZM649.845 24.874C648.987 24.9113 648.389 25.0607 648.053 25.322C647.727 25.5833 647.563 25.952 647.563 26.428C647.563 26.848 647.68 27.156 647.913 27.352C648.147 27.548 648.45 27.646 648.823 27.646C649.402 27.646 649.887 27.4733 650.279 27.128C650.671 26.7733 650.867 26.232 650.867 25.504V24.832L649.845 24.874ZM659.971 22.886C659.971 23.3527 659.84 23.7167 659.579 23.978C659.317 24.2393 658.977 24.4167 658.557 24.51V24.566C658.995 24.6313 659.378 24.7993 659.705 25.07C660.031 25.3313 660.195 25.742 660.195 26.302C660.195 26.6193 660.139 26.9133 660.027 27.184C659.924 27.4547 659.756 27.688 659.523 27.884C659.289 28.08 658.991 28.234 658.627 28.346C658.263 28.4487 657.824 28.5 657.311 28.5H654.245V20.996H657.297C657.81 20.996 658.267 21.0567 658.669 21.178C659.07 21.29 659.387 21.486 659.621 21.766C659.854 22.0367 659.971 22.41 659.971 22.886ZM658.935 26.302C658.935 25.8727 658.781 25.5647 658.473 25.378C658.174 25.1913 657.735 25.098 657.157 25.098H655.463V27.506H657.185C657.745 27.506 658.174 27.4173 658.473 27.24C658.781 27.0533 658.935 26.7407 658.935 26.302ZM658.739 23.04C658.739 22.6853 658.617 22.4287 658.375 22.27C658.141 22.102 657.763 22.018 657.241 22.018H655.463V24.076H657.017C657.586 24.076 658.015 23.992 658.305 23.824C658.594 23.656 658.739 23.3947 658.739 23.04ZM664.576 20.87C665.434 20.87 666.074 21.0707 666.494 21.472C666.923 21.8733 667.138 22.5127 667.138 23.39V28.5H666.256L666.018 27.436H665.962C665.756 27.7067 665.546 27.9353 665.332 28.122C665.126 28.2993 664.884 28.43 664.604 28.514C664.333 28.598 663.997 28.64 663.596 28.64C663.176 28.64 662.798 28.5607 662.462 28.402C662.126 28.2433 661.86 28.0007 661.664 27.674C661.468 27.338 661.37 26.918 661.37 26.414C661.37 25.6673 661.645 25.0933 662.196 24.692C662.746 24.2813 663.596 24.0573 664.744 24.02L665.934 23.978V23.53C665.934 22.9047 665.808 22.4707 665.556 22.228C665.313 21.9853 664.963 21.864 664.506 21.864C664.142 21.864 663.792 21.9247 663.456 22.046C663.129 22.158 662.816 22.2887 662.518 22.438L662.14 21.514C662.457 21.3367 662.826 21.1873 663.246 21.066C663.666 20.9353 664.109 20.87 664.576 20.87ZM664.912 24.874C664.053 24.9113 663.456 25.0607 663.12 25.322C662.793 25.5833 662.63 25.952 662.63 26.428C662.63 26.848 662.746 27.156 662.98 27.352C663.213 27.548 663.516 27.646 663.89 27.646C664.468 27.646 664.954 27.4733 665.346 27.128C665.738 26.7733 665.934 26.232 665.934 25.504V24.832L664.912 24.874ZM674.647 20.856C675.179 20.856 675.641 20.9353 676.033 21.094C676.434 21.2433 676.747 21.4673 676.971 21.766C677.195 22.0553 677.307 22.41 677.307 22.83C677.307 23.2873 677.186 23.6513 676.943 23.922C676.71 24.1833 676.388 24.3747 675.977 24.496V24.552C676.257 24.636 676.514 24.7527 676.747 24.902C676.99 25.0513 677.181 25.2473 677.321 25.49C677.47 25.7327 677.545 26.0453 677.545 26.428C677.545 26.8387 677.438 27.212 677.223 27.548C677.008 27.884 676.672 28.15 676.215 28.346C675.767 28.542 675.193 28.64 674.493 28.64C674.157 28.64 673.835 28.6213 673.527 28.584C673.228 28.5467 672.953 28.4907 672.701 28.416C672.458 28.3413 672.244 28.2527 672.057 28.15V27.044C672.356 27.1933 672.71 27.3287 673.121 27.45C673.532 27.5713 673.98 27.632 674.465 27.632C674.82 27.632 675.137 27.59 675.417 27.506C675.697 27.422 675.921 27.2913 676.089 27.114C676.257 26.9273 676.341 26.6753 676.341 26.358C676.341 26.0687 676.266 25.8353 676.117 25.658C675.968 25.4713 675.744 25.3313 675.445 25.238C675.156 25.1447 674.782 25.098 674.325 25.098H673.401V24.09H674.157C674.764 24.09 675.249 24.006 675.613 23.838C675.977 23.6607 676.159 23.362 676.159 22.942C676.159 22.5873 676.019 22.3213 675.739 22.144C675.468 21.9667 675.076 21.878 674.563 21.878C674.18 21.878 673.835 21.92 673.527 22.004C673.228 22.0787 672.906 22.1953 672.561 22.354L672.127 21.374C672.51 21.1967 672.911 21.066 673.331 20.982C673.751 20.898 674.19 20.856 674.647 20.856ZM681.939 20.87C682.798 20.87 683.437 21.0707 683.857 21.472C684.286 21.8733 684.501 22.5127 684.501 23.39V28.5H683.619L683.381 27.436H683.325C683.12 27.7067 682.91 27.9353 682.695 28.122C682.49 28.2993 682.247 28.43 681.967 28.514C681.696 28.598 681.36 28.64 680.959 28.64C680.539 28.64 680.161 28.5607 679.825 28.402C679.489 28.2433 679.223 28.0007 679.027 27.674C678.831 27.338 678.733 26.918 678.733 26.414C678.733 25.6673 679.008 25.0933 679.559 24.692C680.11 24.2813 680.959 24.0573 682.107 24.02L683.297 23.978V23.53C683.297 22.9047 683.171 22.4707 682.919 22.228C682.676 21.9853 682.326 21.864 681.869 21.864C681.505 21.864 681.155 21.9247 680.819 22.046C680.492 22.158 680.18 22.2887 679.881 22.438L679.503 21.514C679.82 21.3367 680.189 21.1873 680.609 21.066C681.029 20.9353 681.472 20.87 681.939 20.87ZM682.275 24.874C681.416 24.9113 680.819 25.0607 680.483 25.322C680.156 25.5833 679.993 25.952 679.993 26.428C679.993 26.848 680.11 27.156 680.343 27.352C680.576 27.548 680.88 27.646 681.253 27.646C681.832 27.646 682.317 27.4733 682.709 27.128C683.101 26.7733 683.297 26.232 683.297 25.504V24.832L682.275 24.874ZM696.32 20.996V27.478H697.342V31.09H696.138V28.5H686.674V20.996H687.892V27.464H690.888V20.996H692.106V27.464H695.102V20.996H696.32ZM699.826 25.574C699.826 25.658 699.822 25.7793 699.812 25.938C699.812 26.0873 699.808 26.2507 699.798 26.428C699.789 26.596 699.78 26.7593 699.77 26.918C699.761 27.0673 699.752 27.1887 699.742 27.282L703.494 20.996H704.978V28.5H703.844V24.076C703.844 23.9267 703.844 23.7307 703.844 23.488C703.854 23.2453 703.863 23.0073 703.872 22.774C703.882 22.5313 703.891 22.3493 703.9 22.228L700.19 28.5H698.678V20.996H699.826V25.574ZM716.856 20.996V27.478H717.878V31.09H716.674V28.5H707.21V20.996H708.428V27.464H711.424V20.996H712.642V27.464H715.638V20.996H716.856ZM721.957 20.856C722.564 20.856 723.087 20.996 723.525 21.276C723.964 21.556 724.3 21.9527 724.533 22.466C724.776 22.97 724.897 23.5627 724.897 24.244V24.986H720.081C720.1 25.8353 720.301 26.484 720.683 26.932C721.066 27.3707 721.603 27.59 722.293 27.59C722.741 27.59 723.138 27.548 723.483 27.464C723.838 27.3707 724.202 27.24 724.575 27.072V28.15C724.211 28.318 723.852 28.4393 723.497 28.514C723.152 28.598 722.732 28.64 722.237 28.64C721.565 28.64 720.973 28.4953 720.459 28.206C719.946 27.9167 719.545 27.4873 719.255 26.918C718.966 26.3393 718.821 25.6347 718.821 24.804C718.821 23.9827 718.952 23.278 719.213 22.69C719.475 22.102 719.839 21.6493 720.305 21.332C720.781 21.0147 721.332 20.856 721.957 20.856ZM721.957 21.864C721.416 21.864 720.987 22.0553 720.669 22.438C720.352 22.8113 720.165 23.334 720.109 24.006H723.637C723.637 23.5767 723.577 23.2033 723.455 22.886C723.334 22.5687 723.147 22.3213 722.895 22.144C722.653 21.9573 722.34 21.864 721.957 21.864ZM727.883 20.996V24.118H731.635V20.996H732.853V28.5H731.635V25.154H727.883V28.5H726.665V20.996H727.883ZM735.059 28.5V20.996H736.277V24.076H738.041C738.666 24.076 739.18 24.1553 739.581 24.314C739.982 24.4727 740.281 24.7107 740.477 25.028C740.673 25.336 740.771 25.728 740.771 26.204C740.771 26.6707 740.673 27.0767 740.477 27.422C740.29 27.7673 739.992 28.0333 739.581 28.22C739.18 28.4067 738.652 28.5 737.999 28.5H735.059ZM737.887 27.506C738.382 27.506 738.783 27.4173 739.091 27.24C739.399 27.0533 739.553 26.7313 739.553 26.274C739.553 25.8167 739.408 25.5087 739.119 25.35C738.839 25.182 738.433 25.098 737.901 25.098H736.277V27.506H737.887ZM741.933 28.5V20.996H743.151V28.5H741.933Z" fill="white"/>
</svg>
