<svg width="364" height="210" viewBox="0 0 364 210" fill="none" xmlns="http://www.w3.org/2000/svg">
<path d="M6.84 19L3.312 8.074H3.24C3.264 8.314 3.282 8.638 3.294 9.046C3.318 9.454 3.336 9.892 3.348 10.36C3.372 10.828 3.384 11.29 3.384 11.746V19H1.566V6.148H4.374L7.758 16.462H7.812L11.25 6.148H14.058V19H12.15V11.638C12.15 11.218 12.156 10.786 12.168 10.342C12.18 9.886 12.198 9.46 12.222 9.064C12.246 8.668 12.264 8.344 12.276 8.092H12.204L8.586 19H6.84ZM20.6845 9.118C21.4885 9.118 22.1845 9.298 22.7725 9.658C23.3605 10.006 23.8105 10.51 24.1225 11.17C24.4465 11.83 24.6085 12.61 24.6085 13.51V14.554H18.5065C18.5305 15.55 18.7705 16.312 19.2265 16.84C19.6825 17.368 20.3245 17.632 21.1525 17.632C21.7405 17.632 22.2625 17.578 22.7185 17.47C23.1865 17.35 23.6605 17.176 24.1405 16.948V18.532C23.6845 18.748 23.2165 18.91 22.7365 19.018C22.2685 19.126 21.6985 19.18 21.0265 19.18C20.1505 19.18 19.3705 18.994 18.6865 18.622C18.0025 18.25 17.4685 17.698 17.0845 16.966C16.7005 16.222 16.5085 15.31 16.5085 14.23C16.5085 13.138 16.6825 12.214 17.0305 11.458C17.3785 10.702 17.8645 10.126 18.4885 9.73C19.1245 9.322 19.8565 9.118 20.6845 9.118ZM20.6845 10.594C20.0725 10.594 19.5805 10.816 19.2085 11.26C18.8365 11.704 18.6205 12.334 18.5605 13.15H22.6825C22.6825 12.646 22.6105 12.202 22.4665 11.818C22.3225 11.434 22.1005 11.134 21.8005 10.918C21.5125 10.702 21.1405 10.594 20.6845 10.594ZM28.73 9.298V13.24H33.032V9.298H34.976V19H33.032V14.77H28.73V19H26.786V9.298H28.73ZM49.9236 14.14C49.9236 15.208 49.7556 16.12 49.4196 16.876C49.0836 17.632 48.6036 18.208 47.9796 18.604C47.3676 18.988 46.6356 19.18 45.7836 19.18C45.0156 19.18 44.3376 19.018 43.7496 18.694C43.1616 18.358 42.6876 17.866 42.3276 17.218C41.9796 16.558 41.7636 15.742 41.6796 14.77H39.6636V19H37.7196V9.298H39.6636V13.24H41.6976C41.7936 12.352 42.0216 11.602 42.3816 10.99C42.7416 10.378 43.2096 9.916 43.7856 9.604C44.3736 9.28 45.0516 9.118 45.8196 9.118C46.6236 9.118 47.3316 9.316 47.9436 9.712C48.5676 10.096 49.0536 10.66 49.4016 11.404C49.7496 12.148 49.9236 13.06 49.9236 14.14ZM43.6596 14.14C43.6596 14.896 43.7316 15.532 43.8756 16.048C44.0196 16.564 44.2536 16.954 44.5776 17.218C44.9016 17.482 45.3096 17.614 45.8016 17.614C46.3056 17.614 46.7076 17.482 47.0076 17.218C47.3196 16.954 47.5476 16.564 47.6916 16.048C47.8476 15.532 47.9256 14.896 47.9256 14.14C47.9256 13.372 47.8536 12.736 47.7096 12.232C47.5656 11.728 47.3316 11.35 47.0076 11.098C46.6956 10.834 46.2936 10.702 45.8016 10.702C45.3096 10.702 44.9016 10.834 44.5776 11.098C44.2536 11.35 44.0196 11.728 43.8756 12.232C43.7316 12.736 43.6596 13.372 43.6596 14.14ZM60.3077 19.18C59.4557 19.18 58.7057 19.006 58.0577 18.658C57.4217 18.31 56.9237 17.77 56.5637 17.038C56.2157 16.294 56.0417 15.352 56.0417 14.212C56.0417 13.012 56.2337 12.04 56.6177 11.296C57.0017 10.552 57.5237 10.006 58.1837 9.658C58.8437 9.298 59.5997 9.118 60.4517 9.118C60.9557 9.118 61.4357 9.178 61.8917 9.298C62.3597 9.406 62.7437 9.532 63.0437 9.676L62.4497 11.206C62.1497 11.086 61.8257 10.978 61.4777 10.882C61.1297 10.786 60.7997 10.738 60.4877 10.738C59.9357 10.738 59.4797 10.87 59.1197 11.134C58.7717 11.386 58.5077 11.77 58.3277 12.286C58.1477 12.79 58.0577 13.426 58.0577 14.194C58.0577 14.926 58.1477 15.544 58.3277 16.048C58.5077 16.552 58.7717 16.936 59.1197 17.2C59.4797 17.452 59.9117 17.578 60.4157 17.578C60.9077 17.578 61.3457 17.518 61.7297 17.398C62.1257 17.278 62.4917 17.122 62.8277 16.93V18.586C62.4917 18.79 62.1257 18.94 61.7297 19.036C61.3337 19.132 60.8597 19.18 60.3077 19.18ZM68.6025 9.118C69.7425 9.118 70.6005 9.388 71.1765 9.928C71.7645 10.456 72.0585 11.29 72.0585 12.43V19H70.6725L70.2945 17.65H70.2225C69.9465 17.998 69.6705 18.286 69.3945 18.514C69.1305 18.742 68.8185 18.91 68.4585 19.018C68.1105 19.126 67.6785 19.18 67.1625 19.18C66.6225 19.18 66.1365 19.078 65.7045 18.874C65.2725 18.658 64.9305 18.334 64.6785 17.902C64.4265 17.458 64.3005 16.906 64.3005 16.246C64.3005 15.262 64.6485 14.512 65.3445 13.996C66.0525 13.48 67.1265 13.198 68.5665 13.15L70.1145 13.096V12.556C70.1145 11.836 69.9645 11.332 69.6645 11.044C69.3765 10.756 68.9685 10.612 68.4405 10.612C67.9965 10.612 67.5585 10.684 67.1265 10.828C66.6945 10.972 66.2745 11.146 65.8665 11.35L65.2725 9.964C65.7165 9.724 66.2205 9.526 66.7845 9.37C67.3605 9.202 67.9665 9.118 68.6025 9.118ZM68.9445 14.374C67.9605 14.422 67.2765 14.608 66.8925 14.932C66.5085 15.244 66.3165 15.688 66.3165 16.264C66.3165 16.768 66.4485 17.134 66.7125 17.362C66.9885 17.59 67.3425 17.704 67.7745 17.704C68.4345 17.704 68.9865 17.494 69.4305 17.074C69.8865 16.654 70.1145 16.024 70.1145 15.184V14.338L68.9445 14.374ZM82.6411 5.23C82.5811 5.842 82.4251 6.364 82.1731 6.796C81.9211 7.216 81.5491 7.54 81.0571 7.768C80.5651 7.984 79.9231 8.092 79.1311 8.092C78.3271 8.092 77.6791 7.984 77.1871 7.768C76.6951 7.54 76.3351 7.216 76.1071 6.796C75.8911 6.376 75.7591 5.854 75.7111 5.23H77.4571C77.5171 5.89 77.6731 6.328 77.9251 6.544C78.1891 6.76 78.5971 6.868 79.1491 6.868C79.6411 6.868 80.0311 6.754 80.3191 6.526C80.6191 6.286 80.7931 5.854 80.8411 5.23H82.6411ZM76.5751 14.59C76.5751 14.734 76.5691 14.92 76.5571 15.148C76.5451 15.376 76.5331 15.616 76.5211 15.868C76.5091 16.108 76.4971 16.336 76.4851 16.552C76.4731 16.756 76.4611 16.918 76.4491 17.038L81.0031 9.298H83.3071V19H81.4891V13.834C81.4891 13.606 81.4951 13.324 81.5071 12.988C81.5191 12.652 81.5311 12.328 81.5431 12.016C81.5551 11.692 81.5671 11.446 81.5791 11.278L77.0611 19H74.7391V9.298H76.5751V14.59ZM92.9534 10.828H89.9474V19H88.0214V10.828H85.0514V9.298H92.9534V10.828ZM98.3798 9.118C99.5198 9.118 100.378 9.388 100.954 9.928C101.542 10.456 101.836 11.29 101.836 12.43V19H100.45L100.072 17.65H99.9998C99.7238 17.998 99.4478 18.286 99.1718 18.514C98.9078 18.742 98.5958 18.91 98.2358 19.018C97.8878 19.126 97.4558 19.18 96.9398 19.18C96.3998 19.18 95.9138 19.078 95.4818 18.874C95.0498 18.658 94.7078 18.334 94.4558 17.902C94.2038 17.458 94.0778 16.906 94.0778 16.246C94.0778 15.262 94.4258 14.512 95.1218 13.996C95.8298 13.48 96.9038 13.198 98.3438 13.15L99.8918 13.096V12.556C99.8918 11.836 99.7418 11.332 99.4418 11.044C99.1538 10.756 98.7458 10.612 98.2178 10.612C97.7738 10.612 97.3358 10.684 96.9038 10.828C96.4718 10.972 96.0518 11.146 95.6438 11.35L95.0498 9.964C95.4938 9.724 95.9978 9.526 96.5618 9.37C97.1378 9.202 97.7438 9.118 98.3798 9.118ZM98.7218 14.374C97.7378 14.422 97.0538 14.608 96.6698 14.932C96.2858 15.244 96.0938 15.688 96.0938 16.264C96.0938 16.768 96.2258 17.134 96.4898 17.362C96.7658 17.59 97.1198 17.704 97.5518 17.704C98.2118 17.704 98.7638 17.494 99.2078 17.074C99.6638 16.654 99.8918 16.024 99.8918 15.184V14.338L98.7218 14.374Z" fill="#090F24"/>
<path d="M8.19 60.627H6.706L2.52 55.559V60.627H1.274V50.631H2.52V55.475L6.608 50.631H8.008L3.976 55.489L8.19 60.627ZM11.9975 52.997C12.8561 52.997 13.4955 53.1976 13.9155 53.599C14.3448 54.0003 14.5595 54.6396 14.5595 55.517V60.627H13.6775L13.4395 59.563H13.3835C13.1781 59.8336 12.9681 60.0623 12.7535 60.249C12.5481 60.4263 12.3055 60.557 12.0255 60.641C11.7548 60.725 11.4188 60.767 11.0175 60.767C10.5975 60.767 10.2195 60.6876 9.88345 60.529C9.54745 60.3703 9.28145 60.1276 9.08545 59.801C8.88945 59.465 8.79145 59.045 8.79145 58.541C8.79145 57.7943 9.06679 57.2203 9.61745 56.819C10.1681 56.4083 11.0175 56.1843 12.1655 56.147L13.3555 56.105V55.657C13.3555 55.0316 13.2295 54.5976 12.9775 54.355C12.7348 54.1123 12.3848 53.991 11.9275 53.991C11.5635 53.991 11.2135 54.0516 10.8775 54.173C10.5508 54.285 10.2381 54.4156 9.93945 54.565L9.56145 53.641C9.87879 53.4636 10.2475 53.3143 10.6675 53.193C11.0875 53.0623 11.5308 52.997 11.9975 52.997ZM12.3335 57.001C11.4748 57.0383 10.8775 57.1876 10.5415 57.449C10.2148 57.7103 10.0515 58.079 10.0515 58.555C10.0515 58.975 10.1681 59.283 10.4015 59.479C10.6348 59.675 10.9381 59.773 11.3115 59.773C11.8901 59.773 12.3755 59.6003 12.7675 59.255C13.1595 58.9003 13.3555 58.359 13.3555 57.631V56.959L12.3335 57.001ZM21.689 54.159H19.379V60.627H18.175V54.159H15.893V53.123H21.689V54.159ZM25.7787 52.997C26.6374 52.997 27.2767 53.1976 27.6967 53.599C28.126 54.0003 28.3407 54.6396 28.3407 55.517V60.627H27.4587L27.2207 59.563H27.1647C26.9594 59.8336 26.7494 60.0623 26.5347 60.249C26.3294 60.4263 26.0867 60.557 25.8067 60.641C25.536 60.725 25.2 60.767 24.7987 60.767C24.3787 60.767 24.0007 60.6876 23.6647 60.529C23.3287 60.3703 23.0627 60.1276 22.8667 59.801C22.6707 59.465 22.5727 59.045 22.5727 58.541C22.5727 57.7943 22.848 57.2203 23.3987 56.819C23.9494 56.4083 24.7987 56.1843 25.9467 56.147L27.1367 56.105V55.657C27.1367 55.0316 27.0107 54.5976 26.7587 54.355C26.516 54.1123 26.166 53.991 25.7087 53.991C25.3447 53.991 24.9947 54.0516 24.6587 54.173C24.332 54.285 24.0194 54.4156 23.7207 54.565L23.3427 53.641C23.66 53.4636 24.0287 53.3143 24.4487 53.193C24.8687 53.0623 25.312 52.997 25.7787 52.997ZM26.1147 57.001C25.256 57.0383 24.6587 57.1876 24.3227 57.449C23.996 57.7103 23.8327 58.079 23.8327 58.555C23.8327 58.975 23.9494 59.283 24.1827 59.479C24.416 59.675 24.7194 59.773 25.0927 59.773C25.6714 59.773 26.1567 59.6003 26.5487 59.255C26.9407 58.9003 27.1367 58.359 27.1367 57.631V56.959L26.1147 57.001ZM35.9742 60.627H34.7422V54.145H32.6842C32.6002 55.3303 32.4882 56.343 32.3482 57.183C32.2175 58.0136 32.0495 58.6903 31.8442 59.213C31.6482 59.7356 31.4102 60.1183 31.1302 60.361C30.8502 60.6036 30.5189 60.725 30.1362 60.725C30.0149 60.725 29.8935 60.7156 29.7722 60.697C29.6602 60.6876 29.5669 60.6643 29.4922 60.627V59.703C29.5482 59.7216 29.6089 59.7356 29.6742 59.745C29.7395 59.7543 29.8049 59.759 29.8702 59.759C30.0569 59.759 30.2249 59.675 30.3742 59.507C30.5329 59.339 30.6729 59.0823 30.7942 58.737C30.9249 58.3916 31.0415 57.9576 31.1442 57.435C31.2469 56.903 31.3355 56.2776 31.4102 55.559C31.4942 54.8403 31.5689 54.0283 31.6342 53.123H35.9742V60.627ZM44.3581 56.861C44.3581 57.4863 44.2788 58.0416 44.1201 58.527C43.9708 59.003 43.7515 59.409 43.4621 59.745C43.1728 60.081 42.8228 60.3376 42.4121 60.515C42.0015 60.683 41.5441 60.767 41.0401 60.767C40.5735 60.767 40.1395 60.683 39.7381 60.515C39.3461 60.3376 39.0008 60.081 38.7021 59.745C38.4128 59.409 38.1888 59.003 38.0301 58.527C37.8715 58.0416 37.7921 57.4863 37.7921 56.861C37.7921 56.0303 37.9228 55.3303 38.1841 54.761C38.4548 54.1823 38.8375 53.7436 39.3321 53.445C39.8268 53.137 40.4101 52.983 41.0821 52.983C41.7261 52.983 42.2908 53.137 42.7761 53.445C43.2708 53.7436 43.6581 54.1823 43.9381 54.761C44.2181 55.3303 44.3581 56.0303 44.3581 56.861ZM39.0521 56.861C39.0521 57.449 39.1221 57.9623 39.2621 58.401C39.4021 58.8303 39.6215 59.1616 39.9201 59.395C40.2188 59.6283 40.6015 59.745 41.0681 59.745C41.5348 59.745 41.9175 59.6283 42.2161 59.395C42.5148 59.1616 42.7341 58.8303 42.8741 58.401C43.0235 57.9623 43.0981 57.449 43.0981 56.861C43.0981 56.2636 43.0235 55.755 42.8741 55.335C42.7341 54.915 42.5148 54.593 42.2161 54.369C41.9175 54.1356 41.5301 54.019 41.0541 54.019C40.3541 54.019 39.8455 54.271 39.5281 54.775C39.2108 55.279 39.0521 55.9743 39.0521 56.861ZM50.5225 53.123V54.159H47.3865V60.627H46.1685V53.123H50.5225Z" fill="#090F24"/>
<path d="M9.492 84.615C9.492 85.3896 9.39867 86.0943 9.212 86.729C9.02533 87.3543 8.75 87.8956 8.386 88.353C8.022 88.8103 7.56933 89.1603 7.028 89.403C6.48667 89.6456 5.86133 89.767 5.152 89.767C4.41467 89.767 3.77067 89.6456 3.22 89.403C2.67867 89.151 2.226 88.801 1.862 88.353C1.50733 87.8956 1.24133 87.3496 1.064 86.715C0.886667 86.0803 0.798 85.3756 0.798 84.601C0.798 83.5743 0.956667 82.6783 1.274 81.913C1.59133 81.1476 2.072 80.5503 2.716 80.121C3.36933 79.6916 4.186 79.477 5.166 79.477C6.10867 79.477 6.902 79.6916 7.546 80.121C8.19 80.541 8.67533 81.1383 9.002 81.913C9.32867 82.6783 9.492 83.579 9.492 84.615ZM2.114 84.615C2.114 85.455 2.22133 86.1783 2.436 86.785C2.65067 87.3916 2.982 87.8583 3.43 88.185C3.88733 88.5116 4.46133 88.675 5.152 88.675C5.852 88.675 6.426 88.5116 6.874 88.185C7.322 87.8583 7.64867 87.3916 7.854 86.785C8.06867 86.1783 8.176 85.455 8.176 84.615C8.176 83.355 7.93333 82.3703 7.448 81.661C6.972 80.9423 6.21133 80.583 5.166 80.583C4.466 80.583 3.88733 80.7463 3.43 81.073C2.982 81.3903 2.65067 81.8523 2.436 82.459C2.22133 83.0563 2.114 83.775 2.114 84.615ZM16.0369 82.123V85.245H19.7889V82.123H21.0069V89.627H19.7889V86.281H16.0369V89.627H14.8189V82.123H16.0369ZM25.9154 81.997C26.7741 81.997 27.4134 82.1976 27.8334 82.599C28.2628 83.0003 28.4774 83.6396 28.4774 84.517V89.627H27.5954L27.3574 88.563H27.3014C27.0961 88.8336 26.8861 89.0623 26.6714 89.249C26.4661 89.4263 26.2234 89.557 25.9434 89.641C25.6728 89.725 25.3368 89.767 24.9354 89.767C24.5154 89.767 24.1374 89.6876 23.8014 89.529C23.4654 89.3703 23.1994 89.1276 23.0034 88.801C22.8074 88.465 22.7094 88.045 22.7094 87.541C22.7094 86.7943 22.9848 86.2203 23.5354 85.819C24.0861 85.4083 24.9354 85.1843 26.0834 85.147L27.2734 85.105V84.657C27.2734 84.0316 27.1474 83.5976 26.8954 83.355C26.6528 83.1123 26.3028 82.991 25.8454 82.991C25.4814 82.991 25.1314 83.0516 24.7954 83.173C24.4688 83.285 24.1561 83.4156 23.8574 83.565L23.4794 82.641C23.7968 82.4636 24.1654 82.3143 24.5854 82.193C25.0054 82.0623 25.4488 81.997 25.9154 81.997ZM26.2514 86.001C25.3928 86.0383 24.7954 86.1876 24.4594 86.449C24.1328 86.7103 23.9694 87.079 23.9694 87.555C23.9694 87.975 24.0861 88.283 24.3194 88.479C24.5528 88.675 24.8561 88.773 25.2294 88.773C25.8081 88.773 26.2934 88.6003 26.6854 88.255C27.0774 87.9003 27.2734 87.359 27.2734 86.631V85.959L26.2514 86.001ZM33.4929 89.767C32.8583 89.767 32.2983 89.6316 31.8129 89.361C31.3276 89.0903 30.9449 88.6703 30.6649 88.101C30.3943 87.5316 30.2589 86.8036 30.2589 85.917C30.2589 84.993 30.4036 84.2416 30.6929 83.663C30.9823 83.0843 31.3743 82.6596 31.8689 82.389C32.3729 82.1183 32.9423 81.983 33.5769 81.983C33.9409 81.983 34.2909 82.025 34.6269 82.109C34.9723 82.1836 35.2523 82.277 35.4669 82.389L35.0889 83.411C34.8743 83.327 34.6223 83.2476 34.3329 83.173C34.0529 83.0983 33.7916 83.061 33.5489 83.061C33.0916 83.061 32.7136 83.1683 32.4149 83.383C32.1163 83.5976 31.8923 83.915 31.7429 84.335C31.5936 84.755 31.5189 85.2776 31.5189 85.903C31.5189 86.5003 31.5936 87.009 31.7429 87.429C31.8923 87.849 32.1116 88.1663 32.4009 88.381C32.6996 88.5956 33.0636 88.703 33.4929 88.703C33.8756 88.703 34.2163 88.661 34.5149 88.577C34.8136 88.493 35.0889 88.3903 35.3409 88.269V89.361C35.0983 89.4916 34.8323 89.5896 34.5429 89.655C34.2536 89.7296 33.9036 89.767 33.4929 89.767Z" fill="#090F24"/>
<path d="M9.492 113.615C9.492 114.39 9.39867 115.094 9.212 115.729C9.02533 116.354 8.75 116.896 8.386 117.353C8.022 117.81 7.56933 118.16 7.028 118.403C6.48667 118.646 5.86133 118.767 5.152 118.767C4.41467 118.767 3.77067 118.646 3.22 118.403C2.67867 118.151 2.226 117.801 1.862 117.353C1.50733 116.896 1.24133 116.35 1.064 115.715C0.886667 115.08 0.798 114.376 0.798 113.601C0.798 112.574 0.956667 111.678 1.274 110.913C1.59133 110.148 2.072 109.55 2.716 109.121C3.36933 108.692 4.186 108.477 5.166 108.477C6.10867 108.477 6.902 108.692 7.546 109.121C8.19 109.541 8.67533 110.138 9.002 110.913C9.32867 111.678 9.492 112.579 9.492 113.615ZM2.114 113.615C2.114 114.455 2.22133 115.178 2.436 115.785C2.65067 116.392 2.982 116.858 3.43 117.185C3.88733 117.512 4.46133 117.675 5.152 117.675C5.852 117.675 6.426 117.512 6.874 117.185C7.322 116.858 7.64867 116.392 7.854 115.785C8.06867 115.178 8.176 114.455 8.176 113.615C8.176 112.355 7.93333 111.37 7.448 110.661C6.972 109.942 6.21133 109.583 5.166 109.583C4.466 109.583 3.88733 109.746 3.43 110.073C2.982 110.39 2.65067 110.852 2.436 111.459C2.22133 112.056 2.114 112.775 2.114 113.615ZM17.4069 111.123V118.627H16.1889V112.173H12.6189V118.627H11.4009V111.123H17.4069ZM25.0914 118.627H23.8594V112.145H21.8014C21.7174 113.33 21.6054 114.343 21.4654 115.183C21.3347 116.014 21.1667 116.69 20.9614 117.213C20.7654 117.736 20.5274 118.118 20.2474 118.361C19.9674 118.604 19.6361 118.725 19.2534 118.725C19.1321 118.725 19.0107 118.716 18.8894 118.697C18.7774 118.688 18.6841 118.664 18.6094 118.627V117.703C18.6654 117.722 18.7261 117.736 18.7914 117.745C18.8567 117.754 18.9221 117.759 18.9874 117.759C19.1741 117.759 19.3421 117.675 19.4914 117.507C19.6501 117.339 19.7901 117.082 19.9114 116.737C20.0421 116.392 20.1587 115.958 20.2614 115.435C20.3641 114.903 20.4527 114.278 20.5274 113.559C20.6114 112.84 20.6861 112.028 20.7514 111.123H25.0914V118.627ZM30.0033 110.997C30.862 110.997 31.5013 111.198 31.9213 111.599C32.3506 112 32.5653 112.64 32.5653 113.517V118.627H31.6833L31.4453 117.563H31.3893C31.184 117.834 30.974 118.062 30.7593 118.249C30.554 118.426 30.3113 118.557 30.0313 118.641C29.7606 118.725 29.4246 118.767 29.0233 118.767C28.6033 118.767 28.2253 118.688 27.8893 118.529C27.5533 118.37 27.2873 118.128 27.0913 117.801C26.8953 117.465 26.7973 117.045 26.7973 116.541C26.7973 115.794 27.0726 115.22 27.6233 114.819C28.174 114.408 29.0233 114.184 30.1713 114.147L31.3613 114.105V113.657C31.3613 113.032 31.2353 112.598 30.9833 112.355C30.7406 112.112 30.3906 111.991 29.9333 111.991C29.5693 111.991 29.2193 112.052 28.8833 112.173C28.5566 112.285 28.244 112.416 27.9453 112.565L27.5673 111.641C27.8846 111.464 28.2533 111.314 28.6733 111.193C29.0933 111.062 29.5366 110.997 30.0033 110.997ZM30.3393 115.001C29.4806 115.038 28.8833 115.188 28.5473 115.449C28.2206 115.71 28.0573 116.079 28.0573 116.555C28.0573 116.975 28.174 117.283 28.4073 117.479C28.6406 117.675 28.944 117.773 29.3173 117.773C29.896 117.773 30.3813 117.6 30.7733 117.255C31.1653 116.9 31.3613 116.359 31.3613 115.631V114.959L30.3393 115.001ZM39.6948 112.159H37.3848V118.627H36.1808V112.159H33.8988V111.123H39.6948V112.159ZM43.7846 110.997C44.6432 110.997 45.2826 111.198 45.7026 111.599C46.1319 112 46.3466 112.64 46.3466 113.517V118.627H45.4646L45.2266 117.563H45.1706C44.9652 117.834 44.7552 118.062 44.5406 118.249C44.3352 118.426 44.0926 118.557 43.8126 118.641C43.5419 118.725 43.2059 118.767 42.8046 118.767C42.3846 118.767 42.0066 118.688 41.6706 118.529C41.3346 118.37 41.0686 118.128 40.8726 117.801C40.6766 117.465 40.5786 117.045 40.5786 116.541C40.5786 115.794 40.8539 115.22 41.4046 114.819C41.9552 114.408 42.8046 114.184 43.9526 114.147L45.1426 114.105V113.657C45.1426 113.032 45.0166 112.598 44.7646 112.355C44.5219 112.112 44.1719 111.991 43.7146 111.991C43.3506 111.991 43.0006 112.052 42.6646 112.173C42.3379 112.285 42.0252 112.416 41.7266 112.565L41.3486 111.641C41.6659 111.464 42.0346 111.314 42.4546 111.193C42.8746 111.062 43.3179 110.997 43.7846 110.997ZM44.1206 115.001C43.2619 115.038 42.6646 115.188 42.3286 115.449C42.0019 115.71 41.8386 116.079 41.8386 116.555C41.8386 116.975 41.9552 117.283 42.1886 117.479C42.4219 117.675 42.7252 117.773 43.0986 117.773C43.6772 117.773 44.1626 117.6 44.5546 117.255C44.9466 116.9 45.1426 116.359 45.1426 115.631V114.959L44.1206 115.001ZM53.086 115.701C53.086 115.785 53.0814 115.906 53.072 116.065C53.072 116.214 53.0674 116.378 53.058 116.555C53.0487 116.723 53.0394 116.886 53.03 117.045C53.0207 117.194 53.0114 117.316 53.002 117.409L56.754 111.123H58.238V118.627H57.104V114.203C57.104 114.054 57.104 113.858 57.104 113.615C57.1134 113.372 57.1227 113.134 57.132 112.901C57.1414 112.658 57.1507 112.476 57.16 112.355L53.45 118.627H51.938V111.123H53.086V115.701ZM69.2213 111.123V117.591H70.2433V121.231H69.0813V118.627H64.1813V121.231H63.0193V117.591H63.5933C63.9946 116.994 64.3259 116.345 64.5873 115.645C64.8486 114.936 65.0446 114.198 65.1753 113.433C65.3153 112.658 65.3899 111.888 65.3993 111.123H69.2213ZM66.4772 112.089C66.4399 112.724 66.3466 113.382 66.1973 114.063C66.0573 114.735 65.8706 115.379 65.6373 115.995C65.4133 116.611 65.1519 117.143 64.8533 117.591H68.0313V112.089H66.4772ZM77.7722 114.861C77.7722 115.486 77.6929 116.042 77.5342 116.527C77.3849 117.003 77.1655 117.409 76.8762 117.745C76.5869 118.081 76.2369 118.338 75.8262 118.515C75.4155 118.683 74.9582 118.767 74.4542 118.767C73.9875 118.767 73.5535 118.683 73.1522 118.515C72.7602 118.338 72.4149 118.081 72.1162 117.745C71.8269 117.409 71.6029 117.003 71.4442 116.527C71.2855 116.042 71.2062 115.486 71.2062 114.861C71.2062 114.03 71.3369 113.33 71.5982 112.761C71.8689 112.182 72.2515 111.744 72.7462 111.445C73.2409 111.137 73.8242 110.983 74.4962 110.983C75.1402 110.983 75.7049 111.137 76.1902 111.445C76.6849 111.744 77.0722 112.182 77.3522 112.761C77.6322 113.33 77.7722 114.03 77.7722 114.861ZM72.4662 114.861C72.4662 115.449 72.5362 115.962 72.6762 116.401C72.8162 116.83 73.0355 117.162 73.3342 117.395C73.6329 117.628 74.0155 117.745 74.4822 117.745C74.9489 117.745 75.3315 117.628 75.6302 117.395C75.9289 117.162 76.1482 116.83 76.2882 116.401C76.4375 115.962 76.5122 115.449 76.5122 114.861C76.5122 114.264 76.4375 113.755 76.2882 113.335C76.1482 112.915 75.9289 112.593 75.6302 112.369C75.3315 112.136 74.9442 112.019 74.4682 112.019C73.7682 112.019 73.2595 112.271 72.9422 112.775C72.6249 113.279 72.4662 113.974 72.4662 114.861ZM82.4246 118.767C81.7899 118.767 81.2299 118.632 80.7446 118.361C80.2592 118.09 79.8766 117.67 79.5966 117.101C79.3259 116.532 79.1906 115.804 79.1906 114.917C79.1906 113.993 79.3352 113.242 79.6246 112.663C79.9139 112.084 80.3059 111.66 80.8006 111.389C81.3046 111.118 81.8739 110.983 82.5086 110.983C82.8726 110.983 83.2226 111.025 83.5586 111.109C83.9039 111.184 84.1839 111.277 84.3986 111.389L84.0206 112.411C83.8059 112.327 83.5539 112.248 83.2646 112.173C82.9846 112.098 82.7232 112.061 82.4806 112.061C82.0232 112.061 81.6452 112.168 81.3466 112.383C81.0479 112.598 80.8239 112.915 80.6746 113.335C80.5252 113.755 80.4506 114.278 80.4506 114.903C80.4506 115.5 80.5252 116.009 80.6746 116.429C80.8239 116.849 81.0432 117.166 81.3326 117.381C81.6312 117.596 81.9952 117.703 82.4246 117.703C82.8072 117.703 83.1479 117.661 83.4466 117.577C83.7452 117.493 84.0206 117.39 84.2726 117.269V118.361C84.0299 118.492 83.7639 118.59 83.4746 118.655C83.1852 118.73 82.8352 118.767 82.4246 118.767ZM90.896 112.159H88.586V118.627H87.382V112.159H85.1V111.123H90.896V112.159ZM94.9857 110.997C95.8444 110.997 96.4837 111.198 96.9037 111.599C97.3331 112 97.5477 112.64 97.5477 113.517V118.627H96.6657L96.4277 117.563H96.3717C96.1664 117.834 95.9564 118.062 95.7417 118.249C95.5364 118.426 95.2937 118.557 95.0137 118.641C94.7431 118.725 94.4071 118.767 94.0057 118.767C93.5857 118.767 93.2077 118.688 92.8717 118.529C92.5357 118.37 92.2697 118.128 92.0737 117.801C91.8777 117.465 91.7797 117.045 91.7797 116.541C91.7797 115.794 92.0551 115.22 92.6057 114.819C93.1564 114.408 94.0057 114.184 95.1537 114.147L96.3437 114.105V113.657C96.3437 113.032 96.2177 112.598 95.9657 112.355C95.7231 112.112 95.3731 111.991 94.9157 111.991C94.5517 111.991 94.2017 112.052 93.8657 112.173C93.5391 112.285 93.2264 112.416 92.9277 112.565L92.5497 111.641C92.8671 111.464 93.2357 111.314 93.6557 111.193C94.0757 111.062 94.5191 110.997 94.9857 110.997ZM95.3217 115.001C94.4631 115.038 93.8657 115.188 93.5297 115.449C93.2031 115.71 93.0397 116.079 93.0397 116.555C93.0397 116.975 93.1564 117.283 93.3897 117.479C93.6231 117.675 93.9264 117.773 94.2997 117.773C94.8784 117.773 95.3637 117.6 95.7557 117.255C96.1477 116.9 96.3437 116.359 96.3437 115.631V114.959L95.3217 115.001ZM105.447 113.013C105.447 113.48 105.317 113.844 105.055 114.105C104.794 114.366 104.453 114.544 104.033 114.637V114.693C104.472 114.758 104.855 114.926 105.181 115.197C105.508 115.458 105.671 115.869 105.671 116.429C105.671 116.746 105.615 117.04 105.503 117.311C105.401 117.582 105.233 117.815 104.999 118.011C104.766 118.207 104.467 118.361 104.103 118.473C103.739 118.576 103.301 118.627 102.787 118.627H99.7212V111.123H102.773C103.287 111.123 103.744 111.184 104.145 111.305C104.547 111.417 104.864 111.613 105.097 111.893C105.331 112.164 105.447 112.537 105.447 113.013ZM104.411 116.429C104.411 116 104.257 115.692 103.949 115.505C103.651 115.318 103.212 115.225 102.633 115.225H100.939V117.633H102.661C103.221 117.633 103.651 117.544 103.949 117.367C104.257 117.18 104.411 116.868 104.411 116.429ZM104.215 113.167C104.215 112.812 104.094 112.556 103.851 112.397C103.618 112.229 103.24 112.145 102.717 112.145H100.939V114.203H102.493C103.063 114.203 103.492 114.119 103.781 113.951C104.071 113.783 104.215 113.522 104.215 113.167ZM111.564 111.123H112.894L109.898 114.735L113.146 118.627H111.732L108.568 114.819V118.627H107.35V111.123H108.568V114.763L111.564 111.123ZM117.093 110.997C117.952 110.997 118.591 111.198 119.011 111.599C119.44 112 119.655 112.64 119.655 113.517V118.627H118.773L118.535 117.563H118.479C118.274 117.834 118.064 118.062 117.849 118.249C117.644 118.426 117.401 118.557 117.121 118.641C116.85 118.725 116.514 118.767 116.113 118.767C115.693 118.767 115.315 118.688 114.979 118.529C114.643 118.37 114.377 118.128 114.181 117.801C113.985 117.465 113.887 117.045 113.887 116.541C113.887 115.794 114.162 115.22 114.713 114.819C115.264 114.408 116.113 114.184 117.261 114.147L118.451 114.105V113.657C118.451 113.032 118.325 112.598 118.073 112.355C117.83 112.112 117.48 111.991 117.023 111.991C116.659 111.991 116.309 112.052 115.973 112.173C115.646 112.285 115.334 112.416 115.035 112.565L114.657 111.641C114.974 111.464 115.343 111.314 115.763 111.193C116.183 111.062 116.626 110.997 117.093 110.997ZM117.429 115.001C116.57 115.038 115.973 115.188 115.637 115.449C115.31 115.71 115.147 116.079 115.147 116.555C115.147 116.975 115.264 117.283 115.497 117.479C115.73 117.675 116.034 117.773 116.407 117.773C116.986 117.773 117.471 117.6 117.863 117.255C118.255 116.9 118.451 116.359 118.451 115.631V114.959L117.429 115.001Z" fill="#090F24"/>
<path d="M3.976 137.631C4.76 137.631 5.418 137.71 5.95 137.869C6.482 138.028 6.88333 138.289 7.154 138.653C7.42467 139.017 7.56 139.502 7.56 140.109C7.56 140.501 7.49 140.851 7.35 141.159C7.21933 141.458 7.02333 141.71 6.762 141.915C6.50067 142.111 6.17867 142.246 5.796 142.321V142.391C6.188 142.456 6.538 142.578 6.846 142.755C7.16333 142.932 7.41067 143.184 7.588 143.511C7.77467 143.838 7.868 144.262 7.868 144.785C7.868 145.392 7.73267 145.91 7.462 146.339C7.20067 146.759 6.82733 147.081 6.342 147.305C5.85667 147.52 5.27333 147.627 4.592 147.627H1.274V137.631H3.976ZM4.214 141.887C4.998 141.887 5.53467 141.752 5.824 141.481C6.12267 141.201 6.272 140.79 6.272 140.249C6.272 139.698 6.09 139.306 5.726 139.073C5.37133 138.83 4.80667 138.709 4.032 138.709H2.52V141.887H4.214ZM2.52 142.937V146.563H4.368C5.18 146.563 5.74467 146.39 6.062 146.045C6.38867 145.7 6.552 145.247 6.552 144.687C6.552 144.332 6.47733 144.024 6.328 143.763C6.188 143.502 5.95467 143.301 5.628 143.161C5.30133 143.012 4.85333 142.937 4.284 142.937H2.52ZM15.8659 143.861C15.8659 144.486 15.7866 145.042 15.6279 145.527C15.4786 146.003 15.2593 146.409 14.9699 146.745C14.6806 147.081 14.3306 147.338 13.9199 147.515C13.5093 147.683 13.0519 147.767 12.5479 147.767C12.0813 147.767 11.6473 147.683 11.2459 147.515C10.8539 147.338 10.5086 147.081 10.2099 146.745C9.9206 146.409 9.6966 146.003 9.53794 145.527C9.37927 145.042 9.29994 144.486 9.29994 143.861C9.29994 143.03 9.4306 142.33 9.69194 141.761C9.9626 141.182 10.3453 140.744 10.8399 140.445C11.3346 140.137 11.9179 139.983 12.5899 139.983C13.2339 139.983 13.7986 140.137 14.2839 140.445C14.7786 140.744 15.1659 141.182 15.4459 141.761C15.7259 142.33 15.8659 143.03 15.8659 143.861ZM10.5599 143.861C10.5599 144.449 10.6299 144.962 10.7699 145.401C10.9099 145.83 11.1293 146.162 11.4279 146.395C11.7266 146.628 12.1093 146.745 12.5759 146.745C13.0426 146.745 13.4253 146.628 13.7239 146.395C14.0226 146.162 14.2419 145.83 14.3819 145.401C14.5313 144.962 14.6059 144.449 14.6059 143.861C14.6059 143.264 14.5313 142.755 14.3819 142.335C14.2419 141.915 14.0226 141.593 13.7239 141.369C13.4253 141.136 13.0379 141.019 12.5619 141.019C11.8619 141.019 11.3533 141.271 11.0359 141.775C10.7186 142.279 10.5599 142.974 10.5599 143.861ZM19.5943 139.983C20.1263 139.983 20.5883 140.062 20.9803 140.221C21.3816 140.37 21.6943 140.594 21.9183 140.893C22.1423 141.182 22.2543 141.537 22.2543 141.957C22.2543 142.414 22.133 142.778 21.8903 143.049C21.657 143.31 21.335 143.502 20.9243 143.623V143.679C21.2043 143.763 21.461 143.88 21.6943 144.029C21.937 144.178 22.1283 144.374 22.2683 144.617C22.4176 144.86 22.4923 145.172 22.4923 145.555C22.4923 145.966 22.385 146.339 22.1703 146.675C21.9556 147.011 21.6196 147.277 21.1623 147.473C20.7143 147.669 20.1403 147.767 19.4403 147.767C19.1043 147.767 18.7823 147.748 18.4743 147.711C18.1756 147.674 17.9003 147.618 17.6483 147.543C17.4056 147.468 17.191 147.38 17.0043 147.277V146.171C17.303 146.32 17.6576 146.456 18.0683 146.577C18.479 146.698 18.927 146.759 19.4123 146.759C19.767 146.759 20.0843 146.717 20.3643 146.633C20.6443 146.549 20.8683 146.418 21.0363 146.241C21.2043 146.054 21.2883 145.802 21.2883 145.485C21.2883 145.196 21.2136 144.962 21.0643 144.785C20.915 144.598 20.691 144.458 20.3923 144.365C20.103 144.272 19.7296 144.225 19.2723 144.225H18.3483V143.217H19.1043C19.711 143.217 20.1963 143.133 20.5603 142.965C20.9243 142.788 21.1063 142.489 21.1063 142.069C21.1063 141.714 20.9663 141.448 20.6863 141.271C20.4156 141.094 20.0236 141.005 19.5103 141.005C19.1276 141.005 18.7823 141.047 18.4743 141.131C18.1756 141.206 17.8536 141.322 17.5083 141.481L17.0743 140.501C17.457 140.324 17.8583 140.193 18.2783 140.109C18.6983 140.025 19.137 139.983 19.5943 139.983ZM29.9101 142.013C29.9101 142.48 29.7795 142.844 29.5181 143.105C29.2568 143.366 28.9161 143.544 28.4961 143.637V143.693C28.9348 143.758 29.3175 143.926 29.6441 144.197C29.9708 144.458 30.1341 144.869 30.1341 145.429C30.1341 145.746 30.0781 146.04 29.9661 146.311C29.8635 146.582 29.6955 146.815 29.4621 147.011C29.2288 147.207 28.9301 147.361 28.5661 147.473C28.2021 147.576 27.7635 147.627 27.2501 147.627H24.1841V140.123H27.2361C27.7495 140.123 28.2068 140.184 28.6081 140.305C29.0095 140.417 29.3268 140.613 29.5601 140.893C29.7935 141.164 29.9101 141.537 29.9101 142.013ZM28.8741 145.429C28.8741 145 28.7201 144.692 28.4121 144.505C28.1135 144.318 27.6748 144.225 27.0961 144.225H25.4021V146.633H27.1241C27.6841 146.633 28.1135 146.544 28.4121 146.367C28.7201 146.18 28.8741 145.868 28.8741 145.429ZM28.6781 142.167C28.6781 141.812 28.5568 141.556 28.3141 141.397C28.0808 141.229 27.7028 141.145 27.1801 141.145H25.4021V143.203H26.9561C27.5255 143.203 27.9548 143.119 28.2441 142.951C28.5335 142.783 28.6781 142.522 28.6781 142.167ZM35.215 139.983C36.083 139.983 36.7784 140.305 37.301 140.949C37.833 141.593 38.099 142.564 38.099 143.861C38.099 144.71 37.9777 145.429 37.735 146.017C37.4924 146.596 37.1517 147.034 36.713 147.333C36.2837 147.622 35.7797 147.767 35.201 147.767C34.837 147.767 34.515 147.716 34.235 147.613C33.9644 147.51 33.731 147.38 33.535 147.221C33.339 147.053 33.171 146.871 33.031 146.675H32.947C32.9657 146.834 32.9844 147.034 33.003 147.277C33.0217 147.52 33.031 147.73 33.031 147.907V150.987H31.813V140.123H32.807L32.975 141.145H33.031C33.171 140.93 33.339 140.734 33.535 140.557C33.731 140.38 33.9644 140.24 34.235 140.137C34.515 140.034 34.8417 139.983 35.215 139.983ZM34.977 141.019C34.5104 141.019 34.1324 141.117 33.843 141.313C33.563 141.5 33.3577 141.784 33.227 142.167C33.0964 142.55 33.031 143.035 33.031 143.623V143.861C33.031 144.477 33.087 145 33.199 145.429C33.3204 145.858 33.5257 146.185 33.815 146.409C34.1044 146.633 34.501 146.745 35.005 146.745C35.425 146.745 35.7704 146.619 36.041 146.367C36.3117 146.115 36.5124 145.774 36.643 145.345C36.7737 144.906 36.839 144.407 36.839 143.847C36.839 142.988 36.685 142.302 36.377 141.789C36.0784 141.276 35.6117 141.019 34.977 141.019ZM42.6225 139.997C43.4811 139.997 44.1205 140.198 44.5405 140.599C44.9698 141 45.1845 141.64 45.1845 142.517V147.627H44.3025L44.0645 146.563H44.0085C43.8031 146.834 43.5931 147.062 43.3785 147.249C43.1731 147.426 42.9305 147.557 42.6505 147.641C42.3798 147.725 42.0438 147.767 41.6425 147.767C41.2225 147.767 40.8445 147.688 40.5085 147.529C40.1725 147.37 39.9065 147.128 39.7105 146.801C39.5145 146.465 39.4165 146.045 39.4165 145.541C39.4165 144.794 39.6918 144.22 40.2425 143.819C40.7931 143.408 41.6425 143.184 42.7905 143.147L43.9805 143.105V142.657C43.9805 142.032 43.8545 141.598 43.6025 141.355C43.3598 141.112 43.0098 140.991 42.5525 140.991C42.1885 140.991 41.8385 141.052 41.5025 141.173C41.1758 141.285 40.8631 141.416 40.5645 141.565L40.1865 140.641C40.5038 140.464 40.8725 140.314 41.2925 140.193C41.7125 140.062 42.1558 139.997 42.6225 139.997ZM42.9585 144.001C42.0998 144.038 41.5025 144.188 41.1665 144.449C40.8398 144.71 40.6765 145.079 40.6765 145.555C40.6765 145.975 40.7931 146.283 41.0265 146.479C41.2598 146.675 41.5631 146.773 41.9365 146.773C42.5151 146.773 43.0005 146.6 43.3925 146.255C43.7845 145.9 43.9805 145.359 43.9805 144.631V143.959L42.9585 144.001ZM52.314 141.159H50.004V147.627H48.8V141.159H46.518V140.123H52.314V141.159ZM58.2677 144.701C58.2677 144.785 58.263 144.906 58.2537 145.065C58.2537 145.214 58.249 145.378 58.2397 145.555C58.2303 145.723 58.221 145.886 58.2117 146.045C58.2023 146.194 58.193 146.316 58.1837 146.409L61.9357 140.123H63.4197V147.627H62.2857V143.203C62.2857 143.054 62.2857 142.858 62.2857 142.615C62.295 142.372 62.3043 142.134 62.3137 141.901C62.323 141.658 62.3323 141.476 62.3417 141.355L58.6317 147.627H57.1197V140.123H58.2677V144.701ZM73.4229 140.123V141.159H70.2869V147.627H69.0689V140.123H73.4229ZM77.5131 139.997C78.3717 139.997 79.0111 140.198 79.4311 140.599C79.8604 141 80.0751 141.64 80.0751 142.517V147.627H79.1931L78.9551 146.563H78.8991C78.6937 146.834 78.4837 147.062 78.2691 147.249C78.0637 147.426 77.8211 147.557 77.5411 147.641C77.2704 147.725 76.9344 147.767 76.5331 147.767C76.1131 147.767 75.7351 147.688 75.3991 147.529C75.0631 147.37 74.7971 147.128 74.6011 146.801C74.4051 146.465 74.3071 146.045 74.3071 145.541C74.3071 144.794 74.5824 144.22 75.1331 143.819C75.6837 143.408 76.5331 143.184 77.6811 143.147L78.8711 143.105V142.657C78.8711 142.032 78.7451 141.598 78.4931 141.355C78.2504 141.112 77.9004 140.991 77.4431 140.991C77.0791 140.991 76.7291 141.052 76.3931 141.173C76.0664 141.285 75.7537 141.416 75.4551 141.565L75.0771 140.641C75.3944 140.464 75.7631 140.314 76.1831 140.193C76.6031 140.062 77.0464 139.997 77.5131 139.997ZM77.8491 144.001C76.9904 144.038 76.3931 144.188 76.0571 144.449C75.7304 144.71 75.5671 145.079 75.5671 145.555C75.5671 145.975 75.6837 146.283 75.9171 146.479C76.1504 146.675 76.4537 146.773 76.8271 146.773C77.4057 146.773 77.8911 146.6 78.2831 146.255C78.6751 145.9 78.8711 145.359 78.8711 144.631V143.959L77.8491 144.001ZM85.6506 139.983C86.5186 139.983 87.2139 140.305 87.7366 140.949C88.2686 141.593 88.5346 142.564 88.5346 143.861C88.5346 144.71 88.4132 145.429 88.1706 146.017C87.9279 146.596 87.5872 147.034 87.1486 147.333C86.7192 147.622 86.2152 147.767 85.6366 147.767C85.2726 147.767 84.9506 147.716 84.6706 147.613C84.3999 147.51 84.1666 147.38 83.9706 147.221C83.7746 147.053 83.6066 146.871 83.4666 146.675H83.3826C83.4012 146.834 83.4199 147.034 83.4386 147.277C83.4572 147.52 83.4666 147.73 83.4666 147.907V150.987H82.2486V140.123H83.2426L83.4106 141.145H83.4666C83.6066 140.93 83.7746 140.734 83.9706 140.557C84.1666 140.38 84.3999 140.24 84.6706 140.137C84.9506 140.034 85.2772 139.983 85.6506 139.983ZM85.4126 141.019C84.9459 141.019 84.5679 141.117 84.2786 141.313C83.9986 141.5 83.7932 141.784 83.6626 142.167C83.5319 142.55 83.4666 143.035 83.4666 143.623V143.861C83.4666 144.477 83.5226 145 83.6346 145.429C83.7559 145.858 83.9612 146.185 84.2506 146.409C84.5399 146.633 84.9366 146.745 85.4406 146.745C85.8606 146.745 86.2059 146.619 86.4766 146.367C86.7472 146.115 86.9479 145.774 87.0786 145.345C87.2092 144.906 87.2746 144.407 87.2746 143.847C87.2746 142.988 87.1206 142.302 86.8126 141.789C86.5139 141.276 86.0472 141.019 85.4126 141.019ZM93.058 139.997C93.9167 139.997 94.556 140.198 94.976 140.599C95.4053 141 95.62 141.64 95.62 142.517V147.627H94.738L94.5 146.563H94.444C94.2387 146.834 94.0287 147.062 93.814 147.249C93.6087 147.426 93.366 147.557 93.086 147.641C92.8153 147.725 92.4793 147.767 92.078 147.767C91.658 147.767 91.28 147.688 90.944 147.529C90.608 147.37 90.342 147.128 90.146 146.801C89.95 146.465 89.852 146.045 89.852 145.541C89.852 144.794 90.1273 144.22 90.678 143.819C91.2287 143.408 92.078 143.184 93.226 143.147L94.416 143.105V142.657C94.416 142.032 94.29 141.598 94.038 141.355C93.7953 141.112 93.4453 140.991 92.988 140.991C92.624 140.991 92.274 141.052 91.938 141.173C91.6113 141.285 91.2987 141.416 91 141.565L90.622 140.641C90.9393 140.464 91.308 140.314 91.728 140.193C92.148 140.062 92.5913 139.997 93.058 139.997ZM93.394 144.001C92.5353 144.038 91.938 144.188 91.602 144.449C91.2753 144.71 91.112 145.079 91.112 145.555C91.112 145.975 91.2287 146.283 91.462 146.479C91.6953 146.675 91.9987 146.773 92.372 146.773C92.9507 146.773 93.436 146.6 93.828 146.255C94.22 145.9 94.416 145.359 94.416 144.631V143.959L93.394 144.001ZM99.0115 140.123V143.245H102.764V140.123H103.982V147.627H102.764V144.281H99.0115V147.627H97.7935V140.123H99.0115ZM111.144 141.159H108.834V147.627H107.63V141.159H105.348V140.123H111.144V141.159ZM113.68 144.701C113.68 144.785 113.675 144.906 113.666 145.065C113.666 145.214 113.661 145.378 113.652 145.555C113.642 145.723 113.633 145.886 113.624 146.045C113.614 146.194 113.605 146.316 113.596 146.409L117.348 140.123H118.832V147.627H117.698V143.203C117.698 143.054 117.698 142.858 117.698 142.615C117.707 142.372 117.716 142.134 117.726 141.901C117.735 141.658 117.744 141.476 117.754 141.355L114.044 147.627H112.532V140.123H113.68V144.701ZM126.859 137.015C126.822 137.482 126.71 137.874 126.523 138.191C126.346 138.508 126.075 138.746 125.711 138.905C125.356 139.064 124.894 139.143 124.325 139.143C123.737 139.143 123.266 139.064 122.911 138.905C122.566 138.746 122.309 138.513 122.141 138.205C121.982 137.888 121.884 137.491 121.847 137.015H122.981C123.028 137.519 123.154 137.86 123.359 138.037C123.564 138.205 123.891 138.289 124.339 138.289C124.75 138.289 125.072 138.2 125.305 138.023C125.538 137.836 125.674 137.5 125.711 137.015H126.859ZM122.211 144.701C122.211 144.785 122.206 144.906 122.197 145.065C122.197 145.214 122.192 145.378 122.183 145.555C122.174 145.723 122.164 145.886 122.155 146.045C122.146 146.194 122.136 146.316 122.127 146.409L125.879 140.123H127.363V147.627H126.229V143.203C126.229 143.054 126.229 142.858 126.229 142.615C126.238 142.372 126.248 142.134 126.257 141.901C126.266 141.658 126.276 141.476 126.285 141.355L122.575 147.627H121.063V140.123H122.211V144.701ZM130.812 140.123V143.245H134.564V140.123H135.782V147.627H134.564V144.281H130.812V147.627H129.594V140.123H130.812ZM137.989 147.627V140.123H139.207V143.203H140.971C141.596 143.203 142.109 143.282 142.511 143.441C142.912 143.6 143.211 143.838 143.407 144.155C143.603 144.463 143.701 144.855 143.701 145.331C143.701 145.798 143.603 146.204 143.407 146.549C143.22 146.894 142.921 147.16 142.511 147.347C142.109 147.534 141.582 147.627 140.929 147.627H137.989ZM140.817 146.633C141.311 146.633 141.713 146.544 142.021 146.367C142.329 146.18 142.483 145.858 142.483 145.401C142.483 144.944 142.338 144.636 142.049 144.477C141.769 144.309 141.363 144.225 140.831 144.225H139.207V146.633H140.817ZM144.863 147.627V140.123H146.081V147.627H144.863ZM154.093 137.015C154.056 137.482 153.944 137.874 153.757 138.191C153.58 138.508 153.309 138.746 152.945 138.905C152.591 139.064 152.129 139.143 151.559 139.143C150.971 139.143 150.5 139.064 150.145 138.905C149.8 138.746 149.543 138.513 149.375 138.205C149.217 137.888 149.119 137.491 149.081 137.015H150.215C150.262 137.519 150.388 137.86 150.593 138.037C150.799 138.205 151.125 138.289 151.573 138.289C151.984 138.289 152.306 138.2 152.539 138.023C152.773 137.836 152.908 137.5 152.945 137.015H154.093ZM149.445 144.701C149.445 144.785 149.441 144.906 149.431 145.065C149.431 145.214 149.427 145.378 149.417 145.555C149.408 145.723 149.399 145.886 149.389 146.045C149.38 146.194 149.371 146.316 149.361 146.409L153.113 140.123H154.597V147.627H153.463V143.203C153.463 143.054 153.463 142.858 153.463 142.615C153.473 142.372 153.482 142.134 153.491 141.901C153.501 141.658 153.51 141.476 153.519 141.355L149.809 147.627H148.297V140.123H149.445V144.701ZM163.649 139.983C164.517 139.983 165.212 140.305 165.735 140.949C166.267 141.593 166.533 142.564 166.533 143.861C166.533 144.71 166.411 145.429 166.169 146.017C165.926 146.596 165.585 147.034 165.147 147.333C164.717 147.622 164.213 147.767 163.635 147.767C163.271 147.767 162.949 147.716 162.669 147.613C162.398 147.51 162.165 147.38 161.969 147.221C161.773 147.053 161.605 146.871 161.465 146.675H161.381C161.399 146.834 161.418 147.034 161.437 147.277C161.455 147.52 161.465 147.73 161.465 147.907V150.987H160.247V140.123H161.241L161.409 141.145H161.465C161.605 140.93 161.773 140.734 161.969 140.557C162.165 140.38 162.398 140.24 162.669 140.137C162.949 140.034 163.275 139.983 163.649 139.983ZM163.411 141.019C162.944 141.019 162.566 141.117 162.277 141.313C161.997 141.5 161.791 141.784 161.661 142.167C161.53 142.55 161.465 143.035 161.465 143.623V143.861C161.465 144.477 161.521 145 161.633 145.429C161.754 145.858 161.959 146.185 162.249 146.409C162.538 146.633 162.935 146.745 163.439 146.745C163.859 146.745 164.204 146.619 164.475 146.367C164.745 146.115 164.946 145.774 165.077 145.345C165.207 144.906 165.273 144.407 165.273 143.847C165.273 142.988 165.119 142.302 164.811 141.789C164.512 141.276 164.045 141.019 163.411 141.019ZM171.098 139.983C171.705 139.983 172.227 140.123 172.666 140.403C173.105 140.683 173.441 141.08 173.674 141.593C173.917 142.097 174.038 142.69 174.038 143.371V144.113H169.222C169.241 144.962 169.441 145.611 169.824 146.059C170.207 146.498 170.743 146.717 171.434 146.717C171.882 146.717 172.279 146.675 172.624 146.591C172.979 146.498 173.343 146.367 173.716 146.199V147.277C173.352 147.445 172.993 147.566 172.638 147.641C172.293 147.725 171.873 147.767 171.378 147.767C170.706 147.767 170.113 147.622 169.6 147.333C169.087 147.044 168.685 146.614 168.396 146.045C168.107 145.466 167.962 144.762 167.962 143.931C167.962 143.11 168.093 142.405 168.354 141.817C168.615 141.229 168.979 140.776 169.446 140.459C169.922 140.142 170.473 139.983 171.098 139.983ZM171.098 140.991C170.557 140.991 170.127 141.182 169.81 141.565C169.493 141.938 169.306 142.461 169.25 143.133H172.778C172.778 142.704 172.717 142.33 172.596 142.013C172.475 141.696 172.288 141.448 172.036 141.271C171.793 141.084 171.481 140.991 171.098 140.991ZM183.491 140.123V147.627H182.385V142.839C182.385 142.643 182.39 142.438 182.399 142.223C182.418 142.008 182.437 141.798 182.455 141.593H182.413L180.131 147.627H179.123L176.897 141.593H176.855C176.874 141.798 176.888 142.008 176.897 142.223C176.907 142.438 176.911 142.657 176.911 142.881V147.627H175.805V140.123H177.443L179.627 146.157L181.853 140.123H183.491ZM191.891 143.861C191.891 144.486 191.812 145.042 191.653 145.527C191.504 146.003 191.285 146.409 190.995 146.745C190.706 147.081 190.356 147.338 189.945 147.515C189.535 147.683 189.077 147.767 188.573 147.767C188.107 147.767 187.673 147.683 187.271 147.515C186.879 147.338 186.534 147.081 186.235 146.745C185.946 146.409 185.722 146.003 185.563 145.527C185.405 145.042 185.325 144.486 185.325 143.861C185.325 143.03 185.456 142.33 185.717 141.761C185.988 141.182 186.371 140.744 186.865 140.445C187.36 140.137 187.943 139.983 188.615 139.983C189.259 139.983 189.824 140.137 190.309 140.445C190.804 140.744 191.191 141.182 191.471 141.761C191.751 142.33 191.891 143.03 191.891 143.861ZM186.585 143.861C186.585 144.449 186.655 144.962 186.795 145.401C186.935 145.83 187.155 146.162 187.453 146.395C187.752 146.628 188.135 146.745 188.601 146.745C189.068 146.745 189.451 146.628 189.749 146.395C190.048 146.162 190.267 145.83 190.407 145.401C190.557 144.962 190.631 144.449 190.631 143.861C190.631 143.264 190.557 142.755 190.407 142.335C190.267 141.915 190.048 141.593 189.749 141.369C189.451 141.136 189.063 141.019 188.587 141.019C187.887 141.019 187.379 141.271 187.061 141.775C186.744 142.279 186.585 142.974 186.585 143.861ZM194.92 140.123V143.245H198.672V140.123H199.89V147.627H198.672V144.281H194.92V147.627H193.702V140.123H194.92ZM207.052 141.159H204.742V147.627H203.538V141.159H201.256V140.123H207.052V141.159Z" fill="#090F24"/>
<path d="M6.902 168.969C6.902 169.65 6.69667 170.192 6.286 170.593C5.88467 170.985 5.34333 171.237 4.662 171.349V171.405C5.46467 171.517 6.07133 171.778 6.482 172.189C6.89267 172.6 7.098 173.136 7.098 173.799C7.098 174.387 6.958 174.905 6.678 175.353C6.398 175.792 5.978 176.137 5.418 176.389C4.858 176.641 4.15333 176.767 3.304 176.767C2.78133 176.767 2.282 176.725 1.806 176.641C1.33933 176.566 0.91 176.426 0.518 176.221V175.073C0.788667 175.213 1.078 175.334 1.386 175.437C1.70333 175.53 2.02067 175.605 2.338 175.661C2.66467 175.708 2.97267 175.731 3.262 175.731C4.102 175.731 4.73667 175.563 5.166 175.227C5.59533 174.891 5.81 174.415 5.81 173.799C5.81 173.164 5.55333 172.702 5.04 172.413C4.52667 172.124 3.81733 171.979 2.912 171.979H1.596V170.929H2.842C3.46733 170.929 3.98533 170.854 4.396 170.705C4.80667 170.556 5.11 170.346 5.306 170.075C5.51133 169.795 5.614 169.468 5.614 169.095C5.614 168.591 5.44133 168.204 5.096 167.933C4.75067 167.662 4.298 167.527 3.738 167.527C3.15933 167.527 2.674 167.606 2.282 167.765C1.89 167.924 1.50733 168.129 1.134 168.381L0.546 167.527C0.798 167.331 1.08733 167.158 1.414 167.009C1.74067 166.85 2.1 166.724 2.492 166.631C2.884 166.538 3.30867 166.491 3.766 166.491C4.44733 166.491 5.02133 166.598 5.488 166.813C5.95467 167.028 6.30467 167.322 6.538 167.695C6.78067 168.059 6.902 168.484 6.902 168.969ZM11.601 168.997C12.4596 168.997 13.099 169.198 13.519 169.599C13.9483 170 14.163 170.64 14.163 171.517V176.627H13.281L13.043 175.563H12.987C12.7816 175.834 12.5716 176.062 12.357 176.249C12.1516 176.426 11.909 176.557 11.629 176.641C11.3583 176.725 11.0223 176.767 10.621 176.767C10.201 176.767 9.82297 176.688 9.48697 176.529C9.15097 176.37 8.88497 176.128 8.68897 175.801C8.49297 175.465 8.39497 175.045 8.39497 174.541C8.39497 173.794 8.6703 173.22 9.22097 172.819C9.77164 172.408 10.621 172.184 11.769 172.147L12.959 172.105V171.657C12.959 171.032 12.833 170.598 12.581 170.355C12.3383 170.112 11.9883 169.991 11.531 169.991C11.167 169.991 10.817 170.052 10.481 170.173C10.1543 170.285 9.84164 170.416 9.54297 170.565L9.16497 169.641C9.4823 169.464 9.85097 169.314 10.271 169.193C10.691 169.062 11.1343 168.997 11.601 168.997ZM11.937 173.001C11.0783 173.038 10.481 173.188 10.145 173.449C9.8183 173.71 9.65497 174.079 9.65497 174.555C9.65497 174.975 9.77164 175.283 10.005 175.479C10.2383 175.675 10.5416 175.773 10.915 175.773C11.4936 175.773 11.979 175.6 12.371 175.255C12.763 174.9 12.959 174.359 12.959 173.631V172.959L11.937 173.001ZM25.9825 169.123V175.605H27.0045V179.217H25.8005V176.627H16.3365V169.123H17.5545V175.591H20.5505V169.123H21.7685V175.591H24.7645V169.123H25.9825ZM29.4884 173.701C29.4884 173.785 29.4837 173.906 29.4744 174.065C29.4744 174.214 29.4697 174.378 29.4604 174.555C29.451 174.723 29.4417 174.886 29.4324 175.045C29.423 175.194 29.4137 175.316 29.4044 175.409L33.1564 169.123H34.6404V176.627H33.5064V172.203C33.5064 172.054 33.5064 171.858 33.5064 171.615C33.5157 171.372 33.525 171.134 33.5344 170.901C33.5437 170.658 33.553 170.476 33.5624 170.355L29.8524 176.627H28.3404V169.123H29.4884V173.701ZM41.8276 170.159H39.5176V176.627H38.3136V170.159H36.0316V169.123H41.8276V170.159ZM45.9174 168.997C46.776 168.997 47.4154 169.198 47.8354 169.599C48.2647 170 48.4794 170.64 48.4794 171.517V176.627H47.5974L47.3594 175.563H47.3034C47.098 175.834 46.888 176.062 46.6734 176.249C46.468 176.426 46.2254 176.557 45.9454 176.641C45.6747 176.725 45.3387 176.767 44.9374 176.767C44.5174 176.767 44.1394 176.688 43.8034 176.529C43.4674 176.37 43.2014 176.128 43.0054 175.801C42.8094 175.465 42.7114 175.045 42.7114 174.541C42.7114 173.794 42.9867 173.22 43.5374 172.819C44.088 172.408 44.9374 172.184 46.0854 172.147L47.2754 172.105V171.657C47.2754 171.032 47.1494 170.598 46.8974 170.355C46.6547 170.112 46.3047 169.991 45.8474 169.991C45.4834 169.991 45.1334 170.052 44.7974 170.173C44.4707 170.285 44.158 170.416 43.8594 170.565L43.4814 169.641C43.7987 169.464 44.1674 169.314 44.5874 169.193C45.0074 169.062 45.4507 168.997 45.9174 168.997ZM46.2534 173.001C45.3947 173.038 44.7974 173.188 44.4614 173.449C44.1347 173.71 43.9714 174.079 43.9714 174.555C43.9714 174.975 44.088 175.283 44.3214 175.479C44.5547 175.675 44.858 175.773 45.2314 175.773C45.81 175.773 46.2954 175.6 46.6874 175.255C47.0794 174.9 47.2754 174.359 47.2754 173.631V172.959L46.2534 173.001ZM59.5308 176.627H58.2988V170.145H56.2408C56.1568 171.33 56.0448 172.343 55.9048 173.183C55.7742 174.014 55.6062 174.69 55.4008 175.213C55.2048 175.736 54.9668 176.118 54.6868 176.361C54.4068 176.604 54.0755 176.725 53.6928 176.725C53.5715 176.725 53.4502 176.716 53.3288 176.697C53.2168 176.688 53.1235 176.664 53.0488 176.627V175.703C53.1048 175.722 53.1655 175.736 53.2308 175.745C53.2962 175.754 53.3615 175.759 53.4268 175.759C53.6135 175.759 53.7815 175.675 53.9308 175.507C54.0895 175.339 54.2295 175.082 54.3508 174.737C54.4815 174.392 54.5982 173.958 54.7008 173.435C54.8035 172.903 54.8922 172.278 54.9668 171.559C55.0508 170.84 55.1255 170.028 55.1908 169.123H59.5308V176.627ZM62.8888 173.701C62.8888 173.785 62.8841 173.906 62.8748 174.065C62.8748 174.214 62.8701 174.378 62.8608 174.555C62.8514 174.723 62.8421 174.886 62.8328 175.045C62.8234 175.194 62.8141 175.316 62.8048 175.409L66.5568 169.123H68.0408V176.627H66.9068V172.203C66.9068 172.054 66.9068 171.858 66.9068 171.615C66.9161 171.372 66.9254 171.134 66.9348 170.901C66.9441 170.658 66.9534 170.476 66.9628 170.355L63.2528 176.627H61.7408V169.123H62.8888V173.701ZM71.35 171.853C71.35 172.292 71.462 172.618 71.686 172.833C71.91 173.038 72.2367 173.141 72.666 173.141C73.1047 173.141 73.5013 173.071 73.856 172.931C74.2107 172.782 74.5747 172.586 74.948 172.343V169.123H76.166V176.627H74.948V173.281C74.5653 173.552 74.178 173.766 73.786 173.925C73.4033 174.074 72.9507 174.149 72.428 174.149C71.7 174.149 71.1353 173.948 70.734 173.547C70.3327 173.146 70.132 172.609 70.132 171.937V169.123H71.35V171.853ZM79.5974 169.123V172.245H83.3494V169.123H84.5674V176.627H83.3494V173.281H79.5974V176.627H78.3794V169.123H79.5974ZM86.774 176.627V169.123H87.992V172.203H89.756C90.3813 172.203 90.8946 172.282 91.296 172.441C91.6973 172.6 91.996 172.838 92.192 173.155C92.388 173.463 92.486 173.855 92.486 174.331C92.486 174.798 92.388 175.204 92.192 175.549C92.0053 175.894 91.7066 176.16 91.296 176.347C90.8946 176.534 90.3673 176.627 89.714 176.627H86.774ZM89.602 175.633C90.0966 175.633 90.498 175.544 90.806 175.367C91.114 175.18 91.268 174.858 91.268 174.401C91.268 173.944 91.1233 173.636 90.834 173.477C90.554 173.309 90.148 173.225 89.616 173.225H87.992V175.633H89.602ZM93.648 176.627V169.123H94.866V176.627H93.648ZM98.7486 172.791L96.3126 169.123H97.6986L99.4906 171.951L101.255 169.123H102.641L100.205 172.791L102.767 176.627H101.381L99.4906 173.631L97.5726 176.627H96.2006L98.7486 172.791ZM112.848 169.123V175.591H113.87V179.231H112.708V176.627H107.808V179.231H106.646V175.591H107.22C107.622 174.994 107.953 174.345 108.214 173.645C108.476 172.936 108.672 172.198 108.802 171.433C108.942 170.658 109.017 169.888 109.026 169.123H112.848ZM110.104 170.089C110.067 170.724 109.974 171.382 109.824 172.063C109.684 172.735 109.498 173.379 109.264 173.995C109.04 174.611 108.779 175.143 108.48 175.591H111.658V170.089H110.104ZM117.927 168.997C118.786 168.997 119.425 169.198 119.845 169.599C120.274 170 120.489 170.64 120.489 171.517V176.627H119.607L119.369 175.563H119.313C119.108 175.834 118.898 176.062 118.683 176.249C118.478 176.426 118.235 176.557 117.955 176.641C117.684 176.725 117.348 176.767 116.947 176.767C116.527 176.767 116.149 176.688 115.813 176.529C115.477 176.37 115.211 176.128 115.015 175.801C114.819 175.465 114.721 175.045 114.721 174.541C114.721 173.794 114.996 173.22 115.547 172.819C116.098 172.408 116.947 172.184 118.095 172.147L119.285 172.105V171.657C119.285 171.032 119.159 170.598 118.907 170.355C118.664 170.112 118.314 169.991 117.857 169.991C117.493 169.991 117.143 170.052 116.807 170.173C116.48 170.285 116.168 170.416 115.869 170.565L115.491 169.641C115.808 169.464 116.177 169.314 116.597 169.193C117.017 169.062 117.46 168.997 117.927 168.997ZM118.263 173.001C117.404 173.038 116.807 173.188 116.471 173.449C116.144 173.71 115.981 174.079 115.981 174.555C115.981 174.975 116.098 175.283 116.331 175.479C116.564 175.675 116.868 175.773 117.241 175.773C117.82 175.773 118.305 175.6 118.697 175.255C119.089 174.9 119.285 174.359 119.285 173.631V172.959L118.263 173.001ZM123.881 169.123V172.245H127.633V169.123H128.851V176.627H127.633V173.281H123.881V176.627H122.663V169.123H123.881ZM132.275 169.123V172.245H136.027V169.123H137.245V176.627H136.027V173.281H132.275V176.627H131.057V169.123H132.275ZM139.452 176.627V169.123H140.67V172.203H142.434C143.059 172.203 143.572 172.282 143.974 172.441C144.375 172.6 144.674 172.838 144.87 173.155C145.066 173.463 145.164 173.855 145.164 174.331C145.164 174.798 145.066 175.204 144.87 175.549C144.683 175.894 144.384 176.16 143.974 176.347C143.572 176.534 143.045 176.627 142.392 176.627H139.452ZM142.28 175.633C142.774 175.633 143.176 175.544 143.484 175.367C143.792 175.18 143.946 174.858 143.946 174.401C143.946 173.944 143.801 173.636 143.512 173.477C143.232 173.309 142.826 173.225 142.294 173.225H140.67V175.633H142.28ZM146.326 176.627V169.123H147.544V176.627H146.326ZM151.426 172.791L148.99 169.123H150.376L152.168 171.951L153.932 169.123H155.318L152.882 172.791L155.444 176.627H154.058L152.168 173.631L150.25 176.627H148.878L151.426 172.791Z" fill="#090F24"/>
<path d="M1.274 205.627V195.631H6.888V196.737H2.52V199.859H3.864C4.80667 199.859 5.53467 199.985 6.048 200.237C6.57067 200.48 6.93467 200.816 7.14 201.245C7.35467 201.665 7.462 202.15 7.462 202.701C7.462 203.308 7.34533 203.83 7.112 204.269C6.888 204.708 6.524 205.044 6.02 205.277C5.516 205.51 4.84867 205.627 4.018 205.627H1.274ZM3.906 204.549C4.73667 204.549 5.32 204.4 5.656 204.101C6.00133 203.793 6.174 203.326 6.174 202.701C6.174 202.272 6.09 201.931 5.922 201.679C5.76333 201.418 5.502 201.231 5.138 201.119C4.774 201.007 4.298 200.951 3.71 200.951H2.52V204.549H3.906ZM12.6428 197.983C13.5108 197.983 14.2061 198.305 14.7288 198.949C15.2608 199.593 15.5268 200.564 15.5268 201.861C15.5268 202.71 15.4054 203.429 15.1628 204.017C14.9201 204.596 14.5794 205.034 14.1408 205.333C13.7114 205.622 13.2074 205.767 12.6288 205.767C12.2648 205.767 11.9428 205.716 11.6628 205.613C11.3921 205.51 11.1588 205.38 10.9628 205.221C10.7668 205.053 10.5988 204.871 10.4588 204.675H10.3748C10.3934 204.834 10.4121 205.034 10.4308 205.277C10.4494 205.52 10.4588 205.73 10.4588 205.907V208.987H9.24077V198.123H10.2348L10.4028 199.145H10.4588C10.5988 198.93 10.7668 198.734 10.9628 198.557C11.1588 198.38 11.3921 198.24 11.6628 198.137C11.9428 198.034 12.2694 197.983 12.6428 197.983ZM12.4048 199.019C11.9381 199.019 11.5601 199.117 11.2708 199.313C10.9908 199.5 10.7854 199.784 10.6548 200.167C10.5241 200.55 10.4588 201.035 10.4588 201.623V201.861C10.4588 202.477 10.5148 203 10.6268 203.429C10.7481 203.858 10.9534 204.185 11.2428 204.409C11.5321 204.633 11.9288 204.745 12.4328 204.745C12.8528 204.745 13.1981 204.619 13.4688 204.367C13.7394 204.115 13.9401 203.774 14.0708 203.345C14.2014 202.906 14.2668 202.407 14.2668 201.847C14.2668 200.988 14.1128 200.302 13.8048 199.789C13.5061 199.276 13.0394 199.019 12.4048 199.019ZM20.0922 197.983C20.6989 197.983 21.2215 198.123 21.6602 198.403C22.0989 198.683 22.4349 199.08 22.6682 199.593C22.9109 200.097 23.0322 200.69 23.0322 201.371V202.113H18.2162C18.2349 202.962 18.4355 203.611 18.8182 204.059C19.2009 204.498 19.7375 204.717 20.4282 204.717C20.8762 204.717 21.2729 204.675 21.6182 204.591C21.9729 204.498 22.3369 204.367 22.7102 204.199V205.277C22.3462 205.445 21.9869 205.566 21.6322 205.641C21.2869 205.725 20.8669 205.767 20.3722 205.767C19.7002 205.767 19.1075 205.622 18.5942 205.333C18.0809 205.044 17.6795 204.614 17.3902 204.045C17.1009 203.466 16.9562 202.762 16.9562 201.931C16.9562 201.11 17.0869 200.405 17.3482 199.817C17.6095 199.229 17.9735 198.776 18.4402 198.459C18.9162 198.142 19.4669 197.983 20.0922 197.983ZM20.0922 198.991C19.5509 198.991 19.1215 199.182 18.8042 199.565C18.4869 199.938 18.3002 200.461 18.2442 201.133H21.7722C21.7722 200.704 21.7115 200.33 21.5902 200.013C21.4689 199.696 21.2822 199.448 21.0302 199.271C20.7875 199.084 20.4749 198.991 20.0922 198.991ZM26.0174 198.123V201.245H29.7694V198.123H30.9874V205.627H29.7694V202.281H26.0174V205.627H24.7994V198.123H26.0174ZM38.5279 198.123V204.591H39.5499V208.231H38.3879V205.627H33.4879V208.231H32.3259V204.591H32.8999C33.3012 203.994 33.6326 203.345 33.8939 202.645C34.1552 201.936 34.3512 201.198 34.4819 200.433C34.6219 199.658 34.6966 198.888 34.7059 198.123H38.5279ZM35.7839 199.089C35.7466 199.724 35.6532 200.382 35.5039 201.063C35.3639 201.735 35.1772 202.379 34.9439 202.995C34.7199 203.611 34.4586 204.143 34.1599 204.591H37.3379V199.089H35.7839ZM40.9048 205.627V198.123H42.1228V201.203H43.8868C44.5122 201.203 45.0255 201.282 45.4268 201.441C45.8282 201.6 46.1268 201.838 46.3228 202.155C46.5188 202.463 46.6168 202.855 46.6168 203.331C46.6168 203.798 46.5188 204.204 46.3228 204.549C46.1362 204.894 45.8375 205.16 45.4268 205.347C45.0255 205.534 44.4982 205.627 43.8448 205.627H40.9048ZM43.7328 204.633C44.2275 204.633 44.6288 204.544 44.9368 204.367C45.2448 204.18 45.3988 203.858 45.3988 203.401C45.3988 202.944 45.2542 202.636 44.9648 202.477C44.6848 202.309 44.2788 202.225 43.7468 202.225H42.1228V204.633H43.7328ZM47.7788 205.627V198.123H48.9968V205.627H47.7788Z" fill="#090F24"/>
<path d="M251.274 60.627V50.631H258.358V60.627H257.126V51.737H252.52V60.627H251.274ZM264.16 52.983C265.028 52.983 265.724 53.305 266.246 53.949C266.778 54.593 267.044 55.5636 267.044 56.861C267.044 57.7103 266.923 58.429 266.68 59.017C266.438 59.5956 266.097 60.0343 265.658 60.333C265.229 60.6223 264.725 60.767 264.146 60.767C263.782 60.767 263.46 60.7156 263.18 60.613C262.91 60.5103 262.676 60.3796 262.48 60.221C262.284 60.053 262.116 59.871 261.976 59.675H261.892C261.911 59.8336 261.93 60.0343 261.948 60.277C261.967 60.5196 261.976 60.7296 261.976 60.907V63.987H260.758V53.123H261.752L261.92 54.145H261.976C262.116 53.9303 262.284 53.7343 262.48 53.557C262.676 53.3796 262.91 53.2396 263.18 53.137C263.46 53.0343 263.787 52.983 264.16 52.983ZM263.922 54.019C263.456 54.019 263.078 54.117 262.788 54.313C262.508 54.4996 262.303 54.7843 262.172 55.167C262.042 55.5496 261.976 56.035 261.976 56.623V56.861C261.976 57.477 262.032 57.9996 262.144 58.429C262.266 58.8583 262.471 59.185 262.76 59.409C263.05 59.633 263.446 59.745 263.95 59.745C264.37 59.745 264.716 59.619 264.986 59.367C265.257 59.115 265.458 58.7743 265.588 58.345C265.719 57.9063 265.784 57.407 265.784 56.847C265.784 55.9883 265.63 55.3023 265.322 54.789C265.024 54.2756 264.557 54.019 263.922 54.019ZM271.568 52.997C272.426 52.997 273.066 53.1976 273.486 53.599C273.915 54.0003 274.13 54.6396 274.13 55.517V60.627H273.248L273.01 59.563H272.954C272.748 59.8336 272.538 60.0623 272.324 60.249C272.118 60.4263 271.876 60.557 271.596 60.641C271.325 60.725 270.989 60.767 270.588 60.767C270.168 60.767 269.79 60.6876 269.454 60.529C269.118 60.3703 268.852 60.1276 268.656 59.801C268.46 59.465 268.362 59.045 268.362 58.541C268.362 57.7943 268.637 57.2203 269.188 56.819C269.738 56.4083 270.588 56.1843 271.736 56.147L272.926 56.105V55.657C272.926 55.0316 272.8 54.5976 272.548 54.355C272.305 54.1123 271.955 53.991 271.498 53.991C271.134 53.991 270.784 54.0516 270.448 54.173C270.121 54.285 269.808 54.4156 269.51 54.565L269.132 53.641C269.449 53.4636 269.818 53.3143 270.238 53.193C270.658 53.0623 271.101 52.997 271.568 52.997ZM271.904 57.001C271.045 57.0383 270.448 57.1876 270.112 57.449C269.785 57.7103 269.622 58.079 269.622 58.555C269.622 58.975 269.738 59.283 269.972 59.479C270.205 59.675 270.508 59.773 270.882 59.773C271.46 59.773 271.946 59.6003 272.338 59.255C272.73 58.9003 272.926 58.359 272.926 57.631V56.959L271.904 57.001ZM282.029 55.013C282.029 55.4796 281.899 55.8436 281.637 56.105C281.376 56.3663 281.035 56.5436 280.615 56.637V56.693C281.054 56.7583 281.437 56.9263 281.763 57.197C282.09 57.4583 282.253 57.869 282.253 58.429C282.253 58.7463 282.197 59.0403 282.085 59.311C281.983 59.5816 281.815 59.815 281.581 60.011C281.348 60.207 281.049 60.361 280.685 60.473C280.321 60.5756 279.883 60.627 279.369 60.627H276.303V53.123H279.355C279.869 53.123 280.326 53.1836 280.727 53.305C281.129 53.417 281.446 53.613 281.679 53.893C281.913 54.1636 282.029 54.537 282.029 55.013ZM280.993 58.429C280.993 57.9996 280.839 57.6916 280.531 57.505C280.233 57.3183 279.794 57.225 279.215 57.225H277.521V59.633H279.243C279.803 59.633 280.233 59.5443 280.531 59.367C280.839 59.1803 280.993 58.8676 280.993 58.429ZM280.797 55.167C280.797 54.8123 280.676 54.5556 280.433 54.397C280.2 54.229 279.822 54.145 279.299 54.145H277.521V56.203H279.075C279.645 56.203 280.074 56.119 280.363 55.951C280.653 55.783 280.797 55.5216 280.797 55.167ZM285.08 57.701C285.08 57.785 285.075 57.9063 285.066 58.065C285.066 58.2143 285.061 58.3776 285.052 58.555C285.043 58.723 285.033 58.8863 285.024 59.045C285.015 59.1943 285.005 59.3156 284.996 59.409L288.748 53.123H290.232V60.627H289.098V56.203C289.098 56.0536 289.098 55.8576 289.098 55.615C289.107 55.3723 289.117 55.1343 289.126 54.901C289.135 54.6583 289.145 54.4763 289.154 54.355L285.444 60.627H283.932V53.123H285.08V57.701ZM297.923 60.627H296.691V54.145H294.633C294.549 55.3303 294.437 56.343 294.297 57.183C294.167 58.0136 293.999 58.6903 293.793 59.213C293.597 59.7356 293.359 60.1183 293.079 60.361C292.799 60.6036 292.468 60.725 292.085 60.725C291.964 60.725 291.843 60.7156 291.721 60.697C291.609 60.6876 291.516 60.6643 291.441 60.627V59.703C291.497 59.7216 291.558 59.7356 291.623 59.745C291.689 59.7543 291.754 59.759 291.819 59.759C292.006 59.759 292.174 59.675 292.323 59.507C292.482 59.339 292.622 59.0823 292.743 58.737C292.874 58.3916 292.991 57.9576 293.093 57.435C293.196 56.903 293.285 56.2776 293.359 55.559C293.443 54.8403 293.518 54.0283 293.583 53.123H297.923V60.627ZM302.835 52.997C303.694 52.997 304.333 53.1976 304.753 53.599C305.183 54.0003 305.397 54.6396 305.397 55.517V60.627H304.515L304.277 59.563H304.221C304.016 59.8336 303.806 60.0623 303.591 60.249C303.386 60.4263 303.143 60.557 302.863 60.641C302.593 60.725 302.257 60.767 301.855 60.767C301.435 60.767 301.057 60.6876 300.721 60.529C300.385 60.3703 300.119 60.1276 299.923 59.801C299.727 59.465 299.629 59.045 299.629 58.541C299.629 57.7943 299.905 57.2203 300.455 56.819C301.006 56.4083 301.855 56.1843 303.003 56.147L304.193 56.105V55.657C304.193 55.0316 304.067 54.5976 303.815 54.355C303.573 54.1123 303.223 53.991 302.765 53.991C302.401 53.991 302.051 54.0516 301.715 54.173C301.389 54.285 301.076 54.4156 300.777 54.565L300.399 53.641C300.717 53.4636 301.085 53.3143 301.505 53.193C301.925 53.0623 302.369 52.997 302.835 52.997ZM303.171 57.001C302.313 57.0383 301.715 57.1876 301.379 57.449C301.053 57.7103 300.889 58.079 300.889 58.555C300.889 58.975 301.006 59.283 301.239 59.479C301.473 59.675 301.776 59.773 302.149 59.773C302.728 59.773 303.213 59.6003 303.605 59.255C303.997 58.9003 304.193 58.359 304.193 57.631V56.959L303.171 57.001ZM316.995 53.123V60.627H315.777V54.173H312.207V60.627H310.989V53.123H316.995ZM325.393 56.861C325.393 57.4863 325.314 58.0416 325.155 58.527C325.006 59.003 324.787 59.409 324.497 59.745C324.208 60.081 323.858 60.3376 323.447 60.515C323.037 60.683 322.579 60.767 322.075 60.767C321.609 60.767 321.175 60.683 320.773 60.515C320.381 60.3376 320.036 60.081 319.737 59.745C319.448 59.409 319.224 59.003 319.065 58.527C318.907 58.0416 318.827 57.4863 318.827 56.861C318.827 56.0303 318.958 55.3303 319.219 54.761C319.49 54.1823 319.873 53.7436 320.367 53.445C320.862 53.137 321.445 52.983 322.117 52.983C322.761 52.983 323.326 53.137 323.811 53.445C324.306 53.7436 324.693 54.1823 324.973 54.761C325.253 55.3303 325.393 56.0303 325.393 56.861ZM320.087 56.861C320.087 57.449 320.157 57.9623 320.297 58.401C320.437 58.8303 320.657 59.1616 320.955 59.395C321.254 59.6283 321.637 59.745 322.103 59.745C322.57 59.745 322.953 59.6283 323.251 59.395C323.55 59.1616 323.769 58.8303 323.909 58.401C324.059 57.9623 324.133 57.449 324.133 56.861C324.133 56.2636 324.059 55.755 323.909 55.335C323.769 54.915 323.55 54.593 323.251 54.369C322.953 54.1356 322.565 54.019 322.089 54.019C321.389 54.019 320.881 54.271 320.563 54.775C320.246 55.279 320.087 55.9743 320.087 56.861ZM331.418 53.123H332.748L329.752 56.735L333 60.627H331.586L328.422 56.819V60.627H327.204V53.123H328.422V56.763L331.418 53.123ZM333.153 53.123H334.469L335.967 57.393C336.06 57.645 336.144 57.8876 336.219 58.121C336.293 58.3543 336.359 58.583 336.415 58.807C336.471 59.0216 336.513 59.2316 336.541 59.437H336.583C336.639 59.2036 336.718 58.9003 336.821 58.527C336.933 58.1443 337.049 57.7616 337.171 57.379L338.585 53.123H339.915L336.877 61.663C336.709 62.1296 336.508 62.5356 336.275 62.881C336.051 63.2356 335.775 63.5063 335.449 63.693C335.122 63.889 334.73 63.987 334.273 63.987C334.067 63.987 333.881 63.973 333.713 63.945C333.554 63.9263 333.419 63.903 333.307 63.875V62.895C333.4 62.9136 333.517 62.9323 333.657 62.951C333.797 62.9696 333.941 62.979 334.091 62.979C334.361 62.979 334.595 62.923 334.791 62.811C334.987 62.7083 335.155 62.5543 335.295 62.349C335.435 62.153 335.551 61.9196 335.645 61.649L335.995 60.655L333.153 53.123ZM347.032 53.123V60.627H345.814V54.173H342.244V60.627H341.026V53.123H347.032ZM353.47 53.123H354.8L351.804 56.735L355.052 60.627H353.638L350.474 56.819V60.627H349.256V53.123H350.474V56.763L353.47 53.123ZM357.445 57.701C357.445 57.785 357.441 57.9063 357.431 58.065C357.431 58.2143 357.427 58.3776 357.417 58.555C357.408 58.723 357.399 58.8863 357.389 59.045C357.38 59.1943 357.371 59.3156 357.361 59.409L361.113 53.123H362.597V60.627H361.463V56.203C361.463 56.0536 361.463 55.8576 361.463 55.615C361.473 55.3723 361.482 55.1343 361.491 54.901C361.501 54.6583 361.51 54.4763 361.519 54.355L357.809 60.627H356.297V53.123H357.445V57.701Z" fill="#090F24"/>
<path d="M259.492 84.615C259.492 85.3896 259.399 86.0943 259.212 86.729C259.025 87.3543 258.75 87.8956 258.386 88.353C258.022 88.8103 257.569 89.1603 257.028 89.403C256.487 89.6456 255.861 89.767 255.152 89.767C254.415 89.767 253.771 89.6456 253.22 89.403C252.679 89.151 252.226 88.801 251.862 88.353C251.507 87.8956 251.241 87.3496 251.064 86.715C250.887 86.0803 250.798 85.3756 250.798 84.601C250.798 83.5743 250.957 82.6783 251.274 81.913C251.591 81.1476 252.072 80.5503 252.716 80.121C253.369 79.6916 254.186 79.477 255.166 79.477C256.109 79.477 256.902 79.6916 257.546 80.121C258.19 80.541 258.675 81.1383 259.002 81.913C259.329 82.6783 259.492 83.579 259.492 84.615ZM252.114 84.615C252.114 85.455 252.221 86.1783 252.436 86.785C252.651 87.3916 252.982 87.8583 253.43 88.185C253.887 88.5116 254.461 88.675 255.152 88.675C255.852 88.675 256.426 88.5116 256.874 88.185C257.322 87.8583 257.649 87.3916 257.854 86.785C258.069 86.1783 258.176 85.455 258.176 84.615C258.176 83.355 257.933 82.3703 257.448 81.661C256.972 80.9423 256.211 80.583 255.166 80.583C254.466 80.583 253.887 80.7463 253.43 81.073C252.982 81.3903 252.651 81.8523 252.436 82.459C252.221 83.0563 252.114 83.775 252.114 84.615ZM266.357 83.159H264.047V89.627H262.843V83.159H260.561V82.123H266.357V83.159ZM269.663 81.983C270.195 81.983 270.657 82.0623 271.049 82.221C271.45 82.3703 271.763 82.5943 271.987 82.893C272.211 83.1823 272.323 83.537 272.323 83.957C272.323 84.4143 272.201 84.7783 271.959 85.049C271.725 85.3103 271.403 85.5016 270.993 85.623V85.679C271.273 85.763 271.529 85.8796 271.763 86.029C272.005 86.1783 272.197 86.3743 272.337 86.617C272.486 86.8596 272.561 87.1723 272.561 87.555C272.561 87.9656 272.453 88.339 272.239 88.675C272.024 89.011 271.688 89.277 271.231 89.473C270.783 89.669 270.209 89.767 269.509 89.767C269.173 89.767 268.851 89.7483 268.543 89.711C268.244 89.6736 267.969 89.6176 267.717 89.543C267.474 89.4683 267.259 89.3796 267.073 89.277V88.171C267.371 88.3203 267.726 88.4556 268.137 88.577C268.547 88.6983 268.995 88.759 269.481 88.759C269.835 88.759 270.153 88.717 270.433 88.633C270.713 88.549 270.937 88.4183 271.105 88.241C271.273 88.0543 271.357 87.8023 271.357 87.485C271.357 87.1956 271.282 86.9623 271.133 86.785C270.983 86.5983 270.759 86.4583 270.461 86.365C270.171 86.2716 269.798 86.225 269.341 86.225H268.417V85.217H269.173C269.779 85.217 270.265 85.133 270.629 84.965C270.993 84.7876 271.175 84.489 271.175 84.069C271.175 83.7143 271.035 83.4483 270.755 83.271C270.484 83.0936 270.092 83.005 269.579 83.005C269.196 83.005 268.851 83.047 268.543 83.131C268.244 83.2056 267.922 83.3223 267.577 83.481L267.143 82.501C267.525 82.3236 267.927 82.193 268.347 82.109C268.767 82.025 269.205 81.983 269.663 81.983ZM274.252 89.627V82.123H275.47V85.203H277.234C277.86 85.203 278.373 85.2823 278.774 85.441C279.176 85.5996 279.474 85.8376 279.67 86.155C279.866 86.463 279.964 86.855 279.964 87.331C279.964 87.7976 279.866 88.2036 279.67 88.549C279.484 88.8943 279.185 89.1603 278.774 89.347C278.373 89.5336 277.846 89.627 277.192 89.627H274.252ZM277.08 88.633C277.575 88.633 277.976 88.5443 278.284 88.367C278.592 88.1803 278.746 87.8583 278.746 87.401C278.746 86.9436 278.602 86.6356 278.312 86.477C278.032 86.309 277.626 86.225 277.094 86.225H275.47V88.633H277.08ZM281.126 89.627V82.123H282.344V89.627H281.126ZM290.287 84.013C290.287 84.4796 290.156 84.8436 289.895 85.105C289.634 85.3663 289.293 85.5436 288.873 85.637V85.693C289.312 85.7583 289.694 85.9263 290.021 86.197C290.348 86.4583 290.511 86.869 290.511 87.429C290.511 87.7463 290.455 88.0403 290.343 88.311C290.24 88.5816 290.072 88.815 289.839 89.011C289.606 89.207 289.307 89.361 288.943 89.473C288.579 89.5756 288.14 89.627 287.627 89.627H284.561V82.123H287.613C288.126 82.123 288.584 82.1836 288.985 82.305C289.386 82.417 289.704 82.613 289.937 82.893C290.17 83.1636 290.287 83.537 290.287 84.013ZM289.251 87.429C289.251 86.9996 289.097 86.6916 288.789 86.505C288.49 86.3183 288.052 86.225 287.473 86.225H285.779V88.633H287.501C288.061 88.633 288.49 88.5443 288.789 88.367C289.097 88.1803 289.251 87.8676 289.251 87.429ZM289.055 84.167C289.055 83.8123 288.934 83.5556 288.691 83.397C288.458 83.229 288.08 83.145 287.557 83.145H285.779V85.203H287.333C287.902 85.203 288.332 85.119 288.621 84.951C288.91 84.783 289.055 84.5216 289.055 84.167ZM292.19 89.627V82.123H293.408V85.203H295.172C295.797 85.203 296.311 85.2823 296.712 85.441C297.113 85.5996 297.412 85.8376 297.608 86.155C297.804 86.463 297.902 86.855 297.902 87.331C297.902 87.7976 297.804 88.2036 297.608 88.549C297.421 88.8943 297.123 89.1603 296.712 89.347C296.311 89.5336 295.783 89.627 295.13 89.627H292.19ZM295.018 88.633C295.513 88.633 295.914 88.5443 296.222 88.367C296.53 88.1803 296.684 87.8583 296.684 87.401C296.684 86.9436 296.539 86.6356 296.25 86.477C295.97 86.309 295.564 86.225 295.032 86.225H293.408V88.633H295.018ZM299.064 89.627V82.123H300.282V89.627H299.064Z" fill="#090F24"/>
<path d="M252.52 118.627H251.274V108.631H256.538V109.737H252.52V113.279H256.286V114.385H252.52V118.627ZM263.757 118.627L262.665 115.533H258.955L257.877 118.627H256.603L260.243 108.589H261.419L265.045 118.627H263.757ZM261.265 111.389C261.247 111.314 261.205 111.179 261.139 110.983C261.083 110.787 261.023 110.586 260.957 110.381C260.901 110.166 260.855 110.003 260.817 109.891C260.771 110.078 260.719 110.269 260.663 110.465C260.617 110.652 260.57 110.824 260.523 110.983C260.477 111.142 260.435 111.277 260.397 111.389L259.361 114.413H262.301L261.265 111.389ZM274.285 113.615C274.285 114.427 274.182 115.164 273.977 115.827C273.772 116.49 273.468 117.05 273.067 117.507C272.675 117.964 272.18 118.3 271.583 118.515L273.837 121.007H272.073L270.253 118.753C270.206 118.753 270.155 118.753 270.099 118.753C270.043 118.762 269.992 118.767 269.945 118.767C269.208 118.767 268.564 118.646 268.013 118.403C267.472 118.151 267.019 117.801 266.655 117.353C266.3 116.896 266.034 116.35 265.857 115.715C265.68 115.08 265.591 114.376 265.591 113.601C265.591 112.574 265.75 111.678 266.067 110.913C266.384 110.148 266.865 109.55 267.509 109.121C268.162 108.692 268.979 108.477 269.959 108.477C270.902 108.477 271.695 108.692 272.339 109.121C272.983 109.541 273.468 110.138 273.795 110.913C274.122 111.678 274.285 112.579 274.285 113.615ZM266.907 113.615C266.907 114.455 267.014 115.178 267.229 115.785C267.444 116.392 267.775 116.858 268.223 117.185C268.68 117.512 269.254 117.675 269.945 117.675C270.645 117.675 271.219 117.512 271.667 117.185C272.115 116.858 272.442 116.392 272.647 115.785C272.862 115.178 272.969 114.455 272.969 113.615C272.969 112.355 272.726 111.37 272.241 110.661C271.765 109.942 271.004 109.583 269.959 109.583C269.259 109.583 268.68 109.746 268.223 110.073C267.775 110.39 267.444 110.852 267.229 111.459C267.014 112.056 266.907 112.775 266.907 113.615Z" fill="#090F24"/>
<path d="M251.274 147.627V137.631H256.888V138.737H252.52V141.859H253.864C254.807 141.859 255.535 141.985 256.048 142.237C256.571 142.48 256.935 142.816 257.14 143.245C257.355 143.665 257.462 144.15 257.462 144.701C257.462 145.308 257.345 145.83 257.112 146.269C256.888 146.708 256.524 147.044 256.02 147.277C255.516 147.51 254.849 147.627 254.018 147.627H251.274ZM253.906 146.549C254.737 146.549 255.32 146.4 255.656 146.101C256.001 145.793 256.174 145.326 256.174 144.701C256.174 144.272 256.09 143.931 255.922 143.679C255.763 143.418 255.502 143.231 255.138 143.119C254.774 143.007 254.298 142.951 253.71 142.951H252.52V146.549H253.906ZM264.701 147.627H263.469V141.145H261.411C261.327 142.33 261.215 143.343 261.075 144.183C260.944 145.014 260.776 145.69 260.571 146.213C260.375 146.736 260.137 147.118 259.857 147.361C259.577 147.604 259.245 147.725 258.863 147.725C258.741 147.725 258.62 147.716 258.499 147.697C258.387 147.688 258.293 147.664 258.219 147.627V146.703C258.275 146.722 258.335 146.736 258.401 146.745C258.466 146.754 258.531 146.759 258.597 146.759C258.783 146.759 258.951 146.675 259.101 146.507C259.259 146.339 259.399 146.082 259.521 145.737C259.651 145.392 259.768 144.958 259.871 144.435C259.973 143.903 260.062 143.278 260.137 142.559C260.221 141.84 260.295 141.028 260.361 140.123H264.701V147.627ZM273.085 143.861C273.085 144.486 273.005 145.042 272.847 145.527C272.697 146.003 272.478 146.409 272.189 146.745C271.899 147.081 271.549 147.338 271.139 147.515C270.728 147.683 270.271 147.767 269.767 147.767C269.3 147.767 268.866 147.683 268.465 147.515C268.073 147.338 267.727 147.081 267.429 146.745C267.139 146.409 266.915 146.003 266.757 145.527C266.598 145.042 266.519 144.486 266.519 143.861C266.519 143.03 266.649 142.33 266.911 141.761C267.181 141.182 267.564 140.744 268.059 140.445C268.553 140.137 269.137 139.983 269.809 139.983C270.453 139.983 271.017 140.137 271.503 140.445C271.997 140.744 272.385 141.182 272.665 141.761C272.945 142.33 273.085 143.03 273.085 143.861ZM267.779 143.861C267.779 144.449 267.849 144.962 267.989 145.401C268.129 145.83 268.348 146.162 268.647 146.395C268.945 146.628 269.328 146.745 269.795 146.745C270.261 146.745 270.644 146.628 270.943 146.395C271.241 146.162 271.461 145.83 271.601 145.401C271.75 144.962 271.825 144.449 271.825 143.861C271.825 143.264 271.75 142.755 271.601 142.335C271.461 141.915 271.241 141.593 270.943 141.369C270.644 141.136 270.257 141.019 269.781 141.019C269.081 141.019 268.572 141.271 268.255 141.775C267.937 142.279 267.779 142.974 267.779 143.861ZM279.249 140.123V141.159H276.113V147.627H274.895V140.123H279.249Z" fill="#090F24"/>
<path d="M258.19 176.627H256.706L252.52 171.559V176.627H251.274V166.631H252.52V171.475L256.608 166.631H258.008L253.976 171.489L258.19 176.627ZM265.469 172.861C265.469 173.486 265.39 174.042 265.231 174.527C265.082 175.003 264.863 175.409 264.573 175.745C264.284 176.081 263.934 176.338 263.523 176.515C263.113 176.683 262.655 176.767 262.151 176.767C261.685 176.767 261.251 176.683 260.849 176.515C260.457 176.338 260.112 176.081 259.813 175.745C259.524 175.409 259.3 175.003 259.141 174.527C258.983 174.042 258.903 173.486 258.903 172.861C258.903 172.03 259.034 171.33 259.295 170.761C259.566 170.182 259.949 169.744 260.443 169.445C260.938 169.137 261.521 168.983 262.193 168.983C262.837 168.983 263.402 169.137 263.887 169.445C264.382 169.744 264.769 170.182 265.049 170.761C265.329 171.33 265.469 172.03 265.469 172.861ZM260.163 172.861C260.163 173.449 260.233 173.962 260.373 174.401C260.513 174.83 260.733 175.162 261.031 175.395C261.33 175.628 261.713 175.745 262.179 175.745C262.646 175.745 263.029 175.628 263.327 175.395C263.626 175.162 263.845 174.83 263.985 174.401C264.135 173.962 264.209 173.449 264.209 172.861C264.209 172.264 264.135 171.755 263.985 171.335C263.845 170.915 263.626 170.593 263.327 170.369C263.029 170.136 262.641 170.019 262.165 170.019C261.465 170.019 260.957 170.271 260.639 170.775C260.322 171.279 260.163 171.974 260.163 172.861ZM268.498 169.123V172.245H272.25V169.123H273.468V176.627H272.25V173.281H268.498V176.627H267.28V169.123H268.498ZM280.63 170.159H278.32V176.627H277.116V170.159H274.834V169.123H280.63V170.159ZM284.72 168.997C285.579 168.997 286.218 169.198 286.638 169.599C287.067 170 287.282 170.64 287.282 171.517V176.627H286.4L286.162 175.563H286.106C285.901 175.834 285.691 176.062 285.476 176.249C285.271 176.426 285.028 176.557 284.748 176.641C284.477 176.725 284.141 176.767 283.74 176.767C283.32 176.767 282.942 176.688 282.606 176.529C282.27 176.37 282.004 176.128 281.808 175.801C281.612 175.465 281.514 175.045 281.514 174.541C281.514 173.794 281.789 173.22 282.34 172.819C282.891 172.408 283.74 172.184 284.888 172.147L286.078 172.105V171.657C286.078 171.032 285.952 170.598 285.7 170.355C285.457 170.112 285.107 169.991 284.65 169.991C284.286 169.991 283.936 170.052 283.6 170.173C283.273 170.285 282.961 170.416 282.662 170.565L282.284 169.641C282.601 169.464 282.97 169.314 283.39 169.193C283.81 169.062 284.253 168.997 284.72 168.997ZM285.056 173.001C284.197 173.038 283.6 173.188 283.264 173.449C282.937 173.71 282.774 174.079 282.774 174.555C282.774 174.975 282.891 175.283 283.124 175.479C283.357 175.675 283.661 175.773 284.034 175.773C284.613 175.773 285.098 175.6 285.49 175.255C285.882 174.9 286.078 174.359 286.078 173.631V172.959L285.056 173.001ZM293.67 169.123H295L292.004 172.735L295.252 176.627H293.838L290.674 172.819V176.627H289.456V169.123H290.674V172.763L293.67 169.123ZM301.453 170.159H299.143V176.627H297.939V170.159H295.657V169.123H301.453V170.159ZM302.84 176.627V169.123H304.058V172.203H305.822C306.448 172.203 306.961 172.282 307.362 172.441C307.764 172.6 308.062 172.838 308.258 173.155C308.454 173.463 308.552 173.855 308.552 174.331C308.552 174.798 308.454 175.204 308.258 175.549C308.072 175.894 307.773 176.16 307.362 176.347C306.961 176.534 306.434 176.627 305.78 176.627H302.84ZM305.668 175.633C306.163 175.633 306.564 175.544 306.872 175.367C307.18 175.18 307.334 174.858 307.334 174.401C307.334 173.944 307.19 173.636 306.9 173.477C306.62 173.309 306.214 173.225 305.682 173.225H304.058V175.633H305.668ZM309.714 176.627V169.123H310.932V176.627H309.714Z" fill="#090F24"/>
</svg>
