<svg width="236" height="56" viewBox="0 0 236 56" fill="none" xmlns="http://www.w3.org/2000/svg">
<g filter="url(#filter0_d_1_423)">
<rect x="4.5" y="2.5" width="227" height="47" rx="23.5" fill="white"/>
<rect x="4.5" y="2.5" width="227" height="47" rx="23.5" stroke="#B7B8C5"/>
<path d="M39.64 22.535C39.16 22.535 38.725 22.63 38.335 22.82C37.955 23 37.63 23.27 37.36 23.63C37.1 23.99 36.9 24.425 36.76 24.935C36.62 25.445 36.55 26.02 36.55 26.66C36.55 27.5 36.665 28.23 36.895 28.85C37.125 29.46 37.47 29.93 37.93 30.26C38.39 30.59 38.96 30.755 39.64 30.755C40.08 30.755 40.5 30.715 40.9 30.635C41.3 30.545 41.705 30.43 42.115 30.29V31.685C41.715 31.845 41.305 31.96 40.885 32.03C40.475 32.11 39.995 32.15 39.445 32.15C38.405 32.15 37.545 31.925 36.865 31.475C36.185 31.025 35.675 30.385 35.335 29.555C34.995 28.725 34.825 27.755 34.825 26.645C34.825 25.835 34.93 25.095 35.14 24.425C35.35 23.745 35.66 23.16 36.07 22.67C36.48 22.18 36.985 21.805 37.585 21.545C38.185 21.275 38.87 21.14 39.64 21.14C40.16 21.14 40.67 21.2 41.17 21.32C41.67 21.43 42.115 21.59 42.505 21.8L41.92 23.15C41.59 22.99 41.23 22.85 40.84 22.73C40.46 22.6 40.06 22.535 39.64 22.535ZM52.8352 23.915V32H51.3502V27.2C51.3502 26.93 51.3552 26.66 51.3652 26.39C51.3852 26.11 51.4102 25.845 51.4402 25.595H51.3952L49.0852 32H47.8102L45.5452 25.595H45.5002C45.5202 25.845 45.5352 26.11 45.5452 26.39C45.5552 26.66 45.5602 26.945 45.5602 27.245V32H44.0902V23.915H46.2952L48.4552 30.11L50.6452 23.915H52.8352ZM61.9155 27.95C61.9155 28.62 61.8305 29.215 61.6605 29.735C61.4905 30.255 61.2455 30.695 60.9255 31.055C60.6155 31.415 60.2355 31.69 59.7855 31.88C59.3355 32.06 58.8305 32.15 58.2705 32.15C57.7605 32.15 57.2855 32.06 56.8455 31.88C56.4055 31.69 56.0255 31.415 55.7055 31.055C55.3855 30.695 55.1355 30.255 54.9555 29.735C54.7855 29.215 54.7005 28.615 54.7005 27.935C54.7005 27.045 54.8455 26.29 55.1355 25.67C55.4255 25.05 55.8405 24.58 56.3805 24.26C56.9305 23.93 57.5805 23.765 58.3305 23.765C59.0305 23.765 59.6505 23.93 60.1905 24.26C60.7305 24.58 61.1505 25.05 61.4505 25.67C61.7605 26.29 61.9155 27.05 61.9155 27.95ZM56.3805 27.95C56.3805 28.55 56.4455 29.07 56.5755 29.51C56.7155 29.94 56.9255 30.27 57.2055 30.5C57.4955 30.73 57.8605 30.845 58.3005 30.845C58.7505 30.845 59.1155 30.73 59.3955 30.5C59.6855 30.27 59.8955 29.94 60.0255 29.51C60.1655 29.07 60.2355 28.55 60.2355 27.95C60.2355 27.33 60.1655 26.81 60.0255 26.39C59.8855 25.97 59.6755 25.65 59.3955 25.43C59.1155 25.2 58.7455 25.085 58.2855 25.085C57.6155 25.085 57.1305 25.335 56.8305 25.835C56.5305 26.335 56.3805 27.04 56.3805 27.95ZM69.3762 25.19H66.8712V32H65.2662V25.19H62.7912V23.915H69.3762V25.19ZM74.7382 23.765C75.6482 23.765 76.3782 24.115 76.9282 24.815C77.4782 25.515 77.7532 26.56 77.7532 27.95C77.7532 28.86 77.6232 29.63 77.3632 30.26C77.1132 30.89 76.7582 31.365 76.2982 31.685C75.8382 31.995 75.3032 32.15 74.6932 32.15C74.3232 32.15 73.9932 32.1 73.7032 32C73.4132 31.89 73.1682 31.75 72.9682 31.58C72.7782 31.4 72.6082 31.21 72.4582 31.01H72.3682C72.3882 31.19 72.4082 31.405 72.4282 31.655C72.4482 31.895 72.4582 32.11 72.4582 32.3V35.6H70.8382V23.915H72.1582L72.3832 24.995H72.4582C72.6082 24.775 72.7832 24.57 72.9832 24.38C73.1932 24.19 73.4382 24.04 73.7182 23.93C74.0082 23.82 74.3482 23.765 74.7382 23.765ZM74.3032 25.07C73.8632 25.07 73.5082 25.17 73.2382 25.37C72.9682 25.56 72.7682 25.85 72.6382 26.24C72.5182 26.62 72.4582 27.105 72.4582 27.695V27.935C72.4582 28.555 72.5132 29.085 72.6232 29.525C72.7432 29.955 72.9382 30.285 73.2082 30.515C73.4882 30.735 73.8632 30.845 74.3332 30.845C74.7332 30.845 75.0632 30.725 75.3232 30.485C75.5832 30.235 75.7732 29.89 75.8932 29.45C76.0232 29.01 76.0882 28.5 76.0882 27.92C76.0882 27.04 75.9382 26.345 75.6382 25.835C75.3482 25.325 74.9032 25.07 74.3032 25.07ZM82.6727 23.765C83.3427 23.765 83.9227 23.915 84.4127 24.215C84.9027 24.505 85.2777 24.925 85.5377 25.475C85.8077 26.025 85.9427 26.675 85.9427 27.425V28.295H80.8577C80.8777 29.125 81.0777 29.76 81.4577 30.2C81.8377 30.64 82.3727 30.86 83.0627 30.86C83.5527 30.86 83.9877 30.815 84.3677 30.725C84.7577 30.625 85.1527 30.48 85.5527 30.29V31.61C85.1727 31.79 84.7827 31.925 84.3827 32.015C83.9927 32.105 83.5177 32.15 82.9577 32.15C82.2277 32.15 81.5777 31.995 81.0077 31.685C80.4377 31.375 79.9927 30.915 79.6727 30.305C79.3527 29.685 79.1927 28.925 79.1927 28.025C79.1927 27.115 79.3377 26.345 79.6277 25.715C79.9177 25.085 80.3227 24.605 80.8427 24.275C81.3727 23.935 81.9827 23.765 82.6727 23.765ZM82.6727 24.995C82.1627 24.995 81.7527 25.18 81.4427 25.55C81.1327 25.92 80.9527 26.445 80.9027 27.125H84.3377C84.3377 26.705 84.2777 26.335 84.1577 26.015C84.0377 25.695 83.8527 25.445 83.6027 25.265C83.3627 25.085 83.0527 24.995 82.6727 24.995ZM93.5022 25.19H90.9972V32H89.3922V25.19H86.9172V23.915H93.5022V25.19ZM98.4892 27.17C99.1892 27.17 99.7642 27.26 100.214 27.44C100.674 27.61 101.014 27.865 101.234 28.205C101.464 28.545 101.579 28.975 101.579 29.495C101.579 30.005 101.469 30.45 101.249 30.83C101.029 31.2 100.689 31.49 100.229 31.7C99.7692 31.9 99.1642 32 98.4142 32H94.9642V23.915H96.5842V27.17H98.4892ZM99.9442 29.555C99.9442 29.115 99.8042 28.815 99.5242 28.655C99.2542 28.485 98.8492 28.4 98.3092 28.4H96.5842V30.8H98.3392C98.8092 30.8 99.1942 30.705 99.4942 30.515C99.7942 30.325 99.9442 30.005 99.9442 29.555ZM113.41 25.97C113.41 26.46 113.275 26.85 113.005 27.14C112.735 27.42 112.365 27.61 111.895 27.71V27.77C112.395 27.84 112.81 28.025 113.14 28.325C113.48 28.615 113.65 29.045 113.65 29.615C113.65 29.965 113.59 30.285 113.47 30.575C113.36 30.865 113.175 31.12 112.915 31.34C112.665 31.55 112.335 31.715 111.925 31.835C111.515 31.945 111.02 32 110.44 32H107.02V23.915H110.44C111.02 23.915 111.535 23.98 111.985 24.11C112.435 24.24 112.785 24.455 113.035 24.755C113.285 25.055 113.41 25.46 113.41 25.97ZM111.985 29.585C111.985 29.165 111.84 28.865 111.55 28.685C111.27 28.495 110.85 28.4 110.29 28.4H108.64V30.8H110.305C110.845 30.8 111.26 30.71 111.55 30.53C111.84 30.34 111.985 30.025 111.985 29.585ZM111.775 26.15C111.775 25.8 111.66 25.545 111.43 25.385C111.21 25.225 110.855 25.145 110.365 25.145H108.64V27.185H110.14C110.68 27.185 111.085 27.105 111.355 26.945C111.635 26.775 111.775 26.51 111.775 26.15ZM118.534 32.15C117.824 32.15 117.199 32.005 116.659 31.715C116.129 31.425 115.714 30.975 115.414 30.365C115.124 29.745 114.979 28.96 114.979 28.01C114.979 27.01 115.139 26.2 115.459 25.58C115.779 24.96 116.214 24.505 116.764 24.215C117.314 23.915 117.944 23.765 118.654 23.765C119.074 23.765 119.474 23.815 119.854 23.915C120.244 24.005 120.564 24.11 120.814 24.23L120.319 25.505C120.069 25.405 119.799 25.315 119.509 25.235C119.219 25.155 118.944 25.115 118.684 25.115C118.224 25.115 117.844 25.225 117.544 25.445C117.254 25.655 117.034 25.975 116.884 26.405C116.734 26.825 116.659 27.355 116.659 27.995C116.659 28.605 116.734 29.12 116.884 29.54C117.034 29.96 117.254 30.28 117.544 30.5C117.844 30.71 118.204 30.815 118.624 30.815C119.034 30.815 119.399 30.765 119.719 30.665C120.049 30.565 120.354 30.435 120.634 30.275V31.655C120.354 31.825 120.049 31.95 119.719 32.03C119.389 32.11 118.994 32.15 118.534 32.15ZM125.446 23.765C126.116 23.765 126.696 23.915 127.186 24.215C127.676 24.505 128.051 24.925 128.311 25.475C128.581 26.025 128.716 26.675 128.716 27.425V28.295H123.631C123.651 29.125 123.851 29.76 124.231 30.2C124.611 30.64 125.146 30.86 125.836 30.86C126.326 30.86 126.761 30.815 127.141 30.725C127.531 30.625 127.926 30.48 128.326 30.29V31.61C127.946 31.79 127.556 31.925 127.156 32.015C126.766 32.105 126.291 32.15 125.731 32.15C125.001 32.15 124.351 31.995 123.781 31.685C123.211 31.375 122.766 30.915 122.446 30.305C122.126 29.685 121.966 28.925 121.966 28.025C121.966 27.115 122.111 26.345 122.401 25.715C122.691 25.085 123.096 24.605 123.616 24.275C124.146 23.935 124.756 23.765 125.446 23.765ZM125.446 24.995C124.936 24.995 124.526 25.18 124.216 25.55C123.906 25.92 123.726 26.445 123.676 27.125H127.111C127.111 26.705 127.051 26.335 126.931 26.015C126.811 25.695 126.626 25.445 126.376 25.265C126.136 25.085 125.826 24.995 125.446 24.995ZM133.788 27.155C133.788 25.965 133.908 24.955 134.148 24.125C134.398 23.295 134.788 22.635 135.318 22.145C135.848 21.645 136.543 21.305 137.403 21.125C137.963 21.005 138.523 20.895 139.083 20.795C139.643 20.695 140.178 20.605 140.688 20.525L140.913 21.92C140.663 21.95 140.393 21.99 140.103 22.04C139.813 22.09 139.518 22.14 139.218 22.19C138.918 22.24 138.628 22.29 138.348 22.34C138.078 22.39 137.838 22.44 137.628 22.49C137.278 22.55 136.973 22.655 136.713 22.805C136.463 22.955 136.253 23.155 136.083 23.405C135.913 23.655 135.778 23.975 135.678 24.365C135.578 24.745 135.518 25.21 135.498 25.76H135.588C135.708 25.57 135.878 25.375 136.098 25.175C136.318 24.975 136.583 24.81 136.893 24.68C137.213 24.54 137.573 24.47 137.973 24.47C138.603 24.47 139.143 24.62 139.593 24.92C140.043 25.21 140.383 25.625 140.613 26.165C140.843 26.695 140.958 27.33 140.958 28.07C140.958 28.98 140.803 29.74 140.493 30.35C140.193 30.95 139.773 31.4 139.233 31.7C138.703 32 138.078 32.15 137.358 32.15C136.818 32.15 136.328 32.045 135.888 31.835C135.448 31.615 135.073 31.295 134.763 30.875C134.453 30.445 134.213 29.92 134.043 29.3C133.873 28.68 133.788 27.965 133.788 27.155ZM137.478 30.845C137.838 30.845 138.148 30.76 138.408 30.59C138.678 30.42 138.888 30.145 139.038 29.765C139.188 29.385 139.263 28.875 139.263 28.235C139.263 27.465 139.138 26.855 138.888 26.405C138.638 25.955 138.223 25.73 137.643 25.73C137.283 25.73 136.953 25.825 136.653 26.015C136.353 26.195 136.098 26.4 135.888 26.63C135.688 26.86 135.543 27.055 135.453 27.215C135.453 27.685 135.483 28.135 135.543 28.565C135.613 28.995 135.723 29.38 135.873 29.72C136.023 30.06 136.223 30.335 136.473 30.545C136.733 30.745 137.068 30.845 137.478 30.845ZM146.721 23.765C147.631 23.765 148.361 24.115 148.911 24.815C149.461 25.515 149.736 26.56 149.736 27.95C149.736 28.86 149.606 29.63 149.346 30.26C149.096 30.89 148.741 31.365 148.281 31.685C147.821 31.995 147.286 32.15 146.676 32.15C146.306 32.15 145.976 32.1 145.686 32C145.396 31.89 145.151 31.75 144.951 31.58C144.761 31.4 144.591 31.21 144.441 31.01H144.351C144.371 31.19 144.391 31.405 144.411 31.655C144.431 31.895 144.441 32.11 144.441 32.3V35.6H142.821V23.915H144.141L144.366 24.995H144.441C144.591 24.775 144.766 24.57 144.966 24.38C145.176 24.19 145.421 24.04 145.701 23.93C145.991 23.82 146.331 23.765 146.721 23.765ZM146.286 25.07C145.846 25.07 145.491 25.17 145.221 25.37C144.951 25.56 144.751 25.85 144.621 26.24C144.501 26.62 144.441 27.105 144.441 27.695V27.935C144.441 28.555 144.496 29.085 144.606 29.525C144.726 29.955 144.921 30.285 145.191 30.515C145.471 30.735 145.846 30.845 146.316 30.845C146.716 30.845 147.046 30.725 147.306 30.485C147.566 30.235 147.756 29.89 147.876 29.45C148.006 29.01 148.071 28.5 148.071 27.92C148.071 27.04 147.921 26.345 147.621 25.835C147.331 25.325 146.886 25.07 146.286 25.07ZM154.655 23.765C155.325 23.765 155.905 23.915 156.395 24.215C156.885 24.505 157.26 24.925 157.52 25.475C157.79 26.025 157.925 26.675 157.925 27.425V28.295H152.84C152.86 29.125 153.06 29.76 153.44 30.2C153.82 30.64 154.355 30.86 155.045 30.86C155.535 30.86 155.97 30.815 156.35 30.725C156.74 30.625 157.135 30.48 157.535 30.29V31.61C157.155 31.79 156.765 31.925 156.365 32.015C155.975 32.105 155.5 32.15 154.94 32.15C154.21 32.15 153.56 31.995 152.99 31.685C152.42 31.375 151.975 30.915 151.655 30.305C151.335 29.685 151.175 28.925 151.175 28.025C151.175 27.115 151.32 26.345 151.61 25.715C151.9 25.085 152.305 24.605 152.825 24.275C153.355 23.935 153.965 23.765 154.655 23.765ZM154.655 24.995C154.145 24.995 153.735 25.18 153.425 25.55C153.115 25.92 152.935 26.445 152.885 27.125H156.32C156.32 26.705 156.26 26.335 156.14 26.015C156.02 25.695 155.835 25.445 155.585 25.265C155.345 25.085 155.035 24.995 154.655 24.995ZM161.36 23.915V27.2H164.945V23.915H166.565V32H164.945V28.475H161.36V32H159.74V23.915H161.36ZM175.016 23.915V30.74H176.126V34.835H174.611V32H169.451V34.835H167.951V30.74H168.566C168.966 30.12 169.296 29.44 169.556 28.7C169.826 27.96 170.031 27.185 170.171 26.375C170.321 25.555 170.406 24.735 170.426 23.915H175.016ZM171.806 25.145C171.756 25.795 171.661 26.46 171.521 27.14C171.381 27.82 171.206 28.47 170.996 29.09C170.786 29.71 170.536 30.26 170.246 30.74H173.411V25.145H171.806ZM177.508 32V23.915H179.128V27.17H180.748C181.448 27.17 182.023 27.26 182.473 27.44C182.923 27.61 183.253 27.865 183.463 28.205C183.683 28.545 183.793 28.975 183.793 29.495C183.793 30.005 183.688 30.45 183.478 30.83C183.268 31.2 182.933 31.49 182.473 31.7C182.023 31.9 181.423 32 180.673 32H177.508ZM180.553 30.8C181.033 30.8 181.418 30.71 181.708 30.53C182.008 30.34 182.158 30.015 182.158 29.555C182.158 29.115 182.023 28.815 181.753 28.655C181.493 28.485 181.093 28.4 180.553 28.4H179.128V30.8H180.553ZM184.963 32V23.915H186.583V32H184.963Z" fill="#090F24"/>
<path d="M197 31L202 26L197 21" stroke="#090F24" stroke-width="2" stroke-linecap="round" stroke-linejoin="round"/>
</g>
<defs>
<filter id="filter0_d_1_423" x="0" y="0" width="236" height="56" filterUnits="userSpaceOnUse" color-interpolation-filters="sRGB">
<feFlood flood-opacity="0" result="BackgroundImageFix"/>
<feColorMatrix in="SourceAlpha" type="matrix" values="0 0 0 0 0 0 0 0 0 0 0 0 0 0 0 0 0 0 127 0" result="hardAlpha"/>
<feOffset dy="2"/>
<feGaussianBlur stdDeviation="2"/>
<feComposite in2="hardAlpha" operator="out"/>
<feColorMatrix type="matrix" values="0 0 0 0 0.167755 0 0 0 0 0.352341 0 0 0 0 0.3875 0 0 0 0.06 0"/>
<feBlend mode="normal" in2="BackgroundImageFix" result="effect1_dropShadow_1_423"/>
<feBlend mode="normal" in="SourceGraphic" in2="effect1_dropShadow_1_423" result="shape"/>
</filter>
</defs>
</svg>
