<svg width="422" height="22" viewBox="0 0 422 22" fill="none" xmlns="http://www.w3.org/2000/svg">
<path d="M28.0209 10.891H30.3999V11.944H28.0209V14.557H26.9419V11.944H24.5629V10.891H26.9419V8.265H28.0209V10.891ZM37.1093 8.863C37.1093 9.279 37.0313 9.643 36.8753 9.955C36.7193 10.2583 36.5027 10.5053 36.2253 10.696C35.9567 10.8867 35.636 11.0253 35.2633 11.112V11.164C35.974 11.2507 36.5027 11.4847 36.8493 11.866C37.2047 12.2387 37.3823 12.7327 37.3823 13.348C37.3823 13.8853 37.261 14.3663 37.0183 14.791C36.7757 15.207 36.3987 15.5363 35.8873 15.779C35.3847 16.013 34.739 16.13 33.9503 16.13C33.4737 16.13 33.036 16.091 32.6373 16.013C32.2473 15.935 31.8703 15.805 31.5063 15.623V14.375C31.8703 14.5743 32.2603 14.726 32.6763 14.83C33.101 14.934 33.4997 14.986 33.8723 14.986C34.5917 14.986 35.1073 14.8387 35.4193 14.544C35.7313 14.2407 35.8873 13.8203 35.8873 13.283C35.8873 12.9363 35.805 12.6547 35.6403 12.438C35.4757 12.2127 35.2243 12.048 34.8863 11.944C34.5483 11.8313 34.1193 11.775 33.5993 11.775H32.8453V10.644H33.6123C34.0977 10.644 34.492 10.579 34.7953 10.449C35.1073 10.3103 35.3327 10.1197 35.4713 9.877C35.6187 9.63433 35.6923 9.357 35.6923 9.045C35.6923 8.629 35.5667 8.30833 35.3153 8.083C35.0727 7.849 34.7217 7.732 34.2623 7.732C33.9677 7.732 33.6947 7.76667 33.4433 7.836C33.2007 7.90533 32.9753 7.99633 32.7673 8.109C32.568 8.22167 32.3817 8.34733 32.2083 8.486L31.5453 7.537C31.762 7.36367 32.009 7.20333 32.2863 7.056C32.5637 6.90867 32.8713 6.796 33.2093 6.718C33.5473 6.63133 33.9243 6.588 34.3403 6.588C35.2503 6.588 35.9393 6.80033 36.4073 7.225C36.8753 7.641 37.1093 8.187 37.1093 8.863ZM41.5041 6.588C42.0241 6.588 42.4835 6.67467 42.8821 6.848C43.2895 7.01267 43.6058 7.25967 43.8311 7.589C44.0651 7.91833 44.1821 8.33 44.1821 8.824C44.1821 9.19667 44.1085 9.52167 43.9611 9.799C43.8225 10.0763 43.6275 10.3233 43.3761 10.54C43.1335 10.748 42.8648 10.93 42.5701 11.086C42.9081 11.268 43.2201 11.476 43.5061 11.71C43.7921 11.9353 44.0218 12.1997 44.1951 12.503C44.3771 12.8063 44.4681 13.1703 44.4681 13.595C44.4681 14.115 44.3468 14.5657 44.1041 14.947C43.8701 15.3197 43.5321 15.61 43.0901 15.818C42.6481 16.026 42.1238 16.13 41.5171 16.13C40.8671 16.13 40.3168 16.0303 39.8661 15.831C39.4241 15.6317 39.0905 15.35 38.8651 14.986C38.6398 14.6133 38.5271 14.1627 38.5271 13.634C38.5271 13.2093 38.6051 12.841 38.7611 12.529C38.9258 12.217 39.1381 11.9483 39.3981 11.723C39.6668 11.4977 39.9615 11.307 40.2821 11.151C40.0048 10.9777 39.7535 10.7827 39.5281 10.566C39.3028 10.3407 39.1251 10.085 38.9951 9.799C38.8738 9.513 38.8131 9.18367 38.8131 8.811C38.8131 8.32567 38.9301 7.92267 39.1641 7.602C39.3981 7.27267 39.7188 7.02133 40.1261 6.848C40.5335 6.67467 40.9928 6.588 41.5041 6.588ZM39.8791 13.608C39.8791 14.0327 40.0135 14.3837 40.2821 14.661C40.5508 14.9297 40.9538 15.064 41.4911 15.064C41.8551 15.064 42.1541 15.0033 42.3881 14.882C42.6221 14.752 42.7998 14.5787 42.9211 14.362C43.0511 14.1367 43.1161 13.881 43.1161 13.595C43.1161 13.309 43.0468 13.0577 42.9081 12.841C42.7695 12.6243 42.5788 12.4337 42.3361 12.269C42.1021 12.0957 41.8335 11.9397 41.5301 11.801L41.3611 11.723C41.0491 11.8703 40.7805 12.035 40.5551 12.217C40.3385 12.399 40.1695 12.6027 40.0481 12.828C39.9355 13.0533 39.8791 13.3133 39.8791 13.608ZM41.4781 7.667C41.0968 7.667 40.7805 7.771 40.5291 7.979C40.2865 8.187 40.1651 8.49033 40.1651 8.889C40.1651 9.175 40.2258 9.41767 40.3471 9.617C40.4771 9.81633 40.6418 9.98967 40.8411 10.137C41.0491 10.2757 41.2745 10.41 41.5171 10.54C41.7598 10.4187 41.9765 10.2887 42.1671 10.15C42.3665 10.0027 42.5225 9.82933 42.6351 9.63C42.7565 9.422 42.8171 9.175 42.8171 8.889C42.8171 8.49033 42.6915 8.187 42.4401 7.979C42.1975 7.771 41.8768 7.667 41.4781 7.667ZM54.6368 11.346C54.6368 12.1 54.5848 12.7717 54.4808 13.361C54.3768 13.9503 54.2034 14.453 53.9608 14.869C53.7268 15.2763 53.4191 15.5883 53.0378 15.805C52.6651 16.0217 52.2058 16.13 51.6598 16.13C50.9924 16.13 50.4378 15.9393 49.9958 15.558C49.5624 15.1767 49.2374 14.6307 49.0208 13.92C48.8128 13.2007 48.7088 12.3427 48.7088 11.346C48.7088 10.3407 48.8041 9.48267 48.9948 8.772C49.1941 8.06133 49.5104 7.51967 49.9438 7.147C50.3771 6.76567 50.9534 6.575 51.6728 6.575C52.3488 6.575 52.9034 6.76567 53.3368 7.147C53.7788 7.51967 54.1038 8.06133 54.3118 8.772C54.5284 9.48267 54.6368 10.3407 54.6368 11.346ZM50.1258 11.346C50.1258 12.152 50.1734 12.8237 50.2688 13.361C50.3728 13.8983 50.5374 14.3013 50.7628 14.57C50.9968 14.8387 51.3001 14.973 51.6728 14.973C52.0541 14.973 52.3531 14.843 52.5698 14.583C52.7951 14.3143 52.9598 13.9113 53.0638 13.374C53.1678 12.828 53.2198 12.152 53.2198 11.346C53.2198 10.54 53.1678 9.87267 53.0638 9.344C52.9598 8.80667 52.7951 8.40367 52.5698 8.135C52.3531 7.86633 52.0541 7.732 51.6728 7.732C51.3001 7.732 50.9968 7.86633 50.7628 8.135C50.5374 8.40367 50.3728 8.80667 50.2688 9.344C50.1734 9.87267 50.1258 10.54 50.1258 11.346ZM61.6316 10.683C61.6316 11.2203 61.5926 11.7533 61.5146 12.282C61.4453 12.8107 61.3196 13.309 61.1376 13.777C60.9556 14.2363 60.7086 14.6437 60.3966 14.999C60.0846 15.3543 59.6859 15.6317 59.2006 15.831C58.7239 16.0303 58.1476 16.13 57.4716 16.13C57.3069 16.13 57.1119 16.1213 56.8866 16.104C56.6613 16.0867 56.4793 16.0563 56.3406 16.013V14.856C56.4879 14.908 56.6526 14.947 56.8346 14.973C57.0253 14.999 57.2116 15.012 57.3936 15.012C57.9483 15.012 58.4076 14.9253 58.7716 14.752C59.1356 14.57 59.4259 14.3187 59.6426 13.998C59.8593 13.6773 60.0109 13.3047 60.0976 12.88C60.1929 12.4553 60.2493 12.0047 60.2666 11.528H60.2016C60.0803 11.7273 59.9329 11.9093 59.7596 12.074C59.5863 12.2387 59.3696 12.3687 59.1096 12.464C58.8583 12.5593 58.5506 12.607 58.1866 12.607C57.6926 12.607 57.2593 12.4943 56.8866 12.269C56.5139 12.0437 56.2279 11.723 56.0286 11.307C55.8293 10.8823 55.7296 10.3667 55.7296 9.76C55.7296 9.10133 55.8423 8.538 56.0676 8.07C56.3016 7.59333 56.6309 7.22933 57.0556 6.978C57.4889 6.718 57.9959 6.588 58.5766 6.588C59.0099 6.588 59.4086 6.67467 59.7726 6.848C60.1453 7.01267 60.4703 7.264 60.7476 7.602C61.0336 7.94 61.2503 8.36467 61.3976 8.876C61.5536 9.38733 61.6316 9.98967 61.6316 10.683ZM58.6026 7.732C58.1606 7.732 57.8009 7.89667 57.5236 8.226C57.2463 8.55533 57.1076 9.058 57.1076 9.734C57.1076 10.2887 57.2246 10.7263 57.4586 11.047C57.7013 11.359 58.0653 11.515 58.5506 11.515C58.8886 11.515 59.1833 11.437 59.4346 11.281C59.6859 11.125 59.8766 10.93 60.0066 10.696C60.1453 10.4533 60.2146 10.202 60.2146 9.942C60.2146 9.67333 60.1799 9.409 60.1106 9.149C60.0413 8.889 59.9416 8.65067 59.8116 8.434C59.6816 8.21733 59.5126 8.04833 59.3046 7.927C59.1053 7.797 58.8713 7.732 58.6026 7.732ZM63.7384 16L67.1704 7.94H62.6724V6.718H68.6784V7.706L65.2594 16H63.7384ZM79.159 13.946H77.976V16H76.598V13.946H72.607V12.854L76.585 6.679H77.976V12.776H79.159V13.946ZM76.598 10.254C76.598 10.046 76.598 9.84667 76.598 9.656C76.6067 9.46533 76.6154 9.28333 76.624 9.11C76.6327 8.928 76.637 8.76333 76.637 8.616C76.6457 8.46 76.6544 8.32133 76.663 8.2H76.611C76.5417 8.37333 76.4594 8.551 76.364 8.733C76.2774 8.915 76.1907 9.07533 76.104 9.214L73.92 12.776H76.598V10.254ZM85.5039 8.863C85.5039 9.279 85.4259 9.643 85.2699 9.955C85.1139 10.2583 84.8972 10.5053 84.6199 10.696C84.3512 10.8867 84.0305 11.0253 83.6579 11.112V11.164C84.3685 11.2507 84.8972 11.4847 85.2439 11.866C85.5992 12.2387 85.7769 12.7327 85.7769 13.348C85.7769 13.8853 85.6555 14.3663 85.4129 14.791C85.1702 15.207 84.7932 15.5363 84.2819 15.779C83.7792 16.013 83.1335 16.13 82.3449 16.13C81.8682 16.13 81.4305 16.091 81.0319 16.013C80.6419 15.935 80.2649 15.805 79.9009 15.623V14.375C80.2649 14.5743 80.6549 14.726 81.0709 14.83C81.4955 14.934 81.8942 14.986 82.2669 14.986C82.9862 14.986 83.5019 14.8387 83.8139 14.544C84.1259 14.2407 84.2819 13.8203 84.2819 13.283C84.2819 12.9363 84.1995 12.6547 84.0349 12.438C83.8702 12.2127 83.6189 12.048 83.2809 11.944C82.9429 11.8313 82.5139 11.775 81.9939 11.775H81.2399V10.644H82.0069C82.4922 10.644 82.8865 10.579 83.1899 10.449C83.5019 10.3103 83.7272 10.1197 83.8659 9.877C84.0132 9.63433 84.0869 9.357 84.0869 9.045C84.0869 8.629 83.9612 8.30833 83.7099 8.083C83.4672 7.849 83.1162 7.732 82.6569 7.732C82.3622 7.732 82.0892 7.76667 81.8379 7.836C81.5952 7.90533 81.3699 7.99633 81.1619 8.109C80.9625 8.22167 80.7762 8.34733 80.6029 8.486L79.9399 7.537C80.1565 7.36367 80.4035 7.20333 80.6809 7.056C80.9582 6.90867 81.2659 6.796 81.6039 6.718C81.9419 6.63133 82.3189 6.588 82.7349 6.588C83.6449 6.588 84.3339 6.80033 84.8019 7.225C85.2699 7.641 85.5039 8.187 85.5039 8.863ZM89.8987 10.241C90.462 10.241 90.956 10.3493 91.3807 10.566C91.814 10.7827 92.152 11.0947 92.3947 11.502C92.6373 11.9093 92.7587 12.4077 92.7587 12.997C92.7587 13.647 92.6287 14.206 92.3687 14.674C92.1087 15.142 91.7273 15.5017 91.2247 15.753C90.7307 16.0043 90.124 16.13 89.4047 16.13C88.9453 16.13 88.5163 16.0867 88.1177 16C87.719 15.9133 87.3767 15.7877 87.0907 15.623V14.362C87.3853 14.544 87.745 14.6913 88.1697 14.804C88.5943 14.9167 88.993 14.973 89.3657 14.973C89.7643 14.973 90.1067 14.908 90.3927 14.778C90.6873 14.6393 90.9127 14.4357 91.0687 14.167C91.2333 13.8897 91.3157 13.543 91.3157 13.127C91.3157 12.5637 91.1553 12.1347 90.8347 11.84C90.514 11.5367 90.0113 11.385 89.3267 11.385C89.0927 11.385 88.8413 11.4067 88.5727 11.45C88.304 11.4933 88.083 11.5367 87.9097 11.58L87.2857 11.203L87.6107 6.718H92.1477V7.94H88.8327L88.6507 10.371C88.7893 10.345 88.9583 10.319 89.1577 10.293C89.3657 10.2583 89.6127 10.241 89.8987 10.241ZM97.1553 12.048C97.1553 11.5107 97.19 10.982 97.2593 10.462C97.3286 9.942 97.45 9.45233 97.6233 8.993C97.8053 8.525 98.0523 8.11333 98.3643 7.758C98.6763 7.394 99.075 7.11233 99.5603 6.913C100.046 6.705 100.631 6.601 101.315 6.601C101.489 6.601 101.679 6.60967 101.887 6.627C102.104 6.63567 102.286 6.66167 102.433 6.705V7.862C102.277 7.81 102.104 7.771 101.913 7.745C101.731 7.719 101.541 7.706 101.341 7.706C100.804 7.706 100.353 7.797 99.9893 7.979C99.634 8.161 99.348 8.41233 99.1313 8.733C98.9233 9.05367 98.7716 9.42633 98.6763 9.851C98.581 10.267 98.5246 10.722 98.5073 11.216H98.5723C98.6936 11.008 98.841 10.8217 99.0143 10.657C99.1963 10.4923 99.413 10.3623 99.6643 10.267C99.9243 10.1717 100.223 10.124 100.561 10.124C101.073 10.124 101.515 10.2367 101.887 10.462C102.26 10.6873 102.55 11.0123 102.758 11.437C102.966 11.8617 103.07 12.3773 103.07 12.984C103.07 13.634 102.953 14.1973 102.719 14.674C102.485 15.142 102.156 15.5017 101.731 15.753C101.307 16.0043 100.8 16.13 100.21 16.13C99.7856 16.13 99.387 16.0477 99.0143 15.883C98.6416 15.7183 98.3166 15.467 98.0393 15.129C97.762 14.791 97.5453 14.3663 97.3893 13.855C97.2333 13.335 97.1553 12.7327 97.1553 12.048ZM100.197 14.986C100.639 14.986 100.995 14.8257 101.263 14.505C101.541 14.1757 101.679 13.6687 101.679 12.984C101.679 12.438 101.558 12.0047 101.315 11.684C101.073 11.3633 100.709 11.203 100.223 11.203C99.894 11.203 99.6036 11.281 99.3523 11.437C99.1096 11.593 98.919 11.7923 98.7803 12.035C98.6416 12.2777 98.5723 12.5247 98.5723 12.776C98.5723 13.0447 98.6026 13.309 98.6633 13.569C98.7326 13.829 98.8366 14.0673 98.9753 14.284C99.114 14.5007 99.283 14.674 99.4823 14.804C99.6903 14.9253 99.9286 14.986 100.197 14.986ZM105.125 16L108.557 7.94H104.059V6.718H110.065V7.706L106.646 16H105.125ZM117.372 13.946H116.189V16H114.811V13.946H110.82V12.854L114.798 6.679H116.189V12.776H117.372V13.946ZM114.811 10.254C114.811 10.046 114.811 9.84667 114.811 9.656C114.82 9.46533 114.828 9.28333 114.837 9.11C114.846 8.928 114.85 8.76333 114.85 8.616C114.859 8.46 114.867 8.32133 114.876 8.2H114.824C114.755 8.37333 114.672 8.551 114.577 8.733C114.49 8.915 114.404 9.07533 114.317 9.214L112.133 12.776H114.811V10.254ZM123.717 8.863C123.717 9.279 123.639 9.643 123.483 9.955C123.327 10.2583 123.11 10.5053 122.833 10.696C122.564 10.8867 122.243 11.0253 121.871 11.112V11.164C122.581 11.2507 123.11 11.4847 123.457 11.866C123.812 12.2387 123.99 12.7327 123.99 13.348C123.99 13.8853 123.868 14.3663 123.626 14.791C123.383 15.207 123.006 15.5363 122.495 15.779C121.992 16.013 121.346 16.13 120.558 16.13C120.081 16.13 119.643 16.091 119.245 16.013C118.855 15.935 118.478 15.805 118.114 15.623V14.375C118.478 14.5743 118.868 14.726 119.284 14.83C119.708 14.934 120.107 14.986 120.48 14.986C121.199 14.986 121.715 14.8387 122.027 14.544C122.339 14.2407 122.495 13.8203 122.495 13.283C122.495 12.9363 122.412 12.6547 122.248 12.438C122.083 12.2127 121.832 12.048 121.494 11.944C121.156 11.8313 120.727 11.775 120.207 11.775H119.453V10.644H120.22C120.705 10.644 121.099 10.579 121.403 10.449C121.715 10.3103 121.94 10.1197 122.079 9.877C122.226 9.63433 122.3 9.357 122.3 9.045C122.3 8.629 122.174 8.30833 121.923 8.083C121.68 7.849 121.329 7.732 120.87 7.732C120.575 7.732 120.302 7.76667 120.051 7.836C119.808 7.90533 119.583 7.99633 119.375 8.109C119.175 8.22167 118.989 8.34733 118.816 8.486L118.153 7.537C118.369 7.36367 118.616 7.20333 118.894 7.056C119.171 6.90867 119.479 6.796 119.817 6.718C120.155 6.63133 120.532 6.588 120.948 6.588C121.858 6.588 122.547 6.80033 123.015 7.225C123.483 7.641 123.717 8.187 123.717 8.863Z" fill="#090F24"/>
<path d="M6.63416 12.3681C5.10422 10.8382 4.75979 9.31143 4.68129 8.69786C4.65886 8.52964 4.71813 8.35983 4.83829 8.23807L6.07345 7.00291C6.25448 6.82188 6.28652 6.53671 6.15195 6.32044L4.18145 3.26056C4.03086 3.01865 3.72007 2.93054 3.46374 3.0587L0.306136 4.54539C0.101076 4.64471 -0.022281 4.86419 0.00335155 5.09328C0.169963 6.66648 0.854031 10.537 4.65886 14.3418C8.46369 18.1466 12.331 18.8323 13.9074 18.9973C14.1365 19.0198 14.3544 18.8996 14.4553 18.6945L15.9452 15.5305C16.0733 15.2774 15.9852 14.9666 15.7449 14.8176L12.685 12.8487C12.4656 12.7109 12.1836 12.7462 12.0026 12.9272L10.7674 14.1624C10.6489 14.2841 10.4758 14.3402 10.3076 14.3194C9.69405 14.2409 8.16411 13.8981 6.63416 12.3681Z" fill="#686877"/>
<path d="M207.668 16H206.004L203.287 11.723L202.442 12.477V16H200.999V6.718H202.442V11.203C202.641 10.9343 202.845 10.67 203.053 10.41C203.261 10.15 203.469 9.89 203.677 9.63L205.952 6.718H207.59L204.314 10.774L207.668 16ZM210.067 8.993V16H208.65V8.993H210.067ZM209.378 6.328C209.586 6.328 209.768 6.38867 209.924 6.51C210.08 6.63133 210.158 6.835 210.158 7.121C210.158 7.39833 210.08 7.602 209.924 7.732C209.768 7.85333 209.586 7.914 209.378 7.914C209.153 7.914 208.962 7.85333 208.806 7.732C208.65 7.602 208.572 7.39833 208.572 7.121C208.572 6.835 208.65 6.63133 208.806 6.51C208.962 6.38867 209.153 6.328 209.378 6.328ZM214.289 16.13C213.509 16.13 212.876 15.8267 212.391 15.22C211.914 14.6133 211.676 13.712 211.676 12.516C211.676 11.3113 211.919 10.4013 212.404 9.786C212.889 9.17067 213.526 8.863 214.315 8.863C214.653 8.863 214.943 8.91067 215.186 9.006C215.429 9.09267 215.641 9.214 215.823 9.37C216.005 9.526 216.157 9.69933 216.278 9.89H216.356C216.339 9.76867 216.317 9.59533 216.291 9.37C216.274 9.136 216.265 8.928 216.265 8.746V6.12H217.669V16H216.564L216.317 15.064H216.265C216.144 15.2633 215.992 15.4453 215.81 15.61C215.628 15.766 215.411 15.8917 215.16 15.987C214.917 16.0823 214.627 16.13 214.289 16.13ZM214.666 14.999C215.273 14.999 215.697 14.8127 215.94 14.44C216.191 14.0587 216.317 13.491 216.317 12.737V12.529C216.317 11.7057 216.2 11.0773 215.966 10.644C215.732 10.2107 215.294 9.994 214.653 9.994C214.15 9.994 213.769 10.2237 213.509 10.683C213.249 11.1337 213.119 11.7533 213.119 12.542C213.119 13.3307 213.249 13.9373 213.509 14.362C213.769 14.7867 214.155 14.999 214.666 14.999ZM224.104 14.024C224.104 14.4833 224 14.869 223.792 15.181C223.584 15.493 223.28 15.7313 222.882 15.896C222.483 16.052 221.993 16.13 221.413 16.13C220.953 16.13 220.55 16.091 220.204 16.013C219.866 15.9437 219.554 15.8397 219.268 15.701V14.492C219.571 14.6393 219.918 14.7737 220.308 14.895C220.698 15.0077 221.07 15.064 221.426 15.064C221.885 15.064 222.219 14.9817 222.427 14.817C222.635 14.6523 222.739 14.4313 222.739 14.154C222.739 13.998 222.695 13.8593 222.609 13.738C222.531 13.608 222.379 13.478 222.154 13.348C221.928 13.2093 221.603 13.0533 221.179 12.88C220.763 12.698 220.412 12.5203 220.126 12.347C219.848 12.165 219.632 11.9527 219.476 11.71C219.328 11.4587 219.255 11.138 219.255 10.748C219.255 10.1413 219.489 9.67767 219.957 9.357C220.425 9.02767 221.036 8.863 221.79 8.863C222.206 8.863 222.591 8.90633 222.947 8.993C223.302 9.071 223.649 9.19233 223.987 9.357L223.558 10.41C223.358 10.3147 223.155 10.2367 222.947 10.176C222.747 10.1067 222.548 10.0503 222.349 10.007C222.149 9.96367 221.95 9.942 221.751 9.942C221.378 9.942 221.096 10.007 220.906 10.137C220.715 10.267 220.62 10.449 220.62 10.683C220.62 10.8563 220.663 11.0037 220.75 11.125C220.845 11.2463 221.005 11.3677 221.231 11.489C221.465 11.6103 221.785 11.7533 222.193 11.918C222.6 12.0827 222.947 12.2517 223.233 12.425C223.519 12.5983 223.735 12.8107 223.883 13.062C224.03 13.3133 224.104 13.634 224.104 14.024ZM230.07 14.024C230.07 14.4833 229.966 14.869 229.758 15.181C229.55 15.493 229.247 15.7313 228.848 15.896C228.45 16.052 227.96 16.13 227.379 16.13C226.92 16.13 226.517 16.091 226.17 16.013C225.832 15.9437 225.52 15.8397 225.234 15.701V14.492C225.538 14.6393 225.884 14.7737 226.274 14.895C226.664 15.0077 227.037 15.064 227.392 15.064C227.852 15.064 228.185 14.9817 228.393 14.817C228.601 14.6523 228.705 14.4313 228.705 14.154C228.705 13.998 228.662 13.8593 228.575 13.738C228.497 13.608 228.346 13.478 228.12 13.348C227.895 13.2093 227.57 13.0533 227.145 12.88C226.729 12.698 226.378 12.5203 226.092 12.347C225.815 12.165 225.598 11.9527 225.442 11.71C225.295 11.4587 225.221 11.138 225.221 10.748C225.221 10.1413 225.455 9.67767 225.923 9.357C226.391 9.02767 227.002 8.863 227.756 8.863C228.172 8.863 228.558 8.90633 228.913 8.993C229.269 9.071 229.615 9.19233 229.953 9.357L229.524 10.41C229.325 10.3147 229.121 10.2367 228.913 10.176C228.714 10.1067 228.515 10.0503 228.315 10.007C228.116 9.96367 227.917 9.942 227.717 9.942C227.345 9.942 227.063 10.007 226.872 10.137C226.682 10.267 226.586 10.449 226.586 10.683C226.586 10.8563 226.63 11.0037 226.716 11.125C226.812 11.2463 226.972 11.3677 227.197 11.489C227.431 11.6103 227.752 11.7533 228.159 11.918C228.567 12.0827 228.913 12.2517 229.199 12.425C229.485 12.5983 229.702 12.8107 229.849 13.062C229.997 13.3133 230.07 13.634 230.07 14.024ZM232.982 8.759C232.982 8.97567 232.974 9.19233 232.956 9.409C232.948 9.62567 232.935 9.80333 232.917 9.942H232.995C233.134 9.69933 233.303 9.5 233.502 9.344C233.71 9.188 233.94 9.071 234.191 8.993C234.451 8.915 234.716 8.876 234.984 8.876C235.496 8.876 235.929 8.967 236.284 9.149C236.648 9.32233 236.921 9.59967 237.103 9.981C237.294 10.3537 237.389 10.839 237.389 11.437V16H235.972V11.632C235.972 11.086 235.868 10.6787 235.66 10.41C235.452 10.1327 235.127 9.994 234.685 9.994C234.261 9.994 233.923 10.0893 233.671 10.28C233.42 10.4707 233.242 10.7523 233.138 11.125C233.034 11.489 232.982 11.9397 232.982 12.477V16H231.578V6.12H232.982V8.759ZM245.211 12.49C245.211 13.0707 245.138 13.5863 244.99 14.037C244.843 14.4877 244.631 14.869 244.353 15.181C244.085 15.493 243.755 15.7313 243.365 15.896C242.975 16.052 242.538 16.13 242.052 16.13C241.61 16.13 241.199 16.052 240.817 15.896C240.436 15.7313 240.107 15.493 239.829 15.181C239.552 14.869 239.335 14.4877 239.179 14.037C239.032 13.5863 238.958 13.0663 238.958 12.477C238.958 11.7057 239.084 11.0513 239.335 10.514C239.587 9.97667 239.946 9.56933 240.414 9.292C240.891 9.006 241.454 8.863 242.104 8.863C242.711 8.863 243.248 9.006 243.716 9.292C244.184 9.56933 244.548 9.97667 244.808 10.514C245.077 11.0513 245.211 11.71 245.211 12.49ZM240.414 12.49C240.414 13.01 240.471 13.4607 240.583 13.842C240.705 14.2147 240.887 14.5007 241.129 14.7C241.381 14.8993 241.697 14.999 242.078 14.999C242.468 14.999 242.785 14.8993 243.027 14.7C243.279 14.5007 243.461 14.2147 243.573 13.842C243.695 13.4607 243.755 13.01 243.755 12.49C243.755 11.9527 243.695 11.502 243.573 11.138C243.452 10.774 243.27 10.4967 243.027 10.306C242.785 10.1067 242.464 10.007 242.065 10.007C241.485 10.007 241.064 10.2237 240.804 10.657C240.544 11.0903 240.414 11.7013 240.414 12.49ZM250.193 8.863C250.981 8.863 251.614 9.16633 252.091 9.773C252.567 10.3797 252.806 11.2853 252.806 12.49C252.806 13.2787 252.693 13.946 252.468 14.492C252.251 15.038 251.943 15.4497 251.545 15.727C251.146 15.9957 250.682 16.13 250.154 16.13C249.833 16.13 249.547 16.0867 249.296 16C249.044 15.9047 248.832 15.7833 248.659 15.636C248.494 15.48 248.347 15.3153 248.217 15.142H248.139C248.156 15.298 248.173 15.4843 248.191 15.701C248.208 15.909 248.217 16.0953 248.217 16.26V19.12H246.813V8.993H247.957L248.152 9.929H248.217C248.347 9.73833 248.498 9.56067 248.672 9.396C248.854 9.23133 249.066 9.10133 249.309 9.006C249.56 8.91067 249.855 8.863 250.193 8.863ZM249.816 9.994C249.434 9.994 249.127 10.0807 248.893 10.254C248.659 10.4187 248.485 10.67 248.373 11.008C248.269 11.3373 248.217 11.7577 248.217 12.269V12.477C248.217 13.0143 248.264 13.4737 248.36 13.855C248.464 14.2277 248.633 14.5137 248.867 14.713C249.109 14.9037 249.434 14.999 249.842 14.999C250.188 14.999 250.474 14.895 250.7 14.687C250.925 14.4703 251.09 14.1713 251.194 13.79C251.306 13.4087 251.363 12.9667 251.363 12.464C251.363 11.7013 251.233 11.099 250.973 10.657C250.721 10.215 250.336 9.994 249.816 9.994ZM263.751 11.359C263.751 11.7577 263.708 12.1477 263.621 12.529C263.534 12.9103 263.4 13.257 263.218 13.569C263.036 13.881 262.811 14.1323 262.542 14.323C262.273 14.505 261.957 14.596 261.593 14.596C261.246 14.596 260.96 14.492 260.735 14.284C260.51 14.076 260.362 13.8333 260.293 13.556H260.215C260.068 13.8507 259.851 14.0977 259.565 14.297C259.288 14.4963 258.945 14.596 258.538 14.596C257.871 14.596 257.359 14.375 257.004 13.933C256.657 13.4823 256.484 12.8887 256.484 12.152C256.484 11.58 256.592 11.073 256.809 10.631C257.034 10.189 257.346 9.84233 257.745 9.591C258.152 9.33967 258.638 9.214 259.201 9.214C259.574 9.214 259.942 9.24867 260.306 9.318C260.67 9.37867 260.956 9.45233 261.164 9.539L261.047 12.178C261.038 12.3167 261.03 12.425 261.021 12.503C261.021 12.5723 261.021 12.62 261.021 12.646C261.021 13.062 261.082 13.3393 261.203 13.478C261.333 13.6167 261.48 13.686 261.645 13.686C261.87 13.686 262.061 13.582 262.217 13.374C262.373 13.1573 262.49 12.8713 262.568 12.516C262.655 12.1607 262.698 11.7707 262.698 11.346C262.698 10.5573 262.551 9.89433 262.256 9.357C261.97 8.811 261.571 8.395 261.06 8.109C260.549 7.823 259.964 7.68 259.305 7.68C258.638 7.68 258.044 7.79267 257.524 8.018C257.004 8.24333 256.571 8.564 256.224 8.98C255.877 9.396 255.613 9.88567 255.431 10.449C255.249 11.0123 255.158 11.632 255.158 12.308C255.158 13.1313 255.292 13.8333 255.561 14.414C255.838 14.9947 256.241 15.4367 256.77 15.74C257.307 16.0347 257.966 16.182 258.746 16.182C259.223 16.182 259.704 16.1213 260.189 16C260.674 15.8873 261.108 15.7573 261.489 15.61V16.598C261.125 16.754 260.713 16.884 260.254 16.988C259.795 17.092 259.301 17.144 258.772 17.144C257.793 17.144 256.952 16.9533 256.25 16.572C255.548 16.1907 255.011 15.6447 254.638 14.934C254.265 14.2147 254.079 13.3523 254.079 12.347C254.079 11.541 254.2 10.7957 254.443 10.111C254.686 9.42633 255.032 8.83267 255.483 8.33C255.934 7.81867 256.48 7.42433 257.121 7.147C257.762 6.861 258.486 6.718 259.292 6.718C259.942 6.718 260.536 6.82633 261.073 7.043C261.619 7.251 262.091 7.55867 262.49 7.966C262.897 8.36467 263.209 8.85 263.426 9.422C263.643 9.994 263.751 10.6397 263.751 11.359ZM257.628 12.178C257.628 12.7067 257.723 13.0923 257.914 13.335C258.113 13.569 258.373 13.686 258.694 13.686C259.119 13.686 259.422 13.5127 259.604 13.166C259.795 12.8107 259.907 12.3557 259.942 11.801L260.02 10.241C259.916 10.2063 259.795 10.1803 259.656 10.163C259.517 10.137 259.374 10.124 259.227 10.124C258.846 10.124 258.534 10.2237 258.291 10.423C258.057 10.6223 257.888 10.878 257.784 11.19C257.68 11.502 257.628 11.8313 257.628 12.178ZM267.661 8.863C268.085 8.863 268.462 8.94967 268.792 9.123C269.13 9.29633 269.416 9.56067 269.65 9.916H269.702L269.858 8.993H271.015V16.091C271.015 16.7497 270.902 17.3043 270.677 17.755C270.451 18.2057 270.109 18.5437 269.65 18.769C269.19 19.003 268.61 19.12 267.908 19.12C267.422 19.12 266.98 19.0853 266.582 19.016C266.192 18.9467 265.828 18.8383 265.49 18.691V17.482C265.715 17.6033 265.958 17.703 266.218 17.781C266.478 17.8677 266.751 17.9283 267.037 17.963C267.331 18.0063 267.635 18.028 267.947 18.028C268.484 18.028 268.896 17.8633 269.182 17.534C269.476 17.2133 269.624 16.7583 269.624 16.169V15.935C269.624 15.8223 269.628 15.675 269.637 15.493C269.645 15.3023 269.654 15.1637 269.663 15.077H269.611C269.394 15.441 269.121 15.7097 268.792 15.883C268.471 16.0477 268.09 16.13 267.648 16.13C266.833 16.13 266.192 15.8137 265.724 15.181C265.256 14.5397 265.022 13.6513 265.022 12.516C265.022 11.7533 265.126 11.1033 265.334 10.566C265.55 10.02 265.854 9.59967 266.244 9.305C266.642 9.01033 267.115 8.863 267.661 8.863ZM267.999 10.007C267.669 10.007 267.392 10.1067 267.167 10.306C266.941 10.4967 266.768 10.7783 266.647 11.151C266.534 11.5237 266.478 11.983 266.478 12.529C266.478 13.3437 266.608 13.9633 266.868 14.388C267.128 14.8127 267.509 15.025 268.012 15.025C268.306 15.025 268.558 14.9817 268.766 14.895C268.974 14.8083 269.143 14.674 269.273 14.492C269.411 14.31 269.511 14.0803 269.572 13.803C269.641 13.517 269.676 13.1747 269.676 12.776V12.516C269.676 11.918 269.615 11.437 269.494 11.073C269.381 10.7003 269.199 10.4317 268.948 10.267C268.705 10.0937 268.389 10.007 267.999 10.007ZM280.465 8.863C281.211 8.863 281.77 9.06667 282.142 9.474C282.524 9.88133 282.714 10.5357 282.714 11.437V16H281.31V11.619C281.31 11.0817 281.211 10.6787 281.011 10.41C280.821 10.1327 280.522 9.994 280.114 9.994C279.551 9.994 279.148 10.189 278.905 10.579C278.671 10.9603 278.554 11.515 278.554 12.243V16H277.137V11.619C277.137 11.2637 277.094 10.9647 277.007 10.722C276.921 10.4793 276.791 10.2973 276.617 10.176C276.444 10.0547 276.219 9.994 275.941 9.994C275.551 9.994 275.244 10.0893 275.018 10.28C274.793 10.4707 274.633 10.7523 274.537 11.125C274.442 11.489 274.394 11.9353 274.394 12.464V16H272.99V8.993H274.095L274.303 9.929H274.368C274.507 9.68633 274.672 9.487 274.862 9.331C275.062 9.175 275.287 9.058 275.538 8.98C275.79 8.902 276.05 8.863 276.318 8.863C276.812 8.863 277.228 8.95833 277.566 9.149C277.904 9.331 278.156 9.61267 278.32 9.994H278.411C278.619 9.604 278.91 9.318 279.282 9.136C279.655 8.954 280.049 8.863 280.465 8.863ZM287.297 8.863C288.12 8.863 288.74 9.058 289.156 9.448C289.58 9.82933 289.793 10.4317 289.793 11.255V16H288.792L288.519 15.025H288.467C288.267 15.2763 288.068 15.4843 287.869 15.649C287.678 15.8137 287.453 15.935 287.193 16.013C286.941 16.091 286.629 16.13 286.257 16.13C285.867 16.13 285.516 16.0563 285.204 15.909C284.892 15.753 284.645 15.519 284.463 15.207C284.281 14.8863 284.19 14.4877 284.19 14.011C284.19 13.3003 284.441 12.7587 284.944 12.386C285.455 12.0133 286.231 11.8097 287.271 11.775L288.389 11.736V11.346C288.389 10.826 288.28 10.462 288.064 10.254C287.856 10.046 287.561 9.942 287.18 9.942C286.859 9.942 286.543 9.994 286.231 10.098C285.919 10.202 285.615 10.3277 285.321 10.475L284.892 9.474C285.212 9.30067 285.576 9.15767 285.984 9.045C286.4 8.92367 286.837 8.863 287.297 8.863ZM287.544 12.659C286.833 12.6937 286.339 12.828 286.062 13.062C285.784 13.2873 285.646 13.608 285.646 14.024C285.646 14.388 285.741 14.6523 285.932 14.817C286.131 14.9817 286.387 15.064 286.699 15.064C287.175 15.064 287.574 14.9123 287.895 14.609C288.224 14.3057 288.389 13.8507 288.389 13.244V12.633L287.544 12.659ZM293.146 8.993V16H291.729V8.993H293.146ZM292.457 6.328C292.665 6.328 292.847 6.38867 293.003 6.51C293.159 6.63133 293.237 6.835 293.237 7.121C293.237 7.39833 293.159 7.602 293.003 7.732C292.847 7.85333 292.665 7.914 292.457 7.914C292.231 7.914 292.041 7.85333 291.885 7.732C291.729 7.602 291.651 7.39833 291.651 7.121C291.651 6.835 291.729 6.63133 291.885 6.51C292.041 6.38867 292.231 6.328 292.457 6.328ZM296.522 16H295.118V6.12H296.522V16ZM298.3 15.233C298.3 14.895 298.383 14.6567 298.547 14.518C298.721 14.3793 298.933 14.31 299.184 14.31C299.427 14.31 299.635 14.3793 299.808 14.518C299.99 14.6567 300.081 14.895 300.081 15.233C300.081 15.571 299.99 15.8137 299.808 15.961C299.635 16.1083 299.427 16.182 299.184 16.182C298.933 16.182 298.721 16.1083 298.547 15.961C298.383 15.8137 298.3 15.571 298.3 15.233ZM304.576 16.13C303.961 16.13 303.419 16.0043 302.951 15.753C302.492 15.5017 302.132 15.1117 301.872 14.583C301.621 14.0457 301.495 13.3653 301.495 12.542C301.495 11.6753 301.634 10.9733 301.911 10.436C302.189 9.89867 302.566 9.50433 303.042 9.253C303.519 8.993 304.065 8.863 304.68 8.863C305.044 8.863 305.391 8.90633 305.72 8.993C306.058 9.071 306.336 9.162 306.552 9.266L306.123 10.371C305.907 10.2843 305.673 10.2063 305.421 10.137C305.17 10.0677 304.932 10.033 304.706 10.033C304.308 10.033 303.978 10.1283 303.718 10.319C303.467 10.501 303.276 10.7783 303.146 11.151C303.016 11.515 302.951 11.9743 302.951 12.529C302.951 13.0577 303.016 13.504 303.146 13.868C303.276 14.232 303.467 14.5093 303.718 14.7C303.978 14.882 304.29 14.973 304.654 14.973C305.01 14.973 305.326 14.9297 305.603 14.843C305.889 14.7563 306.154 14.6437 306.396 14.505V15.701C306.154 15.8483 305.889 15.9567 305.603 16.026C305.317 16.0953 304.975 16.13 304.576 16.13ZM313.804 12.49C313.804 13.0707 313.73 13.5863 313.583 14.037C313.436 14.4877 313.223 14.869 312.946 15.181C312.677 15.493 312.348 15.7313 311.958 15.896C311.568 16.052 311.13 16.13 310.645 16.13C310.203 16.13 309.791 16.052 309.41 15.896C309.029 15.7313 308.699 15.493 308.422 15.181C308.145 14.869 307.928 14.4877 307.772 14.037C307.625 13.5863 307.551 13.0663 307.551 12.477C307.551 11.7057 307.677 11.0513 307.928 10.514C308.179 9.97667 308.539 9.56933 309.007 9.292C309.484 9.006 310.047 8.863 310.697 8.863C311.304 8.863 311.841 9.006 312.309 9.292C312.777 9.56933 313.141 9.97667 313.401 10.514C313.67 11.0513 313.804 11.71 313.804 12.49ZM309.007 12.49C309.007 13.01 309.063 13.4607 309.176 13.842C309.297 14.2147 309.479 14.5007 309.722 14.7C309.973 14.8993 310.29 14.999 310.671 14.999C311.061 14.999 311.377 14.8993 311.62 14.7C311.871 14.5007 312.053 14.2147 312.166 13.842C312.287 13.4607 312.348 13.01 312.348 12.49C312.348 11.9527 312.287 11.502 312.166 11.138C312.045 10.774 311.863 10.4967 311.62 10.306C311.377 10.1067 311.057 10.007 310.658 10.007C310.077 10.007 309.657 10.2237 309.397 10.657C309.137 11.0903 309.007 11.7013 309.007 12.49ZM322.88 8.863C323.626 8.863 324.185 9.06667 324.557 9.474C324.939 9.88133 325.129 10.5357 325.129 11.437V16H323.725V11.619C323.725 11.0817 323.626 10.6787 323.426 10.41C323.236 10.1327 322.937 9.994 322.529 9.994C321.966 9.994 321.563 10.189 321.32 10.579C321.086 10.9603 320.969 11.515 320.969 12.243V16H319.552V11.619C319.552 11.2637 319.509 10.9647 319.422 10.722C319.336 10.4793 319.206 10.2973 319.032 10.176C318.859 10.0547 318.634 9.994 318.356 9.994C317.966 9.994 317.659 10.0893 317.433 10.28C317.208 10.4707 317.048 10.7523 316.952 11.125C316.857 11.489 316.809 11.9353 316.809 12.464V16H315.405V8.993H316.51L316.718 9.929H316.783C316.922 9.68633 317.087 9.487 317.277 9.331C317.477 9.175 317.702 9.058 317.953 8.98C318.205 8.902 318.465 8.863 318.733 8.863C319.227 8.863 319.643 8.95833 319.981 9.149C320.319 9.331 320.571 9.61267 320.735 9.994H320.826C321.034 9.604 321.325 9.318 321.697 9.136C322.07 8.954 322.464 8.863 322.88 8.863Z" fill="#090F24"/>
<path d="M185.003 11.1028L191.868 15.4444V6.58007L185.003 11.1028Z" fill="#686877"/>
<path d="M171.504 6.58007V15.4444L178.368 11.1028L171.504 6.58007Z" fill="#686877"/>
<path d="M190.595 4H172.777C172.141 4 171.638 4.47447 171.543 5.08335L181.686 11.7647L191.829 5.08131C191.733 4.47244 191.23 4 190.595 4Z" fill="#686877"/>
<path d="M183.836 11.8726L182.036 13.0598C181.928 13.129 181.808 13.1637 181.686 13.1637C181.564 13.1637 181.443 13.129 181.336 13.0598L179.535 11.8726L171.545 16.9248C171.642 17.5296 172.143 18 172.777 18H190.595C191.228 18 191.729 17.5296 191.827 16.9248L183.836 11.8726Z" fill="#686877"/>
<path d="M402.32 16V6.004H403.566V14.88H407.654V16H402.32ZM415.684 6.004L412.338 16H411.078L407.732 6.004H409.034L411.12 12.416C411.213 12.6867 411.292 12.948 411.358 13.2C411.432 13.452 411.498 13.6947 411.554 13.928C411.619 14.152 411.67 14.376 411.708 14.6C411.745 14.376 411.792 14.1473 411.848 13.914C411.904 13.6807 411.969 13.438 412.044 13.186C412.128 12.934 412.212 12.668 412.296 12.388L414.368 6.004H415.684Z" fill="#090F24"/>
<path d="M395.368 20.9668H421.368" stroke="#74CCD8" stroke-linecap="round"/>
<path d="M377.526 6.004C378.74 6.004 379.631 6.27467 380.2 6.816C380.77 7.35733 381.054 8.104 381.054 9.056C381.054 9.48533 380.994 9.896 380.872 10.288C380.751 10.6707 380.546 11.016 380.256 11.324C379.976 11.632 379.603 11.8747 379.136 12.052C378.67 12.2293 378.096 12.318 377.414 12.318H376.518V16H374.642V6.004H377.526ZM377.456 7.488H376.518V10.834H377.218C377.629 10.834 377.979 10.778 378.268 10.666C378.558 10.5447 378.777 10.358 378.926 10.106C379.085 9.854 379.164 9.52733 379.164 9.126C379.164 8.57533 379.024 8.16467 378.744 7.894C378.464 7.62333 378.035 7.488 377.456 7.488ZM387.382 13.116C387.111 13.7693 386.826 14.3247 386.528 14.782C386.229 15.23 385.86 15.5707 385.422 15.804C384.983 16.028 384.409 16.14 383.7 16.14C383.476 16.14 383.228 16.1213 382.958 16.084C382.696 16.0467 382.458 15.9953 382.244 15.93V14.292C382.449 14.3853 382.668 14.4553 382.902 14.502C383.144 14.5393 383.378 14.558 383.602 14.558C383.891 14.558 384.138 14.5113 384.344 14.418C384.549 14.3153 384.722 14.1753 384.862 13.998C385.002 13.8207 385.123 13.6013 385.226 13.34L381.796 6.004H383.812L385.73 10.442C385.786 10.5727 385.842 10.7127 385.898 10.862C385.954 11.002 386.005 11.1467 386.052 11.296C386.098 11.436 386.136 11.576 386.164 11.716H386.234C386.271 11.5853 386.313 11.45 386.36 11.31C386.406 11.1607 386.453 11.0113 386.5 10.862C386.546 10.7127 386.598 10.5727 386.654 10.442L388.348 6.004H390.322L387.382 13.116Z" fill="#B7B8C5"/>
</svg>
