<svg width="228" height="46" viewBox="0 0 228 46" fill="none" xmlns="http://www.w3.org/2000/svg">
<rect width="228" height="46" rx="23" fill="#74CCD8"/>
<path d="M36.2658 27.3024C35.96 27.7174 35.4838 27.9725 34.9689 27.9979C34.454 28.0235 33.9553 27.816 33.6102 27.4328L30.5184 24.0017C30.0271 23.4568 30.0707 22.6167 30.6157 22.1253C31.1612 21.6339 32.0007 21.6779 32.4921 22.2231L34.6795 24.6507C34.7119 24.6868 34.759 24.7061 34.8073 24.7038C34.8559 24.7014 34.9004 24.6771 34.9294 24.6384L39.4256 18.5403C39.8607 17.9496 40.6924 17.8239 41.2834 18.2593C41.8738 18.6948 41.9993 19.5265 41.5639 20.1169L36.2658 27.3024Z" fill="white"/>
<path d="M61.0831 23.63C61.0831 24.46 60.9831 25.215 60.7831 25.895C60.5931 26.565 60.2981 27.145 59.8981 27.635C59.5081 28.125 59.0181 28.5 58.4281 28.76C57.8381 29.02 57.1531 29.15 56.3731 29.15C55.5731 29.15 54.8731 29.02 54.2731 28.76C53.6831 28.49 53.1931 28.115 52.8031 27.635C52.4131 27.145 52.1231 26.56 51.9331 25.88C51.7431 25.2 51.6481 24.445 51.6481 23.615C51.6481 22.515 51.8181 21.555 52.1581 20.735C52.5081 19.915 53.0331 19.275 53.7331 18.815C54.4331 18.355 55.3181 18.125 56.3881 18.125C57.4281 18.125 58.2931 18.355 58.9831 18.815C59.6831 19.265 60.2081 19.905 60.5581 20.735C60.9081 21.555 61.0831 22.52 61.0831 23.63ZM53.4031 23.63C53.4031 24.49 53.5031 25.23 53.7031 25.85C53.9131 26.46 54.2381 26.935 54.6781 27.275C55.1281 27.605 55.6931 27.77 56.3731 27.77C57.0631 27.77 57.6231 27.605 58.0531 27.275C58.4931 26.935 58.8131 26.46 59.0131 25.85C59.2231 25.23 59.3281 24.49 59.3281 23.63C59.3281 22.34 59.0931 21.335 58.6231 20.615C58.1531 19.885 57.4081 19.52 56.3881 19.52C55.6981 19.52 55.1281 19.685 54.6781 20.015C54.2381 20.345 53.9131 20.815 53.7031 21.425C53.5031 22.035 53.4031 22.77 53.4031 23.63ZM68.077 20.825C68.887 20.895 69.582 21.11 70.162 21.47C70.742 21.82 71.187 22.29 71.497 22.88C71.807 23.47 71.962 24.165 71.962 24.965C71.962 25.755 71.812 26.45 71.512 27.05C71.212 27.64 70.772 28.115 70.192 28.475C69.622 28.825 68.917 29.035 68.077 29.105V32.6H66.517V29.105C65.727 29.025 65.037 28.81 64.447 28.46C63.857 28.11 63.402 27.64 63.082 27.05C62.772 26.45 62.617 25.755 62.617 24.965C62.617 24.155 62.767 23.45 63.067 22.85C63.367 22.25 63.807 21.78 64.387 21.44C64.977 21.09 65.697 20.885 66.547 20.825V17.6H68.077V20.825ZM66.547 22.085C66.047 22.145 65.627 22.3 65.287 22.55C64.957 22.79 64.707 23.115 64.537 23.525C64.377 23.925 64.297 24.405 64.297 24.965C64.297 25.515 64.377 25.995 64.537 26.405C64.707 26.815 64.957 27.145 65.287 27.395C65.617 27.635 66.037 27.785 66.547 27.845V22.085ZM68.077 27.845C68.567 27.775 68.977 27.62 69.307 27.38C69.637 27.14 69.882 26.815 70.042 26.405C70.212 25.995 70.297 25.515 70.297 24.965C70.297 24.405 70.212 23.925 70.042 23.525C69.872 23.115 69.622 22.79 69.292 22.55C68.962 22.31 68.557 22.16 68.077 22.1V27.845ZM80.6136 24.95C80.6136 25.62 80.5286 26.215 80.3586 26.735C80.1886 27.255 79.9436 27.695 79.6236 28.055C79.3136 28.415 78.9336 28.69 78.4836 28.88C78.0336 29.06 77.5286 29.15 76.9686 29.15C76.4586 29.15 75.9836 29.06 75.5436 28.88C75.1036 28.69 74.7236 28.415 74.4036 28.055C74.0836 27.695 73.8336 27.255 73.6536 26.735C73.4836 26.215 73.3986 25.615 73.3986 24.935C73.3986 24.045 73.5436 23.29 73.8336 22.67C74.1236 22.05 74.5386 21.58 75.0786 21.26C75.6286 20.93 76.2786 20.765 77.0286 20.765C77.7286 20.765 78.3486 20.93 78.8886 21.26C79.4286 21.58 79.8486 22.05 80.1486 22.67C80.4586 23.29 80.6136 24.05 80.6136 24.95ZM75.0786 24.95C75.0786 25.55 75.1436 26.07 75.2736 26.51C75.4136 26.94 75.6236 27.27 75.9036 27.5C76.1936 27.73 76.5586 27.845 76.9986 27.845C77.4486 27.845 77.8136 27.73 78.0936 27.5C78.3836 27.27 78.5936 26.94 78.7236 26.51C78.8636 26.07 78.9336 25.55 78.9336 24.95C78.9336 24.33 78.8636 23.81 78.7236 23.39C78.5836 22.97 78.3736 22.65 78.0936 22.43C77.8136 22.2 77.4436 22.085 76.9836 22.085C76.3136 22.085 75.8286 22.335 75.5286 22.835C75.2286 23.335 75.0786 24.04 75.0786 24.95ZM86.3612 20.765C87.2712 20.765 88.0012 21.115 88.5512 21.815C89.1012 22.515 89.3762 23.56 89.3762 24.95C89.3762 25.86 89.2462 26.63 88.9862 27.26C88.7362 27.89 88.3812 28.365 87.9212 28.685C87.4612 28.995 86.9262 29.15 86.3162 29.15C85.9462 29.15 85.6162 29.1 85.3262 29C85.0362 28.89 84.7912 28.75 84.5912 28.58C84.4012 28.4 84.2312 28.21 84.0812 28.01H83.9912C84.0112 28.19 84.0312 28.405 84.0512 28.655C84.0712 28.895 84.0812 29.11 84.0812 29.3V32.6H82.4612V20.915H83.7812L84.0062 21.995H84.0812C84.2312 21.775 84.4062 21.57 84.6062 21.38C84.8162 21.19 85.0612 21.04 85.3412 20.93C85.6312 20.82 85.9712 20.765 86.3612 20.765ZM85.9262 22.07C85.4862 22.07 85.1312 22.17 84.8612 22.37C84.5912 22.56 84.3912 22.85 84.2612 23.24C84.1412 23.62 84.0812 24.105 84.0812 24.695V24.935C84.0812 25.555 84.1362 26.085 84.2462 26.525C84.3662 26.955 84.5612 27.285 84.8312 27.515C85.1112 27.735 85.4862 27.845 85.9562 27.845C86.3562 27.845 86.6862 27.725 86.9462 27.485C87.2062 27.235 87.3962 26.89 87.5162 26.45C87.6462 26.01 87.7112 25.5 87.7112 24.92C87.7112 24.04 87.5612 23.345 87.2612 22.835C86.9712 22.325 86.5262 22.07 85.9262 22.07ZM99.9806 20.915V29H98.4956V24.2C98.4956 23.93 98.5006 23.66 98.5106 23.39C98.5306 23.11 98.5556 22.845 98.5856 22.595H98.5406L96.2306 29H94.9556L92.6906 22.595H92.6456C92.6656 22.845 92.6806 23.11 92.6906 23.39C92.7006 23.66 92.7056 23.945 92.7056 24.245V29H91.2356V20.915H93.4406L95.6006 27.11L97.7906 20.915H99.9806ZM103.796 25.325C103.796 25.445 103.791 25.6 103.781 25.79C103.771 25.98 103.761 26.18 103.751 26.39C103.741 26.59 103.731 26.78 103.721 26.96C103.711 27.13 103.701 27.265 103.691 27.365L107.486 20.915H109.406V29H107.891V24.695C107.891 24.505 107.896 24.27 107.906 23.99C107.916 23.71 107.926 23.44 107.936 23.18C107.946 22.91 107.956 22.705 107.966 22.565L104.201 29H102.266V20.915H103.796V25.325ZM117.444 22.19H114.939V29H113.334V22.19H110.859V20.915H117.444V22.19ZM122.431 24.17C123.131 24.17 123.706 24.26 124.156 24.44C124.616 24.61 124.956 24.865 125.176 25.205C125.406 25.545 125.521 25.975 125.521 26.495C125.521 27.005 125.411 27.45 125.191 27.83C124.971 28.2 124.631 28.49 124.171 28.7C123.711 28.9 123.106 29 122.356 29H118.906V20.915H120.526V24.17H122.431ZM123.886 26.555C123.886 26.115 123.746 25.815 123.466 25.655C123.196 25.485 122.791 25.4 122.251 25.4H120.526V27.8H122.281C122.751 27.8 123.136 27.705 123.436 27.515C123.736 27.325 123.886 27.005 123.886 26.555ZM137.622 20.915V29H135.987V22.205H132.582V29H130.962V20.915H137.622ZM146.693 24.95C146.693 25.62 146.608 26.215 146.438 26.735C146.268 27.255 146.023 27.695 145.703 28.055C145.393 28.415 145.013 28.69 144.563 28.88C144.113 29.06 143.608 29.15 143.048 29.15C142.538 29.15 142.063 29.06 141.623 28.88C141.183 28.69 140.803 28.415 140.483 28.055C140.163 27.695 139.913 27.255 139.733 26.735C139.563 26.215 139.478 25.615 139.478 24.935C139.478 24.045 139.623 23.29 139.913 22.67C140.203 22.05 140.618 21.58 141.158 21.26C141.708 20.93 142.358 20.765 143.108 20.765C143.808 20.765 144.428 20.93 144.968 21.26C145.508 21.58 145.928 22.05 146.228 22.67C146.538 23.29 146.693 24.05 146.693 24.95ZM141.158 24.95C141.158 25.55 141.223 26.07 141.353 26.51C141.493 26.94 141.703 27.27 141.983 27.5C142.273 27.73 142.638 27.845 143.078 27.845C143.528 27.845 143.893 27.73 144.173 27.5C144.463 27.27 144.673 26.94 144.803 26.51C144.943 26.07 145.013 25.55 145.013 24.95C145.013 24.33 144.943 23.81 144.803 23.39C144.663 22.97 144.453 22.65 144.173 22.43C143.893 22.2 143.523 22.085 143.063 22.085C142.393 22.085 141.908 22.335 141.608 22.835C141.308 23.335 141.158 24.04 141.158 24.95ZM154.705 20.915V27.74H155.815V31.835H154.3V29H149.14V31.835H147.64V27.74H148.255C148.655 27.12 148.985 26.44 149.245 25.7C149.515 24.96 149.72 24.185 149.86 23.375C150.01 22.555 150.095 21.735 150.115 20.915H154.705ZM151.495 22.145C151.445 22.795 151.35 23.46 151.21 24.14C151.07 24.82 150.895 25.47 150.685 26.09C150.475 26.71 150.225 27.26 149.935 27.74H153.1V22.145H151.495ZM163.857 20.915V29H162.222V22.205H158.817V29H157.197V20.915H163.857ZM167.663 25.325C167.663 25.445 167.658 25.6 167.648 25.79C167.638 25.98 167.628 26.18 167.618 26.39C167.608 26.59 167.598 26.78 167.588 26.96C167.578 27.13 167.568 27.265 167.558 27.365L171.353 20.915H173.273V29H171.758V24.695C171.758 24.505 171.763 24.27 171.773 23.99C171.783 23.71 171.793 23.44 171.803 23.18C171.813 22.91 171.823 22.705 171.833 22.565L168.068 29H166.133V20.915H167.663V25.325ZM178.702 29.15C177.992 29.15 177.367 29.005 176.827 28.715C176.297 28.425 175.882 27.975 175.582 27.365C175.292 26.745 175.147 25.96 175.147 25.01C175.147 24.01 175.307 23.2 175.627 22.58C175.947 21.96 176.382 21.505 176.932 21.215C177.482 20.915 178.112 20.765 178.822 20.765C179.242 20.765 179.642 20.815 180.022 20.915C180.412 21.005 180.732 21.11 180.982 21.23L180.487 22.505C180.237 22.405 179.967 22.315 179.677 22.235C179.387 22.155 179.112 22.115 178.852 22.115C178.392 22.115 178.012 22.225 177.712 22.445C177.422 22.655 177.202 22.975 177.052 23.405C176.902 23.825 176.827 24.355 176.827 24.995C176.827 25.605 176.902 26.12 177.052 26.54C177.202 26.96 177.422 27.28 177.712 27.5C178.012 27.71 178.372 27.815 178.792 27.815C179.202 27.815 179.567 27.765 179.887 27.665C180.217 27.565 180.522 27.435 180.802 27.275V28.655C180.522 28.825 180.217 28.95 179.887 29.03C179.557 29.11 179.162 29.15 178.702 29.15ZM187.279 20.915H189.064L185.929 24.8L189.334 29H187.459L184.174 24.905V29H182.554V20.915H184.174V24.845L187.279 20.915ZM189.442 20.915H191.182L192.727 25.505C192.807 25.735 192.877 25.96 192.937 26.18C193.007 26.4 193.062 26.62 193.102 26.84C193.152 27.05 193.192 27.26 193.222 27.47H193.267C193.317 27.21 193.387 26.905 193.477 26.555C193.567 26.195 193.667 25.84 193.777 25.49L195.247 20.915H197.002L193.762 30.095C193.572 30.615 193.342 31.06 193.072 31.43C192.812 31.81 192.492 32.1 192.112 32.3C191.742 32.5 191.297 32.6 190.777 32.6C190.557 32.6 190.357 32.585 190.177 32.555C190.007 32.535 189.857 32.51 189.727 32.48V31.22C189.827 31.24 189.952 31.26 190.102 31.28C190.252 31.3 190.407 31.31 190.567 31.31C190.857 31.31 191.107 31.25 191.317 31.13C191.527 31.01 191.702 30.84 191.842 30.62C191.982 30.41 192.097 30.16 192.187 29.87L192.487 29L189.442 20.915Z" fill="white"/>
</svg>
