<svg width="119" height="237" viewBox="0 0 119 237" fill="none" xmlns="http://www.w3.org/2000/svg">
<g filter="url(#filter0_d_1_915)">
<path d="M0.352009 202.384C2.58748 201.925 4.82295 201.467 7.05841 201.085C4.51461 201.62 1.66246 200.397 -0.495926 197.645L-42.5073 143.755C-46.0532 139.245 -46.5157 132.137 -43.5865 127.932L34.1153 16.6372C36.3507 13.4267 40.3592 10.9807 44.2134 10.2163C41.978 10.6749 39.7425 11.1336 37.507 11.5158C33.6528 12.2802 29.6443 14.7262 27.4089 17.9366L-50.2158 129.308C-53.145 133.512 -52.6825 140.621 -49.1366 145.131L-7.20233 198.944C-5.04395 201.696 -2.1918 202.919 0.352009 202.384Z" fill="url(#paint0_linear_1_915)"/>
<path d="M10.2959 198.256C7.36671 202.46 2.12493 202.154 -1.42098 197.644L-43.3553 143.831C-46.9012 139.321 -47.3637 132.213 -44.4345 128.008L33.3444 16.7132C36.2736 12.509 42.3633 9.60433 46.9114 10.1394L78.0537 13.9613C82.6017 14.5729 86.9185 20 87.5352 26.1916L92.0832 68.1566C92.777 74.2717 90.9269 82.7565 87.9977 86.9606L10.2959 198.256ZM65.1034 31.7716C62.7909 35.0585 63.1763 40.6386 65.9514 44.2312C68.7264 47.8238 72.8119 47.9767 75.1245 44.6898C77.437 41.403 77.0516 35.8229 74.2766 32.2303C71.5786 28.6376 67.416 28.4848 65.1034 31.7716Z" fill="white"/>
<path d="M11.1439 198.18C8.21467 202.384 2.97289 202.078 -0.573029 197.568L-42.5073 143.755C-46.0532 139.245 -46.5157 132.137 -43.5865 127.932L34.1153 16.6372C37.0445 12.4331 43.1342 9.5284 47.6822 10.0635L78.8246 13.8854C83.3726 14.4969 87.6894 19.9241 88.3061 26.1157L92.8541 68.0807C93.5479 74.1958 91.6978 82.6805 88.7686 86.8847L11.1439 198.18ZM65.9514 31.6957C63.6388 34.9826 64.0243 40.5626 66.7993 44.1553C69.5744 47.7479 73.6599 47.9008 75.9725 44.6139C78.285 41.327 77.8996 35.747 75.1245 32.1543C72.3495 28.6382 68.264 28.4088 65.9514 31.6957Z" fill="url(#paint1_linear_1_915)"/>
<path d="M26.4838 133.589C25.4046 132.213 24.865 130.684 24.7109 129.002C24.5567 127.244 24.9421 125.792 25.7901 124.569C26.638 123.346 27.7172 122.811 28.9505 122.964C30.261 123.116 31.4173 123.804 32.4194 125.104C33.4215 126.403 33.9611 127.932 34.1152 129.614C34.2694 131.372 33.884 132.824 33.1131 133.971C32.2652 135.194 31.186 135.729 29.9527 135.652C28.6422 135.576 27.4859 134.888 26.4838 133.589ZM37.5841 117.689C35.734 115.32 33.6527 113.638 31.3402 112.644C29.0276 111.651 26.7922 111.498 24.6338 112.033C22.4754 112.644 20.6254 113.944 19.1607 116.084C17.6961 118.224 16.7711 120.747 16.4628 123.728C16.1544 126.709 16.3857 129.767 17.2336 132.824C18.0815 135.882 19.392 138.557 21.3191 141.003C23.1692 143.373 25.2505 145.054 27.563 146.048C29.8756 147.042 32.111 147.195 34.2694 146.583C36.4278 145.972 38.2778 144.596 39.7425 142.456C41.2071 140.315 42.1321 137.793 42.4404 134.812C42.7488 131.831 42.5175 128.849 41.6696 125.792C40.7446 122.811 39.4341 120.059 37.5841 117.689ZM57.5491 94.6812L51.5365 86.8844C50.9969 86.1964 50.5344 85.9671 49.9948 86.1964L-5.12106 103.625C-5.27523 103.625 -5.50649 103.777 -5.66066 104.007C-5.969 104.465 -5.89191 105 -5.35232 105.688L0.660319 113.485C1.19991 114.173 1.73951 114.402 2.20202 114.173L57.1637 96.6686C57.472 96.5922 57.6262 96.4393 57.7804 96.2864C57.9345 96.1335 57.9345 95.8278 57.8574 95.522C57.9345 95.2927 57.7804 94.9869 57.5491 94.6812ZM20.4712 76.2594C19.392 74.8835 18.8524 73.3547 18.6982 71.673C18.5441 69.9149 18.9295 68.4626 19.7774 67.2396C20.6254 66.0165 21.7045 65.4815 22.9379 65.6344C24.2484 65.7872 25.4046 66.4752 26.4067 67.7746C27.4088 69.0741 27.9484 70.6029 28.1026 72.2845C28.2568 74.0426 27.8714 75.495 27.1005 76.6416C26.2526 77.8646 25.1734 78.3997 23.94 78.3232C22.6296 78.2468 21.5504 77.5588 20.4712 76.2594ZM31.5714 60.3601C29.7214 57.9905 27.6401 56.3088 25.3275 55.3151C23.015 54.3214 20.7795 54.1685 18.6211 54.7036C16.4628 55.3151 14.6127 56.6145 13.1481 58.7548C11.6835 60.8951 10.7585 63.4176 10.4501 66.3987C10.1418 69.3799 10.373 72.4374 11.221 75.495C12.0689 78.5525 13.3794 81.3044 15.3065 83.674C17.1565 86.0436 19.2378 87.7252 21.5504 88.7189C23.8629 89.7126 26.0984 89.8655 28.2568 89.254C30.4152 88.6425 32.2652 87.2666 33.7298 85.1263C35.1944 82.986 36.1195 80.4635 36.4278 77.4824C36.7361 74.5013 36.5049 71.5202 35.6569 68.4626C34.809 65.4815 33.4986 62.7297 31.5714 60.3601Z" fill="url(#paint2_linear_1_915)"/>
</g>
<defs>
<filter id="filter0_d_1_915" x="-70.1387" y="0" width="189.139" height="236.507" filterUnits="userSpaceOnUse" color-interpolation-filters="sRGB">
<feFlood flood-opacity="0" result="BackgroundImageFix"/>
<feColorMatrix in="SourceAlpha" type="matrix" values="0 0 0 0 0 0 0 0 0 0 0 0 0 0 0 0 0 0 127 0" result="hardAlpha"/>
<feOffset dx="4" dy="12"/>
<feGaussianBlur stdDeviation="11"/>
<feComposite in2="hardAlpha" operator="out"/>
<feColorMatrix type="matrix" values="0 0 0 0 0.858333 0 0 0 0 0.400556 0 0 0 0 0.565356 0 0 0 0.15 0"/>
<feBlend mode="normal" in2="BackgroundImageFix" result="effect1_dropShadow_1_915"/>
<feBlend mode="normal" in="SourceGraphic" in2="effect1_dropShadow_1_915" result="shape"/>
</filter>
<linearGradient id="paint0_linear_1_915" x1="8.4201" y1="251.716" x2="-6.83667" y2="28.0575" gradientUnits="userSpaceOnUse">
<stop stop-color="#ED9BC1"/>
<stop offset="1" stop-color="#F189AF"/>
</linearGradient>
<linearGradient id="paint1_linear_1_915" x1="13.6534" y1="190.096" x2="33.7104" y2="15.4726" gradientUnits="userSpaceOnUse">
<stop stop-color="#FFBADA"/>
<stop offset="1" stop-color="#F9A5C9"/>
</linearGradient>
<linearGradient id="paint2_linear_1_915" x1="18.1334" y1="24.33" x2="29.7368" y2="136.932" gradientUnits="userSpaceOnUse">
<stop stop-color="#FFC1DD"/>
<stop offset="1" stop-color="white"/>
</linearGradient>
</defs>
</svg>
