<svg width="108" height="108" viewBox="0 0 108 108" fill="none" xmlns="http://www.w3.org/2000/svg">
<g filter="url(#filter0_d_1_921)">
<mask id="mask0_1_921" style="mask-type:alpha" maskUnits="userSpaceOnUse" x="9" y="4" width="90" height="90">
<path d="M53.9547 93.9094C78.7825 93.9094 98.9094 73.7825 98.9094 48.9547C98.9094 24.1269 78.7825 4 53.9547 4C29.1269 4 9 24.1269 9 48.9547C9 73.7825 29.1269 93.9094 53.9547 93.9094Z" fill="url(#paint0_radial_1_921)"/>
</mask>
<g mask="url(#mask0_1_921)">
<path d="M53.9547 93.9094C78.7825 93.9094 98.9094 73.7825 98.9094 48.9547C98.9094 24.1269 78.7825 4 53.9547 4C29.1269 4 9 24.1269 9 48.9547C9 73.7825 29.1269 93.9094 53.9547 93.9094Z" fill="url(#paint1_radial_1_921)"/>
<g filter="url(#filter1_f_1_921)">
<path d="M53.9548 87.824C32.4879 87.824 15.0856 70.4217 15.0856 48.9548" stroke="#EBFDFF" stroke-linecap="round"/>
</g>
<path d="M75.6607 49.3698C75.0045 48.4403 74.1844 47.7841 73.1455 47.5108C72.2706 47.2374 71.4505 47.3467 70.7397 47.7295L66.2561 50.4087C66.9669 49.9712 67.7871 49.9166 68.6619 50.19C69.6461 50.4633 70.521 51.1195 71.1771 52.049C71.8332 53.0332 72.1613 54.0721 72.1066 55.1656C72.0519 56.2592 71.6145 57.0793 70.849 57.6261C70.7397 57.6808 70.685 57.7355 70.5756 57.7901L75.0592 55.1109C75.1686 55.0563 75.2232 55.0016 75.3326 54.9469C76.0981 54.4001 76.4808 53.58 76.5902 52.4864C76.6449 51.3382 76.3168 50.354 75.6607 49.3698Z" fill="url(#paint2_linear_1_921)"/>
<path d="M78.832 61.4537C77.6291 62.1645 76.4262 62.8753 75.2233 63.5861C74.9499 63.7501 74.6218 63.9688 74.3484 64.1329C73.0908 64.8437 71.7786 65.2264 70.2476 65.2811C68.4432 65.2811 66.6935 64.8437 64.9985 63.8595C63.2488 62.8753 61.8272 61.563 60.6243 59.8133C59.4214 58.0636 58.6559 56.2046 58.3279 54.2362C57.9998 52.2678 58.1638 50.4088 58.7653 48.6591C59.3667 46.9094 60.3509 45.5425 61.7726 44.5036C61.9913 44.3396 62.21 44.1755 62.4834 44.0662L66.9669 41.387C66.7482 41.551 66.4748 41.6604 66.2561 41.8244C64.8345 42.8633 63.8503 44.2302 63.2488 45.9799C62.6474 47.7296 62.4834 49.5886 62.8114 51.557C63.1395 53.5254 63.8503 55.3844 65.1079 57.1341C66.3108 58.8838 67.7871 60.2507 69.4821 61.1803C71.2318 62.1645 72.9815 62.6019 74.7312 62.6019C76.2621 62.6019 77.6291 62.2191 78.832 61.4537Z" fill="url(#paint3_linear_1_921)"/>
<path d="M76.2621 41.6057C77.9571 42.5352 79.4334 43.9021 80.6363 45.6518C81.8392 47.4015 82.6047 49.2605 82.9328 51.2836C83.2608 53.252 83.1515 55.111 82.55 56.8607C81.9486 58.6104 80.9644 59.9774 79.5427 61.0162C78.1211 62.0551 76.5355 62.6019 74.7311 62.6019C72.9267 62.6019 71.1771 62.1645 69.4821 61.1803C67.7324 60.1961 66.3108 58.8838 65.1078 57.1341C63.9049 55.3844 63.1394 53.5254 62.8114 51.557C62.4833 49.5886 62.6473 47.7296 63.2488 45.9799C63.8503 44.2302 64.8345 42.8633 66.2561 41.8244C67.6777 40.7855 69.2633 40.2387 71.013 40.2387C72.8174 40.1841 74.5671 40.6762 76.2621 41.6057ZM76.5901 52.4318C76.6448 51.3383 76.3168 50.2994 75.6606 49.3152C75.0045 48.3857 74.1843 47.7296 73.1455 47.4562C72.1613 47.1828 71.2317 47.2921 70.4662 47.8936C69.7008 48.4404 69.2633 49.2605 69.154 50.3541C69.0446 51.4476 69.3727 52.4318 70.0288 53.4707C70.685 54.4549 71.5598 55.1111 72.544 55.3844C73.5282 55.6578 74.4577 55.5485 75.2232 54.947C76.098 54.3456 76.4808 53.5254 76.5901 52.4318Z" fill="#FDFDFD"/>
<path d="M41.7605 47.0734L37.2769 49.698C37.3863 49.6433 37.441 49.5886 37.5503 49.5339C38.3158 48.9872 38.7532 48.167 38.8079 47.0734C38.8626 45.9799 38.5345 44.941 37.8784 43.9568C37.2223 43.0273 36.4021 42.3712 35.3632 42.0978C34.4884 41.8244 33.6682 41.9337 32.9574 42.3165L37.441 39.6373C38.1518 39.1999 38.9719 39.1452 39.8468 39.4186C40.831 39.692 41.7058 40.3481 42.362 41.2776C43.0181 42.2618 43.3461 43.3007 43.2915 44.3942C43.2368 45.4878 42.7994 46.308 42.0339 46.8547C41.9245 46.9094 41.8152 47.0188 41.7605 47.0734Z" fill="url(#paint4_linear_1_921)"/>
<path d="M54.1723 19.5704C54.2817 19.7344 54.3364 19.9531 54.391 20.1719L63.7409 71.1314C63.8503 71.6235 63.6862 72.0063 63.3035 72.3343L58.7106 75.7243C58.3278 75.9977 57.9998 75.9977 57.7264 75.615C57.617 75.4509 57.5077 75.2322 57.5077 75.0682L48.2125 24.054C48.1031 23.5619 48.2671 23.1791 48.6499 22.8511L53.2428 19.461C53.4068 19.3517 53.6255 19.2423 53.7896 19.297C53.9536 19.297 54.063 19.4064 54.1723 19.5704Z" fill="#FDFDFD"/>
<path d="M57.7264 75.5602C57.6171 75.3962 57.5077 75.1775 57.5077 75.0134L48.2125 24.0539C48.1031 23.5618 48.2672 23.179 48.6499 22.851L53.2428 19.4609L48.7593 22.1401L44.1664 25.5302C43.7836 25.8035 43.6196 26.241 43.7289 26.7331L53.0241 77.7473C53.0241 77.9113 53.1335 78.0754 53.2428 78.2941C53.4616 78.6221 53.7896 78.7315 54.1177 78.5128L58.6013 75.8336C58.2732 75.9976 57.9998 75.8883 57.7264 75.5602Z" fill="url(#paint5_linear_1_921)"/>
<path d="M45.5333 53.4158L41.0497 56.095C39.8468 56.8058 38.4799 57.1886 36.9489 57.2432C35.1445 57.2432 33.3948 56.8058 31.6998 55.8216C29.9501 54.8374 28.5285 53.5252 27.3256 51.7755C26.1227 50.0258 25.3572 48.1668 25.0292 46.1984C24.7011 44.23 24.8651 42.3709 25.4666 40.6212C26.068 38.8716 27.0522 37.5046 28.4738 36.4657C28.6926 36.3017 28.9113 36.1377 29.1847 36.0283C30.3876 35.3175 31.5905 34.6067 32.7934 33.8959C33.0668 33.7319 33.3948 33.5132 33.6682 33.3491C33.4495 33.5132 33.1761 33.6225 32.9574 33.7865C31.5358 34.8254 30.5516 36.1924 29.9501 37.942C29.3487 39.6917 29.1847 41.5508 29.5127 43.5192C29.8408 45.4876 30.5516 47.3466 31.8092 49.0963C33.0121 50.846 34.4884 52.2129 36.1834 53.1424C37.9331 54.1266 39.6828 54.564 41.4324 54.564C42.9634 54.564 44.3304 54.1813 45.5333 53.4158Z" fill="url(#paint6_linear_1_921)"/>
<path d="M49.2513 48.8229C48.6499 50.5726 47.6657 51.9396 46.244 52.9784C44.8224 54.0173 43.2368 54.5641 41.4871 54.5641C39.6827 54.5641 37.933 54.1267 36.238 53.1425C34.4883 52.1583 33.0667 50.846 31.8638 49.0963C30.6609 47.3466 29.8954 45.4876 29.5674 43.5192C29.2393 41.5508 29.4033 39.6918 30.0048 37.9421C30.6062 36.1924 31.5904 34.8255 33.0121 33.7866C34.4337 32.7477 36.0193 32.2009 37.769 32.2009C39.5187 32.2009 41.2684 32.6383 42.9634 33.5679C44.6584 34.4974 46.1347 35.8643 47.3376 37.614C48.5405 39.3637 49.306 41.2227 49.6341 43.2458C49.9621 45.2142 49.8528 47.0732 49.2513 48.8229ZM36.7848 45.3782C37.4409 46.3624 38.3158 47.0186 39.3 47.292C40.2842 47.5653 41.2137 47.456 41.9792 46.8545C42.7447 46.3078 43.1821 45.4876 43.2368 44.394C43.2914 43.3005 42.9634 42.2616 42.3073 41.2774C41.6511 40.3479 40.831 39.6918 39.7921 39.4184C38.8079 39.145 37.8784 39.2543 37.1129 39.8558C36.3474 40.4026 35.91 41.2227 35.8553 42.3163C35.8006 43.3552 36.1287 44.394 36.7848 45.3782Z" fill="#FDFDFD"/>
<g opacity="0.5" filter="url(#filter2_f_1_921)">
<circle cx="68.0569" cy="23.454" r="9.89517" fill="white"/>
</g>
<g filter="url(#filter3_f_1_921)">
<circle cx="68.0569" cy="23.4541" r="4.28269" fill="white"/>
</g>
<g filter="url(#filter4_f_1_921)">
<circle cx="30.9154" cy="71.6347" r="4.28269" fill="white"/>
</g>
</g>
</g>
<defs>
<filter id="filter0_d_1_921" x="0" y="0" width="107.909" height="107.909" filterUnits="userSpaceOnUse" color-interpolation-filters="sRGB">
<feFlood flood-opacity="0" result="BackgroundImageFix"/>
<feColorMatrix in="SourceAlpha" type="matrix" values="0 0 0 0 0 0 0 0 0 0 0 0 0 0 0 0 0 0 127 0" result="hardAlpha"/>
<feOffset dy="5"/>
<feGaussianBlur stdDeviation="4.5"/>
<feComposite in2="hardAlpha" operator="out"/>
<feColorMatrix type="matrix" values="0 0 0 0 0.39541 0 0 0 0 0.742266 0 0 0 0 0.808333 0 0 0 0.3 0"/>
<feBlend mode="normal" in2="BackgroundImageFix" result="effect1_dropShadow_1_921"/>
<feBlend mode="normal" in="SourceGraphic" in2="effect1_dropShadow_1_921" result="shape"/>
</filter>
<filter id="filter1_f_1_921" x="8.58557" y="42.4548" width="51.8691" height="51.8691" filterUnits="userSpaceOnUse" color-interpolation-filters="sRGB">
<feFlood flood-opacity="0" result="BackgroundImageFix"/>
<feBlend mode="normal" in="SourceGraphic" in2="BackgroundImageFix" result="shape"/>
<feGaussianBlur stdDeviation="3" result="effect1_foregroundBlur_1_921"/>
</filter>
<filter id="filter2_f_1_921" x="45.1617" y="0.558838" width="45.7904" height="45.7903" filterUnits="userSpaceOnUse" color-interpolation-filters="sRGB">
<feFlood flood-opacity="0" result="BackgroundImageFix"/>
<feBlend mode="normal" in="SourceGraphic" in2="BackgroundImageFix" result="shape"/>
<feGaussianBlur stdDeviation="6.5" result="effect1_foregroundBlur_1_921"/>
</filter>
<filter id="filter3_f_1_921" x="50.7742" y="6.17139" width="34.5654" height="34.5654" filterUnits="userSpaceOnUse" color-interpolation-filters="sRGB">
<feFlood flood-opacity="0" result="BackgroundImageFix"/>
<feBlend mode="normal" in="SourceGraphic" in2="BackgroundImageFix" result="shape"/>
<feGaussianBlur stdDeviation="6.5" result="effect1_foregroundBlur_1_921"/>
</filter>
<filter id="filter4_f_1_921" x="13.6327" y="54.3521" width="34.5654" height="34.5654" filterUnits="userSpaceOnUse" color-interpolation-filters="sRGB">
<feFlood flood-opacity="0" result="BackgroundImageFix"/>
<feBlend mode="normal" in="SourceGraphic" in2="BackgroundImageFix" result="shape"/>
<feGaussianBlur stdDeviation="6.5" result="effect1_foregroundBlur_1_921"/>
</filter>
<radialGradient id="paint0_radial_1_921" cx="0" cy="0" r="1" gradientUnits="userSpaceOnUse" gradientTransform="translate(53.9835 48.9835) scale(44.9835)">
<stop offset="0.00328397" stop-color="#EDB2C9"/>
<stop offset="0.4719" stop-color="#EDAAC6"/>
<stop offset="1" stop-color="#ED9BC1"/>
</radialGradient>
<radialGradient id="paint1_radial_1_921" cx="0" cy="0" r="1" gradientUnits="userSpaceOnUse" gradientTransform="translate(53.9835 48.9835) scale(44.9835)">
<stop offset="0.00328397" stop-color="#74C8D8"/>
<stop offset="0.4719" stop-color="#84D5DA"/>
<stop offset="1" stop-color="#5EC6DA"/>
</radialGradient>
<linearGradient id="paint2_linear_1_921" x1="74.8556" y1="57.5586" x2="70.1399" y2="48.2032" gradientUnits="userSpaceOnUse">
<stop stop-color="white"/>
<stop offset="1" stop-color="#B0E8EC"/>
</linearGradient>
<linearGradient id="paint3_linear_1_921" x1="64.8308" y1="46.9007" x2="70.7633" y2="64.6223" gradientUnits="userSpaceOnUse">
<stop stop-color="white"/>
<stop offset="1" stop-color="#B6EAED"/>
</linearGradient>
<linearGradient id="paint4_linear_1_921" x1="38.6808" y1="50.7867" x2="37.9202" y2="40.5949" gradientUnits="userSpaceOnUse">
<stop stop-color="white"/>
<stop offset="1" stop-color="#B7EAF5"/>
</linearGradient>
<linearGradient id="paint5_linear_1_921" x1="53.2403" y1="21.643" x2="49.5896" y2="73.2101" gradientUnits="userSpaceOnUse">
<stop stop-color="white"/>
<stop offset="1" stop-color="#B3E2EB"/>
</linearGradient>
<linearGradient id="paint6_linear_1_921" x1="29.7863" y1="37.3722" x2="36.9359" y2="54.1814" gradientUnits="userSpaceOnUse">
<stop stop-color="white"/>
<stop offset="1" stop-color="#9DE5F3"/>
</linearGradient>
</defs>
</svg>
