<svg width="169" height="56" viewBox="0 0 169 56" fill="none" xmlns="http://www.w3.org/2000/svg">
<g filter="url(#filter0_d_1_853)">
<rect x="4" y="2" width="161" height="48" rx="24" fill="url(#paint0_linear_1_853)"/>
<path d="M42.745 32H41.08V27.68C40.51 27.89 39.985 28.055 39.505 28.175C39.025 28.295 38.515 28.355 37.975 28.355C37.035 28.355 36.3 28.12 35.77 27.65C35.25 27.18 34.99 26.5 34.99 25.61V21.29H36.64V25.28C36.64 25.84 36.77 26.26 37.03 26.54C37.29 26.82 37.72 26.96 38.32 26.96C38.8 26.96 39.25 26.91 39.67 26.81C40.09 26.7 40.56 26.55 41.08 26.36V21.29H42.745V32ZM46.7188 28.325C46.7188 28.445 46.7138 28.6 46.7038 28.79C46.6938 28.98 46.6838 29.18 46.6738 29.39C46.6638 29.59 46.6538 29.78 46.6438 29.96C46.6338 30.13 46.6238 30.265 46.6138 30.365L50.4088 23.915H52.3288V32H50.8138V27.695C50.8138 27.505 50.8188 27.27 50.8288 26.99C50.8388 26.71 50.8488 26.44 50.8588 26.18C50.8688 25.91 50.8788 25.705 50.8888 25.565L47.1238 32H45.1888V23.915H46.7188V28.325ZM60.3674 25.19H57.8624V32H56.2574V25.19H53.7824V23.915H60.3674V25.19ZM64.8895 23.765C65.8395 23.765 66.5545 23.99 67.0345 24.44C67.5245 24.88 67.7695 25.575 67.7695 26.525V32H66.6145L66.2995 30.875H66.2395C66.0095 31.165 65.7795 31.405 65.5495 31.595C65.3295 31.785 65.0695 31.925 64.7695 32.015C64.4795 32.105 64.1195 32.15 63.6895 32.15C63.2395 32.15 62.8345 32.065 62.4745 31.895C62.1145 31.715 61.8295 31.445 61.6195 31.085C61.4095 30.715 61.3045 30.255 61.3045 29.705C61.3045 28.885 61.5945 28.26 62.1745 27.83C62.7645 27.4 63.6595 27.165 64.8595 27.125L66.1495 27.08V26.63C66.1495 26.03 66.0245 25.61 65.7745 25.37C65.5345 25.13 65.1945 25.01 64.7545 25.01C64.3845 25.01 64.0195 25.07 63.6595 25.19C63.2995 25.31 62.9495 25.455 62.6095 25.625L62.1145 24.47C62.4845 24.27 62.9045 24.105 63.3745 23.975C63.8545 23.835 64.3595 23.765 64.8895 23.765ZM65.1745 28.145C64.3545 28.185 63.7845 28.34 63.4645 28.61C63.1445 28.87 62.9845 29.24 62.9845 29.72C62.9845 30.14 63.0945 30.445 63.3145 30.635C63.5445 30.825 63.8395 30.92 64.1995 30.92C64.7495 30.92 65.2095 30.745 65.5795 30.395C65.9595 30.045 66.1495 29.52 66.1495 28.82V28.115L65.1745 28.145ZM75.7483 25.19H73.2433V32H71.6383V25.19H69.1633V23.915H75.7483V25.19ZM80.7353 27.17C81.4353 27.17 82.0103 27.26 82.4603 27.44C82.9203 27.61 83.2603 27.865 83.4803 28.205C83.7103 28.545 83.8253 28.975 83.8253 29.495C83.8253 30.005 83.7153 30.45 83.4953 30.83C83.2753 31.2 82.9353 31.49 82.4753 31.7C82.0153 31.9 81.4103 32 80.6603 32H77.2103V23.915H78.8303V27.17H80.7353ZM82.1903 29.555C82.1903 29.115 82.0503 28.815 81.7703 28.655C81.5003 28.485 81.0953 28.4 80.5553 28.4H78.8303V30.8H80.5853C81.0553 30.8 81.4403 30.705 81.7403 30.515C82.0403 30.325 82.1903 30.005 82.1903 29.555ZM88.861 27.155C88.861 25.965 88.981 24.955 89.221 24.125C89.471 23.295 89.861 22.635 90.391 22.145C90.921 21.645 91.616 21.305 92.476 21.125C93.036 21.005 93.596 20.895 94.156 20.795C94.716 20.695 95.251 20.605 95.761 20.525L95.986 21.92C95.736 21.95 95.466 21.99 95.176 22.04C94.886 22.09 94.591 22.14 94.291 22.19C93.991 22.24 93.701 22.29 93.421 22.34C93.151 22.39 92.911 22.44 92.701 22.49C92.351 22.55 92.046 22.655 91.786 22.805C91.536 22.955 91.326 23.155 91.156 23.405C90.986 23.655 90.851 23.975 90.751 24.365C90.651 24.745 90.591 25.21 90.571 25.76H90.661C90.781 25.57 90.951 25.375 91.171 25.175C91.391 24.975 91.656 24.81 91.966 24.68C92.286 24.54 92.646 24.47 93.046 24.47C93.676 24.47 94.216 24.62 94.666 24.92C95.116 25.21 95.456 25.625 95.686 26.165C95.916 26.695 96.031 27.33 96.031 28.07C96.031 28.98 95.876 29.74 95.566 30.35C95.266 30.95 94.846 31.4 94.306 31.7C93.776 32 93.151 32.15 92.431 32.15C91.891 32.15 91.401 32.045 90.961 31.835C90.521 31.615 90.146 31.295 89.836 30.875C89.526 30.445 89.286 29.92 89.116 29.3C88.946 28.68 88.861 27.965 88.861 27.155ZM92.551 30.845C92.911 30.845 93.221 30.76 93.481 30.59C93.751 30.42 93.961 30.145 94.111 29.765C94.261 29.385 94.336 28.875 94.336 28.235C94.336 27.465 94.211 26.855 93.961 26.405C93.711 25.955 93.296 25.73 92.716 25.73C92.356 25.73 92.026 25.825 91.726 26.015C91.426 26.195 91.171 26.4 90.961 26.63C90.761 26.86 90.616 27.055 90.526 27.215C90.526 27.685 90.556 28.135 90.616 28.565C90.686 28.995 90.796 29.38 90.946 29.72C91.096 30.06 91.296 30.335 91.546 30.545C91.806 30.745 92.141 30.845 92.551 30.845ZM104.194 32H102.544V25.19H100.474C100.374 26.43 100.254 27.495 100.114 28.385C99.9739 29.265 99.7939 29.98 99.5739 30.53C99.3639 31.08 99.0989 31.485 98.7789 31.745C98.4689 31.995 98.0989 32.12 97.6689 32.12C97.5189 32.12 97.3689 32.105 97.2189 32.075C97.0689 32.055 96.9389 32.02 96.8289 31.97V30.755C96.9089 30.775 96.9889 30.795 97.0689 30.815C97.1489 30.825 97.2289 30.83 97.3089 30.83C97.4889 30.83 97.6539 30.75 97.8039 30.59C97.9539 30.43 98.0889 30.18 98.2089 29.84C98.3389 29.5 98.4539 29.06 98.5539 28.52C98.6639 27.97 98.7589 27.315 98.8389 26.555C98.9189 25.795 98.9889 24.915 99.0489 23.915H104.194V32ZM113.258 27.95C113.258 28.62 113.173 29.215 113.003 29.735C112.833 30.255 112.588 30.695 112.268 31.055C111.958 31.415 111.578 31.69 111.128 31.88C110.678 32.06 110.173 32.15 109.613 32.15C109.103 32.15 108.628 32.06 108.188 31.88C107.748 31.69 107.368 31.415 107.048 31.055C106.728 30.695 106.478 30.255 106.298 29.735C106.128 29.215 106.043 28.615 106.043 27.935C106.043 27.045 106.188 26.29 106.478 25.67C106.768 25.05 107.183 24.58 107.723 24.26C108.273 23.93 108.923 23.765 109.673 23.765C110.373 23.765 110.993 23.93 111.533 24.26C112.073 24.58 112.493 25.05 112.793 25.67C113.103 26.29 113.258 27.05 113.258 27.95ZM107.723 27.95C107.723 28.55 107.788 29.07 107.918 29.51C108.058 29.94 108.268 30.27 108.548 30.5C108.838 30.73 109.203 30.845 109.643 30.845C110.093 30.845 110.458 30.73 110.738 30.5C111.028 30.27 111.238 29.94 111.368 29.51C111.508 29.07 111.578 28.55 111.578 27.95C111.578 27.33 111.508 26.81 111.368 26.39C111.228 25.97 111.018 25.65 110.738 25.43C110.458 25.2 110.088 25.085 109.628 25.085C108.958 25.085 108.473 25.335 108.173 25.835C107.873 26.335 107.723 27.04 107.723 27.95ZM120.026 23.915V25.19H116.726V32H115.106V23.915H120.026Z" fill="white"/>
<path d="M130 31L135 26L130 21" stroke="white" stroke-width="2" stroke-linecap="round" stroke-linejoin="round"/>
</g>
<defs>
<filter id="filter0_d_1_853" x="0" y="0" width="169" height="56" filterUnits="userSpaceOnUse" color-interpolation-filters="sRGB">
<feFlood flood-opacity="0" result="BackgroundImageFix"/>
<feColorMatrix in="SourceAlpha" type="matrix" values="0 0 0 0 0 0 0 0 0 0 0 0 0 0 0 0 0 0 127 0" result="hardAlpha"/>
<feOffset dy="2"/>
<feGaussianBlur stdDeviation="2"/>
<feComposite in2="hardAlpha" operator="out"/>
<feColorMatrix type="matrix" values="0 0 0 0 0.929412 0 0 0 0 0.607843 0 0 0 0 0.756863 0 0 0 0.2 0"/>
<feBlend mode="normal" in2="BackgroundImageFix" result="effect1_dropShadow_1_853"/>
<feBlend mode="normal" in="SourceGraphic" in2="effect1_dropShadow_1_853" result="shape"/>
</filter>
<linearGradient id="paint0_linear_1_853" x1="84.5" y1="2" x2="84.5" y2="50" gradientUnits="userSpaceOnUse">
<stop stop-color="#ED9BC1"/>
<stop offset="1" stop-color="#ED9BB9"/>
</linearGradient>
</defs>
</svg>
